<svg width="1280" height="720" viewBox="0 0 1280 720" fill="none" xmlns="http://www.w3.org/2000/svg">
<g clip-path="url(#clip0)">
<path d="M1280 720H0V-2H1280V720Z" fill="#EEBED3"/>
<path d="M635.708 362.584C637.526 362.584 639 361.11 639 359.292C639 357.474 637.526 356 635.708 356C633.89 356 632.416 357.474 632.416 359.292C632.416 361.11 633.89 362.584 635.708 362.584Z" fill="#383A48"/>
<path d="M635.708 378.848C637.526 378.848 639 377.374 639 375.556C639 373.738 637.526 372.264 635.708 372.264C633.89 372.264 632.416 373.738 632.416 375.556C632.416 377.374 633.89 378.848 635.708 378.848Z" fill="#383A48"/>
<path d="M635.708 395.11C637.526 395.11 639 393.636 639 391.817C639 389.999 637.526 388.525 635.708 388.525C633.89 388.525 632.416 389.999 632.416 391.817C632.416 393.636 633.89 395.11 635.708 395.11Z" fill="#383A48"/>
<path d="M635.708 411.373C637.526 411.373 639 409.899 639 408.081C639 406.263 637.526 404.789 635.708 404.789C633.89 404.789 632.416 406.263 632.416 408.081C632.416 409.899 633.89 411.373 635.708 411.373Z" fill="#383A48"/>
<path d="M635.708 427.635C637.526 427.635 639 426.161 639 424.343C639 422.525 637.526 421.051 635.708 421.051C633.89 421.051 632.416 422.525 632.416 424.343C632.416 426.161 633.89 427.635 635.708 427.635Z" fill="#383A48"/>
<path d="M635.708 443.899C637.526 443.899 639 442.425 639 440.607C639 438.788 637.526 437.314 635.708 437.314C633.89 437.314 632.416 438.788 632.416 440.607C632.416 442.425 633.89 443.899 635.708 443.899Z" fill="#383A48"/>
<path d="M635.708 460.16C637.526 460.16 639 458.686 639 456.868C639 455.05 637.526 453.576 635.708 453.576C633.89 453.576 632.416 455.05 632.416 456.868C632.416 458.686 633.89 460.16 635.708 460.16Z" fill="#383A48"/>
<path d="M635.708 476.424C637.526 476.424 639 474.95 639 473.132C639 471.314 637.526 469.84 635.708 469.84C633.89 469.84 632.416 471.314 632.416 473.132C632.416 474.95 633.89 476.424 635.708 476.424Z" fill="#383A48"/>
<path d="M635.708 492.686C637.526 492.686 639 491.212 639 489.394C639 487.575 637.526 486.102 635.708 486.102C633.89 486.102 632.416 487.575 632.416 489.394C632.416 491.212 633.89 492.686 635.708 492.686Z" fill="#383A48"/>
<path d="M635.708 508.949C637.526 508.949 639 507.475 639 505.657C639 503.839 637.526 502.365 635.708 502.365C633.89 502.365 632.416 503.839 632.416 505.657C632.416 507.475 633.89 508.949 635.708 508.949Z" fill="#383A48"/>
<path d="M635.708 525.211C637.526 525.211 639 523.737 639 521.919C639 520.101 637.526 518.627 635.708 518.627C633.89 518.627 632.416 520.101 632.416 521.919C632.416 523.737 633.89 525.211 635.708 525.211Z" fill="#383A48"/>
<path d="M635.708 541.475C637.526 541.475 639 540.001 639 538.183C639 536.365 637.526 534.891 635.708 534.891C633.89 534.891 632.416 536.365 632.416 538.183C632.416 540.001 633.89 541.475 635.708 541.475Z" fill="#383A48"/>
<path d="M635.708 557.736C637.526 557.736 639 556.263 639 554.444C639 552.626 637.526 551.152 635.708 551.152C633.89 551.152 632.416 552.626 632.416 554.444C632.416 556.263 633.89 557.736 635.708 557.736Z" fill="#383A48"/>
<path d="M635.708 574C637.526 574 639 572.526 639 570.708C639 568.89 637.526 567.416 635.708 567.416C633.89 567.416 632.416 568.89 632.416 570.708C632.416 572.526 633.89 574 635.708 574Z" fill="#383A48"/>
<path d="M619.445 362.584C621.263 362.584 622.737 361.11 622.737 359.292C622.737 357.474 621.263 356 619.445 356C617.627 356 616.153 357.474 616.153 359.292C616.153 361.11 617.627 362.584 619.445 362.584Z" fill="#383A48"/>
<path d="M619.445 378.848C621.263 378.848 622.737 377.374 622.737 375.556C622.737 373.738 621.263 372.264 619.445 372.264C617.627 372.264 616.153 373.738 616.153 375.556C616.153 377.374 617.627 378.848 619.445 378.848Z" fill="#383A48"/>
<path d="M619.445 395.11C621.263 395.11 622.737 393.636 622.737 391.817C622.737 389.999 621.263 388.525 619.445 388.525C617.627 388.525 616.153 389.999 616.153 391.817C616.153 393.636 617.627 395.11 619.445 395.11Z" fill="#383A48"/>
<path d="M619.445 411.373C621.263 411.373 622.737 409.899 622.737 408.081C622.737 406.263 621.263 404.789 619.445 404.789C617.627 404.789 616.153 406.263 616.153 408.081C616.153 409.899 617.627 411.373 619.445 411.373Z" fill="#383A48"/>
<path d="M619.445 427.635C621.263 427.635 622.737 426.161 622.737 424.343C622.737 422.525 621.263 421.051 619.445 421.051C617.627 421.051 616.153 422.525 616.153 424.343C616.153 426.161 617.627 427.635 619.445 427.635Z" fill="#383A48"/>
<path d="M619.445 443.899C621.263 443.899 622.737 442.425 622.737 440.607C622.737 438.788 621.263 437.314 619.445 437.314C617.627 437.314 616.153 438.788 616.153 440.607C616.153 442.425 617.627 443.899 619.445 443.899Z" fill="#383A48"/>
<path d="M619.445 460.16C621.263 460.16 622.737 458.686 622.737 456.868C622.737 455.05 621.263 453.576 619.445 453.576C617.627 453.576 616.153 455.05 616.153 456.868C616.153 458.686 617.627 460.16 619.445 460.16Z" fill="#383A48"/>
<path d="M619.445 476.424C621.263 476.424 622.737 474.95 622.737 473.132C622.737 471.314 621.263 469.84 619.445 469.84C617.627 469.84 616.153 471.314 616.153 473.132C616.153 474.95 617.627 476.424 619.445 476.424Z" fill="#383A48"/>
<path d="M619.445 492.686C621.263 492.686 622.737 491.212 622.737 489.394C622.737 487.575 621.263 486.102 619.445 486.102C617.627 486.102 616.153 487.575 616.153 489.394C616.153 491.212 617.627 492.686 619.445 492.686Z" fill="#383A48"/>
<path d="M619.445 508.949C621.263 508.949 622.737 507.475 622.737 505.657C622.737 503.839 621.263 502.365 619.445 502.365C617.627 502.365 616.153 503.839 616.153 505.657C616.153 507.475 617.627 508.949 619.445 508.949Z" fill="#383A48"/>
<path d="M619.445 525.211C621.263 525.211 622.737 523.737 622.737 521.919C622.737 520.101 621.263 518.627 619.445 518.627C617.627 518.627 616.153 520.101 616.153 521.919C616.153 523.737 617.627 525.211 619.445 525.211Z" fill="#383A48"/>
<path d="M619.445 541.475C621.263 541.475 622.737 540.001 622.737 538.183C622.737 536.365 621.263 534.891 619.445 534.891C617.627 534.891 616.153 536.365 616.153 538.183C616.153 540.001 617.627 541.475 619.445 541.475Z" fill="#383A48"/>
<path d="M619.445 557.736C621.263 557.736 622.737 556.263 622.737 554.444C622.737 552.626 621.263 551.152 619.445 551.152C617.627 551.152 616.153 552.626 616.153 554.444C616.153 556.263 617.627 557.736 619.445 557.736Z" fill="#383A48"/>
<path d="M619.445 574C621.263 574 622.737 572.526 622.737 570.708C622.737 568.89 621.263 567.416 619.445 567.416C617.627 567.416 616.153 568.89 616.153 570.708C616.153 572.526 617.627 574 619.445 574Z" fill="#383A48"/>
<path d="M603.182 362.584C605.001 362.584 606.474 361.11 606.474 359.292C606.474 357.474 605.001 356 603.182 356C601.364 356 599.89 357.474 599.89 359.292C599.89 361.11 601.364 362.584 603.182 362.584Z" fill="#383A48"/>
<path d="M603.182 378.848C605.001 378.848 606.474 377.374 606.474 375.556C606.474 373.738 605.001 372.264 603.182 372.264C601.364 372.264 599.89 373.738 599.89 375.556C599.89 377.374 601.364 378.848 603.182 378.848Z" fill="#383A48"/>
<path d="M603.182 395.11C605.001 395.11 606.474 393.636 606.474 391.817C606.474 389.999 605.001 388.525 603.182 388.525C601.364 388.525 599.89 389.999 599.89 391.817C599.89 393.636 601.364 395.11 603.182 395.11Z" fill="#383A48"/>
<path d="M603.182 411.373C605.001 411.373 606.474 409.899 606.474 408.081C606.474 406.263 605.001 404.789 603.182 404.789C601.364 404.789 599.89 406.263 599.89 408.081C599.89 409.899 601.364 411.373 603.182 411.373Z" fill="#383A48"/>
<path d="M603.182 427.635C605.001 427.635 606.474 426.161 606.474 424.343C606.474 422.525 605.001 421.051 603.182 421.051C601.364 421.051 599.89 422.525 599.89 424.343C599.89 426.161 601.364 427.635 603.182 427.635Z" fill="#383A48"/>
<path d="M603.182 443.899C605.001 443.899 606.474 442.425 606.474 440.607C606.474 438.788 605.001 437.314 603.182 437.314C601.364 437.314 599.89 438.788 599.89 440.607C599.89 442.425 601.364 443.899 603.182 443.899Z" fill="#383A48"/>
<path d="M603.182 460.16C605.001 460.16 606.474 458.686 606.474 456.868C606.474 455.05 605.001 453.576 603.182 453.576C601.364 453.576 599.89 455.05 599.89 456.868C599.89 458.686 601.364 460.16 603.182 460.16Z" fill="#383A48"/>
<path d="M603.182 476.424C605.001 476.424 606.474 474.95 606.474 473.132C606.474 471.314 605.001 469.84 603.182 469.84C601.364 469.84 599.89 471.314 599.89 473.132C599.89 474.95 601.364 476.424 603.182 476.424Z" fill="#383A48"/>
<path d="M603.182 492.686C605.001 492.686 606.474 491.212 606.474 489.394C606.474 487.575 605.001 486.102 603.182 486.102C601.364 486.102 599.89 487.575 599.89 489.394C599.89 491.212 601.364 492.686 603.182 492.686Z" fill="#383A48"/>
<path d="M603.182 508.949C605.001 508.949 606.474 507.475 606.474 505.657C606.474 503.839 605.001 502.365 603.182 502.365C601.364 502.365 599.89 503.839 599.89 505.657C599.89 507.475 601.364 508.949 603.182 508.949Z" fill="#383A48"/>
<path d="M603.182 525.211C605.001 525.211 606.474 523.737 606.474 521.919C606.474 520.101 605.001 518.627 603.182 518.627C601.364 518.627 599.89 520.101 599.89 521.919C599.89 523.737 601.364 525.211 603.182 525.211Z" fill="#383A48"/>
<path d="M603.182 541.475C605.001 541.475 606.474 540.001 606.474 538.183C606.474 536.365 605.001 534.891 603.182 534.891C601.364 534.891 599.89 536.365 599.89 538.183C599.89 540.001 601.364 541.475 603.182 541.475Z" fill="#383A48"/>
<path d="M603.182 557.736C605.001 557.736 606.474 556.263 606.474 554.444C606.474 552.626 605.001 551.152 603.182 551.152C601.364 551.152 599.89 552.626 599.89 554.444C599.89 556.263 601.364 557.736 603.182 557.736Z" fill="#383A48"/>
<path d="M603.182 574C605.001 574 606.474 572.526 606.474 570.708C606.474 568.89 605.001 567.416 603.182 567.416C601.364 567.416 599.89 568.89 599.89 570.708C599.89 572.526 601.364 574 603.182 574Z" fill="#383A48"/>
<path d="M586.92 362.584C588.738 362.584 590.212 361.11 590.212 359.292C590.212 357.474 588.738 356 586.92 356C585.102 356 583.628 357.474 583.628 359.292C583.628 361.11 585.102 362.584 586.92 362.584Z" fill="#383A48"/>
<path d="M586.92 378.848C588.738 378.848 590.212 377.374 590.212 375.556C590.212 373.738 588.738 372.264 586.92 372.264C585.102 372.264 583.628 373.738 583.628 375.556C583.628 377.374 585.102 378.848 586.92 378.848Z" fill="#383A48"/>
<path d="M586.92 395.11C588.738 395.11 590.212 393.636 590.212 391.817C590.212 389.999 588.738 388.525 586.92 388.525C585.102 388.525 583.628 389.999 583.628 391.817C583.628 393.636 585.102 395.11 586.92 395.11Z" fill="#383A48"/>
<path d="M586.92 411.373C588.738 411.373 590.212 409.899 590.212 408.081C590.212 406.263 588.738 404.789 586.92 404.789C585.102 404.789 583.628 406.263 583.628 408.081C583.628 409.899 585.102 411.373 586.92 411.373Z" fill="#383A48"/>
<path d="M586.92 427.635C588.738 427.635 590.212 426.161 590.212 424.343C590.212 422.525 588.738 421.051 586.92 421.051C585.102 421.051 583.628 422.525 583.628 424.343C583.628 426.161 585.102 427.635 586.92 427.635Z" fill="#383A48"/>
<path d="M586.92 443.899C588.738 443.899 590.212 442.425 590.212 440.607C590.212 438.788 588.738 437.314 586.92 437.314C585.102 437.314 583.628 438.788 583.628 440.607C583.628 442.425 585.102 443.899 586.92 443.899Z" fill="#383A48"/>
<path d="M586.92 460.16C588.738 460.16 590.212 458.686 590.212 456.868C590.212 455.05 588.738 453.576 586.92 453.576C585.102 453.576 583.628 455.05 583.628 456.868C583.628 458.686 585.102 460.16 586.92 460.16Z" fill="#383A48"/>
<path d="M586.92 476.424C588.738 476.424 590.212 474.95 590.212 473.132C590.212 471.314 588.738 469.84 586.92 469.84C585.102 469.84 583.628 471.314 583.628 473.132C583.628 474.95 585.102 476.424 586.92 476.424Z" fill="#383A48"/>
<path d="M586.92 492.686C588.738 492.686 590.212 491.212 590.212 489.394C590.212 487.575 588.738 486.102 586.92 486.102C585.102 486.102 583.628 487.575 583.628 489.394C583.628 491.212 585.102 492.686 586.92 492.686Z" fill="#383A48"/>
<path d="M586.92 508.949C588.738 508.949 590.212 507.475 590.212 505.657C590.212 503.839 588.738 502.365 586.92 502.365C585.102 502.365 583.628 503.839 583.628 505.657C583.628 507.475 585.102 508.949 586.92 508.949Z" fill="#383A48"/>
<path d="M586.92 525.211C588.738 525.211 590.212 523.737 590.212 521.919C590.212 520.101 588.738 518.627 586.92 518.627C585.102 518.627 583.628 520.101 583.628 521.919C583.628 523.737 585.102 525.211 586.92 525.211Z" fill="#383A48"/>
<path d="M586.92 541.475C588.738 541.475 590.212 540.001 590.212 538.183C590.212 536.365 588.738 534.891 586.92 534.891C585.102 534.891 583.628 536.365 583.628 538.183C583.628 540.001 585.102 541.475 586.92 541.475Z" fill="#383A48"/>
<path d="M586.92 557.736C588.738 557.736 590.212 556.263 590.212 554.444C590.212 552.626 588.738 551.152 586.92 551.152C585.102 551.152 583.628 552.626 583.628 554.444C583.628 556.263 585.102 557.736 586.92 557.736Z" fill="#383A48"/>
<path d="M586.92 574C588.738 574 590.212 572.526 590.212 570.708C590.212 568.89 588.738 567.416 586.92 567.416C585.102 567.416 583.628 568.89 583.628 570.708C583.628 572.526 585.102 574 586.92 574Z" fill="#383A48"/>
<path d="M570.657 362.584C572.475 362.584 573.949 361.11 573.949 359.292C573.949 357.474 572.475 356 570.657 356C568.839 356 567.365 357.474 567.365 359.292C567.365 361.11 568.839 362.584 570.657 362.584Z" fill="#383A48"/>
<path d="M570.657 378.848C572.475 378.848 573.949 377.374 573.949 375.556C573.949 373.738 572.475 372.264 570.657 372.264C568.839 372.264 567.365 373.738 567.365 375.556C567.365 377.374 568.839 378.848 570.657 378.848Z" fill="#383A48"/>
<path d="M570.657 395.11C572.475 395.11 573.949 393.636 573.949 391.817C573.949 389.999 572.475 388.525 570.657 388.525C568.839 388.525 567.365 389.999 567.365 391.817C567.365 393.636 568.839 395.11 570.657 395.11Z" fill="#383A48"/>
<path d="M570.657 411.373C572.475 411.373 573.949 409.899 573.949 408.081C573.949 406.263 572.475 404.789 570.657 404.789C568.839 404.789 567.365 406.263 567.365 408.081C567.365 409.899 568.839 411.373 570.657 411.373Z" fill="#383A48"/>
<path d="M570.657 427.635C572.475 427.635 573.949 426.161 573.949 424.343C573.949 422.525 572.475 421.051 570.657 421.051C568.839 421.051 567.365 422.525 567.365 424.343C567.365 426.161 568.839 427.635 570.657 427.635Z" fill="#383A48"/>
<path d="M570.657 443.899C572.475 443.899 573.949 442.425 573.949 440.607C573.949 438.788 572.475 437.314 570.657 437.314C568.839 437.314 567.365 438.788 567.365 440.607C567.365 442.425 568.839 443.899 570.657 443.899Z" fill="#383A48"/>
<path d="M570.657 460.16C572.475 460.16 573.949 458.686 573.949 456.868C573.949 455.05 572.475 453.576 570.657 453.576C568.839 453.576 567.365 455.05 567.365 456.868C567.365 458.686 568.839 460.16 570.657 460.16Z" fill="#383A48"/>
<path d="M570.657 476.424C572.475 476.424 573.949 474.95 573.949 473.132C573.949 471.314 572.475 469.84 570.657 469.84C568.839 469.84 567.365 471.314 567.365 473.132C567.365 474.95 568.839 476.424 570.657 476.424Z" fill="#383A48"/>
<path d="M570.657 492.686C572.475 492.686 573.949 491.212 573.949 489.394C573.949 487.575 572.475 486.102 570.657 486.102C568.839 486.102 567.365 487.575 567.365 489.394C567.365 491.212 568.839 492.686 570.657 492.686Z" fill="#383A48"/>
<path d="M570.657 508.949C572.475 508.949 573.949 507.475 573.949 505.657C573.949 503.839 572.475 502.365 570.657 502.365C568.839 502.365 567.365 503.839 567.365 505.657C567.365 507.475 568.839 508.949 570.657 508.949Z" fill="#383A48"/>
<path d="M570.657 525.211C572.475 525.211 573.949 523.737 573.949 521.919C573.949 520.101 572.475 518.627 570.657 518.627C568.839 518.627 567.365 520.101 567.365 521.919C567.365 523.737 568.839 525.211 570.657 525.211Z" fill="#383A48"/>
<path d="M570.657 541.475C572.475 541.475 573.949 540.001 573.949 538.183C573.949 536.365 572.475 534.891 570.657 534.891C568.839 534.891 567.365 536.365 567.365 538.183C567.365 540.001 568.839 541.475 570.657 541.475Z" fill="#383A48"/>
<path d="M570.657 557.736C572.475 557.736 573.949 556.263 573.949 554.444C573.949 552.626 572.475 551.152 570.657 551.152C568.839 551.152 567.365 552.626 567.365 554.444C567.365 556.263 568.839 557.736 570.657 557.736Z" fill="#383A48"/>
<path d="M570.657 574C572.475 574 573.949 572.526 573.949 570.708C573.949 568.89 572.475 567.416 570.657 567.416C568.839 567.416 567.365 568.89 567.365 570.708C567.365 572.526 568.839 574 570.657 574Z" fill="#383A48"/>
<path d="M554.394 362.584C556.212 362.584 557.686 361.11 557.686 359.292C557.686 357.474 556.212 356 554.394 356C552.576 356 551.102 357.474 551.102 359.292C551.102 361.11 552.576 362.584 554.394 362.584Z" fill="#383A48"/>
<path d="M554.394 378.848C556.212 378.848 557.686 377.374 557.686 375.556C557.686 373.738 556.212 372.264 554.394 372.264C552.576 372.264 551.102 373.738 551.102 375.556C551.102 377.374 552.576 378.848 554.394 378.848Z" fill="#383A48"/>
<path d="M554.394 395.11C556.212 395.11 557.686 393.636 557.686 391.817C557.686 389.999 556.212 388.525 554.394 388.525C552.576 388.525 551.102 389.999 551.102 391.817C551.102 393.636 552.576 395.11 554.394 395.11Z" fill="#383A48"/>
<path d="M554.394 411.373C556.212 411.373 557.686 409.899 557.686 408.081C557.686 406.263 556.212 404.789 554.394 404.789C552.576 404.789 551.102 406.263 551.102 408.081C551.102 409.899 552.576 411.373 554.394 411.373Z" fill="#383A48"/>
<path d="M554.394 427.635C556.212 427.635 557.686 426.161 557.686 424.343C557.686 422.525 556.212 421.051 554.394 421.051C552.576 421.051 551.102 422.525 551.102 424.343C551.102 426.161 552.576 427.635 554.394 427.635Z" fill="#383A48"/>
<path d="M554.394 443.899C556.212 443.899 557.686 442.425 557.686 440.607C557.686 438.788 556.212 437.314 554.394 437.314C552.576 437.314 551.102 438.788 551.102 440.607C551.102 442.425 552.576 443.899 554.394 443.899Z" fill="#383A48"/>
<path d="M554.394 460.16C556.212 460.16 557.686 458.686 557.686 456.868C557.686 455.05 556.212 453.576 554.394 453.576C552.576 453.576 551.102 455.05 551.102 456.868C551.102 458.686 552.576 460.16 554.394 460.16Z" fill="#383A48"/>
<path d="M554.394 476.424C556.212 476.424 557.686 474.95 557.686 473.132C557.686 471.314 556.212 469.84 554.394 469.84C552.576 469.84 551.102 471.314 551.102 473.132C551.102 474.95 552.576 476.424 554.394 476.424Z" fill="#383A48"/>
<path d="M554.394 492.686C556.212 492.686 557.686 491.212 557.686 489.394C557.686 487.575 556.212 486.102 554.394 486.102C552.576 486.102 551.102 487.575 551.102 489.394C551.102 491.212 552.576 492.686 554.394 492.686Z" fill="#383A48"/>
<path d="M554.394 508.949C556.212 508.949 557.686 507.475 557.686 505.657C557.686 503.839 556.212 502.365 554.394 502.365C552.576 502.365 551.102 503.839 551.102 505.657C551.102 507.475 552.576 508.949 554.394 508.949Z" fill="#383A48"/>
<path d="M554.394 525.211C556.212 525.211 557.686 523.737 557.686 521.919C557.686 520.101 556.212 518.627 554.394 518.627C552.576 518.627 551.102 520.101 551.102 521.919C551.102 523.737 552.576 525.211 554.394 525.211Z" fill="#383A48"/>
<path d="M554.394 541.475C556.212 541.475 557.686 540.001 557.686 538.183C557.686 536.365 556.212 534.891 554.394 534.891C552.576 534.891 551.102 536.365 551.102 538.183C551.102 540.001 552.576 541.475 554.394 541.475Z" fill="#383A48"/>
<path d="M554.394 557.736C556.212 557.736 557.686 556.263 557.686 554.444C557.686 552.626 556.212 551.152 554.394 551.152C552.576 551.152 551.102 552.626 551.102 554.444C551.102 556.263 552.576 557.736 554.394 557.736Z" fill="#383A48"/>
<path d="M554.394 574C556.212 574 557.686 572.526 557.686 570.708C557.686 568.89 556.212 567.416 554.394 567.416C552.576 567.416 551.102 568.89 551.102 570.708C551.102 572.526 552.576 574 554.394 574Z" fill="#383A48"/>
<path d="M538.131 362.584C539.95 362.584 541.423 361.11 541.423 359.292C541.423 357.474 539.95 356 538.131 356C536.313 356 534.839 357.474 534.839 359.292C534.839 361.11 536.313 362.584 538.131 362.584Z" fill="#383A48"/>
<path d="M538.131 378.848C539.95 378.848 541.423 377.374 541.423 375.556C541.423 373.738 539.95 372.264 538.131 372.264C536.313 372.264 534.839 373.738 534.839 375.556C534.839 377.374 536.313 378.848 538.131 378.848Z" fill="#383A48"/>
<path d="M538.131 395.11C539.95 395.11 541.423 393.636 541.423 391.817C541.423 389.999 539.95 388.525 538.131 388.525C536.313 388.525 534.839 389.999 534.839 391.817C534.839 393.636 536.313 395.11 538.131 395.11Z" fill="#383A48"/>
<path d="M538.131 411.373C539.95 411.373 541.423 409.899 541.423 408.081C541.423 406.263 539.95 404.789 538.131 404.789C536.313 404.789 534.839 406.263 534.839 408.081C534.839 409.899 536.313 411.373 538.131 411.373Z" fill="#383A48"/>
<path d="M538.131 427.635C539.95 427.635 541.423 426.161 541.423 424.343C541.423 422.525 539.95 421.051 538.131 421.051C536.313 421.051 534.839 422.525 534.839 424.343C534.839 426.161 536.313 427.635 538.131 427.635Z" fill="#383A48"/>
<path d="M538.131 443.899C539.95 443.899 541.423 442.425 541.423 440.607C541.423 438.788 539.95 437.314 538.131 437.314C536.313 437.314 534.839 438.788 534.839 440.607C534.839 442.425 536.313 443.899 538.131 443.899Z" fill="#383A48"/>
<path d="M538.131 460.16C539.95 460.16 541.423 458.686 541.423 456.868C541.423 455.05 539.95 453.576 538.131 453.576C536.313 453.576 534.839 455.05 534.839 456.868C534.839 458.686 536.313 460.16 538.131 460.16Z" fill="#383A48"/>
<path d="M538.131 476.424C539.95 476.424 541.423 474.95 541.423 473.132C541.423 471.314 539.95 469.84 538.131 469.84C536.313 469.84 534.839 471.314 534.839 473.132C534.839 474.95 536.313 476.424 538.131 476.424Z" fill="#383A48"/>
<path d="M538.131 492.686C539.95 492.686 541.423 491.212 541.423 489.394C541.423 487.575 539.95 486.102 538.131 486.102C536.313 486.102 534.839 487.575 534.839 489.394C534.839 491.212 536.313 492.686 538.131 492.686Z" fill="#383A48"/>
<path d="M538.131 508.949C539.95 508.949 541.423 507.475 541.423 505.657C541.423 503.839 539.95 502.365 538.131 502.365C536.313 502.365 534.839 503.839 534.839 505.657C534.839 507.475 536.313 508.949 538.131 508.949Z" fill="#383A48"/>
<path d="M538.131 525.211C539.95 525.211 541.423 523.737 541.423 521.919C541.423 520.101 539.95 518.627 538.131 518.627C536.313 518.627 534.839 520.101 534.839 521.919C534.839 523.737 536.313 525.211 538.131 525.211Z" fill="#383A48"/>
<path d="M538.131 541.475C539.95 541.475 541.423 540.001 541.423 538.183C541.423 536.365 539.95 534.891 538.131 534.891C536.313 534.891 534.839 536.365 534.839 538.183C534.839 540.001 536.313 541.475 538.131 541.475Z" fill="#383A48"/>
<path d="M538.131 557.736C539.95 557.736 541.423 556.263 541.423 554.444C541.423 552.626 539.95 551.152 538.131 551.152C536.313 551.152 534.839 552.626 534.839 554.444C534.839 556.263 536.313 557.736 538.131 557.736Z" fill="#383A48"/>
<path d="M538.131 574C539.95 574 541.423 572.526 541.423 570.708C541.423 568.89 539.95 567.416 538.131 567.416C536.313 567.416 534.839 568.89 534.839 570.708C534.839 572.526 536.313 574 538.131 574Z" fill="#383A48"/>
<path d="M521.869 362.584C523.687 362.584 525.161 361.11 525.161 359.292C525.161 357.474 523.687 356 521.869 356C520.051 356 518.577 357.474 518.577 359.292C518.577 361.11 520.051 362.584 521.869 362.584Z" fill="#383A48"/>
<path d="M521.869 378.848C523.687 378.848 525.161 377.374 525.161 375.556C525.161 373.738 523.687 372.264 521.869 372.264C520.051 372.264 518.577 373.738 518.577 375.556C518.577 377.374 520.051 378.848 521.869 378.848Z" fill="#383A48"/>
<path d="M521.869 395.11C523.687 395.11 525.161 393.636 525.161 391.817C525.161 389.999 523.687 388.525 521.869 388.525C520.051 388.525 518.577 389.999 518.577 391.817C518.577 393.636 520.051 395.11 521.869 395.11Z" fill="#383A48"/>
<path d="M521.869 411.373C523.687 411.373 525.161 409.899 525.161 408.081C525.161 406.263 523.687 404.789 521.869 404.789C520.051 404.789 518.577 406.263 518.577 408.081C518.577 409.899 520.051 411.373 521.869 411.373Z" fill="#383A48"/>
<path d="M521.869 427.635C523.687 427.635 525.161 426.161 525.161 424.343C525.161 422.525 523.687 421.051 521.869 421.051C520.051 421.051 518.577 422.525 518.577 424.343C518.577 426.161 520.051 427.635 521.869 427.635Z" fill="#383A48"/>
<path d="M521.869 443.899C523.687 443.899 525.161 442.425 525.161 440.607C525.161 438.788 523.687 437.314 521.869 437.314C520.051 437.314 518.577 438.788 518.577 440.607C518.577 442.425 520.051 443.899 521.869 443.899Z" fill="#383A48"/>
<path d="M521.869 460.16C523.687 460.16 525.161 458.686 525.161 456.868C525.161 455.05 523.687 453.576 521.869 453.576C520.051 453.576 518.577 455.05 518.577 456.868C518.577 458.686 520.051 460.16 521.869 460.16Z" fill="#383A48"/>
<path d="M521.869 476.424C523.687 476.424 525.161 474.95 525.161 473.132C525.161 471.314 523.687 469.84 521.869 469.84C520.051 469.84 518.577 471.314 518.577 473.132C518.577 474.95 520.051 476.424 521.869 476.424Z" fill="#383A48"/>
<path d="M521.869 492.686C523.687 492.686 525.161 491.212 525.161 489.394C525.161 487.575 523.687 486.102 521.869 486.102C520.051 486.102 518.577 487.575 518.577 489.394C518.577 491.212 520.051 492.686 521.869 492.686Z" fill="#383A48"/>
<path d="M521.869 508.949C523.687 508.949 525.161 507.475 525.161 505.657C525.161 503.839 523.687 502.365 521.869 502.365C520.051 502.365 518.577 503.839 518.577 505.657C518.577 507.475 520.051 508.949 521.869 508.949Z" fill="#383A48"/>
<path d="M521.869 525.211C523.687 525.211 525.161 523.737 525.161 521.919C525.161 520.101 523.687 518.627 521.869 518.627C520.051 518.627 518.577 520.101 518.577 521.919C518.577 523.737 520.051 525.211 521.869 525.211Z" fill="#383A48"/>
<path d="M521.869 541.475C523.687 541.475 525.161 540.001 525.161 538.183C525.161 536.365 523.687 534.891 521.869 534.891C520.051 534.891 518.577 536.365 518.577 538.183C518.577 540.001 520.051 541.475 521.869 541.475Z" fill="#383A48"/>
<path d="M521.869 557.736C523.687 557.736 525.161 556.263 525.161 554.444C525.161 552.626 523.687 551.152 521.869 551.152C520.051 551.152 518.577 552.626 518.577 554.444C518.577 556.263 520.051 557.736 521.869 557.736Z" fill="#383A48"/>
<path d="M521.869 574C523.687 574 525.161 572.526 525.161 570.708C525.161 568.89 523.687 567.416 521.869 567.416C520.051 567.416 518.577 568.89 518.577 570.708C518.577 572.526 520.051 574 521.869 574Z" fill="#383A48"/>
<path d="M505.606 362.584C507.424 362.584 508.898 361.11 508.898 359.292C508.898 357.474 507.424 356 505.606 356C503.788 356 502.314 357.474 502.314 359.292C502.314 361.11 503.788 362.584 505.606 362.584Z" fill="#383A48"/>
<path d="M505.606 378.848C507.424 378.848 508.898 377.374 508.898 375.556C508.898 373.738 507.424 372.264 505.606 372.264C503.788 372.264 502.314 373.738 502.314 375.556C502.314 377.374 503.788 378.848 505.606 378.848Z" fill="#383A48"/>
<path d="M505.606 395.11C507.424 395.11 508.898 393.636 508.898 391.817C508.898 389.999 507.424 388.525 505.606 388.525C503.788 388.525 502.314 389.999 502.314 391.817C502.314 393.636 503.788 395.11 505.606 395.11Z" fill="#383A48"/>
<path d="M505.606 411.373C507.424 411.373 508.898 409.899 508.898 408.081C508.898 406.263 507.424 404.789 505.606 404.789C503.788 404.789 502.314 406.263 502.314 408.081C502.314 409.899 503.788 411.373 505.606 411.373Z" fill="#383A48"/>
<path d="M505.606 427.635C507.424 427.635 508.898 426.161 508.898 424.343C508.898 422.525 507.424 421.051 505.606 421.051C503.788 421.051 502.314 422.525 502.314 424.343C502.314 426.161 503.788 427.635 505.606 427.635Z" fill="#383A48"/>
<path d="M505.606 443.899C507.424 443.899 508.898 442.425 508.898 440.607C508.898 438.788 507.424 437.314 505.606 437.314C503.788 437.314 502.314 438.788 502.314 440.607C502.314 442.425 503.788 443.899 505.606 443.899Z" fill="#383A48"/>
<path d="M505.606 460.16C507.424 460.16 508.898 458.686 508.898 456.868C508.898 455.05 507.424 453.576 505.606 453.576C503.788 453.576 502.314 455.05 502.314 456.868C502.314 458.686 503.788 460.16 505.606 460.16Z" fill="#383A48"/>
<path d="M505.606 476.424C507.424 476.424 508.898 474.95 508.898 473.132C508.898 471.314 507.424 469.84 505.606 469.84C503.788 469.84 502.314 471.314 502.314 473.132C502.314 474.95 503.788 476.424 505.606 476.424Z" fill="#383A48"/>
<path d="M505.606 492.686C507.424 492.686 508.898 491.212 508.898 489.394C508.898 487.575 507.424 486.102 505.606 486.102C503.788 486.102 502.314 487.575 502.314 489.394C502.314 491.212 503.788 492.686 505.606 492.686Z" fill="#383A48"/>
<path d="M505.606 508.949C507.424 508.949 508.898 507.475 508.898 505.657C508.898 503.839 507.424 502.365 505.606 502.365C503.788 502.365 502.314 503.839 502.314 505.657C502.314 507.475 503.788 508.949 505.606 508.949Z" fill="#383A48"/>
<path d="M505.606 525.211C507.424 525.211 508.898 523.737 508.898 521.919C508.898 520.101 507.424 518.627 505.606 518.627C503.788 518.627 502.314 520.101 502.314 521.919C502.314 523.737 503.788 525.211 505.606 525.211Z" fill="#383A48"/>
<path d="M505.606 541.475C507.424 541.475 508.898 540.001 508.898 538.183C508.898 536.365 507.424 534.891 505.606 534.891C503.788 534.891 502.314 536.365 502.314 538.183C502.314 540.001 503.788 541.475 505.606 541.475Z" fill="#383A48"/>
<path d="M505.606 557.736C507.424 557.736 508.898 556.263 508.898 554.444C508.898 552.626 507.424 551.152 505.606 551.152C503.788 551.152 502.314 552.626 502.314 554.444C502.314 556.263 503.788 557.736 505.606 557.736Z" fill="#383A48"/>
<path d="M505.606 574C507.424 574 508.898 572.526 508.898 570.708C508.898 568.89 507.424 567.416 505.606 567.416C503.788 567.416 502.314 568.89 502.314 570.708C502.314 572.526 503.788 574 505.606 574Z" fill="#383A48"/>
<path d="M489.343 362.584C491.161 362.584 492.635 361.11 492.635 359.292C492.635 357.474 491.161 356 489.343 356C487.525 356 486.051 357.474 486.051 359.292C486.051 361.11 487.525 362.584 489.343 362.584Z" fill="#383A48"/>
<path d="M489.343 378.848C491.161 378.848 492.635 377.374 492.635 375.556C492.635 373.738 491.161 372.264 489.343 372.264C487.525 372.264 486.051 373.738 486.051 375.556C486.051 377.374 487.525 378.848 489.343 378.848Z" fill="#383A48"/>
<path d="M489.343 395.11C491.161 395.11 492.635 393.636 492.635 391.817C492.635 389.999 491.161 388.525 489.343 388.525C487.525 388.525 486.051 389.999 486.051 391.817C486.051 393.636 487.525 395.11 489.343 395.11Z" fill="#383A48"/>
<path d="M489.343 411.373C491.161 411.373 492.635 409.899 492.635 408.081C492.635 406.263 491.161 404.789 489.343 404.789C487.525 404.789 486.051 406.263 486.051 408.081C486.051 409.899 487.525 411.373 489.343 411.373Z" fill="#383A48"/>
<path d="M489.343 427.635C491.161 427.635 492.635 426.161 492.635 424.343C492.635 422.525 491.161 421.051 489.343 421.051C487.525 421.051 486.051 422.525 486.051 424.343C486.051 426.161 487.525 427.635 489.343 427.635Z" fill="#383A48"/>
<path d="M489.343 443.899C491.161 443.899 492.635 442.425 492.635 440.607C492.635 438.788 491.161 437.314 489.343 437.314C487.525 437.314 486.051 438.788 486.051 440.607C486.051 442.425 487.525 443.899 489.343 443.899Z" fill="#383A48"/>
<path d="M489.343 460.16C491.161 460.16 492.635 458.686 492.635 456.868C492.635 455.05 491.161 453.576 489.343 453.576C487.525 453.576 486.051 455.05 486.051 456.868C486.051 458.686 487.525 460.16 489.343 460.16Z" fill="#383A48"/>
<path d="M489.343 476.424C491.161 476.424 492.635 474.95 492.635 473.132C492.635 471.314 491.161 469.84 489.343 469.84C487.525 469.84 486.051 471.314 486.051 473.132C486.051 474.95 487.525 476.424 489.343 476.424Z" fill="#383A48"/>
<path d="M489.343 492.686C491.161 492.686 492.635 491.212 492.635 489.394C492.635 487.575 491.161 486.102 489.343 486.102C487.525 486.102 486.051 487.575 486.051 489.394C486.051 491.212 487.525 492.686 489.343 492.686Z" fill="#383A48"/>
<path d="M489.343 508.949C491.161 508.949 492.635 507.475 492.635 505.657C492.635 503.839 491.161 502.365 489.343 502.365C487.525 502.365 486.051 503.839 486.051 505.657C486.051 507.475 487.525 508.949 489.343 508.949Z" fill="#383A48"/>
<path d="M489.343 525.211C491.161 525.211 492.635 523.737 492.635 521.919C492.635 520.101 491.161 518.627 489.343 518.627C487.525 518.627 486.051 520.101 486.051 521.919C486.051 523.737 487.525 525.211 489.343 525.211Z" fill="#383A48"/>
<path d="M489.343 541.475C491.161 541.475 492.635 540.001 492.635 538.183C492.635 536.365 491.161 534.891 489.343 534.891C487.525 534.891 486.051 536.365 486.051 538.183C486.051 540.001 487.525 541.475 489.343 541.475Z" fill="#383A48"/>
<path d="M489.343 557.736C491.161 557.736 492.635 556.263 492.635 554.444C492.635 552.626 491.161 551.152 489.343 551.152C487.525 551.152 486.051 552.626 486.051 554.444C486.051 556.263 487.525 557.736 489.343 557.736Z" fill="#383A48"/>
<path d="M489.343 574C491.161 574 492.635 572.526 492.635 570.708C492.635 568.89 491.161 567.416 489.343 567.416C487.525 567.416 486.051 568.89 486.051 570.708C486.051 572.526 487.525 574 489.343 574Z" fill="#383A48"/>
<path d="M473.08 362.584C474.899 362.584 476.372 361.11 476.372 359.292C476.372 357.474 474.899 356 473.08 356C471.262 356 469.788 357.474 469.788 359.292C469.788 361.11 471.262 362.584 473.08 362.584Z" fill="#383A48"/>
<path d="M473.08 378.848C474.899 378.848 476.372 377.374 476.372 375.556C476.372 373.738 474.899 372.264 473.08 372.264C471.262 372.264 469.788 373.738 469.788 375.556C469.788 377.374 471.262 378.848 473.08 378.848Z" fill="#383A48"/>
<path d="M473.08 395.11C474.899 395.11 476.372 393.636 476.372 391.817C476.372 389.999 474.899 388.525 473.08 388.525C471.262 388.525 469.788 389.999 469.788 391.817C469.788 393.636 471.262 395.11 473.08 395.11Z" fill="#383A48"/>
<path d="M473.08 411.373C474.899 411.373 476.372 409.899 476.372 408.081C476.372 406.263 474.899 404.789 473.08 404.789C471.262 404.789 469.788 406.263 469.788 408.081C469.788 409.899 471.262 411.373 473.08 411.373Z" fill="#383A48"/>
<path d="M473.08 427.635C474.899 427.635 476.372 426.161 476.372 424.343C476.372 422.525 474.899 421.051 473.08 421.051C471.262 421.051 469.788 422.525 469.788 424.343C469.788 426.161 471.262 427.635 473.08 427.635Z" fill="#383A48"/>
<path d="M473.08 443.899C474.899 443.899 476.372 442.425 476.372 440.607C476.372 438.788 474.899 437.314 473.08 437.314C471.262 437.314 469.788 438.788 469.788 440.607C469.788 442.425 471.262 443.899 473.08 443.899Z" fill="#383A48"/>
<path d="M473.08 460.16C474.899 460.16 476.372 458.686 476.372 456.868C476.372 455.05 474.899 453.576 473.08 453.576C471.262 453.576 469.788 455.05 469.788 456.868C469.788 458.686 471.262 460.16 473.08 460.16Z" fill="#383A48"/>
<path d="M473.08 476.424C474.899 476.424 476.372 474.95 476.372 473.132C476.372 471.314 474.899 469.84 473.08 469.84C471.262 469.84 469.788 471.314 469.788 473.132C469.788 474.95 471.262 476.424 473.08 476.424Z" fill="#383A48"/>
<path d="M473.08 492.686C474.899 492.686 476.372 491.212 476.372 489.394C476.372 487.575 474.899 486.102 473.08 486.102C471.262 486.102 469.788 487.575 469.788 489.394C469.788 491.212 471.262 492.686 473.08 492.686Z" fill="#383A48"/>
<path d="M473.08 508.949C474.899 508.949 476.372 507.475 476.372 505.657C476.372 503.839 474.899 502.365 473.08 502.365C471.262 502.365 469.788 503.839 469.788 505.657C469.788 507.475 471.262 508.949 473.08 508.949Z" fill="#383A48"/>
<path d="M473.08 525.211C474.899 525.211 476.372 523.737 476.372 521.919C476.372 520.101 474.899 518.627 473.08 518.627C471.262 518.627 469.788 520.101 469.788 521.919C469.788 523.737 471.262 525.211 473.08 525.211Z" fill="#383A48"/>
<path d="M473.08 541.475C474.899 541.475 476.372 540.001 476.372 538.183C476.372 536.365 474.899 534.891 473.08 534.891C471.262 534.891 469.788 536.365 469.788 538.183C469.788 540.001 471.262 541.475 473.08 541.475Z" fill="#383A48"/>
<path d="M473.08 557.736C474.899 557.736 476.372 556.263 476.372 554.444C476.372 552.626 474.899 551.152 473.08 551.152C471.262 551.152 469.788 552.626 469.788 554.444C469.788 556.263 471.262 557.736 473.08 557.736Z" fill="#383A48"/>
<path d="M473.08 574C474.899 574 476.372 572.526 476.372 570.708C476.372 568.89 474.899 567.416 473.08 567.416C471.262 567.416 469.788 568.89 469.788 570.708C469.788 572.526 471.262 574 473.08 574Z" fill="#383A48"/>
<path d="M456.818 362.584C458.636 362.584 460.11 361.11 460.11 359.292C460.11 357.474 458.636 356 456.818 356C455 356 453.526 357.474 453.526 359.292C453.526 361.11 455 362.584 456.818 362.584Z" fill="#383A48"/>
<path d="M456.818 378.848C458.636 378.848 460.11 377.374 460.11 375.556C460.11 373.738 458.636 372.264 456.818 372.264C455 372.264 453.526 373.738 453.526 375.556C453.526 377.374 455 378.848 456.818 378.848Z" fill="#383A48"/>
<path d="M456.818 395.11C458.636 395.11 460.11 393.636 460.11 391.817C460.11 389.999 458.636 388.525 456.818 388.525C455 388.525 453.526 389.999 453.526 391.817C453.526 393.636 455 395.11 456.818 395.11Z" fill="#383A48"/>
<path d="M456.818 411.373C458.636 411.373 460.11 409.899 460.11 408.081C460.11 406.263 458.636 404.789 456.818 404.789C455 404.789 453.526 406.263 453.526 408.081C453.526 409.899 455 411.373 456.818 411.373Z" fill="#383A48"/>
<path d="M456.818 427.635C458.636 427.635 460.11 426.161 460.11 424.343C460.11 422.525 458.636 421.051 456.818 421.051C455 421.051 453.526 422.525 453.526 424.343C453.526 426.161 455 427.635 456.818 427.635Z" fill="#383A48"/>
<path d="M456.818 443.899C458.636 443.899 460.11 442.425 460.11 440.607C460.11 438.788 458.636 437.314 456.818 437.314C455 437.314 453.526 438.788 453.526 440.607C453.526 442.425 455 443.899 456.818 443.899Z" fill="#383A48"/>
<path d="M456.818 460.16C458.636 460.16 460.11 458.686 460.11 456.868C460.11 455.05 458.636 453.576 456.818 453.576C455 453.576 453.526 455.05 453.526 456.868C453.526 458.686 455 460.16 456.818 460.16Z" fill="#383A48"/>
<path d="M456.818 476.424C458.636 476.424 460.11 474.95 460.11 473.132C460.11 471.314 458.636 469.84 456.818 469.84C455 469.84 453.526 471.314 453.526 473.132C453.526 474.95 455 476.424 456.818 476.424Z" fill="#383A48"/>
<path d="M456.818 492.686C458.636 492.686 460.11 491.212 460.11 489.394C460.11 487.575 458.636 486.102 456.818 486.102C455 486.102 453.526 487.575 453.526 489.394C453.526 491.212 455 492.686 456.818 492.686Z" fill="#383A48"/>
<path d="M456.818 508.949C458.636 508.949 460.11 507.475 460.11 505.657C460.11 503.839 458.636 502.365 456.818 502.365C455 502.365 453.526 503.839 453.526 505.657C453.526 507.475 455 508.949 456.818 508.949Z" fill="#383A48"/>
<path d="M456.818 525.211C458.636 525.211 460.11 523.737 460.11 521.919C460.11 520.101 458.636 518.627 456.818 518.627C455 518.627 453.526 520.101 453.526 521.919C453.526 523.737 455 525.211 456.818 525.211Z" fill="#383A48"/>
<path d="M456.818 541.475C458.636 541.475 460.11 540.001 460.11 538.183C460.11 536.365 458.636 534.891 456.818 534.891C455 534.891 453.526 536.365 453.526 538.183C453.526 540.001 455 541.475 456.818 541.475Z" fill="#383A48"/>
<path d="M456.818 557.736C458.636 557.736 460.11 556.263 460.11 554.444C460.11 552.626 458.636 551.152 456.818 551.152C455 551.152 453.526 552.626 453.526 554.444C453.526 556.263 455 557.736 456.818 557.736Z" fill="#383A48"/>
<path d="M456.818 574C458.636 574 460.11 572.526 460.11 570.708C460.11 568.89 458.636 567.416 456.818 567.416C455 567.416 453.526 568.89 453.526 570.708C453.526 572.526 455 574 456.818 574Z" fill="#383A48"/>
<path d="M440.555 362.584C442.373 362.584 443.847 361.11 443.847 359.292C443.847 357.474 442.373 356 440.555 356C438.737 356 437.263 357.474 437.263 359.292C437.263 361.11 438.737 362.584 440.555 362.584Z" fill="#383A48"/>
<path d="M440.555 378.848C442.373 378.848 443.847 377.374 443.847 375.556C443.847 373.738 442.373 372.264 440.555 372.264C438.737 372.264 437.263 373.738 437.263 375.556C437.263 377.374 438.737 378.848 440.555 378.848Z" fill="#383A48"/>
<path d="M440.555 395.11C442.373 395.11 443.847 393.636 443.847 391.817C443.847 389.999 442.373 388.525 440.555 388.525C438.737 388.525 437.263 389.999 437.263 391.817C437.263 393.636 438.737 395.11 440.555 395.11Z" fill="#383A48"/>
<path d="M440.555 411.373C442.373 411.373 443.847 409.899 443.847 408.081C443.847 406.263 442.373 404.789 440.555 404.789C438.737 404.789 437.263 406.263 437.263 408.081C437.263 409.899 438.737 411.373 440.555 411.373Z" fill="#383A48"/>
<path d="M440.555 427.635C442.373 427.635 443.847 426.161 443.847 424.343C443.847 422.525 442.373 421.051 440.555 421.051C438.737 421.051 437.263 422.525 437.263 424.343C437.263 426.161 438.737 427.635 440.555 427.635Z" fill="#383A48"/>
<path d="M440.555 443.899C442.373 443.899 443.847 442.425 443.847 440.607C443.847 438.788 442.373 437.314 440.555 437.314C438.737 437.314 437.263 438.788 437.263 440.607C437.263 442.425 438.737 443.899 440.555 443.899Z" fill="#383A48"/>
<path d="M440.555 460.16C442.373 460.16 443.847 458.686 443.847 456.868C443.847 455.05 442.373 453.576 440.555 453.576C438.737 453.576 437.263 455.05 437.263 456.868C437.263 458.686 438.737 460.16 440.555 460.16Z" fill="#383A48"/>
<path d="M440.555 476.424C442.373 476.424 443.847 474.95 443.847 473.132C443.847 471.314 442.373 469.84 440.555 469.84C438.737 469.84 437.263 471.314 437.263 473.132C437.263 474.95 438.737 476.424 440.555 476.424Z" fill="#383A48"/>
<path d="M440.555 492.686C442.373 492.686 443.847 491.212 443.847 489.394C443.847 487.575 442.373 486.102 440.555 486.102C438.737 486.102 437.263 487.575 437.263 489.394C437.263 491.212 438.737 492.686 440.555 492.686Z" fill="#383A48"/>
<path d="M440.555 508.949C442.373 508.949 443.847 507.475 443.847 505.657C443.847 503.839 442.373 502.365 440.555 502.365C438.737 502.365 437.263 503.839 437.263 505.657C437.263 507.475 438.737 508.949 440.555 508.949Z" fill="#383A48"/>
<path d="M440.555 525.211C442.373 525.211 443.847 523.737 443.847 521.919C443.847 520.101 442.373 518.627 440.555 518.627C438.737 518.627 437.263 520.101 437.263 521.919C437.263 523.737 438.737 525.211 440.555 525.211Z" fill="#383A48"/>
<path d="M440.555 541.475C442.373 541.475 443.847 540.001 443.847 538.183C443.847 536.365 442.373 534.891 440.555 534.891C438.737 534.891 437.263 536.365 437.263 538.183C437.263 540.001 438.737 541.475 440.555 541.475Z" fill="#383A48"/>
<path d="M440.555 557.736C442.373 557.736 443.847 556.263 443.847 554.444C443.847 552.626 442.373 551.152 440.555 551.152C438.737 551.152 437.263 552.626 437.263 554.444C437.263 556.263 438.737 557.736 440.555 557.736Z" fill="#383A48"/>
<path d="M440.555 574C442.373 574 443.847 572.526 443.847 570.708C443.847 568.89 442.373 567.416 440.555 567.416C438.737 567.416 437.263 568.89 437.263 570.708C437.263 572.526 438.737 574 440.555 574Z" fill="#383A48"/>
<path d="M424.292 362.584C426.11 362.584 427.584 361.11 427.584 359.292C427.584 357.474 426.11 356 424.292 356C422.474 356 421 357.474 421 359.292C421 361.11 422.474 362.584 424.292 362.584Z" fill="#383A48"/>
<path d="M424.292 378.848C426.11 378.848 427.584 377.374 427.584 375.556C427.584 373.738 426.11 372.264 424.292 372.264C422.474 372.264 421 373.738 421 375.556C421 377.374 422.474 378.848 424.292 378.848Z" fill="#383A48"/>
<path d="M424.292 395.11C426.11 395.11 427.584 393.636 427.584 391.817C427.584 389.999 426.11 388.525 424.292 388.525C422.474 388.525 421 389.999 421 391.817C421 393.636 422.474 395.11 424.292 395.11Z" fill="#383A48"/>
<path d="M424.292 411.373C426.11 411.373 427.584 409.899 427.584 408.081C427.584 406.263 426.11 404.789 424.292 404.789C422.474 404.789 421 406.263 421 408.081C421 409.899 422.474 411.373 424.292 411.373Z" fill="#383A48"/>
<path d="M424.292 427.635C426.11 427.635 427.584 426.161 427.584 424.343C427.584 422.525 426.11 421.051 424.292 421.051C422.474 421.051 421 422.525 421 424.343C421 426.161 422.474 427.635 424.292 427.635Z" fill="#383A48"/>
<path d="M424.292 443.899C426.11 443.899 427.584 442.425 427.584 440.607C427.584 438.788 426.11 437.314 424.292 437.314C422.474 437.314 421 438.788 421 440.607C421 442.425 422.474 443.899 424.292 443.899Z" fill="#383A48"/>
<path d="M424.292 460.16C426.11 460.16 427.584 458.686 427.584 456.868C427.584 455.05 426.11 453.576 424.292 453.576C422.474 453.576 421 455.05 421 456.868C421 458.686 422.474 460.16 424.292 460.16Z" fill="#383A48"/>
<path d="M424.292 476.424C426.11 476.424 427.584 474.95 427.584 473.132C427.584 471.314 426.11 469.84 424.292 469.84C422.474 469.84 421 471.314 421 473.132C421 474.95 422.474 476.424 424.292 476.424Z" fill="#383A48"/>
<path d="M424.292 492.686C426.11 492.686 427.584 491.212 427.584 489.394C427.584 487.575 426.11 486.102 424.292 486.102C422.474 486.102 421 487.575 421 489.394C421 491.212 422.474 492.686 424.292 492.686Z" fill="#383A48"/>
<path d="M424.292 508.949C426.11 508.949 427.584 507.475 427.584 505.657C427.584 503.839 426.11 502.365 424.292 502.365C422.474 502.365 421 503.839 421 505.657C421 507.475 422.474 508.949 424.292 508.949Z" fill="#383A48"/>
<path d="M424.292 525.211C426.11 525.211 427.584 523.737 427.584 521.919C427.584 520.101 426.11 518.627 424.292 518.627C422.474 518.627 421 520.101 421 521.919C421 523.737 422.474 525.211 424.292 525.211Z" fill="#383A48"/>
<path d="M424.292 541.475C426.11 541.475 427.584 540.001 427.584 538.183C427.584 536.365 426.11 534.891 424.292 534.891C422.474 534.891 421 536.365 421 538.183C421 540.001 422.474 541.475 424.292 541.475Z" fill="#383A48"/>
<path d="M424.292 557.736C426.11 557.736 427.584 556.263 427.584 554.444C427.584 552.626 426.11 551.152 424.292 551.152C422.474 551.152 421 552.626 421 554.444C421 556.263 422.474 557.736 424.292 557.736Z" fill="#383A48"/>
<path d="M424.292 574C426.11 574 427.584 572.526 427.584 570.708C427.584 568.89 426.11 567.416 424.292 567.416C422.474 567.416 421 568.89 421 570.708C421 572.526 422.474 574 424.292 574Z" fill="#383A48"/>
<path d="M841.658 359.368C841.658 242.822 746.89 148.332 630 148.332C513.11 148.332 418.342 242.822 418.342 359.368C418.342 475.914 513.11 575.668 630 575.668C746.89 575.668 841.658 475.914 841.658 359.368Z" fill="#F6E049"/>
<path d="M630 579C601.062 579 572.858 573.069 546.259 561.275C520.729 550.013 497.739 533.954 477.956 513.497C458.241 493.173 442.735 469.65 431.909 443.596C420.681 416.675 415 388.355 415 359.368C415 302.128 437.389 248.286 477.956 207.771C518.523 167.256 572.591 145 630 145C687.409 145 741.41 167.323 782.044 207.771C822.678 248.286 845 302.061 845 359.368C845 388.355 839.319 416.675 828.091 443.596C817.265 469.65 801.759 493.173 782.044 513.497C762.261 533.954 739.271 550.013 713.741 561.275C687.142 573.069 658.938 579 630 579ZM630 151.664C574.329 151.664 522.066 173.254 482.701 212.502C443.337 251.751 421.683 303.86 421.683 359.368C421.683 387.422 427.164 414.942 438.057 441.064C448.617 466.385 463.587 489.175 482.768 508.899C501.949 528.69 524.271 544.283 548.999 555.211C574.73 566.539 601.997 572.336 630 572.336C658.003 572.336 685.27 566.606 711.001 555.211C735.729 544.283 758.051 528.69 777.232 508.899C796.346 489.175 811.383 466.385 821.876 441.064C832.77 414.942 838.25 387.488 838.25 359.368C838.25 303.86 816.596 251.751 777.232 212.502C737.934 173.254 685.671 151.664 630 151.664Z" fill="#383A48"/>
<path d="M630 526.559C722.609 526.559 797.683 451.706 797.683 359.369C797.683 267.033 722.609 192.18 630 192.18C537.391 192.18 462.317 267.033 462.317 359.369C462.317 451.706 537.391 526.559 630 526.559Z" fill="#F6E049"/>
<path d="M630 530.89C535.165 530.89 457.973 453.925 457.973 359.369C457.973 264.812 535.165 187.848 630 187.848C724.835 187.848 802.027 264.812 802.027 359.369C802.027 453.925 724.835 530.89 630 530.89ZM630 196.51C539.91 196.51 466.662 269.543 466.662 359.369C466.662 449.194 539.91 522.227 630 522.227C720.09 522.227 793.339 449.194 793.339 359.369C793.339 269.543 720.09 196.51 630 196.51Z" fill="#F3F6E6"/>
<path d="M630 579.001C628.129 579.001 626.658 577.535 626.658 575.669V496.505C626.658 489.176 632.339 481.579 641.763 481.579C646.574 481.579 650.919 483.845 653.792 487.776C653.792 487.843 653.859 487.843 653.859 487.909C657.735 493.707 663.149 497.039 668.696 497.039C680.058 497.039 689.28 483.845 689.28 467.652C689.28 451.46 680.058 438.266 668.696 438.266C665.889 438.266 663.149 439.065 660.609 440.598C658.003 442.131 655.73 444.463 653.792 447.328C653.792 447.395 653.726 447.395 653.726 447.461C649.849 452.792 643.233 454.925 636.951 452.859C630.668 450.793 626.592 445.262 626.592 438.732V359.435C626.592 357.57 628.062 356.104 629.933 356.104H709.397C716.013 356.104 721.627 360.168 723.632 366.432C725.637 372.696 723.499 379.226 718.152 383.091L718.085 383.158C715.211 385.09 712.872 387.422 711.335 389.955C709.731 392.62 708.929 395.219 708.929 398.018C708.929 409.346 722.162 418.541 738.402 418.541C754.643 418.541 767.875 409.346 767.875 398.018C767.875 392.353 764.601 387.089 758.719 383.224C758.652 383.224 758.652 383.158 758.586 383.158C754.643 380.359 752.37 375.961 752.37 371.163C752.37 363.767 757.984 356.104 767.341 356.104H841.458C843.329 356.104 844.799 357.57 844.799 359.435C844.799 361.301 843.329 362.767 841.458 362.767H767.474C762.261 362.767 759.187 367.032 759.187 371.163C759.187 372.696 759.655 375.561 762.596 377.694C770.281 382.758 774.625 390.221 774.625 398.018C774.625 413.011 758.385 425.205 738.469 425.205C718.553 425.205 702.313 413.011 702.313 398.018C702.313 394.086 703.449 390.221 705.654 386.49C707.659 383.158 710.667 380.159 714.343 377.694C717.885 375.095 718.219 371.23 717.35 368.498C716.481 365.699 713.875 362.767 709.464 362.767H633.342V438.732C633.342 443.13 636.282 445.662 639.089 446.529C641.829 447.395 645.706 447.128 648.312 443.597C650.718 439.932 653.792 436.933 657.134 434.934C660.609 432.735 664.619 431.602 668.696 431.602C683.733 431.602 695.964 447.795 695.964 467.652C695.964 487.51 683.733 503.702 668.696 503.702C660.81 503.702 653.391 499.304 648.312 491.708C646.173 488.776 643.3 488.309 641.763 488.309C637.619 488.309 633.342 491.375 633.342 496.572V575.736C633.342 577.535 631.871 579.001 630 579.001Z" fill="#E0719E"/>
<path d="M521.531 425.137C501.615 425.137 485.375 412.942 485.375 397.949C485.375 393.951 486.511 389.953 488.783 386.421C490.788 383.089 493.795 380.024 497.471 377.625C501.013 375.026 501.281 371.162 500.412 368.429C499.543 365.697 497.003 362.699 492.592 362.699H418.342C416.47 362.699 415 361.233 415 359.367C415 357.501 416.47 356.035 418.342 356.035H492.526C499.075 356.035 504.689 360.1 506.694 366.364C508.766 372.628 506.627 379.224 501.281 383.089C501.214 383.089 501.214 383.156 501.147 383.156C498.273 385.022 495.934 387.354 494.464 389.886C492.86 392.418 492.058 395.15 492.058 397.949C492.058 409.277 505.291 418.473 521.531 418.473C537.771 418.473 551.004 409.277 551.004 397.949C551.004 392.352 547.662 386.954 541.848 383.156C541.781 383.156 541.781 383.089 541.714 383.089C537.771 380.291 535.499 375.893 535.499 371.095C535.499 363.698 541.113 356.035 550.469 356.035H626.592V280.137C626.592 274.939 622.314 271.874 618.171 271.874C616.634 271.874 613.76 272.34 611.621 275.272C606.542 282.936 599.057 287.267 591.237 287.267C576.133 287.267 563.903 271.074 563.903 251.217C563.903 231.359 576.133 215.167 591.237 215.167C595.18 215.167 599.057 216.3 602.799 218.499C606.141 220.498 609.148 223.496 611.621 227.161C614.228 230.693 618.104 231.026 620.911 230.16C623.651 229.294 626.658 226.695 626.658 222.297V149.73C626.658 147.864 628.129 146.398 630 146.398C631.871 146.398 633.342 147.864 633.342 149.73V222.297C633.342 228.894 629.265 234.425 622.983 236.49C616.7 238.556 610.151 236.424 606.208 231.093C606.208 231.026 606.141 231.026 606.141 230.959C604.203 228.094 601.864 225.762 599.324 224.229C596.651 222.63 594.044 221.83 591.237 221.83C579.876 221.83 570.586 235.024 570.586 251.217C570.586 267.409 579.876 280.603 591.237 280.603C596.918 280.603 602.198 277.338 606.074 271.474C606.074 271.407 606.141 271.408 606.141 271.341C608.948 267.409 613.359 265.144 618.171 265.144C625.589 265.144 633.275 270.741 633.275 280.07V359.3C633.275 361.166 631.804 362.632 629.933 362.632H550.536C545.323 362.632 542.249 366.897 542.249 371.028C542.249 372.561 542.717 375.426 545.657 377.559C553.343 382.623 557.687 390.086 557.687 397.883C557.687 412.942 541.447 425.137 521.531 425.137Z" fill="#E0719E"/>
<path d="M630 148.332C687.676 148.332 741.944 167.19 782.712 207.838C823.48 248.486 841.658 302.594 841.658 360.101" fill="#E0719E"/>
<path d="M841.658 363.433C839.787 363.433 838.317 361.967 838.317 360.101C838.317 299.862 818.267 248.019 780.373 210.17C741.944 171.921 689.949 151.664 630 151.664C628.129 151.664 626.658 150.198 626.658 148.332C626.658 146.466 628.129 145 630 145C691.753 145 745.42 165.924 785.051 205.505C824.282 244.621 845 298.063 845 360.101C845 361.967 843.53 363.433 841.658 363.433Z" fill="#383A48"/>
<path d="M841.659 360.168H767.541C760.39 360.168 755.912 365.965 755.912 371.896C755.912 375.294 757.383 378.759 760.724 381.158C767.274 385.556 771.351 391.82 771.351 398.75C771.351 411.944 756.648 422.606 738.536 422.606C720.424 422.606 705.721 411.944 705.721 398.75C705.721 395.285 706.724 391.953 708.595 388.954C710.466 385.956 713.073 383.29 716.348 381.158C725.437 374.561 720.759 360.168 709.531 360.168H630V280.938C630 273.808 624.186 269.343 618.238 269.343C614.829 269.343 611.354 270.809 608.948 274.141C604.537 280.671 598.255 284.736 591.304 284.736C578.071 284.736 567.311 270.076 567.311 252.018C567.311 233.959 578.071 219.299 591.304 219.299C594.779 219.299 598.121 220.299 601.129 222.165C604.136 224.03 606.809 226.629 608.948 229.894C615.564 238.957 630 234.292 630 223.098V148.332" fill="#E0719E"/>
<path d="M738.536 425.937C718.62 425.937 702.38 413.743 702.38 398.75C702.38 394.752 703.516 390.753 705.788 387.222C707.927 383.757 710.867 380.825 714.476 378.426C718.018 375.827 718.286 371.962 717.417 369.23C716.548 366.498 714.008 363.499 709.597 363.499H630.067C628.196 363.499 626.725 362.033 626.725 360.167V280.937C626.725 275.74 622.448 272.674 618.304 272.674C616.767 272.674 613.893 273.141 611.755 276.073C606.609 283.736 599.123 288.067 591.371 288.067C576.267 288.067 564.036 271.875 564.036 252.017C564.036 232.16 576.267 215.967 591.371 215.967C595.381 215.967 599.391 217.1 602.933 219.366C606.408 221.498 609.349 224.43 611.755 228.028C614.361 231.56 618.238 231.827 620.978 230.96C623.718 230.094 626.725 227.562 626.725 223.164V148.332C626.725 146.466 628.196 145 630.067 145C631.938 145 633.408 146.466 633.408 148.332V223.097C633.408 229.628 629.332 235.225 623.049 237.224C616.767 239.29 610.151 237.158 606.274 231.827C606.274 231.76 606.208 231.76 606.208 231.693C604.336 228.895 602.064 226.629 599.391 224.963C596.851 223.364 594.178 222.631 591.304 222.631C579.942 222.631 570.653 235.825 570.653 252.017C570.653 268.21 579.942 281.404 591.304 281.404C596.918 281.404 602.198 278.139 606.208 272.275L606.274 272.208C609.081 268.277 613.492 266.011 618.304 266.011C625.723 266.011 633.408 271.608 633.408 280.937V356.836H709.597C716.147 356.836 721.761 360.9 723.766 367.164C725.838 373.428 723.699 380.025 718.353 383.89C718.286 383.89 718.286 383.957 718.219 383.957C715.412 385.822 713.14 388.088 711.469 390.753C709.865 393.286 709.13 395.951 709.13 398.816C709.13 410.144 722.362 419.34 738.603 419.34C754.843 419.34 768.076 410.144 768.076 398.816C768.076 393.219 764.801 387.955 758.92 383.957L758.853 383.89C754.91 381.091 752.638 376.693 752.638 371.895C752.638 364.499 758.251 356.836 767.608 356.836H841.725C843.597 356.836 845.067 358.302 845.067 360.167C845.067 362.033 843.597 363.499 841.725 363.499H767.541C762.328 363.499 759.254 367.764 759.254 371.895C759.254 373.428 759.722 376.293 762.662 378.426C770.348 383.557 774.692 391.02 774.692 398.75C774.692 413.743 758.452 425.937 738.536 425.937Z" fill="#383A48"/>
<path d="M395.616 572.212H389.645C381.152 572.012 364.432 570.947 346.385 565.955C331.323 561.763 318.253 555.773 307.57 548.052C294.3 538.535 284.68 526.289 278.841 511.78C272.67 496.339 273.599 475.774 274.528 453.944C275.855 423.995 277.182 393.047 259.135 373.946C247.988 362.099 230.737 356.242 206.586 356.043C182.236 355.843 140.369 356.375 123.185 356.974C121.393 357.041 120 358.505 120 360.302V575.606C120 577.469 121.46 578.934 123.317 578.934H388.849C390.308 579 391.503 579 392.564 579C394.488 579 395.616 578.934 395.815 578.934C397.607 578.867 399 577.336 399 575.539C398.934 573.676 397.408 572.212 395.616 572.212Z" fill="#F3F6E6"/>
<path d="M122.351 523C120.475 523 119 521.524 119 519.647C119 517.769 120.475 516.293 122.351 516.293C153.718 516.293 181.735 508.044 208.142 491.143C231.802 475.985 251.909 455.328 271.346 435.409C290.381 415.959 310.019 395.839 332.807 380.949C358.544 364.182 385.622 356 415.649 356C417.525 356 419 357.476 419 359.353C419 361.231 417.525 362.707 415.649 362.707C351.708 362.707 314.979 400.265 276.172 440.104C236.359 480.814 195.139 523 122.351 523Z" fill="#4053FA"/>
<path d="M1154.69 574.63V202.303C1023.49 202.303 981.85 360.985 851.31 360.985V574.697H1154.69V574.63Z" fill="#F3F6E6"/>
<path d="M1154.69 578H851.31C849.456 578 848 576.547 848 574.697V360.985C848 359.135 849.456 357.682 851.31 357.682C879.907 357.682 906.783 349.754 933.526 333.437C957.556 318.771 979.335 298.754 1000.39 279.398C1043.28 239.827 1087.7 199 1154.69 199C1156.54 199 1158 200.453 1158 202.303V574.697C1158 576.547 1156.54 578 1154.69 578ZM854.62 571.394H1151.38V205.672C1123.78 206.267 1097.76 214.26 1071.94 229.983C1047.78 244.715 1025.94 264.798 1004.82 284.22C962.785 322.933 919.294 362.901 854.62 364.222V571.394Z" fill="#F3F6E6"/>
<path d="M332.742 142.354V216.793C332.742 223.969 338.576 228.462 344.545 228.462C347.965 228.462 351.452 226.987 353.866 223.634C358.293 217.062 364.529 212.971 371.571 212.971C384.85 212.971 395.647 227.725 395.647 245.899C395.647 264.073 384.85 278.827 371.571 278.827C368.084 278.827 364.731 277.821 361.713 275.943C358.695 274.065 356.012 271.45 353.866 268.164C347.227 259.043 332.742 263.738 332.742 275.004V354.742H253.004C245.828 354.742 241.335 360.577 241.335 366.545C241.335 369.965 242.81 373.453 246.163 375.867C252.735 380.226 256.826 386.597 256.826 393.572C256.826 406.85 242.072 417.647 223.898 417.647C205.724 417.647 190.97 406.85 190.97 393.572C190.97 390.084 191.976 386.731 193.854 383.713C195.732 380.695 198.347 378.013 201.633 375.867C210.754 369.228 206.06 354.742 194.793 354.742H120.353C120.353 237.449 215.448 142.354 332.742 142.354Z" fill="#F6E049"/>
<path d="M223.898 421C203.914 421 187.617 408.727 187.617 393.571C187.617 389.547 188.757 385.524 191.038 381.969C193.184 378.482 196.134 375.531 199.756 373.117C203.31 370.502 203.578 366.612 202.707 363.862C201.835 361.113 199.286 358.095 194.86 358.095H120.353C118.475 358.095 117 356.62 117 354.742C117 297.135 139.466 242.948 180.173 202.173C220.881 161.399 275.135 139 332.742 139C334.62 139 336.095 140.475 336.095 142.353V216.793C336.095 222.024 340.387 225.109 344.545 225.109C346.087 225.109 348.971 224.639 351.117 221.689C356.415 213.909 363.658 209.617 371.571 209.617C386.727 209.617 399 225.914 399 245.898C399 265.883 386.727 282.18 371.571 282.18C367.547 282.18 363.524 281.039 359.969 278.759C356.482 276.613 353.531 273.663 351.117 270.041C348.502 266.487 344.612 266.219 341.862 267.09C339.113 267.962 336.095 270.511 336.095 274.937V354.675C336.095 356.552 334.62 358.028 332.742 358.028H253.004C247.773 358.028 244.688 362.32 244.688 366.478C244.688 368.02 245.157 370.904 248.108 373.05C255.82 378.147 260.18 385.658 260.18 393.504C260.18 408.727 243.883 421 223.898 421ZM123.706 351.389H194.793C201.365 351.389 206.999 355.479 209.01 361.783C211.089 368.087 208.943 374.727 203.578 378.616C203.511 378.616 203.511 378.683 203.444 378.683C200.628 380.561 198.347 382.841 196.671 385.524C195.061 388.072 194.324 390.755 194.324 393.638C194.324 405.039 207.602 414.361 223.898 414.361C240.195 414.361 253.473 405.039 253.473 393.638C253.473 388.005 250.12 382.573 244.286 378.75C244.219 378.75 244.219 378.683 244.151 378.683C240.195 375.867 237.915 371.44 237.915 366.612C237.915 359.168 243.548 351.456 252.937 351.456H329.322V275.004C329.322 268.432 333.412 262.798 339.716 260.786C346.02 258.707 352.659 260.854 356.549 266.219C356.549 266.286 356.616 266.286 356.616 266.353C358.494 269.169 360.774 271.449 363.457 273.126C366.005 274.736 368.688 275.473 371.571 275.473C382.972 275.473 392.294 262.195 392.294 245.898C392.294 229.602 382.972 216.324 371.571 216.324C365.938 216.324 360.64 219.61 356.616 225.511L356.549 225.578C353.732 229.535 349.306 231.815 344.478 231.815C337.034 231.815 329.322 226.182 329.322 216.793V145.706C274.732 146.578 223.563 168.239 184.868 206.935C146.172 245.63 124.578 296.799 123.706 351.389Z" fill="#383A48"/>
<path d="M344.545 228.462C347.965 228.462 351.452 226.987 353.866 223.633C358.293 217.061 364.529 212.97 371.571 212.97C384.85 212.97 395.647 227.724 395.647 245.898C395.647 264.072 384.85 278.826 371.571 278.826C368.084 278.826 364.731 277.82 361.713 275.943C358.695 274.065 356.012 271.449 353.866 268.163C347.227 259.043 332.742 263.737 332.742 275.004V354.742H253.004C245.828 354.742 241.335 360.576 241.335 366.545C241.335 369.965 242.81 373.452 246.163 375.866C252.735 380.226 256.826 386.597 256.826 393.571C256.826 406.85 242.072 417.647 223.898 417.647C205.724 417.647 190.97 406.85 190.97 393.571C190.97 390.084 191.976 386.731 193.854 383.713C195.732 380.695 198.347 378.012 201.633 375.866C210.754 369.227 206.06 354.742 194.793 354.742H164.48C164.48 261.792 239.792 186.48 332.742 186.48V216.793C332.742 223.969 338.576 228.462 344.545 228.462Z" fill="#F6E049"/>
<path d="M160.122 354.741H168.84C168.84 264.34 242.341 190.839 332.742 190.839V182.121C237.579 182.121 160.122 259.579 160.122 354.741Z" fill="#F3F6E6"/>
<path d="M332.742 354.742V275.004C332.742 263.671 347.227 258.976 353.867 268.164C356.08 271.45 358.762 274.132 361.713 275.943C364.664 277.754 368.017 278.827 371.571 278.827C384.85 278.827 395.647 264.073 395.647 245.899C395.647 227.725 384.85 212.971 371.571 212.971C364.53 212.971 358.226 217.062 353.867 223.634C351.452 226.987 347.965 228.462 344.545 228.462C338.576 228.462 332.742 223.969 332.742 216.793V190.84V186.481V182.122V142.354" fill="#F6E049"/>
<path d="M332.742 358.095C330.864 358.095 329.389 356.62 329.389 354.742V275.004C329.389 268.365 333.48 262.731 339.783 260.719C346.087 258.707 352.66 260.854 356.549 266.219L356.616 266.286C358.561 269.169 360.908 271.517 363.457 273.059C366.072 274.668 368.755 275.473 371.571 275.473C382.972 275.473 392.294 262.195 392.294 245.898C392.294 229.602 382.972 216.324 371.571 216.324C365.871 216.324 360.573 219.61 356.683 225.511C356.683 225.578 356.616 225.578 356.616 225.645C353.8 229.602 349.373 231.882 344.545 231.882C337.101 231.882 329.389 226.249 329.389 216.86V142.353C329.389 140.475 330.864 139 332.742 139C334.62 139 336.095 140.475 336.095 142.353V216.793C336.095 222.024 340.387 225.109 344.545 225.109C346.087 225.109 348.971 224.639 351.117 221.689C356.214 213.976 363.725 209.617 371.571 209.617C386.728 209.617 399 225.914 399 245.898C399 265.883 386.728 282.18 371.571 282.18C367.548 282.18 363.591 281.039 359.969 278.826C356.683 276.815 353.598 273.797 351.117 270.108C348.502 266.554 344.612 266.219 341.862 267.09C339.113 267.962 336.095 270.578 336.095 275.004V354.742C336.095 356.62 334.62 358.095 332.742 358.095Z" fill="#383A48"/>
<path d="M120.353 354.741H160.121H164.48H168.84H194.793C206.06 354.741 210.754 369.159 201.633 375.799C198.347 378.012 195.665 380.694 193.854 383.645C191.976 386.663 190.97 389.949 190.97 393.503C190.97 406.782 205.724 417.579 223.898 417.579C242.072 417.579 256.826 406.782 256.826 393.503C256.826 386.462 252.735 380.158 246.163 375.799C242.81 373.384 241.335 369.897 241.335 366.477C241.335 360.508 245.828 354.674 253.004 354.674H332.742" fill="#F6E049"/>
<path d="M223.898 420.933C203.914 420.933 187.617 408.66 187.617 393.504C187.617 389.413 188.757 385.457 191.038 381.902C193.049 378.616 196.067 375.598 199.756 373.117C203.31 370.502 203.645 366.612 202.707 363.862C201.835 361.113 199.286 358.162 194.86 358.162H120.353C118.475 358.162 117 356.687 117 354.809C117 352.931 118.475 351.456 120.353 351.456H194.793C201.432 351.456 206.999 355.547 209.078 361.783C211.156 368.087 209.01 374.66 203.645 378.549L203.578 378.616C200.695 380.561 198.347 382.908 196.805 385.457C195.195 388.072 194.391 390.688 194.391 393.571C194.391 404.972 207.669 414.294 223.966 414.294C240.262 414.294 253.54 404.972 253.54 393.571C253.54 387.871 250.254 382.573 244.353 378.683C244.286 378.683 244.286 378.616 244.219 378.616C240.262 375.8 237.982 371.373 237.982 366.545C237.982 359.101 243.615 351.389 253.004 351.389H332.742C334.62 351.389 336.095 352.864 336.095 354.742C336.095 356.62 334.62 358.095 332.742 358.095H253.004C247.773 358.095 244.688 362.387 244.688 366.545C244.688 368.087 245.157 370.971 248.108 373.117C255.82 378.214 260.18 385.725 260.18 393.571C260.18 408.66 243.883 420.933 223.898 420.933Z" fill="#383A48"/>
<path d="M336.961 484H329.97V507H336.961V484Z" fill="#383A48"/>
<path d="M345 492.039H322V499.03H345V492.039Z" fill="#383A48"/>
<path d="M1112.31 247H1105.62V269H1112.31V247Z" fill="#383A48"/>
<path d="M1120 254.689H1098V261.376H1120V254.689Z" fill="#383A48"/>
<path d="M1133.67 456.092L1111.18 433.516L1127.15 417.58C1128.02 416.717 1128.48 415.588 1128.48 414.326V374.287C1128.48 373.092 1128.02 371.897 1127.15 371.034L1097.35 341.286C1096.55 340.49 1095.55 340.025 1094.42 339.958V317.582C1094.42 315.058 1092.36 313 1089.83 313H1058.23C1055.7 313 1053.64 315.058 1053.64 317.582V339.892H1045.26H1033.49V317.582C1033.49 315.058 1031.42 313 1028.9 313H997.298C994.77 313 992.708 315.058 992.708 317.582V339.892H986.055H954.59C952.062 339.892 950 341.95 950 344.474V376.346C950 378.869 952.062 380.927 954.59 380.927H981.465V496.065H954.59C952.062 496.065 950 498.123 950 500.646V532.518C950 535.042 952.062 537.1 954.59 537.1H984.991C985.324 537.166 985.656 537.233 986.055 537.233H992.708V557.418C992.708 559.942 994.77 562 997.298 562H1028.9C1031.42 562 1033.49 559.942 1033.49 557.418V537.233H1053.64V557.418C1053.64 559.942 1055.7 562 1058.23 562H1089.83C1092.36 562 1094.42 559.942 1094.42 557.418V537.233H1100.61C1101.81 537.233 1103 536.768 1103.87 535.905L1133.67 506.158C1134.53 505.294 1135 504.166 1135 502.904V459.279C1135 458.084 1134.47 456.955 1133.67 456.092ZM1045.33 496.131H1033.55V456.358H1074.66L1083.11 464.79V487.698L1074.66 496.131H1045.33ZM1033.49 380.994H1045.26H1068.08L1076.53 389.426V409.147L1068.88 416.783H1033.49V380.994Z" fill="#383A48"/>
<path d="M1015 230C1006.74 230 1000 223.482 1000 215.5C1000 207.518 1006.74 201 1015 201C1023.26 201 1030 207.518 1030 215.5C1030 223.482 1023.26 230 1015 230ZM1015 207.651C1010.53 207.651 1006.88 211.177 1006.88 215.5C1006.88 219.823 1010.53 223.349 1015 223.349C1019.47 223.349 1023.12 219.823 1023.12 215.5C1023.12 211.177 1019.47 207.651 1015 207.651Z" fill="#383A48"/>
<path d="M1077.75 143.24H1006.25V180.76H1077.75V143.24Z" fill="#4053FA"/>
<path d="M1077.75 184H1006.25C1004.43 184 1003 182.574 1003 180.76V143.24C1003 141.426 1004.43 140 1006.25 140H1077.75C1079.57 140 1081 141.426 1081 143.24V180.76C1081 182.574 1079.57 184 1077.75 184ZM1009.5 177.52H1074.5V146.48H1009.5V177.52Z" fill="#4053FA"/>
<path d="M971.708 142.357H899.292V252.641H971.708V142.357Z" fill="#4053FA"/>
<path d="M971.708 256H899.292C897.448 256 896 254.522 896 252.642V142.358C896 140.478 897.448 139 899.292 139H971.708C973.552 139 975 140.478 975 142.358V252.642C975 254.522 973.552 256 971.708 256ZM902.583 249.284H968.417V145.716H902.583V249.284Z" fill="#4053FA"/>
<path d="M846.349 363C844.473 363 843 361.524 843 359.647C843 357.769 844.473 356.293 846.349 356.293C910.377 356.293 951.366 318.668 994.767 278.829C1039.1 238.119 1084.92 196 1157.65 196C1159.53 196 1161 197.476 1161 199.353C1161 201.231 1159.53 202.707 1157.65 202.707C1126.24 202.707 1097.24 210.956 1068.91 227.924C1043.52 243.149 1021.02 263.806 999.321 283.725C978.157 303.175 956.256 323.296 931.81 338.118C904.283 354.885 876.287 363 846.349 363Z" fill="#E0719E"/>
<path d="M414.322 354.216C412.462 354.216 411 352.754 411 350.894V342.921C411 341.06 412.462 339.598 414.322 339.598C416.183 339.598 417.644 341.06 417.644 342.921V350.894C417.644 352.688 416.183 354.216 414.322 354.216ZM414.322 326.309C412.462 326.309 411 324.848 411 322.987V315.014C411 313.154 412.462 311.692 414.322 311.692C416.183 311.692 417.644 313.154 417.644 315.014V322.987C417.644 324.781 416.183 326.309 414.322 326.309ZM414.322 298.403C412.462 298.403 411 296.941 411 295.081V287.107C411 285.247 412.462 283.785 414.322 283.785C416.183 283.785 417.644 285.247 417.644 287.107V295.081C417.644 296.875 416.183 298.403 414.322 298.403ZM414.322 270.496C412.462 270.496 411 269.035 411 267.174V259.201C411 257.34 412.462 255.879 414.322 255.879C416.183 255.879 417.644 257.34 417.644 259.201V267.174C417.644 268.968 416.183 270.496 414.322 270.496ZM414.322 242.59C412.462 242.59 411 241.128 411 239.268V231.294C411 229.434 412.462 227.972 414.322 227.972C416.183 227.972 417.644 229.434 417.644 231.294V239.268C417.644 241.062 416.183 242.59 414.322 242.59ZM414.322 214.683C412.462 214.683 411 213.221 411 211.361V203.388C411 201.527 412.462 200.066 414.322 200.066C416.183 200.066 417.644 201.527 417.644 203.388V211.361C417.644 213.155 416.183 214.683 414.322 214.683ZM414.322 186.777C412.462 186.777 411 185.315 411 183.454V175.481C411 173.621 412.462 172.159 414.322 172.159C416.183 172.159 417.644 173.621 417.644 175.481V183.454C417.644 185.248 416.183 186.777 414.322 186.777ZM414.322 158.87C412.462 158.87 411 157.408 411 155.548V147.575C411 145.714 412.462 144.252 414.322 144.252C416.183 144.252 417.644 145.714 417.644 147.575V155.548C417.644 157.342 416.183 158.87 414.322 158.87ZM632.525 146.644H625.415C623.555 146.644 622.093 145.183 622.093 143.322C622.093 141.462 623.555 140 625.415 140H632.525C634.385 140 635.847 141.462 635.847 143.322C635.847 145.183 634.385 146.644 632.525 146.644ZM605.482 146.644H597.509C595.648 146.644 594.187 145.183 594.187 143.322C594.187 141.462 595.648 140 597.509 140H605.482C607.343 140 608.804 141.462 608.804 143.322C608.804 145.183 607.276 146.644 605.482 146.644ZM577.576 146.644H569.602C567.742 146.644 566.28 145.183 566.28 143.322C566.28 141.462 567.742 140 569.602 140H577.576C579.436 140 580.898 141.462 580.898 143.322C580.898 145.183 579.37 146.644 577.576 146.644ZM549.669 146.644H541.696C539.835 146.644 538.373 145.183 538.373 143.322C538.373 141.462 539.835 140 541.696 140H549.669C551.529 140 552.991 141.462 552.991 143.322C552.991 145.183 551.463 146.644 549.669 146.644ZM521.762 146.644H513.789C511.929 146.644 510.467 145.183 510.467 143.322C510.467 141.462 511.929 140 513.789 140H521.762C523.623 140 525.085 141.462 525.085 143.322C525.085 145.183 523.556 146.644 521.762 146.644ZM493.856 146.644H485.883C484.022 146.644 482.56 145.183 482.56 143.322C482.56 141.462 484.022 140 485.883 140H493.856C495.716 140 497.178 141.462 497.178 143.322C497.178 145.183 495.65 146.644 493.856 146.644ZM465.949 146.644H457.976C456.116 146.644 454.654 145.183 454.654 143.322C454.654 141.462 456.116 140 457.976 140H465.949C467.81 140 469.272 141.462 469.272 143.322C469.272 145.183 467.743 146.644 465.949 146.644ZM438.043 146.644H430.069C428.209 146.644 426.747 145.183 426.747 143.322C426.747 141.462 428.209 140 430.069 140H438.043C439.903 140 441.365 141.462 441.365 143.322C441.365 145.183 439.837 146.644 438.043 146.644Z" fill="#F3F6E6"/>
<path d="M838.103 578H830.13C828.269 578 826.808 576.538 826.808 574.678C826.808 572.817 828.269 571.356 830.13 571.356H838.103C839.964 571.356 841.425 572.817 841.425 574.678C841.425 576.538 839.964 578 838.103 578ZM810.197 578H802.223C800.363 578 798.901 576.538 798.901 574.678C798.901 572.817 800.363 571.356 802.223 571.356H810.197C812.057 571.356 813.519 572.817 813.519 574.678C813.519 576.538 812.057 578 810.197 578ZM782.29 578H774.317C772.456 578 770.995 576.538 770.995 574.678C770.995 572.817 772.456 571.356 774.317 571.356H782.29C784.151 571.356 785.612 572.817 785.612 574.678C785.612 576.538 784.151 578 782.29 578ZM754.384 578H746.41C744.55 578 743.088 576.538 743.088 574.678C743.088 572.817 744.55 571.356 746.41 571.356H754.384C756.244 571.356 757.706 572.817 757.706 574.678C757.706 576.538 756.244 578 754.384 578ZM726.477 578H718.504C716.643 578 715.182 576.538 715.182 574.678C715.182 572.817 716.643 571.356 718.504 571.356H726.477C728.337 571.356 729.799 572.817 729.799 574.678C729.799 576.538 728.337 578 726.477 578ZM698.57 578H690.597C688.737 578 687.275 576.538 687.275 574.678C687.275 572.817 688.737 571.356 690.597 571.356H698.57C700.431 571.356 701.893 572.817 701.893 574.678C701.893 576.538 700.431 578 698.57 578ZM670.664 578H662.691C660.83 578 659.368 576.538 659.368 574.678C659.368 572.817 660.83 571.356 662.691 571.356H670.664C672.524 571.356 673.986 572.817 673.986 574.678C673.986 576.538 672.524 578 670.664 578ZM845.678 565.641C843.817 565.641 842.356 564.18 842.356 562.319V554.346C842.356 552.485 843.817 551.024 845.678 551.024C847.538 551.024 849 552.485 849 554.346V562.319C849 564.18 847.538 565.641 845.678 565.641ZM845.678 537.735C843.817 537.735 842.356 536.273 842.356 534.413V526.439C842.356 524.579 843.817 523.117 845.678 523.117C847.538 523.117 849 524.579 849 526.439V534.413C849 536.273 847.538 537.735 845.678 537.735ZM845.678 509.828C843.817 509.828 842.356 508.366 842.356 506.506V498.533C842.356 496.672 843.817 495.21 845.678 495.21C847.538 495.21 849 496.672 849 498.533V506.506C849 508.366 847.538 509.828 845.678 509.828ZM845.678 481.922C843.817 481.922 842.356 480.46 842.356 478.599V470.626C842.356 468.766 843.817 467.304 845.678 467.304C847.538 467.304 849 468.766 849 470.626V478.599C849 480.46 847.538 481.922 845.678 481.922ZM845.678 454.015C843.817 454.015 842.356 452.553 842.356 450.693V442.72C842.356 440.859 843.817 439.397 845.678 439.397C847.538 439.397 849 440.859 849 442.72V450.693C849 452.553 847.538 454.015 845.678 454.015ZM845.678 426.109C843.817 426.109 842.356 424.647 842.356 422.786V414.813C842.356 412.953 843.817 411.491 845.678 411.491C847.538 411.491 849 412.953 849 414.813V422.786C849 424.647 847.538 426.109 845.678 426.109ZM845.678 398.202C843.817 398.202 842.356 396.74 842.356 394.88V386.906C842.356 385.046 843.817 383.584 845.678 383.584C847.538 383.584 849 385.046 849 386.906V394.88C849 396.74 847.538 398.202 845.678 398.202ZM845.678 370.295C843.817 370.295 842.356 368.834 842.356 366.973V359C842.356 357.14 843.817 355.678 845.678 355.678C847.538 355.678 849 357.14 849 359V366.973C849 368.834 847.538 370.295 845.678 370.295Z" fill="#F3F6E6"/>
<path d="M845.678 362.322C843.817 362.322 842.355 360.86 842.355 359V351.027C842.355 349.166 843.817 347.704 845.678 347.704C847.538 347.704 849 349.166 849 351.027V359C849 360.86 847.538 362.322 845.678 362.322ZM845.678 334.416C843.817 334.416 842.355 332.954 842.355 331.093V323.12C842.355 321.26 843.817 319.798 845.678 319.798C847.538 319.798 849 321.26 849 323.12V331.093C849 332.954 847.538 334.416 845.678 334.416ZM845.678 306.509C843.817 306.509 842.355 305.047 842.355 303.187V295.214C842.355 293.353 843.817 291.891 845.678 291.891C847.538 291.891 849 293.353 849 295.214V303.187C849 305.047 847.538 306.509 845.678 306.509ZM845.678 278.603C843.817 278.603 842.355 277.141 842.355 275.28V267.307C842.355 265.447 843.817 263.985 845.678 263.985C847.538 263.985 849 265.447 849 267.307V275.28C849 277.141 847.538 278.603 845.678 278.603ZM845.678 250.696C843.817 250.696 842.355 249.234 842.355 247.374V239.4C842.355 237.54 843.817 236.078 845.678 236.078C847.538 236.078 849 237.54 849 239.4V247.374C849 249.234 847.538 250.696 845.678 250.696ZM845.678 222.789C843.817 222.789 842.355 221.328 842.355 219.467V211.494C842.355 209.633 843.817 208.172 845.678 208.172C847.538 208.172 849 209.633 849 211.494V219.467C849 221.328 847.538 222.789 845.678 222.789ZM845.678 194.883C843.817 194.883 842.355 193.421 842.355 191.561V183.587C842.355 181.727 843.817 180.265 845.678 180.265C847.538 180.265 849 181.727 849 183.587V191.561C849 193.421 847.538 194.883 845.678 194.883ZM845.678 166.976C843.817 166.976 842.355 165.515 842.355 163.654V155.681C842.355 153.82 843.817 152.359 845.678 152.359C847.538 152.359 849 153.82 849 155.681V163.654C849 165.515 847.538 166.976 845.678 166.976ZM838.103 146.644H830.13C828.269 146.644 826.808 145.183 826.808 143.322C826.808 141.462 828.269 140 830.13 140H838.103C839.963 140 841.425 141.462 841.425 143.322C841.425 145.183 839.897 146.644 838.103 146.644ZM810.196 146.644H802.223C800.363 146.644 798.901 145.183 798.901 143.322C798.901 141.462 800.363 140 802.223 140H810.196C812.057 140 813.519 141.462 813.519 143.322C813.519 145.183 811.99 146.644 810.196 146.644ZM782.29 146.644H774.317C772.456 146.644 770.994 145.183 770.994 143.322C770.994 141.462 772.456 140 774.317 140H782.29C784.15 140 785.612 141.462 785.612 143.322C785.612 145.183 784.084 146.644 782.29 146.644ZM754.383 146.644H746.41C744.55 146.644 743.088 145.183 743.088 143.322C743.088 141.462 744.55 140 746.41 140H754.383C756.244 140 757.706 141.462 757.706 143.322C757.706 145.183 756.177 146.644 754.383 146.644ZM726.477 146.644H718.504C716.643 146.644 715.181 145.183 715.181 143.322C715.181 141.462 716.643 140 718.504 140H726.477C728.337 140 729.799 141.462 729.799 143.322C729.799 145.183 728.271 146.644 726.477 146.644ZM698.57 146.644H690.597C688.737 146.644 687.275 145.183 687.275 143.322C687.275 141.462 688.737 140 690.597 140H698.57C700.431 140 701.892 141.462 701.892 143.322C701.892 145.183 700.364 146.644 698.57 146.644ZM670.664 146.644H662.69C660.83 146.644 659.368 145.183 659.368 143.322C659.368 141.462 660.83 140 662.69 140H670.664C672.524 140 673.986 141.462 673.986 143.322C673.986 145.183 672.458 146.644 670.664 146.644ZM642.757 146.644H634.784C632.923 146.644 631.462 145.183 631.462 143.322C631.462 141.462 632.923 140 634.784 140H642.757C644.618 140 646.079 141.462 646.079 143.322C646.079 145.183 644.551 146.644 642.757 146.644Z" fill="#F3F6E6"/>
</g>
<defs>
<clipPath id="clip0">
<rect width="1280" height="720" fill="white"/>
</clipPath>
</defs>
</svg>
