<svg width="1200" height="800" viewBox="0 0 1200 800" fill="none" xmlns="http://www.w3.org/2000/svg">
<path d="M433.927 165.171C415.178 165.171 400.178 180.16 400.178 198.896C400.178 300.073 400.178 600.926 400.178 702.103C400.178 720.839 415.178 735.828 433.927 735.828C558.742 735.828 994.258 735.828 1119.07 735.828C1137.82 735.828 1152.82 720.839 1152.82 702.103C1152.82 600.926 1152.82 300.073 1152.82 198.896C1152.82 180.16 1137.82 165.171 1119.07 165.171C994.258 165.171 558.742 165.171 433.927 165.171Z" fill="white"/>
<path d="M466.603 204.785C460.711 204.785 454.818 206.927 450.533 211.745C446.247 216.027 443.569 221.916 443.569 227.804L443.569 673.731C443.569 679.62 445.712 685.508 450.533 689.791C454.818 694.073 460.711 696.75 466.603 696.75L1086.4 696.75C1092.29 696.75 1098.18 694.609 1102.47 689.791C1106.75 685.508 1109.43 679.62 1109.43 673.731L1109.43 227.804C1109.43 221.916 1107.29 216.027 1102.47 211.745C1098.18 207.462 1092.29 204.785 1086.4 204.785L466.603 204.785Z" fill="#00E6B3"/>
<path d="M390 198.897C390 300.073 390 600.927 390 702.103C390 726.193 409.821 746 433.927 746C558.742 746 994.258 746 1119.07 746C1143.18 746 1163 726.193 1163 702.103C1163 600.927 1163 300.073 1163 198.897C1163 174.807 1143.18 155 1119.07 155L433.927 155C409.821 155 390 174.807 390 198.897ZM1119.07 175.342C1131.93 175.342 1142.11 185.514 1142.11 198.361C1142.11 299.538 1142.11 600.391 1142.11 701.568C1142.11 714.416 1131.93 724.587 1119.07 724.587C994.258 724.587 558.742 724.587 433.927 724.587C421.07 724.587 410.892 714.416 410.892 701.568C410.892 600.391 410.892 299.538 410.892 198.361C410.892 185.514 421.07 175.342 433.927 175.342L1119.07 175.342Z" fill="#142664"/>
<path d="M579.417 112.658H549.024L145.293 147.403H114.9C106.848 147.403 100.32 153.921 100.32 161.959V197.461C100.32 205.136 106.287 211.355 113.832 211.908L81.2559 542.202C91.5059 566.732 127.917 595 145.293 595H579.027C596.403 595 610.488 580.939 610.488 563.592V224.918C610.488 218.462 613.808 212.701 618.78 208.568C621.97 205.918 624 201.934 624 197.458V161.956C624 153.921 587.469 112.658 579.417 112.658Z" fill="#142664"/>
<path d="M108.973 558.745H542.707C560.083 558.745 574.168 544.684 574.168 527.337V142.557C574.168 125.21 560.083 111.148 542.707 111.148H108.973C91.5969 111.148 77.5122 125.21 77.5122 142.557V527.337C77.5122 544.68 91.6005 558.745 108.973 558.745Z" fill="#FF2E93"/>
<path d="M78.5804 175.762H573.104C581.156 175.762 587.684 169.245 587.684 161.206V125.704C587.684 117.666 581.156 111.148 573.104 111.148H78.5804C70.5284 111.148 64 117.666 64 125.704V161.206C64 169.245 70.5284 175.762 78.5804 175.762Z" fill="#00E6B3"/>
<path d="M208.236 257.902H184.587C180.559 257.902 177.297 254.645 177.297 250.624V227.014C177.297 222.993 180.559 219.736 184.587 219.736H208.236C212.264 219.736 215.527 222.993 215.527 227.014V250.624C215.527 254.642 212.264 257.902 208.236 257.902Z" fill="white"/>
<path d="M272.959 257.902H249.31C245.282 257.902 242.02 254.645 242.02 250.624V227.014C242.02 222.993 245.282 219.736 249.31 219.736H272.959C276.987 219.736 280.249 222.993 280.249 227.014V250.624C280.249 254.642 276.987 257.902 272.959 257.902Z" fill="white"/>
<path d="M337.681 257.902H314.032C310.004 257.902 306.742 254.645 306.742 250.624V227.014C306.742 222.993 310.004 219.736 314.032 219.736H337.681C341.709 219.736 344.971 222.993 344.971 227.014V250.624C344.971 254.642 341.709 257.902 337.681 257.902Z" fill="white"/>
<path d="M402.403 257.902H378.754C374.726 257.902 371.464 254.645 371.464 250.624V227.014C371.464 222.993 374.726 219.736 378.754 219.736H402.403C406.431 219.736 409.694 222.993 409.694 227.014V250.624C409.694 254.642 406.431 257.902 402.403 257.902Z" fill="white"/>
<path d="M467.13 257.902H443.48C439.452 257.902 436.19 254.645 436.19 250.624V227.014C436.19 222.993 439.452 219.736 443.48 219.736H467.13C471.157 219.736 474.42 222.993 474.42 227.014V250.624C474.42 254.642 471.154 257.902 467.13 257.902Z" fill="#142664"/>
<path d="M143.514 257.902H119.865C115.837 257.902 112.575 254.645 112.575 250.624V227.014C112.575 222.993 115.837 219.736 119.865 219.736H143.514C147.542 219.736 150.804 222.993 150.804 227.014V250.624C150.804 254.642 147.542 257.902 143.514 257.902Z" fill="white"/>
<path d="M531.852 257.902H508.202C504.174 257.902 500.912 254.645 500.912 250.624V227.014C500.912 222.993 504.174 219.736 508.202 219.736H531.852C535.88 219.736 539.142 222.993 539.142 227.014V250.624C539.142 254.642 535.876 257.902 531.852 257.902Z" fill="#142664"/>
<path d="M208.236 331.922H184.587C180.559 331.922 177.297 328.665 177.297 324.644V301.034C177.297 297.013 180.559 293.756 184.587 293.756H208.236C212.264 293.756 215.527 297.013 215.527 301.034V324.644C215.527 328.665 212.264 331.922 208.236 331.922Z" fill="white"/>
<path d="M272.959 331.922H249.31C245.282 331.922 242.02 328.665 242.02 324.644V301.034C242.02 297.013 245.282 293.756 249.31 293.756H272.959C276.987 293.756 280.249 297.013 280.249 301.034V324.644C280.249 328.665 276.987 331.922 272.959 331.922Z" fill="white"/>
<path d="M337.681 331.922H314.032C310.004 331.922 306.742 328.665 306.742 324.644V301.034C306.742 297.013 310.004 293.756 314.032 293.756H337.681C341.709 293.756 344.971 297.013 344.971 301.034V324.644C344.971 328.665 341.709 331.922 337.681 331.922Z" fill="white"/>
<path d="M402.403 331.922H378.754C374.726 331.922 371.464 328.665 371.464 324.644V301.034C371.464 297.013 374.726 293.756 378.754 293.756H402.403C406.431 293.756 409.694 297.013 409.694 301.034V324.644C409.694 328.665 406.431 331.922 402.403 331.922Z" fill="white"/>
<path d="M467.13 331.922H443.48C439.452 331.922 436.19 328.665 436.19 324.644V301.034C436.19 297.013 439.452 293.756 443.48 293.756H467.13C471.157 293.756 474.42 297.013 474.42 301.034V324.644C474.42 328.665 471.154 331.922 467.13 331.922Z" fill="#142664"/>
<path d="M143.514 331.922H119.865C115.837 331.922 112.575 328.665 112.575 324.644V301.034C112.575 297.013 115.837 293.756 119.865 293.756H143.514C147.542 293.756 150.804 297.013 150.804 301.034V324.644C150.804 328.665 147.542 331.922 143.514 331.922Z" fill="white"/>
<path d="M531.852 331.922H508.202C504.174 331.922 500.912 328.665 500.912 324.644V301.034C500.912 297.013 504.174 293.756 508.202 293.756H531.852C535.88 293.756 539.142 297.013 539.142 301.034V324.644C539.142 328.665 535.876 331.922 531.852 331.922Z" fill="#142664"/>
<path d="M208.236 405.943H184.587C180.559 405.943 177.297 402.686 177.297 398.665V375.055C177.297 371.034 180.559 367.777 184.587 367.777H208.236C212.264 367.777 215.527 371.034 215.527 375.055V398.665C215.527 402.686 212.264 405.943 208.236 405.943Z" fill="white"/>
<path d="M272.959 405.943H249.31C245.282 405.943 242.02 402.686 242.02 398.665V375.055C242.02 371.034 245.282 367.777 249.31 367.777H272.959C276.987 367.777 280.249 371.034 280.249 375.055V398.665C280.249 402.686 276.987 405.943 272.959 405.943Z" fill="white"/>
<path d="M337.681 405.943H314.032C310.004 405.943 306.742 402.686 306.742 398.665V375.055C306.742 371.034 310.004 367.777 314.032 367.777H337.681C341.709 367.777 344.971 371.034 344.971 375.055V398.665C344.971 402.686 341.709 405.943 337.681 405.943Z" fill="white"/>
<path d="M402.403 405.943H378.754C374.726 405.943 371.464 402.686 371.464 398.665V375.055C371.464 371.034 374.726 367.777 378.754 367.777H402.403C406.431 367.777 409.694 371.034 409.694 375.055V398.665C409.694 402.686 406.431 405.943 402.403 405.943Z" fill="white"/>
<path d="M467.13 405.943H443.48C439.452 405.943 436.19 402.686 436.19 398.665V375.055C436.19 371.034 439.452 367.777 443.48 367.777H467.13C471.157 367.777 474.42 371.034 474.42 375.055V398.665C474.42 402.686 471.154 405.943 467.13 405.943Z" fill="#142664"/>
<path d="M143.514 405.943H119.865C115.837 405.943 112.575 402.686 112.575 398.665V375.055C112.575 371.034 115.837 367.777 119.865 367.777H143.514C147.542 367.777 150.804 371.034 150.804 375.055V398.665C150.804 402.686 147.542 405.943 143.514 405.943Z" fill="white"/>
<path d="M531.852 405.943H508.202C504.174 405.943 500.912 402.686 500.912 398.665V375.055C500.912 371.034 504.174 367.777 508.202 367.777H531.852C535.88 367.777 539.142 371.034 539.142 375.055V398.665C539.142 402.686 535.876 405.943 531.852 405.943Z" fill="#142664"/>
<path d="M208.236 479.969H184.587C180.559 479.969 177.297 476.712 177.297 472.691V449.081C177.297 445.06 180.559 441.803 184.587 441.803H208.236C212.264 441.803 215.527 445.06 215.527 449.081V472.691C215.527 476.708 212.264 479.969 208.236 479.969Z" fill="white"/>
<path d="M272.959 479.969H249.31C245.282 479.969 242.02 476.712 242.02 472.691V449.081C242.02 445.06 245.282 441.803 249.31 441.803H272.959C276.987 441.803 280.249 445.06 280.249 449.081V472.691C280.249 476.708 276.987 479.969 272.959 479.969Z" fill="white"/>
<path d="M337.681 479.969H314.032C310.004 479.969 306.742 476.712 306.742 472.691V449.081C306.742 445.06 310.004 441.803 314.032 441.803H337.681C341.709 441.803 344.971 445.06 344.971 449.081V472.691C344.971 476.708 341.709 479.969 337.681 479.969Z" fill="white"/>
<path d="M402.403 479.969H378.754C374.726 479.969 371.464 476.712 371.464 472.691V449.081C371.464 445.06 374.726 441.803 378.754 441.803H402.403C406.431 441.803 409.694 445.06 409.694 449.081V472.691C409.694 476.708 406.431 479.969 402.403 479.969Z" fill="white"/>
<path d="M467.13 479.969H443.48C439.452 479.969 436.19 476.712 436.19 472.691V449.081C436.19 445.06 439.452 441.803 443.48 441.803H467.13C471.157 441.803 474.42 445.06 474.42 449.081V472.691C474.42 476.708 471.154 479.969 467.13 479.969Z" fill="#142664"/>
<path d="M143.514 479.969H119.865C115.837 479.969 112.575 476.712 112.575 472.691V449.081C112.575 445.06 115.837 441.803 119.865 441.803H143.514C147.542 441.803 150.804 445.06 150.804 449.081V472.691C150.804 476.708 147.542 479.969 143.514 479.969Z" fill="white"/>
<path d="M531.852 479.969H508.202C504.174 479.969 500.912 476.712 500.912 472.691V449.081C500.912 445.06 504.174 441.803 508.202 441.803H531.852C535.88 441.803 539.142 445.06 539.142 449.081V472.691C539.142 476.708 535.876 479.969 531.852 479.969Z" fill="#142664"/>
<path d="M141.378 156.192C123.018 156.192 108.084 141.279 108.084 122.953V90.2386C108.088 71.9126 123.022 57 141.378 57C159.735 57 174.673 71.9126 174.673 90.2386C174.673 95.264 170.594 99.3361 165.56 99.3361C160.526 99.3361 156.447 95.264 156.447 90.2386C156.447 81.9417 149.689 75.195 141.378 75.195C133.071 75.195 126.309 81.9417 126.309 90.2386V122.95C126.309 131.246 133.067 137.993 141.378 137.993C146.412 137.993 150.491 142.065 150.491 147.091C150.491 152.116 146.412 156.192 141.378 156.192Z" fill="#142664"/>
<path d="M235.433 156.192C217.072 156.192 202.138 141.279 202.138 122.953V90.2386C202.138 71.9126 217.076 57 235.433 57C253.789 57 268.727 71.9126 268.727 90.2386C268.727 95.264 264.648 99.3361 259.614 99.3361C254.58 99.3361 250.501 95.264 250.501 90.2386C250.501 81.9417 243.743 75.195 235.433 75.195C227.125 75.195 220.364 81.9417 220.364 90.2386V122.95C220.364 131.246 227.122 137.993 235.433 137.993C240.466 137.993 244.545 142.065 244.545 147.091C244.545 152.116 240.466 156.192 235.433 156.192Z" fill="#142664"/>
<path d="M329.487 156.192C311.127 156.192 296.193 141.279 296.193 122.953V90.2386C296.193 71.9126 311.127 57 329.487 57C347.848 57 362.782 71.9126 362.782 90.2386C362.782 95.264 358.703 99.3361 353.669 99.3361C348.635 99.3361 344.556 95.264 344.556 90.2386C344.556 81.9417 337.798 75.195 329.487 75.195C321.18 75.195 314.418 81.9417 314.418 90.2386V122.95C314.418 131.246 321.176 137.993 329.487 137.993C334.521 137.993 338.6 142.065 338.6 147.091C338.6 152.116 334.521 156.192 329.487 156.192Z" fill="#142664"/>
<path d="M423.541 156.192C405.181 156.192 390.247 141.279 390.247 122.953V90.2386C390.247 71.9126 405.185 57 423.541 57C441.898 57 456.836 71.9126 456.836 90.2386C456.836 95.264 452.757 99.3361 447.723 99.3361C442.689 99.3361 438.61 95.264 438.61 90.2386C438.61 81.9417 431.852 75.195 423.541 75.195C415.231 75.195 408.473 81.9417 408.473 90.2386V122.95C408.473 131.246 415.231 137.993 423.541 137.993C428.575 137.993 432.654 142.065 432.654 147.091C432.654 152.116 428.575 156.192 423.541 156.192Z" fill="#142664"/>
<path d="M517.596 156.192C499.236 156.192 484.302 141.279 484.302 122.953V90.2386C484.302 71.909 499.239 57 517.596 57C535.953 57 550.89 71.9126 550.89 90.2386C550.89 95.264 546.812 99.3361 541.778 99.3361C536.744 99.3361 532.665 95.264 532.665 90.2386C532.665 81.9417 525.907 75.195 517.596 75.195C509.285 75.195 502.527 81.9417 502.527 90.2386V122.95C502.527 131.246 509.285 137.993 517.596 137.993C522.63 137.993 526.709 142.065 526.709 147.091C526.709 152.116 522.63 156.192 517.596 156.192Z" fill="#142664"/>
<path d="M416.111 379.738C413.429 379.738 410.747 378.665 409.137 376.519L395.189 358.278C392.506 354.523 393.043 349.158 396.798 345.939C400.554 343.257 405.918 343.793 409.137 347.549L416.111 356.669L441.326 323.407C444.008 319.652 449.91 319.115 453.665 321.798C457.42 324.48 457.957 330.381 455.275 334.137L423.086 376.519C421.476 378.665 418.794 379.738 416.111 379.738Z" fill="#142664"/>
<path d="M479.416 316.969C479.416 311.604 477.27 306.239 472.979 301.948C469.223 298.192 463.858 295.51 457.957 295.51H391.97C386.605 295.51 381.24 297.656 376.949 301.948C373.193 305.703 370.511 311.068 370.511 316.969V382.956C370.511 388.321 372.657 393.686 376.949 397.978C380.704 401.733 386.069 404.415 391.97 404.415H458.494C463.858 404.415 469.223 402.269 473.515 397.978C477.807 393.686 479.953 388.857 479.953 382.956V316.969H479.416Z" fill="#142664"/>
<path d="M458.494 413H392.506C384.459 413 376.948 409.781 371.584 404.416C366.219 399.051 363 391.541 363 383.494V317.506C363 309.459 366.219 301.948 371.584 296.584C376.948 291.219 384.459 288 392.506 288H458.494C466.541 288 474.051 291.219 479.416 296.584C484.781 301.948 488 309.459 488 317.506V383.494C488 391.541 484.781 399.051 479.416 404.416C474.051 409.781 466.541 413 458.494 413ZM392.506 304.631C389.288 304.631 386.069 305.704 383.923 308.386C381.777 310.532 380.167 313.751 380.167 316.97V382.957C380.167 386.176 381.24 389.395 383.923 391.541C386.069 393.687 389.288 395.296 392.506 395.296H458.494C461.712 395.296 464.931 394.223 467.077 391.541C469.223 389.395 470.833 386.176 470.833 382.957V316.97C470.833 313.751 469.76 310.532 467.077 308.386C464.931 306.24 461.712 304.631 458.494 304.631H392.506Z" fill="#142664"/>
<path d="M417.184 380.812C414.502 380.812 412.356 379.739 410.21 377.593L390.897 353.988C387.678 350.233 388.214 344.868 391.97 341.649C395.725 338.43 401.09 338.967 404.309 342.722L416.648 358.28L445.618 322.872C448.837 319.117 454.202 318.58 457.957 321.799C461.712 325.018 462.249 330.383 459.03 334.138L423.622 378.13C422.013 379.739 419.867 380.812 417.184 380.812Z" fill="#00E6B3"/>
<path d="M686.203 270.669H702.034C707.663 270.669 712.237 266.036 712.237 260.335C712.237 254.633 707.663 250 702.034 250H686.203C680.574 250 676 254.633 676 260.335C676 266.036 680.574 270.669 686.203 270.669Z" fill="#142664"/>
<path d="M732.29 270.669H830.797C836.426 270.669 841 266.036 841 260.335C841 254.633 836.426 250 830.797 250H732.29C726.661 250 722.087 254.633 722.087 260.335C722.439 266.036 726.661 270.669 732.29 270.669Z" fill="#142664"/>
<path d="M686.203 309.513H760.083C765.712 309.513 770.286 304.88 770.286 299.178C770.286 293.476 765.712 288.844 760.083 288.844H686.203C680.574 288.844 676 293.476 676 299.178C676 304.88 680.574 309.513 686.203 309.513Z" fill="#142664"/>
<path d="M790.339 309.513H830.797C836.426 309.513 841 304.88 841 299.178C841 293.476 836.426 288.844 830.797 288.844H790.339C784.71 288.844 780.136 293.476 780.136 299.178C780.488 304.88 785.062 309.513 790.339 309.513Z" fill="#142664"/>
<path d="M686.203 347.999H789.987C795.616 347.999 800.19 343.366 800.19 337.665C800.19 331.963 795.616 327.33 789.987 327.33H686.203C680.574 327.33 676 331.963 676 337.665C676 343.366 680.574 347.999 686.203 347.999Z" fill="#142664"/>
<path d="M698.719 432.729H675.21V470.84H698.719V432.729Z" fill="#142664"/>
<path d="M745.87 432.729H715.51V456.078H739.019L745.87 432.729Z" fill="#142664"/>
<path d="M779.32 432.729H748.96L755.945 400.656H779.454V432.729H779.32Z" fill="#FF2E93"/>
<path d="M819.62 409.244H796.111V432.594H819.62V409.244Z" fill="#FF2E93"/>
<path d="M859.92 377.037H836.412V432.728H859.92V377.037Z" fill="#FF2E93"/>
<path d="M900.221 327.52H876.712V432.594H900.221V327.52Z" fill="#FF2E93"/>
<path d="M940.521 335.572H917.013V432.729H940.521V335.572Z" fill="#FF2E93"/>
<path d="M980.822 312.088H957.313V432.594H980.822V312.088Z" fill="#FF2E93"/>
<path d="M1021.12 282.699H997.614V432.594H1021.12V282.699Z" fill="#FF2E93"/>
<path d="M1037.91 434.741H658.149C656.94 434.741 656 433.802 656 432.594C656 431.387 656.94 430.447 658.149 430.447H1037.91C1039.12 430.447 1040.06 431.387 1040.06 432.594C1040.06 433.802 1039.12 434.741 1037.91 434.741Z" fill="#142664"/>
<path d="M698.584 474.999H675.076C672.792 474.999 670.911 473.121 670.911 470.839C670.911 468.558 672.792 466.679 675.076 466.679H696.972L712.689 452.857C713.495 452.186 714.436 451.784 715.51 451.784H735.929L751.781 399.314C752.318 397.569 753.93 396.361 755.811 396.361H779.319C779.991 396.361 780.663 396.496 781.2 396.898L797.052 405.084H816.933L832.516 375.025C833.188 373.683 834.665 372.743 836.277 372.743H856.696L872.548 326.044C873.085 324.299 874.697 323.226 876.578 323.226H900.087C900.758 323.226 901.296 323.36 901.967 323.628L917.953 331.277H938.372L953.955 309.672C954.761 308.598 955.97 307.927 957.448 307.927H978.538L994.121 280.686C994.927 279.344 996.27 278.539 997.748 278.539H1019.51L1032.14 265.925C1033.75 264.314 1036.44 264.314 1038.05 265.925C1039.66 267.535 1039.66 270.219 1038.05 271.829L1024.08 285.785C1023.27 286.59 1022.2 286.993 1021.12 286.993H1000.17L984.583 314.235C983.777 315.576 982.434 316.382 980.956 316.382H959.597L944.014 337.987C943.208 339.06 941.999 339.731 940.521 339.731H917.013C916.341 339.731 915.804 339.597 915.132 339.329L899.146 331.68H879.668L863.816 378.379C863.279 380.124 861.667 381.197 859.786 381.197H838.964L823.381 411.257C822.71 412.599 821.232 413.538 819.62 413.538H796.111C795.44 413.538 794.768 413.404 794.231 413.002L778.379 404.816H759.035L743.183 457.286C742.646 459.03 741.034 460.238 739.153 460.238H717.257L701.674 473.926C700.599 474.597 699.659 474.999 698.584 474.999Z" fill="#142664"/>
<path d="M1025.15 258.947C1024.08 257.873 1023.67 256.397 1023.94 254.921C1024.21 253.445 1025.29 252.371 1026.76 251.835C1034.82 249.017 1048.39 244.32 1057.26 241.233C1058.87 240.696 1060.48 241.099 1061.69 242.307C1062.9 243.515 1063.3 245.259 1062.77 246.735C1059.68 255.592 1054.97 269.146 1052.15 277.197C1051.62 278.539 1050.54 279.613 1049.06 280.015C1047.59 280.284 1046.11 279.881 1045.03 278.808C1039.53 273.306 1030.66 264.449 1025.15 258.947Z" fill="#142664"/>
<path d="M962.213 538.92C962.213 537.295 961.623 535.818 960.442 534.636C959.261 533.454 957.785 532.863 956.161 532.863C938.3 532.863 885.603 532.863 867.742 532.863C866.119 532.863 864.643 533.454 863.462 534.636C862.281 535.818 861.69 537.295 861.69 538.92C861.69 544.238 861.69 552.068 861.69 557.386C861.69 559.011 862.281 560.488 863.462 561.67C864.643 562.852 866.119 563.443 867.742 563.443C885.603 563.443 938.3 563.443 956.161 563.443C957.785 563.443 959.261 562.852 960.442 561.67C961.623 560.488 962.213 559.011 962.213 557.386C962.213 552.068 962.213 544.386 962.213 538.92Z" fill="#142664"/>
<path d="M962.213 508.488C962.213 506.863 961.623 505.386 960.442 504.204C959.261 503.023 957.785 502.432 956.161 502.432C938.3 502.432 885.603 502.432 867.742 502.432C866.119 502.432 864.643 503.023 863.462 504.204C862.281 505.386 861.69 506.863 861.69 508.488C861.69 513.807 861.69 521.636 861.69 526.954C861.69 528.579 862.281 530.057 863.462 531.238C864.643 532.42 866.119 533.011 867.742 533.011C885.603 533.011 938.3 533.011 956.161 533.011C957.785 533.011 959.261 532.42 960.442 531.238C961.623 530.057 962.213 528.579 962.213 526.954C962.213 521.636 962.213 513.807 962.213 508.488Z" fill="#142664"/>
<path d="M962.213 478.057C962.213 476.432 961.623 474.955 960.442 473.773C959.261 472.591 957.785 472 956.161 472C938.3 472 885.603 472 867.742 472C866.119 472 864.643 472.591 863.462 473.773C862.281 474.955 861.69 476.432 861.69 478.057C861.69 483.375 861.69 491.205 861.69 496.523C861.69 498.148 862.281 499.625 863.462 500.807C864.643 501.989 866.119 502.58 867.742 502.58C885.603 502.58 938.3 502.58 956.161 502.58C957.785 502.58 959.261 501.989 960.442 500.807C961.623 499.625 962.213 498.148 962.213 496.523C962.213 491.205 962.213 483.375 962.213 478.057Z" fill="#142664"/>
<path d="M867.152 535.227C867.152 535.227 876.747 535.522 889.589 535.818C896.379 535.966 904.202 536.113 912.026 536.113C916.601 536.113 921.177 536.113 925.458 535.966C942.581 535.67 956.899 535.227 956.899 535.227C958.228 535.227 959.261 534.193 959.261 532.863C959.261 531.534 958.228 530.5 956.899 530.5C956.899 530.5 942.729 530.056 925.458 529.761C921.03 529.761 916.601 529.613 912.026 529.613C904.202 529.613 896.526 529.761 889.589 529.909C876.747 530.204 867.152 530.5 867.152 530.5C865.823 530.5 864.79 531.534 864.79 532.863C864.79 534.193 865.823 535.227 867.152 535.227Z" fill="#FF2E93"/>
<path d="M867.152 504.795C867.152 504.795 876.747 505.091 889.589 505.386C896.379 505.534 904.202 505.682 912.026 505.682C916.601 505.682 921.177 505.682 925.458 505.534C942.581 505.238 956.899 504.795 956.899 504.795C958.228 504.795 959.261 503.761 959.261 502.432C959.261 501.102 958.228 500.068 956.899 500.068C956.899 500.068 942.729 499.625 925.458 499.329C921.03 499.329 916.601 499.182 912.026 499.182C904.202 499.182 896.526 499.329 889.589 499.477C876.747 499.773 867.152 500.068 867.152 500.068C865.823 500.068 864.79 501.102 864.79 502.432C864.79 503.761 865.823 504.795 867.152 504.795Z" fill="#FF2E93"/>
<path d="M932.101 630.363C932.101 628.738 931.51 627.261 930.329 626.079C929.148 624.898 927.672 624.307 926.049 624.307C908.188 624.307 855.491 624.307 837.63 624.307C836.006 624.307 834.53 624.898 833.349 626.079C832.168 627.261 831.578 628.738 831.578 630.363C831.578 635.682 831.578 643.511 831.578 648.829C831.578 650.454 832.168 651.932 833.349 653.113C834.53 654.295 836.006 654.886 837.63 654.886C855.491 654.886 908.188 654.886 926.049 654.886C927.672 654.886 929.148 654.295 930.329 653.113C931.51 651.932 932.101 650.454 932.101 648.829C932.101 643.511 932.101 635.829 932.101 630.363Z" fill="#142664"/>
<path d="M932.101 599.932C932.101 598.307 931.51 596.83 930.329 595.648C929.148 594.466 927.672 593.875 926.049 593.875C908.188 593.875 855.491 593.875 837.63 593.875C836.006 593.875 834.53 594.466 833.349 595.648C832.168 596.83 831.578 598.307 831.578 599.932C831.578 605.25 831.578 613.08 831.578 618.398C831.578 620.023 832.168 621.5 833.349 622.682C834.53 623.864 836.006 624.455 837.63 624.455C855.491 624.455 908.188 624.455 926.049 624.455C927.672 624.455 929.148 623.864 930.329 622.682C931.51 621.5 932.101 620.023 932.101 618.398C932.101 613.08 932.101 605.25 932.101 599.932Z" fill="#142664"/>
<path d="M932.101 569.5C932.101 567.875 931.51 566.398 930.329 565.216C929.148 564.034 927.672 563.443 926.049 563.443C908.188 563.443 855.491 563.443 837.63 563.443C836.006 563.443 834.53 564.034 833.349 565.216C832.168 566.398 831.578 567.875 831.578 569.5C831.578 574.818 831.578 582.648 831.578 587.966C831.578 589.591 832.168 591.068 833.349 592.25C834.53 593.432 836.006 594.023 837.63 594.023C855.491 594.023 908.188 594.023 926.049 594.023C927.672 594.023 929.148 593.432 930.329 592.25C931.51 591.068 932.101 589.591 932.101 587.966C932.101 582.648 932.101 574.818 932.101 569.5Z" fill="#142664"/>
<path d="M837.039 626.67C837.039 626.67 846.634 626.966 859.476 627.261C866.266 627.409 874.089 627.557 881.913 627.557C886.489 627.557 891.065 627.557 895.345 627.409C912.468 627.113 926.786 626.67 926.786 626.67C928.115 626.67 929.148 625.636 929.148 624.307C929.148 622.977 928.115 621.943 926.786 621.943C926.786 621.943 912.616 621.5 895.345 621.204C890.917 621.204 886.489 621.057 881.913 621.057C874.089 621.057 866.414 621.204 859.476 621.352C846.634 621.648 837.039 621.943 837.039 621.943C835.711 621.943 834.677 622.977 834.677 624.307C834.825 625.636 835.858 626.67 837.039 626.67Z" fill="#FF2E93"/>
<path d="M837.039 596.239C837.039 596.239 846.634 596.534 859.476 596.83C866.266 596.977 874.089 597.125 881.913 597.125C886.489 597.125 891.065 597.125 895.345 596.977C912.468 596.682 926.786 596.239 926.786 596.239C928.115 596.239 929.148 595.205 929.148 593.875C929.148 592.545 928.115 591.511 926.786 591.511C926.786 591.511 912.616 591.068 895.345 590.773C890.917 590.773 886.489 590.625 881.913 590.625C874.089 590.625 866.414 590.773 859.476 590.92C846.634 591.216 837.039 591.511 837.039 591.511C835.711 591.511 834.677 592.545 834.677 593.875C834.825 595.205 835.858 596.239 837.039 596.239Z" fill="#FF2E93"/>
<path d="M1031 626.524C1031 624.899 1030.41 623.421 1029.23 622.24C1028.05 621.058 1026.57 620.467 1024.95 620.467C1007.09 620.467 954.39 620.467 936.529 620.467C934.905 620.467 933.429 621.058 932.248 622.24C931.067 623.421 930.477 624.899 930.477 626.524C930.477 631.842 930.477 639.671 930.477 644.99C930.477 646.615 931.067 648.092 932.248 649.274C933.429 650.455 934.905 651.046 936.529 651.046C954.39 651.046 1007.09 651.046 1024.95 651.046C1026.57 651.046 1028.05 650.455 1029.23 649.274C1030.41 648.092 1031 646.615 1031 644.99C1031 639.819 1031 631.99 1031 626.524Z" fill="#142664"/>
<path d="M1031 596.09C1031 594.465 1030.41 592.988 1029.23 591.806C1028.05 590.624 1026.57 590.033 1024.95 590.033C1007.09 590.033 954.39 590.033 936.529 590.033C934.905 590.033 933.429 590.624 932.248 591.806C931.067 592.988 930.477 594.465 930.477 596.09C930.477 601.408 930.477 609.238 930.477 614.556C930.477 616.181 931.067 617.658 932.248 618.84C933.429 620.022 934.905 620.613 936.529 620.613C954.39 620.613 1007.09 620.613 1024.95 620.613C1026.57 620.613 1028.05 620.022 1029.23 618.84C1030.41 617.658 1031 616.181 1031 614.556C1031 609.238 1031 601.408 1031 596.09Z" fill="#142664"/>
<path d="M1031 565.658C1031 564.033 1030.41 562.556 1029.23 561.374C1028.05 560.192 1026.57 559.602 1024.95 559.602C1007.09 559.602 954.39 559.602 936.529 559.602C934.905 559.602 933.429 560.192 932.248 561.374C931.067 562.556 930.477 564.033 930.477 565.658C930.477 570.977 930.477 578.806 930.477 584.124C930.477 585.749 931.067 587.227 932.248 588.408C933.429 589.59 934.905 590.181 936.529 590.181C954.39 590.181 1007.09 590.181 1024.95 590.181C1026.57 590.181 1028.05 589.59 1029.23 588.408C1030.41 587.227 1031 585.749 1031 584.124C1031 578.806 1031 570.977 1031 565.658Z" fill="#142664"/>
<path d="M935.938 622.83C935.938 622.83 945.533 623.126 958.375 623.421C965.165 623.569 972.989 623.717 980.812 623.717C985.388 623.717 989.964 623.717 994.245 623.569C1011.37 623.274 1025.69 622.83 1025.69 622.83C1027.01 622.83 1028.05 621.796 1028.05 620.467C1028.05 619.137 1027.01 618.103 1025.69 618.103C1025.69 618.103 1011.52 617.66 994.245 617.365C989.816 617.365 985.388 617.217 980.812 617.217C972.989 617.217 965.313 617.365 958.375 617.512C945.533 617.808 935.938 618.103 935.938 618.103C934.61 618.103 933.577 619.137 933.577 620.467C933.724 621.944 934.758 622.83 935.938 622.83Z" fill="#FF2E93"/>
<path d="M935.938 592.397C935.938 592.397 945.533 592.692 958.375 592.988C965.165 593.135 972.989 593.283 980.812 593.283C985.388 593.283 989.964 593.283 994.245 593.135C1011.37 592.84 1025.69 592.397 1025.69 592.397C1027.01 592.397 1028.05 591.363 1028.05 590.033C1028.05 588.704 1027.01 587.67 1025.69 587.67C1025.69 587.67 1011.52 587.226 994.245 586.931C989.816 586.931 985.388 586.783 980.812 586.783C972.989 586.783 965.313 586.931 958.375 587.079C945.533 587.374 935.938 587.67 935.938 587.67C934.61 587.67 933.577 588.704 933.577 590.033C933.724 591.363 934.758 592.397 935.938 592.397Z" fill="#FF2E93"/>
<path d="M907.893 561.228C907.893 561.228 901.693 560.933 893.279 560.637C888.851 560.49 883.684 560.342 878.666 560.342C875.714 560.342 872.761 560.342 869.957 560.49C858.738 560.785 849.586 561.228 849.586 561.228C848.258 561.228 847.225 562.262 847.225 563.592C847.225 564.921 848.258 565.955 849.586 565.955C849.586 565.955 858.886 566.399 869.957 566.694C872.761 566.694 875.714 566.842 878.666 566.842C883.684 566.842 888.851 566.694 893.279 566.546C901.693 566.251 907.893 565.955 907.893 565.955C909.221 565.955 910.254 564.921 910.254 563.592C910.254 562.262 909.221 561.228 907.893 561.228Z" fill="#FF2E93"/>
<path d="M928.263 620.465C928.263 620.465 927.967 623.715 927.672 627.999C927.525 630.363 927.377 633.022 927.377 635.533C927.377 637.011 927.377 638.636 927.525 640.113C927.82 645.874 928.263 650.749 928.263 650.749C928.263 652.079 929.296 653.113 930.624 653.113C931.953 653.113 932.986 652.079 932.986 650.749C932.986 650.749 933.429 645.874 933.724 640.113C933.724 638.636 933.872 637.158 933.872 635.533C933.872 632.874 933.724 630.215 933.577 627.999C933.281 623.567 932.986 620.465 932.986 620.465C932.986 619.136 931.953 618.102 930.624 618.102C929.296 618.102 928.263 619.136 928.263 620.465Z" fill="#FF2E93"/>
<path d="M802.203 504.057C826.264 490.17 856.967 498.443 870.842 522.523C884.718 546.602 876.451 577.33 852.391 591.216C828.33 605.102 797.627 596.83 783.752 572.75C770.024 548.67 778.29 517.943 802.203 504.057Z" fill="#142664"/>
<path d="M808.55 514.989C826.559 504.648 849.438 510.705 859.919 528.727C870.251 546.75 864.052 569.648 846.191 580.137C828.182 590.477 805.303 584.273 794.822 566.398C784.49 548.375 790.689 525.33 808.55 514.989Z" fill="#FF2E93"/>
<path d="M819.916 527.102L817.85 523.704C816.964 522.227 817.555 520.307 819.031 519.42C820.507 518.534 822.426 519.125 823.311 520.602L825.526 524.295C826.706 524 828.035 524 829.216 524.295C831.135 524.886 832.759 526.068 833.792 527.841C834.677 529.318 835.563 530.943 836.301 532.125C837.334 533.898 837.63 535.966 837.039 537.886L835.711 542.761L840.582 544.091C842.501 544.682 844.125 545.864 845.158 547.636C845.896 548.818 846.782 550.443 847.667 551.92C848.701 553.693 848.996 555.761 848.405 557.682C848.11 558.864 847.52 560.045 846.634 560.932L848.848 564.625C849.734 566.102 849.143 568.023 847.667 568.909C846.191 569.795 844.272 569.204 843.387 567.727L841.32 564.329L837.187 566.693L839.253 570.091C840.139 571.568 839.549 573.489 838.073 574.375C836.596 575.261 834.677 574.67 833.792 573.193L831.725 569.795L824.935 573.784C823.459 574.67 821.54 574.079 820.654 572.602C819.769 571.125 820.359 569.204 821.835 568.318L825.968 565.954L810.765 539.511L806.631 541.875C805.155 542.761 803.236 542.17 802.351 540.693C801.465 539.216 802.055 537.295 803.532 536.409L810.322 532.42L808.255 529.023C807.369 527.545 807.96 525.625 809.436 524.739C810.912 523.852 812.831 524.443 813.717 525.92L815.783 529.318L819.916 527.102ZM832.168 548.375L825.23 552.364L831.282 562.852L841.615 556.943C841.91 556.795 842.206 556.5 842.206 556.057C842.353 555.761 842.206 555.318 842.058 555.023C841.172 553.545 840.287 551.92 839.549 550.739C839.401 550.443 839.106 550.148 838.663 550.148L832.168 548.375ZM822.131 547.045L829.068 543.057L830.84 536.409C830.987 536.114 830.84 535.67 830.692 535.375C829.954 534.193 829.068 532.568 828.183 531.091C828.035 530.795 827.74 530.5 827.297 530.5C827.002 530.352 826.559 530.5 826.264 530.648L815.931 536.557L822.131 547.045Z" fill="#142664"/>
<path d="M785.523 626.375C785.523 624.75 784.933 623.273 783.752 622.091C782.571 620.909 781.095 620.318 779.471 620.318C761.61 620.318 708.913 620.318 691.052 620.318C689.428 620.318 687.952 620.909 686.771 622.091C685.59 623.273 685 624.75 685 626.375C685 631.693 685 639.523 685 644.841C685 646.466 685.59 647.943 686.771 649.125C687.952 650.307 689.428 650.898 691.052 650.898C708.913 650.898 761.61 650.898 779.471 650.898C781.095 650.898 782.571 650.307 783.752 649.125C784.933 647.943 785.523 646.466 785.523 644.841C785.523 639.523 785.523 631.693 785.523 626.375Z" fill="#142664"/>
<path d="M785.523 595.795C785.523 594.17 784.933 592.693 783.752 591.511C782.571 590.329 781.095 589.738 779.471 589.738C761.61 589.738 708.913 589.738 691.052 589.738C689.428 589.738 687.952 590.329 686.771 591.511C685.59 592.693 685 594.17 685 595.795C685 601.113 685 608.943 685 614.261C685 615.886 685.59 617.363 686.771 618.545C687.952 619.727 689.428 620.318 691.052 620.318C708.913 620.318 761.61 620.318 779.471 620.318C781.095 620.318 782.571 619.727 783.752 618.545C784.933 617.363 785.523 615.886 785.523 614.261C785.523 608.943 785.523 601.261 785.523 595.795Z" fill="#142664"/>
<path d="M785.523 565.363C785.523 563.738 784.933 562.261 783.752 561.079C782.571 559.898 781.095 559.307 779.471 559.307C761.61 559.307 708.913 559.307 691.052 559.307C689.428 559.307 687.952 559.898 686.771 561.079C685.59 562.261 685 563.738 685 565.363C685 570.682 685 578.511 685 583.829C685 585.454 685.59 586.932 686.771 588.113C687.952 589.295 689.428 589.886 691.052 589.886C708.913 589.886 761.61 589.886 779.471 589.886C781.095 589.886 782.571 589.295 783.752 588.113C784.933 586.932 785.523 585.454 785.523 583.829C785.523 578.511 785.523 570.682 785.523 565.363Z" fill="#142664"/>
<path d="M690.461 622.682C690.461 622.682 700.056 622.977 712.898 623.273C719.688 623.421 727.512 623.568 735.335 623.568C739.911 623.568 744.487 623.568 748.768 623.421C765.891 623.125 780.209 622.682 780.209 622.682C781.537 622.682 782.571 621.648 782.571 620.318C782.571 618.989 781.537 617.955 780.209 617.955C780.209 617.955 766.038 617.512 748.768 617.216C744.339 617.216 739.911 617.068 735.335 617.068C727.512 617.068 719.836 617.216 712.898 617.364C700.056 617.659 690.461 617.955 690.461 617.955C689.133 617.955 688.1 618.989 688.1 620.318C688.1 621.648 689.133 622.682 690.461 622.682Z" fill="#FF2E93"/>
<path d="M690.461 592.102C690.461 592.102 700.056 592.397 712.898 592.693C719.688 592.841 727.512 592.988 735.335 592.988C739.911 592.988 744.487 592.988 748.768 592.841C765.891 592.545 780.209 592.102 780.209 592.102C781.537 592.102 782.571 591.068 782.571 589.738C782.571 588.409 781.537 587.375 780.209 587.375C780.209 587.375 766.038 586.931 748.768 586.636C744.339 586.636 739.911 586.488 735.335 586.488C727.512 586.488 719.836 586.636 712.898 586.784C700.056 587.079 690.461 587.375 690.461 587.375C689.133 587.375 688.1 588.409 688.1 589.738C688.1 591.068 689.133 592.102 690.461 592.102Z" fill="#FF2E93"/>
<path d="M851.358 642.477C851.358 640.852 850.767 639.374 849.586 638.193C848.405 637.011 846.929 636.42 845.305 636.42C827.445 636.42 774.747 636.42 756.887 636.42C755.263 636.42 753.787 637.011 752.606 638.193C751.425 639.374 750.834 640.852 750.834 642.477C750.834 647.795 750.834 655.624 750.834 660.943C750.834 662.568 751.425 664.045 752.606 665.227C753.787 666.409 755.263 666.999 756.887 666.999C774.747 666.999 827.445 666.999 845.305 666.999C846.929 666.999 848.405 666.409 849.586 665.227C850.767 664.045 851.358 662.568 851.358 660.943C851.358 655.624 851.358 647.795 851.358 642.477Z" fill="#142664"/>
<path d="M851.358 612.045C851.358 610.42 850.767 608.943 849.586 607.761C848.405 606.579 846.929 605.988 845.305 605.988C827.445 605.988 774.747 605.988 756.887 605.988C755.263 605.988 753.787 606.579 752.606 607.761C751.425 608.943 750.834 610.42 750.834 612.045C750.834 617.363 750.834 625.193 750.834 630.511C750.834 632.136 751.425 633.613 752.606 634.795C753.787 635.977 755.263 636.568 756.887 636.568C774.747 636.568 827.445 636.568 845.305 636.568C846.929 636.568 848.405 635.977 849.586 634.795C850.767 633.613 851.358 632.136 851.358 630.511C851.358 625.193 851.358 617.363 851.358 612.045Z" fill="#142664"/>
<path d="M851.358 581.465C851.358 579.84 850.767 578.363 849.586 577.181C848.405 575.999 846.929 575.408 845.305 575.408C827.445 575.408 774.747 575.408 756.887 575.408C755.263 575.408 753.787 575.999 752.606 577.181C751.425 578.363 750.834 579.84 750.834 581.465C750.834 586.783 750.834 594.613 750.834 599.931C750.834 601.556 751.425 603.033 752.606 604.215C753.787 605.397 755.263 605.988 756.887 605.988C774.747 605.988 827.445 605.988 845.305 605.988C846.929 605.988 848.405 605.397 849.586 604.215C850.767 603.033 851.358 601.556 851.358 599.931C851.358 594.76 851.358 586.931 851.358 581.465Z" fill="#142664"/>
<path d="M756.296 638.784C756.296 638.784 765.891 639.079 778.733 639.374C785.523 639.522 793.346 639.67 801.17 639.67C805.746 639.67 810.321 639.67 814.602 639.522C831.725 639.227 846.043 638.784 846.043 638.784C847.372 638.784 848.405 637.749 848.405 636.42C848.405 635.09 847.372 634.056 846.043 634.056C846.043 634.056 831.873 633.613 814.602 633.318C810.174 633.318 805.746 633.17 801.17 633.17C793.346 633.17 785.67 633.318 778.733 633.465C765.891 633.761 756.296 634.056 756.296 634.056C754.967 634.056 753.934 635.09 753.934 636.42C753.934 637.749 754.967 638.784 756.296 638.784Z" fill="#FF2E93"/>
<path d="M756.296 608.352C756.296 608.352 765.891 608.647 778.733 608.943C785.523 609.091 793.346 609.238 801.17 609.238C805.746 609.238 810.321 609.238 814.602 609.091C831.725 608.795 846.043 608.352 846.043 608.352C847.372 608.352 848.405 607.318 848.405 605.988C848.405 604.659 847.372 603.625 846.043 603.625C846.043 603.625 831.873 603.181 814.602 602.886C810.174 602.886 805.746 602.738 801.17 602.738C793.346 602.738 785.67 602.886 778.733 603.034C765.891 603.329 756.296 603.625 756.296 603.625C754.967 603.625 753.934 604.659 753.934 605.988C753.934 607.318 754.967 608.352 756.296 608.352Z" fill="#FF2E93"/>
<path d="M938.743 620.466C966.461 620.466 988.931 597.979 988.931 570.239C988.931 542.499 966.461 520.012 938.743 520.012C911.025 520.012 888.556 542.499 888.556 570.239C888.556 597.979 911.025 620.466 938.743 620.466Z" fill="#142664"/>
<path d="M938.743 607.909C959.532 607.909 976.384 591.044 976.384 570.239C976.384 549.434 959.532 532.568 938.743 532.568C917.955 532.568 901.103 549.434 901.103 570.239C901.103 591.044 917.955 607.909 938.743 607.909Z" fill="#FF2E93"/>
<path d="M942.433 548.671V544.682C942.433 542.91 943.762 541.58 945.533 541.58C947.305 541.58 948.633 542.91 948.633 544.682V548.966C949.814 549.262 950.847 550.001 951.733 550.887C953.209 552.364 953.947 554.285 953.947 556.205C953.947 557.978 953.947 559.751 953.947 561.08C953.947 563.148 953.209 565.069 951.733 566.398L948.19 569.944L951.733 573.489C953.209 574.966 953.947 576.887 953.947 578.807C953.947 580.137 953.947 582.057 953.947 583.682C953.947 585.751 953.209 587.671 951.733 589.001C950.847 589.887 949.814 590.478 948.633 590.921V595.205C948.633 596.978 947.305 598.307 945.533 598.307C943.762 598.307 942.433 596.978 942.433 595.205V591.216H937.562V595.205C937.562 596.978 936.234 598.307 934.462 598.307C932.691 598.307 931.363 596.978 931.363 595.205V591.216H923.539C921.768 591.216 920.439 589.887 920.439 588.114C920.439 586.341 921.768 585.012 923.539 585.012H928.263V554.876H923.539C921.768 554.876 920.439 553.546 920.439 551.773C920.439 550.001 921.768 548.671 923.539 548.671H931.51V544.682C931.51 542.91 932.839 541.58 934.61 541.58C936.381 541.58 937.71 542.91 937.71 544.682V548.671H942.433ZM942.581 573.341H934.462V585.455H946.419C946.862 585.455 947.157 585.307 947.452 585.012C947.747 584.716 947.895 584.421 947.895 583.978C947.895 582.205 947.895 580.432 947.895 579.103C947.895 578.66 947.747 578.364 947.452 578.069L942.581 573.341ZM934.61 567.137H942.729L947.6 562.262C947.895 561.966 948.043 561.671 948.043 561.228C948.043 559.898 948.043 557.978 948.043 556.353C948.043 555.91 947.895 555.614 947.6 555.319C947.305 555.023 947.009 554.876 946.567 554.876H934.61V567.137Z" fill="#142664"/>
<path d="M984.207 557.385C985.388 561.522 985.979 565.806 985.979 570.238C985.979 596.238 964.87 617.363 938.891 617.363C912.911 617.363 891.803 596.238 891.803 570.238C891.803 544.238 912.911 523.113 938.891 523.113C944.648 523.113 949.962 524.147 955.128 525.92C956.752 526.51 958.523 525.624 959.114 524.147C959.704 522.522 958.818 520.749 957.342 520.158C951.585 518.09 945.386 516.908 939.039 516.908C909.664 516.908 885.751 540.84 885.751 570.238C885.751 599.635 909.664 623.567 939.039 623.567C968.413 623.567 992.326 599.635 992.326 570.238C992.326 565.215 991.588 560.34 990.26 555.76C989.817 554.135 988.045 553.101 986.422 553.692C984.65 553.988 983.765 555.76 984.207 557.385Z" fill="#FF2E93"/>
<path d="M864.643 518.681C865.971 520.306 867.152 522.079 868.185 523.999C881.175 546.602 873.499 575.409 850.915 588.409C849.439 589.295 848.996 591.215 849.734 592.693C850.62 594.17 852.539 594.613 854.015 593.874C879.551 579.102 888.26 546.454 873.499 521.045C872.318 518.977 870.99 516.909 869.514 514.988C868.48 513.659 866.562 513.363 865.233 514.397C863.905 515.431 863.609 517.352 864.643 518.681Z" fill="#FF2E93"/>
<path d="M775.928 561.967C777.257 566.694 779.323 571.421 781.98 575.557C782.866 577.035 784.785 577.478 786.261 576.592C787.737 575.705 788.18 573.785 787.294 572.307C784.933 568.467 783.161 564.478 781.98 560.194C781.537 558.569 779.766 557.535 778.142 557.978C776.371 558.569 775.485 560.342 775.928 561.967Z" fill="#FF2E93"/>
<path d="M853.277 577.92C852.834 576.738 852.096 575.851 851.21 574.965C850.324 574.079 849.291 573.34 848.258 572.897C847.077 572.454 845.896 572.158 844.715 572.158C837.335 572.158 824.197 572.158 810.027 572.158C807.102 572.18 804.137 572.203 801.17 572.225C798.203 572.203 795.236 572.18 792.313 572.158C778.143 572.158 765.005 572.158 757.625 572.158C756.444 572.158 755.263 572.454 754.082 572.897C753.049 573.34 752.015 574.079 751.13 574.965C750.244 575.851 749.506 576.738 749.063 577.92C748.62 579.101 748.325 580.283 748.325 581.465L749.063 664.783C749.063 665.965 750.097 666.999 750.835 666.999C752.163 666.999 753.196 665.965 753.196 664.635L753.934 581.317C753.934 580.874 754.082 580.579 754.23 580.135C754.377 579.692 754.672 579.397 754.968 579.101C755.263 578.806 755.558 578.51 756.001 578.363C756.296 578.215 756.739 578.067 757.182 578.067C764.562 578.067 777.7 578.067 791.87 578.067C794.939 578.044 798.055 578.021 801.17 577.998C804.284 578.021 807.401 578.044 810.469 578.067C824.64 578.067 837.777 578.067 845.158 578.067C845.601 578.067 846.044 578.215 846.339 578.363C846.782 578.51 847.077 578.806 847.372 579.101C847.667 579.397 847.963 579.692 848.11 580.135C848.258 580.579 848.405 580.874 848.405 581.317L849.143 664.635C849.143 665.965 850.177 666.999 851.505 666.999C852.243 666.999 853.277 665.965 853.277 664.783L854.015 581.465C854.015 580.283 853.719 579.101 853.277 577.92Z" fill="#FF2E93"/>
</svg>
