<svg width="800" height="600" viewBox="0 0 800 600" fill="none" xmlns="http://www.w3.org/2000/svg">
<g clip-path="url(#clip0)">
<path d="M320.344 537.503L360.078 389.819L399.812 537.503L407.52 535.441L360.078 359.105L312.636 535.441L320.344 537.503Z" fill="white"/>
<path d="M320.344 538.001C320.431 538.001 320.516 537.979 320.593 537.934C320.708 537.869 320.792 537.76 320.826 537.632L360.078 391.739L399.331 537.633C399.364 537.76 399.448 537.869 399.563 537.935C399.678 538.002 399.814 538.018 399.941 537.985L407.65 535.923C407.916 535.851 408.074 535.578 408.003 535.314L360.56 358.977C360.443 358.541 359.713 358.541 359.596 358.977L312.154 535.313C312.082 535.578 312.24 535.851 312.507 535.922L320.216 537.984C320.257 537.995 320.301 538.001 320.344 538.001ZM406.909 535.09L400.165 536.895L360.559 389.69C360.442 389.255 359.712 389.255 359.595 389.69L319.991 536.895L313.246 535.09L360.078 361.026L406.909 535.09Z" fill="#1D2445"/>
<path d="M348.939 367.84H371.217V387.586H348.939V367.84Z" fill="white"/>
<path d="M348.94 388.083H371.217C371.493 388.083 371.716 387.86 371.716 387.585V367.839C371.716 367.565 371.493 367.342 371.217 367.342H348.94C348.664 367.342 348.441 367.565 348.441 367.839V387.585C348.441 387.86 348.663 388.083 348.94 388.083ZM370.718 387.088H349.437V368.337H370.718V387.088Z" fill="#1D2445"/>
<path d="M348.939 366.846H371.217V376.644H348.939V366.846Z" fill="#1D2445"/>
<path d="M348.94 377.141H371.217C371.493 377.141 371.716 376.918 371.716 376.643V366.845C371.716 366.57 371.493 366.348 371.217 366.348H348.94C348.664 366.348 348.441 366.57 348.441 366.845V376.643C348.441 376.918 348.663 377.141 348.94 377.141ZM370.718 376.146H349.437V367.342H370.718V376.146Z" fill="#1D2445"/>
<path d="M311.498 355.498H727.344V372.776H311.498V355.498Z" fill="white"/>
<path d="M311.497 373.273H727.343C727.619 373.273 727.842 373.05 727.842 372.776V355.497C727.842 355.223 727.619 355 727.343 355H311.497C311.222 355 310.999 355.223 310.999 355.497V372.776C310.999 373.051 311.222 373.273 311.497 373.273ZM726.844 372.278H311.996V355.995H726.844V372.278Z" fill="#1D2445"/>
</g>
<g clip-path="url(#clip1)">
<path d="M641.656 538.503L601.922 390.819L562.188 538.503L554.48 536.441L601.922 360.105L649.364 536.441L641.656 538.503Z" fill="white"/>
<path d="M641.656 539.001C641.569 539.001 641.484 538.979 641.407 538.934C641.292 538.869 641.208 538.76 641.174 538.632L601.922 392.739L562.669 538.633C562.636 538.76 562.552 538.869 562.437 538.935C562.322 539.002 562.186 539.018 562.059 538.985L554.35 536.923C554.084 536.851 553.926 536.578 553.997 536.314L601.44 359.977C601.557 359.541 602.287 359.541 602.404 359.977L649.846 536.313C649.918 536.578 649.76 536.851 649.493 536.922L641.784 538.984C641.743 538.995 641.699 539.001 641.656 539.001ZM555.091 536.09L561.835 537.895L601.441 390.69C601.558 390.255 602.288 390.255 602.405 390.69L642.009 537.895L648.754 536.09L601.922 362.026L555.091 536.09Z" fill="#1D2445"/>
<path d="M613.061 368.84H590.783V388.586H613.061V368.84Z" fill="white"/>
<path d="M613.06 389.083H590.783C590.507 389.083 590.284 388.86 590.284 388.585V368.839C590.284 368.565 590.507 368.342 590.783 368.342H613.06C613.336 368.342 613.559 368.565 613.559 368.839V388.585C613.559 388.86 613.337 389.083 613.06 389.083ZM591.282 388.088H612.563V369.337H591.282V388.088Z" fill="#1D2445"/>
<path d="M613.061 367.846H590.783V377.644H613.061V367.846Z" fill="#1D2445"/>
<path d="M613.06 378.141H590.783C590.507 378.141 590.284 377.918 590.284 377.643V367.845C590.284 367.57 590.507 367.348 590.783 367.348H613.06C613.336 367.348 613.559 367.57 613.559 367.845V377.643C613.559 377.918 613.337 378.141 613.06 378.141ZM591.282 377.146H612.563V368.342H591.282V377.146Z" fill="#1D2445"/>
<path d="M650.502 356.498H234.656V373.776H650.502V356.498Z" fill="white"/>
<path d="M650.503 374.273H234.657C234.381 374.273 234.158 374.05 234.158 373.776V356.497C234.158 356.223 234.381 356 234.657 356H650.503C650.778 356 651.001 356.223 651.001 356.497V373.776C651.001 374.051 650.778 374.273 650.503 374.273ZM235.156 373.278H650.004V356.995H235.156V373.278Z" fill="#1D2445"/>
</g>
<g clip-path="url(#clip2)">
<path d="M879.616 41.3828H320.384V294.616H879.616V41.3828Z" fill="white"/>
<path d="M879.616 295H320.384C320.172 295 320 294.828 320 294.617V41.3835C320 41.1718 320.172 41 320.384 41H879.616C879.828 41 880 41.1718 880 41.3835V294.617C880 294.829 879.829 295 879.616 295ZM320.768 294.233H879.232V41.7669H320.768V294.233Z" fill="#1D2445"/>
</g>
<path d="M516.585 252.643H504.498V279.505H516.585V252.643Z" fill="#1D2445"/>
<path d="M516.584 280H504.498C504.223 280 504 279.778 504 279.505V252.643C504 252.37 504.223 252.148 504.498 252.148H516.584C516.859 252.148 517.082 252.37 517.082 252.643V279.505C517.082 279.778 516.86 280 516.584 280ZM504.996 279.01H516.086V253.138H504.996V279.01Z" fill="#1D2445"/>
<path d="M533.565 252.643H521.477V279.505H533.565V252.643Z" fill="#1D2445"/>
<path d="M533.564 280H521.477C521.202 280 520.979 279.778 520.979 279.505V252.643C520.979 252.37 521.202 252.148 521.477 252.148H533.564C533.839 252.148 534.062 252.37 534.062 252.643V279.505C534.062 279.778 533.84 280 533.564 280ZM521.975 279.01H533.066V253.138H521.975V279.01Z" fill="#1D2445"/>
<path d="M550.544 248.07H538.456V279.505H550.544V248.07Z" fill="#1D2445"/>
<path d="M550.544 280H538.456C538.181 280 537.958 279.778 537.958 279.505V248.071C537.958 247.798 538.181 247.576 538.456 247.576H550.544C550.819 247.576 551.042 247.798 551.042 248.071V279.505C551.042 279.778 550.819 280 550.544 280ZM538.954 279.011H550.046V248.565H538.954V279.011Z" fill="#1D2445"/>
<path d="M567.523 234.926H555.436V279.506H567.523V234.926Z" fill="#1D2445"/>
<path d="M567.523 280.001H555.436C555.161 280.001 554.938 279.779 554.938 279.506V234.926C554.938 234.653 555.161 234.432 555.436 234.432H567.522C567.797 234.432 568.02 234.653 568.02 234.926V279.506C568.021 279.779 567.798 280.001 567.523 280.001ZM555.934 279.011H567.024V235.421H555.934V279.011Z" fill="#1D2445"/>
<path d="M584.502 223.494H572.415V279.505H584.502V223.494Z" fill="#1D2445"/>
<path d="M584.502 280H572.415C572.14 280 571.917 279.778 571.917 279.505V223.495C571.917 223.222 572.14 223 572.415 223H584.502C584.777 223 585 223.222 585 223.495V279.505C585 279.778 584.777 280 584.502 280ZM572.913 279.011H584.004V223.989H572.913V279.011Z" fill="#1D2445"/>
<g clip-path="url(#clip3)">
<path d="M254.625 295.687C251.148 292.37 246.207 291.077 241.48 291.898L191.376 300.604C186.65 301.425 182.435 304.304 180.277 308.597C178.22 312.69 178.159 317.403 180.116 321.559L205.642 375.767L212.261 413.86C212.56 415.584 214.197 416.74 215.918 416.441L256.407 409.406C258.701 409.008 260.236 406.82 259.837 404.521L253.399 367.47L259.144 307.828C259.582 303.259 257.937 298.845 254.625 295.687Z" fill="white"/>
<path d="M256.497 409.928L216.007 416.963C214.003 417.311 212.09 415.96 211.74 413.951L205.134 375.929L179.64 321.785C177.617 317.489 177.678 312.596 179.807 308.361C181.973 304.049 186.263 300.957 191.286 300.084L241.389 291.379C246.412 290.506 251.497 291.973 254.989 295.305C258.417 298.574 260.122 303.158 259.668 307.879L253.93 367.451L260.355 404.432C260.804 407.014 259.073 409.48 256.497 409.928ZM191.467 301.125C186.772 301.941 182.765 304.823 180.748 308.836C178.766 312.779 178.71 317.334 180.593 321.334L206.119 375.543C206.139 375.585 206.153 375.631 206.161 375.678L212.78 413.77C213.029 415.206 214.397 416.17 215.827 415.921L256.317 408.887C258.321 408.538 259.667 406.621 259.318 404.612L252.88 367.561C252.872 367.514 252.87 367.466 252.875 367.419L258.619 307.777C259.042 303.381 257.454 299.113 254.264 296.07C251.011 292.968 246.266 291.604 241.569 292.42L191.467 301.125Z" fill="#1D2445"/>
</g>
<g clip-path="url(#clip4)">
<path d="M195.51 273.4L159.137 289.216C157.363 289.987 155.304 289.652 153.867 288.358L150.836 284.705C147.035 280.123 148.067 273.257 153.046 269.993L153.778 269.513C154.564 268.998 155.459 268.674 156.393 268.566L187.248 265L195.51 273.4Z" fill="#C78982"/>
<path d="M224.872 259.596C224.872 259.596 224.871 259.59 224.871 259.585C224.882 259.319 224.679 259.092 224.412 259.075L215.496 258.605C214.537 258.553 213.578 258.717 212.688 259.081L208.775 260.643L206.33 259.705C205.477 259.372 204.53 259.375 203.679 259.702L196.315 262.5L196.255 262.523C195.994 262.612 195.738 262.689 195.473 262.751L195.479 262.761L179.596 267.02L191.428 272.958C193.674 275.049 195.31 275.012 197.502 274.979L201.352 274.912C202.744 274.85 204.091 274.415 205.258 273.656C205.969 273.181 206.743 272.813 207.561 272.556C209.867 271.807 213.475 270.552 213.475 270.552C214.062 270.293 214.403 269.688 214.338 269.059L214.323 268.92C214.179 268.147 213.444 267.638 212.669 267.775C211.888 267.909 207.222 268.652 205.761 268.858C205.755 268.859 205.75 268.859 205.75 268.859C205.511 268.884 205.283 268.761 205.176 268.548C205.07 268.339 205.116 268.087 205.285 267.922L206.616 266.638L214.987 262.043L223.132 261.309C224.037 261.225 224.763 260.523 224.871 259.622L224.872 259.596Z" fill="white"/>
<path d="M196.695 275.488C194.913 275.488 193.264 275.328 191.142 273.375L179.372 267.469C179.188 267.375 179.079 267.177 179.1 266.972C179.121 266.766 179.267 266.595 179.467 266.54L195.251 262.308C195.285 262.29 195.321 262.277 195.359 262.268C195.608 262.209 195.848 262.136 196.094 262.052L203.502 259.236C204.467 258.867 205.554 258.866 206.512 259.241L208.771 260.107L212.503 258.619C213.463 258.225 214.487 258.048 215.523 258.107L224.438 258.578C224.976 258.611 225.393 259.073 225.37 259.607C225.232 260.811 224.311 261.705 223.176 261.81L215.133 262.534L206.914 267.047L205.631 268.283L205.688 268.366C207.164 268.161 211.837 267.415 212.585 267.286C213.618 267.102 214.624 267.808 214.814 268.831L214.834 269.01C214.924 269.861 214.459 270.666 213.677 271.012C213.638 271.028 210.025 272.282 207.716 273.033C206.935 273.277 206.203 273.627 205.536 274.072C204.287 274.884 202.85 275.347 201.374 275.413L197.51 275.479C197.205 275.484 196.947 275.488 196.695 275.488ZM180.992 267.164L191.653 272.514C191.695 272.535 191.735 272.563 191.769 272.595C193.939 274.616 195.47 274.509 197.457 274.483L201.344 274.416C202.628 274.358 203.892 273.952 204.986 273.24C205.727 272.744 206.545 272.353 207.412 272.082C209.709 271.335 213.312 270.084 213.312 270.084C213.657 269.929 213.886 269.533 213.842 269.114L213.827 268.973C213.741 268.524 213.266 268.177 212.756 268.269C212.002 268.398 207.309 269.148 205.83 269.355L205.688 269.364C205.279 269.364 204.911 269.137 204.73 268.773C204.526 268.374 204.609 267.887 204.936 267.567L206.269 266.282C206.301 266.251 206.336 266.224 206.374 266.203L214.745 261.609C214.806 261.576 214.872 261.555 214.941 261.549L223.086 260.816C223.747 260.754 224.284 260.24 224.373 259.59C224.373 259.581 224.373 259.572 224.373 259.565L215.47 259.104C214.578 259.055 213.704 259.205 212.877 259.544L208.96 261.106C208.843 261.154 208.713 261.155 208.596 261.109L206.151 260.172C205.418 259.886 204.595 259.886 203.859 260.169L196.493 262.968C196.184 263.076 195.938 263.153 195.694 263.214C195.667 263.227 195.639 263.237 195.609 263.246L180.992 267.164Z" fill="#1D2445"/>
<path d="M352.654 381.17L270.576 369.699V402.599C270.576 405.923 273.272 408.617 276.599 408.617H350.411C357.146 408.617 362.606 403.162 362.606 396.434V392.676C362.607 386.903 358.369 382.006 352.654 381.17Z" fill="#1D2445"/>
<path d="M329.826 408.594L328.745 432.35C328.717 432.973 328.727 433.598 328.776 434.22L332.345 479.799L333.899 498.376L352.309 496.398L361.366 422.956C361.601 421.771 363.181 394.487 362.069 394.959L329.826 408.594Z" fill="#1D2445"/>
<path d="M358.71 400.129L383.03 423.568L404.886 447.564L406.071 448.74C406.071 448.74 409.68 446.205 412.706 444.425C414.041 443.641 424.647 438.196 424.805 438.115L422.581 435.433L381.223 375.526L361.955 352.755C360.345 350.977 358.514 350.735 356.444 351.948L338.254 362.598L355.067 395.235C356.005 397.054 357.236 398.706 358.71 400.129Z" fill="#1D2445"/>
<path d="M261.96 366.499L348.414 347.58C355.422 346.047 362.367 350.405 364.027 357.378L367.75 373.012L300.737 405.096C292.729 408.007 284.144 408.997 272.173 408.49L262.734 408.219C254.535 407.984 248.038 401.226 248.131 393.032L248.4 369.377L261.96 366.499Z" fill="#1D2445"/>
<path d="M299.489 358.145L258.302 309.717C257.033 308.142 255.469 306.866 253.723 305.929L250.485 267.641C249.917 260.916 244.28 255.751 237.525 255.764L227.712 255.781L229.9 301.538L203.632 297.641C201.992 297.533 200.423 297.69 198.95 298.061L177.475 281.243L195.51 273.401L187.248 265L156.029 268.609C155.335 268.689 154.67 268.93 154.086 269.313L152.969 270.044C151.932 270.725 151.078 271.569 150.394 272.511C146.697 276.493 146.307 283.038 150.582 287.392L188.244 325.741L195.318 332.844L200.209 343.752C203.219 350.467 207.521 356.525 212.87 361.582L247.671 394.484L248.191 394.944L252.777 385.524C256.324 379.299 261.994 374.557 268.752 372.165L299.595 358.289L299.489 358.145Z" fill="white"/>
<path d="M248.191 395.444C248.07 395.444 247.952 395.4 247.859 395.318L247.34 394.858L212.527 361.946C207.101 356.816 202.805 350.764 199.753 343.958L194.9 333.131L187.89 326.092L150.226 287.742C146.002 283.44 145.915 276.602 150.027 272.171C150.742 271.181 151.652 270.31 152.696 269.627L153.811 268.895C154.457 268.472 155.205 268.202 155.972 268.113L187.191 264.504C187.345 264.487 187.497 264.541 187.605 264.649L195.866 273.05C195.981 273.167 196.031 273.334 195.999 273.495C195.968 273.656 195.86 273.792 195.709 273.857L178.44 281.366L199.066 297.517C200.565 297.166 202.096 297.038 203.664 297.142L229.37 300.954L227.211 255.803C227.205 255.667 227.254 255.533 227.348 255.435C227.442 255.338 227.573 255.281 227.709 255.281L237.522 255.264C244.496 255.264 250.396 260.682 250.98 267.597L254.196 305.617C255.939 306.592 257.449 307.865 258.69 309.402L299.995 357.992C300.085 358.113 300.115 358.268 300.077 358.415C300.038 358.56 299.936 358.681 299.798 358.743L268.955 372.619C262.274 374.985 256.696 379.649 253.208 385.769L248.637 395.162C248.569 395.302 248.438 395.402 248.286 395.432C248.256 395.441 248.224 395.444 248.191 395.444ZM187.064 265.523L156.086 269.105C155.472 269.175 154.875 269.391 154.359 269.73L153.242 270.461C152.3 271.078 151.477 271.866 150.796 272.804C147.471 276.39 146.64 282.667 150.938 287.042L188.6 325.392L195.672 332.493C195.714 332.535 195.749 332.585 195.774 332.64L200.664 343.55C203.662 350.236 207.883 356.182 213.213 361.221L248.029 394.136L252.328 385.305C255.948 378.949 261.717 374.125 268.585 371.694L298.797 358.1L257.922 310.039C256.701 308.525 255.212 307.293 253.486 306.366C253.337 306.286 253.239 306.137 253.225 305.969L249.988 267.682C249.446 261.279 243.984 256.263 237.552 256.263L228.236 256.278L230.399 301.515C230.406 301.664 230.346 301.809 230.235 301.909C230.125 302.009 229.976 302.057 229.827 302.032L203.56 298.134C203.27 298.117 202.944 298.108 202.62 298.108C201.425 298.108 200.23 298.254 199.072 298.545C198.923 298.58 198.764 298.548 198.643 298.453L177.166 281.636C177.027 281.528 176.957 281.355 176.978 281.18C177 281.005 177.113 280.857 177.274 280.786L194.644 273.233L187.064 265.523Z" fill="#1D2445"/>
<path d="M230.849 262.822L238.638 283.482C239.483 285.953 237.672 288.53 235.059 288.576L210.825 288.998L230.849 262.822Z" fill="#C78982"/>
<path d="M231.481 263.92L220.898 267.533L225.496 280.974L236.078 277.361L231.481 263.92Z" fill="#C78982"/>
<path d="M235.688 275.286L237.456 274.584C238.971 273.982 239.044 271.865 237.573 271.161L233.425 269.177L231.517 264.023C228.086 254.761 217.79 250.03 208.519 253.458L203.554 255.293C198.129 257.299 195.358 263.319 197.366 268.739L200.798 278.008L200.771 278.018H200.77L208.767 299.61L233.1 310.843C234.009 311.262 234.97 310.374 234.623 309.436L225.966 286.06L238.027 281.602L235.688 275.286Z" fill="white"/>
<path d="M233.575 311.45C233.341 311.45 233.11 311.398 232.89 311.297L208.559 300.064C208.439 300.008 208.346 299.908 208.3 299.785L200.303 278.193C200.282 278.136 200.272 278.078 200.272 278.021L196.898 268.913C194.799 263.242 197.707 256.923 203.382 254.826L208.347 252.99C210.406 252.229 212.553 251.844 214.729 251.844C222.39 251.844 229.326 256.668 231.985 263.85L233.824 268.815L237.789 270.711C238.652 271.124 239.166 271.974 239.134 272.929C239.101 273.883 238.529 274.696 237.641 275.048L236.326 275.57L238.495 281.428C238.591 281.688 238.459 281.974 238.2 282.07L226.609 286.356L235.093 309.263C235.281 309.769 235.213 310.31 234.908 310.747C234.6 311.186 234.103 311.45 233.575 311.45ZM209.165 299.244L233.31 310.39C233.593 310.524 233.913 310.424 234.087 310.176C234.155 310.078 234.253 309.875 234.156 309.609L225.498 286.234C225.403 285.974 225.534 285.688 225.793 285.592L237.385 281.306L235.219 275.459C235.125 275.204 235.251 274.922 235.503 274.821L237.272 274.119C237.793 273.912 238.116 273.454 238.135 272.893C238.15 272.459 237.953 271.896 237.357 271.61L233.21 269.626C233.093 269.57 233.002 269.471 232.957 269.35L231.048 264.196C228.533 257.404 221.974 252.841 214.728 252.841C212.671 252.841 210.64 253.205 208.693 253.925L203.728 255.761C198.569 257.668 195.926 263.412 197.834 268.566L201.268 277.835C201.288 277.89 201.299 277.946 201.299 278.002L209.165 299.244Z" fill="#1D2445"/>
<path d="M232.394 266.592L229.991 267.48C229.712 267.583 229.484 267.792 229.36 268.063L228.73 269.432" fill="white"/>
<path d="M228.729 269.931C228.659 269.931 228.588 269.916 228.522 269.885C228.271 269.771 228.161 269.474 228.277 269.224L228.907 267.855C229.087 267.461 229.41 267.163 229.818 267.011L232.221 266.123C232.479 266.027 232.766 266.16 232.862 266.418C232.958 266.677 232.826 266.964 232.567 267.059L230.164 267.947C230.009 268.006 229.884 268.121 229.815 268.271L229.185 269.641C229.1 269.824 228.919 269.931 228.729 269.931Z" fill="#1D2445"/>
<path d="M220.556 275.132L221.932 278.849C223.201 282.276 226.389 284.62 230.042 284.81C229.046 282.121 230.42 279.136 233.111 278.141L236.308 276.959L239.057 284.463C239.971 286.957 238.092 289.588 235.435 289.536L224.962 289.332C223.463 289.303 222.136 288.357 221.618 286.95L216.614 273.322C218.204 272.735 219.968 273.546 220.556 275.132Z" fill="white"/>
<path d="M235.512 290.036C235.509 290.036 235.429 290.035 235.425 290.035L224.952 289.83C223.234 289.797 221.742 288.733 221.15 287.121L216.145 273.493C216.05 273.235 216.182 272.949 216.441 272.853C216.839 272.706 217.257 272.631 217.678 272.631C219.164 272.631 220.509 273.567 221.024 274.958L222.4 278.676C223.519 281.693 226.202 283.819 229.354 284.245C228.744 281.512 230.236 278.672 232.936 277.673L236.134 276.492C236.259 276.446 236.397 276.452 236.516 276.507C236.637 276.562 236.73 276.663 236.776 276.788L239.526 284.292C240.012 285.621 239.826 287.05 239.015 288.209C238.215 289.353 236.906 290.036 235.512 290.036ZM217.271 273.662L222.087 286.778C222.536 288.001 223.668 288.807 224.971 288.833L235.444 289.039L235.511 289.538V289.04C236.594 289.04 237.573 288.529 238.196 287.64C238.819 286.749 238.961 285.656 238.588 284.636L236.011 277.602L233.283 278.61C230.856 279.508 229.611 282.211 230.51 284.637C230.569 284.795 230.544 284.971 230.444 285.106C230.344 285.242 230.184 285.33 230.016 285.309C226.16 285.108 222.804 282.641 221.463 279.024L220.087 275.306C219.67 274.175 218.46 273.475 217.271 273.662Z" fill="#1D2445"/>
<path d="M234.691 283.865L237.313 283.529C238.01 283.439 238.443 282.725 238.198 282.066L237.118 279.148L234.803 280.005C233.562 280.463 232.929 281.839 233.389 283.078C233.586 283.611 234.127 283.937 234.691 283.865Z" fill="white"/>
<path d="M234.535 284.374C233.819 284.374 233.17 283.923 232.92 283.251C232.366 281.755 233.133 280.089 234.629 279.535L236.945 278.68C237.204 278.583 237.49 278.717 237.586 278.974L238.667 281.892C238.837 282.35 238.789 282.852 238.536 283.269C238.283 283.687 237.86 283.962 237.376 284.024L234.755 284.361C234.68 284.369 234.608 284.374 234.535 284.374ZM236.823 279.789L234.975 280.471C233.996 280.833 233.493 281.925 233.856 282.904C233.972 283.216 234.298 283.416 234.627 283.371L237.249 283.035C237.429 283.012 237.586 282.909 237.681 282.753C237.775 282.598 237.793 282.41 237.73 282.239L236.823 279.789Z" fill="#1D2445"/>
<path d="M230.326 250.794L228.835 246.767C228.169 244.969 226.171 244.051 224.371 244.717L219.404 246.553L208.73 250.498C208.196 250.006 207.416 249.818 206.688 250.087L200.117 252.516C192.497 255.333 188.605 263.79 191.424 271.404L198.01 289.186L198.59 290.752C199.739 293.853 203.186 295.437 206.29 294.289L204.115 286.929L209.295 285.014C211.758 284.103 213.719 282.445 215.042 280.397C213.866 280.539 212.68 280.062 211.945 279.093L209.247 275.533C207.849 273.689 208.679 271.018 210.877 270.29L211.105 270.214C213.244 269.506 215.562 270.604 216.367 272.707L216.914 274.137C216.923 272.767 216.702 271.374 216.199 270.014L215.979 269.422L214.434 263.214C214.051 261.674 214.927 260.102 216.438 259.615C217.072 259.41 217.756 259.421 218.384 259.646L219.977 260.216C221.793 260.867 223.781 260.857 225.589 260.189L226.089 260.004C229.803 258.63 231.701 254.506 230.326 250.794Z" fill="white"/>
<path d="M204.212 295.161C201.508 295.161 199.062 293.459 198.123 290.925L190.958 271.577C189.547 267.77 189.705 263.642 191.403 259.953C193.101 256.265 196.134 253.458 199.945 252.049L206.516 249.619C207.286 249.334 208.163 249.459 208.824 249.931L224.198 244.247C224.641 244.083 225.105 244 225.575 244C227.23 244 228.728 245.042 229.303 246.593L230.794 250.62C231.505 252.541 231.425 254.623 230.569 256.483C229.713 258.344 228.182 259.76 226.26 260.471L225.762 260.656C224.792 261.014 223.777 261.196 222.744 261.196C221.741 261.196 220.752 261.024 219.808 260.686L218.215 260.115C217.694 259.928 217.119 259.919 216.59 260.089C215.335 260.495 214.6 261.815 214.919 263.094L216.464 269.302L216.667 269.842C217.173 271.204 217.423 272.65 217.414 274.141C217.413 274.382 217.241 274.586 217.004 274.629C216.767 274.664 216.534 274.54 216.449 274.317L215.901 272.887C215.355 271.459 213.961 270.5 212.432 270.5C212.036 270.5 211.643 270.563 211.263 270.689L211.034 270.764C210.142 271.06 209.469 271.744 209.191 272.641C208.912 273.538 209.078 274.483 209.646 275.233L212.346 278.791C212.952 279.589 213.967 280.018 214.985 279.901C215.174 279.875 215.365 279.968 215.468 280.13C215.571 280.295 215.57 280.503 215.464 280.666C214.021 282.899 211.948 284.565 209.471 285.48L204.729 287.234L206.772 294.147C206.847 294.399 206.713 294.666 206.466 294.756C205.737 295.025 204.98 295.161 204.212 295.161ZM207.372 250.463C207.198 250.463 207.027 250.494 206.862 250.555L200.291 252.985C196.73 254.301 193.896 256.924 192.31 260.37C190.724 263.816 190.576 267.673 191.894 271.23L199.059 290.579C199.854 292.723 201.924 294.164 204.212 294.164C204.706 294.164 205.197 294.098 205.674 293.966L203.637 287.071C203.562 286.82 203.696 286.552 203.942 286.463L209.123 284.547C211.107 283.813 212.809 282.555 214.091 280.883C213.088 280.739 212.164 280.206 211.549 279.395L208.849 275.837C208.084 274.828 207.86 273.556 208.236 272.348C208.612 271.139 209.516 270.218 210.719 269.819L210.948 269.744C212.782 269.139 214.854 269.776 216.049 271.201C215.959 270.859 215.852 270.522 215.73 270.191L215.51 269.597L213.949 263.337C213.504 261.55 214.53 259.707 216.283 259.142C217.02 258.905 217.824 258.918 218.552 259.178L220.145 259.749C220.981 260.048 221.855 260.2 222.744 260.2C223.659 260.2 224.556 260.039 225.414 259.722L225.913 259.537C227.586 258.918 228.917 257.687 229.662 256.068C230.407 254.45 230.476 252.637 229.858 250.968L228.367 246.942C227.814 245.452 226.052 244.628 224.543 245.184L208.903 250.965C208.728 251.031 208.53 250.99 208.392 250.864C208.11 250.605 207.749 250.463 207.372 250.463Z" fill="#1D2445"/>
<path d="M373.713 511.554L378.107 508.94C379.318 508.218 380.161 506.986 380.348 505.663C380.622 503.718 379.422 502.068 377.533 501.793L369.202 500.58C363.936 499.812 359.593 496.752 357.298 492.191L354.55 486.73L350.895 488.785C350.014 489.28 349.56 490.305 349.839 491.167L350.639 493.634L345.627 495.599C342.233 496.931 338.632 496.318 336.353 494.02L332.834 490.472C332.217 489.851 331.041 490.317 330.86 491.255L327.785 507.216L328.218 510.973L373.713 511.554Z" fill="white"/>
<path d="M373.713 512.053C373.711 512.053 373.709 512.053 373.707 512.053L328.212 511.472C327.962 511.469 327.752 511.281 327.723 511.031L327.29 507.274C327.284 507.223 327.286 507.171 327.295 507.122L330.37 491.161C330.531 490.323 331.291 489.691 332.137 489.691C332.54 489.691 332.913 489.844 333.189 490.122L336.708 493.669C338.81 495.79 342.283 496.377 345.446 495.135L350.02 493.341L349.365 491.322C349.012 490.238 349.566 488.961 350.65 488.351L354.306 486.296C354.424 486.23 354.565 486.214 354.696 486.253C354.827 486.293 354.935 486.385 354.997 486.507L357.744 491.967C359.965 496.383 364.168 499.342 369.274 500.087L377.605 501.3C379.762 501.615 381.153 503.521 380.842 505.732C380.635 507.209 379.707 508.568 378.362 509.37L373.969 511.984C373.892 512.028 373.803 512.053 373.713 512.053ZM328.664 510.48L373.578 511.053L377.851 508.51C378.938 507.864 379.687 506.772 379.854 505.593C380.089 503.913 379.083 502.523 377.462 502.287L369.13 501.073C363.697 500.281 359.222 497.125 356.852 492.414L354.34 487.421L351.14 489.219C350.472 489.594 350.11 490.382 350.315 491.013L351.115 493.48C351.197 493.731 351.068 494.002 350.822 494.098L345.81 496.064C344.577 496.547 343.311 496.793 342.048 496.793C339.697 496.793 337.548 495.933 335.999 494.37L332.479 490.823C332.185 490.527 331.463 490.763 331.35 491.348L328.29 507.235L328.664 510.48Z" fill="#1D2445"/>
<path d="M326.405 508.267L326.928 509.846C327.869 512.688 330.475 514.501 333.619 514.501H367.05C367.693 514.501 368.348 514.335 368.953 514.021L376.23 510.23C376.412 510.136 376.345 509.86 376.139 509.86H349.414C348.926 509.86 348.485 509.67 348.183 509.33C346.669 507.624 344.452 506.668 342.003 506.668H327.646C326.822 506.667 326.159 507.523 326.405 508.267Z" fill="#1D2445"/>
<path d="M367.051 515H333.62C330.273 515 327.46 513.038 326.454 510.003L325.932 508.423C325.768 507.931 325.863 507.387 326.192 506.933C326.537 506.454 327.081 506.168 327.645 506.168H342.003C344.61 506.168 346.937 507.173 348.557 508.998C348.764 509.231 349.068 509.36 349.414 509.36H376.139C376.461 509.36 376.739 509.579 376.815 509.89C376.892 510.202 376.746 510.524 376.462 510.671L369.185 514.462C368.509 514.814 367.772 515 367.051 515ZM327.646 507.166C327.401 507.166 327.16 507.298 327.001 507.518C326.862 507.709 326.818 507.924 326.879 508.11L327.401 509.689C328.269 512.31 330.71 514.002 333.619 514.002H367.05C367.611 514.002 368.189 513.856 368.722 513.578L374.903 510.358H349.414C348.787 510.358 348.203 510.103 347.81 509.659C346.382 508.052 344.32 507.166 342.004 507.166H327.646Z" fill="#1D2445"/>
<path d="M446.762 444.607L449.659 440.396C450.457 439.235 450.706 437.763 450.323 436.483C449.758 434.602 447.977 433.605 446.146 434.144L438.07 436.523C432.967 438.027 427.74 437.062 423.745 433.879L418.963 430.068L416.503 433.462C415.91 434.279 415.927 435.401 416.541 436.066L418.301 437.972L414.572 441.852C412.046 444.479 408.518 445.428 405.486 444.294L400.804 442.543C399.984 442.235 399.11 443.15 399.339 444.078L403.228 459.861L405.195 463.092L446.762 444.607Z" fill="white"/>
<path d="M405.197 463.592C405.027 463.592 404.863 463.505 404.769 463.353L402.803 460.122C402.777 460.078 402.757 460.031 402.745 459.981L398.855 444.198C398.721 443.657 398.847 443.089 399.2 442.639C399.644 442.072 400.359 441.841 400.98 442.076L405.662 443.827C408.457 444.877 411.872 443.941 414.212 441.508L417.616 437.967L416.175 436.406C415.402 435.569 415.369 434.178 416.099 433.171L418.559 429.778C418.639 429.667 418.761 429.594 418.895 429.576C419.03 429.559 419.167 429.595 419.274 429.68L424.056 433.491C426.707 435.603 429.917 436.72 433.336 436.72C434.865 436.72 436.41 436.493 437.927 436.046L446.003 433.667C446.378 433.557 446.758 433.5 447.136 433.5C448.843 433.5 450.28 434.615 450.799 436.341C451.228 437.769 450.955 439.39 450.069 440.679L447.174 444.89C447.122 444.966 447.049 445.026 446.965 445.064L405.398 463.55C405.334 463.579 405.264 463.592 405.197 463.592ZM403.696 459.669L405.395 462.46L446.432 444.209L449.247 440.114C449.963 439.071 450.187 437.768 449.844 436.627C449.369 435.045 447.831 434.171 446.288 434.624L438.212 437.003C436.603 437.478 434.963 437.718 433.338 437.718C429.69 437.718 426.265 436.526 423.435 434.27L419.062 430.786L416.909 433.755C416.459 434.376 416.46 435.242 416.909 435.73L418.669 437.637C418.847 437.831 418.844 438.13 418.662 438.322L414.932 442.201C412.321 444.918 408.471 445.95 405.311 444.763L400.629 443.012C400.411 442.929 400.161 443.033 399.986 443.256C399.823 443.463 399.764 443.72 399.824 443.961L403.696 459.669Z" fill="#1D2445"/>
<path d="M402.416 461.392L403.551 462.609C405.596 464.797 408.723 465.354 411.578 464.04L441.944 450.068C442.527 449.8 443.053 449.376 443.471 448.837L448.677 442.117C448.756 442.015 448.645 441.876 448.528 441.93L423.982 453.225C423.539 453.428 423.058 453.44 422.642 453.258C420.553 452.341 418.139 452.398 415.914 453.422L402.873 459.422C402.124 459.766 401.881 460.82 402.416 461.392Z" fill="#1D2445"/>
<path d="M408.457 465.243C406.44 465.243 404.568 464.428 403.187 462.949L402.051 461.732C401.697 461.354 401.556 460.82 401.664 460.269C401.778 459.69 402.152 459.204 402.666 458.968L415.706 452.967C418.049 451.889 420.633 451.829 422.843 452.798C423.127 452.922 423.462 452.913 423.773 452.771L448.319 441.476C448.384 441.446 448.508 441.418 448.581 441.418C448.816 441.418 449.035 441.556 449.14 441.769C449.245 441.984 449.219 442.234 449.071 442.423L443.868 449.141C443.4 449.744 442.808 450.22 442.154 450.52L411.788 464.492C410.709 464.99 409.588 465.243 408.457 465.243ZM419.525 453.108C418.374 453.108 417.229 453.366 416.123 453.875L403.082 459.876C402.859 459.979 402.696 460.198 402.644 460.464C402.598 460.695 402.648 460.911 402.78 461.053L403.917 462.27C405.782 464.266 408.75 464.796 411.37 463.588L441.736 449.616C442.245 449.383 442.708 449.009 443.077 448.533L447.342 443.026L424.191 453.679C423.622 453.94 422.987 453.953 422.442 453.715C421.526 453.311 420.545 453.108 419.525 453.108Z" fill="#1D2445"/>
<path d="M207.841 304.697C207.742 304.697 207.643 304.668 207.556 304.607L198.11 298.045C197.883 297.888 197.827 297.577 197.985 297.351C198.143 297.124 198.452 297.069 198.68 297.227L208.126 303.788C208.353 303.945 208.409 304.256 208.251 304.482C208.154 304.622 207.999 304.697 207.841 304.697Z" fill="#1D2445"/>
<path d="M318.426 396.826C318.253 396.826 318.085 396.736 317.992 396.577C317.854 396.338 317.936 396.033 318.176 395.894L335.256 386.062C336.715 385.222 338.407 384.79 340.062 384.797L343.276 384.82C346.037 384.84 348.647 386.056 350.436 388.16L353.43 391.677C353.608 391.888 353.582 392.202 353.373 392.381C353.164 392.56 352.847 392.534 352.669 392.324L349.675 388.806C348.074 386.924 345.739 385.835 343.269 385.818L340.055 385.795C338.529 385.812 337.06 386.175 335.755 386.927L318.674 396.759C318.596 396.805 318.511 396.826 318.426 396.826Z" fill="white"/>
</g>
<g clip-path="url(#clip5)">
<path d="M257.686 413.955H249.231V473.458H257.686V413.955Z" fill="white"/>
<path d="M257.687 473.956H249.232C248.956 473.956 248.732 473.732 248.732 473.457V413.954C248.732 413.679 248.956 413.455 249.232 413.455H257.687C257.962 413.455 258.186 413.679 258.186 413.954V473.457C258.186 473.732 257.962 473.956 257.687 473.956ZM249.73 472.958H257.186V414.453H249.73V472.958Z" fill="#1D2445"/>
<path d="M319.122 488.371H315.127V482.202C296.048 476.837 275.489 474.059 253.991 473.94L254.013 469.947C276.421 470.071 297.841 473.043 317.679 478.778L319.121 479.194V488.371H319.122Z" fill="white"/>
<path d="M319.122 488.87H315.128C314.852 488.87 314.628 488.646 314.628 488.371V482.581C295.698 477.296 275.3 474.557 253.988 474.44C253.856 474.439 253.729 474.386 253.636 474.292C253.542 474.198 253.49 474.07 253.491 473.938L253.513 469.945C253.514 469.671 253.737 469.449 254.012 469.449C254.013 469.449 254.014 469.449 254.015 469.449C276.467 469.573 297.933 472.551 317.817 478.299L319.259 478.715C319.472 478.777 319.619 478.973 319.619 479.194V488.371C319.621 488.647 319.397 488.87 319.122 488.87ZM315.627 487.871H318.623V479.57L317.541 479.257C297.893 473.577 276.69 470.614 254.51 470.449L254.493 473.444C275.849 473.604 296.292 476.388 315.262 481.722C315.478 481.783 315.627 481.98 315.627 482.202V487.871Z" fill="#1D2445"/>
<path d="M291.411 478.911C279.776 473.09 267.209 470.073 254.06 469.947L253.992 469.968V469.947C231.584 470.071 210.164 473.043 190.327 478.778L188.885 479.194V488.371H192.879V482.202C211.958 476.837 232.517 474.059 254.015 473.94V473.938L254.022 473.94C266.143 474.056 277.743 476.748 288.52 481.94V488.371H292.515V479.462L291.411 478.911Z" fill="white"/>
<path d="M292.515 488.869H288.52C288.245 488.869 288.021 488.645 288.021 488.37V482.252C277.39 477.182 265.952 474.553 254.017 474.439C254.005 474.439 253.993 474.438 253.98 474.437C232.678 474.56 212.294 477.299 193.378 482.58V488.37C193.378 488.645 193.154 488.869 192.878 488.869H188.884C188.608 488.869 188.385 488.645 188.385 488.37V479.194C188.385 478.971 188.532 478.775 188.745 478.714L190.187 478.298C210.07 472.55 231.536 469.572 253.988 469.448C254.006 469.445 254.019 469.449 254.034 469.45C254.046 469.449 254.06 469.457 254.064 469.448C267.288 469.575 279.929 472.608 291.634 478.464L292.737 479.016C292.906 479.101 293.013 479.273 293.013 479.462V488.371C293.014 488.646 292.79 488.869 292.515 488.869ZM289.02 487.871H292.015V479.77L291.188 479.356C279.629 473.574 267.148 470.576 254.091 470.446C254.052 470.45 254.013 470.45 253.974 470.446C231.621 470.571 210.253 473.535 190.465 479.256L189.383 479.569V487.871H192.379V482.201C192.379 481.978 192.528 481.781 192.744 481.721C211.861 476.345 232.475 473.559 254.011 473.44C266.215 473.557 277.894 476.265 288.737 481.49C288.91 481.572 289.02 481.747 289.02 481.939V487.871Z" fill="#1D2445"/>
<path d="M287.551 487.705H291.055C292.227 487.705 293.178 488.655 293.178 489.827V495.418H280.918L280.91 494.396C280.881 490.708 283.863 487.705 287.551 487.705Z" fill="#1D2445"/>
<path d="M293.677 495.917H280.423L280.411 494.399C280.396 492.481 281.132 490.676 282.482 489.315C283.832 487.955 285.633 487.205 287.551 487.205H291.055C292.501 487.205 293.677 488.382 293.677 489.828V495.917ZM281.414 494.919H292.679V489.828C292.679 488.932 291.951 488.203 291.055 488.203H287.551C285.901 488.203 284.353 488.848 283.191 490.018C282.029 491.188 281.397 492.742 281.41 494.391L281.414 494.919Z" fill="#1D2445"/>
<path d="M192.828 487.705H189.324C188.152 487.705 187.201 488.655 187.201 489.827V495.418H199.461L199.469 494.396C199.497 490.708 196.516 487.705 192.828 487.705Z" fill="#1D2445"/>
<path d="M199.956 495.917H186.701V489.828C186.701 488.382 187.877 487.205 189.323 487.205H192.828C194.746 487.205 196.546 487.955 197.896 489.315C199.246 490.676 199.982 492.481 199.967 494.399L199.956 495.917ZM187.7 494.919H198.965L198.969 494.392C198.982 492.743 198.348 491.19 197.187 490.019C196.026 488.848 194.477 488.204 192.828 488.204H189.323C188.429 488.204 187.7 488.932 187.7 489.829V494.919Z" fill="#1D2445"/>
<path d="M314.873 487.705H318.377C319.549 487.705 320.5 488.655 320.5 489.827V495.418H308.24L308.232 494.396C308.204 490.708 311.185 487.705 314.873 487.705Z" fill="#1D2445"/>
<path d="M321 495.917H307.746L307.734 494.399C307.719 492.481 308.455 490.676 309.805 489.314C311.156 487.955 312.956 487.205 314.873 487.205H318.378C319.824 487.205 321 488.382 321 489.828V495.917ZM308.737 494.919H320.002V489.828C320.002 488.932 319.274 488.203 318.378 488.203H314.873C313.223 488.203 311.675 488.848 310.514 490.018C309.352 491.188 308.72 492.742 308.733 494.391L308.737 494.919Z" fill="#1D2445"/>
<path d="M287.759 500.501C290.752 500.501 293.178 498.076 293.178 495.084C293.178 492.092 290.752 489.666 287.759 489.666C284.766 489.666 282.339 492.092 282.339 495.084C282.339 498.076 284.766 500.501 287.759 500.501Z" fill="white"/>
<path d="M287.759 501.001C284.495 501.001 281.84 498.346 281.84 495.084C281.84 491.82 284.495 489.166 287.759 489.166C291.022 489.166 293.677 491.82 293.677 495.084C293.677 498.346 291.022 501.001 287.759 501.001ZM287.759 490.165C285.046 490.165 282.839 492.372 282.839 495.085C282.839 497.797 285.046 500.003 287.759 500.003C290.472 500.003 292.679 497.797 292.679 495.085C292.679 492.372 290.472 490.165 287.759 490.165Z" fill="#1D2445"/>
<path d="M315.081 500.501C318.074 500.501 320.501 498.076 320.501 495.084C320.501 492.092 318.074 489.666 315.081 489.666C312.088 489.666 309.662 492.092 309.662 495.084C309.662 498.076 312.088 500.501 315.081 500.501Z" fill="white"/>
<path d="M315.081 501.001C311.818 501.001 309.163 498.346 309.163 495.084C309.163 491.82 311.818 489.166 315.081 489.166C318.345 489.166 321 491.82 321 495.084C321 498.346 318.345 501.001 315.081 501.001ZM315.081 490.165C312.368 490.165 310.161 492.372 310.161 495.085C310.161 497.797 312.368 500.003 315.081 500.003C317.794 500.003 320.001 497.797 320.001 495.085C320.001 492.372 317.793 490.165 315.081 490.165Z" fill="#1D2445"/>
<path d="M192.62 500.501C195.613 500.501 198.039 498.076 198.039 495.084C198.039 492.092 195.613 489.666 192.62 489.666C189.627 489.666 187.2 492.092 187.2 495.084C187.2 498.076 189.627 500.501 192.62 500.501Z" fill="white"/>
<path d="M192.62 501.001C189.356 501.001 186.701 498.346 186.701 495.084C186.701 491.82 189.356 489.166 192.62 489.166C195.883 489.166 198.538 491.82 198.538 495.084C198.538 498.346 195.883 501.001 192.62 501.001ZM192.62 490.165C189.907 490.165 187.7 492.372 187.7 495.085C187.7 497.797 189.907 500.003 192.62 500.003C195.333 500.003 197.54 497.797 197.54 495.085C197.54 492.372 195.333 490.165 192.62 490.165Z" fill="#1D2445"/>
<path d="M257.89 412.744H249.435V418.673H257.89V412.744Z" fill="#1D2445"/>
<path d="M257.89 419.171H249.435C249.16 419.171 248.936 418.948 248.936 418.672V412.743C248.936 412.468 249.16 412.244 249.435 412.244H257.89C258.166 412.244 258.39 412.468 258.39 412.743V418.672C258.39 418.948 258.167 419.171 257.89 419.171ZM249.935 418.173H257.391V413.242H249.935V418.173Z" fill="#1D2445"/>
<path d="M299.72 415.256H224.753C214.529 415.256 206.212 406.941 206.212 396.721V378.639C206.212 377.474 205.999 376.332 205.579 375.245L175.837 298.29C174.843 295.72 176.122 292.829 178.694 291.835C181.27 290.845 184.158 292.121 185.151 294.693L214.893 371.647C215.758 373.886 216.197 376.239 216.197 378.639V396.72C216.197 401.436 220.034 405.272 224.752 405.272H299.719C302.476 405.272 304.712 407.506 304.712 410.263C304.712 413.021 302.477 415.256 299.72 415.256Z" fill="white"/>
<path d="M299.72 415.754H224.752C214.253 415.754 205.712 407.215 205.712 396.72V378.638C205.712 377.536 205.51 376.454 205.112 375.422L175.371 298.47C174.842 297.102 174.877 295.61 175.471 294.269C176.066 292.928 177.146 291.898 178.514 291.368C179.151 291.124 179.816 291 180.492 291C182.781 291 184.792 292.379 185.617 294.513L215.358 371.466C216.246 373.764 216.696 376.177 216.696 378.639V396.72C216.696 401.16 220.31 404.773 224.752 404.773H299.72C302.748 404.773 305.212 407.237 305.212 410.263C305.212 413.291 302.748 415.754 299.72 415.754ZM180.492 291.998C179.939 291.998 179.395 292.1 178.874 292.301C177.754 292.733 176.87 293.575 176.385 294.673C175.899 295.77 175.87 296.991 176.302 298.109L206.044 375.063C206.486 376.209 206.711 377.412 206.711 378.638V396.719C206.711 406.664 214.804 414.755 224.752 414.755H299.72C302.197 414.755 304.213 412.739 304.213 410.262C304.213 407.786 302.197 405.77 299.72 405.77H224.752C219.759 405.77 215.698 401.71 215.698 396.719V378.638C215.698 376.299 215.27 374.007 214.428 371.827L184.685 294.872C184.01 293.126 182.365 291.998 180.492 291.998Z" fill="#1D2445"/>
<path d="M269.946 417.6C268.844 417.6 267.949 416.706 267.949 415.604V412.824L275.649 386.118C275.859 385.39 275.71 384.682 275.204 384.012C274.359 382.887 272.73 382.189 270.956 382.189H234.156C232.326 382.189 230.674 382.919 229.847 384.095C229.357 384.791 229.244 385.521 229.511 386.263L239.164 413.145V415.438C239.164 416.54 238.269 417.435 237.167 417.435C236.065 417.435 235.17 416.54 235.17 415.438V413.839L225.751 387.613C225.05 385.662 225.353 383.543 226.58 381.798C228.167 379.543 230.999 378.197 234.156 378.197H270.957C274.006 378.197 276.787 379.473 278.397 381.612C279.66 383.29 280.048 385.284 279.487 387.225L271.943 413.389V415.606C271.943 416.706 271.048 417.6 269.946 417.6Z" fill="white"/>
<path d="M269.946 418.1C268.57 418.1 267.45 416.981 267.45 415.604V412.824C267.45 412.777 267.456 412.73 267.47 412.685L275.169 385.979C275.336 385.403 275.216 384.857 274.806 384.312C274.053 383.31 272.577 382.688 270.957 382.688H234.156C232.486 382.688 230.991 383.337 230.255 384.382C229.858 384.944 229.768 385.505 229.98 386.094L239.633 412.975C239.653 413.029 239.662 413.086 239.662 413.144V415.437C239.662 416.814 238.542 417.933 237.166 417.933C235.79 417.933 234.669 416.814 234.669 415.437V413.925L225.28 387.781C224.524 385.676 224.849 383.389 226.171 381.51C227.851 379.122 230.836 377.697 234.155 377.697H270.956C274.161 377.697 277.093 379.049 278.795 381.311C280.155 383.118 280.571 385.266 279.967 387.363L272.441 413.459V415.605C272.442 416.98 271.322 418.1 269.946 418.1ZM268.448 412.894V415.604C268.448 416.43 269.12 417.101 269.946 417.101C270.772 417.101 271.444 416.43 271.444 415.604V413.387C271.444 413.34 271.45 413.293 271.464 413.248L279.008 387.084C279.523 385.297 279.165 383.46 277.998 381.91C276.483 379.895 273.85 378.694 270.957 378.694H234.156C231.161 378.694 228.481 379.961 226.988 382.084C225.855 383.693 225.575 385.647 226.221 387.442L235.639 413.668C235.659 413.722 235.668 413.779 235.668 413.837V415.436C235.668 416.262 236.34 416.934 237.166 416.934C237.992 416.934 238.664 416.262 238.664 415.436V413.23L229.04 386.43C228.719 385.538 228.857 384.63 229.438 383.806C230.357 382.499 232.164 381.688 234.155 381.688H270.956C272.885 381.688 274.665 382.463 275.604 383.71C276.199 384.501 276.381 385.38 276.128 386.255L268.448 412.894Z" fill="#1D2445"/>
</g>
<g clip-path="url(#clip6)">
<path d="M79.3842 41.3828H638.616V294.616H79.3842V41.3828Z" fill="white"/>
<path d="M79.3841 295H638.616C638.828 295 639 294.828 639 294.617V41.3835C639 41.1718 638.828 41 638.616 41H79.3841C79.1721 41 79 41.1718 79 41.3835V294.617C79 294.829 79.1713 295 79.3841 295ZM638.232 294.233H79.7682V41.7669H638.232V294.233Z" fill="#1D2445"/>
</g>
<path d="M226.503 102.314H107.497V215.503H226.503V102.314Z" fill="white"/>
<path d="M226.503 216.001H107.497C107.222 216.001 107 215.778 107 215.502V102.315C107 102.04 107.222 101.816 107.497 101.816H226.503C226.778 101.816 227 102.04 227 102.315V215.503C227 215.779 226.779 216.001 226.503 216.001ZM107.993 215.004H226.007V102.814H107.993V215.004Z" fill="#1D2445"/>
<path d="M153.514 126.586H121.247V132.062H153.514V126.586Z" fill="#1D2445"/>
<path d="M166.239 126.586H160.786V132.062H166.239V126.586Z" fill="#1D2445"/>
<path d="M176.191 126.586H170.738V132.062H176.191V126.586Z" fill="#1D2445"/>
<path d="M132.573 98.498H127.938V112.459H132.573V98.498Z" fill="white"/>
<path d="M132.573 112.959H127.938C127.664 112.959 127.441 112.735 127.441 112.46V98.4986C127.441 98.2234 127.664 98 127.938 98H132.573C132.847 98 133.069 98.2234 133.069 98.4986V112.46C133.069 112.735 132.847 112.959 132.573 112.959ZM128.434 111.961H132.076V98.9972H128.434V111.961Z" fill="#1D2445"/>
<path d="M169.317 98.498H164.683V112.459H169.317V98.498Z" fill="white"/>
<path d="M169.317 112.959H164.683C164.408 112.959 164.186 112.735 164.186 112.46V98.4986C164.186 98.2234 164.408 98 164.683 98H169.317C169.592 98 169.814 98.2234 169.814 98.4986V112.46C169.814 112.735 169.592 112.959 169.317 112.959ZM165.179 111.961H168.821V98.9972H165.179V111.961Z" fill="#1D2445"/>
<path d="M206.062 98.498H201.427V112.459H206.062V98.498Z" fill="white"/>
<path d="M206.062 112.959H201.427C201.153 112.959 200.931 112.735 200.931 112.46V98.4986C200.931 98.2234 201.153 98 201.427 98H206.062C206.336 98 206.559 98.2234 206.559 98.4986V112.46C206.559 112.735 206.336 112.959 206.062 112.959ZM201.924 111.961H205.566V98.9972H201.924V111.961Z" fill="#1D2445"/>
<path d="M144.174 142.102H135.681V150.63H144.174V142.102Z" fill="white"/>
<path d="M144.175 151.129H135.681C135.407 151.129 135.185 150.906 135.185 150.631V142.102C135.185 141.827 135.407 141.604 135.681 141.604H144.174C144.448 141.604 144.671 141.827 144.671 142.102V150.631C144.672 150.907 144.449 151.129 144.175 151.129ZM136.178 150.132H143.678V142.601H136.178V150.132Z" fill="#1D2445"/>
<path d="M157.71 142.102H149.217V150.63H157.71V142.102Z" fill="white"/>
<path d="M157.71 151.129H149.217C148.943 151.129 148.72 150.906 148.72 150.631V142.102C148.72 141.827 148.943 141.604 149.217 141.604H157.71C157.984 141.604 158.207 141.827 158.207 142.102V150.631C158.207 150.907 157.985 151.129 157.71 151.129ZM149.714 150.132H157.214V142.601H149.714V150.132Z" fill="#1D2445"/>
<path d="M171.246 142.102H162.753V150.63H171.246V142.102Z" fill="white"/>
<path d="M171.247 151.129H162.754C162.48 151.129 162.258 150.906 162.258 150.631V142.102C162.258 141.827 162.48 141.604 162.754 141.604H171.247C171.521 141.604 171.744 141.827 171.744 142.102V150.631C171.744 150.907 171.521 151.129 171.247 151.129ZM163.251 150.132H170.751V142.601H163.251V150.132Z" fill="#1D2445"/>
<path d="M184.783 142.102H176.29V150.63H184.783V142.102Z" fill="white"/>
<path d="M184.783 151.129H176.289C176.015 151.129 175.792 150.906 175.792 150.631V142.102C175.792 141.827 176.015 141.604 176.289 141.604H184.782C185.056 141.604 185.279 141.827 185.279 142.102V150.631C185.28 150.907 185.057 151.129 184.783 151.129ZM176.786 150.132H184.286V142.601H176.786V150.132Z" fill="#1D2445"/>
<path d="M198.319 142.102H189.826V150.63H198.319V142.102Z" fill="#1D2445"/>
<path d="M198.319 151.129H189.826C189.552 151.129 189.33 150.906 189.33 150.631V142.102C189.33 141.827 189.552 141.604 189.826 141.604H198.319C198.593 141.604 198.816 141.827 198.816 142.102V150.631C198.816 150.907 198.593 151.129 198.319 151.129ZM190.323 150.132H197.823V142.601H190.323V150.132Z" fill="#1D2445"/>
<path d="M211.855 142.102H203.362V150.63H211.855V142.102Z" fill="#1D2445"/>
<path d="M211.855 151.129H203.362C203.088 151.129 202.866 150.906 202.866 150.631V142.102C202.866 141.827 203.088 141.604 203.362 141.604H211.855C212.129 141.604 212.352 141.827 212.352 142.102V150.631C212.352 150.907 212.13 151.129 211.855 151.129ZM203.859 150.132H211.359V142.601H203.859V150.132Z" fill="#1D2445"/>
<path d="M130.638 158.779H122.145V167.308H130.638V158.779Z" fill="white"/>
<path d="M130.638 167.807H122.145C121.871 167.807 121.648 167.584 121.648 167.308V158.78C121.648 158.505 121.871 158.281 122.145 158.281H130.638C130.912 158.281 131.135 158.505 131.135 158.78V167.308C131.135 167.584 130.913 167.807 130.638 167.807ZM122.642 166.81H130.141V159.278H122.642V166.81Z" fill="#1D2445"/>
<path d="M144.174 158.779H135.681V167.308H144.174V158.779Z" fill="white"/>
<path d="M144.175 167.807H135.681C135.407 167.807 135.185 167.584 135.185 167.308V158.78C135.185 158.505 135.407 158.281 135.681 158.281H144.174C144.448 158.281 144.671 158.505 144.671 158.78V167.308C144.672 167.584 144.449 167.807 144.175 167.807ZM136.178 166.81H143.678V159.278H136.178V166.81Z" fill="#1D2445"/>
<path d="M157.71 158.779H149.217V167.308H157.71V158.779Z" fill="white"/>
<path d="M157.71 167.807H149.217C148.943 167.807 148.72 167.584 148.72 167.308V158.78C148.72 158.505 148.943 158.281 149.217 158.281H157.71C157.984 158.281 158.207 158.505 158.207 158.78V167.308C158.207 167.584 157.985 167.807 157.71 167.807ZM149.714 166.81H157.214V159.278H149.714V166.81Z" fill="#1D2445"/>
<path d="M171.246 158.779H162.753V167.308H171.246V158.779Z" fill="white"/>
<path d="M171.247 167.807H162.754C162.48 167.807 162.258 167.584 162.258 167.308V158.78C162.258 158.505 162.48 158.281 162.754 158.281H171.247C171.521 158.281 171.744 158.505 171.744 158.78V167.308C171.744 167.584 171.521 167.807 171.247 167.807ZM163.251 166.81H170.751V159.278H163.251V166.81Z" fill="#1D2445"/>
<path d="M184.783 158.779H176.29V167.308H184.783V158.779Z" fill="white"/>
<path d="M184.783 167.807H176.289C176.015 167.807 175.792 167.584 175.792 167.308V158.78C175.792 158.505 176.015 158.281 176.289 158.281H184.782C185.056 158.281 185.279 158.505 185.279 158.78V167.308C185.28 167.584 185.057 167.807 184.783 167.807ZM176.786 166.81H184.286V159.278H176.786V166.81Z" fill="#1D2445"/>
<path d="M198.319 158.779H189.826V167.308H198.319V158.779Z" fill="#1D2445"/>
<path d="M198.319 167.807H189.826C189.552 167.807 189.33 167.584 189.33 167.308V158.78C189.33 158.505 189.552 158.281 189.826 158.281H198.319C198.593 158.281 198.816 158.505 198.816 158.78V167.308C198.816 167.584 198.593 167.807 198.319 167.807ZM190.323 166.81H197.823V159.278H190.323V166.81Z" fill="#1D2445"/>
<path d="M211.855 158.779H203.362V167.308H211.855V158.779Z" fill="#1D2445"/>
<path d="M211.855 167.807H203.362C203.088 167.807 202.866 167.584 202.866 167.308V158.78C202.866 158.505 203.088 158.281 203.362 158.281H211.855C212.129 158.281 212.352 158.505 212.352 158.78V167.308C212.352 167.584 212.13 167.807 211.855 167.807ZM203.859 166.81H211.359V159.278H203.859V166.81Z" fill="#1D2445"/>
<path d="M130.638 175.457H122.145V183.985H130.638V175.457Z" fill="white"/>
<path d="M130.638 184.485H122.145C121.871 184.485 121.648 184.261 121.648 183.986V175.458C121.648 175.182 121.871 174.959 122.145 174.959H130.638C130.912 174.959 131.135 175.182 131.135 175.458V183.986C131.135 184.261 130.913 184.485 130.638 184.485ZM122.642 183.487H130.141V175.956H122.642V183.487Z" fill="#1D2445"/>
<path d="M144.174 175.457H135.681V183.985H144.174V175.457Z" fill="white"/>
<path d="M144.175 184.485H135.681C135.407 184.485 135.185 184.261 135.185 183.986V175.458C135.185 175.182 135.407 174.959 135.681 174.959H144.174C144.448 174.959 144.671 175.182 144.671 175.458V183.986C144.672 184.261 144.449 184.485 144.175 184.485ZM136.178 183.487H143.678V175.956H136.178V183.487Z" fill="#1D2445"/>
<path d="M157.71 175.457H149.217V183.985H157.71V175.457Z" fill="white"/>
<path d="M157.71 184.485H149.217C148.943 184.485 148.72 184.261 148.72 183.986V175.458C148.72 175.182 148.943 174.959 149.217 174.959H157.71C157.984 174.959 158.207 175.182 158.207 175.458V183.986C158.207 184.261 157.985 184.485 157.71 184.485ZM149.714 183.487H157.214V175.956H149.714V183.487Z" fill="#1D2445"/>
<path d="M171.246 175.457H162.753V183.985H171.246V175.457Z" fill="white"/>
<path d="M171.247 184.485H162.754C162.48 184.485 162.258 184.261 162.258 183.986V175.458C162.258 175.182 162.48 174.959 162.754 174.959H171.247C171.521 174.959 171.744 175.182 171.744 175.458V183.986C171.744 184.261 171.521 184.485 171.247 184.485ZM163.251 183.487H170.751V175.956H163.251V183.487Z" fill="#1D2445"/>
<path d="M184.783 175.457H176.29V183.985H184.783V175.457Z" fill="white"/>
<path d="M184.783 184.485H176.289C176.015 184.485 175.792 184.261 175.792 183.986V175.458C175.792 175.182 176.015 174.959 176.289 174.959H184.782C185.056 174.959 185.279 175.182 185.279 175.458V183.986C185.28 184.261 185.057 184.485 184.783 184.485ZM176.786 183.487H184.286V175.956H176.786V183.487Z" fill="#1D2445"/>
<path d="M198.319 175.457H189.826V183.985H198.319V175.457Z" fill="#1D2445"/>
<path d="M198.319 184.485H189.826C189.552 184.485 189.33 184.261 189.33 183.986V175.458C189.33 175.182 189.552 174.959 189.826 174.959H198.319C198.593 174.959 198.816 175.182 198.816 175.458V183.986C198.816 184.261 198.593 184.485 198.319 184.485ZM190.323 183.487H197.823V175.956H190.323V183.487Z" fill="#1D2445"/>
<path d="M211.855 175.457H203.362V183.985H211.855V175.457Z" fill="#1D2445"/>
<path d="M211.855 184.485H203.362C203.088 184.485 202.866 184.261 202.866 183.986V175.458C202.866 175.182 203.088 174.959 203.362 174.959H211.855C212.129 174.959 212.352 175.182 212.352 175.458V183.986C212.352 184.261 212.13 184.485 211.855 184.485ZM203.859 183.487H211.359V175.956H203.859V183.487Z" fill="#1D2445"/>
<path d="M130.638 192.135H122.145V200.663H130.638V192.135Z" fill="white"/>
<path d="M130.638 201.162H122.145C121.871 201.162 121.648 200.939 121.648 200.664V192.135C121.648 191.86 121.871 191.637 122.145 191.637H130.638C130.912 191.637 131.135 191.86 131.135 192.135V200.664C131.135 200.939 130.913 201.162 130.638 201.162ZM122.642 200.165H130.141V192.634H122.642V200.165Z" fill="#1D2445"/>
<path d="M144.174 192.135H135.681V200.663H144.174V192.135Z" fill="white"/>
<path d="M144.175 201.162H135.681C135.407 201.162 135.185 200.939 135.185 200.664V192.135C135.185 191.86 135.407 191.637 135.681 191.637H144.174C144.448 191.637 144.671 191.86 144.671 192.135V200.664C144.672 200.939 144.449 201.162 144.175 201.162ZM136.178 200.165H143.678V192.634H136.178V200.165Z" fill="#1D2445"/>
<path d="M157.71 192.135H149.217V200.663H157.71V192.135Z" fill="white"/>
<path d="M157.71 201.162H149.217C148.943 201.162 148.72 200.939 148.72 200.664V192.135C148.72 191.86 148.943 191.637 149.217 191.637H157.71C157.984 191.637 158.207 191.86 158.207 192.135V200.664C158.207 200.939 157.985 201.162 157.71 201.162ZM149.714 200.165H157.214V192.634H149.714V200.165Z" fill="#1D2445"/>
<path d="M171.246 192.135H162.753V200.663H171.246V192.135Z" fill="white"/>
<path d="M171.247 201.162H162.754C162.48 201.162 162.258 200.939 162.258 200.664V192.135C162.258 191.86 162.48 191.637 162.754 191.637H171.247C171.521 191.637 171.744 191.86 171.744 192.135V200.664C171.744 200.939 171.521 201.162 171.247 201.162ZM163.251 200.165H170.751V192.634H163.251V200.165Z" fill="#1D2445"/>
<g clip-path="url(#clip7)">
<path d="M398.206 257.466V252.971H407.011V257.466H398.206Z" fill="white"/>
<path d="M407.5 257.465V252.97C407.5 252.711 407.281 252.5 407.011 252.5H398.206C397.936 252.5 397.717 252.711 397.717 252.97V257.465C397.717 257.725 397.936 257.935 398.206 257.935H407.011C407.281 257.935 407.5 257.726 407.5 257.465ZM406.522 253.44V256.995H398.696V253.44H406.522Z" fill="#1D2445"/>
<path d="M398.206 264.987V260.492H407.011V264.987H398.206Z" fill="white"/>
<path d="M407.5 264.987V260.492C407.5 260.232 407.281 260.021 407.011 260.021H398.206C397.936 260.021 397.717 260.232 397.717 260.492V264.987C397.717 265.246 397.936 265.457 398.206 265.457H407.011C407.281 265.457 407.5 265.247 407.5 264.987ZM406.522 260.962V264.517H398.696V260.962H406.522Z" fill="#1D2445"/>
<path d="M398.206 272.509V268.014H407.011V272.509H398.206Z" fill="white"/>
<path d="M407.5 272.508V268.013C407.5 267.754 407.281 267.543 407.011 267.543H398.206C397.936 267.543 397.717 267.754 397.717 268.013V272.508C397.717 272.768 397.936 272.978 398.206 272.978H407.011C407.281 272.978 407.5 272.769 407.5 272.508ZM406.522 268.483V272.038H398.696V268.483H406.522Z" fill="#1D2445"/>
<path d="M398.206 280.03V275.535H407.011V280.03H398.206Z" fill="white"/>
<path d="M407.5 280.03V275.535C407.5 275.275 407.281 275.064 407.011 275.064H398.206C397.936 275.064 397.717 275.275 397.717 275.535V280.03C397.717 280.289 397.936 280.5 398.206 280.5H407.011C407.281 280.5 407.5 280.29 407.5 280.03ZM406.522 276.005V279.56H398.696V276.005H406.522Z" fill="#1D2445"/>
<path d="M386.467 264.987V260.492H395.272V264.987H386.467Z" fill="white"/>
<path d="M395.761 264.987V260.492C395.761 260.232 395.542 260.021 395.272 260.021H386.467C386.197 260.021 385.978 260.232 385.978 260.492V264.987C385.978 265.246 386.197 265.457 386.467 265.457H395.272C395.542 265.457 395.761 265.247 395.761 264.987ZM394.783 260.962V264.517H386.957V260.962H394.783Z" fill="#1D2445"/>
<path d="M386.467 272.509V268.014H395.272V272.509H386.467Z" fill="white"/>
<path d="M395.761 272.508V268.013C395.761 267.754 395.542 267.543 395.272 267.543H386.467C386.197 267.543 385.978 267.754 385.978 268.013V272.508C385.978 272.768 386.197 272.978 386.467 272.978H395.272C395.542 272.978 395.761 272.769 395.761 272.508ZM394.783 268.483V272.038H386.957V268.483H394.783Z" fill="#1D2445"/>
<path d="M386.467 280.03V275.535H395.272V280.03H386.467Z" fill="white"/>
<path d="M395.761 280.03V275.535C395.761 275.275 395.542 275.064 395.272 275.064H386.467C386.197 275.064 385.978 275.275 385.978 275.535V280.03C385.978 280.289 386.197 280.5 386.467 280.5H395.272C395.542 280.5 395.761 280.29 395.761 280.03ZM394.783 276.005V279.56H386.957V276.005H394.783Z" fill="#1D2445"/>
<path d="M374.728 272.509V268.014H383.532V272.509H374.728Z" fill="white"/>
<path d="M384.022 272.508V268.013C384.022 267.754 383.802 267.543 383.532 267.543H374.728C374.458 267.543 374.239 267.754 374.239 268.013V272.508C374.239 272.768 374.458 272.978 374.728 272.978H383.532C383.802 272.978 384.022 272.769 384.022 272.508ZM383.043 268.483V272.038H375.217V268.483H383.043Z" fill="#1D2445"/>
<path d="M374.728 280.03V275.535H383.532V280.03H374.728Z" fill="white"/>
<path d="M384.022 280.03V275.535C384.022 275.275 383.802 275.064 383.532 275.064H374.728C374.458 275.064 374.239 275.275 374.239 275.535V280.03C374.239 280.289 374.458 280.5 374.728 280.5H383.532C383.802 280.5 384.022 280.29 384.022 280.03ZM383.043 276.005V279.56H375.217V276.005H383.043Z" fill="#1D2445"/>
<path d="M362.989 280.03V275.535H371.793V280.03H362.989Z" fill="white"/>
<path d="M372.283 280.03V275.535C372.283 275.275 372.063 275.064 371.793 275.064H362.989C362.719 275.064 362.5 275.275 362.5 275.535V280.03C362.5 280.289 362.719 280.5 362.989 280.5H371.793C372.063 280.5 372.283 280.29 372.283 280.03ZM371.304 276.005V279.56H363.478V276.005H371.304Z" fill="#1D2445"/>
</g>
<g clip-path="url(#clip8)">
<path d="M155.448 353.282C151.652 352.35 144.199 355.975 140.226 358.136C140.58 357.189 140.864 356.23 141.084 355.274C141.822 351.983 141.891 348.732 141.779 345.603C141.748 344.819 141.704 344.042 141.647 343.272L141.626 342.983L141.621 342.911L141.595 342.703L141.576 342.564L141.501 342.01L141.349 340.904C141.32 340.563 141.206 340.117 141.098 339.686L140.77 338.398C140.546 337.541 140.202 336.813 139.917 336.021C138.626 332.935 136.587 330.36 134.469 328.246C132.734 326.513 130.937 325.043 129.197 323.665C132.114 324.22 136.433 324.861 139.078 324.419C143.359 323.702 146.401 320.518 145.872 317.308C145.343 314.096 141.444 312.073 137.163 312.789C133.785 313.354 128.873 319.381 126.947 321.902C125.239 320.568 123.625 319.276 122.176 317.95C121.722 317.56 121.33 317.14 120.907 316.741L120.597 316.439L120.519 316.364C120.544 316.395 120.488 316.33 120.495 316.34L120.413 316.241L119.833 315.534L119.545 315.183C119.47 315.075 119.423 314.98 119.36 314.879L118.996 314.289C118.741 313.943 118.511 313.406 118.273 312.945C117.325 311.043 116.59 309.026 116.06 307.058C115.497 305.097 115.095 303.178 114.78 301.363C114.429 299.232 114.236 297.259 114.15 295.439C116.467 296.367 122.278 298.552 125.698 298.552C130.037 298.552 133.555 295.913 133.555 292.658C133.555 289.402 130.037 286.763 125.698 286.763C122.253 286.763 116.379 291.959 114.097 294.106C114.085 293.311 114.091 292.55 114.125 291.838C114.264 289.197 114.642 287.132 115.114 285.798C115.196 285.445 115.323 285.163 115.442 284.922C115.555 284.676 115.65 284.469 115.726 284.303C115.881 283.964 115.961 283.79 115.961 283.79L115.559 283.498C115.559 283.498 115.441 283.659 115.213 283.971C115.098 284.129 114.956 284.325 114.786 284.559C114.608 284.791 114.412 285.067 114.256 285.408C113.91 286.007 113.559 286.775 113.226 287.686C111.859 286.443 109.262 284.291 107.67 284.291C105.435 284.291 103.623 285.65 103.623 287.327C103.623 289.004 105.435 290.363 107.67 290.363C109.096 290.363 111.334 289.623 112.768 289.088C112.543 289.852 112.333 290.684 112.15 291.598C111.606 294.366 111.321 297.799 111.552 301.719C111.691 303.676 111.853 305.772 112.304 307.952C112.517 309.104 112.787 310.285 113.128 311.49C110.573 309.185 105.935 305.393 103.073 305.393C98.9616 305.393 95.6289 307.893 95.6289 310.978C95.6289 314.062 98.9616 316.562 103.073 316.562C106.231 316.562 111.544 314.595 113.843 313.68C113.977 314.051 114.104 314.419 114.256 314.793C114.518 315.387 114.715 315.957 115.105 316.616L115.645 317.578L115.922 318.051L116.189 318.419L116.724 319.161L116.859 319.348L116.893 319.395L117.048 319.576L117.13 319.667L117.46 320.031C117.905 320.51 118.338 321.026 118.809 321.487C120.658 323.397 122.719 325.117 124.766 326.828C128.836 330.24 133.098 333.579 135.23 338.159C135.45 338.735 135.767 339.329 135.926 339.894L136.182 340.743C136.231 340.901 136.283 341.059 136.328 341.233C133.46 338.661 128.425 334.59 125.299 334.59C120.73 334.59 117.027 337.368 117.027 340.795C117.027 344.222 120.73 347 125.299 347C128.605 347 134.035 345.06 136.79 343.985C136.863 344.622 136.931 345.261 136.985 345.899C137.227 348.767 137.252 351.664 136.794 354.407C136.567 355.775 136.202 357.097 135.671 358.308C135.552 358.641 135.408 358.855 135.284 359.14C132.776 364.457 126.358 366.566 120.783 368.524C119.034 365.749 112.889 356.451 108.37 355.318C103.049 353.985 97.9378 356.14 96.9527 360.132C95.9675 364.123 99.4844 368.44 104.805 369.773C108.08 370.594 113.553 370.228 117.283 369.824C117.258 369.834 117.232 369.844 117.208 369.854C109.822 372.897 99.9151 375.503 94.9923 382.319C90.6724 388.3 92.9002 395.921 96.9259 401.82C93.0101 399.614 85.5031 395.814 81.6604 396.702C76.3168 397.938 72.7237 402.191 73.6366 406.199C74.5495 410.208 79.6208 412.456 84.9654 411.219C89.2853 410.22 96.0745 405.664 98.519 403.953C99.7517 405.468 101.076 406.819 102.393 407.925C104.316 409.54 106.175 411.101 107.958 412.598C108.82 413.33 109.674 414.062 110.418 414.765C110.795 415.1 111.187 415.497 111.572 415.885C111.746 416.064 111.995 416.303 112.104 416.428L112.61 416.984C113.932 418.478 115.118 420.004 116.121 421.531C118.135 424.584 119.621 427.488 120.773 429.921C121.918 432.358 122.743 434.334 123.296 435.68C123.851 437.037 124.147 437.761 124.147 437.761L124.623 437.625C124.623 437.625 124.493 436.85 124.246 435.397C123.967 433.943 123.528 431.819 122.729 429.16C122.352 427.824 121.839 426.37 121.232 424.799C120.634 423.224 119.884 421.551 118.948 419.818C118.009 418.089 116.928 416.261 115.513 414.5L115.464 414.438C118.918 415.757 124.904 417.815 128.63 417.815C134.113 417.815 138.558 414.48 138.558 410.367C138.558 406.254 134.113 402.919 128.63 402.919C124.16 402.919 116.435 409.858 113.734 412.421C113.586 412.257 113.436 412.095 113.271 411.925C112.441 411.048 111.621 410.227 110.739 409.418C105.914 405.01 100.375 400.954 97.4705 394.895C97.2982 394.537 97.1368 394.174 96.9903 393.804C96.625 392.882 96.3844 392.008 96.2467 391.173C99.523 392.454 106.138 394.831 110.143 394.831C115.626 394.831 120.071 391.496 120.071 387.383C120.071 383.27 115.626 379.935 110.143 379.935C106.103 379.935 99.4091 385.598 96.1636 388.582C96.8081 382.62 103.357 379.101 109.199 376.534C113.567 374.614 118.121 373.178 122.647 371.697C127.376 370.149 132.207 367.599 136.061 364.284C136.397 364.014 136.71 363.705 137.009 363.369C137.315 363.017 137.611 362.772 137.923 362.325L138.273 361.862L138.447 361.63L138.637 361.33C138.764 361.12 138.903 360.903 139.034 360.688C141.804 362.649 147.931 366.762 151.95 367.749C157.277 369.057 162.378 366.877 163.344 362.881C164.311 358.889 160.775 354.589 155.448 353.282Z" fill="white"/>
<path d="M124.147 438.262C123.951 438.262 123.768 438.144 123.69 437.952L122.838 435.872C122.249 434.437 121.431 432.487 120.326 430.135C119.372 428.118 117.854 425.059 115.709 421.808C114.74 420.334 113.574 418.824 112.241 417.318L111.739 416.766C111.668 416.684 111.55 416.567 111.43 416.449L111.218 416.236C110.82 415.833 110.45 415.458 110.09 415.139C109.325 414.417 108.461 413.677 107.639 412.979L102.076 408.307C100.828 407.259 99.5735 405.991 98.427 404.623C95.5428 406.619 89.2387 410.742 85.0753 411.705C84.0654 411.939 83.0436 412.058 82.0367 412.058C77.5059 412.058 73.9356 409.748 73.1534 406.311C72.6762 404.214 73.3049 402.004 74.9247 400.087C76.5089 398.213 78.8614 396.838 81.5486 396.216C81.9644 396.12 82.4317 396.071 82.9377 396.071C86.509 396.071 91.8091 398.509 95.4705 400.456C92.9893 396.256 89.8407 388.601 94.5903 382.025C98.6854 376.356 106.129 373.547 112.696 371.068C113.093 370.918 113.486 370.77 113.872 370.624C109.899 370.887 106.731 370.767 104.683 370.254C102.007 369.584 99.6795 368.166 98.1289 366.263C96.5438 364.317 95.9547 362.096 96.4695 360.008C97.2943 356.666 100.811 354.421 105.221 354.421C106.303 354.421 107.402 354.558 108.485 354.83C112.911 355.939 118.552 364.099 120.986 367.919L121.13 367.868C126.455 366.003 132.49 363.888 134.831 358.922C134.879 358.813 134.935 358.702 134.993 358.592C135.064 358.453 135.137 358.313 135.201 358.136C135.705 356.982 136.071 355.709 136.302 354.321C136.702 351.928 136.763 349.187 136.488 345.939C136.452 345.519 136.411 345.098 136.365 344.678C133.353 345.826 128.429 347.496 125.294 347.496C120.46 347.496 116.527 344.489 116.527 340.792C116.527 337.095 120.46 334.087 125.294 334.087C128.057 334.087 132.07 336.926 135.339 339.71C135.257 339.488 135.157 339.261 135.053 339.025C134.951 338.794 134.85 338.564 134.763 338.335C132.843 334.216 129.015 331.023 125.315 327.937L124.347 327.128C122.351 325.459 120.288 323.732 118.451 321.833C118.144 321.533 117.845 321.2 117.547 320.869C117.396 320.701 117.246 320.533 117.094 320.371L116.513 319.719C116.504 319.708 116.462 319.651 116.453 319.639L115.517 318.342L114.671 316.859C114.372 316.354 114.18 315.895 113.994 315.451C113.931 315.299 113.868 315.148 113.8 314.994C113.707 314.765 113.626 314.545 113.548 314.328C110.729 315.427 106.043 317.057 103.071 317.057C98.6933 317.057 95.1319 314.328 95.1319 310.975C95.1319 307.62 98.6933 304.891 103.071 304.891C105.594 304.891 109.253 307.49 112.238 310.043C112.082 309.385 111.94 308.715 111.815 308.041C111.376 305.917 111.211 303.936 111.056 301.752C110.844 298.138 111.054 294.595 111.663 291.498C111.772 290.954 111.895 290.412 112.033 289.879C110.578 290.38 108.871 290.859 107.668 290.859C105.164 290.859 103.126 289.273 103.126 287.324C103.126 285.374 105.164 283.788 107.668 283.788C109.167 283.788 111.314 285.349 113.019 286.836C113.279 286.196 113.55 285.632 113.825 285.154C113.984 284.803 114.201 284.498 114.391 284.251L115.157 283.2C115.318 282.979 115.625 282.93 115.846 283.091L116.247 283.383C116.439 283.523 116.505 283.779 116.406 283.997L115.889 285.129C115.774 285.361 115.664 285.605 115.593 285.909C115.085 287.356 114.743 289.45 114.617 291.862C114.6 292.207 114.591 292.578 114.587 292.971C117.666 290.166 122.523 286.261 125.696 286.261C130.301 286.261 134.048 289.129 134.048 292.654C134.048 296.18 130.302 299.048 125.696 299.048C122.511 299.048 117.366 297.226 114.685 296.184C114.792 297.871 114.987 299.58 115.266 301.277C115.629 303.365 116.044 305.211 116.533 306.914C117.09 308.978 117.821 310.928 118.713 312.716L118.909 313.109C119.069 313.435 119.234 313.772 119.393 313.988L119.855 314.738C119.883 314.787 119.911 314.837 119.949 314.891L120.855 315.994C120.857 315.996 120.86 315.999 120.863 316.001L121.25 316.376C121.4 316.518 121.552 316.668 121.703 316.817C121.959 317.07 122.216 317.324 122.497 317.566C123.869 318.82 125.391 320.045 126.859 321.196C129.388 317.933 133.803 312.84 137.082 312.292C137.68 312.191 138.286 312.141 138.881 312.141C142.793 312.141 145.868 314.23 146.36 317.221C146.932 320.698 143.702 324.146 139.159 324.907C137.157 325.243 133.753 324.93 131.02 324.489C132.283 325.524 133.573 326.645 134.817 327.887C137.401 330.465 139.218 333.06 140.373 335.822C140.474 336.101 140.572 336.349 140.671 336.598C140.878 337.121 141.092 337.662 141.249 338.266L141.579 339.556C141.704 340.059 141.813 340.495 141.843 340.857L142.113 342.843C142.114 342.852 142.12 342.934 142.121 342.943L142.141 343.232C142.199 344.006 142.243 344.789 142.274 345.579C142.37 348.251 142.376 351.78 141.567 355.38C141.433 355.96 141.279 356.535 141.103 357.099C144.72 355.205 150.329 352.628 154.069 352.628C154.619 352.628 155.122 352.683 155.566 352.793C158.245 353.45 160.579 354.857 162.139 356.753C163.733 358.691 164.333 360.91 163.828 362.999C163.015 366.367 159.483 368.629 155.041 368.629C153.979 368.629 152.9 368.496 151.836 368.234C148.006 367.294 142.43 363.675 139.181 361.398L138.669 362.163L138.319 362.626C138.101 362.938 137.885 363.164 137.675 363.382C137.578 363.483 137.481 363.584 137.382 363.697C137.037 364.085 136.708 364.403 136.371 364.672C132.676 367.851 127.852 370.517 122.801 372.17L121.57 372.572C117.528 373.89 113.348 375.254 109.399 376.99C103.962 379.38 98.3458 382.445 96.9418 387.21C100.648 383.925 106.401 379.435 110.145 379.435C115.893 379.435 120.568 382.999 120.568 387.381C120.568 391.762 115.893 395.328 110.145 395.328C106.414 395.328 100.566 393.351 96.918 391.963C97.0537 392.509 97.2319 393.062 97.4517 393.616C97.5943 393.974 97.7507 394.327 97.9171 394.676C100.241 399.522 104.357 403.129 108.338 406.616C109.26 407.423 110.178 408.228 111.073 409.045C111.909 409.814 112.722 410.618 113.63 411.578C113.674 411.622 113.716 411.667 113.759 411.711C117.016 408.659 124.218 402.417 128.631 402.417C134.379 402.417 139.054 405.982 139.054 410.364C139.054 414.746 134.379 418.311 128.631 418.311C125.342 418.311 120.346 416.745 116.885 415.495C117.937 416.981 118.753 418.415 119.383 419.575C120.271 421.219 121.049 422.916 121.696 424.618C122.374 426.37 122.854 427.771 123.206 429.02C123.999 431.657 124.438 433.761 124.733 435.299L125.112 437.538C125.155 437.79 125.003 438.033 124.759 438.102L124.283 438.238C124.237 438.256 124.192 438.262 124.147 438.262ZM98.519 403.456C98.6636 403.456 98.8052 403.519 98.9022 403.639C100.086 405.095 101.403 406.445 102.71 407.542L108.275 412.216C109.108 412.924 109.985 413.674 110.757 414.402C111.12 414.724 111.507 415.115 111.889 415.501L112.127 415.741C112.265 415.877 112.401 416.014 112.477 416.101L112.976 416.65C114.344 418.196 115.539 419.745 116.534 421.257C118.712 424.561 120.252 427.662 121.219 429.708C122.334 432.08 123.159 434.046 123.753 435.491L123.766 435.521L123.76 435.483C123.472 433.98 123.038 431.908 122.257 429.307C121.91 428.08 121.439 426.709 120.772 424.983C120.139 423.319 119.38 421.663 118.513 420.058C117.71 418.58 116.6 416.648 115.129 414.816C114.989 414.641 114.957 414.361 115.088 414.179C115.218 413.996 115.429 413.893 115.639 413.973C118.91 415.222 124.948 417.318 128.63 417.318C133.831 417.318 138.063 414.201 138.063 410.369C138.063 406.537 133.831 403.42 128.63 403.42C124.282 403.42 116.389 410.588 114.074 412.786C113.978 412.877 113.843 412.926 113.717 412.921C113.586 412.917 113.461 412.858 113.371 412.76C113.203 412.577 113.068 412.429 112.919 412.277C112.022 411.329 111.226 410.54 110.407 409.789C109.519 408.978 108.605 408.177 107.688 407.375C103.632 403.82 99.4379 400.145 97.025 395.115C96.8477 394.746 96.6824 394.371 96.5309 393.991C96.1665 393.072 95.9061 392.153 95.7586 391.257C95.7299 391.081 95.7962 390.902 95.9349 390.788C96.0725 390.674 96.2606 390.645 96.426 390.709C99.8864 392.063 106.269 394.333 110.143 394.333C115.344 394.333 119.576 391.216 119.576 387.385C119.576 383.554 115.344 380.437 110.143 380.437C106.191 380.437 99.2834 386.393 96.4972 388.954C96.3448 389.093 96.122 389.123 95.9398 389.03C95.7566 388.936 95.6497 388.737 95.6715 388.531C96.3309 382.431 102.78 378.813 109.001 376.078C112.995 374.323 117.198 372.952 121.263 371.627L122.494 371.225C127.423 369.612 132.127 367.013 135.739 363.907C136.045 363.661 136.335 363.382 136.639 363.038C136.745 362.916 136.853 362.804 136.961 362.692C137.152 362.492 137.333 362.304 137.518 362.04L138.612 360.43C138.684 360.313 138.8 360.232 138.933 360.204C139.066 360.175 139.206 360.205 139.318 360.284C141.822 362.058 148.076 366.29 152.066 367.269C153.054 367.512 154.053 367.634 155.037 367.634C159.015 367.634 162.158 365.679 162.861 362.768C163.29 360.992 162.761 359.084 161.372 357.394C159.948 355.662 157.801 354.374 155.328 353.767C154.96 353.677 154.535 353.631 154.065 353.631C150.133 353.631 143.852 356.729 140.457 358.575C140.275 358.675 140.052 358.649 139.897 358.512C139.741 358.375 139.687 358.155 139.759 357.96C140.097 357.059 140.378 356.116 140.598 355.161C141.381 351.676 141.374 348.231 141.281 345.62C141.25 344.844 141.207 344.072 141.15 343.309L141.008 342.078L140.856 340.973C140.829 340.667 140.73 340.27 140.634 339.886L140.287 338.523C140.145 337.979 139.951 337.49 139.746 336.972C139.644 336.714 139.542 336.456 139.447 336.191C138.352 333.575 136.606 331.085 134.116 328.601C132.403 326.889 130.59 325.406 128.887 324.058C128.707 323.916 128.647 323.668 128.742 323.459C128.836 323.249 129.059 323.131 129.285 323.174C131.427 323.581 134.502 324.067 136.986 324.067C137.759 324.067 138.434 324.02 138.993 323.926C142.998 323.256 145.863 320.323 145.38 317.388C144.975 314.928 142.24 313.143 138.877 313.143C138.336 313.143 137.785 313.189 137.24 313.281C133.955 313.83 128.827 320.251 127.335 322.205C127.255 322.31 127.136 322.379 127.006 322.396C126.873 322.412 126.744 322.376 126.64 322.295C125.038 321.044 123.347 319.697 121.839 318.32C121.551 318.072 121.279 317.803 121.007 317.534C120.861 317.389 120.715 317.245 120.566 317.104L120.187 316.736C120.17 316.722 120.155 316.707 120.141 316.692C120.129 316.68 120.119 316.669 120.108 316.656L119.16 315.499C119.081 315.389 119.038 315.316 118.997 315.243L118.572 314.552C118.383 314.297 118.197 313.92 118.019 313.554L117.829 313.173C116.905 311.32 116.149 309.308 115.578 307.187C115.081 305.456 114.658 303.576 114.288 301.448C113.958 299.449 113.744 297.436 113.65 295.462C113.642 295.292 113.72 295.131 113.857 295.032C113.993 294.933 114.171 294.912 114.327 294.974C116.636 295.899 122.363 298.051 125.693 298.051C129.752 298.051 133.055 295.631 133.055 292.655C133.055 289.68 129.753 287.26 125.693 287.26C122.349 287.26 116.226 292.777 114.43 294.468C114.287 294.604 114.079 294.639 113.898 294.563C113.718 294.485 113.6 294.309 113.596 294.112C113.583 293.256 113.591 292.504 113.624 291.812C113.749 289.434 114.08 287.336 114.562 285.862C114.252 286.437 113.962 287.097 113.685 287.856C113.627 288.011 113.498 288.128 113.339 288.168C113.179 288.207 113.01 288.165 112.889 288.054C110.603 285.977 108.699 284.787 107.664 284.787C105.705 284.787 104.112 285.924 104.112 287.324C104.112 288.722 105.705 289.861 107.664 289.861C108.691 289.861 110.441 289.42 112.59 288.617C112.763 288.551 112.962 288.591 113.099 288.721C113.236 288.85 113.289 289.046 113.236 289.227C113 290.029 112.796 290.858 112.629 291.692C112.036 294.706 111.832 298.162 112.039 301.686C112.191 303.827 112.353 305.772 112.782 307.847C113.004 309.049 113.278 310.224 113.597 311.348C113.659 311.561 113.572 311.79 113.385 311.909C113.198 312.027 112.956 312.006 112.791 311.858C108.585 308.065 105.04 305.889 103.066 305.889C99.2339 305.889 96.117 308.171 96.117 310.975C96.117 313.778 99.2339 316.059 103.066 316.059C106.16 316.059 111.501 314.068 113.654 313.212C113.778 313.163 113.917 313.165 114.039 313.221C114.161 313.277 114.255 313.379 114.301 313.506L114.388 313.747C114.49 314.031 114.591 314.314 114.706 314.602C114.771 314.746 114.837 314.904 114.902 315.063C115.083 315.494 115.253 315.901 115.522 316.356L116.58 318.123L117.487 319.328L117.816 319.692C117.968 319.855 118.122 320.025 118.277 320.198C118.56 320.513 118.844 320.832 119.145 321.125C120.955 322.997 122.999 324.705 124.975 326.358L125.942 327.167C129.727 330.324 133.64 333.587 135.669 337.943C135.764 338.189 135.859 338.403 135.954 338.619C136.117 338.989 136.285 339.371 136.394 339.755L136.646 340.595C136.7 340.764 136.75 340.925 136.797 341.099C136.854 341.312 136.766 341.537 136.58 341.654C136.394 341.77 136.154 341.748 135.991 341.602C133.275 339.169 128.275 335.085 125.29 335.085C121.001 335.085 117.513 337.644 117.513 340.791C117.513 343.938 121.001 346.497 125.29 346.497C128.483 346.497 133.748 344.628 136.603 343.515C136.747 343.461 136.907 343.474 137.037 343.553C137.168 343.633 137.256 343.77 137.273 343.924C137.347 344.567 137.416 345.21 137.469 345.853C137.751 349.187 137.687 352.01 137.273 354.486C137.028 355.956 136.638 357.309 136.115 358.506C136.047 358.697 135.957 358.875 135.867 359.05C135.819 359.143 135.771 359.235 135.726 359.337C133.201 364.693 126.958 366.881 121.45 368.811L120.935 368.992C120.716 369.068 120.478 368.983 120.355 368.788C116.754 363.074 111.681 356.662 108.241 355.8C107.235 355.548 106.217 355.421 105.215 355.421C101.268 355.421 98.1369 357.361 97.424 360.251C96.9864 362.024 97.5062 363.934 98.8884 365.631C100.304 367.37 102.445 368.668 104.916 369.287C107.401 369.911 111.756 369.918 117.221 369.327C117.462 369.3 117.693 369.459 117.754 369.7C117.815 369.941 117.691 370.191 117.463 370.284C116.006 370.884 114.565 371.428 113.038 372.004C106.601 374.433 99.3052 377.186 95.3853 382.614C90.2922 389.663 95.0467 398.197 97.327 401.538C97.4567 401.728 97.4398 401.985 97.2854 402.157C97.1299 402.328 96.8784 402.369 96.6774 402.256C93.2388 400.319 86.8813 397.07 82.9318 397.07C82.5001 397.07 82.107 397.11 81.7644 397.19C79.2832 397.764 77.1198 399.024 75.6723 400.736C74.2604 402.407 73.7069 404.308 74.1119 406.089C74.7891 409.063 77.9703 411.062 82.0298 411.062C82.9624 411.062 83.91 410.952 84.8466 410.735C89.0328 409.767 95.5992 405.385 98.2289 403.546C98.323 403.486 98.421 403.456 98.519 403.456Z" fill="#1D2445"/>
<path d="M138.625 489.501H102.982L92.0903 427.619H149.517L138.625 489.501Z" fill="white"/>
<path d="M138.624 490H102.981C102.74 490 102.535 489.826 102.493 489.588L91.6022 427.706C91.5764 427.56 91.616 427.412 91.7101 427.298C91.8042 427.185 91.9428 427.119 92.0893 427.119H149.516C149.662 427.119 149.801 427.184 149.895 427.298C149.989 427.411 150.029 427.56 150.003 427.706L139.112 489.588C139.071 489.826 138.865 490 138.624 490ZM103.395 489.002H138.21L148.925 428.118H92.6804L103.395 489.002Z" fill="#1D2445"/>
</g>
<g clip-path="url(#clip9)">
<path d="M465.262 228H464.498V167.563H465.262V228ZM465.262 158.383H464.498V150.732H465.262V158.383ZM465.262 141.552H464.498V88H465.262V141.552Z" fill="#1D2445"/>
<path d="M501.19 224.175H500.426V214.995H501.19V224.175ZM501.19 207.344H500.426V198.164H501.19V207.344ZM501.19 175.213H500.426V136.962H501.19V175.213ZM501.19 127.781H500.426V120.131H501.19V127.781ZM501.19 110.951H500.426V88H501.19V110.951Z" fill="#1D2445"/>
<path d="M537.118 88H536.353V228H537.118V88Z" fill="#1D2445"/>
<path d="M573.046 228H572.281V167.563H573.046V228ZM573.046 158.383H572.281V150.732H573.046V158.383ZM573.046 141.552H572.281V88H573.046V141.552Z" fill="#1D2445"/>
<path d="M608.974 227.999H608.209V205.048H608.974V227.999ZM608.974 195.868H608.209V188.218H608.974V195.868ZM608.974 179.037H608.209V140.786H608.974V179.037ZM608.974 117.835H608.209V108.655H608.974V117.835ZM608.974 101.005H608.209V91.8242H608.974V101.005Z" fill="#1D2445"/>
<path d="M563.49 109.804H540.558V109.039H563.49V109.804ZM531.385 109.804H523.74V109.039H531.385V109.804ZM514.567 109.804H476.346V109.039H514.567V109.804Z" fill="#1D2445"/>
<path d="M617 144.994H458V145.759H617V144.994Z" fill="#1D2445"/>
<path d="M617 181.716H563.49V180.951H617V181.716ZM554.317 181.716H546.673V180.951H554.317V181.716ZM537.5 181.716H476.346V180.951H537.5V181.716Z" fill="#1D2445"/>
<path d="M464.061 185.749L462.641 183.039L510.992 157.654L513.272 166.781L520.271 146.47L531.573 164.244L541.389 152.91L559.173 175.899L580.27 117.248L589.618 141.91L603.5 137.048L604.51 139.936L587.815 145.784L580.345 126.075L560.164 182.178L541.256 157.736L531.196 169.352L521.095 153.465L512.805 177.525L508.969 162.172L464.061 185.749Z" fill="#1D2445"/>
</g>
<path d="M391.5 196C412.763 196 430 178.763 430 157.5C430 136.237 412.763 119 391.5 119C370.237 119 353 136.237 353 157.5C353 178.763 370.237 196 391.5 196Z" fill="white"/>
<path d="M391.5 198C369.168 198 351 179.832 351 157.5C351 135.168 369.168 117 391.5 117C413.832 117 432 135.168 432 157.5C432 179.832 413.832 198 391.5 198ZM391.5 121C371.374 121 355 137.374 355 157.5C355 177.626 371.374 194 391.5 194C411.626 194 428 177.626 428 157.5C428 137.374 411.626 121 391.5 121Z" fill="#1D2445"/>
<path d="M414.825 156.5H386.564V158.5H414.825V156.5Z" fill="white"/>
<path d="M414.825 159H386.565C386.289 159 386.065 158.776 386.065 158.5V156.5C386.065 156.224 386.289 156 386.565 156H414.826C415.102 156 415.326 156.224 415.326 156.5V158.5C415.325 158.777 415.102 159 414.825 159ZM387.065 158H414.326V157H387.065V158Z" fill="#1D2445"/>
<path d="M395.169 155.244L393.754 153.83L371.049 176.535L372.464 177.949L395.169 155.244Z" fill="white"/>
<path d="M372.464 178.45C372.336 178.45 372.208 178.401 372.11 178.304L370.696 176.89C370.501 176.695 370.501 176.378 370.696 176.183L393.401 153.478C393.596 153.283 393.913 153.283 394.108 153.478L395.522 154.892C395.717 155.087 395.717 155.404 395.522 155.599L372.818 178.304C372.72 178.402 372.592 178.45 372.464 178.45ZM371.757 176.536L372.464 177.243L394.462 155.245L393.755 154.538L371.757 176.536Z" fill="#1D2445"/>
<path d="M391.5 163C394.538 163 397 160.538 397 157.5C397 154.462 394.538 152 391.5 152C388.462 152 386 154.462 386 157.5C386 160.538 388.462 163 391.5 163Z" fill="white"/>
<path d="M391.5 163.5C388.191 163.5 385.5 160.809 385.5 157.5C385.5 154.191 388.191 151.5 391.5 151.5C394.809 151.5 397.5 154.191 397.5 157.5C397.5 160.809 394.809 163.5 391.5 163.5ZM391.5 152.5C388.743 152.5 386.5 154.743 386.5 157.5C386.5 160.257 388.743 162.5 391.5 162.5C394.257 162.5 396.5 160.257 396.5 157.5C396.5 154.743 394.257 152.5 391.5 152.5Z" fill="#1D2445"/>
<path d="M391.5 160.799C393.322 160.799 394.8 159.322 394.8 157.499C394.8 155.677 393.322 154.199 391.5 154.199C389.677 154.199 388.2 155.677 388.2 157.499C388.2 159.322 389.677 160.799 391.5 160.799Z" fill="#1D2445"/>
<path d="M391.6 124.5L392 136.875L392.3 149.25C392.387 153.375 392.647 157.5 392.5 161.625C392.366 165.75 392.151 169.875 391.6 174H391.4C390.849 169.875 390.634 165.75 390.5 161.625C390.353 157.5 390.613 153.375 390.7 149.25L391 136.875L391.4 124.5H391.6Z" fill="#1D2445"/>
<path d="M391 190.485C409.493 190.485 424.485 175.494 424.485 157C424.485 138.507 409.493 123.516 391 123.516C372.507 123.516 357.515 138.507 357.515 157C357.515 175.494 372.507 190.485 391 190.485Z" fill="white"/>
<path d="M391 191C372.253 191 357 175.747 357 157C357 138.253 372.253 123 391 123C409.747 123 425 138.253 425 157C425 175.747 409.747 191 391 191ZM391 124.03C372.82 124.03 358.03 138.82 358.03 157C358.03 175.18 372.82 189.97 391 189.97C409.18 189.97 423.97 175.18 423.97 157C423.97 138.82 409.18 124.03 391 124.03Z" fill="white"/>
<path d="M391 181.353C404.449 181.353 415.352 170.45 415.352 157.001C415.352 143.551 404.449 132.648 391 132.648C377.551 132.648 366.648 143.551 366.648 157.001C366.648 170.45 377.551 181.353 391 181.353Z" fill="white"/>
<path d="M391 181.868C377.288 181.868 366.132 170.713 366.132 157C366.132 143.288 377.288 132.133 391 132.133C404.712 132.133 415.867 143.289 415.867 157C415.867 170.713 404.712 181.868 391 181.868ZM391 133.163C377.855 133.163 367.162 143.856 367.162 157C367.162 170.145 377.855 180.838 391 180.838C404.144 180.838 414.837 170.145 414.837 157C414.837 143.856 404.145 133.163 391 133.163Z" fill="white"/>
<path d="M391 169.964C398.159 169.964 403.962 164.16 403.962 157.001C403.962 149.842 398.159 144.039 391 144.039C383.841 144.039 378.038 149.842 378.038 157.001C378.038 164.16 383.841 169.964 391 169.964Z" fill="white"/>
<path d="M391 170.478C383.569 170.478 377.523 164.432 377.523 157.001C377.523 149.569 383.569 143.523 391 143.523C398.432 143.523 404.477 149.569 404.477 157.001C404.477 164.432 398.432 170.478 391 170.478ZM391 144.554C384.136 144.554 378.553 150.137 378.553 157.001C378.553 163.865 384.136 169.448 391 169.448C397.863 169.448 403.447 163.865 403.447 157.001C403.447 150.138 397.863 144.554 391 144.554Z" fill="white"/>
<path d="M391 162.401C393.983 162.401 396.401 159.983 396.401 157C396.401 154.018 393.983 151.6 391 151.6C388.017 151.6 385.599 154.018 385.599 157C385.599 159.983 388.017 162.401 391 162.401Z" fill="white"/>
<path d="M432.335 250.324V267.222C432.335 275.383 425.837 282 417.821 282H413V281.841C421.016 281.841 427.514 275.225 427.514 267.063V250.597C427.514 250.597 431.972 250.694 432.335 250.324Z" fill="#1D2445"/>
<path d="M422.839 251.209L429.919 244L437 251.209H422.839Z" fill="#1D2445"/>
<path d="M389.675 129H384.829V139.156H389.675V129Z" fill="#1D2445"/>
<path d="M397.555 129H392.71V139.156H397.555V129Z" fill="#1D2445"/>
<path d="M389.675 176.846H384.829V187H389.675V176.846Z" fill="#1D2445"/>
<path d="M397.555 176.846H392.71V187H397.555V176.846Z" fill="#1D2445"/>
<path d="M396.732 179.336H380V136.4H395.691C399.699 136.4 402.96 139.809 402.96 143.998V151.65C402.96 153.317 402.443 154.86 401.569 156.115C403.06 157.508 404 159.532 404 161.781V171.736C404 175.927 400.741 179.336 396.732 179.336ZM384.846 174.271H396.732C398.067 174.271 399.154 173.134 399.154 171.738V161.783C399.154 160.387 398.067 159.25 396.732 159.25H384.846V174.271ZM384.846 154.183H395.691C397.027 154.183 398.114 153.047 398.114 151.65V143.998C398.114 142.602 397.027 141.466 395.691 141.466H384.846V154.183Z" fill="#1D2445"/>
<g clip-path="url(#clip10)">
<path d="M708.656 255.503L668.922 107.819L629.188 255.503L621.48 253.441L668.922 77.1055L716.364 253.441L708.656 255.503Z" fill="white"/>
<path d="M708.656 256.001C708.569 256.001 708.484 255.979 708.407 255.934C708.292 255.869 708.208 255.76 708.174 255.632L668.922 109.739L629.669 255.633C629.636 255.76 629.552 255.869 629.437 255.935C629.322 256.002 629.186 256.018 629.059 255.985L621.35 253.923C621.084 253.851 620.926 253.578 620.997 253.314L668.44 76.9772C668.557 76.5415 669.287 76.5415 669.404 76.9772L716.846 253.313C716.918 253.578 716.76 253.851 716.493 253.922L708.784 255.984C708.743 255.995 708.699 256.001 708.656 256.001ZM622.091 253.09L628.835 254.895L668.441 107.69C668.558 107.255 669.288 107.255 669.405 107.69L709.009 254.895L715.754 253.09L668.922 79.0255L622.091 253.09Z" fill="#1D2445"/>
<path d="M388.675 255.503L348.942 107.819L309.207 255.503L301.499 253.441L348.942 77.1055L396.384 253.441L388.675 255.503Z" fill="white"/>
<path d="M388.675 256.001C388.588 256.001 388.502 255.979 388.426 255.934C388.311 255.869 388.227 255.76 388.193 255.632L348.942 109.739L309.688 255.633C309.654 255.76 309.571 255.869 309.456 255.935C309.341 256.002 309.204 256.018 309.078 255.985L301.369 253.923C301.103 253.851 300.945 253.578 301.016 253.314L348.46 76.9772C348.577 76.5415 349.307 76.5415 349.424 76.9772L396.865 253.313C396.937 253.578 396.78 253.851 396.512 253.922L388.804 255.984C388.762 255.995 388.719 256.001 388.675 256.001ZM302.109 253.09L308.854 254.895L348.46 107.69C348.577 107.255 349.307 107.255 349.424 107.69L389.028 254.895L395.773 253.09L348.942 79.0255L302.109 253.09Z" fill="#1D2445"/>
<path d="M360.08 85.8398H337.802V105.586H360.08V85.8398Z" fill="white"/>
<path d="M360.08 106.083H337.802C337.527 106.083 337.303 105.86 337.303 105.585V85.8392C337.303 85.5646 337.527 85.3418 337.802 85.3418H360.08C360.356 85.3418 360.579 85.5646 360.579 85.8392V105.585C360.579 105.86 360.356 106.083 360.08 106.083ZM338.301 105.088H359.581V86.3366H338.301V105.088Z" fill="#1D2445"/>
<path d="M360.08 84.8457H337.802V94.6437H360.08V84.8457Z" fill="#1D2445"/>
<path d="M360.08 95.1405H337.802C337.527 95.1405 337.303 94.9177 337.303 94.6431V84.8451C337.303 84.5705 337.527 84.3477 337.802 84.3477H360.08C360.356 84.3477 360.579 84.5705 360.579 84.8451V94.6431C360.579 94.9177 360.356 95.1405 360.08 95.1405ZM338.301 94.1457H359.581V85.3425H338.301V94.1457Z" fill="#1D2445"/>
<path d="M717.502 73.498H301.656V90.7762H717.502V73.498Z" fill="white"/>
<path d="M717.503 91.2729H301.657C301.381 91.2729 301.158 91.0501 301.158 90.7755V73.4974C301.158 73.2228 301.381 73 301.657 73H717.503C717.778 73 718.001 73.2228 718.001 73.4974V90.7755C718.001 91.0511 717.778 91.2729 717.503 91.2729ZM302.156 90.2781H717.004V73.9948H302.156V90.2781Z" fill="#1D2445"/>
</g>
<g clip-path="url(#clip11)">
<path d="M572.325 255.503L612.058 107.819L651.793 255.503L659.501 253.441L612.058 77.1055L564.616 253.441L572.325 255.503Z" fill="white"/>
<path d="M572.325 256.001C572.412 256.001 572.498 255.979 572.574 255.934C572.689 255.869 572.773 255.76 572.807 255.632L612.058 109.739L651.312 255.633C651.346 255.76 651.429 255.869 651.544 255.935C651.659 256.002 651.796 256.018 651.922 255.985L659.631 253.923C659.897 253.851 660.055 253.578 659.984 253.314L612.54 76.9772C612.423 76.5415 611.693 76.5415 611.576 76.9772L564.135 253.313C564.063 253.578 564.22 253.851 564.488 253.922L572.196 255.984C572.238 255.995 572.281 256.001 572.325 256.001ZM658.891 253.09L652.146 254.895L612.54 107.69C612.423 107.255 611.693 107.255 611.576 107.69L571.972 254.895L565.227 253.09L612.058 79.0255L658.891 253.09Z" fill="#1D2445"/>
<path d="M243.498 73.498H659.344V90.7762H243.498V73.498Z" fill="white"/>
<path d="M243.497 91.2729H659.343C659.619 91.2729 659.842 91.0501 659.842 90.7755V73.4974C659.842 73.2228 659.619 73 659.343 73H243.497C243.222 73 242.999 73.2228 242.999 73.4974V90.7755C242.999 91.0511 243.222 91.2729 243.497 91.2729ZM658.844 90.2781H243.996V73.9948H658.844V90.2781Z" fill="#1D2445"/>
</g>
<path d="M575.703 428.214H565.478C562.936 428.214 560.868 426.147 560.868 423.607V420.082C560.868 414.078 555.98 409.192 549.973 409.192C543.966 409.192 539.078 414.078 539.078 420.082V423.134C539.078 425.674 537.009 427.741 534.468 427.741H523.297V424.016H534.469C534.955 424.016 535.352 423.62 535.352 423.134V420.082C535.352 412.023 541.911 405.467 549.973 405.467C558.036 405.467 564.595 412.023 564.595 420.082V423.607C564.595 424.093 564.991 424.489 565.479 424.489H575.704V428.214H575.703Z" fill="white"/>
<path d="M575.703 428.68H565.478C562.679 428.68 560.402 426.404 560.402 423.607V420.082C560.403 414.333 555.724 409.657 549.973 409.657C544.223 409.657 539.544 414.333 539.544 420.081V423.133C539.544 425.93 537.267 428.206 534.468 428.206H523.297C523.04 428.206 522.831 427.997 522.831 427.74V424.015C522.831 423.758 523.04 423.549 523.297 423.549H534.469C534.699 423.549 534.886 423.363 534.886 423.133V420.081C534.885 411.766 541.654 405 549.973 405C558.292 405 565.061 411.766 565.061 420.081V423.606C565.061 423.836 565.249 424.022 565.479 424.022H575.704C575.961 424.022 576.17 424.231 576.17 424.488V428.213C576.169 428.471 575.961 428.68 575.703 428.68ZM549.973 408.725C556.238 408.725 561.334 413.82 561.334 420.081V423.606C561.334 425.889 563.192 427.747 565.478 427.747H575.237V424.953H565.478C564.734 424.953 564.129 424.349 564.129 423.606V420.081C564.13 412.278 557.779 405.931 549.973 405.931C542.168 405.931 535.818 412.278 535.818 420.081V423.133C535.818 423.876 535.213 424.48 534.469 424.48H523.763V427.274H534.469C536.754 427.274 538.613 425.416 538.613 423.133V420.081C538.612 413.82 543.709 408.725 549.973 408.725Z" fill="#1D2445"/>
<path d="M600.534 428.016H498.466V504.534H600.534V428.016Z" fill="white"/>
<path d="M600.534 505.001H498.466C498.209 505.001 498 504.792 498 504.535V428.016C498 427.759 498.209 427.551 498.466 427.551H600.534C600.791 427.551 601 427.759 601 428.016V504.535C601 504.792 600.791 505.001 600.534 505.001ZM498.932 504.07H600.068V428.482H498.932V504.07Z" fill="#1D2445"/>
<path d="M549.5 483.923C547.119 483.923 544.793 483.754 542.545 483.435V487.168H556.455V483.434C554.207 483.755 551.882 483.923 549.5 483.923Z" fill="#1D2445"/>
<path d="M556.455 480.612V472.395H542.545V480.612C544.786 480.947 547.111 481.129 549.5 481.129C551.889 481.129 554.215 480.947 556.455 480.612Z" fill="#1D2445"/>
<g clip-path="url(#clip12)">
<path d="M438.642 353.786H445.046L467.27 317.498H460.866L438.642 353.786Z" fill="#1D2445"/>
<path d="M445.046 354.285H438.642C438.461 354.285 438.294 354.187 438.206 354.03C438.118 353.874 438.121 353.681 438.215 353.527L460.439 317.239C460.53 317.091 460.692 317 460.866 317H467.27C467.451 317 467.618 317.098 467.706 317.254C467.794 317.411 467.791 317.604 467.697 317.757L445.473 354.045C445.382 354.194 445.22 354.285 445.046 354.285ZM439.533 353.288H444.765L466.379 317.997H461.147L439.533 353.288Z" fill="#1D2445"/>
<path d="M442.376 356.501H405.5C403.843 356.501 402.5 355.163 402.5 353.512H445.376C445.376 355.163 444.033 356.501 442.376 356.501Z" fill="white"/>
<path d="M442.376 357H405.5C403.57 357 402 355.435 402 353.512C402 353.237 402.224 353.014 402.5 353.014H445.376C445.652 353.014 445.876 353.237 445.876 353.512C445.876 355.435 444.306 357 442.376 357ZM403.05 354.01C403.282 355.146 404.292 356.003 405.5 356.003H442.376C443.584 356.003 444.593 355.146 444.826 354.01H403.05Z" fill="#1D2445"/>
<path d="M468.054 321.612L448.7 352.893C447.83 354.298 445.982 354.736 444.572 353.869L467.074 317.498C468.485 318.365 468.923 320.207 468.054 321.612Z" fill="white"/>
<path d="M446.143 354.812C445.497 354.812 444.862 354.633 444.31 354.293C444.075 354.149 444.002 353.842 444.146 353.608L466.649 317.237C466.719 317.124 466.83 317.044 466.96 317.014C467.088 316.983 467.225 317.005 467.338 317.074C468.981 318.084 469.493 320.237 468.48 321.874L449.125 353.154C448.483 354.193 447.368 354.812 446.143 354.812ZM445.286 353.663C446.377 354.063 447.661 353.622 448.274 352.632L467.628 321.351C468.262 320.326 468.06 319.02 467.211 318.226L445.286 353.663Z" fill="#1D2445"/>
</g>
<defs>
<clipPath id="clip0">
<rect width="57" height="148" fill="white" transform="matrix(-1 0 0 1 417 355)"/>
</clipPath>
<clipPath id="clip1">
<rect width="311" height="148" fill="white" transform="translate(339 356)"/>
</clipPath>
<clipPath id="clip2">
<rect width="303" height="214" fill="white" transform="translate(320 80)"/>
</clipPath>
<clipPath id="clip3">
<rect width="108" height="78" fill="white" transform="translate(163.539 304.904) rotate(-9.85656)"/>
</clipPath>
<clipPath id="clip4">
<rect width="304" height="271" fill="white" transform="translate(147 244)"/>
</clipPath>
<clipPath id="clip5">
<rect width="146" height="126" fill="white" transform="translate(175 374)"/>
</clipPath>
<clipPath id="clip6">
<rect width="34" height="216" fill="white" transform="matrix(-1 0 0 1 639 79)"/>
</clipPath>
<clipPath id="clip7">
<rect width="28" height="45" fill="white" transform="matrix(0 1 1 0 362.5 252.5)"/>
</clipPath>
<clipPath id="clip8">
<rect width="91" height="207" fill="white" transform="translate(73 283)"/>
</clipPath>
<clipPath id="clip9">
<rect width="159" height="116" fill="white" transform="translate(458 93)"/>
</clipPath>
<clipPath id="clip10">
<rect width="345" height="18" fill="white" transform="translate(301 73)"/>
</clipPath>
<clipPath id="clip11">
<rect width="16" height="18" fill="white" transform="matrix(-1 0 0 1 660 73)"/>
</clipPath>
<clipPath id="clip12">
<rect width="67" height="40" fill="white" transform="translate(402 317)"/>
</clipPath>
</defs>
</svg>
