<svg width="1600" height="1200" viewBox="0 0 1600 1200" fill="none" xmlns="http://www.w3.org/2000/svg">
<g clip-path="url(#clip0)">
<path d="M574.742 686.941L637.862 641.34C638.912 640.591 640.098 640.058 641.352 639.771C642.606 639.483 643.904 639.446 645.171 639.663C647.731 640.1 650.01 641.542 651.509 643.671C653.008 645.8 653.604 648.442 653.164 651.016C652.725 653.59 651.286 655.885 649.166 657.396L625.967 674.162L678.608 747.815C679.377 748.865 679.93 750.06 680.233 751.329C680.535 752.597 680.582 753.915 680.37 755.203C680.158 756.491 679.691 757.724 678.998 758.829C678.305 759.934 677.399 760.889 676.333 761.637C675.296 762.391 674.12 762.933 672.875 763.229C671.629 763.525 670.338 763.571 669.076 763.363C667.814 763.155 666.605 762.698 665.52 762.018C664.435 761.339 663.495 760.449 662.755 759.402L610.123 685.523L586.096 702.863C583.972 704.396 581.33 705.019 578.753 704.595C576.176 704.171 573.873 702.734 572.352 700.601C570.831 698.469 570.217 695.814 570.643 693.222C571.07 690.63 572.503 688.313 574.627 686.78L574.742 686.941Z" fill="#23286B"/>
<path d="M1449.14 1059H1131.86C1124.17 1059.03 1116.54 1057.55 1109.42 1054.63C1102.29 1051.72 1095.81 1047.43 1090.35 1042.01C1084.88 1036.58 1080.54 1030.14 1077.56 1023.03C1074.58 1015.93 1073.03 1008.31 1073 1000.61V217.391C1073.03 209.689 1074.58 202.07 1077.56 194.967C1080.54 187.864 1084.88 181.418 1090.35 175.996C1095.81 170.574 1102.29 166.282 1109.42 163.366C1116.54 160.45 1124.17 158.967 1131.86 159.001H1449.14C1464.68 158.937 1479.61 165.052 1490.65 176.001C1501.69 186.951 1507.93 201.838 1508 217.391V1000.61C1507.93 1016.16 1501.69 1031.05 1490.65 1042C1479.61 1052.95 1464.68 1059.06 1449.14 1059Z" fill="url(#paint0_linear)"/>
<path d="M1490.76 260.881H1090.22V958.002H1490.76V260.881Z" fill="white" stroke="url(#paint1_linear)" stroke-width="1.83666" stroke-miterlimit="10"/>
<path d="M1289.37 1029.88C1304.8 1029.88 1317.31 1017.47 1317.31 1002.15C1317.31 986.841 1304.8 974.428 1289.37 974.428C1273.94 974.428 1261.43 986.841 1261.43 1002.15C1261.43 1017.47 1273.94 1029.88 1289.37 1029.88Z" fill="#C1D7FD"/>
<path d="M1320.29 214.911H1260.09C1259.79 214.939 1259.49 214.904 1259.21 214.809C1258.92 214.714 1258.66 214.561 1258.44 214.359C1258.22 214.158 1258.04 213.913 1257.92 213.639C1257.8 213.366 1257.74 213.07 1257.74 212.771C1257.74 212.472 1257.8 212.176 1257.92 211.902C1258.04 211.629 1258.22 211.384 1258.44 211.182C1258.66 210.981 1258.92 210.828 1259.21 210.732C1259.49 210.637 1259.79 210.603 1260.09 210.63H1320.29C1320.59 210.603 1320.89 210.637 1321.17 210.732C1321.45 210.828 1321.71 210.981 1321.93 211.182C1322.16 211.384 1322.33 211.629 1322.45 211.902C1322.57 212.176 1322.64 212.472 1322.64 212.771C1322.64 213.07 1322.57 213.366 1322.45 213.639C1322.33 213.913 1322.16 214.158 1321.93 214.359C1321.71 214.561 1321.45 214.714 1321.17 214.809C1320.89 214.904 1320.59 214.939 1320.29 214.911Z" fill="#428DFC"/>
<path d="M1228.25 221.285C1232.15 221.285 1235.32 218.143 1235.32 214.267C1235.32 210.39 1232.15 207.248 1228.25 207.248C1224.35 207.248 1221.18 210.39 1221.18 214.267C1221.18 218.143 1224.35 221.285 1228.25 221.285Z" fill="#428DFC"/>
<path d="M1489.13 391.515L1412.99 316.606L1468.91 261.891H1446.6L1401.88 305.656L1357.39 261.891H1335.16L1489.13 413.397V391.515Z" fill="#EEEEEE"/>
<path d="M1470.42 692.672L1459.4 703.696L1459.59 703.88L1410.99 751.651L1101.9 447.461L1208.06 343.174L1424.89 556.544L1430.26 562.056L1430.39 561.927L1489.14 619.712V597.866L1441.57 551.069L1489.14 504.511V482.683L1430.39 540.118L1219.18 332.242L1221.18 330.276L1290.82 261.891H1257.42L1091.53 424.844V459.129L1167.85 534.239L1091.53 608.926V630.754L1178.97 545.189L1312.78 676.853L1163.77 822.664L1091.53 751.577V773.46L1152.61 833.577L1091.53 893.364V915.192L1163.73 844.528L1240.07 919.656L1201.9 957.009H1235.3L1416.55 778.972L1489.13 850.389V828.506L1427.68 768.04L1489.13 707.683V674.887L1470.77 692.966L1470.42 692.672ZM1251.09 908.632L1174.88 833.614L1323.91 687.803L1399.81 762.546L1251.09 908.632Z" fill="#EEEEEE"/>
<path d="M654.421 679.648C654.421 679.648 642.365 703.194 621.42 701.985C600.474 700.776 599.598 705.461 589.279 716.011C584.824 720.561 567.365 736.901 553.681 749.314L549.404 704.325C568.693 698.582 594.597 689.881 601.584 682.977C613.042 671.62 616.811 656.512 621.562 651.161C626.354 645.755 628.214 644.864 632.586 647.737C632.586 647.737 635.384 645.48 642.114 639.072C655.937 627.43 660.367 670.005 654.421 679.648Z" fill="url(#paint2_linear)"/>
<path d="M451.658 1177.23L430.031 1238L582.717 1238C582.717 1238 574.889 1222.79 548.789 1211.53C522.69 1200.26 498.332 1177.23 498.332 1177.23H451.659" fill="url(#paint3_linear)"/>
<path d="M342.543 1177.2L320.916 1237.96L473.601 1237.97C473.601 1237.97 465.773 1222.76 439.674 1211.49C413.574 1200.23 389.216 1177.2 389.216 1177.2L342.543 1177.2Z" fill="#F1B505"/>
<path d="M388.018 825.125C406.419 906.479 407.845 895.058 405.01 952.132C402.157 1009.21 411.376 989.954 414.211 1049.88C417.047 1109.81 413.411 1139.4 451.658 1177.24H498.323C498.323 1177.24 502.114 994.491 501.279 942.83C500.705 906.689 489.418 870.076 482.912 840.172L475.781 810.181C468.913 809.799 462.187 808.08 455.971 805.117C439.762 810.583 411.202 811.74 385.427 811.441C386.104 815.892 386.956 820.447 388.018 825.125Z" fill="url(#paint4_linear)"/>
<path d="M342.536 1177.19H389.217C389.217 1177.19 462.788 998.607 466.458 959.822C469.362 928.99 468.109 893.462 464.892 861.072L458.456 804.225C437.324 812.651 389.547 812.074 358.71 810.636C359.56 828.324 362.833 845.809 368.433 862.596C397.792 951.344 377.616 947.14 368.103 973.995C358.537 1000.83 353.423 1017.25 355.598 1042.61C357.808 1068 346.814 1061.27 340.918 1094.07C335.055 1126.9 342.536 1177.19 342.536 1177.19Z" fill="#23286B"/>
<path opacity="0.86" d="M411.436 816.66C411.514 816.476 411.724 816.393 411.905 816.469C412.087 816.548 412.171 816.76 412.095 816.942C412.019 817.124 411.806 817.21 411.626 817.133C411.442 817.056 411.358 816.844 411.436 816.66ZM448.56 816.561C448.741 816.495 448.944 816.589 449.01 816.774C449.098 816.939 449.034 817.144 448.871 817.231C448.857 817.237 448.844 817.246 448.828 817.251C448.64 817.328 448.426 817.236 448.349 817.048C448.272 816.859 448.363 816.642 448.551 816.566C448.555 816.562 448.558 816.562 448.56 816.561ZM430.117 815.506C430.322 815.504 430.489 815.673 430.492 815.879C430.494 816.086 430.327 816.253 430.121 816.255C429.916 816.257 429.749 816.088 429.747 815.882C429.748 815.675 429.913 815.506 430.117 815.506ZM363.905 818.359C364.183 818.105 364.613 818.124 364.866 818.405C364.871 818.41 364.875 818.418 364.881 818.424C365.127 818.706 365.099 819.134 364.819 819.38C364.818 819.383 364.815 819.383 364.814 819.384C364.536 819.638 364.106 819.619 363.854 819.338C363.849 819.333 363.844 819.325 363.838 819.319C363.592 819.039 363.62 818.61 363.9 818.364C363.904 818.363 363.904 818.363 363.905 818.359ZM414.476 860.644C414.855 860.67 415.141 860.997 415.123 861.38C415.104 861.747 414.793 862.029 414.428 862.01C414.414 862.01 414.404 862.007 414.39 862.006C414.011 861.98 413.725 861.653 413.743 861.271C413.773 860.896 414.099 860.612 414.476 860.644ZM415.655 843.926C416.03 843.955 416.306 844.288 416.277 844.665C416.277 844.665 416.277 844.665 416.277 844.667C416.253 845.051 415.925 845.34 415.543 845.314C415.165 845.29 414.88 844.965 414.901 844.583C414.943 844.199 415.273 843.913 415.655 843.926ZM416.807 827.214C417.187 827.257 417.47 827.588 417.457 827.974C417.438 828.342 417.127 828.624 416.763 828.604C416.749 828.604 416.738 828.602 416.725 828.601C416.351 828.585 416.061 828.267 416.076 827.889C416.076 827.881 416.076 827.873 416.079 827.865C416.105 827.484 416.429 827.195 416.807 827.214ZM381.823 843.966C381.985 843.614 382.402 843.461 382.752 843.625C383.102 843.79 383.255 844.208 383.09 844.56C382.928 844.913 382.511 845.066 382.161 844.902C382.157 844.899 382.153 844.898 382.148 844.897C381.808 844.727 381.664 844.315 381.823 843.966ZM389.246 828.979C389.409 828.627 389.825 828.474 390.176 828.638C390.526 828.803 390.679 829.221 390.514 829.573C390.351 829.926 389.935 830.079 389.585 829.915C389.581 829.912 389.576 829.911 389.571 829.91C389.233 829.74 389.088 829.328 389.246 828.979ZM396.671 813.992C396.859 813.653 397.274 813.519 397.623 813.684C397.965 813.864 398.098 814.288 397.921 814.634C397.747 814.968 397.342 815.107 397.002 814.945C396.659 814.765 396.516 814.348 396.671 813.992ZM445.669 848.643C446.011 848.521 446.388 848.702 446.51 849.048C446.515 849.065 446.52 849.082 446.526 849.098C446.644 849.451 446.457 849.836 446.104 849.955C446.103 849.955 446.1 849.957 446.098 849.957C445.739 850.079 445.349 849.889 445.22 849.53C445.12 849.162 445.314 848.779 445.669 848.643ZM440.386 832.778C440.741 832.649 441.132 832.836 441.259 833.193C441.261 833.196 441.262 833.201 441.262 833.206C441.383 833.569 441.195 833.961 440.839 834.09C440.474 834.192 440.091 833.996 439.957 833.638C439.839 833.285 440.025 832.9 440.378 832.781C440.381 832.779 440.384 832.779 440.386 832.778ZM435.124 816.883C435.484 816.761 435.874 816.951 436.003 817.31C436.128 817.668 435.941 818.06 435.586 818.186C435.577 818.19 435.564 818.192 435.554 818.196C435.212 818.32 434.834 818.14 434.71 817.795C434.707 817.786 434.704 817.775 434.701 817.764C434.578 817.404 434.768 817.012 435.124 816.883ZM367.567 836.326C367.746 836.04 368.123 835.954 368.408 836.134C368.693 836.314 368.779 836.694 368.599 836.981C368.42 837.268 368.043 837.354 367.758 837.173C367.474 836.994 367.386 836.616 367.567 836.326ZM375.432 823.654C375.611 823.367 375.988 823.281 376.273 823.462C376.558 823.642 376.644 824.022 376.465 824.309C376.285 824.595 375.908 824.681 375.623 824.501C375.339 824.329 375.248 823.96 375.419 823.676C375.425 823.669 375.428 823.661 375.432 823.654ZM429.55 846.415C429.879 846.338 430.209 846.545 430.283 846.875C430.283 846.879 430.285 846.881 430.285 846.885C430.37 847.204 430.181 847.531 429.865 847.616C429.856 847.618 429.847 847.621 429.838 847.622C429.501 847.693 429.169 847.487 429.079 847.152C429.021 846.824 429.226 846.5 429.55 846.415ZM426.209 831.854C426.538 831.777 426.868 831.984 426.942 832.314C426.942 832.318 426.945 832.32 426.945 832.324C427.03 832.643 426.841 832.97 426.525 833.055C426.516 833.057 426.507 833.059 426.498 833.061C426.172 833.138 425.848 832.938 425.765 832.612C425.687 832.283 425.881 831.945 426.209 831.854ZM422.867 817.291C423.196 817.213 423.525 817.42 423.6 817.753C423.6 817.757 423.601 817.759 423.601 817.763C423.691 818.071 423.517 818.395 423.211 818.485C423.192 818.49 423.174 818.495 423.155 818.5C422.826 818.577 422.496 818.37 422.422 818.04C422.422 818.036 422.419 818.034 422.419 818.026C422.351 817.703 422.547 817.379 422.867 817.291ZM397.983 839.812C398.313 839.885 398.531 840.206 398.48 840.543C398.422 840.875 398.11 841.099 397.779 841.041C397.444 840.989 397.215 840.674 397.261 840.338C397.32 839.996 397.643 839.763 397.983 839.812ZM400.426 825.071C400.756 825.144 400.974 825.464 400.924 825.802C400.866 826.133 400.553 826.357 400.222 826.299C399.899 826.253 399.675 825.954 399.72 825.63C399.722 825.617 399.724 825.606 399.726 825.593C399.781 825.257 400.091 825.024 400.426 825.071ZM452.947 827.525C453.221 827.329 453.603 827.387 453.81 827.654C454.008 827.93 453.947 828.314 453.674 828.512C453.669 828.516 453.66 828.521 453.656 828.526C453.402 828.723 453.038 828.678 452.84 828.423C452.834 828.413 452.824 828.402 452.817 828.391C452.613 828.126 452.66 827.745 452.923 827.541C452.93 827.538 452.938 827.532 452.947 827.525ZM444.347 815.349C444.636 815.161 445.02 815.243 445.207 815.535C445.383 815.811 445.32 816.179 445.058 816.376C444.777 816.568 444.393 816.501 444.194 816.222C443.996 815.954 444.052 815.573 444.318 815.372C444.327 815.363 444.336 815.355 444.347 815.349ZM403.469 812.52C403.668 812.514 403.831 812.669 403.84 812.868C403.846 813.068 403.692 813.235 403.493 813.241C403.295 813.247 403.131 813.092 403.122 812.892C403.115 812.694 403.27 812.526 403.469 812.52ZM404.008 815.545C404.231 815.516 404.44 815.656 404.501 815.875C404.549 816.095 404.413 816.314 404.196 816.367C403.993 816.429 403.778 816.312 403.717 816.109C403.712 816.093 403.709 816.077 403.707 816.061C403.648 815.836 403.782 815.604 404.006 815.545C404.007 815.545 404.008 815.545 404.008 815.545ZM368.268 852.458C368.658 852.52 368.928 852.882 368.876 853.272C368.811 853.66 368.449 853.922 368.064 853.861C367.678 853.795 367.409 853.436 367.456 853.046C367.52 852.658 367.884 852.395 368.268 852.458ZM370.943 835.407C371.328 835.47 371.59 835.838 371.526 836.225C371.463 836.612 371.099 836.877 370.714 836.813C370.329 836.75 370.066 836.382 370.13 835.995C370.192 835.608 370.555 835.345 370.943 835.407ZM373.589 818.359C373.974 818.406 374.25 818.762 374.202 819.152C374.154 819.54 373.802 819.817 373.416 819.769C373.406 819.766 373.395 819.765 373.385 819.764C372.995 819.702 372.725 819.34 372.777 818.95C372.841 818.561 373.203 818.299 373.589 818.359ZM437.859 835.53C438.181 835.3 438.628 835.377 438.856 835.702C439.078 836.014 439.015 836.451 438.713 836.687C438.386 836.912 437.941 836.844 437.699 836.527C437.478 836.205 437.551 835.766 437.859 835.53ZM427.778 821.584C428.094 821.35 428.537 821.42 428.769 821.739C429 822.058 428.931 822.503 428.615 822.737C428.614 822.739 428.612 822.741 428.61 822.741C428.294 822.974 427.851 822.904 427.619 822.586C427.388 822.266 427.457 821.821 427.773 821.587C427.772 821.586 427.773 821.585 427.778 821.584ZM401.672 843.349C402.046 843.259 402.422 843.492 402.512 843.868C402.513 843.873 402.513 843.877 402.516 843.883C402.61 844.262 402.388 844.648 402.014 844.753C401.634 844.829 401.258 844.599 401.146 844.223C401.052 843.836 401.288 843.446 401.672 843.349ZM397.656 826.582C398.018 826.487 398.391 826.703 398.49 827.07C398.494 827.086 398.496 827.099 398.5 827.116C398.591 827.489 398.367 827.867 397.996 827.96C397.996 827.96 397.996 827.96 397.995 827.96C397.611 828.055 397.223 827.821 397.129 827.433V827.432C397.034 827.065 397.248 826.691 397.613 826.592C397.626 826.59 397.641 826.584 397.656 826.582ZM391.317 848.919C391.702 848.838 392.081 849.087 392.162 849.477C392.242 849.866 391.994 850.248 391.608 850.327C391.223 850.408 390.845 850.159 390.763 849.772C390.682 849.382 390.929 849.001 391.317 848.919ZM388.006 832.053C388.397 831.991 388.767 832.245 388.854 832.635C388.913 833.016 388.67 833.376 388.298 833.461C387.913 833.542 387.534 833.293 387.453 832.903C387.382 832.517 387.626 832.143 388.006 832.053ZM384.723 815.207C385.104 815.135 385.471 815.384 385.544 815.767C385.616 816.151 385.369 816.52 384.988 816.594C384.603 816.675 384.224 816.426 384.143 816.036C384.084 815.65 384.341 815.283 384.723 815.207ZM359.446 822.756C359.83 822.837 360.082 823.214 360.009 823.602C359.924 823.986 359.546 824.228 359.166 824.144C358.786 824.075 358.536 823.71 358.605 823.327C358.605 823.325 358.605 823.324 358.607 823.323C358.691 822.94 359.061 822.69 359.446 822.756ZM419.752 827.503C420.069 827.289 420.497 827.374 420.708 827.693C420.713 827.702 420.717 827.71 420.726 827.719C420.941 828.04 420.856 828.477 420.538 828.694C420.211 828.914 419.769 828.832 419.544 828.507C419.325 828.18 419.41 827.737 419.734 827.516C419.74 827.512 419.745 827.506 419.752 827.503ZM410.289 813.194C410.605 812.979 411.034 813.064 411.244 813.384C411.249 813.392 411.254 813.401 411.261 813.409C411.476 813.731 411.391 814.168 411.073 814.384C410.746 814.605 410.304 814.522 410.079 814.198C409.86 813.87 409.945 813.427 410.27 813.207C410.276 813.203 410.282 813.199 410.289 813.194ZM391.404 819.403C391.656 819.275 391.963 819.376 392.089 819.628C392.098 819.644 392.105 819.662 392.112 819.678C392.23 819.95 392.106 820.266 391.837 820.386C391.566 820.506 391.253 820.38 391.134 820.108C391.019 819.837 391.14 819.522 391.404 819.403ZM364.363 818.245C364.655 818.239 364.898 818.469 364.908 818.765C364.908 818.767 364.908 818.768 364.908 818.769C364.902 819.06 364.676 819.297 364.388 819.317C364.095 819.32 363.854 819.088 363.843 818.794C363.825 818.508 364.042 818.264 364.325 818.247C364.337 818.245 364.349 818.245 364.363 818.245Z" fill="white"/>
<path d="M411.596 618.65C392.097 632.251 375.629 649.797 363.245 670.17C342.222 704.445 347.851 717.009 336.453 737.195C325.055 757.382 309.234 782.254 330.446 808.849C330.446 808.849 434.373 817.919 462.308 802.431L439.567 628.198C439.567 628.195 426.38 629.732 411.596 618.65Z" fill="url(#paint5_linear)"/>
<path d="M439.567 628.195C439.567 628.195 454.056 666.865 472.962 692.185C491.868 717.504 499.804 718.385 525.774 710.731C551.743 703.079 556.713 699.908 556.713 699.908L593.719 796.721C593.719 796.721 573.919 816.984 544.895 810.768C515.871 804.552 506.248 804.532 491.964 808.527C477.68 812.523 443.617 813.142 423.778 769.099C403.94 725.057 398.124 685.453 410.063 619.43" fill="#28306D"/>
<path d="M439.137 605.612C437.587 613.076 437.734 620.797 439.568 628.198C439.568 628.198 426.846 634.93 411.322 620.162C411.322 620.162 414.556 611.692 416.929 602.789L439.137 605.612Z" fill="url(#paint6_linear)"/>
<path d="M458.093 553.17C458.093 553.17 460.426 562.044 465.348 567.266C470.272 572.487 474.158 575.618 463.533 581.361C463.533 581.361 457.314 616.597 418.701 604.07C418.701 604.07 389.16 591.541 393.566 579.274C397.972 567.007 417.149 549.78 417.149 549.78L440.731 542.994L458.093 553.17Z" fill="#FFBEB6"/>
<path d="M463.114 589.404C461.674 592.661 457.887 594.124 454.653 592.673C453.482 592.148 452.495 591.283 451.818 590.186C451.295 589.356 452.487 588.38 453.016 589.222C454.352 591.58 457.332 592.4 459.671 591.057C460.553 590.551 461.258 589.778 461.683 588.85C462.11 587.959 463.543 588.507 463.114 589.404Z" fill="#1C2868"/>
<path d="M472.235 512C475.897 537.139 465.855 548.795 454.388 554.136C470.193 548.87 479.487 532.426 475.919 516.051C475.752 515.226 477.01 514.871 477.177 515.703C481.222 534.035 469.747 552.201 451.546 556.275C449.678 556.694 447.777 556.952 445.865 557.045C439.907 558.395 433.78 558.809 427.698 558.269C427.698 558.269 425.101 569.842 419.599 574.42C414.097 578.999 408.831 572.252 405.721 579.48C402.611 586.709 409.309 590.565 416.486 591.77C423.664 592.976 422.708 602.374 422.708 602.374C417.205 604.784 399.26 601.651 386.1 589.119C372.942 576.589 369.829 558.756 369.829 558.756L472.235 512Z" fill="#23286B"/>
<path d="M321.999 510.058C262.852 510.058 207.247 532.973 165.426 574.579C123.602 616.186 100.571 671.507 100.571 730.347V793.545H700.803C696.454 719.789 665.508 651.057 612.557 598.379C555.307 541.424 479.191 510.058 398.229 510.058H321.999ZM321.999 492H398.229C575.652 492 719.483 635.092 719.483 811.603H82.42V730.347C82.4182 598.711 189.683 492 321.999 492Z" fill="#428DFC"/>
<path d="M353.759 500.125H371.91V789.935H353.759V500.125Z" fill="#428DFC"/>
<path d="M822.938 757.434H82.418V941.612H874.664V808.896C874.664 780.473 851.506 757.434 822.938 757.434Z" fill="#428DFC"/>
<path d="M887.37 965.987H825.66C812.183 965.987 801.159 955.018 801.159 941.612V936.194C801.159 922.787 812.185 911.818 825.66 911.818H887.37C889.366 911.818 891 913.444 891 915.43V962.376C891 964.362 889.366 965.987 887.37 965.987Z" fill="#D6D7D8"/>
<path d="M65.6301 965.987H127.339C140.816 965.987 151.841 955.018 151.841 941.612V936.194C151.841 922.787 140.815 911.818 127.339 911.818H65.6301C63.6335 911.818 61.9999 913.444 61.9999 915.43V962.376C61.9999 964.362 63.6335 965.987 65.6301 965.987Z" fill="#D6D7D8"/>
<path d="M204.21 1057C150.019 1057 106.088 1013.26 106.088 959.311C106.088 905.358 150.019 861.621 204.21 861.621C258.401 861.621 302.332 905.358 302.332 959.311C302.332 1013.26 258.401 1057 204.21 1057Z" fill="url(#paint7_linear)"/>
<path d="M204.21 1008.15C177.115 1008.15 155.15 986.286 155.15 959.311C155.15 932.335 177.115 910.467 204.21 910.467C231.306 910.467 253.271 932.335 253.271 959.311C253.271 986.286 231.306 1008.15 204.21 1008.15Z" fill="white"/>
<path d="M204.21 983.17C217.424 983.17 228.177 972.465 228.177 959.308C228.177 946.152 217.424 935.445 204.21 935.445C190.997 935.445 180.244 946.15 180.244 959.308C180.246 972.467 190.997 983.17 204.21 983.17Z" fill="#EEEEEE"/>
<path d="M204.211 939.328C193.126 939.328 184.139 948.276 184.139 959.311C184.139 970.347 193.126 979.293 204.211 979.293C215.295 979.293 224.282 970.346 224.282 959.311C224.282 948.276 215.295 939.328 204.211 939.328ZM204.211 931.572C219.572 931.572 232.07 944.016 232.07 959.309C232.07 974.602 219.572 987.045 204.211 987.045C188.849 987.045 176.351 974.602 176.351 959.309C176.351 944.016 188.849 931.572 204.211 931.572Z" fill="#A1C3FC"/>
<path d="M681.764 1057C627.573 1057 583.642 1013.26 583.642 959.311C583.642 905.358 627.573 861.621 681.764 861.621C735.955 861.621 779.886 905.358 779.886 959.311C779.886 1013.26 735.955 1057 681.764 1057Z" fill="url(#paint8_linear)"/>
<path d="M681.764 1008.15C654.669 1008.15 632.704 986.286 632.704 959.311C632.704 932.335 654.669 910.467 681.764 910.467C708.859 910.467 730.824 932.335 730.824 959.311C730.824 986.286 708.859 1008.15 681.764 1008.15Z" fill="white"/>
<path d="M681.764 983.17C694.977 983.17 705.73 972.465 705.73 959.308C705.73 946.152 694.977 935.445 681.764 935.445C668.548 935.445 657.797 946.15 657.797 959.308C657.797 972.467 668.548 983.17 681.764 983.17Z" fill="#EEEEEE"/>
<path d="M681.764 939.328C670.679 939.328 661.692 948.276 661.692 959.311C661.692 970.347 670.679 979.293 681.764 979.293C692.848 979.293 701.835 970.346 701.835 959.311C701.835 948.276 692.847 939.328 681.764 939.328ZM681.764 931.572C697.125 931.572 709.624 944.016 709.624 959.309C709.624 974.602 697.125 987.045 681.764 987.045C666.403 987.045 653.904 974.602 653.904 959.309C653.904 944.016 666.401 931.572 681.764 931.572Z" fill="#A1C3FC"/>
<path d="M819.462 851.847C799.14 851.847 782.666 835.446 782.666 815.213C782.666 794.981 799.14 778.58 819.462 778.58C839.783 778.58 856.257 794.981 856.257 815.213C856.257 835.446 839.783 851.847 819.462 851.847Z" fill="#EEEEEE"/>
<path d="M112.98 784.219H177.652V828.622H112.98V784.219Z" fill="url(#paint9_linear)"/>
<path d="M432.314 177.908C432.314 228.016 363.5 333.242 363.5 333.242C363.5 333.242 294.687 228.016 294.687 177.908C294.687 159.303 301.937 141.46 314.842 128.304C327.747 115.149 345.25 107.758 363.5 107.758C381.751 107.758 399.254 115.149 412.159 128.304C425.064 141.46 432.314 159.303 432.314 177.908Z" fill="#FCC817"/>
<path d="M363.5 337C362.893 337 362.296 336.847 361.761 336.555C361.226 336.263 360.769 335.841 360.433 335.326C357.602 330.987 291 228.572 291 177.909C291 158.307 298.638 139.508 312.235 125.647C325.831 111.787 344.272 104 363.5 104C382.728 104 401.169 111.787 414.765 125.647C428.362 139.508 436 158.307 436 177.909C436 228.572 369.398 330.987 366.567 335.326C366.231 335.841 365.774 336.263 365.239 336.555C364.704 336.847 364.107 337 363.5 337ZM363.5 111.516C346.233 111.536 329.679 118.537 317.47 130.984C305.26 143.431 298.392 160.306 298.373 177.909C298.373 220.317 350.214 305.277 363.5 326.352C376.786 305.277 428.627 220.317 428.627 177.909C428.608 160.306 421.74 143.431 409.53 130.984C397.321 118.537 380.767 111.536 363.5 111.516Z" fill="#FCC817"/>
<path d="M363.5 217.994C385.217 217.994 402.822 200.047 402.822 177.908C402.822 155.769 385.217 137.822 363.5 137.822C341.783 137.822 324.178 155.769 324.178 177.908C324.178 200.047 341.783 217.994 363.5 217.994Z" fill="white"/>
<path d="M363.5 221.753C354.994 221.753 346.679 219.181 339.606 214.364C332.533 209.546 327.021 202.698 323.766 194.687C320.51 186.676 319.659 177.86 321.318 169.355C322.978 160.85 327.074 153.038 333.089 146.906C339.103 140.774 346.767 136.599 355.11 134.907C363.452 133.215 372.1 134.083 379.959 137.402C387.818 140.72 394.535 146.34 399.26 153.55C403.986 160.76 406.509 169.237 406.509 177.909C406.495 189.532 401.959 200.676 393.897 208.896C385.834 217.115 374.903 221.739 363.5 221.753ZM363.5 141.581C356.452 141.581 349.562 143.711 343.702 147.703C337.842 151.695 333.274 157.368 330.577 164.006C327.88 170.645 327.174 177.949 328.549 184.996C329.924 192.043 333.318 198.516 338.302 203.596C343.286 208.677 349.635 212.137 356.548 213.538C363.461 214.94 370.626 214.221 377.137 211.471C383.649 208.722 389.214 204.065 393.13 198.091C397.046 192.117 399.136 185.094 399.136 177.909C399.125 168.277 395.367 159.044 388.686 152.233C382.006 145.423 372.948 141.592 363.5 141.581Z" fill="#FCC817"/>
<path d="M1357.25 554.21C1357.25 578.081 1324.5 628.21 1324.5 628.21C1324.5 628.21 1291.75 578.081 1291.75 554.21C1291.75 545.347 1295.2 536.847 1301.35 530.579C1307.49 524.312 1315.82 520.791 1324.5 520.791C1333.18 520.791 1341.51 524.312 1347.65 530.579C1353.8 536.847 1357.25 545.347 1357.25 554.21Z" fill="#FCC817"/>
<path d="M1324.5 630C1324.21 630 1323.93 629.927 1323.67 629.788C1323.42 629.649 1323.2 629.448 1323.04 629.203C1321.69 627.135 1290 578.346 1290 554.21C1290 544.871 1293.63 535.916 1300.1 529.313C1306.57 522.71 1315.35 519 1324.5 519C1333.65 519 1342.43 522.71 1348.9 529.313C1355.37 535.916 1359 544.871 1359 554.21C1359 578.346 1327.31 627.135 1325.96 629.203C1325.8 629.448 1325.58 629.649 1325.33 629.788C1325.07 629.927 1324.79 630 1324.5 630ZM1324.5 522.581C1316.28 522.59 1308.41 525.926 1302.6 531.855C1296.79 537.785 1293.52 545.824 1293.51 554.21C1293.51 574.413 1318.18 614.887 1324.5 624.927C1330.82 614.887 1355.49 574.413 1355.49 554.21C1355.48 545.824 1352.21 537.785 1346.4 531.855C1340.59 525.926 1332.72 522.59 1324.5 522.581Z" fill="#FCC817"/>
<path d="M1324.5 573.307C1334.83 573.307 1343.21 564.757 1343.21 554.21C1343.21 543.663 1334.83 535.113 1324.5 535.113C1314.17 535.113 1305.79 543.663 1305.79 554.21C1305.79 564.757 1314.17 573.307 1324.5 573.307Z" fill="white"/>
<path d="M1324.5 575.096C1320.45 575.096 1316.5 573.871 1313.13 571.576C1309.76 569.281 1307.14 566.019 1305.59 562.203C1304.04 558.386 1303.64 554.186 1304.43 550.135C1305.22 546.083 1307.17 542.361 1310.03 539.44C1312.89 536.519 1316.54 534.53 1320.51 533.724C1324.48 532.918 1328.59 533.331 1332.33 534.912C1336.07 536.493 1339.27 539.17 1341.52 542.605C1343.77 546.04 1344.97 550.078 1344.97 554.209C1344.96 559.747 1342.8 565.056 1338.96 568.971C1335.13 572.887 1329.93 575.09 1324.5 575.096ZM1324.5 536.903C1321.15 536.903 1317.87 537.918 1315.08 539.82C1312.29 541.721 1310.12 544.424 1308.83 547.586C1307.55 550.749 1307.21 554.229 1307.87 557.586C1308.52 560.943 1310.14 564.027 1312.51 566.447C1314.88 568.867 1317.9 570.516 1321.19 571.183C1324.48 571.851 1327.89 571.508 1330.99 570.198C1334.09 568.889 1336.74 566.67 1338.6 563.824C1340.46 560.978 1341.46 557.632 1341.46 554.209C1341.45 549.621 1339.66 545.222 1336.49 541.978C1333.31 538.733 1329 536.908 1324.5 536.903Z" fill="#FCC817"/>
<path d="M1023.35 700L883.63 559.988L834.656 609.084L545.04 318.836L416.152 447.997L346 377.696L356.405 367.269L416.152 427.161L545.04 298L834.656 588.23L883.63 539.152L1023.33 679.146L1029.3 673.158L1179.06 523.088L1323 667.355L1312.61 677.764L1179.06 543.924L1023.35 700Z" fill="url(#paint10_linear)"/>
<path d="M363 403C374.598 403 384 393.598 384 382C384 370.402 374.598 361 363 361C351.402 361 342 370.402 342 382C342 393.598 351.402 403 363 403Z" fill="#FCC817"/>
<path d="M1322 696C1333.6 696 1343 686.598 1343 675C1343 663.402 1333.6 654 1322 654C1310.4 654 1301 663.402 1301 675C1301 686.598 1310.4 696 1322 696Z" fill="#D8A805"/>
</g>
<defs>
<linearGradient id="paint0_linear" x1="1073" y1="609.001" x2="1508" y2="609.001" gradientUnits="userSpaceOnUse">
<stop stop-color="#A1C3FC"/>
<stop offset="1" stop-color="#78A9EF"/>
</linearGradient>
<linearGradient id="paint1_linear" x1="4647" y1="171167" x2="92429" y2="171167" gradientUnits="userSpaceOnUse">
<stop stop-color="#A1C3FC"/>
<stop offset="1" stop-color="#78A9EF"/>
</linearGradient>
<linearGradient id="paint2_linear" x1="660.337" y1="684.114" x2="546.005" y2="701.13" gradientUnits="userSpaceOnUse">
<stop stop-color="#FFBEB6"/>
<stop offset="1" stop-color="#F2A19C"/>
</linearGradient>
<linearGradient id="paint3_linear" x1="565.003" y1="1163.24" x2="372.894" y2="1339.63" gradientUnits="userSpaceOnUse">
<stop stop-color="#F1B505"/>
<stop offset="1" stop-color="#D89C05"/>
</linearGradient>
<linearGradient id="paint4_linear" x1="661.528" y1="991.18" x2="377.362" y2="991.18" gradientUnits="userSpaceOnUse">
<stop stop-color="#23286B"/>
<stop offset="0.3535" stop-color="#1E2361"/>
<stop offset="1" stop-color="#151A4F"/>
</linearGradient>
<linearGradient id="paint5_linear" x1="371.188" y1="694.585" x2="480.869" y2="888.679" gradientUnits="userSpaceOnUse">
<stop stop-color="#28306D"/>
<stop offset="0.6955" stop-color="#081B63"/>
<stop offset="1" stop-color="#001660"/>
</linearGradient>
<linearGradient id="paint6_linear" x1="439.476" y1="616.259" x2="411.231" y2="616.259" gradientUnits="userSpaceOnUse">
<stop stop-color="#FFBEB6"/>
<stop offset="1" stop-color="#F2A19C"/>
</linearGradient>
<linearGradient id="paint7_linear" x1="302.331" y1="959.311" x2="106.088" y2="959.311" gradientUnits="userSpaceOnUse">
<stop stop-color="#A1C3FC"/>
<stop offset="1" stop-color="#81AEF2"/>
</linearGradient>
<linearGradient id="paint8_linear" x1="779.887" y1="959.311" x2="583.643" y2="959.311" gradientUnits="userSpaceOnUse">
<stop stop-color="#A1C3FC"/>
<stop offset="1" stop-color="#81AEF2"/>
</linearGradient>
<linearGradient id="paint9_linear" x1="177.753" y1="806.421" x2="113.082" y2="806.421" gradientUnits="userSpaceOnUse">
<stop stop-color="#428DFC"/>
<stop offset="1" stop-color="#1D72D8"/>
</linearGradient>
<linearGradient id="paint10_linear" x1="346" y1="498.991" x2="1323" y2="498.991" gradientUnits="userSpaceOnUse">
<stop stop-color="#FCC817"/>
<stop offset="1" stop-color="#D3AE0A"/>
</linearGradient>
<clipPath id="clip0">
<rect width="1600" height="1200" fill="white"/>
</clipPath>
</defs>
</svg>
