<svg width="1280" height="720" viewBox="0 0 1280 720" fill="none" xmlns="http://www.w3.org/2000/svg">
<g clip-path="url(#clip0)">
<path d="M1319.31 -3H-11.6931V747H1319.31V-3Z" fill="#E0719E"/>
<path d="M410.436 111.028C410.302 110.22 409.889 109.486 409.268 108.952C408.648 108.419 407.86 108.122 407.043 108.112H144.977C144.52 108.107 144.067 108.193 143.644 108.366C143.222 108.539 142.838 108.794 142.515 109.118C142.192 109.441 141.937 109.826 141.764 110.249C141.592 110.673 141.506 111.126 141.51 111.584V315.056C141.513 315.554 141.62 316.045 141.823 316.5C142.025 316.954 142.32 317.361 142.689 317.695C143.325 318.242 144.138 318.539 144.977 318.528H145.393C226.631 308.257 251.148 267.798 277.12 224.979C289.517 204.506 302.399 183.34 322.068 164.116C344.299 142.394 372.487 126.294 408.085 114.982C408.879 114.705 409.549 114.157 409.979 113.434C410.409 112.711 410.571 111.859 410.436 111.028Z" fill="#F3F6E6"/>
<path d="M198.563 176.583C200.478 176.583 202.029 175.029 202.029 173.111C202.029 171.193 200.478 169.639 198.563 169.639C196.649 169.639 195.097 171.193 195.097 173.111C195.097 175.029 196.649 176.583 198.563 176.583Z" fill="#383A48"/>
<path d="M229.066 176.583C230.98 176.583 232.532 175.029 232.532 173.111C232.532 171.193 230.98 169.639 229.066 169.639C227.151 169.639 225.599 171.193 225.599 173.111C225.599 175.029 227.151 176.583 229.066 176.583Z" fill="#383A48"/>
<path d="M259.567 176.583C261.482 176.583 263.034 175.029 263.034 173.111C263.034 171.193 261.482 169.639 259.567 169.639C257.653 169.639 256.101 171.193 256.101 173.111C256.101 175.029 257.653 176.583 259.567 176.583Z" fill="#383A48"/>
<path d="M290.07 176.583C291.984 176.583 293.536 175.029 293.536 173.111C293.536 171.193 291.984 169.639 290.07 169.639C288.155 169.639 286.604 171.193 286.604 173.111C286.604 175.029 288.155 176.583 290.07 176.583Z" fill="#383A48"/>
<path d="M320.572 176.583C322.486 176.583 324.038 175.029 324.038 173.111C324.038 171.193 322.486 169.639 320.572 169.639C318.657 169.639 317.105 171.193 317.105 173.111C317.105 175.029 318.657 176.583 320.572 176.583Z" fill="#383A48"/>
<path d="M351.074 176.583C352.988 176.583 354.54 175.029 354.54 173.111C354.54 171.193 352.988 169.639 351.074 169.639C349.16 169.639 347.608 171.193 347.608 173.111C347.608 175.029 349.16 176.583 351.074 176.583Z" fill="#383A48"/>
<path d="M198.563 207.138C200.478 207.138 202.029 205.583 202.029 203.666C202.029 201.748 200.478 200.193 198.563 200.193C196.649 200.193 195.097 201.748 195.097 203.666C195.097 205.583 196.649 207.138 198.563 207.138Z" fill="#383A48"/>
<path d="M229.066 207.138C230.98 207.138 232.532 205.583 232.532 203.666C232.532 201.748 230.98 200.193 229.066 200.193C227.151 200.193 225.599 201.748 225.599 203.666C225.599 205.583 227.151 207.138 229.066 207.138Z" fill="#383A48"/>
<path d="M259.567 207.138C261.482 207.138 263.034 205.583 263.034 203.666C263.034 201.748 261.482 200.193 259.567 200.193C257.653 200.193 256.101 201.748 256.101 203.666C256.101 205.583 257.653 207.138 259.567 207.138Z" fill="#383A48"/>
<path d="M290.07 207.138C291.984 207.138 293.536 205.583 293.536 203.666C293.536 201.748 291.984 200.193 290.07 200.193C288.155 200.193 286.604 201.748 286.604 203.666C286.604 205.583 288.155 207.138 290.07 207.138Z" fill="#383A48"/>
<path d="M320.572 207.138C322.486 207.138 324.038 205.583 324.038 203.666C324.038 201.748 322.486 200.193 320.572 200.193C318.657 200.193 317.105 201.748 317.105 203.666C317.105 205.583 318.657 207.138 320.572 207.138Z" fill="#383A48"/>
<path d="M351.074 207.138C352.988 207.138 354.54 205.583 354.54 203.666C354.54 201.748 352.988 200.193 351.074 200.193C349.16 200.193 347.608 201.748 347.608 203.666C347.608 205.583 349.16 207.138 351.074 207.138Z" fill="#383A48"/>
<path d="M198.563 237.694C200.478 237.694 202.029 236.14 202.029 234.222C202.029 232.305 200.478 230.75 198.563 230.75C196.649 230.75 195.097 232.305 195.097 234.222C195.097 236.14 196.649 237.694 198.563 237.694Z" fill="#383A48"/>
<path d="M229.066 237.694C230.98 237.694 232.532 236.14 232.532 234.222C232.532 232.305 230.98 230.75 229.066 230.75C227.151 230.75 225.599 232.305 225.599 234.222C225.599 236.14 227.151 237.694 229.066 237.694Z" fill="#383A48"/>
<path d="M259.567 237.694C261.482 237.694 263.034 236.14 263.034 234.222C263.034 232.305 261.482 230.75 259.567 230.75C257.653 230.75 256.101 232.305 256.101 234.222C256.101 236.14 257.653 237.694 259.567 237.694Z" fill="#383A48"/>
<path d="M290.07 237.694C291.984 237.694 293.536 236.14 293.536 234.222C293.536 232.305 291.984 230.75 290.07 230.75C288.155 230.75 286.604 232.305 286.604 234.222C286.604 236.14 288.155 237.694 290.07 237.694Z" fill="#383A48"/>
<path d="M320.572 237.694C322.486 237.694 324.038 236.14 324.038 234.222C324.038 232.305 322.486 230.75 320.572 230.75C318.657 230.75 317.105 232.305 317.105 234.222C317.105 236.14 318.657 237.694 320.572 237.694Z" fill="#383A48"/>
<path d="M351.074 237.694C352.988 237.694 354.54 236.14 354.54 234.222C354.54 232.305 352.988 230.75 351.074 230.75C349.16 230.75 347.608 232.305 347.608 234.222C347.608 236.14 349.16 237.694 351.074 237.694Z" fill="#383A48"/>
<path d="M198.563 268.249C200.478 268.249 202.029 266.695 202.029 264.777C202.029 262.859 200.478 261.305 198.563 261.305C196.649 261.305 195.097 262.859 195.097 264.777C195.097 266.695 196.649 268.249 198.563 268.249Z" fill="#383A48"/>
<path d="M229.066 268.249C230.98 268.249 232.532 266.695 232.532 264.777C232.532 262.859 230.98 261.305 229.066 261.305C227.151 261.305 225.599 262.859 225.599 264.777C225.599 266.695 227.151 268.249 229.066 268.249Z" fill="#383A48"/>
<path d="M259.567 268.249C261.482 268.249 263.034 266.695 263.034 264.777C263.034 262.859 261.482 261.305 259.567 261.305C257.653 261.305 256.101 262.859 256.101 264.777C256.101 266.695 257.653 268.249 259.567 268.249Z" fill="#383A48"/>
<path d="M290.07 268.249C291.984 268.249 293.536 266.695 293.536 264.777C293.536 262.859 291.984 261.305 290.07 261.305C288.155 261.305 286.604 262.859 286.604 264.777C286.604 266.695 288.155 268.249 290.07 268.249Z" fill="#383A48"/>
<path d="M320.572 268.249C322.486 268.249 324.038 266.695 324.038 264.777C324.038 262.859 322.486 261.305 320.572 261.305C318.657 261.305 317.105 262.859 317.105 264.777C317.105 266.695 318.657 268.249 320.572 268.249Z" fill="#383A48"/>
<path d="M351.074 268.249C352.988 268.249 354.54 266.695 354.54 264.777C354.54 262.859 352.988 261.305 351.074 261.305C349.16 261.305 347.608 262.859 347.608 264.777C347.608 266.695 349.16 268.249 351.074 268.249Z" fill="#383A48"/>
<path d="M198.563 298.806C200.478 298.806 202.029 297.251 202.029 295.334C202.029 293.416 200.478 291.861 198.563 291.861C196.649 291.861 195.097 293.416 195.097 295.334C195.097 297.251 196.649 298.806 198.563 298.806Z" fill="#383A48"/>
<path d="M229.066 298.806C230.98 298.806 232.532 297.251 232.532 295.334C232.532 293.416 230.98 291.861 229.066 291.861C227.151 291.861 225.599 293.416 225.599 295.334C225.599 297.251 227.151 298.806 229.066 298.806Z" fill="#383A48"/>
<path d="M259.567 298.806C261.482 298.806 263.034 297.251 263.034 295.334C263.034 293.416 261.482 291.861 259.567 291.861C257.653 291.861 256.101 293.416 256.101 295.334C256.101 297.251 257.653 298.806 259.567 298.806Z" fill="#383A48"/>
<path d="M290.07 298.806C291.984 298.806 293.536 297.251 293.536 295.334C293.536 293.416 291.984 291.861 290.07 291.861C288.155 291.861 286.604 293.416 286.604 295.334C286.604 297.251 288.155 298.806 290.07 298.806Z" fill="#383A48"/>
<path d="M320.572 298.806C322.486 298.806 324.038 297.251 324.038 295.334C324.038 293.416 322.486 291.861 320.572 291.861C318.657 291.861 317.105 293.416 317.105 295.334C317.105 297.251 318.657 298.806 320.572 298.806Z" fill="#383A48"/>
<path d="M351.074 298.806C352.988 298.806 354.54 297.251 354.54 295.334C354.54 293.416 352.988 291.861 351.074 291.861C349.16 291.861 347.608 293.416 347.608 295.334C347.608 297.251 349.16 298.806 351.074 298.806Z" fill="#383A48"/>
<path d="M198.563 329.36C200.478 329.36 202.029 327.806 202.029 325.888C202.029 323.971 200.478 322.416 198.563 322.416C196.649 322.416 195.097 323.971 195.097 325.888C195.097 327.806 196.649 329.36 198.563 329.36Z" fill="#383A48"/>
<path d="M229.066 329.36C230.98 329.36 232.532 327.806 232.532 325.888C232.532 323.971 230.98 322.416 229.066 322.416C227.151 322.416 225.599 323.971 225.599 325.888C225.599 327.806 227.151 329.36 229.066 329.36Z" fill="#383A48"/>
<path d="M259.567 329.36C261.482 329.36 263.034 327.806 263.034 325.888C263.034 323.971 261.482 322.416 259.567 322.416C257.653 322.416 256.101 323.971 256.101 325.888C256.101 327.806 257.653 329.36 259.567 329.36Z" fill="#383A48"/>
<path d="M290.07 329.36C291.984 329.36 293.536 327.806 293.536 325.888C293.536 323.971 291.984 322.416 290.07 322.416C288.155 322.416 286.604 323.971 286.604 325.888C286.604 327.806 288.155 329.36 290.07 329.36Z" fill="#383A48"/>
<path d="M320.572 329.36C322.486 329.36 324.038 327.806 324.038 325.888C324.038 323.971 322.486 322.416 320.572 322.416C318.657 322.416 317.105 323.971 317.105 325.888C317.105 327.806 318.657 329.36 320.572 329.36Z" fill="#383A48"/>
<path d="M351.074 329.36C352.988 329.36 354.54 327.806 354.54 325.888C354.54 323.971 352.988 322.416 351.074 322.416C349.16 322.416 347.608 323.971 347.608 325.888C347.608 327.806 349.16 329.36 351.074 329.36Z" fill="#383A48"/>
<path d="M198.563 359.917C200.478 359.917 202.029 358.363 202.029 356.445C202.029 354.527 200.478 352.973 198.563 352.973C196.649 352.973 195.097 354.527 195.097 356.445C195.097 358.363 196.649 359.917 198.563 359.917Z" fill="#383A48"/>
<path d="M229.066 359.917C230.98 359.917 232.532 358.363 232.532 356.445C232.532 354.527 230.98 352.973 229.066 352.973C227.151 352.973 225.599 354.527 225.599 356.445C225.599 358.363 227.151 359.917 229.066 359.917Z" fill="#383A48"/>
<path d="M259.567 359.917C261.482 359.917 263.034 358.363 263.034 356.445C263.034 354.527 261.482 352.973 259.567 352.973C257.653 352.973 256.101 354.527 256.101 356.445C256.101 358.363 257.653 359.917 259.567 359.917Z" fill="#383A48"/>
<path d="M290.07 359.917C291.984 359.917 293.536 358.363 293.536 356.445C293.536 354.527 291.984 352.973 290.07 352.973C288.155 352.973 286.604 354.527 286.604 356.445C286.604 358.363 288.155 359.917 290.07 359.917Z" fill="#383A48"/>
<path d="M320.572 359.917C322.486 359.917 324.038 358.363 324.038 356.445C324.038 354.527 322.486 352.973 320.572 352.973C318.657 352.973 317.105 354.527 317.105 356.445C317.105 358.363 318.657 359.917 320.572 359.917Z" fill="#383A48"/>
<path d="M351.074 359.917C352.988 359.917 354.54 358.363 354.54 356.445C354.54 354.527 352.988 352.973 351.074 352.973C349.16 352.973 347.608 354.527 347.608 356.445C347.608 358.363 349.16 359.917 351.074 359.917Z" fill="#383A48"/>
<path d="M198.563 390.472C200.478 390.472 202.029 388.917 202.029 387C202.029 385.082 200.478 383.527 198.563 383.527C196.649 383.527 195.097 385.082 195.097 387C195.097 388.917 196.649 390.472 198.563 390.472Z" fill="#383A48"/>
<path d="M229.066 390.472C230.98 390.472 232.532 388.917 232.532 387C232.532 385.082 230.98 383.527 229.066 383.527C227.151 383.527 225.599 385.082 225.599 387C225.599 388.917 227.151 390.472 229.066 390.472Z" fill="#383A48"/>
<path d="M259.567 390.472C261.482 390.472 263.034 388.917 263.034 387C263.034 385.082 261.482 383.527 259.567 383.527C257.653 383.527 256.101 385.082 256.101 387C256.101 388.917 257.653 390.472 259.567 390.472Z" fill="#383A48"/>
<path d="M290.07 390.472C291.984 390.472 293.536 388.917 293.536 387C293.536 385.082 291.984 383.527 290.07 383.527C288.155 383.527 286.604 385.082 286.604 387C286.604 388.917 288.155 390.472 290.07 390.472Z" fill="#383A48"/>
<path d="M320.572 390.472C322.486 390.472 324.038 388.917 324.038 387C324.038 385.082 322.486 383.527 320.572 383.527C318.657 383.527 317.105 385.082 317.105 387C317.105 388.917 318.657 390.472 320.572 390.472Z" fill="#383A48"/>
<path d="M351.074 390.472C352.988 390.472 354.54 388.917 354.54 387C354.54 385.082 352.988 383.527 351.074 383.527C349.16 383.527 347.608 385.082 347.608 387C347.608 388.917 349.16 390.472 351.074 390.472Z" fill="#383A48"/>
<path d="M198.563 421.028C200.478 421.028 202.029 419.474 202.029 417.556C202.029 415.639 200.478 414.084 198.563 414.084C196.649 414.084 195.097 415.639 195.097 417.556C195.097 419.474 196.649 421.028 198.563 421.028Z" fill="#383A48"/>
<path d="M229.066 421.028C230.98 421.028 232.532 419.474 232.532 417.556C232.532 415.639 230.98 414.084 229.066 414.084C227.151 414.084 225.599 415.639 225.599 417.556C225.599 419.474 227.151 421.028 229.066 421.028Z" fill="#383A48"/>
<path d="M259.567 421.028C261.482 421.028 263.034 419.474 263.034 417.556C263.034 415.639 261.482 414.084 259.567 414.084C257.653 414.084 256.101 415.639 256.101 417.556C256.101 419.474 257.653 421.028 259.567 421.028Z" fill="#383A48"/>
<path d="M290.07 421.028C291.984 421.028 293.536 419.474 293.536 417.556C293.536 415.639 291.984 414.084 290.07 414.084C288.155 414.084 286.604 415.639 286.604 417.556C286.604 419.474 288.155 421.028 290.07 421.028Z" fill="#383A48"/>
<path d="M320.572 421.028C322.486 421.028 324.038 419.474 324.038 417.556C324.038 415.639 322.486 414.084 320.572 414.084C318.657 414.084 317.105 415.639 317.105 417.556C317.105 419.474 318.657 421.028 320.572 421.028Z" fill="#383A48"/>
<path d="M351.074 421.028C352.988 421.028 354.54 419.474 354.54 417.556C354.54 415.639 352.988 414.084 351.074 414.084C349.16 414.084 347.608 415.639 347.608 417.556C347.608 419.474 349.16 421.028 351.074 421.028Z" fill="#383A48"/>
<path d="M198.563 451.583C200.478 451.583 202.029 450.029 202.029 448.111C202.029 446.193 200.478 444.639 198.563 444.639C196.649 444.639 195.097 446.193 195.097 448.111C195.097 450.029 196.649 451.583 198.563 451.583Z" fill="#383A48"/>
<path d="M229.066 451.583C230.98 451.583 232.532 450.029 232.532 448.111C232.532 446.193 230.98 444.639 229.066 444.639C227.151 444.639 225.599 446.193 225.599 448.111C225.599 450.029 227.151 451.583 229.066 451.583Z" fill="#383A48"/>
<path d="M259.567 451.583C261.482 451.583 263.034 450.029 263.034 448.111C263.034 446.193 261.482 444.639 259.567 444.639C257.653 444.639 256.101 446.193 256.101 448.111C256.101 450.029 257.653 451.583 259.567 451.583Z" fill="#383A48"/>
<path d="M290.07 451.583C291.984 451.583 293.536 450.029 293.536 448.111C293.536 446.193 291.984 444.639 290.07 444.639C288.155 444.639 286.604 446.193 286.604 448.111C286.604 450.029 288.155 451.583 290.07 451.583Z" fill="#383A48"/>
<path d="M320.572 451.583C322.486 451.583 324.038 450.029 324.038 448.111C324.038 446.193 322.486 444.639 320.572 444.639C318.657 444.639 317.105 446.193 317.105 448.111C317.105 450.029 318.657 451.583 320.572 451.583Z" fill="#383A48"/>
<path d="M351.074 451.583C352.988 451.583 354.54 450.029 354.54 448.111C354.54 446.193 352.988 444.639 351.074 444.639C349.16 444.639 347.608 446.193 347.608 448.111C347.608 450.029 349.16 451.583 351.074 451.583Z" fill="#383A48"/>
<path d="M198.563 482.138C200.478 482.138 202.029 480.583 202.029 478.666C202.029 476.748 200.478 475.193 198.563 475.193C196.649 475.193 195.097 476.748 195.097 478.666C195.097 480.583 196.649 482.138 198.563 482.138Z" fill="#383A48"/>
<path d="M229.066 482.138C230.98 482.138 232.532 480.583 232.532 478.666C232.532 476.748 230.98 475.193 229.066 475.193C227.151 475.193 225.599 476.748 225.599 478.666C225.599 480.583 227.151 482.138 229.066 482.138Z" fill="#383A48"/>
<path d="M259.567 482.138C261.482 482.138 263.034 480.583 263.034 478.666C263.034 476.748 261.482 475.193 259.567 475.193C257.653 475.193 256.101 476.748 256.101 478.666C256.101 480.583 257.653 482.138 259.567 482.138Z" fill="#383A48"/>
<path d="M290.07 482.138C291.984 482.138 293.536 480.583 293.536 478.666C293.536 476.748 291.984 475.193 290.07 475.193C288.155 475.193 286.604 476.748 286.604 478.666C286.604 480.583 288.155 482.138 290.07 482.138Z" fill="#383A48"/>
<path d="M320.572 482.138C322.486 482.138 324.038 480.583 324.038 478.666C324.038 476.748 322.486 475.193 320.572 475.193C318.657 475.193 317.105 476.748 317.105 478.666C317.105 480.583 318.657 482.138 320.572 482.138Z" fill="#383A48"/>
<path d="M351.074 482.138C352.988 482.138 354.54 480.583 354.54 478.666C354.54 476.748 352.988 475.193 351.074 475.193C349.16 475.193 347.608 476.748 347.608 478.666C347.608 480.583 349.16 482.138 351.074 482.138Z" fill="#383A48"/>
<path d="M892.822 630.22C879.404 614.664 862.736 600.075 843.37 586.87C819.301 570.481 790.874 556.172 758.782 544.28C731.393 534.116 709.33 517.869 691.485 494.569C674.263 472.168 661.954 444.789 651.231 418.585C643.347 399.295 630.136 383.947 613.122 374.267C597.422 365.348 579.301 361.615 560.764 363.412C520.511 367.353 489.456 395.977 481.571 436.354C478.418 452.434 473.954 468.227 468.223 483.576C451.278 529.139 397.329 566.266 355.07 589.361C326.41 604.942 296.578 618.256 265.848 629.183C265.079 629.443 264.428 629.968 264.01 630.664C263.592 631.361 263.435 632.183 263.566 632.985C263.701 633.79 264.115 634.522 264.734 635.053C265.354 635.584 266.14 635.88 266.955 635.889H890.194C890.852 635.9 891.499 635.716 892.053 635.359C892.607 635.002 893.043 634.489 893.306 633.884C893.607 633.297 893.722 632.631 893.635 631.976C893.549 631.322 893.265 630.709 892.822 630.22Z" fill="#F3F6E6"/>
<path d="M723.823 635.89C722.894 582.805 679.803 540.057 626.771 540.057C573.739 540.057 530.648 582.805 529.719 635.89H723.823Z" fill="#F6E049"/>
<path d="M1164.08 108.112H768.874C768.147 108.102 767.436 108.328 766.847 108.755C766.258 109.182 765.822 109.787 765.604 110.482C765.371 111.175 765.359 111.923 765.571 112.623C765.783 113.323 766.208 113.938 766.787 114.385C825.998 158.993 854.803 212.592 875.12 259.221C881.243 273.301 886.879 287.311 892.236 300.832C904.482 331.5 916.032 360.426 931.965 385.1C949.989 412.98 971.207 431.799 998.83 444.206C1002.59 445.879 1006.62 447.551 1010.8 449.015C1048.16 462.467 1100.07 486.862 1134.92 526.452C1155.73 550.08 1160.6 568.203 1160.67 568.412C1161.08 569.945 1162.48 571.306 1164.01 571.306H1164.42C1165.27 571.205 1166.06 570.793 1166.62 570.15C1167.18 569.507 1167.49 568.678 1167.49 567.821V111.596C1167.5 111.141 1167.42 110.689 1167.25 110.265C1167.09 109.841 1166.84 109.455 1166.52 109.13C1166.2 108.805 1165.82 108.547 1165.4 108.372C1164.98 108.197 1164.53 108.109 1164.08 108.112Z" fill="#F3F6E6"/>
<path d="M998.827 444.207C987.271 439.069 976.433 432.446 966.585 424.504C961.319 433.717 957.949 443.893 956.674 454.432C955.399 464.971 956.245 475.659 959.162 485.865C962.079 496.071 967.007 505.588 973.656 513.855C980.306 522.121 988.541 528.969 997.876 533.995C1007.21 539.02 1017.46 542.121 1028.01 543.115C1038.56 544.108 1049.2 542.974 1059.31 539.778C1069.41 536.583 1078.78 531.392 1086.85 524.511C1094.92 517.631 1101.53 509.2 1106.29 499.717C1075.19 475.428 1038.88 459.129 1010.79 449.016C1006.62 447.552 1002.59 445.879 998.827 444.207Z" fill="#4053FA"/>
<path d="M1035.43 384.543C1021.46 384.538 1007.73 388.231 995.645 395.248C983.557 402.266 973.534 412.358 966.592 424.504C976.44 432.446 987.278 439.069 998.834 444.207C1002.59 445.879 1006.63 447.552 1010.8 449.016C1038.89 459.129 1075.2 475.428 1106.3 499.717C1112.38 487.601 1115.26 474.128 1114.68 460.581C1114.09 447.033 1110.05 433.861 1102.95 422.317C1095.85 410.774 1085.91 401.243 1074.1 394.631C1062.28 388.019 1048.97 384.546 1035.43 384.543Z" fill="#AAC6FC"/>
<path d="M590.376 158.806H582.404V150.82H575.472V158.806H567.5V165.751H575.472V173.737H582.404V165.751H590.376V158.806Z" fill="#F3F6E6"/>
<path d="M1140.8 609.5H1132.83V601.514H1125.9V609.5H1117.92V616.444H1125.9V624.43H1132.83V616.444H1140.8V609.5Z" fill="#F3F6E6"/>
<path d="M852.417 385.888H844.445V377.902H837.513V385.888H829.54V392.833H837.513V400.819H844.445V392.833H852.417V385.888Z" fill="#F3F6E6"/>
<path d="M148.414 599.725L143.512 594.814L137.87 600.467L132.234 594.821L127.333 599.731L132.968 605.377L127.336 611.019L132.238 615.929L137.87 610.287L143.508 615.935L148.41 611.025L142.771 605.377L148.414 599.725Z" fill="#F3F6E6"/>
<path d="M436.972 344.944L432.07 340.033L426.428 345.685L420.792 340.039L415.89 344.95L421.526 350.596L415.894 356.237L420.796 361.148L426.428 355.506L432.066 361.155L436.968 356.244L431.329 350.596L436.972 344.944Z" fill="#F3F6E6"/>
<path d="M598.673 199.168H555.501V255.935H598.673V199.168Z" fill="#383A48"/>
<path d="M616.052 227.537H538.151C520.165 227.537 505.562 212.933 505.562 194.946V151.163C505.562 133.176 520.165 118.572 538.151 118.572H616.052C634.038 118.572 648.641 133.176 648.641 151.163V194.975C648.641 212.962 634.038 227.537 616.052 227.537Z" fill="#F3F6E6"/>
<path d="M616.052 228.984H538.151C519.384 228.984 504.116 213.715 504.116 194.946V151.164C504.116 132.396 519.384 117.127 538.151 117.127H616.052C634.818 117.127 650.086 132.396 650.086 151.164V194.975C650.086 213.715 634.818 228.984 616.052 228.984ZM538.151 120.019C520.974 120.019 507.008 133.986 507.008 151.164V194.975C507.008 212.153 520.974 226.121 538.151 226.121H616.052C633.228 226.121 647.195 212.153 647.195 194.975V151.164C647.195 133.986 633.228 120.019 616.052 120.019H538.151Z" fill="#383A48"/>
<path d="M605.034 142.43H549.139C537.196 142.43 527.48 152.146 527.48 164.09V181.99C527.48 193.933 537.196 203.65 549.139 203.65H605.034C616.977 203.65 626.693 193.933 626.693 181.99V164.119C626.722 152.146 617.006 142.43 605.034 142.43Z" fill="#383A48"/>
<path d="M550.006 160.477H549.746C546.045 160.477 543.038 163.484 543.038 167.186V178.898C543.038 182.599 546.045 185.607 549.746 185.607H550.006C553.708 185.607 556.715 182.599 556.715 178.898V167.186C556.744 163.484 553.708 160.477 550.006 160.477Z" fill="#F6E049"/>
<path d="M604.456 160.477H604.196C600.495 160.477 597.487 163.484 597.487 167.186V178.898C597.487 182.599 600.495 185.607 604.196 185.607H604.456C608.157 185.607 611.165 182.599 611.165 178.898V167.186C611.165 163.484 608.157 160.477 604.456 160.477Z" fill="#F6E049"/>
<path d="M577.101 182.367C571.983 182.367 567.79 178.203 567.79 173.055C567.79 172.246 568.426 171.609 569.236 171.609C570.046 171.609 570.682 172.246 570.682 173.055C570.682 176.583 573.544 179.475 577.101 179.475C580.658 179.475 583.521 176.612 583.521 173.055C583.521 172.246 584.157 171.609 584.966 171.609C585.776 171.609 586.412 172.246 586.412 173.055C586.412 178.174 582.219 182.367 577.101 182.367Z" fill="#F6E049"/>
<path d="M577.101 273.256C565.968 273.256 556.975 264.234 556.975 253.129V245.842H597.256V253.129C597.227 264.234 588.234 273.256 577.101 273.256Z" fill="#AAC6FC"/>
<path d="M577.101 274.703C565.188 274.703 555.529 265.015 555.529 253.13V245.842C555.529 245.033 556.166 244.396 556.975 244.396H597.256C598.066 244.396 598.702 245.033 598.702 245.842V253.13C598.673 265.015 588.986 274.703 577.101 274.703ZM558.392 247.259V253.101C558.392 263.396 566.778 271.782 577.072 271.782C587.366 271.782 595.752 263.396 595.752 253.101V247.259H558.392Z" fill="#383A48"/>
<path d="M640.342 247.404H620.129V287.832H640.342C651.503 287.832 660.554 278.781 660.554 267.618C660.554 256.456 651.503 247.404 640.342 247.404Z" fill="#AAC6FC"/>
<path d="M640.342 289.279H620.129C619.319 289.279 618.683 288.643 618.683 287.833V247.405C618.683 246.595 619.319 245.959 620.129 245.959H640.342C652.284 245.959 662 255.676 662 267.619C662 279.562 652.284 289.279 640.342 289.279ZM621.546 286.387H640.313C650.665 286.387 659.079 277.972 659.079 267.619C659.079 257.266 650.665 248.851 640.313 248.851H621.546V286.387Z" fill="#383A48"/>
<path d="M513.861 247.404H534.073V287.832H513.861C502.699 287.832 493.648 278.781 493.648 267.618C493.648 256.456 502.699 247.404 513.861 247.404Z" fill="#AAC6FC"/>
<path d="M534.073 289.279H513.861C501.918 289.279 492.202 279.562 492.202 267.619C492.202 255.676 501.918 245.959 513.861 245.959H534.073C534.883 245.959 535.519 246.595 535.519 247.405V287.833C535.519 288.643 534.883 289.279 534.073 289.279ZM513.861 248.851C503.509 248.851 495.094 257.266 495.094 267.619C495.094 277.972 503.509 286.387 513.861 286.387H532.628V248.851H513.861Z" fill="#383A48"/>
<path d="M621.257 314.553H532.946C520.916 314.553 511.172 304.807 511.172 292.777V271.175C511.172 258.046 521.813 247.404 534.941 247.404H619.319C632.447 247.404 643.089 258.046 643.089 271.175V292.777C643.031 304.807 633.286 314.553 621.257 314.553Z" fill="#F6E049"/>
<path d="M621.257 315.999H532.946C520.136 315.999 509.726 305.589 509.726 292.778V271.176C509.726 257.266 521.032 245.959 534.941 245.959H619.319C633.228 245.959 644.534 257.266 644.534 271.176V292.778C644.477 305.589 634.067 315.999 621.257 315.999ZM534.912 248.851C522.594 248.851 512.589 258.857 512.589 271.176V292.778C512.589 303.998 521.697 313.108 532.917 313.108H621.228C632.447 313.108 641.556 303.998 641.556 292.778V271.176C641.556 258.857 631.551 248.851 619.233 248.851H534.912Z" fill="#383A48"/>
<path d="M607.492 314.553H546.681V296.305C546.681 288.844 552.725 282.771 560.214 282.771H593.959C601.42 282.771 607.492 288.815 607.492 296.305V314.553Z" fill="#F3F6E6"/>
<path d="M608.938 315.999H545.235V296.306C545.235 288.035 551.944 281.326 560.214 281.326H593.959C602.23 281.326 608.938 288.035 608.938 296.306V315.999ZM548.156 313.108H606.076V296.306C606.076 289.655 600.668 284.218 593.988 284.218H560.243C553.592 284.218 548.156 289.626 548.156 296.306V313.108Z" fill="#383A48"/>
<path d="M946.4 208.01C939.15 199.586 928.65 195 916.95 195H819.55C794.85 195 771.7 215.736 767.9 241.257L726.45 519.995C724.55 532.955 727.75 545.018 735.5 553.99C742.75 562.414 753.25 567 764.95 567H862.35C887.05 567 910.2 546.264 914 520.743L955.45 242.005C957.35 229.045 954.15 216.982 946.4 208.01Z" fill="#383A48"/>
<path d="M899 197.492H801.65C778.1 197.492 756.1 217.281 752.5 241.656L711.05 520.394C707.4 544.769 723.55 564.557 747.1 564.557H844.5C868.05 564.557 890.05 544.769 893.65 520.394L935.1 241.656C938.7 217.231 922.55 197.492 899 197.492Z" fill="#F3F6E6"/>
<path d="M844.4 567H747.05C735.35 567 724.85 562.364 717.6 553.99C709.85 545.018 706.6 532.955 708.55 519.995L750 241.257C753.8 215.736 776.95 195 801.65 195H899.05C910.75 195 921.25 199.636 928.5 208.01C936.25 216.982 939.5 229.045 937.55 242.005L896.1 520.743C892.25 546.264 869.1 567 844.4 567ZM801.65 199.985C779.35 199.985 758.4 218.826 754.95 242.005L713.5 520.743C711.8 532.208 714.6 542.875 721.4 550.75C727.7 558.028 736.8 562.065 747.05 562.065H844.45C866.75 562.065 887.7 543.223 891.15 520.045L932.6 241.307C934.3 229.842 931.5 219.175 924.7 211.3C918.4 204.022 909.3 199.985 899.05 199.985H801.65Z" fill="#383A48"/>
<path d="M899 195H798.8C797.4 195 796.3 196.097 796.3 197.492C796.3 198.888 797.4 199.985 798.8 199.985H806.55C807.9 199.985 809.1 200.483 809.9 201.43C810.8 202.477 811.15 203.922 810.95 205.517C810.5 208.508 811.3 211.449 813.15 213.593C814.9 215.636 817.45 216.783 820.3 216.783H875.4C881.15 216.783 886.35 212.147 887.25 206.265C887.75 202.876 890.9 199.985 894.15 199.985H899.1C900.5 199.985 901.6 198.888 901.6 197.492C901.5 196.097 900.4 195 899 195Z" fill="#383A48"/>
<path d="M837.85 552.196H758C756.6 552.196 755.5 551.099 755.5 549.703C755.5 548.308 756.6 547.211 758 547.211H837.8C839.2 547.211 840.3 548.308 840.3 549.703C840.3 551.099 839.2 552.196 837.85 552.196Z" fill="#383A48"/>
<path d="M805.723 398.494L784.482 376.91C782.506 374.902 782.506 371.89 784.482 369.882C786.458 367.874 789.422 367.874 791.398 369.882L808.934 387.702L856.355 337.506C858.331 335.498 861.295 335.498 863.271 337.255C865.247 339.262 865.247 342.274 863.518 344.282L812.639 398.494C810.91 400.502 807.699 400.502 805.723 398.494Z" fill="#383A48"/>
</g>
<defs>
<clipPath id="clip0">
<rect width="1280" height="720" fill="white"/>
</clipPath>
</defs>
</svg>
