<svg width="800" height="800" viewBox="0 0 800 800" fill="none" xmlns="http://www.w3.org/2000/svg">
<path d="M282.5 357.323C282.5 353.02 278.999 349.5 274.72 349.5C254.007 349.5 197.312 349.5 176.891 349.5C174.946 349.5 173.001 350.282 171.639 351.651C170.278 353.02 169.5 354.976 169.5 356.932C169.5 387.441 169.5 501.656 169.5 532.068C169.5 534.024 170.278 535.98 171.639 537.349C173.001 538.718 174.946 539.5 176.891 539.5C197.41 539.5 254.493 539.5 275.012 539.5C276.957 539.5 278.902 538.718 280.263 537.349C281.625 535.98 282.403 534.024 282.403 532.068C282.5 501.754 282.5 388.126 282.5 357.323Z" fill="#00E6B3"/>
<path d="M276.773 434.073V700.727C276.773 708.488 279.578 715.695 285.189 720.684C290.8 726.228 298.094 729 305.388 729C386.744 729 619.029 729 700.385 729C708.24 729 715.534 726.228 720.584 720.684C726.195 715.141 729 707.934 729 700.727C729 634.756 729 472.325 729 406.354C729 398.593 726.195 391.386 720.584 386.397C714.973 380.853 707.679 378.081 700.385 378.081H319.414L239.742 328.742C234.692 323.753 226.837 323.753 221.787 328.742C216.738 333.731 216.738 341.493 221.787 346.482L276.773 434.073Z" fill="#00E6B3"/>
<path d="M565.91 303.211C565.91 303.211 538.114 303.211 516.307 303.211C513.312 303.211 510.437 304.406 508.28 306.556C506.123 308.706 504.925 311.574 504.925 314.56C504.925 317.547 506.123 320.414 508.28 322.565C510.437 324.715 513.312 325.91 516.307 325.91C516.307 325.91 544.104 325.91 565.91 325.91C568.906 325.91 571.781 324.715 573.938 322.565C576.095 320.414 577.293 317.547 577.293 314.56C577.293 311.574 576.095 308.706 573.938 306.556C571.781 304.406 568.906 303.211 565.91 303.211Z" fill="#00E6B3"/>
<path d="M426.327 597.697C426.327 597.697 446.096 597.697 461.432 597.697C463.589 597.697 465.626 598.534 467.064 600.087C468.621 601.64 469.46 603.671 469.46 605.702C469.46 607.852 468.621 609.883 467.064 611.317C465.506 612.87 463.469 613.706 461.432 613.706C461.432 613.706 441.663 613.706 426.327 613.706C424.17 613.706 422.133 612.87 420.696 611.317C419.138 609.763 418.299 607.733 418.299 605.702C418.299 603.551 419.138 601.52 420.696 600.087C422.133 598.534 424.17 597.697 426.327 597.697Z" fill="#00E6B3"/>
<path d="M77.1882 387.195C77.1882 387.195 96.9575 387.195 112.294 387.195C114.45 387.195 116.487 388.032 117.925 389.585C119.483 391.138 120.321 393.169 120.321 395.2C120.321 397.35 119.483 399.381 117.925 400.815C116.367 402.368 114.331 403.204 112.294 403.204C112.294 403.204 92.5244 403.204 77.1882 403.204C75.0315 403.204 72.9947 402.368 71.5569 400.815C69.9993 399.262 69.1606 397.231 69.1606 395.2C69.1606 393.049 69.9993 391.018 71.5569 389.585C72.9947 388.032 75.0315 387.195 77.1882 387.195Z" fill="#00E6B3"/>
<path d="M657.089 613.229C657.089 613.229 674.462 613.229 703.577 613.229C707.531 613.229 711.485 614.782 714.241 617.649C717.116 620.516 718.674 624.339 718.674 628.281C718.674 632.224 717.116 636.166 714.241 638.914C711.365 641.781 707.531 643.334 703.577 643.334C703.577 643.334 686.204 643.334 657.089 643.334C653.135 643.334 649.182 641.781 646.426 638.914C643.55 636.047 641.993 632.224 641.993 628.281C641.993 624.339 643.55 620.397 646.426 617.649C649.182 614.782 653.016 613.229 657.089 613.229Z" fill="#00E6B3"/>
<path d="M479.285 296.041C484.049 296.041 487.911 292.19 487.911 287.44C487.911 282.689 484.049 278.838 479.285 278.838C474.52 278.838 470.658 282.689 470.658 287.44C470.658 292.19 474.52 296.041 479.285 296.041Z" fill="#00E6B3"/>
<path d="M48.6725 555.526C53.4369 555.526 57.2991 551.674 57.2991 546.924C57.2991 542.173 53.4369 538.322 48.6725 538.322C43.9082 538.322 40.0459 542.173 40.0459 546.924C40.0459 551.674 43.9082 555.526 48.6725 555.526Z" fill="#00E6B3"/>
<path d="M753.659 662.926C758.424 662.926 762.286 659.075 762.286 654.324C762.286 649.574 758.424 645.723 753.659 645.723C748.895 645.723 745.033 649.574 745.033 654.324C745.033 659.075 748.895 662.926 753.659 662.926Z" fill="#00E6B3"/>
<path d="M780.857 563.649C787.011 563.649 792 558.674 792 552.538C792 546.402 787.011 541.428 780.857 541.428C774.703 541.428 769.715 546.402 769.715 552.538C769.715 558.674 774.703 563.649 780.857 563.649Z" fill="#00E6B3"/>
<path d="M132.303 377.399C138.457 377.399 143.446 372.424 143.446 366.288C143.446 360.152 138.457 355.178 132.303 355.178C126.149 355.178 121.16 360.152 121.16 366.288C121.16 372.424 126.149 377.399 132.303 377.399Z" fill="#00E6B3"/>
<path d="M522.915 658.861C532.179 658.861 539.689 651.373 539.689 642.136C539.689 632.898 532.179 625.41 522.915 625.41C513.651 625.41 506.141 632.898 506.141 642.136C506.141 651.373 513.651 658.861 522.915 658.861Z" fill="#00E6B3"/>
<path d="M763.484 445.854C755.097 437.611 743.835 432.952 732.093 432.952H684.287C682.49 432.952 680.812 432.354 679.494 431.04C678.296 429.726 677.577 428.054 677.577 426.262C677.577 424.47 678.176 422.797 679.494 421.483C680.812 420.288 682.49 419.571 684.287 419.571H717.65C720.484 419.571 723.281 418.592 725.327 416.637C727.57 414.496 728.714 411.655 728.611 408.559C728.527 406.019 727.512 403.547 725.773 401.691C723.701 399.481 720.959 398.306 717.955 398.306H671.587C668.471 398.306 665.476 397.111 663.2 394.842C660.923 392.572 659.725 389.585 659.725 386.479C659.725 383.373 660.923 380.386 663.2 378.116C665.476 375.846 668.471 374.652 671.587 374.652H686.204C690.757 374.652 695.19 372.86 698.425 369.634C701.66 366.408 703.457 361.988 703.457 357.448C703.457 352.908 701.66 348.488 698.425 345.263C695.19 342.037 690.757 340.245 686.204 340.245H344.973C344.973 340.245 344.983 340.241 344.984 340.241C344.957 340.241 344.932 340.245 344.907 340.245C334.092 340.245 325.325 331.502 325.325 320.719C325.325 310.005 333.978 301.307 344.695 301.193C351.146 301.125 356.686 296.165 357.022 289.742C357.385 282.768 351.82 277 344.906 277H185.349C178.183 277 172.373 282.793 172.373 289.938C172.373 297.084 178.183 302.877 185.349 302.877H192.841C194.279 302.877 195.837 303.474 196.915 304.549C197.993 305.624 198.592 307.058 198.592 308.611C198.592 310.045 197.993 311.598 196.915 312.673C195.837 313.748 194.399 314.346 192.841 314.346H176.047C163.103 314.346 152.081 324.382 151.62 337.28C151.139 350.82 162.005 361.947 175.475 361.947C175.479 361.947 175.481 361.947 175.485 361.947C175.479 361.972 175.475 361.988 175.475 361.988H271.167C272.605 361.988 274.163 362.585 275.241 363.661C276.319 364.736 276.919 366.169 276.919 367.722C276.919 369.156 276.319 370.709 275.241 371.784C274.163 372.86 272.725 373.457 271.167 373.457H218.928C214.495 373.457 210.302 375.249 207.187 378.355C204.072 381.461 202.274 385.643 202.274 390.063C202.274 394.483 204.072 398.665 207.187 401.771C210.302 404.877 214.495 406.669 218.928 406.669H224.44V406.788H254.993C256.79 406.788 258.467 407.386 259.785 408.7C260.983 410.014 261.702 411.687 261.702 413.479C261.702 415.271 261.103 416.943 259.785 418.257C258.467 419.452 256.79 420.169 254.993 420.169H146.321C142.727 420.169 139.252 421.602 136.616 424.231C133.98 426.739 132.542 430.323 132.542 433.908C132.542 437.492 133.98 440.956 136.616 443.584C139.132 446.213 142.727 447.646 146.321 447.646H167.768C170.883 447.646 173.878 448.841 176.155 451.111C178.431 453.381 179.629 456.367 179.629 459.474C179.629 462.58 178.431 465.566 176.155 467.836C173.878 470.106 170.883 471.301 167.768 471.301H44.4789C37.5297 471.301 30.7003 474.168 25.7879 479.066C20.7557 483.964 18 490.655 18 497.703C18 504.632 20.8755 511.442 25.7879 516.34C30.7003 521.358 37.4099 524.105 44.4789 524.105H132.542C137.335 524.105 142.008 526.017 145.363 529.362C148.717 532.827 150.634 537.366 150.634 542.145C150.634 546.924 148.717 551.583 145.363 554.928C141.888 558.273 137.335 560.185 132.542 560.185H112.054C108.819 560.424 105.704 561.857 103.428 564.127C100.792 566.636 99.3539 570.22 99.3539 573.804C99.3539 577.388 100.792 580.853 103.428 583.481C105.944 585.99 109.298 587.423 112.773 587.543L132.063 587.416C146.162 587.416 157.592 598.812 157.592 612.87C157.592 626.928 146.162 638.324 132.063 638.324C132.063 638.324 56.5083 638.324 54.3576 638.324C43.3695 638.324 34.4625 647.206 34.4625 658.161C34.4625 669.118 43.3695 677.999 54.3576 677.999C60.6754 677.999 389.122 677.999 389.122 677.999C389.122 677.999 389.122 677.999 389.123 677.999C398.52 677.999 406.137 670.403 406.137 661.034C406.137 651.665 398.52 644.07 389.123 644.07H359.37C342.022 644.07 327.959 630.048 327.959 612.75C327.959 595.453 342.022 581.431 359.37 581.431C359.626 581.431 359.879 581.444 360.133 581.45C373.706 581.45 566.494 581.45 624.859 581.45C625.219 581.45 625.578 581.45 625.937 581.45H670.508H694.591C699.384 581.45 703.937 579.538 707.291 576.193C710.646 572.848 712.563 568.309 712.563 563.53C712.563 558.751 710.646 554.211 707.291 550.866C704.536 548.238 701.181 546.446 697.467 545.849H659.845C656.61 545.849 653.495 544.534 651.218 542.265C648.942 539.995 647.624 536.889 647.624 533.663C647.624 530.437 648.942 527.331 651.218 525.061C653.495 522.791 656.61 521.477 659.845 521.477L732.093 521.358C743.835 521.358 755.217 516.699 763.484 508.455C771.751 500.093 776.424 488.863 776.424 477.155C776.424 465.447 771.751 454.098 763.484 445.854Z" fill="#00E6B3"/>
<path d="M536.517 163.055L488.521 162.171L430.042 161.094L371.564 160.016L308.623 158.856L251.475 157.794L250.835 117.641L249.925 60.5077C249.831 54.7132 245.042 50 239.244 50H180.708C174.913 50 170.122 54.7132 170.029 60.5067L169.118 117.641L168.503 156.265L137.656 155.697L69.4779 154.44L21.8773 153.564C18.9975 153.504 16.2605 154.595 14.1973 156.619C12.136 158.644 11 161.35 11 164.238V214.803C11 217.692 12.136 220.397 14.1982 222.422C16.2119 224.399 18.8606 225.479 21.6744 225.479C21.7414 225.479 21.8103 225.479 21.8773 225.477L79.1882 224.422L127.948 223.524L167.443 222.796L166.964 252.913L165.789 326.655L164.8 388.195L164.741 391.852L164.644 397.901H164.645L163.722 455.826L162.644 523.467L161.567 591.108L160.507 657.598C160.474 659.665 161.033 661.643 162.093 663.357H138.884C126.879 663.357 117.148 673.086 117.148 685.085V723.182C117.148 725.842 119.306 727.999 121.967 727.999H297.99C300.652 727.999 302.809 725.842 302.809 723.182V685.085C302.809 673.085 293.077 663.357 281.074 663.357H257.864C258.923 661.643 259.482 659.665 259.449 657.599L258.39 591.108L257.312 523.467L256.236 455.826L255.312 397.901H255.313L255.224 392.363L255.158 388.195L254.16 326.148L252.993 252.914L252.488 221.23L308.625 220.186L371.566 219.027L430.044 217.949L478.814 217.051L511.986 216.44C511.118 216.944 510.528 217.874 510.528 218.949V224.712C510.528 226.178 511.612 227.391 513.021 227.594C511.612 227.797 510.528 229.01 510.528 230.476V236.239C510.528 237.705 511.612 238.918 513.021 239.121C511.612 239.324 510.528 240.537 510.528 242.003V247.766C510.528 249.232 511.612 250.445 513.021 250.648C511.612 250.851 510.528 252.064 510.528 253.529V259.294C510.528 260.759 511.612 261.973 513.021 262.175C511.612 262.378 510.528 263.592 510.528 265.057V270.821C510.528 272.286 511.612 273.499 513.021 273.702C511.612 273.905 510.528 275.118 510.528 276.584V282.347C510.528 283.813 511.612 285.026 513.021 285.229C511.612 285.432 510.528 286.645 510.528 288.111V293.874C510.528 295.34 511.612 296.553 513.021 296.756C511.612 296.959 510.528 298.172 510.528 299.638V305.401C510.528 306.867 511.612 308.08 513.021 308.283C511.612 308.486 510.528 309.699 510.528 311.164V316.928C510.528 318.393 511.612 319.607 513.021 319.81C511.612 320.012 510.528 321.226 510.528 322.691V328.455C510.528 329.921 511.613 331.134 513.023 331.337C511.613 331.539 510.528 332.752 510.528 334.219V339.982C510.528 341.448 511.612 342.661 513.021 342.864C511.612 343.067 510.528 344.28 510.528 345.746V351.509C510.528 352.975 511.612 354.188 513.021 354.391C511.612 354.594 510.528 355.807 510.528 357.273V363.036C510.528 364.542 511.677 365.767 513.145 365.918C511.677 366.068 510.528 367.293 510.528 368.799V371.711C510.528 373.319 511.832 374.623 513.441 374.623C515.05 374.623 516.354 373.319 516.354 371.711V368.799C516.354 367.293 515.205 366.068 513.737 365.918C515.205 365.767 516.354 364.542 516.354 363.036V357.273C516.354 355.807 515.27 354.594 513.86 354.391C515.27 354.188 516.354 352.975 516.354 351.509V345.746C516.354 344.28 515.27 343.067 513.86 342.864C515.27 342.661 516.354 341.448 516.354 339.982V334.219C516.354 332.752 515.269 331.539 513.858 331.337C515.269 331.135 516.354 329.922 516.354 328.455V322.691C516.354 321.226 515.27 320.012 513.86 319.81C515.27 319.607 516.354 318.393 516.354 316.928V311.164C516.354 309.699 515.27 308.486 513.86 308.283C515.27 308.08 516.354 306.867 516.354 305.401V299.638C516.354 298.172 515.27 296.959 513.86 296.756C515.27 296.553 516.354 295.34 516.354 293.874V288.111C516.354 286.645 515.27 285.432 513.86 285.229C515.27 285.026 516.354 283.813 516.354 282.347V276.584C516.354 275.118 515.27 273.905 513.86 273.702C515.27 273.499 516.354 272.286 516.354 270.821V265.057C516.354 263.592 515.27 262.378 513.86 262.175C515.27 261.973 516.354 260.759 516.354 259.294V253.529C516.354 252.064 515.27 250.851 513.86 250.648C515.27 250.445 516.354 249.232 516.354 247.766V242.003C516.354 240.537 515.27 239.324 513.86 239.121C515.27 238.918 516.354 237.705 516.354 236.239V230.476C516.354 229.01 515.27 227.797 513.86 227.594C515.27 227.391 516.354 226.178 516.354 224.712V218.949C516.354 217.834 515.72 216.877 514.799 216.388L536.519 215.987C542.299 215.881 547.002 211.092 547.002 205.312V173.73C547 167.95 542.297 163.161 536.517 163.055ZM498.887 206.973L514.48 195.561L529.277 206.413L498.887 206.973ZM184.419 252.913L209.977 229.984L235.535 252.913H184.419ZM235.264 262.619L209.977 284.676L184.689 262.619H235.264ZM202.593 291.117L175.691 314.582L176.429 268.296L202.593 291.117ZM183.611 320.554L209.977 297.557L236.342 320.554H183.611ZM236.102 330.26L209.988 352.49L183.858 330.26H236.102ZM202.5 358.864L174.6 382.615L175.353 335.768L202.5 358.864ZM183.019 388.195L209.989 365.236L236.975 388.195H183.019ZM237.149 397.901L209.989 420.251L182.844 397.901H237.149ZM202.351 426.536L173.52 450.262L174.266 403.413L202.351 426.536ZM182.035 455.826L209.988 432.824L237.925 455.826H182.035ZM237.685 465.532L209.977 487.835L182.269 465.532H237.685ZM202.236 494.066L172.439 518.049L173.194 470.689L202.236 494.066ZM181.191 523.467L209.977 500.297L238.763 523.467H181.191ZM238.437 533.173L209.887 555.477L181.467 533.173H238.437ZM202.007 561.633L171.364 585.572L172.118 538.176L202.007 561.633ZM180.045 591.108L209.872 567.806L239.564 591.108H180.045ZM239.126 600.814L210.048 622.764L180.868 600.814H239.126ZM171.046 605.572L201.987 628.848L170.292 652.773L171.046 605.572ZM210.056 634.919L241.722 658.74H178.499L210.056 634.919ZM218.117 628.834L248.909 605.591L249.658 652.56L218.117 628.834ZM217.752 561.65L247.833 538.15L248.593 585.855L217.752 561.65ZM217.717 494.066L246.759 470.689L247.514 518.049L217.717 494.066ZM217.626 426.538L245.688 403.446L246.434 450.258L217.626 426.538ZM217.476 358.862L244.601 335.772L245.354 382.579L217.476 358.862ZM217.361 291.117L243.524 268.296L244.262 314.582L217.361 291.117ZM217.245 223.462L242.449 200.849L243.181 246.731L217.245 223.462ZM217.034 88.359L240.306 66.3381L241.018 111.048L217.034 88.359ZM233.864 117.641H186.087L209.972 95.0406L233.864 117.641ZM209.971 81.6774L186.745 59.706H233.192L209.971 81.6774ZM202.909 88.3599L178.934 111.046L179.646 66.3546L202.909 88.3599ZM233.647 127.347L209.977 149.206L186.307 127.347H233.647ZM241.376 133.423L242.1 178.869L217.131 155.812L241.376 133.423ZM234.725 185.272H196.137V175.199L209.977 162.418L234.725 185.272ZM186.428 185.272H185.229L186.428 184.166V185.272ZM178.032 167.634L178.056 166.149L179.534 166.177L178.032 167.634ZM178.658 212.882L177.312 212.907L177.333 211.566L178.658 212.882ZM185.497 194.978H186.427V195.813L185.497 194.978ZM196.137 194.978H234.457L209.977 216.941L196.137 204.524V194.978ZM254.615 173.528L272.355 189.521L254.615 205.515V173.528ZM488.521 176.524L506.27 189.54L488.521 202.529V176.524ZM478.812 202.071L462.96 189.487L478.812 176.949V202.071ZM498.861 172.069L529.374 172.631L514.485 183.528L498.861 172.069ZM455.151 183.287L439.646 170.978L470.006 171.537L455.151 183.287ZM404.152 189.476L420.333 176.038V202.871L404.152 189.476ZM396.542 183.176L380.491 169.887L411.848 170.465L396.542 183.176ZM345.518 189.52L361.854 175.395V203.646L345.518 189.52ZM338.097 183.104L321.558 168.802L353.946 169.399L338.097 183.104ZM286.852 189.52L303.386 174.614V204.426L286.852 189.52ZM313.095 174.318L330.677 189.52L313.095 204.723V174.318ZM279.603 182.985L262.658 167.709L295.862 168.326L279.603 182.985ZM279.603 196.055L295.863 210.714L262.659 211.332L279.603 196.055ZM338.097 195.938L353.946 209.643L321.558 210.24L338.097 195.938ZM371.563 175.1L388.942 189.487L371.563 203.92V175.1ZM396.552 195.787L411.998 208.573L380.456 209.155L396.552 195.787ZM430.042 175.748L447.331 189.473L430.042 203.149V175.748ZM455.141 195.673L470.043 207.505L439.471 208.068L455.141 195.673ZM522.695 189.549L537.291 178.866V200.252L522.695 189.549ZM178.578 133.423L202.823 155.812L196.137 161.986V156.774L178.211 156.444L178.578 133.423ZM168.17 177.205L162.283 182.918L144.794 165.535L168.348 165.969L168.17 177.205ZM104.1 182.614L86.1653 164.456L121.393 165.105L104.1 182.614ZM127.948 172.284V206.758L110.923 189.52L127.948 172.284ZM52.3741 189.469L69.4789 171.516V207.492L52.3741 189.469ZM45.6834 182.419L27.6106 163.376L63.2009 164.032L45.6834 182.419ZM38.9782 189.456L20.7093 208.631V170.207L38.9782 189.456ZM45.6698 196.507L63.23 215.008L27.4145 215.668L45.6698 196.507ZM79.1882 171.206L97.2775 189.521L79.1882 207.837V171.206ZM104.1 196.428L121.394 213.937L86.1653 214.586L104.1 196.428ZM137.657 172.13L155.316 189.682L137.657 206.818V172.13ZM144.703 213.508L162.201 196.525L167.775 202.064L167.599 213.086L144.703 213.508ZM196.137 222.267V217.567L202.708 223.462L176.773 246.731L177.158 222.617L196.137 222.267Z" fill="#142664"/>
<path d="M246.415 237.321H174.617C165.133 237.321 157.444 229.635 157.444 220.154V159.804C157.444 150.323 165.133 142.637 174.617 142.637H246.415C255.899 142.637 263.587 150.323 263.587 159.804V220.153C263.587 229.635 255.899 237.321 246.415 237.321Z" fill="#FF2E93"/>
<path d="M248.594 165.756V192.399H173.9V165.756C173.9 160.894 177.842 156.943 182.716 156.943H239.778C240.244 156.943 240.7 156.982 241.147 157.04C243.253 157.38 245.108 158.448 246.438 159.981C247.788 161.534 248.594 163.553 248.594 165.756Z" fill="#00E6B3"/>
<path d="M174.617 239.263C164.077 239.263 155.501 230.691 155.501 220.154V159.804C155.501 149.268 164.076 140.695 174.617 140.695H246.415C256.954 140.695 265.53 149.268 265.53 159.804C265.53 160.876 264.66 161.746 263.588 161.746C262.517 161.746 261.647 160.876 261.647 159.804C261.647 151.409 254.814 144.578 246.415 144.578H174.617C166.218 144.578 159.385 151.409 159.385 159.804V220.154C159.385 228.55 166.217 235.381 174.617 235.381C175.688 235.381 176.558 236.251 176.558 237.322C176.558 238.394 175.688 239.263 174.617 239.263Z" fill="#142664"/>
<path d="M236.272 225.887H208.461C207.389 225.887 206.519 225.017 206.519 223.946C206.519 222.874 207.389 222.004 208.461 222.004H236.272C241.996 222.004 246.652 217.349 246.652 211.629C246.652 210.557 247.522 209.688 248.593 209.688C249.665 209.688 250.535 210.557 250.535 211.629C250.535 219.491 244.137 225.887 236.272 225.887Z" fill="#142664"/>
<path d="M248.593 201.299C247.522 201.299 246.652 200.429 246.652 199.358V180.513C246.652 179.442 247.522 178.572 248.593 178.572C249.665 178.572 250.535 179.442 250.535 180.513V199.358C250.535 200.429 249.666 201.299 248.593 201.299Z" fill="#142664"/>
<path d="M248.593 170.272C247.522 170.272 246.652 169.402 246.652 168.33C246.652 162.609 241.995 157.955 236.272 157.955C235.201 157.955 234.331 157.085 234.331 156.013C234.331 154.942 235.201 154.072 236.272 154.072C244.138 154.072 250.535 160.469 250.535 168.33C250.535 169.402 249.666 170.272 248.593 170.272Z" fill="#142664"/>
<path d="M486.415 410.389C487.588 411.647 489.095 413.103 490.72 414.741C493.199 417.223 496.681 420.299 499.628 422.945C500.198 423.508 500.965 423.736 501.747 423.748C503.096 423.756 505.395 423.876 507.226 423.832C507.792 423.829 508.29 423.559 508.587 423.059C508.884 422.558 508.881 421.992 508.528 421.444C506.377 418.028 502.544 411.925 500.37 407.593C499.983 406.913 499.68 406.282 499.293 405.601C498.905 404.921 499.017 403.972 499.579 403.402C500.853 402.013 502.325 400.289 503.713 398.517C509.266 391.427 514.961 382.953 514.961 382.953C517.045 380.577 516.775 377.034 514.482 374.999C512.105 372.916 508.56 373.186 506.525 375.479C506.525 375.479 498.772 382.283 492.449 388.579C490.81 390.203 489.304 391.794 488.113 393.232C487.55 393.801 487.072 394.42 486.641 394.955C480.768 401.634 477.941 402.216 486.415 410.389Z" fill="#142664"/>
<path d="M513.214 389.169C519.648 389.169 524.865 383.955 524.865 377.522C524.865 371.09 519.648 365.875 513.214 365.875C506.779 365.875 501.562 371.09 501.562 377.522C501.562 383.955 506.779 389.169 513.214 389.169Z" fill="#00E6B3"/>
<path d="M539.289 411.226C538.114 412.448 536.574 413.905 534.852 415.481C532.286 417.909 528.806 420.926 525.791 423.54C525.144 424.061 524.43 424.314 523.647 424.302C522.299 424.294 520.033 424.307 518.119 424.301C517.553 424.304 517.052 424.008 516.782 423.51C516.512 423.012 516.559 422.363 516.856 421.862C519.1 418.453 523.011 412.421 525.317 408.146C525.713 407.478 526.025 406.76 526.421 406.092C526.817 405.424 526.662 404.543 526.225 403.946C524.935 402.506 523.575 400.799 522.183 398.959C516.862 391.749 511.25 383.127 511.25 383.127C509.287 380.724 509.582 377.177 511.902 375.166C514.305 373.204 517.854 373.499 519.866 375.818C519.866 375.818 527.467 382.798 533.715 389.203C535.339 390.841 536.748 392.464 537.989 393.988C538.509 394.634 539.029 395.28 539.432 395.743C545.033 402.67 547.867 403.219 539.289 411.226Z" fill="#142664"/>
<path d="M531.162 405.513C531.162 405.513 532.195 405.674 533.663 405.865C534.396 405.96 535.262 406.022 536.177 406C536.743 405.997 537.226 405.943 537.708 405.891C539.639 405.68 541.219 405.487 541.219 405.487C542.002 405.499 542.614 404.847 542.577 404.148C542.588 403.366 541.936 402.753 541.237 402.791C541.237 402.791 539.687 402.55 537.738 402.412C537.304 402.381 536.738 402.385 536.222 402.305C535.306 402.327 534.474 402.398 533.726 402.519C532.278 402.677 531.263 402.867 531.263 402.867C530.481 402.855 529.868 403.507 529.906 404.206C529.726 404.889 530.38 405.502 531.162 405.513Z" fill="#FF2E93"/>
<path d="M485.026 403.588C485.026 403.588 485.842 403.732 487.093 403.908C487.742 403.955 488.476 404.05 489.125 404.095C489.558 404.126 489.957 404.023 490.307 404.005C491.887 403.813 493.168 403.556 493.168 403.556C493.951 403.567 494.563 402.915 494.525 402.216C494.537 401.434 493.885 400.821 493.185 400.859C493.185 400.859 491.902 400.551 490.385 400.443C489.952 400.412 489.519 400.382 489.17 400.4C488.471 400.438 487.772 400.475 487.156 400.562C485.974 400.653 485.127 400.941 485.127 400.941C484.344 400.929 483.732 401.581 483.769 402.28C483.64 402.88 484.243 403.576 485.026 403.588Z" fill="#FF2E93"/>
<path d="M222.632 201.298H234.489C235.194 201.298 235.766 200.727 235.766 200.022V198.692C235.766 197.988 235.194 197.416 234.489 197.416H222.632C221.927 197.416 221.355 197.988 221.355 198.692V200.022C221.356 200.727 221.927 201.298 222.632 201.298Z" fill="#142664"/>
<path d="M230.259 207.228H233.824C234.897 207.228 235.766 206.359 235.766 205.287C235.766 204.214 234.897 203.346 233.824 203.346H230.259C229.187 203.346 228.318 204.214 228.318 205.287C228.318 206.358 229.188 207.228 230.259 207.228Z" fill="#142664"/>
<path d="M231.233 156.943L195.552 192.4H174.327L210.019 156.943H231.233Z" fill="white"/>
<path d="M246.438 159.982L213.815 192.4H205.562L241.146 157.041C243.253 157.381 245.108 158.449 246.438 159.982Z" fill="white"/>
<path d="M184.759 225.888C176.894 225.888 170.496 219.491 170.496 211.63V168.33C170.496 160.469 176.895 154.072 184.759 154.072H236.272C244.138 154.072 250.535 160.469 250.535 168.33C250.535 169.402 249.665 170.272 248.594 170.272C247.522 170.272 246.652 169.402 246.652 168.33C246.652 162.609 241.995 157.955 236.272 157.955H184.759C179.035 157.955 174.38 162.609 174.38 168.33V211.63C174.38 217.351 179.036 222.005 184.759 222.005C185.831 222.005 186.701 222.875 186.701 223.947C186.701 225.018 185.831 225.888 184.759 225.888Z" fill="#142664"/>
<path d="M466.653 662C464.094 662 462 664.076 462 666.613C462 678.894 462 712.509 462 724.618C462 725.771 462.465 726.924 463.279 727.731C464.094 728.539 465.257 729 466.42 729C484.565 729 552.493 729 570.58 729C571.743 729 572.906 728.539 573.721 727.731C574.535 726.924 575 725.771 575 724.618C575 712.452 575 678.606 575 666.44C575 665.287 574.535 664.133 573.721 663.326C572.906 662.519 571.743 662.058 570.58 662.058C552.551 662 484.972 662 466.653 662Z" fill="#142664"/>
<path d="M592.582 675C590.612 675 589 676.611 589 678.58C589 688.112 589 714.201 589 723.599C589 724.494 589.358 725.389 589.985 726.015C590.612 726.642 591.507 727 592.403 727C606.373 727 658.672 727 672.597 727C673.493 727 674.388 726.642 675.015 726.015C675.642 725.389 676 724.494 676 723.599C676 714.157 676 687.888 676 678.446C676 677.551 675.642 676.656 675.015 676.029C674.388 675.403 673.493 675.045 672.597 675.045C658.716 675 606.687 675 592.582 675Z" fill="#142664"/>
<path d="M446 531.399C446 526.78 442.22 523 437.601 523C415.238 523 354.028 523 331.979 523C329.88 523 327.78 523.84 326.31 525.31C324.84 526.78 324 528.88 324 530.979C324 563.737 324 686.368 324 719.021C324 721.12 324.84 723.22 326.31 724.69C327.78 726.16 329.88 727 331.979 727C354.133 727 415.762 727 437.916 727C440.015 727 442.115 726.16 443.585 724.69C445.055 723.22 445.895 721.12 445.895 719.021C446 686.473 446 564.472 446 531.399Z" fill="#142664"/>
<path d="M563 683.283H515.979V707.26H563V683.283Z" fill="#00E6B3"/>
<path d="M515.979 693.359C514.687 693.359 513.654 692.339 513.654 691.064V683.284C513.654 682.009 514.687 680.988 515.979 680.988H523.859C525.151 680.988 526.184 682.009 526.184 683.284C526.184 688.896 521.534 693.359 515.979 693.359ZM518.304 685.58V688.258C519.467 687.748 520.5 686.727 521.017 685.58H518.304Z" fill="#142664"/>
<path d="M563 683.283H555.12C555.12 687.492 558.608 690.935 563 690.935V683.283Z" fill="#142664"/>
<path d="M515.979 707.389V699.609C520.242 699.609 523.73 703.053 523.73 707.389H515.979Z" fill="#142664"/>
<path d="M563 707.389V699.609C558.737 699.609 555.249 703.053 555.249 707.389H563Z" fill="#142664"/>
<path d="M539.475 701.705C543.043 701.705 545.934 698.85 545.934 695.328C545.934 691.806 543.043 688.951 539.475 688.951C535.908 688.951 533.016 691.806 533.016 695.328C533.016 698.85 535.908 701.705 539.475 701.705Z" fill="#142664"/>
<path d="M518.691 669L478 692.212L490.143 713L530.834 689.788L518.691 669Z" fill="#00E6B3"/>
<path d="M478 692.211L484.847 688.385C487.043 692.083 485.751 696.802 482.005 698.97L478 692.211Z" fill="#142664"/>
<path d="M518.691 669L511.845 672.826C514.041 676.525 518.821 677.8 522.567 675.632L518.691 669Z" fill="#142664"/>
<path d="M490.143 713.001L486.268 706.241C490.014 704.201 494.793 705.476 496.989 709.047L490.143 713.001Z" fill="#142664"/>
<path d="M530.834 689.916L526.959 683.156C523.213 685.324 521.921 690.043 524.117 693.742L530.834 689.916Z" fill="#142664"/>
<path d="M501.123 685.58C504.223 683.794 508.099 684.815 509.907 687.875C511.716 690.936 510.682 694.762 507.582 696.548C504.482 698.333 500.606 697.313 498.798 694.252C497.118 691.191 498.152 687.365 501.123 685.58Z" fill="#142664"/>
<path d="M530.834 689.916L523.988 678.31C523.213 676.907 523.6 675.121 525.021 674.356C526.442 673.591 528.251 673.974 529.026 675.377L537.293 689.405C538.068 690.808 537.681 692.594 536.26 693.359L509.778 708.408C508.357 709.174 506.549 708.791 505.774 707.388C504.998 705.985 505.386 704.2 506.807 703.434L530.834 689.916Z" fill="#142664"/>
<path d="M656.941 284.909C656.941 282.24 655.912 279.775 654.059 277.927C652.206 276.079 649.633 275.053 647.06 275.053H305.94C303.264 275.053 300.794 276.079 298.941 277.927C297.088 279.775 296.059 282.342 296.059 284.909V538.09C296.059 540.759 297.088 543.223 298.941 545.071C300.794 546.919 303.367 547.946 305.94 547.946H647.06C649.736 547.946 652.206 546.919 654.059 545.071C655.912 543.223 656.941 540.657 656.941 538.09V284.909Z" fill="white"/>
<path d="M658.897 284.91C658.897 281.727 657.662 278.749 655.397 276.491C653.133 274.232 650.148 273 646.957 273H305.94C302.749 273 299.764 274.232 297.5 276.491C295.235 278.749 294 281.727 294 284.91V538.09C294 541.273 295.235 544.251 297.5 546.509C299.764 548.768 302.749 550 305.94 550C357.613 550 595.387 550 647.06 550C650.251 550 653.236 548.768 655.5 546.509C657.765 544.251 659 541.273 659 538.09V284.91H658.897ZM654.986 284.91V538.09C654.986 540.246 654.162 542.197 652.618 543.737C651.177 545.175 649.118 546.099 646.957 546.099C595.285 546.099 357.51 546.099 305.837 546.099C303.676 546.099 301.72 545.277 300.176 543.737C298.735 542.3 297.809 540.246 297.809 538.09V284.91C297.809 282.754 298.632 280.803 300.176 279.263C301.72 277.825 303.676 276.901 305.837 276.901H646.957C649.118 276.901 651.074 277.723 652.618 279.263C654.162 280.803 654.986 282.856 654.986 284.91Z" fill="#142664"/>
<path d="M502.027 309.774H441.606C440.961 309.774 440.358 309.46 439.989 308.935C439.62 308.408 439.532 307.734 439.752 307.131C439.753 307.129 442.527 299.54 444.79 293.183C446.913 287.3 452.583 283.352 458.9 283.352H484.839C491.25 283.352 496.784 287.204 498.94 293.166C504.502 308.121 504.502 308.121 503.422 309.197C503.053 309.567 502.55 309.774 502.027 309.774ZM500.092 308.149H500.104H500.092ZM444.424 305.836H499.33C498.452 303.309 496.924 299.064 495.236 294.526C495.234 294.52 495.232 294.514 495.229 294.508C493.647 290.123 489.567 287.289 484.838 287.289H458.899C454.242 287.289 450.065 290.189 448.506 294.508C447.075 298.534 445.435 303.056 444.424 305.836Z" fill="#142664"/>
<path d="M568.728 309.774H508.306C507.662 309.774 507.058 309.46 506.689 308.935C506.321 308.407 506.232 307.734 506.452 307.131C506.453 307.129 509.229 299.54 511.49 293.184C513.615 287.3 519.284 283.352 525.6 283.352H551.539C557.951 283.352 563.485 287.204 565.641 293.167C571.201 308.114 571.201 308.114 570.131 309.191C569.759 309.564 569.255 309.774 568.728 309.774ZM566.795 308.15H566.805H566.795ZM511.126 305.836H566.029C565.144 303.285 563.601 298.998 561.936 294.526C561.934 294.52 561.932 294.514 561.929 294.508C560.347 290.123 556.268 287.289 551.538 287.289H525.599C520.942 287.289 516.766 290.189 515.206 294.508C513.776 298.534 512.136 303.056 511.126 305.836Z" fill="#142664"/>
<path d="M376.655 303.287L380.052 293.842C381.905 288.708 386.743 285.32 392.301 285.32C399.918 285.32 410.623 285.32 418.24 285.32C423.695 285.32 428.636 288.708 430.489 293.842L433.886 303.287H638.619C643.869 303.287 648.089 307.497 648.089 312.733V346.511H304.911C304.911 346.511 304.911 325.464 304.911 312.733C304.911 307.497 309.131 303.287 314.381 303.287H376.655Z" fill="#00E6B3"/>
<path d="M302.955 350.31V534.395C302.955 538.194 306.043 541.274 309.852 541.274C348.657 541.274 604.24 541.274 643.045 541.274C646.854 541.274 649.942 538.194 649.942 534.395C649.942 504.621 649.942 350.31 649.942 350.31C649.942 349.181 649.015 348.359 647.986 348.359C646.854 348.359 646.03 349.283 646.03 350.31C646.03 350.31 646.03 504.621 646.03 534.395C646.03 536.038 644.692 537.372 643.045 537.372C604.24 537.372 348.657 537.372 309.852 537.372C308.205 537.372 306.867 536.038 306.867 534.395V350.31C306.867 349.181 305.94 348.359 304.911 348.359C303.881 348.359 302.955 349.181 302.955 350.31Z" fill="#142664"/>
<path d="M311.807 295.793C315.616 295.793 318.704 292.713 318.704 288.914C318.704 285.115 315.616 282.035 311.807 282.035C307.999 282.035 304.911 285.115 304.911 288.914C304.911 292.713 307.999 295.793 311.807 295.793Z" fill="#FF2E93"/>
<path d="M332.806 295.793C336.615 295.793 339.702 292.713 339.702 288.914C339.702 285.115 336.615 282.035 332.806 282.035C328.997 282.035 325.909 285.115 325.909 288.914C325.909 292.713 328.997 295.793 332.806 295.793Z" fill="#142664"/>
<path d="M353.701 295.793C357.51 295.793 360.598 292.713 360.598 288.914C360.598 285.115 357.51 282.035 353.701 282.035C349.892 282.035 346.805 285.115 346.805 288.914C346.805 292.713 349.892 295.793 353.701 295.793Z" fill="#00E6B3"/>
<path d="M703.888 565.101C702.928 564.214 701.922 563.371 700.881 562.579C699.837 561.786 698.344 562.037 697.625 563.119L693.192 569.782C692.535 570.77 691.227 571.057 690.183 570.47C686.461 568.375 682.376 567.217 678.263 566.983C677.068 566.916 676.109 565.964 676.073 564.77L675.832 556.732C675.792 555.43 674.664 554.408 673.366 554.512C666.776 555.036 660.507 557.162 655.005 560.741C653.917 561.449 653.666 562.94 654.448 563.989L659.277 570.469C659.993 571.43 659.838 572.76 658.94 573.536C658.195 574.18 657.479 574.871 656.796 575.61C654.59 577.997 652.903 580.678 651.72 583.517C651.262 584.618 650.05 585.192 648.912 584.809L641.261 582.241C640.022 581.825 638.688 582.53 638.358 583.787C636.69 590.141 636.626 596.765 638.172 603.187C638.477 604.456 639.796 605.213 641.043 604.846L648.741 602.58C649.885 602.243 651.084 602.86 651.52 603.977C652.993 607.753 655.325 611.267 658.509 614.21C658.515 614.215 658.52 614.219 658.525 614.224C659.414 615.045 659.563 616.387 658.823 617.328L653.877 623.61C653.075 624.629 653.297 626.129 654.37 626.878C659.808 630.677 666.035 633.048 672.61 633.824C673.906 633.977 675.053 632.999 675.116 631.698L675.507 623.676C675.565 622.484 676.54 621.57 677.735 621.547C681.874 621.468 685.983 620.454 689.718 618.52C690.774 617.973 692.076 618.311 692.713 619.325L697.014 626.163C697.711 627.271 699.197 627.583 700.255 626.832C702.474 625.256 704.53 623.448 706.388 621.438C708.974 618.639 711.121 615.516 712.79 612.128C713.363 610.963 712.822 609.543 711.618 609.03L704.195 605.862C703.093 605.392 702.554 604.159 702.926 603.029C704.237 599.048 704.594 594.826 704.018 590.708C703.852 589.524 704.601 588.417 705.768 588.172L713.629 586.52C714.902 586.253 715.687 584.965 715.331 583.709C713.317 576.582 709.392 570.187 703.888 565.101Z" fill="#142664"/>
<path d="M683.469 600.016C686.858 596.348 686.603 590.6 682.899 587.177C679.195 583.755 673.445 583.953 670.056 587.621C666.667 591.288 666.922 597.036 670.626 600.459C674.33 603.882 680.08 603.683 683.469 600.016Z" fill="#00E6B3"/>
<path d="M527.538 476.116C527.538 476.116 527.259 476.116 527.538 476.116C522.234 477.228 517.208 477.228 512.462 476.116L508.553 494.749C515.812 496.417 523.35 496.417 531.168 494.749H531.447L527.538 476.116ZM546.802 465.269C543.452 468.885 539.264 471.944 534.518 473.891L542.335 491.412C549.594 488.352 555.736 483.625 561.041 478.062L546.802 465.269ZM505.482 473.891C500.736 471.944 496.827 468.885 493.198 464.991L478.959 477.784C484.264 483.625 490.406 488.074 497.386 491.133L505.482 473.891ZM556.015 444.968C555.457 449.973 553.782 454.979 551.269 459.151L567.741 468.607C571.65 461.932 574.163 454.701 575 446.914L556.015 444.968ZM551.548 423.275C553.503 426.612 554.899 429.95 555.457 433.843C555.736 434.956 556.015 436.346 556.015 437.459L575 435.512C574.721 433.565 574.442 431.896 574.163 429.95C573.046 424.109 570.812 418.547 568.02 413.819L551.548 423.275ZM535.076 408.257C539.543 410.204 543.731 413.263 547.081 417.157L561.32 404.364C556.295 398.524 549.873 394.074 542.893 390.736L535.076 408.257ZM509.112 387.121C516.929 385.452 524.746 385.731 532.005 387.399L527.817 406.032C523.071 404.92 518.046 404.92 512.741 406.032C512.462 406.032 512.462 406.032 512.183 406.032L508.274 387.399C508.553 387.121 508.833 387.121 509.112 387.121Z" fill="#142664"/>
<path d="M488.731 458.873C486.777 455.535 485.381 451.92 484.543 448.027C484.264 446.914 484.264 445.802 483.985 444.689L465 446.636C465.279 448.305 465.558 449.973 465.838 451.92C466.954 457.76 469.188 463.322 472.259 468.328L488.731 458.873ZM483.985 437.18C484.543 432.174 486.218 427.168 488.731 422.997L472.259 413.541C468.35 420.216 466.117 427.447 465.279 435.234L483.985 437.18ZM493.198 416.878C496.548 413.263 500.736 410.204 505.203 407.979L497.386 390.736C490.127 394.074 483.985 398.523 478.959 404.364L493.198 416.878Z" fill="#FF2E93"/>
<path d="M771.117 482.3C768.769 474.662 764.451 468.124 758.88 463.102C758.1 462.399 758.006 461.208 758.669 460.397L763.427 454.57C764.131 453.708 763.979 452.427 763.091 451.749C755.161 445.699 745.576 441.899 735.719 440.896C734.612 440.783 733.637 441.62 733.572 442.734L733.138 450.271C733.078 451.32 732.207 452.13 731.161 452.111C727.442 452.042 723.657 452.463 719.882 453.433C716.059 454.415 712.499 455.896 709.243 457.782C708.338 458.306 707.183 458.02 706.618 457.133L702.562 450.756C701.962 449.813 700.702 449.555 699.79 450.19C691.665 455.845 685.144 463.813 681.165 472.945C680.72 473.966 681.212 475.16 682.247 475.572L689.247 478.357C690.222 478.745 690.72 479.831 690.382 480.825C687.781 488.45 687.299 496.907 689.472 505.311C689.476 505.327 689.481 505.342 689.485 505.358L680.369 507.71C679.295 507.987 678.665 509.106 678.985 510.175C679.444 511.702 679.969 513.213 680.554 514.685C683.657 522.495 688.574 529.519 694.835 535.114C695.67 535.859 696.951 535.764 697.657 534.901L702.421 529.08C703.084 528.27 704.264 528.131 705.101 528.764C711.199 533.376 718.483 536.325 726.196 537.16C727.235 537.273 728.003 538.186 727.942 539.234L727.498 546.772C727.433 547.886 728.302 548.839 729.414 548.867C734.355 548.992 739.293 548.431 744.12 547.191C746.325 546.624 748.51 545.913 750.619 545.075C753.115 544.082 755.542 542.898 757.859 541.543C758.818 540.982 759.118 539.728 758.52 538.785L754.47 532.402C753.907 531.516 754.136 530.346 754.99 529.746C761.331 525.292 766.271 519.195 769.367 512.216C769.791 511.258 770.892 510.81 771.865 511.199L778.863 513.992C779.897 514.405 781.064 513.873 781.432 512.821C784.771 503.277 785.36 493.11 783.15 483.19C782.904 482.088 781.814 481.419 780.729 481.706L773.486 483.62C772.474 483.889 771.427 483.306 771.117 482.3Z" fill="#FF2E93"/>
<path d="M735.702 508.593C742.889 505.737 746.385 497.561 743.512 490.33C740.639 483.1 732.484 479.553 725.298 482.408C718.112 485.263 714.615 493.44 717.489 500.671C720.362 507.901 728.516 511.448 735.702 508.593Z" fill="#142664"/>
<path d="M635 634.581C635 633.621 634.954 632.659 634.861 631.703C634.769 630.744 633.89 630.065 632.948 630.216L627.147 631.146C626.286 631.284 625.48 630.722 625.276 629.866C624.552 626.815 623.14 624.036 621.217 621.701C620.658 621.023 620.693 620.032 621.319 619.418L625.533 615.282C626.215 614.612 626.204 613.495 625.502 612.847C621.936 609.555 617.665 607.234 612.994 606.05C612.071 605.816 611.141 606.424 610.965 607.369L609.877 613.201C609.716 614.065 608.922 614.645 608.056 614.548C607.337 614.467 606.608 614.425 605.869 614.425C603.483 614.425 601.197 614.851 599.077 615.628C598.254 615.929 597.341 615.562 596.981 614.757L594.553 609.352C594.16 608.476 593.115 608.109 592.273 608.557C588.015 610.823 584.412 614.089 581.719 618.124C581.187 618.92 581.436 620.009 582.256 620.498L587.314 623.52C588.065 623.969 588.33 624.923 587.945 625.714C586.643 628.39 585.91 631.398 585.91 634.582C585.91 634.587 585.91 634.592 585.91 634.598C585.91 635.486 585.26 636.235 584.384 636.304L578.532 636.768C577.583 636.843 576.885 637.71 577.016 638.662C577.678 643.487 579.502 648.026 582.36 651.958C582.923 652.733 584.021 652.864 584.754 652.25L589.274 648.463C589.946 647.901 590.925 647.971 591.533 648.604C593.638 650.797 596.232 652.507 599.136 653.557C599.957 653.854 600.423 654.724 600.194 655.573L598.65 661.3C598.4 662.227 598.972 663.185 599.904 663.38C601.859 663.792 603.859 664 605.869 664C608.666 664 611.42 663.601 614.079 662.813C614.992 662.542 615.488 661.542 615.165 660.637L613.174 655.056C612.879 654.228 613.275 653.323 614.069 652.96C616.869 651.684 619.324 649.773 621.257 647.41C621.813 646.731 622.783 646.583 623.497 647.09L628.304 650.506C629.082 651.059 630.168 650.84 630.669 650.023C633.508 645.385 635 640.083 635 634.581Z" fill="#142664"/>
<path d="M606 640.967C609.666 640.967 612.639 637.965 612.639 634.263C612.639 630.56 609.666 627.559 606 627.559C602.334 627.559 599.362 630.56 599.362 634.263C599.362 637.965 602.334 640.967 606 640.967Z" fill="#00E6B3"/>
<path d="M467.582 600C465.612 600 464 601.611 464 603.58C464 613.112 464 639.201 464 648.599C464 649.494 464.358 650.389 464.985 651.015C465.612 651.642 466.507 652 467.403 652C481.373 652 533.672 652 547.597 652C548.493 652 549.388 651.642 550.015 651.015C550.642 650.389 551 649.494 551 648.599C551 639.157 551 612.888 551 603.446C551 602.551 550.642 601.656 550.015 601.029C549.388 600.403 548.493 600.045 547.597 600.045C533.716 600 481.687 600 467.582 600Z" fill="#142664"/>
<path d="M361.613 526.123C352.878 526.123 345.755 533.308 345.755 542.119V556.918C345.755 559.912 343.295 562.393 340.327 562.393H312.258C309.374 562.393 307 564.788 307 567.696C307 570.605 309.374 573 312.258 573H340.327C349.147 573 356.27 565.814 356.27 556.918V542.119C356.27 539.125 358.644 536.73 361.613 536.73H369.584C375.011 536.73 379.421 532.282 379.421 526.807V466.157C379.421 456.918 371.958 449.391 362.8 449.391H342.617C335.663 449.391 330.066 443.745 330.066 436.73C330.066 429.801 335.663 424.07 342.617 424.07H360.34C363.224 424.07 365.598 421.675 365.598 418.766C365.598 415.858 363.224 413.463 360.34 413.463H342.617C329.897 413.463 319.551 423.899 319.551 436.73C319.551 449.562 329.897 459.998 342.617 459.998H362.8C366.192 459.998 368.99 462.821 368.99 466.243V526.123H361.613Z" fill="#FF2E93"/>
<path d="M351.436 413.463H355.676V424.07H351.436V413.463ZM335.154 414.746C336.85 414.147 338.631 413.805 340.497 413.634L341.514 424.156C340.497 424.241 339.564 424.498 338.631 424.754L335.154 414.746ZM321.501 427.406C322.264 425.695 323.197 424.156 324.215 422.701L332.61 429.117C332.017 429.887 331.508 430.742 331.084 431.683L321.501 427.406ZM321.501 446.055C320.738 444.429 320.229 442.633 319.89 440.836L330.236 438.954C330.405 439.981 330.745 440.922 331.084 441.777L321.501 446.055ZM335.154 458.715C333.458 458.116 331.762 457.346 330.236 456.32L335.833 447.338C336.681 447.851 337.529 448.279 338.462 448.621L335.154 458.715ZM362.8 459.912C363.393 459.912 363.987 459.998 364.581 460.169L367.633 449.989C366.107 449.476 364.496 449.305 362.8 449.305H361.952V459.912H362.8ZM351.436 459.912H347.196V449.305H351.436V459.912ZM368.99 466.328V466.157C368.99 465.387 368.821 464.703 368.651 464.019L378.488 460.34C379.167 462.137 379.506 464.104 379.506 466.157V466.328H368.99ZM368.99 481.127V476.85H379.506V481.127H368.99ZM368.99 496.012V491.734H379.506V496.012H368.99ZM368.99 510.81V506.533H379.506V510.81H368.99ZM368.99 525.695V521.418H379.506V525.695H368.99ZM363.224 526.123H367.464V536.73H363.224V526.123ZM346.603 536.815C347.281 534.762 348.383 532.966 349.74 531.426L357.542 538.526C357.033 539.04 356.694 539.638 356.44 540.323L346.603 536.815ZM345.755 553.325V549.048H356.27V553.325H345.755ZM343.041 561.623C343.634 561.281 344.228 560.767 344.652 560.169L352.963 566.584C351.691 568.295 350.079 569.664 348.299 570.69L343.041 561.623ZM316.498 562.393H320.738V573H316.498V562.393ZM331.169 562.393H335.409V573H331.169V562.393Z" fill="#142664"/>
<path d="M357.288 435.619H371.789V413.891L374.926 408.245C375.605 406.962 375.605 405.423 374.926 404.139C374.248 403.027 373.061 402.257 371.789 402.086C371.619 402.086 371.534 402.086 371.365 402.086C363.563 402.086 351.012 402.086 343.211 402.086C341.769 402.086 340.412 402.856 339.649 404.139C338.886 405.423 338.886 406.962 339.649 408.245C343.55 415.174 349.825 426.466 353.726 433.566C354.404 434.764 355.761 435.619 357.288 435.619Z" fill="#142664"/>
<path d="M385.866 402.001C387.308 402.001 388.664 402.771 389.428 404.054C390.191 405.337 390.191 406.877 389.428 408.16C385.527 415.089 379.251 426.381 375.35 433.481C374.587 434.764 373.23 435.619 371.789 435.619C370.262 435.619 368.905 434.849 368.227 433.481C364.326 426.381 358.051 415.174 354.15 408.16C353.472 406.877 353.472 405.337 354.15 404.054C354.913 402.771 356.27 402.001 357.712 402.001C365.513 402.001 378.064 402.001 385.866 402.001Z" fill="#FF2E93"/>
<path d="M375.096 419.623C375.435 419.623 375.775 419.794 375.944 420.136C376.114 420.478 376.114 420.82 375.944 421.077C375.011 422.702 373.57 425.354 372.637 427.065C372.467 427.407 372.128 427.578 371.789 427.578C371.45 427.578 371.11 427.407 370.941 427.065C370.008 425.354 368.566 422.702 367.634 421.077C367.464 420.735 367.464 420.393 367.634 420.136C367.803 419.794 368.142 419.623 368.482 419.623H375.096Z" fill="#142664"/>
<path d="M369.075 407.476C369.414 407.476 369.754 407.647 369.923 407.989C370.093 408.332 370.093 408.674 369.923 408.93C368.99 410.556 367.549 413.208 366.616 414.918C366.446 415.261 366.107 415.432 365.768 415.432C365.429 415.432 365.089 415.261 364.92 414.918C363.987 413.208 362.545 410.556 361.613 408.93C361.443 408.588 361.443 408.246 361.613 407.989C361.782 407.647 362.121 407.476 362.461 407.476H369.075Z" fill="#142664"/>
<path d="M381.117 407.476C381.456 407.476 381.796 407.647 381.965 407.989C382.135 408.332 382.135 408.674 381.965 408.93C381.032 410.556 379.591 413.208 378.658 414.918C378.488 415.261 378.149 415.432 377.81 415.432C377.471 415.432 377.131 415.261 376.962 414.918C376.029 413.208 374.587 410.556 373.655 408.93C373.485 408.588 373.485 408.246 373.655 407.989C373.824 407.733 374.163 407.476 374.503 407.476H381.117Z" fill="#142664"/>
<path d="M380 496.024C380 490.527 375.575 486 370.024 486C353.452 486 320.548 486 303.976 486C298.505 486 294 490.446 294 496.024C294 513.161 294 547.839 294 564.976C294 570.473 298.425 575 303.976 575C320.548 575 353.452 575 370.024 575C375.495 575 380 570.554 380 564.976C380 547.839 380 513.161 380 496.024Z" fill="#FF2E93"/>
<path d="M355.785 523.832H342.672V537.008H355.785V523.832Z" fill="#00E6B3"/>
<path d="M330.041 510.979H316.928V524.155H330.041V510.979Z" fill="white"/>
<path d="M368.737 523.67H355.624V536.846H368.737V523.67Z" fill="white"/>
<path d="M355.544 511.463H342.43V524.639H355.544V511.463Z" fill="white"/>
<path d="M342.672 537.008H329.558V550.184H342.672V537.008Z" fill="#00E6B3"/>
<path d="M355.704 537.008H342.591V550.184H355.704V537.008Z" fill="#00E6B3"/>
<path d="M368.255 549.617H355.141V562.793H368.255V549.617Z" fill="#00E6B3"/>
<path d="M330.041 549.617H316.928V562.793H330.041V549.617Z" fill="#00E6B3"/>
<path d="M307.757 496.348H304.056V560.935V563.926V564.654H366.324H367.691H370.024V560.935V498.692V496.348H307.757ZM366.324 500.066V509.281C362.945 509.281 311.136 509.281 307.757 509.281V500.066H366.324ZM366.324 548.002H357.394V538.786H366.324V548.002ZM357.394 535.149V525.933H366.324V535.149H357.394ZM357.394 522.215V513H366.324V522.215H357.394ZM344.522 535.149V525.933H353.693V535.149H344.522ZM353.693 538.786V548.002H344.522V538.786H353.693ZM344.522 522.215V513H353.693V522.215H344.522ZM331.65 535.149V525.933H340.821V535.149H331.65ZM340.821 538.786V548.002H331.65V538.786H340.821ZM331.65 522.215V513H340.821V522.215H331.65ZM318.778 535.149V525.933H327.95V535.149H318.778ZM327.95 538.786V548.002H318.778V538.786H327.95ZM318.778 522.215V513H327.95V522.215H318.778ZM315.158 560.935H307.757V513H315.158V560.935H318.859V551.72H328.03V560.935H331.65V551.72H340.821V560.935H344.522V551.72H353.693V560.935H357.394V551.72H366.324V560.935H315.158Z" fill="#142664"/>
<path d="M408.631 418.067C408.631 418.067 410.239 418.438 412.383 418.81C413.455 418.996 414.885 419.182 416.136 419.182C416.851 419.182 417.565 419.182 418.459 418.996C421.318 418.624 423.641 418.067 423.641 418.067C425.249 418.067 426.5 416.766 426.5 415.094C426.5 413.421 425.249 412.121 423.641 412.121C423.641 412.121 421.318 411.563 418.459 411.192C417.744 411.192 417.029 411.006 416.136 411.006C414.885 411.006 413.634 411.192 412.383 411.377C410.239 411.749 408.631 412.121 408.631 412.121C407.022 412.121 405.771 413.421 405.771 415.094C405.771 416.766 407.022 418.067 408.631 418.067Z" fill="#FF2E93"/>
<path d="M401.483 436.09C401.483 436.09 401.662 436.834 402.376 437.948C402.734 438.506 402.912 439.063 403.449 439.621C403.806 439.992 403.985 440.178 404.342 440.364C405.593 441.293 406.844 441.665 406.844 441.665C407.916 442.779 409.703 442.779 410.954 441.665C412.026 440.55 412.026 438.692 410.954 437.391C410.954 437.391 410.596 436.276 409.703 434.79C409.524 434.418 409.345 434.046 408.988 433.861C408.452 433.303 407.916 433.117 407.38 432.746C406.308 432.188 405.593 431.817 405.593 431.817C404.521 430.702 402.734 430.702 401.483 431.817C400.232 433.117 400.232 434.975 401.483 436.09Z" fill="#FF2E93"/>
<path d="M405.414 398.184C405.414 398.184 406.129 397.998 407.201 397.255C407.737 396.883 408.273 396.698 408.809 396.14C409.167 395.769 409.345 395.583 409.524 395.211C410.418 393.91 410.775 392.61 410.775 392.61C411.847 391.495 411.847 389.637 410.775 388.336C409.703 387.221 407.916 387.221 406.665 388.336C406.665 388.336 405.593 388.708 404.163 389.637C403.806 389.823 403.449 390.008 403.27 390.38C402.734 390.938 402.555 391.495 402.198 392.052C401.662 393.167 401.304 393.91 401.304 393.91C400.232 395.025 400.232 396.883 401.304 398.184C402.555 399.299 404.342 399.299 405.414 398.184Z" fill="#FF2E93"/>
<path d="M391.936 695.633V605.396L412.018 585.208H494.005C495.143 585.208 495.972 584.272 495.972 583.231C495.972 582.19 495.04 581.254 494.005 581.254H411.19C410.673 581.254 410.155 581.462 409.741 581.878L388.416 603.315C388.002 603.731 387.795 604.148 387.795 604.772V695.842C386.139 696.57 385 698.235 385 700.212C385 702.814 387.174 704.999 389.762 704.999C392.35 704.999 394.524 702.814 394.524 700.212C394.731 698.027 393.592 696.362 391.936 695.633Z" fill="#FF2E93"/>
<path d="M494.108 628.256C518.901 628.256 539 608.051 539 583.128C539 558.204 518.901 538 494.108 538C469.315 538 449.217 558.204 449.217 583.128C449.217 608.051 469.315 628.256 494.108 628.256Z" fill="#FF2E93"/>
<path d="M560.758 622.379C560.841 621.923 560.953 621.466 561.037 621.01C561.121 620.554 561.233 620.097 561.317 619.669C561.372 619.384 561.428 619.127 561.456 618.842C561.568 618.215 561.68 617.559 561.82 616.931C561.875 616.703 561.764 616.503 561.54 616.446C561.317 616.389 561.121 616.503 561.065 616.731C560.841 617.359 560.646 617.986 560.478 618.642C560.394 618.928 560.338 619.184 560.283 619.47C560.199 619.926 560.143 620.411 560.087 620.867C560.031 621.352 560.003 621.809 560.003 622.293C559.975 622.522 560.143 622.721 560.338 622.75C560.534 622.778 560.73 622.607 560.758 622.379Z" fill="#142664"/>
<path d="M566.822 627.599C566.85 624.803 567.241 622.094 567.912 619.498C568.611 616.817 569.617 614.307 570.902 611.939C571.685 610.513 572.551 609.115 573.501 607.832C575.765 604.78 578.504 602.127 581.661 600.045C581.857 599.931 581.913 599.674 581.773 599.475C581.661 599.275 581.41 599.218 581.214 599.36C577.945 601.443 575.038 604.095 572.663 607.204C571.657 608.545 570.735 609.943 569.924 611.426C568.611 613.879 567.605 616.503 566.934 619.27C566.291 621.951 565.956 624.746 566.012 627.599C566.012 627.827 566.179 627.998 566.403 627.998C566.654 628.026 566.822 627.827 566.822 627.599Z" fill="#142664"/>
<path d="M586.887 597.305C587.838 596.935 588.816 596.649 589.794 596.364C590.772 596.107 591.75 595.879 592.756 595.68C593.343 595.565 593.958 595.451 594.545 595.366C595.942 595.138 597.367 594.995 598.792 594.966C599.016 594.966 599.184 594.795 599.184 594.567C599.184 594.339 599.016 594.168 598.792 594.168C597.311 594.139 595.83 594.168 594.405 594.339C593.79 594.425 593.147 594.51 592.532 594.624C591.498 594.824 590.492 595.109 589.486 595.423C588.48 595.737 587.502 596.136 586.552 596.564C586.356 596.649 586.245 596.878 586.328 597.077C586.468 597.277 586.692 597.391 586.887 597.305Z" fill="#142664"/>
<path d="M563.385 612.481C564.754 609.286 566.57 606.291 568.722 603.581C570.874 600.9 573.389 598.476 576.156 596.422C578.364 594.796 580.711 593.37 583.226 592.229C586.915 590.518 590.884 589.405 595.048 589.006C595.97 588.92 596.892 588.863 597.814 588.835C598.736 588.806 599.659 588.835 600.581 588.892C600.804 588.92 601 588.749 601 588.521C601 588.293 600.86 588.093 600.637 588.093C599.687 588.036 598.736 587.979 597.814 588.008C596.864 588.008 595.914 588.065 594.992 588.122C590.744 588.492 586.636 589.576 582.835 591.288C580.264 592.457 577.833 593.883 575.569 595.566C572.747 597.677 570.203 600.187 568.024 602.982C565.844 605.778 564.055 608.887 562.686 612.167C562.602 612.367 562.686 612.623 562.882 612.709C563.049 612.766 563.273 612.68 563.385 612.481Z" fill="#142664"/>
<path d="M574.703 618.185C575.29 616.274 576.184 614.392 577.302 612.623C578.392 610.912 579.677 609.314 581.158 607.86C582.025 607.004 582.947 606.205 583.925 605.492C586.244 603.781 588.843 602.526 591.582 601.984C591.806 601.955 591.945 601.727 591.89 601.528C591.862 601.299 591.638 601.157 591.442 601.214C588.536 601.699 585.797 602.925 583.338 604.665C582.304 605.407 581.326 606.205 580.404 607.118C578.867 608.63 577.553 610.313 576.463 612.138C575.345 614.021 574.479 616.017 573.92 618.014C573.864 618.242 573.976 618.442 574.2 618.527C574.423 618.527 574.647 618.385 574.703 618.185Z" fill="#142664"/>
<path d="M560.758 622.379C560.841 621.923 560.953 621.466 561.037 621.01C561.121 620.554 561.233 620.097 561.317 619.669C561.372 619.384 561.428 619.127 561.456 618.842C561.568 618.215 561.68 617.559 561.82 616.931C561.875 616.703 561.764 616.503 561.54 616.446C561.317 616.389 561.121 616.503 561.065 616.731C560.841 617.359 560.646 617.986 560.478 618.642C560.394 618.928 560.338 619.184 560.283 619.47C560.199 619.926 560.143 620.411 560.087 620.867C560.031 621.352 560.003 621.809 560.003 622.293C559.975 622.522 560.143 622.721 560.338 622.75C560.534 622.778 560.73 622.607 560.758 622.379Z" fill="#142664"/>
<path d="M566.822 627.599C566.85 624.803 567.241 622.094 567.912 619.498C568.611 616.817 569.617 614.307 570.902 611.939C571.685 610.513 572.551 609.115 573.501 607.832C575.765 604.78 578.504 602.127 581.661 600.045C581.857 599.931 581.913 599.674 581.773 599.475C581.661 599.275 581.41 599.218 581.214 599.36C577.945 601.443 575.038 604.095 572.663 607.204C571.657 608.545 570.735 609.943 569.924 611.426C568.611 613.879 567.605 616.503 566.934 619.27C566.291 621.951 565.956 624.746 566.012 627.599C566.012 627.827 566.179 627.998 566.403 627.998C566.654 628.026 566.822 627.827 566.822 627.599Z" fill="#142664"/>
<path d="M586.887 597.305C587.838 596.935 588.816 596.649 589.794 596.364C590.772 596.107 591.75 595.879 592.756 595.68C593.343 595.565 593.958 595.451 594.545 595.366C595.942 595.138 597.367 594.995 598.792 594.966C599.016 594.966 599.184 594.795 599.184 594.567C599.184 594.339 599.016 594.168 598.792 594.168C597.311 594.139 595.83 594.168 594.405 594.339C593.79 594.425 593.147 594.51 592.532 594.624C591.498 594.824 590.492 595.109 589.486 595.423C588.48 595.737 587.502 596.136 586.552 596.564C586.356 596.649 586.245 596.878 586.328 597.077C586.468 597.277 586.692 597.391 586.887 597.305Z" fill="#142664"/>
<path d="M563.385 612.481C564.754 609.286 566.57 606.291 568.722 603.581C570.874 600.9 573.389 598.476 576.156 596.422C578.364 594.796 580.711 593.37 583.226 592.229C586.915 590.518 590.884 589.405 595.048 589.006C595.97 588.92 596.892 588.863 597.814 588.835C598.736 588.806 599.659 588.835 600.581 588.892C600.804 588.92 601 588.749 601 588.521C601 588.293 600.86 588.093 600.637 588.093C599.687 588.036 598.736 587.979 597.814 588.008C596.864 588.008 595.914 588.065 594.992 588.122C590.744 588.492 586.636 589.576 582.835 591.288C580.264 592.457 577.833 593.883 575.569 595.566C572.747 597.677 570.203 600.187 568.024 602.982C565.844 605.778 564.055 608.887 562.686 612.167C562.602 612.367 562.686 612.623 562.882 612.709C563.049 612.766 563.273 612.68 563.385 612.481Z" fill="#142664"/>
<path d="M574.703 618.185C575.29 616.274 576.184 614.392 577.302 612.623C578.392 610.912 579.677 609.314 581.158 607.86C582.025 607.004 582.947 606.205 583.925 605.492C586.244 603.781 588.843 602.526 591.582 601.984C591.806 601.955 591.945 601.727 591.89 601.528C591.862 601.299 591.638 601.157 591.442 601.214C588.536 601.699 585.797 602.925 583.338 604.665C582.304 605.407 581.326 606.205 580.404 607.118C578.867 608.63 577.553 610.313 576.463 612.138C575.345 614.021 574.479 616.017 573.92 618.014C573.864 618.242 573.976 618.442 574.2 618.527C574.423 618.527 574.647 618.385 574.703 618.185Z" fill="#142664"/>
<path d="M560.758 621.379C560.841 620.923 560.953 620.466 561.037 620.01C561.121 619.554 561.233 619.097 561.317 618.669C561.372 618.384 561.428 618.127 561.456 617.842C561.568 617.215 561.68 616.559 561.82 615.931C561.875 615.703 561.764 615.503 561.54 615.446C561.317 615.389 561.121 615.503 561.065 615.731C560.841 616.359 560.646 616.986 560.478 617.642C560.394 617.928 560.338 618.184 560.283 618.47C560.199 618.926 560.143 619.411 560.087 619.867C560.031 620.352 560.003 620.809 560.003 621.293C559.975 621.522 560.143 621.721 560.338 621.75C560.534 621.778 560.73 621.607 560.758 621.379Z" fill="#142664"/>
<path d="M566.822 626.599C566.85 623.803 567.241 621.094 567.912 618.498C568.611 615.817 569.617 613.307 570.902 610.939C571.685 609.513 572.551 608.115 573.501 606.832C575.765 603.78 578.504 601.127 581.661 599.045C581.857 598.931 581.913 598.674 581.773 598.475C581.661 598.275 581.41 598.218 581.214 598.36C577.945 600.443 575.038 603.095 572.663 606.204C571.657 607.545 570.735 608.943 569.924 610.426C568.611 612.879 567.605 615.503 566.934 618.27C566.291 620.951 565.956 623.746 566.012 626.599C566.012 626.827 566.179 626.998 566.403 626.998C566.654 627.026 566.822 626.827 566.822 626.599Z" fill="#142664"/>
<path d="M586.887 596.305C587.838 595.935 588.816 595.649 589.794 595.364C590.772 595.107 591.75 594.879 592.756 594.68C593.343 594.565 593.958 594.451 594.545 594.366C595.942 594.138 597.367 593.995 598.792 593.966C599.016 593.966 599.184 593.795 599.184 593.567C599.184 593.339 599.016 593.168 598.792 593.168C597.311 593.139 595.83 593.168 594.405 593.339C593.79 593.425 593.147 593.51 592.532 593.624C591.498 593.824 590.492 594.109 589.486 594.423C588.48 594.737 587.502 595.136 586.552 595.564C586.356 595.649 586.245 595.878 586.328 596.077C586.468 596.277 586.692 596.391 586.887 596.305Z" fill="#142664"/>
<path d="M563.385 611.481C564.754 608.286 566.57 605.291 568.722 602.581C570.874 599.9 573.389 597.476 576.156 595.422C578.364 593.796 580.711 592.37 583.226 591.229C586.915 589.518 590.884 588.405 595.048 588.006C595.97 587.92 596.892 587.863 597.814 587.835C598.736 587.806 599.659 587.835 600.581 587.892C600.804 587.92 601 587.749 601 587.521C601 587.293 600.86 587.093 600.637 587.093C599.687 587.036 598.736 586.979 597.814 587.008C596.864 587.008 595.914 587.065 594.992 587.122C590.744 587.492 586.636 588.576 582.835 590.288C580.264 591.457 577.833 592.883 575.569 594.566C572.747 596.677 570.203 599.187 568.024 601.982C565.844 604.778 564.055 607.887 562.686 611.167C562.602 611.367 562.686 611.623 562.882 611.709C563.049 611.766 563.273 611.68 563.385 611.481Z" fill="#142664"/>
<path d="M574.703 617.185C575.29 615.274 576.184 613.392 577.302 611.623C578.392 609.912 579.677 608.314 581.158 606.86C582.025 606.004 582.947 605.205 583.925 604.492C586.244 602.781 588.843 601.526 591.582 600.984C591.806 600.955 591.945 600.727 591.89 600.528C591.862 600.299 591.638 600.157 591.442 600.214C588.536 600.699 585.797 601.925 583.338 603.665C582.304 604.407 581.326 605.205 580.404 606.118C578.867 607.63 577.553 609.313 576.463 611.138C575.345 613.021 574.479 615.017 573.92 617.014C573.864 617.242 573.976 617.442 574.2 617.527C574.423 617.527 574.647 617.385 574.703 617.185Z" fill="#142664"/>
<path d="M559.758 621.379C559.841 620.923 559.953 620.466 560.037 620.01C560.121 619.554 560.233 619.097 560.317 618.669C560.372 618.384 560.428 618.127 560.456 617.842C560.568 617.215 560.68 616.559 560.82 615.931C560.875 615.703 560.764 615.503 560.54 615.446C560.317 615.389 560.121 615.503 560.065 615.731C559.841 616.359 559.646 616.986 559.478 617.642C559.394 617.928 559.338 618.184 559.283 618.47C559.199 618.926 559.143 619.411 559.087 619.867C559.031 620.352 559.003 620.809 559.003 621.293C558.975 621.522 559.143 621.721 559.338 621.75C559.534 621.778 559.73 621.607 559.758 621.379Z" fill="#142664"/>
<path d="M565.822 626.599C565.85 623.803 566.241 621.094 566.912 618.498C567.611 615.817 568.617 613.307 569.902 610.939C570.685 609.513 571.551 608.115 572.501 606.832C574.765 603.78 577.504 601.127 580.661 599.045C580.857 598.931 580.913 598.674 580.773 598.475C580.661 598.275 580.41 598.218 580.214 598.36C576.945 600.443 574.038 603.095 571.663 606.204C570.657 607.545 569.735 608.943 568.924 610.426C567.611 612.879 566.605 615.503 565.934 618.27C565.291 620.951 564.956 623.746 565.012 626.599C565.012 626.827 565.179 626.998 565.403 626.998C565.654 627.026 565.822 626.827 565.822 626.599Z" fill="#142664"/>
<path d="M585.887 596.305C586.838 595.935 587.816 595.649 588.794 595.364C589.772 595.107 590.75 594.879 591.756 594.68C592.343 594.565 592.958 594.451 593.545 594.366C594.942 594.138 596.367 593.995 597.792 593.966C598.016 593.966 598.184 593.795 598.184 593.567C598.184 593.339 598.016 593.168 597.792 593.168C596.311 593.139 594.83 593.168 593.405 593.339C592.79 593.425 592.147 593.51 591.532 593.624C590.498 593.824 589.492 594.109 588.486 594.423C587.48 594.737 586.502 595.136 585.552 595.564C585.356 595.649 585.245 595.878 585.328 596.077C585.468 596.277 585.692 596.391 585.887 596.305Z" fill="#142664"/>
<path d="M562.385 611.481C563.754 608.286 565.57 605.291 567.722 602.581C569.874 599.9 572.389 597.476 575.156 595.422C577.364 593.796 579.711 592.37 582.226 591.229C585.915 589.518 589.884 588.405 594.048 588.006C594.97 587.92 595.892 587.863 596.814 587.835C597.736 587.806 598.659 587.835 599.581 587.892C599.804 587.92 600 587.749 600 587.521C600 587.293 599.86 587.093 599.637 587.093C598.687 587.036 597.736 586.979 596.814 587.008C595.864 587.008 594.914 587.065 593.992 587.122C589.744 587.492 585.636 588.576 581.835 590.288C579.264 591.457 576.833 592.883 574.569 594.566C571.747 596.677 569.203 599.187 567.024 601.982C564.844 604.778 563.055 607.887 561.686 611.167C561.602 611.367 561.686 611.623 561.882 611.709C562.049 611.766 562.273 611.68 562.385 611.481Z" fill="#142664"/>
<path d="M573.703 617.185C574.29 615.274 575.184 613.392 576.302 611.623C577.392 609.912 578.677 608.314 580.158 606.86C581.025 606.004 581.947 605.205 582.925 604.492C585.244 602.781 587.843 601.526 590.582 600.984C590.806 600.955 590.945 600.727 590.89 600.528C590.862 600.299 590.638 600.157 590.442 600.214C587.536 600.699 584.797 601.925 582.338 603.665C581.304 604.407 580.326 605.205 579.404 606.118C577.867 607.63 576.553 609.313 575.463 611.138C574.345 613.021 573.479 615.017 572.92 617.014C572.864 617.242 572.976 617.442 573.2 617.527C573.423 617.527 573.647 617.385 573.703 617.185Z" fill="#142664"/>
<path d="M342.064 694.633V604.396L321.982 584.208H239.995C238.857 584.208 238.028 583.272 238.028 582.231C238.028 581.19 238.96 580.254 239.995 580.254H322.81C323.327 580.254 323.845 580.462 324.259 580.878L345.584 602.315C345.998 602.731 346.205 603.148 346.205 603.772V694.842C347.861 695.57 349 697.235 349 699.212C349 701.814 346.826 703.999 344.238 703.999C341.65 703.999 339.476 701.814 339.476 699.212C339.269 697.027 340.408 695.362 342.064 694.633Z" fill="#FF2E93"/>
<path d="M239.892 627.256C215.099 627.256 195 607.051 195 582.128C195 557.204 215.099 537 239.892 537C264.685 537 284.783 557.204 284.783 582.128C284.783 607.051 264.685 627.256 239.892 627.256Z" fill="#FF2E93"/>
<path d="M721.955 631.19C721.721 631.591 721.46 631.982 721.226 632.383C720.992 632.784 720.732 633.175 720.508 633.549C720.358 633.798 720.218 634.02 720.095 634.279C719.777 634.831 719.449 635.41 719.104 635.953C718.974 636.148 719.011 636.374 719.202 636.504C719.393 636.633 719.615 636.593 719.746 636.397C720.169 635.883 720.566 635.359 720.947 634.799C721.123 634.56 721.263 634.337 721.412 634.088C721.646 633.687 721.864 633.25 722.071 632.84C722.289 632.403 722.47 631.983 722.635 631.527C722.739 631.322 722.649 631.077 722.475 630.984C722.301 630.891 722.058 630.985 721.955 631.19Z" fill="#142664"/>
<path d="M718.026 624.221C717.049 626.84 715.76 629.255 714.247 631.468C712.679 633.752 710.879 635.771 708.865 637.56C707.645 638.635 706.355 639.655 705.025 640.539C701.859 642.64 698.381 644.204 694.703 645.088C694.481 645.129 694.341 645.352 694.404 645.587C694.442 645.813 694.659 645.952 694.891 645.884C698.674 645.037 702.309 643.531 705.6 641.415C707.002 640.496 708.344 639.495 709.611 638.376C711.68 636.515 713.518 634.389 715.089 632.015C716.605 629.712 717.871 627.198 718.788 624.496C718.866 624.281 718.766 624.064 718.556 623.988C718.329 623.875 718.104 624.006 718.026 624.221Z" fill="#142664"/>
<path d="M688.858 645.888C687.838 645.913 686.821 645.849 685.805 645.785C684.797 645.694 683.8 645.576 682.786 645.421C682.195 645.329 681.578 645.228 680.997 645.108C679.606 644.848 678.217 644.498 676.867 644.04C676.657 643.964 676.441 644.068 676.363 644.282C676.285 644.497 676.385 644.715 676.595 644.791C677.978 645.321 679.381 645.798 680.78 646.122C681.387 646.25 682.021 646.388 682.637 646.49C683.678 646.654 684.721 646.727 685.774 646.774C686.827 646.821 687.882 646.778 688.921 646.699C689.134 646.685 689.317 646.508 689.306 646.292C689.242 646.057 689.071 645.874 688.858 645.888Z" fill="#142664"/>
<path d="M716.119 639.606C713.746 642.145 711.019 644.344 708.074 646.161C705.139 647.95 701.95 649.376 698.65 650.366C696.021 651.145 693.328 651.688 690.575 651.906C686.524 652.261 682.414 651.958 678.362 650.918C677.466 650.685 676.579 650.426 675.702 650.139C674.825 649.852 673.967 649.512 673.119 649.145C672.919 649.042 672.677 649.136 672.599 649.351C672.522 649.565 672.585 649.801 672.795 649.877C673.67 650.253 674.544 650.63 675.421 650.917C676.314 651.24 677.227 651.509 678.114 651.769C682.235 652.864 686.467 653.242 690.623 652.924C693.438 652.698 696.21 652.184 698.911 651.371C702.283 650.345 705.527 648.849 708.528 646.961C711.528 645.074 714.267 642.758 716.67 640.138C716.817 639.979 716.825 639.709 716.67 639.562C716.532 639.452 716.292 639.456 716.119 639.606Z" fill="#142664"/>
<path d="M707.415 630.393C706.213 631.991 704.732 633.458 703.08 634.741C701.473 635.98 699.721 637.045 697.833 637.909C696.728 638.42 695.589 638.857 694.427 639.195C691.664 640.016 688.793 640.313 686.033 639.892C685.813 639.842 685.604 640.009 685.589 640.216C685.537 640.44 685.699 640.65 685.902 640.663C688.801 641.195 691.793 640.973 694.697 640.173C695.922 639.827 697.113 639.408 698.291 638.863C700.25 637.964 702.058 636.828 703.703 635.482C705.394 634.091 706.888 632.508 708.092 630.82C708.222 630.625 708.185 630.399 708.004 630.243C707.794 630.167 707.535 630.225 707.415 630.393Z" fill="#142664"/>
<path d="M721.955 632.19C721.721 632.591 721.46 632.982 721.226 633.383C720.992 633.784 720.732 634.175 720.508 634.549C720.358 634.798 720.218 635.02 720.095 635.279C719.777 635.831 719.449 636.41 719.104 636.953C718.974 637.148 719.011 637.374 719.202 637.504C719.393 637.633 719.615 637.593 719.746 637.397C720.169 636.883 720.566 636.359 720.947 635.799C721.123 635.56 721.263 635.337 721.412 635.088C721.646 634.687 721.864 634.25 722.071 633.84C722.289 633.403 722.47 632.983 722.635 632.527C722.739 632.322 722.649 632.077 722.475 631.984C722.301 631.891 722.058 631.985 721.955 632.19Z" fill="#142664"/>
<path d="M718.026 625.221C717.049 627.84 715.76 630.255 714.247 632.468C712.679 634.752 710.879 636.771 708.865 638.56C707.645 639.635 706.355 640.655 705.025 641.539C701.859 643.64 698.381 645.204 694.703 646.088C694.481 646.129 694.341 646.352 694.404 646.587C694.442 646.813 694.659 646.952 694.891 646.884C698.674 646.037 702.309 644.531 705.6 642.415C707.002 641.496 708.344 640.495 709.611 639.376C711.68 637.515 713.518 635.389 715.089 633.015C716.605 630.712 717.871 628.198 718.788 625.496C718.866 625.281 718.766 625.064 718.556 624.988C718.329 624.875 718.104 625.006 718.026 625.221Z" fill="#142664"/>
<path d="M688.858 646.888C687.838 646.913 686.821 646.849 685.805 646.785C684.797 646.694 683.8 646.576 682.786 646.421C682.195 646.329 681.578 646.228 680.997 646.108C679.606 645.848 678.217 645.498 676.867 645.04C676.657 644.964 676.441 645.068 676.363 645.282C676.285 645.497 676.385 645.715 676.595 645.791C677.978 646.321 679.381 646.798 680.78 647.122C681.387 647.25 682.021 647.388 682.637 647.49C683.678 647.654 684.721 647.727 685.774 647.774C686.827 647.821 687.882 647.778 688.921 647.699C689.134 647.685 689.317 647.508 689.306 647.292C689.242 647.057 689.071 646.874 688.858 646.888Z" fill="#142664"/>
<path d="M716.119 640.606C713.746 643.145 711.019 645.344 708.074 647.161C705.139 648.95 701.95 650.376 698.65 651.366C696.021 652.145 693.328 652.688 690.575 652.906C686.524 653.261 682.414 652.958 678.362 651.918C677.466 651.685 676.579 651.426 675.702 651.139C674.825 650.852 673.967 650.512 673.119 650.145C672.919 650.042 672.677 650.136 672.599 650.351C672.522 650.565 672.585 650.801 672.795 650.877C673.67 651.253 674.544 651.63 675.421 651.917C676.314 652.24 677.227 652.509 678.114 652.769C682.235 653.864 686.467 654.242 690.623 653.924C693.438 653.698 696.21 653.184 698.911 652.371C702.283 651.345 705.527 649.849 708.528 647.961C711.528 646.074 714.267 643.758 716.67 641.138C716.817 640.979 716.825 640.709 716.67 640.562C716.532 640.452 716.292 640.456 716.119 640.606Z" fill="#142664"/>
<path d="M707.415 631.393C706.213 632.991 704.732 634.458 703.08 635.741C701.473 636.98 699.721 638.045 697.833 638.909C696.728 639.42 695.589 639.857 694.427 640.195C691.664 641.016 688.793 641.313 686.033 640.892C685.813 640.842 685.604 641.009 685.589 641.216C685.537 641.44 685.699 641.65 685.902 641.663C688.801 642.195 691.793 641.973 694.697 641.173C695.922 640.827 697.113 640.408 698.291 639.863C700.25 638.964 702.058 637.828 703.703 636.482C705.394 635.091 706.888 633.508 708.092 631.82C708.222 631.625 708.185 631.399 708.004 631.243C707.794 631.167 707.535 631.225 707.415 631.393Z" fill="#142664"/>
<path d="M721.955 631.19C721.721 631.591 721.46 631.982 721.226 632.383C720.992 632.784 720.732 633.175 720.508 633.549C720.358 633.798 720.218 634.02 720.095 634.279C719.777 634.831 719.449 635.41 719.104 635.953C718.974 636.148 719.011 636.374 719.202 636.504C719.393 636.633 719.615 636.593 719.746 636.397C720.169 635.883 720.566 635.359 720.947 634.799C721.123 634.56 721.263 634.337 721.412 634.088C721.646 633.687 721.864 633.25 722.071 632.84C722.289 632.403 722.47 631.983 722.635 631.527C722.739 631.322 722.649 631.077 722.475 630.984C722.301 630.891 722.058 630.985 721.955 631.19Z" fill="#142664"/>
<path d="M718.026 624.221C717.049 626.84 715.76 629.255 714.247 631.468C712.679 633.752 710.879 635.771 708.865 637.56C707.645 638.635 706.355 639.655 705.025 640.539C701.859 642.64 698.381 644.204 694.703 645.088C694.481 645.129 694.341 645.352 694.404 645.587C694.442 645.813 694.659 645.952 694.891 645.884C698.674 645.037 702.309 643.531 705.6 641.415C707.002 640.496 708.344 639.495 709.611 638.376C711.68 636.515 713.518 634.389 715.089 632.015C716.605 629.712 717.871 627.198 718.788 624.496C718.866 624.281 718.766 624.064 718.556 623.988C718.329 623.875 718.104 624.006 718.026 624.221Z" fill="#142664"/>
<path d="M688.858 645.888C687.838 645.913 686.821 645.849 685.805 645.785C684.797 645.694 683.8 645.576 682.786 645.421C682.195 645.329 681.578 645.228 680.997 645.108C679.606 644.848 678.217 644.498 676.867 644.04C676.657 643.964 676.441 644.068 676.363 644.282C676.285 644.497 676.385 644.715 676.595 644.791C677.978 645.321 679.381 645.798 680.78 646.122C681.387 646.25 682.021 646.388 682.637 646.49C683.678 646.654 684.721 646.727 685.774 646.774C686.827 646.821 687.882 646.778 688.921 646.699C689.134 646.685 689.317 646.508 689.306 646.292C689.242 646.057 689.071 645.874 688.858 645.888Z" fill="#142664"/>
<path d="M716.119 639.606C713.746 642.145 711.019 644.344 708.074 646.161C705.139 647.95 701.95 649.376 698.65 650.366C696.021 651.145 693.328 651.688 690.575 651.906C686.524 652.261 682.414 651.958 678.362 650.918C677.466 650.685 676.579 650.426 675.702 650.139C674.825 649.852 673.967 649.512 673.119 649.145C672.919 649.042 672.677 649.136 672.599 649.351C672.522 649.565 672.585 649.801 672.795 649.877C673.67 650.253 674.544 650.63 675.421 650.917C676.314 651.24 677.227 651.509 678.114 651.769C682.235 652.864 686.467 653.242 690.623 652.924C693.438 652.698 696.21 652.184 698.911 651.371C702.283 650.345 705.527 648.849 708.528 646.961C711.528 645.074 714.267 642.758 716.67 640.138C716.817 639.979 716.825 639.709 716.67 639.562C716.532 639.452 716.292 639.456 716.119 639.606Z" fill="#142664"/>
<path d="M707.415 630.393C706.213 631.991 704.732 633.458 703.08 634.741C701.473 635.98 699.721 637.045 697.833 637.909C696.728 638.42 695.589 638.857 694.427 639.195C691.664 640.016 688.793 640.313 686.033 639.892C685.813 639.842 685.604 640.009 685.589 640.216C685.537 640.44 685.699 640.65 685.902 640.663C688.801 641.195 691.793 640.973 694.697 640.173C695.922 639.827 697.113 639.408 698.291 638.863C700.25 637.964 702.058 636.828 703.703 635.482C705.394 634.091 706.888 632.508 708.092 630.82C708.222 630.625 708.185 630.399 708.004 630.243C707.794 630.167 707.535 630.225 707.415 630.393Z" fill="#142664"/>
<path d="M722.955 632.19C722.721 632.591 722.46 632.982 722.226 633.383C721.992 633.784 721.732 634.175 721.508 634.549C721.358 634.798 721.218 635.02 721.095 635.279C720.777 635.831 720.449 636.41 720.104 636.953C719.974 637.148 720.011 637.374 720.202 637.504C720.393 637.633 720.615 637.593 720.746 637.397C721.169 636.883 721.566 636.359 721.947 635.799C722.123 635.56 722.263 635.337 722.412 635.088C722.646 634.687 722.864 634.25 723.071 633.84C723.289 633.403 723.47 632.983 723.635 632.527C723.739 632.322 723.649 632.077 723.475 631.984C723.301 631.891 723.058 631.985 722.955 632.19Z" fill="#142664"/>
<path d="M719.026 625.221C718.049 627.84 716.76 630.255 715.247 632.468C713.679 634.752 711.879 636.771 709.865 638.56C708.645 639.635 707.355 640.655 706.025 641.539C702.859 643.64 699.381 645.204 695.703 646.088C695.481 646.129 695.341 646.352 695.404 646.587C695.442 646.813 695.659 646.952 695.891 646.884C699.674 646.037 703.309 644.531 706.6 642.415C708.002 641.496 709.344 640.495 710.611 639.376C712.68 637.515 714.518 635.389 716.089 633.015C717.605 630.712 718.871 628.198 719.788 625.496C719.866 625.281 719.766 625.064 719.556 624.988C719.329 624.875 719.104 625.006 719.026 625.221Z" fill="#142664"/>
<path d="M689.858 646.888C688.838 646.913 687.821 646.849 686.805 646.785C685.797 646.694 684.8 646.576 683.786 646.421C683.195 646.329 682.578 646.228 681.997 646.108C680.606 645.848 679.217 645.498 677.867 645.04C677.657 644.964 677.441 645.068 677.363 645.282C677.285 645.497 677.385 645.715 677.595 645.791C678.978 646.321 680.381 646.798 681.78 647.122C682.387 647.25 683.021 647.388 683.637 647.49C684.678 647.654 685.721 647.727 686.774 647.774C687.827 647.821 688.882 647.778 689.921 647.699C690.134 647.685 690.317 647.508 690.306 647.292C690.242 647.057 690.071 646.874 689.858 646.888Z" fill="#142664"/>
<path d="M717.119 640.606C714.746 643.145 712.019 645.344 709.074 647.161C706.139 648.95 702.95 650.376 699.65 651.366C697.021 652.145 694.328 652.688 691.575 652.906C687.524 653.261 683.414 652.958 679.362 651.918C678.466 651.685 677.579 651.426 676.702 651.139C675.825 650.852 674.967 650.512 674.119 650.145C673.919 650.042 673.677 650.136 673.599 650.351C673.522 650.565 673.585 650.801 673.795 650.877C674.67 651.253 675.544 651.63 676.421 651.917C677.314 652.24 678.227 652.509 679.114 652.769C683.235 653.864 687.467 654.242 691.623 653.924C694.438 653.698 697.21 653.184 699.911 652.371C703.283 651.345 706.527 649.849 709.528 647.961C712.528 646.074 715.267 643.758 717.67 641.138C717.817 640.979 717.825 640.709 717.67 640.562C717.532 640.452 717.292 640.456 717.119 640.606Z" fill="#142664"/>
<path d="M708.415 631.393C707.213 632.991 705.732 634.458 704.08 635.741C702.473 636.98 700.721 638.045 698.833 638.909C697.728 639.42 696.589 639.857 695.427 640.195C692.664 641.016 689.793 641.313 687.033 640.892C686.813 640.842 686.604 641.009 686.589 641.216C686.537 641.44 686.699 641.65 686.902 641.663C689.801 642.195 692.793 641.973 695.697 641.173C696.922 640.827 698.113 640.408 699.291 639.863C701.25 638.964 703.058 637.828 704.703 636.482C706.394 635.091 707.888 633.508 709.092 631.82C709.222 631.625 709.185 631.399 709.004 631.243C708.794 631.167 708.535 631.225 708.415 631.393Z" fill="#142664"/>
<path d="M372.9 703.344C373.1 704.038 372.9 704.832 372.4 705.427C371.9 705.923 371.1 706.121 370.3 705.923C367.4 705.03 363.3 703.741 360.5 702.947C359.8 702.749 359.3 702.154 359.1 701.46C358.9 700.766 359.1 700.071 359.6 699.476C361.6 697.493 364.4 694.716 366.4 692.732C366.9 692.236 367.7 692.038 368.4 692.236C369.1 692.435 369.7 692.93 369.9 693.625C370.8 696.303 372 700.369 372.9 703.344Z" fill="#00E6B3"/>
<path d="M369.1 677.658C371.2 677.658 373 679.344 373 681.526C373 683.608 371.3 685.394 369.1 685.394C367.2 685.394 364.8 685.394 362.9 685.394C360.8 685.394 359 683.708 359 681.526C359 679.443 360.7 677.658 362.9 677.658C364.9 677.658 367.2 677.658 369.1 677.658ZM373 667.541C373 668.533 372.6 669.525 371.9 670.318C371.2 671.013 370.2 671.409 369.1 671.409C367.2 671.409 364.9 671.409 363 671.409C362 671.409 361 671.013 360.2 670.318C359.5 669.624 359.1 668.632 359.1 667.541C359.1 663.971 359.1 658.715 359.1 655.144C359.1 654.152 359.5 653.16 360.2 652.367C360.9 651.673 361.9 651.276 363 651.276C364.9 651.276 367.2 651.276 369.1 651.276C370.1 651.276 371.1 651.673 371.9 652.367C372.6 653.061 373 654.053 373 655.144C373 658.615 373 663.872 373 667.541ZM373 640.961C373 643.143 371.2 644.829 369.1 644.829C367.2 644.829 364.9 644.829 363 644.829C360.8 644.829 359.1 643.044 359.1 640.961C359.1 635.606 359.1 626.184 359.1 620.828C359.1 618.646 360.9 616.96 363 616.96C364.9 616.96 367.2 616.96 369.1 616.96C371.3 616.96 373 618.745 373 620.828C373 626.184 373 635.606 373 640.961ZM373 607.34C373 609.125 371.5 610.613 369.7 610.613C367.5 610.613 364.6 610.613 362.4 610.613C360.6 610.613 359.1 609.125 359.1 607.34C359.1 605.555 360.6 604.067 362.4 604.067C364.6 604.067 367.5 604.067 369.7 604.067C371.5 604.067 373 605.555 373 607.34ZM373 593.852C373 596.033 371.2 597.72 369.1 597.72C367.2 597.72 364.9 597.72 363 597.72C360.8 597.72 359.1 595.934 359.1 593.852C359.1 593.157 359.1 592.463 359.1 591.868C359.1 589.686 360.9 588 363 588C364.9 588 367.2 588 369.1 588C371.3 588 373 589.785 373 591.868C373 592.562 373 593.256 373 593.852Z" fill="#FF2E93"/>
</svg>
