<svg width="642" height="839" viewBox="0 0 642 839" fill="none" xmlns="http://www.w3.org/2000/svg">
<path d="M625.105 210.172L565.965 349.775L582.269 356.682L641.409 217.079L625.105 210.172Z" fill="#939598"/>
<path d="M625.105 210.172L565.965 349.775L582.269 356.682L641.409 217.079L625.105 210.172Z" fill="#545FC4"/>
<path d="M375.595 184.387L358.941 231.774L396.867 235.625L395.638 180.998L375.595 184.387Z" fill="#939498"/>
<path d="M423.443 140.721L432.779 186.264L418.965 183.967L423.443 140.721Z" fill="#C7C8D1"/>
<path d="M421.644 206.176C418.188 205.22 415.035 203.399 412.481 200.887C409.928 198.375 408.061 195.254 407.055 191.82C413.907 196.967 419.266 197.905 422.687 197.728C423.302 186.563 424.091 173.501 425.018 160.941C427.317 129.752 411.374 120.635 397.766 118.405C376.385 114.902 366.208 121.033 364.982 150.059C363.937 175.084 380.103 181.876 380.103 181.876C389.333 218.053 420.96 219.155 420.96 219.155L421.644 206.176Z" fill="#C7C8D1"/>
<path d="M399.363 145.009C399.363 145.009 435.97 150.125 441.609 112.834C441.609 112.834 429.006 122.045 407.428 118.209C384.712 114.18 366.764 117.51 358.133 137.167C352.225 150.621 359.456 168.792 369.223 177.66C369.223 177.66 393.407 178.795 399.363 145.009Z" fill="#010101"/>
<path d="M378.99 186.728C384.801 186.728 389.511 182.029 389.511 176.232C389.511 170.436 384.801 165.736 378.99 165.736C373.179 165.736 368.468 170.436 368.468 176.232C368.468 182.029 373.179 186.728 378.99 186.728Z" fill="#C7C8D1"/>
<path d="M415.337 165.12L406.482 163.701L406.027 166.528L414.882 167.946L415.337 165.12Z" fill="#010101"/>
<path d="M398.805 117.711C398.805 117.711 412.028 117.519 423.992 100.273C429.256 119.765 416.064 124.005 416.064 124.005L398.805 117.711Z" fill="#010101"/>
<path d="M375.996 120.107C371.594 119.119 367.031 119.085 362.614 120.006C358.198 120.928 354.031 122.784 350.396 125.449C357.352 125.271 364.19 127.279 369.94 131.189L375.996 120.107Z" fill="#010101"/>
<path d="M365.277 127.645C365.277 127.645 353.854 129.979 350.396 138.503C350.396 138.503 360.214 133.526 365.277 135.56V127.645Z" fill="#010101"/>
<path d="M375.105 119.706C384.713 112.134 393.367 118.824 403.012 104.35C404.092 106.61 404.518 109.126 404.24 111.614C403.963 114.103 402.995 116.465 401.445 118.433L375.105 119.706Z" fill="#010101"/>
<path d="M172.561 449.963L185.458 457.835C195.814 448.034 251.78 373.233 240.638 335.975L205.304 346.677L173.459 449.498L172.561 449.963Z" fill="#C7C8D1"/>
<path d="M561.049 799.858L527.193 821.447L313.328 476.352L379.429 424.686L561.049 799.858Z" fill="#010101"/>
<path d="M527.193 821.447L538.426 838.974L620.84 784.504L561.049 799.858L527.193 821.447Z" fill="#131C6C"/>
<path d="M173.1 490.694C184.816 490.694 194.314 481.219 194.314 469.532C194.314 457.844 184.816 448.369 173.1 448.369C161.383 448.369 151.885 457.844 151.885 469.532C151.885 481.219 161.383 490.694 173.1 490.694Z" fill="#C7C8D1"/>
<path d="M579.947 362.88C591.664 362.88 601.162 353.405 601.162 341.717C601.162 330.029 591.664 320.555 579.947 320.555C568.231 320.555 558.732 330.029 558.732 341.717C558.732 353.405 568.231 362.88 579.947 362.88Z" fill="#C7C8D1"/>
<path d="M398.886 288.044C398.886 288.044 376.082 252.653 327.454 261.248C236.112 277.363 205.321 346.668 205.316 346.678L398.886 288.044Z" fill="#010101"/>
<path d="M203.052 435.651C222.476 408.074 248.582 362.512 240.64 335.975L205.307 346.677L180.265 427.521L203.052 435.651Z" fill="#010101"/>
<path d="M377.343 472.406L340.608 687.376L167.629 817.143H128.373C128.373 817.143 202.696 673.229 286.631 661.261C286.631 661.261 262.137 528.286 292.123 467.1L377.343 472.406Z" fill="#545FC4"/>
<path d="M128.373 817.15V837.751H223.514L167.629 817.15H128.373Z" fill="#131C6C"/>
<path d="M330.054 204.219C316.12 212.579 321.245 228.846 319.964 234.346C317.572 244.619 310.214 240.093 310.098 261.713C310.086 263.148 310.388 264.568 310.982 265.875C311.576 267.183 312.448 268.345 313.538 269.282L316.23 271.581C322.644 285.911 406.617 245.174 406.617 245.174H401.005C401.331 243.278 407.301 240.842 407.301 240.842C406.541 230.818 330.054 204.219 330.054 204.219Z" fill="#545FC4"/>
<path d="M377.343 472.406L292.135 467.107C292.135 467.107 279.017 304.972 327.497 256.611C365.669 218.528 407.3 240.842 407.3 240.842L377.343 472.406Z" fill="#131C6C"/>
<path d="M567.511 352.638L563.235 338.17C548.964 338.509 467.386 351.706 439.893 390.356L463.507 417.331L566.53 352.384L567.511 352.638Z" fill="#C7C8D1"/>
<path d="M545.883 365.404L540.704 341.231C507.266 344.9 469.22 357.01 446.938 382.082L357.639 266.104C357.639 266.104 323.587 301.042 351.781 341.494C400.539 411.451 463.499 417.329 463.511 417.329L545.883 365.404Z" fill="#545FC4"/>
<path d="M326.316 422.379V420.009L365.075 419.637V422.007L326.316 422.379Z" fill="#010101"/>
<path d="M48.5777 573.81L23.5676 625.211L5.56997 616.453L21.8373 583.021C26.6659 573.097 38.6383 568.974 48.5777 573.81Z" fill="#010101"/>
<path d="M166.328 631.104L141.318 682.504L159.316 691.261L175.583 657.829C180.412 647.905 176.269 635.94 166.328 631.104Z" fill="#010101"/>
<path d="M173.898 521.929L166.274 518.219L175.274 499.721C179.121 491.815 175.807 482.248 167.888 478.394C159.968 474.541 150.397 477.839 146.55 485.745L137.549 504.243L129.925 500.533L138.926 482.035C144.811 469.931 159.466 464.884 171.589 470.783C183.713 476.682 188.787 491.328 182.898 503.431L173.898 521.929Z" fill="#010101"/>
<path d="M147.407 685.468L17.5899 622.303L59.8014 535.55C77.2137 499.764 120.39 484.892 156.239 502.335C192.087 519.777 207.033 562.928 189.62 598.716L147.409 685.469L147.407 685.468Z" fill="#131C6C"/>
<path d="M134.25 557.172L126.659 553.478C106.584 543.71 82.4039 552.037 72.6522 572.078L51.3084 615.944L131.598 655.011L152.942 611.145C162.695 591.104 154.325 566.94 134.25 557.172Z" fill="#545FC4"/>
<path d="M121.098 574.556C130.115 578.944 140.975 575.203 145.355 566.202C149.734 557.201 145.975 546.347 136.958 541.96C127.941 537.572 117.081 541.313 112.701 550.314C108.322 559.315 112.081 570.169 121.098 574.556Z" fill="#010101"/>
<path d="M375.9 128.289L366.385 129.457L370.26 161.035L379.775 159.867L375.9 128.289Z" fill="#939498"/>
<path d="M378.836 190.642C388.391 189.47 395.193 180.828 394.029 171.341C392.865 161.854 384.175 155.113 374.621 156.285C365.066 157.458 358.264 166.099 359.428 175.587C360.592 185.074 369.282 191.815 378.836 190.642Z" fill="#545FC4"/>
<path d="M385.829 180.524C389.764 175.525 388.879 168.312 383.852 164.412C378.825 160.513 371.56 161.404 367.626 166.403C363.691 171.403 364.576 178.616 369.603 182.516C374.629 186.415 381.894 185.524 385.829 180.524Z" fill="#131C6C"/>
<path d="M361.288 90.7763L371.714 89.497C373.705 89.2526 375.516 90.6576 375.759 92.6348L379.693 124.696C380.183 128.687 377.321 132.322 373.302 132.815L370.22 133.193C366.201 133.687 362.546 130.851 362.056 126.86L358.122 94.799C357.879 92.8218 359.297 91.0206 361.288 90.7763Z" fill="#545FC4"/>
<path d="M381.172 167.743L371.757 168.898L372.904 178.247L382.319 177.092L381.172 167.743Z" fill="#010101"/>
<path d="M70.5206 180.064C67.4711 178.35 64.5695 176.281 61.927 173.749C44.9386 157.477 44.4494 130.415 60.8344 113.309C66.7136 107.171 73.9715 103.188 81.6395 101.304C80.4741 89.2957 84.3507 76.8364 93.3874 67.4022C109.369 50.7174 135.478 49.7127 152.519 64.7681C153.612 63.2851 154.771 61.8391 156.08 60.472C172.465 43.3663 199.523 42.6908 216.512 58.9634C228.372 70.3241 232.165 86.9344 227.816 101.752C234.173 103.595 240.193 106.924 245.298 111.814C262.287 128.087 262.776 155.149 246.391 172.255C234.854 184.299 218.037 188.159 203.156 183.731C211.414 199.526 209.127 219.531 196.037 233.196C179.652 250.302 152.594 250.977 135.606 234.705C119.221 251.81 92.1628 252.486 75.1744 236.213C59.5327 221.241 57.9118 197.147 70.5206 180.064Z" fill="#C7C8D1"/>
<path d="M291.664 201.516C283.876 209.647 271.016 209.968 262.941 202.233C254.866 194.499 254.634 181.638 262.422 173.507C270.21 165.376 283.069 165.055 291.144 172.79C299.219 180.525 299.452 193.386 291.664 201.516Z" fill="#C7C8D1"/>
<path d="M332.612 184.824C327.942 189.699 320.232 189.891 315.391 185.254C310.549 180.616 310.41 172.905 315.079 168.03C319.749 163.155 327.459 162.963 332.3 167.6C337.142 172.238 337.281 179.949 332.612 184.824Z" fill="#C7C8D1"/>
<path d="M200.86 149.126C200.86 151.139 200.743 153.151 200.567 155.105C200.508 155.519 200.45 155.993 200.391 156.407C200.379 156.478 200.373 156.55 200.356 156.626C200.315 156.97 200.262 157.319 200.215 157.71C200.039 158.835 199.805 159.959 199.57 161.084C198.163 167.419 195.7 173.339 192.358 178.667C192.182 178.963 191.947 179.318 191.771 179.614L189.66 182.633C189.549 182.781 189.432 182.929 189.309 183.077C188.066 184.688 186.717 186.203 185.321 187.665C183.269 189.737 181.099 191.691 178.754 193.467C178.343 193.763 177.933 194.059 177.464 194.414C177.347 194.533 177.229 194.592 177.053 194.71C175.67 195.675 174.233 196.575 172.755 197.404C171.354 198.191 169.911 198.919 168.428 199.577C166.657 200.37 164.839 201.068 162.975 201.666C162.84 201.708 162.699 201.755 162.564 201.797C162.189 201.915 161.814 202.028 161.432 202.134C160.055 202.537 158.653 202.886 157.234 203.176C155.827 203.472 154.419 203.709 152.954 203.886C152.168 203.981 151.417 204.076 150.643 204.135C150.438 204.153 150.233 204.171 150.022 204.182C148.79 204.242 147.559 204.301 146.328 204.301H145.565C143.847 204.277 142.147 204.177 140.47 203.993C128.238 202.685 117.197 197.268 108.741 189.145C107.51 187.961 106.337 186.718 105.223 185.416C102.643 182.456 100.356 179.141 98.4795 175.648C97.3654 173.576 96.3686 171.444 95.5477 169.254C94.2576 165.88 93.2608 162.387 92.6744 158.775C92.6334 158.58 92.5982 158.379 92.5689 158.178C92.3988 157.177 92.2933 156.141 92.1467 155.105C91.9708 153.151 91.8535 151.198 91.8535 149.244V148.119C91.9297 143.525 92.5748 139.068 93.7299 134.823C94.3221 132.627 95.0551 130.489 95.9054 128.417C96.0344 128.098 96.1692 127.778 96.3099 127.458C96.5797 126.819 96.8611 126.18 97.1602 125.552C97.899 123.971 98.7317 122.426 99.6523 120.946C100.121 120.177 100.59 119.348 101.118 118.578C101.693 117.726 102.285 116.885 102.907 116.068C104.32 114.191 105.839 112.409 107.463 110.728C108.454 109.692 109.492 108.704 110.559 107.744C110.911 107.448 111.321 107.093 111.673 106.797C111.743 106.744 111.814 106.685 111.878 106.631C112.101 106.448 112.312 106.27 112.494 106.087C112.67 105.968 112.846 105.791 113.022 105.672C113.373 105.376 113.725 105.14 114.077 104.844C114.429 104.607 114.781 104.311 115.191 104.074C115.22 104.05 115.256 104.033 115.291 104.009C118.879 101.463 122.767 99.3676 126.907 97.7632C128.472 97.1594 130.073 96.6206 131.709 96.1648C132.853 95.8451 134.008 95.561 135.186 95.3123C136.887 94.9571 138.587 94.6611 140.347 94.4835C141.109 94.4243 141.812 94.3059 142.575 94.3059H142.809C143.044 94.3059 143.278 94.2467 143.513 94.2467C143.865 94.2467 144.158 94.1875 144.451 94.1875H146.328C148.028 94.1875 149.728 94.2467 151.429 94.4243C155.24 94.7795 158.876 95.5491 162.394 96.6147C168.786 98.6276 174.649 101.765 179.809 105.791C179.868 105.791 179.868 105.85 179.927 105.85C180.63 106.383 181.334 106.975 182.038 107.567C183.093 108.455 184.09 109.461 185.087 110.468C185.38 110.764 185.615 111.001 185.849 111.297C186.905 112.362 187.843 113.546 188.781 114.671C189.778 115.914 190.657 117.157 191.537 118.46C191.889 119.052 192.299 119.585 192.651 120.177C192.768 120.354 192.827 120.473 192.944 120.65C193.472 121.538 194 122.485 194.469 123.373C194.469 123.433 194.527 123.492 194.527 123.492C195.055 124.439 195.524 125.445 195.935 126.452C196.169 126.985 196.404 127.518 196.638 128.05C196.931 128.702 197.166 129.353 197.401 130.004C197.928 131.425 198.397 132.905 198.808 134.444C199.101 135.569 199.394 136.634 199.629 137.759C199.746 138.233 199.805 138.706 199.922 139.121C199.981 139.594 200.098 140.068 200.157 140.542C200.215 140.897 200.274 141.252 200.332 141.666C200.332 141.785 200.391 141.962 200.391 142.081C200.45 142.495 200.508 142.969 200.567 143.383C200.626 143.798 200.684 144.271 200.684 144.686V144.982C200.684 145.278 200.743 145.574 200.743 145.929V146.639C200.743 146.995 200.802 147.35 200.802 147.705C200.802 147.764 200.802 147.764 200.802 147.823V148.771C200.86 148.889 200.86 149.007 200.86 149.126Z" fill="#131C6C"/>
<path d="M185.849 171.835L177.647 182.452L170.286 189.318L168.429 199.578C166.658 200.371 164.84 201.069 162.976 201.667C162.841 201.709 162.7 201.756 162.565 201.798C162.19 201.916 161.814 202.029 161.433 202.135L156.848 184.76L142.001 170.729L153.447 148.304L158.126 147.434L169.643 158.119L185.006 163.596L185.849 171.835Z" fill="#545FC4"/>
<path d="M148.883 126.767L132.84 144.764L139.102 158.978L136.645 161.357L113.038 150.737L97.1592 125.553C97.898 123.972 98.7307 122.427 99.6513 120.947C100.12 120.177 100.589 119.349 101.117 118.579C101.692 117.727 102.284 116.886 102.906 116.069C104.319 114.192 105.837 112.41 107.462 110.729C108.453 109.693 109.491 108.704 110.558 107.745C110.91 107.449 111.32 107.094 111.672 106.798C111.742 106.745 111.813 106.686 111.877 106.632C112.1 106.449 112.311 106.271 112.493 106.088C112.669 105.969 112.845 105.792 113.021 105.673C113.372 105.377 113.724 105.14 114.076 104.844C114.428 104.608 114.78 104.312 115.19 104.075C115.219 104.051 115.255 104.033 115.29 104.01C119.465 101.802 156.289 118.502 156.289 118.502L148.883 126.767Z" fill="#545FC4"/>
<path d="M145.539 164.546L144.256 168.17L132.78 159.618L137.216 154.693L145.539 164.546Z" fill="#545FC4"/>
<path d="M150.046 115.742L134.026 117.482L129.926 106.386L146.177 101.791L150.046 115.742Z" fill="#131C6C"/>
<path d="M156.289 118.5L141.368 118.194L139.456 110.656L153.765 109.232L156.289 118.5Z" fill="#545FC4"/>
<path d="M131.746 104.703L128.082 112.691L116.977 103.832L128.688 101.189L131.746 104.703Z" fill="#545FC4"/>
<path d="M156.846 184.757L142.733 174.855L141.998 170.731L144.612 166.934L161.134 178.526L156.846 184.757Z" fill="#545FC4"/>
<path d="M141.253 143.45L139.681 149.179L130.125 140.042L137.123 132.582L141.253 143.45Z" fill="#545FC4"/>
<path d="M520.401 261.854L571.509 284.518L570.771 286.182L519.663 263.518L520.401 261.854Z" fill="#010101"/>
<path d="M567.858 292.097L567.638 293.908L509.959 286.06L510.18 284.249L567.858 292.097Z" fill="#010101"/>
<path d="M530.6 239.526L575.128 277.014L573.934 278.393L529.406 240.905L530.6 239.526Z" fill="#010101"/>
</svg>
