<svg width="642" height="839" viewBox="0 0 642 839" fill="none" xmlns="http://www.w3.org/2000/svg">
<path d="M626.481 226.002L573.6 350.707L588.178 356.877L641.059 232.172L626.481 226.002Z" fill="#939598"/>
<path d="M626.481 226.002L573.6 350.707L588.178 356.877L641.059 232.172L626.481 226.002Z" fill="#3FC337"/>
<path d="M532.859 272.169L578.558 292.414L577.898 293.901L532.199 273.655L532.859 272.169Z" fill="#010101"/>
<path d="M575.294 299.187L575.097 300.805L523.523 293.794L523.72 292.177L575.294 299.187Z" fill="#010101"/>
<path d="M541.979 252.224L581.794 285.711L580.726 286.943L540.911 253.455L541.979 252.224Z" fill="#010101"/>
<path d="M389.758 190.557L367.536 251.843L406.766 254.449L408.373 207.098L389.758 190.557Z" fill="#939598"/>
<path d="M399.569 201.669C414.67 202.401 427.506 190.764 428.239 175.678C428.971 160.591 417.323 147.768 402.222 147.036C387.12 146.304 374.284 157.941 373.552 173.028C372.819 188.114 384.467 200.938 399.569 201.669Z" fill="#C7D1C7"/>
<path d="M419.765 210.336C424.089 211.627 428.663 211.84 433.088 210.955L431.343 203.232L443.172 202.449L423.34 156.957L381.575 173.385L384.449 199.613L387.935 204.186L394.608 203.16C394.608 203.16 395.71 214.025 412.049 225.447C423.123 233.189 438.068 233.008 438.068 233.008L434.62 217.739C428.756 217.838 423.212 215.075 419.765 210.336Z" fill="#C7D1C7"/>
<path d="M423.11 176.628L413.312 180.012L414.396 183.143L424.194 179.759L423.11 176.628Z" fill="#010101"/>
<path d="M389.365 209.548C395.539 209.847 400.786 205.09 401.086 198.922C401.385 192.755 396.623 187.513 390.45 187.214C384.276 186.914 379.029 191.672 378.729 197.839C378.43 204.007 383.192 209.249 389.365 209.548Z" fill="#C7D1C7"/>
<path d="M371.683 177.978L371.384 184.147L391.061 187.226L391.566 176.816L371.683 177.978Z" fill="#3FC337"/>
<path d="M395.155 357.933C408.181 357.933 418.741 347.383 418.741 334.37C418.741 321.356 408.181 310.807 395.155 310.807C382.128 310.807 371.568 321.356 371.568 334.37C371.568 347.383 382.128 357.933 395.155 357.933Z" fill="#186C13"/>
<path d="M413.252 319.26L399.548 304.164L386.917 296.34C386.917 296.34 390.845 314.12 392.283 315.247C393.721 316.373 407.616 325.443 408.553 326.762C409.49 328.081 413.252 319.26 413.252 319.26Z" fill="#186C13"/>
<path d="M358.404 270.301L364.785 247.164L412.012 249.455L409.258 267.371L358.404 270.301Z" fill="#3FC337"/>
<path d="M185.25 466.707L193.454 471.722C203.338 462.35 248.781 411.075 242.512 359.596L216.51 367.943L186.103 466.261L185.25 466.707Z" fill="#C7D1C7"/>
<path d="M543.949 809.05L523.826 821.9L319.644 491.938L382.752 442.537L543.949 809.05Z" fill="#010101"/>
<path d="M523.827 821.898L534.551 838.659L601.035 794.367L543.95 809.048L523.827 821.898Z" fill="#186C13"/>
<path d="M575.466 381.351C585.496 381.351 593.627 373.228 593.627 363.208C593.627 353.187 585.496 345.064 575.466 345.064C565.436 345.064 557.305 353.187 557.305 363.208C557.305 373.228 565.436 381.351 575.466 381.351Z" fill="#C7D1C7"/>
<path d="M401.326 311.883C401.326 311.883 380.233 282.698 333.797 290.901C246.589 306.309 216.513 367.942 216.509 367.942L401.326 311.883Z" fill="#010101"/>
<path d="M209.521 453.021C228.068 426.655 250.089 384.969 242.511 359.596L216.509 367.943L192.601 445.249L209.521 453.021Z" fill="#010101"/>
<path d="M380.748 488.164L345.683 693.707L227.966 817.793H205.058C205.058 817.793 233.893 701.937 308.394 669.845C308.394 669.845 263.154 523.809 319.644 484.357L380.748 488.164Z" fill="#C7D1C7"/>
<path d="M204.98 817.793V837.488H281.226L227.871 817.793H204.98Z" fill="#186C13"/>
<path d="M389.891 449.874H319.644C319.644 449.874 293.608 341.994 332.573 289.448C360.308 252.049 409.358 266.75 409.358 266.75L389.891 449.874Z" fill="#186C13"/>
<path d="M562.319 373.65L559.836 365.096C546.211 365.42 490.07 365.549 450.62 408.021L463.027 435.507L562.319 373.65Z" fill="#C7D1C7"/>
<path d="M541.67 385.855L537.814 366.468C505.89 369.976 471.891 384.047 450.618 408.02L361.949 290.902C361.949 290.902 339.907 324.528 366.826 363.208C413.377 430.097 463.018 435.504 463.027 435.506L541.67 385.855Z" fill="#3FC337"/>
<path d="M187.159 499.333C197.189 499.333 205.32 491.21 205.32 481.19C205.32 471.17 197.189 463.047 187.159 463.047C177.129 463.047 168.998 471.17 168.998 481.19C168.998 491.21 177.129 499.333 187.159 499.333Z" fill="#C7D1C7"/>
<path d="M319.645 449.873L264.989 593.74H450.621L389.891 449.873H319.645Z" fill="#3FC337"/>
<path d="M349.619 177.123C349.619 203.848 365.874 214.387 377.679 214.387C383.52 214.387 390.416 213.207 390.416 194.496C390.416 194.456 390.583 192.54 390.627 192.54C410.757 192.54 420.258 158.461 420.258 158.461C410.584 130.034 349.619 131.016 349.619 177.123Z" fill="#010101"/>
<path d="M368.707 176.596C368.707 176.596 365.977 157.817 342.538 157.232C299.332 156.153 308.199 221.962 261.103 209.683C260.642 217.591 285.017 236.721 308.552 236.721C368.012 236.721 370.185 188.052 370.185 188.052L368.707 176.596Z" fill="#010101"/>
<path d="M426.517 151.858C426.517 148.542 425.211 145.361 422.888 143.016C420.564 140.671 417.412 139.353 414.125 139.352C407.28 139.352 393.433 144.951 393.433 151.858C393.433 158.764 407.28 164.364 414.125 164.364C417.412 164.362 420.564 163.044 422.888 160.699C425.211 158.354 426.517 155.173 426.517 151.858Z" fill="#010101"/>
<path d="M378.857 156.57L370.349 157.613L373.813 185.821L382.321 184.778L378.857 156.57Z" fill="#939598"/>
<path d="M381.482 212.269C390.026 211.221 396.108 203.502 395.067 195.027C394.026 186.552 386.256 180.531 377.712 181.578C369.169 182.626 363.087 190.345 364.128 198.82C365.169 207.295 372.939 213.316 381.482 212.269Z" fill="#3FC337"/>
<path d="M387.734 203.232C391.253 198.766 390.461 192.322 385.967 188.839C381.472 185.356 374.976 186.152 371.458 190.617C367.939 195.083 368.731 201.527 373.225 205.01C377.72 208.493 384.216 207.697 387.734 203.232Z" fill="#186C13"/>
<path d="M365.791 123.06L375.114 121.917C376.894 121.699 378.514 122.954 378.731 124.72L382.248 153.359C382.686 156.925 380.128 160.172 376.534 160.613L373.778 160.95C370.184 161.391 366.916 158.858 366.478 155.293L362.96 126.653C362.743 124.887 364.011 123.278 365.791 123.06Z" fill="#3FC337"/>
<path d="M383.571 191.814L375.152 192.846L376.178 201.197L384.597 200.165L383.571 191.814Z" fill="#010101"/>
<path d="M76.9053 567.645L54.5422 613.56L38.4493 605.738L52.995 575.873C57.3126 567.008 68.0179 563.325 76.9053 567.645Z" fill="#010101"/>
<path d="M182.193 618.824L159.83 664.74L175.923 672.562L190.469 642.698C194.786 633.833 191.082 623.145 182.193 618.824Z" fill="#010101"/>
<path d="M188.962 521.3L182.145 517.986L190.193 501.462C193.633 494.4 190.67 485.854 183.589 482.411C176.507 478.969 167.949 481.915 164.509 488.977L156.461 505.501L149.644 502.187L157.692 485.664C162.955 474.851 176.058 470.342 186.899 475.612C197.739 480.882 202.276 493.965 197.01 504.776L188.962 521.3Z" fill="#010101"/>
<path d="M165.275 667.386L49.1969 610.962L86.941 533.467C102.51 501.5 141.118 488.215 173.173 503.797C205.226 519.378 218.591 557.924 203.02 589.892L165.276 667.387L165.275 667.386Z" fill="#186C13"/>
<path d="M153.511 552.783L146.723 549.483C128.772 540.758 107.152 548.196 98.432 566.099L79.3471 605.283L151.14 640.181L170.224 600.996C178.946 583.094 171.461 561.508 153.511 552.783Z" fill="#3FC337"/>
<path d="M141.751 568.312C149.813 572.231 159.524 568.89 163.44 560.849C167.356 552.809 163.995 543.113 155.933 539.194C147.87 535.275 138.159 538.616 134.243 546.657C130.327 554.698 133.688 564.393 141.751 568.312Z" fill="#010101"/>
<path d="M62.7479 160.57C60.0211 159.04 57.4267 157.191 55.0638 154.93C39.8734 140.394 39.4359 116.22 54.0868 100.939C59.3438 95.4566 65.8336 91.8985 72.69 90.2154C71.648 79.4886 75.1144 68.3589 83.1946 59.9315C97.485 45.0272 120.831 44.1297 136.068 57.5785C137.045 56.2538 138.082 54.962 139.253 53.7408C153.903 38.4606 178.098 37.8572 193.288 52.3932C203.893 62.5416 207.285 77.3793 203.396 90.6155C209.08 92.2617 214.463 95.2356 219.028 99.604C234.218 114.14 234.656 138.314 220.005 153.594C209.689 164.353 194.652 167.802 181.346 163.846C188.73 177.956 186.685 195.826 174.98 208.033C160.33 223.313 136.135 223.916 120.945 209.38C106.294 224.66 82.0996 225.264 66.9092 210.728C52.9229 197.354 51.4735 175.83 62.7479 160.57Z" fill="#C7D1C7"/>
<path d="M260.486 179.734C253.522 186.997 242.024 187.283 234.804 180.374C227.583 173.465 227.375 161.976 234.339 154.713C241.303 147.45 252.801 147.164 260.022 154.073C267.242 160.982 267.45 172.471 260.486 179.734Z" fill="#C7D1C7"/>
<path d="M297.101 164.822C292.926 169.177 286.032 169.349 281.703 165.206C277.374 161.064 277.249 154.175 281.424 149.82C285.6 145.466 292.494 145.294 296.823 149.436C301.152 153.579 301.277 160.467 297.101 164.822Z" fill="#C7D1C7"/>
<path d="M177.946 132.152C177.946 133.95 177.841 135.748 177.683 137.493C177.631 137.863 177.579 138.286 177.526 138.656C177.516 138.72 177.51 138.783 177.495 138.852C177.458 139.159 177.411 139.471 177.369 139.82C177.212 140.824 177.002 141.829 176.792 142.834C175.534 148.493 173.332 153.781 170.343 158.54C170.186 158.805 169.976 159.122 169.819 159.386L167.931 162.083C167.832 162.216 167.727 162.348 167.617 162.48C166.505 163.919 165.299 165.272 164.051 166.579C162.216 168.429 160.276 170.175 158.179 171.761C157.812 172.025 157.445 172.29 157.025 172.607C156.921 172.713 156.816 172.766 156.658 172.872C155.421 173.734 154.136 174.537 152.815 175.278C151.562 175.981 150.272 176.632 148.946 177.219C147.362 177.927 145.737 178.551 144.07 179.085C143.949 179.122 143.823 179.165 143.703 179.202C143.367 179.307 143.032 179.408 142.691 179.503C141.459 179.863 140.205 180.175 138.937 180.434C137.678 180.698 136.42 180.91 135.109 181.069C134.407 181.153 133.735 181.238 133.043 181.291C132.86 181.306 132.676 181.322 132.488 181.333C131.386 181.386 130.285 181.439 129.184 181.439H128.503C126.967 181.418 125.446 181.328 123.946 181.164C113.009 179.995 103.136 175.156 95.5758 167.901C94.4748 166.843 93.4261 165.732 92.4299 164.569C90.123 161.925 88.0781 158.963 86.4003 155.843C85.4041 153.992 84.5128 152.089 83.7788 150.132C82.6253 147.118 81.7339 143.997 81.2096 140.772C81.1729 140.597 81.1415 140.417 81.1152 140.237C80.9632 139.344 80.8688 138.418 80.7377 137.493C80.5804 135.748 80.4756 134.003 80.4756 132.257V131.253C80.5437 127.149 81.1205 123.167 82.1534 119.375C82.6829 117.413 83.3383 115.504 84.0986 113.653C84.2139 113.368 84.3345 113.082 84.4604 112.796C84.7016 112.225 84.9532 111.654 85.2206 111.094C85.8813 109.682 86.6258 108.301 87.449 106.979C87.8684 106.292 88.2879 105.551 88.7597 104.864C89.2736 104.102 89.8031 103.352 90.3589 102.622C91.6225 100.945 92.9805 99.3536 94.4328 97.8517C95.3189 96.9262 96.247 96.0431 97.2012 95.1864C97.5158 94.922 97.8828 94.6047 98.1974 94.3403C98.2603 94.2927 98.3232 94.2398 98.3809 94.1922C98.5802 94.0283 98.7689 93.8696 98.9314 93.7057C99.0887 93.5999 99.246 93.4413 99.4033 93.3355C99.7179 93.0711 100.033 92.8595 100.347 92.5951C100.662 92.3836 100.976 92.1192 101.343 91.9076C101.37 91.8865 101.401 91.8706 101.432 91.8495C104.641 89.5755 108.117 87.7034 111.819 86.2703C113.219 85.7309 114.65 85.2497 116.113 84.8425C117.136 84.5569 118.169 84.3031 119.222 84.081C120.743 83.7637 122.263 83.4992 123.836 83.3406C124.518 83.2877 125.147 83.1819 125.829 83.1819H126.038C126.248 83.1819 126.458 83.1291 126.668 83.1291C126.982 83.1291 127.244 83.0762 127.507 83.0762H129.184C130.705 83.0762 132.225 83.1291 133.746 83.2877C137.154 83.605 140.405 84.2925 143.551 85.2444C149.266 87.0424 154.509 89.8452 159.123 93.4413C159.175 93.4413 159.175 93.4941 159.228 93.4941C159.857 93.9701 160.486 94.4989 161.115 95.0277C162.059 95.821 162.95 96.72 163.842 97.619C164.104 97.8834 164.313 98.095 164.523 98.3594C165.467 99.3113 166.306 100.369 167.145 101.374C168.036 102.484 168.823 103.595 169.609 104.758C169.924 105.287 170.291 105.763 170.605 106.292C170.71 106.45 170.762 106.556 170.867 106.715C171.339 107.508 171.811 108.354 172.231 109.148C172.231 109.2 172.283 109.253 172.283 109.253C172.755 110.099 173.174 110.998 173.541 111.897C173.751 112.373 173.961 112.849 174.171 113.325C174.433 113.907 174.642 114.489 174.852 115.07C175.324 116.34 175.743 117.662 176.11 119.037C176.373 120.041 176.635 120.993 176.845 121.998C176.949 122.421 177.002 122.844 177.107 123.214C177.159 123.637 177.264 124.061 177.316 124.484C177.369 124.801 177.421 125.118 177.474 125.488C177.474 125.594 177.526 125.753 177.526 125.859C177.579 126.229 177.631 126.652 177.683 127.022C177.736 127.392 177.788 127.815 177.788 128.185V128.45C177.788 128.714 177.841 128.979 177.841 129.296V129.931C177.841 130.248 177.893 130.565 177.893 130.882C177.893 130.935 177.893 130.935 177.893 130.988V131.834C177.946 131.94 177.946 132.046 177.946 132.152Z" fill="#186C13"/>
<path d="M164.524 152.436L157.19 161.92L150.608 168.053L148.947 177.218C147.364 177.927 145.738 178.551 144.071 179.085C143.951 179.122 143.825 179.164 143.704 179.201C143.369 179.307 143.033 179.407 142.692 179.503L138.592 163.981L125.316 151.448L135.551 131.416L139.735 130.639L150.033 140.184L163.77 145.076L164.524 152.436Z" fill="#3FC337"/>
<path d="M131.469 112.178L117.124 128.254L122.724 140.952L120.527 143.077L99.4181 133.59L85.2197 111.094C85.8804 109.682 86.6249 108.302 87.4481 106.979C87.8675 106.292 88.287 105.552 88.7588 104.864C89.2727 104.103 89.8022 103.352 90.358 102.622C91.6216 100.945 92.9796 99.3537 94.4319 97.8518C95.318 96.9264 96.246 96.0432 97.2003 95.1865C97.5149 94.9221 97.8819 94.6048 98.1965 94.3404C98.2594 94.2928 98.3223 94.2399 98.38 94.1923C98.5792 94.0284 98.768 93.8697 98.9305 93.7058C99.0878 93.6 99.2451 93.4414 99.4024 93.3356C99.717 93.0712 100.032 92.8597 100.346 92.5953C100.661 92.3837 100.975 92.1193 101.342 91.9078C101.369 91.8866 101.4 91.8708 101.432 91.8496C105.165 89.8771 138.092 104.795 138.092 104.795L131.469 112.178Z" fill="#3FC337"/>
<path d="M128.48 145.926L127.333 149.163L117.071 141.524L121.037 137.125L128.48 145.926Z" fill="#3FC337"/>
<path d="M132.509 102.33L118.185 103.884L114.519 93.9714L129.05 89.8672L132.509 102.33Z" fill="#186C13"/>
<path d="M138.092 104.794L124.75 104.521L123.04 97.7875L135.835 96.5156L138.092 104.794Z" fill="#3FC337"/>
<path d="M116.146 92.4687L112.871 99.6042L102.94 91.6908L113.413 89.3301L116.146 92.4687Z" fill="#3FC337"/>
<path d="M138.59 163.98L125.971 155.134L125.313 151.451L127.651 148.059L142.424 158.414L138.59 163.98Z" fill="#3FC337"/>
<path d="M124.648 127.081L123.241 132.199L114.697 124.037L120.954 117.373L124.648 127.081Z" fill="#3FC337"/>
</svg>
