<svg width="642" height="839" viewBox="0 0 642 839" fill="none" xmlns="http://www.w3.org/2000/svg">
<path d="M624.76 209.862L565.619 349.465L581.923 356.372L641.064 216.769L624.76 209.862Z" fill="#939598"/>
<path d="M624.76 209.862L565.619 349.465L581.923 356.372L641.064 216.769L624.76 209.862Z" fill="#3FC337"/>
<path d="M375.249 184.076L358.596 231.463L396.521 235.314L395.293 180.688L375.249 184.076Z" fill="#939498"/>
<path d="M423.097 140.41L432.434 185.953L418.619 183.657L423.097 140.41Z" fill="#C7D1C7"/>
<path d="M421.299 205.865C417.843 204.909 414.689 203.089 412.136 200.576C409.583 198.064 407.715 194.943 406.71 191.509C413.561 196.656 418.921 197.595 422.341 197.417C422.957 186.253 423.745 173.19 424.672 160.63C426.972 129.441 411.029 120.325 397.421 118.095C376.04 114.592 365.862 120.723 364.636 149.748C363.591 174.773 379.758 181.565 379.758 181.565C388.987 217.743 420.614 218.845 420.614 218.845L421.299 205.865Z" fill="#C7D1C7"/>
<path d="M399.017 144.698C399.017 144.698 435.624 149.815 441.264 112.523C441.264 112.523 428.661 121.735 407.083 117.898C384.366 113.869 366.418 117.199 357.787 136.857C351.879 150.31 359.111 168.482 368.877 177.35C368.877 177.35 393.061 178.485 399.017 144.698Z" fill="#010101"/>
<path d="M378.644 186.418C384.455 186.418 389.166 181.718 389.166 175.922C389.166 170.125 384.455 165.426 378.644 165.426C372.833 165.426 368.122 170.125 368.122 175.922C368.122 181.718 372.833 186.418 378.644 186.418Z" fill="#C7D1C7"/>
<path d="M414.991 164.809L406.137 163.391L405.682 166.217L414.536 167.636L414.991 164.809Z" fill="#010101"/>
<path d="M398.459 117.4C398.459 117.4 411.682 117.208 423.646 99.9629C428.91 119.455 415.718 123.694 415.718 123.694L398.459 117.4Z" fill="#010101"/>
<path d="M375.65 119.797C371.248 118.809 366.685 118.774 362.269 119.696C357.852 120.617 353.686 122.473 350.05 125.138C357.007 124.96 363.844 126.968 369.594 130.878L375.65 119.797Z" fill="#010101"/>
<path d="M364.931 127.334C364.931 127.334 353.509 129.668 350.05 138.192C350.05 138.192 359.868 133.216 364.931 135.249V127.334Z" fill="#010101"/>
<path d="M374.76 119.395C384.367 111.824 393.022 118.514 402.667 104.039C403.747 106.299 404.172 108.815 403.895 111.304C403.618 113.792 402.649 116.154 401.099 118.123L374.76 119.395Z" fill="#010101"/>
<path d="M172.215 449.652L185.112 457.525C195.468 447.723 251.434 372.922 240.292 335.664L204.959 346.366L173.113 449.188L172.215 449.652Z" fill="#C7D1C7"/>
<path d="M560.703 799.548L526.847 821.137L312.982 476.042L379.083 424.375L560.703 799.548Z" fill="#010101"/>
<path d="M526.848 821.136L538.08 838.664L620.494 784.193L560.703 799.547L526.848 821.136Z" fill="#186C13"/>
<path d="M172.754 490.383C184.47 490.383 193.969 480.909 193.969 469.221C193.969 457.533 184.47 448.059 172.754 448.059C161.037 448.059 151.539 457.533 151.539 469.221C151.539 480.909 161.037 490.383 172.754 490.383Z" fill="#C7D1C7"/>
<path d="M579.601 362.569C591.318 362.569 600.816 353.094 600.816 341.407C600.816 329.719 591.318 320.244 579.601 320.244C567.885 320.244 558.387 329.719 558.387 341.407C558.387 353.094 567.885 362.569 579.601 362.569Z" fill="#C7D1C7"/>
<path d="M398.54 287.733C398.54 287.733 375.736 252.342 327.109 260.938C235.766 277.052 204.975 346.358 204.971 346.367L398.54 287.733Z" fill="#010101"/>
<path d="M202.706 435.341C222.13 407.763 248.236 362.201 240.294 335.664L204.961 346.366L179.919 427.21L202.706 435.341Z" fill="#010101"/>
<path d="M376.997 472.095L340.262 687.066L167.283 816.832H128.027C128.027 816.832 202.35 672.918 286.285 660.95C286.285 660.95 261.792 527.975 291.777 466.789L376.997 472.095Z" fill="#3FC337"/>
<path d="M128.027 816.84V837.441H223.168L167.283 816.84H128.027Z" fill="#186C13"/>
<path d="M329.708 203.908C315.775 212.269 320.899 228.535 319.618 234.036C317.226 244.309 309.869 239.782 309.752 261.402C309.741 262.837 310.042 264.258 310.636 265.565C311.231 266.872 312.103 268.034 313.192 268.972L315.884 271.27C322.298 285.601 406.271 244.863 406.271 244.863H400.66C400.985 242.968 406.955 240.531 406.955 240.531C406.195 230.507 329.708 203.908 329.708 203.908Z" fill="#3FC337"/>
<path d="M376.998 472.096L291.789 466.797C291.789 466.797 278.671 304.661 327.151 256.3C365.324 218.217 406.955 240.532 406.955 240.532L376.998 472.096Z" fill="#186C13"/>
<path d="M567.166 352.327L562.889 337.859C548.619 338.198 467.041 351.396 439.547 390.045L463.161 417.021L566.184 352.074L567.166 352.327Z" fill="#C7D1C7"/>
<path d="M545.537 365.093L540.358 340.921C506.92 344.589 468.874 356.699 446.593 381.772L357.294 265.793C357.294 265.793 323.241 300.731 351.435 341.184C400.194 411.141 463.154 417.018 463.165 417.018L545.537 365.093Z" fill="#3FC337"/>
<path d="M325.971 422.068V419.698L364.73 419.326V421.696L325.971 422.068Z" fill="#010101"/>
<path d="M48.232 573.499L23.2219 624.9L5.22427 616.143L21.4916 582.71C26.3202 572.787 38.2926 568.663 48.232 573.499Z" fill="#010101"/>
<path d="M165.982 630.793L140.972 682.194L158.97 690.951L175.237 657.518C180.066 647.594 175.923 635.63 165.982 630.793Z" fill="#010101"/>
<path d="M173.552 521.618L165.928 517.909L174.928 499.411C178.775 491.505 175.462 481.937 167.542 478.084C159.622 474.23 150.051 477.528 146.204 485.434L137.204 503.932L129.579 500.222L138.58 481.725C144.466 469.62 159.12 464.573 171.244 470.472C183.368 476.371 188.441 491.017 182.552 503.12L173.552 521.618Z" fill="#010101"/>
<path d="M147.061 685.157L17.2442 621.992L59.4557 535.239C76.868 499.453 120.045 484.581 155.894 502.024C191.741 519.467 206.688 562.618 189.274 598.405L147.063 685.158L147.061 685.157Z" fill="#186C13"/>
<path d="M133.904 556.861L126.313 553.167C106.238 543.4 82.0582 551.726 72.3065 571.768L50.9626 615.634L131.253 654.701L152.596 610.835C162.35 590.794 153.979 566.629 133.904 556.861Z" fill="#3FC337"/>
<path d="M120.752 574.246C129.769 578.633 140.629 574.893 145.009 565.892C149.389 556.89 145.63 546.036 136.613 541.649C127.596 537.262 116.736 541.002 112.356 550.003C107.976 559.005 111.735 569.859 120.752 574.246Z" fill="#010101"/>
<path d="M375.554 127.979L366.039 129.146L369.914 160.724L379.429 159.557L375.554 127.979Z" fill="#939498"/>
<path d="M378.491 190.332C388.045 189.159 394.847 180.518 393.683 171.03C392.519 161.543 383.83 154.802 374.275 155.975C364.72 157.147 357.918 165.789 359.083 175.276C360.247 184.763 368.936 191.504 378.491 190.332Z" fill="#3FC337"/>
<path d="M385.483 180.214C389.418 175.215 388.533 168.001 383.506 164.102C378.48 160.202 371.215 161.094 367.28 166.093C363.345 171.092 364.23 178.306 369.257 182.205C374.284 186.104 381.549 185.213 385.483 180.214Z" fill="#186C13"/>
<path d="M360.943 90.4658L371.368 89.1864C373.36 88.9421 375.171 90.347 375.413 92.3242L379.347 124.385C379.837 128.376 376.976 132.011 372.956 132.505L369.875 132.883C365.855 133.376 362.2 130.54 361.71 126.549L357.776 94.4884C357.534 92.5112 358.951 90.7101 360.943 90.4658Z" fill="#3FC337"/>
<path d="M380.826 167.433L371.411 168.588L372.558 177.937L381.974 176.782L380.826 167.433Z" fill="#010101"/>
<path d="M70.1749 179.753C67.1254 178.04 64.2238 175.97 61.5813 173.439C44.5929 157.166 44.1037 130.104 60.4887 112.999C66.3679 106.861 73.6258 102.878 81.2938 100.993C80.1284 88.9852 84.005 76.5258 93.0417 67.0917C109.024 50.4068 135.133 49.4022 152.174 64.4576C153.266 62.9746 154.425 61.5285 155.735 60.1614C172.12 43.0557 199.178 42.3803 216.166 58.6528C228.026 70.0136 231.819 86.6238 227.47 101.441C233.827 103.284 239.847 106.613 244.952 111.504C261.941 127.776 262.43 154.838 246.045 171.944C234.509 183.988 217.691 187.849 202.811 183.42C211.068 199.216 208.781 219.22 195.691 232.886C179.306 249.991 152.248 250.667 135.26 234.394C118.875 251.5 91.8171 252.175 74.8287 235.903C59.187 220.931 57.5661 196.836 70.1749 179.753Z" fill="#C7D1C7"/>
<path d="M291.318 201.206C283.53 209.336 270.67 209.658 262.596 201.923C254.521 194.188 254.288 181.327 262.076 173.196C269.864 165.066 282.724 164.745 290.799 172.479C298.873 180.214 299.106 193.075 291.318 201.206Z" fill="#C7D1C7"/>
<path d="M332.266 184.513C327.597 189.388 319.886 189.581 315.045 184.943C310.203 180.306 310.064 172.594 314.734 167.719C319.403 162.844 327.113 162.652 331.955 167.29C336.796 171.927 336.936 179.638 332.266 184.513Z" fill="#C7D1C7"/>
<path d="M200.514 148.815C200.514 150.828 200.397 152.841 200.221 154.794C200.163 155.209 200.104 155.682 200.045 156.097C200.034 156.168 200.028 156.239 200.01 156.316C199.969 156.659 199.916 157.009 199.869 157.399C199.694 158.524 199.459 159.649 199.224 160.774C197.817 167.108 195.354 173.028 192.012 178.356C191.836 178.652 191.602 179.008 191.426 179.304L189.315 182.323C189.203 182.471 189.086 182.619 188.963 182.767C187.72 184.377 186.371 185.893 184.976 187.355C182.923 189.427 180.754 191.381 178.408 193.157C177.998 193.453 177.587 193.749 177.118 194.104C177.001 194.222 176.884 194.281 176.708 194.4C175.324 195.365 173.887 196.265 172.41 197.093C171.008 197.881 169.566 198.609 168.082 199.266C166.311 200.059 164.494 200.758 162.629 201.356C162.494 201.397 162.353 201.445 162.218 201.486C161.843 201.604 161.468 201.717 161.087 201.824C159.709 202.226 158.307 202.575 156.888 202.865C155.481 203.161 154.074 203.398 152.608 203.576C151.822 203.671 151.072 203.765 150.298 203.825C150.092 203.842 149.887 203.86 149.676 203.872C148.445 203.931 147.213 203.99 145.982 203.99H145.22C143.501 203.967 141.801 203.866 140.124 203.682C127.892 202.374 116.851 196.957 108.395 188.835C107.164 187.651 105.991 186.408 104.877 185.105C102.297 182.145 100.01 178.83 98.1338 175.337C97.0197 173.265 96.0229 171.134 95.202 168.943C93.9119 165.569 92.9151 162.076 92.3287 158.465C92.2877 158.27 92.2525 158.068 92.2232 157.867C92.0531 156.867 91.9476 155.831 91.801 154.794C91.6251 152.841 91.5078 150.887 91.5078 148.934V147.809C91.584 143.215 92.2291 138.757 93.3842 134.512C93.9764 132.316 94.7094 130.179 95.5596 128.107C95.6886 127.787 95.8235 127.467 95.9642 127.148C96.234 126.508 96.5154 125.869 96.8145 125.241C97.5533 123.661 98.386 122.116 99.3066 120.636C99.7757 119.866 100.245 119.037 100.773 118.268C101.347 117.415 101.939 116.575 102.561 115.758C103.974 113.881 105.493 112.099 107.117 110.418C108.108 109.382 109.146 108.393 110.213 107.434C110.565 107.138 110.975 106.783 111.327 106.487C111.398 106.433 111.468 106.374 111.532 106.321C111.755 106.137 111.966 105.96 112.148 105.776C112.324 105.658 112.5 105.48 112.676 105.362C113.028 105.066 113.38 104.829 113.731 104.533C114.083 104.296 114.435 104 114.845 103.763C114.875 103.74 114.91 103.722 114.945 103.698C118.534 101.153 122.421 99.057 126.561 97.4527C128.127 96.8488 129.728 96.3101 131.364 95.8543C132.507 95.5346 133.662 95.2504 134.841 95.0018C136.541 94.6466 138.242 94.3506 140.001 94.173C140.763 94.1138 141.467 93.9954 142.229 93.9954H142.464C142.698 93.9954 142.933 93.9362 143.167 93.9362C143.519 93.9362 143.812 93.877 144.105 93.877H145.982C147.682 93.877 149.383 93.9362 151.083 94.1138C154.895 94.469 158.53 95.2386 162.048 96.3042C168.44 98.317 174.304 101.455 179.464 105.48C179.522 105.48 179.522 105.539 179.581 105.539C180.285 106.072 180.988 106.664 181.692 107.256C182.747 108.144 183.744 109.151 184.741 110.157C185.034 110.453 185.269 110.69 185.503 110.986C186.559 112.052 187.497 113.236 188.435 114.36C189.432 115.604 190.312 116.847 191.191 118.149C191.543 118.741 191.953 119.274 192.305 119.866C192.423 120.044 192.481 120.162 192.598 120.34C193.126 121.228 193.654 122.175 194.123 123.063C194.123 123.122 194.182 123.181 194.182 123.181C194.709 124.129 195.178 125.135 195.589 126.141C195.824 126.674 196.058 127.207 196.293 127.74C196.586 128.391 196.82 129.042 197.055 129.693C197.583 131.114 198.052 132.594 198.462 134.133C198.755 135.258 199.049 136.324 199.283 137.449C199.4 137.922 199.459 138.396 199.576 138.81C199.635 139.284 199.752 139.758 199.811 140.231C199.869 140.586 199.928 140.942 199.987 141.356C199.987 141.474 200.045 141.652 200.045 141.77C200.104 142.185 200.163 142.658 200.221 143.073C200.28 143.487 200.339 143.961 200.339 144.375V144.671C200.339 144.967 200.397 145.263 200.397 145.618V146.329C200.397 146.684 200.456 147.039 200.456 147.394C200.456 147.454 200.456 147.454 200.456 147.513V148.46C200.514 148.578 200.514 148.697 200.514 148.815Z" fill="#186C13"/>
<path d="M185.504 171.524L177.301 182.141L169.941 189.007L168.083 199.267C166.312 200.06 164.494 200.759 162.63 201.357C162.495 201.398 162.354 201.446 162.219 201.487C161.844 201.605 161.469 201.718 161.088 201.825L156.502 184.449L141.655 170.419L153.101 147.993L157.781 147.123L169.297 157.809L184.66 163.285L185.504 171.524Z" fill="#3FC337"/>
<path d="M148.537 126.456L132.494 144.453L138.757 158.667L136.3 161.047L112.692 150.426L96.8135 125.242C97.5523 123.662 98.385 122.117 99.3056 120.637C99.7747 119.867 100.244 119.038 100.771 118.268C101.346 117.416 101.938 116.575 102.56 115.758C103.973 113.882 105.492 112.1 107.116 110.418C108.107 109.382 109.145 108.394 110.212 107.435C110.564 107.139 110.974 106.784 111.326 106.488C111.397 106.434 111.467 106.375 111.531 106.322C111.754 106.138 111.965 105.961 112.147 105.777C112.323 105.659 112.499 105.481 112.675 105.363C113.027 105.067 113.378 104.83 113.73 104.534C114.082 104.297 114.434 104.001 114.844 103.764C114.874 103.741 114.909 103.723 114.944 103.699C119.119 101.491 155.943 118.192 155.943 118.192L148.537 126.456Z" fill="#3FC337"/>
<path d="M145.193 164.236L143.91 167.859L132.435 159.307L136.87 154.383L145.193 164.236Z" fill="#3FC337"/>
<path d="M149.7 115.432L133.68 117.172L129.58 106.075L145.831 101.48L149.7 115.432Z" fill="#186C13"/>
<path d="M155.943 118.19L141.023 117.884L139.11 110.346L153.42 108.922L155.943 118.19Z" fill="#3FC337"/>
<path d="M131.4 104.392L127.737 112.38L116.631 103.522L128.342 100.879L131.4 104.392Z" fill="#3FC337"/>
<path d="M156.5 184.447L142.388 174.544L141.652 170.421L144.266 166.623L160.789 178.216L156.5 184.447Z" fill="#3FC337"/>
<path d="M140.907 143.139L139.335 148.868L129.779 139.731L136.777 132.271L140.907 143.139Z" fill="#3FC337"/>
<path d="M520.055 261.543L571.163 284.207L570.425 285.871L519.317 263.207L520.055 261.543Z" fill="#010101"/>
<path d="M567.513 291.787L567.292 293.598L509.614 285.75L509.834 283.939L567.513 291.787Z" fill="#010101"/>
<path d="M530.254 239.215L574.782 276.703L573.588 278.082L529.06 240.594L530.254 239.215Z" fill="#010101"/>
</svg>
