<svg width="642" height="839" viewBox="0 0 642 839" fill="none" xmlns="http://www.w3.org/2000/svg">
<path d="M626.483 226.002L573.602 350.707L588.18 356.877L641.061 232.171L626.483 226.002Z" fill="#939598"/>
<path d="M626.483 226.002L573.602 350.707L588.18 356.877L641.061 232.171L626.483 226.002Z" fill="#F56539"/>
<path d="M532.86 272.165L578.559 292.41L577.899 293.897L532.2 273.651L532.86 272.165Z" fill="#010101"/>
<path d="M575.294 299.181L575.097 300.799L523.523 293.788L523.72 292.171L575.294 299.181Z" fill="#010101"/>
<path d="M541.98 252.22L581.795 285.707L580.727 286.939L540.912 253.451L541.98 252.22Z" fill="#010101"/>
<path d="M389.758 190.557L367.536 251.843L406.766 254.449L408.373 207.098L389.758 190.557Z" fill="#939598"/>
<path d="M399.569 201.669C414.67 202.401 427.506 190.764 428.239 175.678C428.971 160.591 417.323 147.768 402.222 147.036C387.12 146.304 374.284 157.941 373.552 173.028C372.819 188.114 384.467 200.938 399.569 201.669Z" fill="#D1C9C7"/>
<path d="M419.765 210.336C424.089 211.628 428.663 211.84 433.088 210.956L431.343 203.232L443.172 202.449L423.34 156.957L381.575 173.385L384.449 199.613L387.935 204.186L394.608 203.16C394.608 203.16 395.71 214.025 412.049 225.447C423.123 233.189 438.068 233.008 438.068 233.008L434.62 217.739C428.756 217.838 423.212 215.075 419.765 210.336Z" fill="#D1C9C7"/>
<path d="M423.11 176.629L413.312 180.014L414.396 183.145L424.194 179.761L423.11 176.629Z" fill="#010101"/>
<path d="M389.365 209.548C395.539 209.847 400.786 205.09 401.086 198.922C401.385 192.755 396.623 187.513 390.45 187.214C384.276 186.914 379.029 191.672 378.729 197.839C378.43 204.007 383.192 209.249 389.365 209.548Z" fill="#D1C9C7"/>
<path d="M371.683 177.98L371.384 184.149L391.061 187.228L391.566 176.818L371.683 177.98Z" fill="#F56539"/>
<path d="M395.157 357.933C408.183 357.933 418.743 347.383 418.743 334.37C418.743 321.356 408.183 310.807 395.157 310.807C382.13 310.807 371.57 321.356 371.57 334.37C371.57 347.383 382.13 357.933 395.157 357.933Z" fill="#6C2813"/>
<path d="M413.253 319.26L399.549 304.164L386.918 296.34C386.918 296.34 390.846 314.12 392.284 315.247C393.722 316.373 407.617 325.443 408.554 326.762C409.491 328.081 413.253 319.26 413.253 319.26Z" fill="#6C2813"/>
<path d="M358.405 270.301L364.786 247.164L412.013 249.455L409.259 267.371L358.405 270.301Z" fill="#F56539"/>
<path d="M185.251 466.708L193.455 471.722C203.339 462.35 248.782 411.075 242.513 359.596L216.511 367.943L186.104 466.261L185.251 466.708Z" fill="#D1C9C7"/>
<path d="M543.951 809.051L523.828 821.901L319.645 491.939L382.753 442.537L543.951 809.051Z" fill="#010101"/>
<path d="M523.829 821.899L534.553 838.66L601.037 794.368L543.952 809.049L523.829 821.899Z" fill="#6C2813"/>
<path d="M575.467 381.351C585.497 381.351 593.628 373.228 593.628 363.208C593.628 353.187 585.497 345.064 575.467 345.064C565.437 345.064 557.306 353.187 557.306 363.208C557.306 373.228 565.437 381.351 575.467 381.351Z" fill="#D1C9C7"/>
<path d="M401.327 311.883C401.327 311.883 380.234 282.698 333.798 290.901C246.59 306.309 216.514 367.942 216.51 367.942L401.327 311.883Z" fill="#010101"/>
<path d="M209.523 453.022C228.07 426.655 250.091 384.969 242.513 359.596L216.511 367.943L192.603 445.249L209.523 453.022Z" fill="#010101"/>
<path d="M380.749 488.164L345.684 693.707L227.967 817.793H205.059C205.059 817.793 233.894 701.937 308.395 669.845C308.395 669.845 263.155 523.809 319.645 484.357L380.749 488.164Z" fill="#D1C9C7"/>
<path d="M204.981 817.795V837.49H281.227L227.872 817.795H204.981Z" fill="#6C2813"/>
<path d="M389.892 449.875H319.645C319.645 449.875 293.609 341.995 332.574 289.448C360.309 252.049 409.359 266.75 409.359 266.75L389.892 449.875Z" fill="#6C2813"/>
<path d="M562.32 373.65L559.837 365.096C546.212 365.42 490.071 365.549 450.621 408.021L463.028 435.507L562.32 373.65Z" fill="#D1C9C7"/>
<path d="M541.671 385.855L537.815 366.468C505.891 369.976 471.892 384.047 450.619 408.021L361.95 290.902C361.95 290.902 339.908 324.528 366.827 363.208C413.378 430.097 463.019 435.504 463.028 435.506L541.671 385.855Z" fill="#F56539"/>
<path d="M187.16 499.335C197.19 499.335 205.321 491.212 205.321 481.192C205.321 471.172 197.19 463.049 187.16 463.049C177.13 463.049 168.999 471.172 168.999 481.192C168.999 491.212 177.13 499.335 187.16 499.335Z" fill="#D1C9C7"/>
<path d="M319.646 449.873L264.99 593.74H450.622L389.892 449.873H319.646Z" fill="#F56539"/>
<path d="M349.62 177.125C349.62 203.85 365.875 214.39 377.68 214.39C383.521 214.39 390.417 213.209 390.417 194.498C390.417 194.458 390.584 192.542 390.628 192.542C410.758 192.542 420.259 158.463 420.259 158.463C410.585 130.036 349.62 131.018 349.62 177.125Z" fill="#010101"/>
<path d="M368.708 176.596C368.708 176.596 365.978 157.817 342.539 157.232C299.333 156.153 308.2 221.962 261.104 209.683C260.643 217.591 285.018 236.721 308.553 236.721C368.013 236.721 370.186 188.052 370.186 188.052L368.708 176.596Z" fill="#010101"/>
<path d="M426.518 151.86C426.518 148.544 425.212 145.363 422.889 143.018C420.565 140.673 417.413 139.355 414.126 139.354C407.281 139.354 393.434 144.953 393.434 151.86C393.434 158.766 407.281 164.366 414.126 164.366C417.413 164.364 420.565 163.046 422.889 160.701C425.212 158.356 426.518 155.175 426.518 151.86Z" fill="#010101"/>
<path d="M378.855 156.572L370.347 157.615L373.811 185.823L382.32 184.78L378.855 156.572Z" fill="#939598"/>
<path d="M381.48 212.271C390.024 211.223 396.106 203.504 395.065 195.029C394.024 186.554 386.254 180.533 377.711 181.58C369.167 182.628 363.085 190.347 364.126 198.822C365.167 207.297 372.937 213.318 381.48 212.271Z" fill="#F56539"/>
<path d="M387.732 203.234C391.251 198.768 390.459 192.324 385.965 188.841C381.47 185.358 374.974 186.154 371.456 190.619C367.937 195.085 368.729 201.529 373.223 205.012C377.718 208.495 384.214 207.699 387.732 203.234Z" fill="#6C2813"/>
<path d="M365.789 123.062L375.112 121.919C376.892 121.701 378.512 122.956 378.729 124.722L382.246 153.361C382.684 156.927 380.126 160.174 376.532 160.615L373.776 160.952C370.182 161.393 366.914 158.86 366.476 155.295L362.958 126.655C362.741 124.889 364.009 123.28 365.789 123.062Z" fill="#F56539"/>
<path d="M383.569 191.816L375.15 192.848L376.176 201.199L384.595 200.167L383.569 191.816Z" fill="#010101"/>
<path d="M76.9044 567.647L54.5412 613.562L38.4483 605.74L52.994 575.875C57.3116 567.01 68.0169 563.327 76.9044 567.647Z" fill="#010101"/>
<path d="M182.192 618.827L159.829 664.743L175.922 672.565L190.468 642.7C194.785 633.836 191.081 623.148 182.192 618.827Z" fill="#010101"/>
<path d="M188.961 521.302L182.144 517.988L190.192 501.464C193.632 494.402 190.669 485.856 183.588 482.413C176.506 478.971 167.948 481.917 164.508 488.979L156.46 505.503L149.643 502.189L157.691 485.666C162.954 474.853 176.057 470.344 186.898 475.614C197.738 480.883 202.275 493.967 197.009 504.778L188.961 521.302Z" fill="#010101"/>
<path d="M165.274 667.389L49.1959 610.964L86.94 533.469C102.509 501.502 141.117 488.217 173.172 503.799C205.225 519.38 218.59 557.926 203.019 589.894L165.275 667.389L165.274 667.389Z" fill="#6C2813"/>
<path d="M153.51 552.785L146.722 549.485C128.771 540.76 107.151 548.198 98.431 566.101L79.3461 605.285L151.139 640.183L170.224 600.998C178.945 583.096 171.46 561.51 153.51 552.785Z" fill="#F56539"/>
<path d="M141.75 568.314C149.812 572.233 159.523 568.892 163.439 560.851C167.356 552.811 163.994 543.115 155.932 539.196C147.869 535.277 138.158 538.618 134.242 546.659C130.326 554.7 133.687 564.395 141.75 568.314Z" fill="#010101"/>
<path d="M62.7488 160.57C60.0221 159.04 57.4276 157.191 55.0647 154.93C39.8743 140.394 39.4369 116.22 54.0877 100.94C59.3447 95.4568 65.8345 91.8987 72.691 90.2155C71.6489 79.4888 75.1153 68.359 83.1955 59.9316C97.486 45.0273 120.832 44.1298 136.069 57.5786C137.046 56.2539 138.083 54.9621 139.254 53.7409C153.904 38.4606 178.099 37.8572 193.289 52.3933C203.894 62.5417 207.286 77.3794 203.397 90.6156C209.081 92.2618 214.464 95.2357 219.029 99.6042C234.219 114.14 234.657 138.314 220.006 153.595C209.69 164.353 194.653 167.802 181.347 163.846C188.731 177.956 186.686 195.826 174.981 208.033C160.331 223.313 136.136 223.917 120.946 209.381C106.295 224.661 82.1006 225.264 66.9101 210.728C52.9239 197.354 51.4745 175.831 62.7488 160.57Z" fill="#D1C9C7"/>
<path d="M260.488 179.734C253.524 186.997 242.026 187.283 234.805 180.374C227.585 173.465 227.377 161.976 234.341 154.713C241.305 147.45 252.803 147.164 260.024 154.073C267.244 160.982 267.452 172.471 260.488 179.734Z" fill="#D1C9C7"/>
<path d="M297.102 164.824C292.927 169.179 286.033 169.351 281.704 165.208C277.375 161.066 277.25 154.177 281.425 149.822C285.601 145.468 292.495 145.296 296.824 149.438C301.153 153.581 301.278 160.469 297.102 164.824Z" fill="#D1C9C7"/>
<path d="M177.947 132.152C177.947 133.95 177.842 135.748 177.684 137.493C177.632 137.863 177.58 138.286 177.527 138.656C177.517 138.72 177.511 138.783 177.496 138.852C177.459 139.159 177.412 139.471 177.37 139.82C177.213 140.825 177.003 141.829 176.793 142.834C175.535 148.493 173.333 153.781 170.344 158.54C170.187 158.805 169.977 159.122 169.82 159.387L167.932 162.084C167.833 162.216 167.728 162.348 167.618 162.48C166.506 163.919 165.3 165.272 164.052 166.579C162.217 168.43 160.277 170.175 158.18 171.761C157.813 172.026 157.446 172.29 157.026 172.607C156.922 172.713 156.817 172.766 156.659 172.872C155.422 173.734 154.138 174.538 152.816 175.278C151.563 175.981 150.273 176.632 148.947 177.219C147.363 177.927 145.738 178.551 144.071 179.086C143.95 179.123 143.824 179.165 143.704 179.202C143.368 179.308 143.033 179.408 142.692 179.503C141.46 179.863 140.206 180.175 138.938 180.434C137.679 180.698 136.421 180.91 135.11 181.069C134.408 181.153 133.736 181.238 133.044 181.291C132.861 181.307 132.677 181.322 132.489 181.333C131.387 181.386 130.286 181.439 129.185 181.439H128.504C126.968 181.418 125.447 181.328 123.947 181.164C113.01 179.995 103.137 175.156 95.5768 167.901C94.4758 166.843 93.4271 165.733 92.4309 164.569C90.1239 161.925 88.0791 158.963 86.4013 155.843C85.4051 153.992 84.5138 152.089 83.7797 150.132C82.6263 147.118 81.7349 143.998 81.2106 140.772C81.1739 140.597 81.1424 140.417 81.1162 140.238C80.9642 139.344 80.8698 138.418 80.7387 137.493C80.5814 135.748 80.4766 134.003 80.4766 132.257V131.253C80.5447 127.149 81.1215 123.167 82.1544 119.375C82.6839 117.413 83.3393 115.504 84.0996 113.653C84.2149 113.368 84.3355 113.082 84.4614 112.797C84.7025 112.225 84.9542 111.654 85.2216 111.094C85.8822 109.682 86.6268 108.301 87.4499 106.979C87.8694 106.292 88.2888 105.552 88.7607 104.864C89.2746 104.103 89.8041 103.352 90.3599 102.622C91.6235 100.945 92.9815 99.3536 94.4338 97.8517C95.3199 96.9263 96.2479 96.0431 97.2022 95.1864C97.5168 94.922 97.8838 94.6047 98.1984 94.3403C98.2613 94.2927 98.3242 94.2398 98.3819 94.1922C98.5811 94.0283 98.7699 93.8696 98.9324 93.7057C99.0897 93.5999 99.247 93.4413 99.4043 93.3355C99.7189 93.0711 100.033 92.8596 100.348 92.5951C100.663 92.3836 100.977 92.1192 101.344 91.9077C101.37 91.8865 101.402 91.8706 101.433 91.8495C104.642 89.5755 108.118 87.7034 111.82 86.2703C113.22 85.7309 114.651 85.2497 116.114 84.8425C117.137 84.5569 118.17 84.3031 119.223 84.081C120.744 83.7637 122.264 83.4992 123.837 83.3406C124.519 83.2877 125.148 83.1819 125.83 83.1819H126.039C126.249 83.1819 126.459 83.1291 126.669 83.1291C126.983 83.1291 127.245 83.0762 127.508 83.0762H129.185C130.706 83.0762 132.226 83.1291 133.747 83.2877C137.155 83.605 140.406 84.2925 143.552 85.2444C149.267 87.0424 154.51 89.8452 159.124 93.4413C159.176 93.4413 159.176 93.4942 159.229 93.4942C159.858 93.9701 160.487 94.4989 161.116 95.0278C162.06 95.821 162.951 96.72 163.843 97.619C164.105 97.8835 164.314 98.095 164.524 98.3594C165.468 99.3113 166.307 100.369 167.146 101.374C168.037 102.484 168.824 103.595 169.61 104.758C169.925 105.287 170.292 105.763 170.606 106.292C170.711 106.451 170.764 106.556 170.868 106.715C171.34 107.508 171.812 108.354 172.232 109.148C172.232 109.2 172.284 109.253 172.284 109.253C172.756 110.099 173.175 110.998 173.542 111.897C173.752 112.373 173.962 112.849 174.172 113.325C174.434 113.907 174.643 114.489 174.853 115.07C175.325 116.34 175.744 117.662 176.112 119.037C176.374 120.041 176.636 120.993 176.846 121.998C176.95 122.421 177.003 122.844 177.108 123.214C177.16 123.638 177.265 124.061 177.317 124.484C177.37 124.801 177.422 125.118 177.475 125.488C177.475 125.594 177.527 125.753 177.527 125.859C177.58 126.229 177.632 126.652 177.684 127.022C177.737 127.392 177.789 127.815 177.789 128.185V128.45C177.789 128.714 177.842 128.979 177.842 129.296V129.931C177.842 130.248 177.894 130.565 177.894 130.883C177.894 130.935 177.894 130.935 177.894 130.988V131.834C177.947 131.94 177.947 132.046 177.947 132.152Z" fill="#6C2813"/>
<path d="M164.525 152.436L157.191 161.92L150.609 168.053L148.948 177.218C147.365 177.927 145.739 178.551 144.072 179.085C143.952 179.122 143.826 179.164 143.705 179.201C143.37 179.307 143.034 179.408 142.693 179.503L138.593 163.982L125.317 151.448L135.552 131.416L139.736 130.639L150.034 140.184L163.771 145.076L164.525 152.436Z" fill="#F56539"/>
<path d="M131.47 112.178L117.125 128.254L122.725 140.952L120.528 143.078L99.4191 133.59L85.2207 111.094C85.8813 109.682 86.6259 108.302 87.449 106.979C87.8685 106.292 88.2879 105.552 88.7598 104.864C89.2737 104.103 89.8032 103.352 90.359 102.622C91.6226 100.946 92.9806 99.3537 94.4329 97.8518C95.319 96.9264 96.247 96.0432 97.2013 95.1865C97.5159 94.9221 97.8829 94.6048 98.1975 94.3404C98.2604 94.2928 98.3233 94.2399 98.381 94.1923C98.5802 94.0284 98.769 93.8697 98.9315 93.7058C99.0888 93.6 99.2461 93.4414 99.4034 93.3356C99.718 93.0712 100.033 92.8597 100.347 92.5953C100.662 92.3837 100.976 92.1193 101.343 91.9078C101.37 91.8866 101.401 91.8708 101.432 91.8496C105.166 89.8771 138.093 104.795 138.093 104.795L131.47 112.178Z" fill="#F56539"/>
<path d="M128.481 145.926L127.334 149.163L117.072 141.524L121.038 137.125L128.481 145.926Z" fill="#F56539"/>
<path d="M132.51 102.33L118.186 103.884L114.52 93.9715L129.051 89.8672L132.51 102.33Z" fill="#6C2813"/>
<path d="M138.093 104.794L124.751 104.521L123.041 97.7875L135.836 96.5156L138.093 104.794Z" fill="#F56539"/>
<path d="M116.147 92.4687L112.872 99.6042L102.941 91.6908L113.414 89.3301L116.147 92.4687Z" fill="#F56539"/>
<path d="M138.591 163.98L125.972 155.134L125.314 151.451L127.652 148.059L142.425 158.414L138.591 163.98Z" fill="#F56539"/>
<path d="M124.649 127.081L123.242 132.199L114.698 124.037L120.955 117.373L124.649 127.081Z" fill="#F56539"/>
</svg>
