<svg width="642" height="839" viewBox="0 0 642 839" fill="none" xmlns="http://www.w3.org/2000/svg">
<path d="M626.483 226.002L573.602 350.707L588.18 356.877L641.061 232.172L626.483 226.002Z" fill="#939598"/>
<path d="M626.483 226.002L573.602 350.707L588.18 356.877L641.061 232.172L626.483 226.002Z" fill="#823AE0"/>
<path d="M532.86 272.171L578.559 292.416L577.899 293.903L532.2 273.657L532.86 272.171Z" fill="#010101"/>
<path d="M575.294 299.186L575.097 300.804L523.523 293.793L523.72 292.176L575.294 299.186Z" fill="#010101"/>
<path d="M541.979 252.224L581.794 285.711L580.726 286.943L540.911 253.455L541.979 252.224Z" fill="#010101"/>
<path d="M389.758 190.557L367.536 251.842L406.766 254.449L408.373 207.098L389.758 190.557Z" fill="#939598"/>
<path d="M399.569 201.669C414.67 202.401 427.506 190.764 428.239 175.678C428.971 160.591 417.323 147.768 402.222 147.036C387.12 146.304 374.284 157.941 373.552 173.028C372.819 188.114 384.467 200.937 399.569 201.669Z" fill="#CBC7D1"/>
<path d="M419.765 210.336C424.089 211.627 428.663 211.84 433.088 210.955L431.343 203.232L443.172 202.449L423.34 156.957L381.575 173.385L384.449 199.613L387.935 204.186L394.608 203.16C394.608 203.16 395.71 214.024 412.049 225.447C423.123 233.189 438.068 233.008 438.068 233.008L434.62 217.739C428.756 217.838 423.212 215.075 419.765 210.336Z" fill="#CBC7D1"/>
<path d="M423.11 176.628L413.312 180.012L414.396 183.143L424.194 179.759L423.11 176.628Z" fill="#010101"/>
<path d="M389.365 209.549C395.539 209.848 400.786 205.091 401.086 198.923C401.385 192.756 396.623 187.514 390.45 187.215C384.276 186.915 379.029 191.673 378.729 197.84C378.43 204.008 383.192 209.25 389.365 209.549Z" fill="#CBC7D1"/>
<path d="M371.683 177.979L371.384 184.148L391.061 187.227L391.566 176.817L371.683 177.979Z" fill="#823AE0"/>
<path d="M395.157 357.935C408.183 357.935 418.743 347.385 418.743 334.372C418.743 321.358 408.183 310.809 395.157 310.809C382.13 310.809 371.57 321.358 371.57 334.372C371.57 347.385 382.13 357.935 395.157 357.935Z" fill="#3A136C"/>
<path d="M413.253 319.26L399.549 304.165L386.918 296.341C386.918 296.341 390.846 314.121 392.284 315.248C393.722 316.374 407.617 325.444 408.554 326.763C409.491 328.082 413.253 319.26 413.253 319.26Z" fill="#3A136C"/>
<path d="M358.405 270.302L364.786 247.165L412.013 249.456L409.259 267.372L358.405 270.302Z" fill="#823AE0"/>
<path d="M185.251 466.707L193.455 471.722C203.339 462.35 248.782 411.075 242.513 359.596L216.511 367.943L186.104 466.261L185.251 466.707Z" fill="#CBC7D1"/>
<path d="M543.951 809.05L523.828 821.9L319.645 491.938L382.753 442.537L543.951 809.05Z" fill="#010101"/>
<path d="M523.829 821.899L534.553 838.66L601.037 794.368L543.952 809.049L523.829 821.899Z" fill="#3A136C"/>
<path d="M575.467 381.351C585.497 381.351 593.628 373.228 593.628 363.208C593.628 353.187 585.497 345.064 575.467 345.064C565.437 345.064 557.306 353.187 557.306 363.208C557.306 373.228 565.437 381.351 575.467 381.351Z" fill="#CBC7D1"/>
<path d="M401.327 311.883C401.327 311.883 380.234 282.698 333.798 290.901C246.59 306.309 216.514 367.942 216.51 367.942L401.327 311.883Z" fill="#010101"/>
<path d="M209.523 453.021C228.07 426.655 250.091 384.969 242.513 359.596L216.511 367.943L192.603 445.249L209.523 453.021Z" fill="#010101"/>
<path d="M380.749 488.164L345.684 693.707L227.967 817.793H205.059C205.059 817.793 233.894 701.937 308.395 669.845C308.395 669.845 263.155 523.809 319.645 484.357L380.749 488.164Z" fill="#CBC7D1"/>
<path d="M204.981 817.794V837.489H281.227L227.872 817.794H204.981Z" fill="#3A136C"/>
<path d="M389.892 449.874H319.645C319.645 449.874 293.609 341.994 332.574 289.448C360.309 252.049 409.359 266.75 409.359 266.75L389.892 449.874Z" fill="#3A136C"/>
<path d="M562.32 373.65L559.837 365.096C546.212 365.42 490.071 365.549 450.621 408.021L463.028 435.507L562.32 373.65Z" fill="#CBC7D1"/>
<path d="M541.671 385.855L537.815 366.468C505.891 369.976 471.892 384.047 450.619 408.02L361.95 290.902C361.95 290.902 339.908 324.528 366.827 363.207C413.378 430.097 463.019 435.503 463.028 435.506L541.671 385.855Z" fill="#823AE0"/>
<path d="M187.16 499.334C197.19 499.334 205.321 491.211 205.321 481.191C205.321 471.171 197.19 463.048 187.16 463.048C177.13 463.048 168.999 471.171 168.999 481.191C168.999 491.211 177.13 499.334 187.16 499.334Z" fill="#CBC7D1"/>
<path d="M319.646 449.875L264.99 593.742H450.622L389.892 449.875H319.646Z" fill="#823AE0"/>
<path d="M349.62 177.124C349.62 203.849 365.875 214.388 377.68 214.388C383.521 214.388 390.417 213.207 390.417 194.497C390.417 194.457 390.584 192.541 390.628 192.541C410.758 192.541 420.259 158.462 420.259 158.462C410.585 130.035 349.62 131.017 349.62 177.124Z" fill="#010101"/>
<path d="M368.708 176.595C368.708 176.595 365.978 157.816 342.539 157.231C299.333 156.152 308.2 221.96 261.104 209.682C260.643 217.59 285.018 236.72 308.553 236.72C368.013 236.72 370.186 188.051 370.186 188.051L368.708 176.595Z" fill="#010101"/>
<path d="M426.518 151.859C426.518 148.543 425.212 145.362 422.889 143.017C420.565 140.672 417.413 139.354 414.126 139.353C407.281 139.353 393.434 144.952 393.434 151.859C393.434 158.765 407.281 164.364 414.126 164.364C417.413 164.363 420.565 163.045 422.889 160.7C425.212 158.355 426.518 155.174 426.518 151.859Z" fill="#010101"/>
<path d="M378.855 156.571L370.347 157.614L373.811 185.822L382.32 184.779L378.855 156.571Z" fill="#939598"/>
<path d="M381.48 212.272C390.024 211.224 396.106 203.505 395.065 195.03C394.024 186.555 386.254 180.534 377.711 181.581C369.167 182.629 363.085 190.348 364.126 198.823C365.167 207.298 372.937 213.319 381.48 212.272Z" fill="#823AE0"/>
<path d="M387.732 203.233C391.251 198.767 390.459 192.323 385.965 188.84C381.47 185.357 374.974 186.153 371.456 190.618C367.937 195.084 368.729 201.528 373.223 205.011C377.718 208.494 384.214 207.698 387.732 203.233Z" fill="#3A136C"/>
<path d="M365.789 123.062L375.112 121.919C376.892 121.701 378.512 122.956 378.729 124.722L382.246 153.361C382.684 156.927 380.126 160.174 376.532 160.614L373.776 160.952C370.182 161.393 366.914 158.86 366.476 155.295L362.958 126.655C362.741 124.889 364.009 123.28 365.789 123.062Z" fill="#823AE0"/>
<path d="M383.569 191.816L375.15 192.848L376.176 201.199L384.595 200.167L383.569 191.816Z" fill="#010101"/>
<path d="M76.9044 567.644L54.5412 613.559L38.4483 605.737L52.994 575.872C57.3116 567.007 68.0169 563.324 76.9044 567.644Z" fill="#010101"/>
<path d="M182.192 618.824L159.829 664.74L175.922 672.562L190.468 642.698C194.785 633.833 191.081 623.145 182.192 618.824Z" fill="#010101"/>
<path d="M188.961 521.299L182.143 517.985L190.191 501.461C193.631 494.399 190.668 485.853 183.587 482.41C176.505 478.968 167.947 481.914 164.507 488.976L156.459 505.5L149.642 502.186L157.69 485.663C162.953 474.85 176.056 470.341 186.897 475.611C197.737 480.881 202.274 493.964 197.008 504.775L188.961 521.299Z" fill="#010101"/>
<path d="M165.274 667.385L49.1959 610.961L86.94 533.466C102.509 501.499 141.117 488.214 173.172 503.796C205.225 519.377 218.59 557.923 203.02 589.891L165.275 667.386L165.274 667.385Z" fill="#3A136C"/>
<path d="M153.51 552.782L146.722 549.482C128.771 540.757 107.151 548.195 98.431 566.098L79.3461 605.282L151.139 640.18L170.224 600.995C178.945 583.093 171.46 561.507 153.51 552.782Z" fill="#823AE0"/>
<path d="M141.749 568.311C149.811 572.23 159.522 568.889 163.438 560.848C167.355 552.808 163.993 543.112 155.931 539.193C147.868 535.274 138.157 538.615 134.241 546.656C130.325 554.697 133.686 564.392 141.749 568.311Z" fill="#010101"/>
<path d="M62.7478 160.572C60.0211 159.042 57.4266 157.193 55.0638 154.932C39.8733 140.396 39.4359 116.222 54.0868 100.941C59.3438 95.4585 65.8335 91.9004 72.69 90.2173C71.648 79.4905 75.1143 68.3608 83.1946 59.9334C97.485 45.0291 120.831 44.1317 136.068 57.5804C137.045 56.2557 138.082 54.9639 139.253 53.7427C153.903 38.4625 178.098 37.8591 193.288 52.3951C203.893 62.5435 207.285 77.3812 203.396 90.6174C209.08 92.2636 214.463 95.2374 219.028 99.6059C234.218 114.142 234.656 138.316 220.005 153.596C209.689 164.355 194.652 167.804 181.346 163.848C188.73 177.958 186.685 195.827 174.98 208.034C160.33 223.315 136.135 223.918 120.945 209.382C106.294 224.662 82.0996 225.266 66.9091 210.73C52.9229 197.356 51.4735 175.832 62.7478 160.572Z" fill="#CBC7D1"/>
<path d="M260.487 179.735C253.523 186.998 242.025 187.284 234.805 180.375C227.584 173.466 227.376 161.977 234.34 154.714C241.304 147.451 252.802 147.164 260.023 154.074C267.243 160.983 267.451 172.472 260.487 179.735Z" fill="#CBC7D1"/>
<path d="M297.101 164.822C292.926 169.177 286.032 169.349 281.703 165.206C277.374 161.064 277.249 154.175 281.424 149.82C285.6 145.466 292.494 145.294 296.823 149.436C301.152 153.579 301.277 160.467 297.101 164.822Z" fill="#CBC7D1"/>
<path d="M177.947 132.151C177.947 133.949 177.842 135.747 177.684 137.492C177.632 137.862 177.58 138.285 177.527 138.655C177.517 138.719 177.511 138.782 177.496 138.851C177.459 139.158 177.412 139.47 177.37 139.819C177.213 140.823 177.003 141.828 176.793 142.833C175.535 148.492 173.333 153.78 170.344 158.539C170.187 158.804 169.977 159.121 169.82 159.385L167.932 162.082C167.833 162.215 167.728 162.347 167.618 162.479C166.506 163.917 165.3 165.271 164.052 166.578C162.217 168.428 160.277 170.174 158.18 171.76C157.813 172.024 157.446 172.289 157.026 172.606C156.922 172.712 156.817 172.765 156.659 172.871C155.422 173.733 154.138 174.536 152.816 175.277C151.563 175.98 150.273 176.631 148.947 177.218C147.363 177.926 145.738 178.55 144.071 179.084C143.95 179.121 143.824 179.164 143.704 179.201C143.368 179.306 143.033 179.407 142.692 179.502C141.46 179.862 140.206 180.174 138.938 180.433C137.679 180.697 136.421 180.909 135.11 181.067C134.408 181.152 133.736 181.237 133.044 181.29C132.861 181.305 132.677 181.321 132.489 181.332C131.387 181.385 130.286 181.438 129.185 181.438H128.504C126.968 181.416 125.447 181.327 123.947 181.163C113.01 179.994 103.137 175.155 95.5768 167.9C94.4758 166.842 93.4271 165.731 92.4309 164.568C90.1239 161.924 88.0791 158.962 86.4013 155.842C85.4051 153.991 84.5138 152.088 83.7797 150.131C82.6263 147.117 81.7349 143.996 81.2106 140.771C81.1739 140.596 81.1424 140.416 81.1162 140.236C80.9642 139.343 80.8698 138.417 80.7387 137.492C80.5814 135.747 80.4766 134.002 80.4766 132.256V131.252C80.5447 127.148 81.1215 123.166 82.1544 119.374C82.6839 117.412 83.3393 115.503 84.0996 113.652C84.2149 113.367 84.3355 113.081 84.4614 112.795C84.7025 112.224 84.9542 111.653 85.2216 111.093C85.8822 109.681 86.6268 108.3 87.4499 106.978C87.8694 106.291 88.2888 105.55 88.7607 104.863C89.2746 104.101 89.8041 103.351 90.3599 102.621C91.6235 100.944 92.9815 99.3526 94.4338 97.8507C95.3199 96.9253 96.2479 96.0421 97.2022 95.1854C97.5168 94.921 97.8838 94.6037 98.1984 94.3393C98.2613 94.2917 98.3242 94.2388 98.3819 94.1912C98.5811 94.0273 98.7699 93.8686 98.9324 93.7047C99.0897 93.5989 99.247 93.4403 99.4043 93.3345C99.7189 93.0701 100.033 92.8586 100.348 92.5941C100.663 92.3826 100.977 92.1182 101.344 91.9067C101.37 91.8855 101.402 91.8696 101.433 91.8485C104.642 89.5745 108.118 87.7025 111.82 86.2693C113.22 85.7299 114.651 85.2487 116.114 84.8415C117.137 84.5559 118.17 84.3021 119.223 84.08C120.744 83.7627 122.264 83.4983 123.837 83.3396C124.519 83.2867 125.148 83.181 125.83 83.181H126.039C126.249 83.181 126.459 83.1281 126.669 83.1281C126.983 83.1281 127.245 83.0752 127.508 83.0752H129.185C130.706 83.0752 132.226 83.1281 133.747 83.2867C137.155 83.604 140.406 84.2915 143.552 85.2434C149.267 87.0414 154.51 89.8442 159.124 93.4403C159.176 93.4403 159.176 93.4932 159.229 93.4932C159.858 93.9691 160.487 94.4979 161.116 95.0268C162.06 95.82 162.951 96.719 163.843 97.618C164.105 97.8824 164.314 98.094 164.524 98.3584C165.468 99.3103 166.307 100.368 167.146 101.373C168.037 102.483 168.824 103.594 169.61 104.757C169.925 105.286 170.292 105.762 170.606 106.291C170.711 106.449 170.764 106.555 170.868 106.714C171.34 107.507 171.812 108.353 172.232 109.147C172.232 109.199 172.284 109.252 172.284 109.252C172.756 110.098 173.175 110.997 173.542 111.896C173.752 112.372 173.962 112.848 174.172 113.324C174.434 113.906 174.643 114.488 174.853 115.069C175.325 116.339 175.744 117.661 176.112 119.036C176.374 120.04 176.636 120.992 176.846 121.997C176.95 122.42 177.003 122.843 177.108 123.213C177.16 123.636 177.265 124.06 177.317 124.483C177.37 124.8 177.422 125.117 177.475 125.487C177.475 125.593 177.527 125.752 177.527 125.858C177.58 126.228 177.632 126.651 177.684 127.021C177.737 127.391 177.789 127.814 177.789 128.184V128.449C177.789 128.713 177.842 128.978 177.842 129.295V129.93C177.842 130.247 177.894 130.564 177.894 130.881C177.894 130.934 177.894 130.934 177.894 130.987V131.833C177.947 131.939 177.947 132.045 177.947 132.151Z" fill="#3A136C"/>
<path d="M164.525 152.436L157.191 161.92L150.609 168.053L148.948 177.218C147.365 177.927 145.739 178.551 144.072 179.085C143.952 179.122 143.826 179.164 143.705 179.201C143.37 179.307 143.034 179.407 142.693 179.503L138.593 163.981L125.317 151.448L135.552 131.416L139.736 130.639L150.034 140.184L163.771 145.076L164.525 152.436Z" fill="#823AE0"/>
<path d="M131.47 112.177L117.125 128.253L122.725 140.951L120.528 143.076L99.4191 133.589L85.2207 111.093C85.8813 109.681 86.6259 108.301 87.449 106.978C87.8685 106.291 88.2879 105.551 88.7598 104.863C89.2737 104.102 89.8032 103.351 90.359 102.621C91.6226 100.945 92.9806 99.3527 94.4329 97.8509C95.319 96.9254 96.247 96.0423 97.2013 95.1856C97.5159 94.9211 97.8829 94.6038 98.1975 94.3394C98.2604 94.2918 98.3233 94.2389 98.381 94.1914C98.5802 94.0274 98.769 93.8688 98.9315 93.7048C99.0888 93.5991 99.2461 93.4404 99.4034 93.3346C99.718 93.0702 100.033 92.8587 100.347 92.5943C100.662 92.3828 100.976 92.1183 101.343 91.9068C101.37 91.8857 101.401 91.8698 101.432 91.8486C105.166 89.8761 138.093 104.794 138.093 104.794L131.47 112.177Z" fill="#823AE0"/>
<path d="M128.481 145.925L127.334 149.162L117.072 141.523L121.038 137.124L128.481 145.925Z" fill="#823AE0"/>
<path d="M132.51 102.33L118.186 103.884L114.52 93.9714L129.051 89.8672L132.51 102.33Z" fill="#3A136C"/>
<path d="M138.093 104.794L124.751 104.521L123.041 97.7875L135.836 96.5156L138.093 104.794Z" fill="#823AE0"/>
<path d="M116.147 92.4687L112.872 99.6042L102.941 91.6908L113.414 89.3301L116.147 92.4687Z" fill="#823AE0"/>
<path d="M138.591 163.979L125.972 155.133L125.314 151.45L127.652 148.058L142.425 158.413L138.591 163.979Z" fill="#823AE0"/>
<path d="M124.649 127.081L123.242 132.199L114.698 124.037L120.955 117.373L124.649 127.081Z" fill="#823AE0"/>
</svg>
