<svg width="642" height="839" viewBox="0 0 642 839" fill="none" xmlns="http://www.w3.org/2000/svg">
<path d="M625.105 210.172L565.965 349.775L582.269 356.682L641.409 217.079L625.105 210.172Z" fill="#939598"/>
<path d="M625.105 210.172L565.965 349.775L582.269 356.682L641.409 217.079L625.105 210.172Z" fill="#E9AD35"/>
<path d="M375.595 184.388L358.941 231.775L396.867 235.626L395.638 180.999L375.595 184.388Z" fill="#939498"/>
<path d="M423.443 140.722L432.779 186.265L418.965 183.968L423.443 140.722Z" fill="#D1CEC7"/>
<path d="M421.644 206.176C418.188 205.22 415.035 203.399 412.481 200.887C409.928 198.375 408.061 195.254 407.055 191.82C413.907 196.967 419.266 197.905 422.687 197.728C423.302 186.563 424.091 173.501 425.018 160.941C427.317 129.752 411.374 120.635 397.766 118.405C376.385 114.902 366.208 121.033 364.982 150.059C363.937 175.084 380.103 181.876 380.103 181.876C389.333 218.053 420.96 219.155 420.96 219.155L421.644 206.176Z" fill="#D1CEC7"/>
<path d="M399.363 145.009C399.363 145.009 435.97 150.125 441.609 112.834C441.609 112.834 429.006 122.045 407.428 118.209C384.712 114.18 366.764 117.51 358.133 137.167C352.225 150.621 359.456 168.792 369.223 177.66C369.223 177.66 393.407 178.795 399.363 145.009Z" fill="#010101"/>
<path d="M378.99 186.729C384.801 186.729 389.511 182.03 389.511 176.233C389.511 170.436 384.801 165.737 378.99 165.737C373.179 165.737 368.468 170.436 368.468 176.233C368.468 182.03 373.179 186.729 378.99 186.729Z" fill="#D1CEC7"/>
<path d="M415.337 165.12L406.482 163.701L406.027 166.528L414.882 167.946L415.337 165.12Z" fill="#010101"/>
<path d="M398.805 117.711C398.805 117.711 412.028 117.519 423.992 100.273C429.256 119.765 416.064 124.005 416.064 124.005L398.805 117.711Z" fill="#010101"/>
<path d="M375.996 120.106C371.594 119.118 367.031 119.084 362.614 120.005C358.198 120.927 354.031 122.783 350.396 125.448C357.352 125.27 364.19 127.278 369.94 131.188L375.996 120.106Z" fill="#010101"/>
<path d="M365.277 127.645C365.277 127.645 353.854 129.979 350.396 138.503C350.396 138.503 360.214 133.526 365.277 135.56V127.645Z" fill="#010101"/>
<path d="M375.105 119.706C384.713 112.134 393.367 118.824 403.012 104.35C404.092 106.61 404.518 109.126 404.24 111.614C403.963 114.103 402.995 116.465 401.445 118.433L375.105 119.706Z" fill="#010101"/>
<path d="M172.561 449.964L185.458 457.836C195.814 448.035 251.78 373.234 240.638 335.976L205.304 346.678L173.459 449.499L172.561 449.964Z" fill="#D1CEC7"/>
<path d="M561.049 799.857L527.193 821.446L313.328 476.351L379.429 424.685L561.049 799.857Z" fill="#010101"/>
<path d="M527.193 821.446L538.426 838.973L620.84 784.503L561.049 799.857L527.193 821.446Z" fill="#6C4F13"/>
<path d="M173.1 490.693C184.816 490.693 194.314 481.218 194.314 469.531C194.314 457.843 184.816 448.368 173.1 448.368C161.383 448.368 151.885 457.843 151.885 469.531C151.885 481.218 161.383 490.693 173.1 490.693Z" fill="#D1CEC7"/>
<path d="M579.947 362.88C591.664 362.88 601.162 353.405 601.162 341.717C601.162 330.029 591.664 320.555 579.947 320.555C568.231 320.555 558.732 330.029 558.732 341.717C558.732 353.405 568.231 362.88 579.947 362.88Z" fill="#D1CEC7"/>
<path d="M398.886 288.044C398.886 288.044 376.082 252.653 327.454 261.248C236.112 277.363 205.321 346.668 205.316 346.678L398.886 288.044Z" fill="#010101"/>
<path d="M203.052 435.652C222.476 408.075 248.582 362.513 240.64 335.976L205.307 346.678L180.265 427.522L203.052 435.652Z" fill="#010101"/>
<path d="M377.343 472.406L340.608 687.376L167.629 817.143H128.373C128.373 817.143 202.696 673.229 286.631 661.261C286.631 661.261 262.137 528.286 292.123 467.1L377.343 472.406Z" fill="#E9AD35"/>
<path d="M128.373 817.149V837.75H223.514L167.629 817.149H128.373Z" fill="#6C4F13"/>
<path d="M330.054 204.219C316.12 212.579 321.245 228.846 319.964 234.346C317.572 244.619 310.214 240.093 310.098 261.713C310.086 263.148 310.388 264.568 310.982 265.875C311.576 267.183 312.448 268.345 313.538 269.282L316.23 271.581C322.644 285.911 406.617 245.174 406.617 245.174H401.005C401.331 243.278 407.301 240.842 407.301 240.842C406.541 230.818 330.054 204.219 330.054 204.219Z" fill="#E9AD35"/>
<path d="M377.343 472.405L292.135 467.106C292.135 467.106 279.017 304.971 327.497 256.61C365.669 218.527 407.3 240.841 407.3 240.841L377.343 472.405Z" fill="#6C4F13"/>
<path d="M567.511 352.638L563.235 338.17C548.964 338.509 467.386 351.706 439.893 390.356L463.507 417.331L566.53 352.384L567.511 352.638Z" fill="#D1CEC7"/>
<path d="M545.883 365.404L540.704 341.231C507.266 344.9 469.22 357.01 446.938 382.082L357.639 266.104C357.639 266.104 323.587 301.042 351.781 341.494C400.539 411.451 463.499 417.329 463.511 417.329L545.883 365.404Z" fill="#E9AD35"/>
<path d="M326.316 422.379V420.009L365.075 419.637V422.007L326.316 422.379Z" fill="#010101"/>
<path d="M48.5777 573.81L23.5676 625.211L5.56997 616.453L21.8373 583.021C26.6659 573.097 38.6383 568.974 48.5777 573.81Z" fill="#010101"/>
<path d="M166.328 631.104L141.318 682.505L159.316 691.262L175.583 657.83C180.412 647.906 176.269 635.941 166.328 631.104Z" fill="#010101"/>
<path d="M173.898 521.928L166.274 518.218L175.274 499.72C179.121 491.814 175.807 482.247 167.888 478.393C159.968 474.54 150.397 477.838 146.55 485.744L137.549 504.242L129.925 500.532L138.926 482.034C144.811 469.93 159.466 464.883 171.589 470.782C183.713 476.681 188.787 491.327 182.898 503.43L173.898 521.928Z" fill="#010101"/>
<path d="M147.407 685.467L17.5899 622.302L59.8014 535.549C77.2137 499.763 120.39 484.891 156.239 502.334C192.087 519.776 207.033 562.927 189.62 598.715L147.409 685.468L147.407 685.467Z" fill="#6C4F13"/>
<path d="M134.25 557.172L126.659 553.478C106.584 543.71 82.4039 552.037 72.6522 572.078L51.3084 615.944L131.598 655.011L152.942 611.145C162.695 591.104 154.325 566.94 134.25 557.172Z" fill="#E9AD35"/>
<path d="M121.098 574.556C130.115 578.944 140.975 575.203 145.355 566.202C149.734 557.201 145.975 546.347 136.958 541.96C127.941 537.572 117.081 541.313 112.701 550.314C108.322 559.315 112.081 570.169 121.098 574.556Z" fill="#010101"/>
<path d="M375.9 128.288L366.385 129.456L370.26 161.034L379.775 159.866L375.9 128.288Z" fill="#939498"/>
<path d="M378.836 190.643C388.391 189.471 395.193 180.829 394.029 171.342C392.865 161.854 384.175 155.114 374.621 156.286C365.066 157.459 358.264 166.1 359.428 175.588C360.592 185.075 369.282 191.816 378.836 190.643Z" fill="#E9AD35"/>
<path d="M385.829 180.524C389.764 175.525 388.879 168.312 383.852 164.412C378.825 160.513 371.56 161.404 367.626 166.403C363.691 171.403 364.576 178.616 369.603 182.516C374.629 186.415 381.894 185.524 385.829 180.524Z" fill="#6C4F13"/>
<path d="M361.288 90.7763L371.714 89.497C373.705 89.2526 375.516 90.6576 375.759 92.6348L379.693 124.696C380.183 128.687 377.321 132.322 373.302 132.815L370.22 133.193C366.201 133.687 362.546 130.851 362.056 126.86L358.122 94.799C357.879 92.8218 359.297 91.0206 361.288 90.7763Z" fill="#E9AD35"/>
<path d="M381.172 167.743L371.757 168.898L372.904 178.247L382.319 177.092L381.172 167.743Z" fill="#010101"/>
<path d="M70.5206 180.065C67.4711 178.351 64.5695 176.282 61.927 173.75C44.9386 157.478 44.4494 130.416 60.8344 113.31C66.7136 107.172 73.9715 103.189 81.6395 101.305C80.4741 89.2967 84.3507 76.8373 93.3874 67.4032C109.369 50.7184 135.478 49.7137 152.519 64.7691C153.612 63.2861 154.771 61.8401 156.08 60.4729C172.465 43.3672 199.523 42.6918 216.512 58.9644C228.372 70.3251 232.165 86.9354 227.816 101.753C234.173 103.596 240.193 106.925 245.298 111.815C262.287 128.088 262.776 155.15 246.391 172.256C234.854 184.3 218.037 188.16 203.156 183.732C211.414 199.527 209.127 219.532 196.037 233.197C179.652 250.303 152.594 250.978 135.606 234.706C119.221 251.811 92.1628 252.487 75.1744 236.214C59.5327 221.242 57.9118 197.148 70.5206 180.065Z" fill="#D1CEC7"/>
<path d="M291.664 201.516C283.876 209.647 271.016 209.968 262.941 202.233C254.866 194.499 254.634 181.638 262.422 173.507C270.21 165.376 283.069 165.055 291.144 172.79C299.219 180.525 299.452 193.386 291.664 201.516Z" fill="#D1CEC7"/>
<path d="M332.612 184.823C327.942 189.698 320.232 189.89 315.391 185.253C310.549 180.615 310.41 172.904 315.079 168.029C319.749 163.154 327.459 162.962 332.3 167.599C337.142 172.237 337.281 179.948 332.612 184.823Z" fill="#D1CEC7"/>
<path d="M200.86 149.125C200.86 151.138 200.743 153.15 200.567 155.104C200.508 155.518 200.45 155.992 200.391 156.406C200.379 156.478 200.373 156.549 200.356 156.626C200.315 156.969 200.262 157.318 200.215 157.709C200.039 158.834 199.805 159.959 199.57 161.083C198.163 167.418 195.7 173.338 192.358 178.666C192.182 178.962 191.947 179.317 191.771 179.613L189.66 182.632C189.549 182.78 189.432 182.928 189.309 183.076C188.066 184.687 186.717 186.202 185.321 187.664C183.269 189.736 181.099 191.69 178.754 193.466C178.343 193.762 177.933 194.058 177.464 194.413C177.347 194.532 177.229 194.591 177.053 194.709C175.67 195.674 174.233 196.574 172.755 197.403C171.354 198.19 169.911 198.919 168.428 199.576C166.657 200.369 164.839 201.067 162.975 201.665C162.84 201.707 162.699 201.754 162.564 201.796C162.189 201.914 161.814 202.027 161.432 202.133C160.055 202.536 158.653 202.885 157.234 203.175C155.827 203.471 154.419 203.708 152.954 203.885C152.168 203.98 151.417 204.075 150.643 204.134C150.438 204.152 150.233 204.17 150.022 204.181C148.79 204.241 147.559 204.3 146.328 204.3H145.565C143.847 204.276 142.147 204.176 140.47 203.992C128.238 202.684 117.197 197.267 108.741 189.144C107.51 187.96 106.337 186.717 105.223 185.415C102.643 182.455 100.356 179.14 98.4795 175.647C97.3654 173.575 96.3686 171.443 95.5477 169.253C94.2576 165.879 93.2608 162.386 92.6744 158.775C92.6334 158.579 92.5982 158.378 92.5689 158.177C92.3988 157.176 92.2933 156.14 92.1467 155.104C91.9708 153.15 91.8535 151.197 91.8535 149.243V148.118C91.9297 143.524 92.5748 139.067 93.7299 134.822C94.3221 132.626 95.0551 130.488 95.9054 128.416C96.0344 128.097 96.1692 127.777 96.3099 127.457C96.5797 126.818 96.8611 126.179 97.1602 125.551C97.899 123.97 98.7317 122.425 99.6523 120.945C100.121 120.176 100.59 119.347 101.118 118.577C101.693 117.725 102.285 116.884 102.907 116.067C104.32 114.19 105.839 112.409 107.463 110.727C108.454 109.691 109.492 108.703 110.559 107.743C110.911 107.447 111.321 107.092 111.673 106.796C111.743 106.743 111.814 106.684 111.878 106.631C112.101 106.447 112.312 106.269 112.494 106.086C112.67 105.967 112.846 105.79 113.022 105.671C113.373 105.375 113.725 105.139 114.077 104.843C114.429 104.606 114.781 104.31 115.191 104.073C115.22 104.049 115.256 104.032 115.291 104.008C118.879 101.462 122.767 99.3666 126.907 97.7622C128.472 97.1584 130.073 96.6197 131.709 96.1638C132.853 95.8441 134.008 95.56 135.186 95.3113C136.887 94.9561 138.587 94.6601 140.347 94.4825C141.109 94.4233 141.812 94.3049 142.575 94.3049H142.809C143.044 94.3049 143.278 94.2457 143.513 94.2457C143.865 94.2457 144.158 94.1865 144.451 94.1865H146.328C148.028 94.1865 149.728 94.2457 151.429 94.4233C155.24 94.7785 158.876 95.5481 162.394 96.6138C168.786 98.6266 174.649 101.764 179.809 105.79C179.868 105.79 179.868 105.849 179.927 105.849C180.63 106.382 181.334 106.974 182.038 107.566C183.093 108.454 184.09 109.46 185.087 110.467C185.38 110.763 185.615 111 185.849 111.296C186.905 112.361 187.843 113.545 188.781 114.67C189.778 115.913 190.657 117.156 191.537 118.459C191.889 119.051 192.299 119.584 192.651 120.176C192.768 120.353 192.827 120.472 192.944 120.649C193.472 121.537 194 122.484 194.469 123.372C194.469 123.432 194.527 123.491 194.527 123.491C195.055 124.438 195.524 125.445 195.935 126.451C196.169 126.984 196.404 127.517 196.638 128.049C196.931 128.701 197.166 129.352 197.401 130.003C197.928 131.424 198.397 132.904 198.808 134.443C199.101 135.568 199.394 136.633 199.629 137.758C199.746 138.232 199.805 138.705 199.922 139.12C199.981 139.593 200.098 140.067 200.157 140.541C200.215 140.896 200.274 141.251 200.332 141.665C200.332 141.784 200.391 141.962 200.391 142.08C200.45 142.494 200.508 142.968 200.567 143.382C200.626 143.797 200.684 144.27 200.684 144.685V144.981C200.684 145.277 200.743 145.573 200.743 145.928V146.638C200.743 146.994 200.802 147.349 200.802 147.704C200.802 147.763 200.802 147.763 200.802 147.822V148.77C200.86 148.888 200.86 149.006 200.86 149.125Z" fill="#6C4F13"/>
<path d="M185.849 171.833L177.647 182.45L170.286 189.316L168.429 199.576C166.658 200.369 164.84 201.068 162.976 201.665C162.841 201.707 162.7 201.754 162.565 201.796C162.19 201.914 161.814 202.027 161.433 202.133L156.848 184.758L142.001 170.727L153.447 148.302L158.126 147.432L169.643 158.117L185.006 163.594L185.849 171.833Z" fill="#E9AD35"/>
<path d="M148.883 126.765L132.84 144.762L139.102 158.976L136.645 161.356L113.038 150.735L97.1592 125.551C97.898 123.97 98.7307 122.425 99.6513 120.945C100.12 120.176 100.589 119.347 101.117 118.577C101.692 117.725 102.284 116.884 102.906 116.067C104.319 114.19 105.837 112.408 107.462 110.727C108.453 109.691 109.491 108.702 110.558 107.743C110.91 107.447 111.32 107.092 111.672 106.796C111.742 106.743 111.813 106.684 111.877 106.63C112.1 106.447 112.311 106.269 112.493 106.086C112.669 105.967 112.845 105.79 113.021 105.671C113.372 105.375 113.724 105.139 114.076 104.843C114.428 104.606 114.78 104.31 115.19 104.073C115.219 104.049 115.255 104.031 115.29 104.008C119.465 101.8 156.289 118.5 156.289 118.5L148.883 126.765Z" fill="#E9AD35"/>
<path d="M145.539 164.545L144.256 168.169L132.78 159.617L137.216 154.692L145.539 164.545Z" fill="#E9AD35"/>
<path d="M150.046 115.741L134.026 117.481L129.926 106.385L146.177 101.79L150.046 115.741Z" fill="#6C4F13"/>
<path d="M156.289 118.5L141.368 118.194L139.456 110.656L153.765 109.232L156.289 118.5Z" fill="#E9AD35"/>
<path d="M131.746 104.702L128.082 112.69L116.977 103.831L128.688 101.188L131.746 104.702Z" fill="#E9AD35"/>
<path d="M156.846 184.755L142.733 174.853L141.998 170.729L144.612 166.932L161.134 178.524L156.846 184.755Z" fill="#E9AD35"/>
<path d="M141.253 143.449L139.681 149.178L130.125 140.041L137.123 132.581L141.253 143.449Z" fill="#E9AD35"/>
<path d="M520.401 261.856L571.509 284.52L570.771 286.184L519.663 263.52L520.401 261.856Z" fill="#010101"/>
<path d="M567.858 292.098L567.638 293.909L509.959 286.061L510.18 284.25L567.858 292.098Z" fill="#010101"/>
<path d="M530.6 239.526L575.128 277.014L573.934 278.393L529.406 240.905L530.6 239.526Z" fill="#010101"/>
</svg>
