<svg width="49" height="48" viewBox="0 0 49 48" fill="none" xmlns="http://www.w3.org/2000/svg">
<path d="M16.1133 38.1172C16.1133 37.9219 15.918 37.7266 15.625 37.7266C15.332 37.7266 15.1367 37.9219 15.1367 38.1172C15.1367 38.3125 15.332 38.5078 15.625 38.4102C15.918 38.4102 16.1133 38.3125 16.1133 38.1172ZM13.0859 37.6289C13.0859 37.8242 13.2812 38.1172 13.5742 38.1172C13.7695 38.2148 14.0625 38.1172 14.1602 37.9219C14.1602 37.7266 14.0625 37.5312 13.7695 37.4336C13.4766 37.3359 13.1836 37.4336 13.0859 37.6289ZM17.4805 37.5312C17.1875 37.5312 16.9922 37.7266 16.9922 38.0195C16.9922 38.2148 17.2852 38.3125 17.5781 38.2148C17.8711 38.1172 18.0664 38.0195 17.9688 37.8242C17.9688 37.6289 17.6758 37.4336 17.4805 37.5312ZM23.8281 0.03125C10.3516 0.03125 0 10.3828 0 23.8594C0 34.6992 6.73828 43.9766 16.5039 47.2969C17.7734 47.4922 18.1641 46.7109 18.1641 46.125C18.1641 45.4414 18.1641 42.1211 18.1641 40.0703C18.1641 40.0703 11.3281 41.5352 9.86328 37.1406C9.86328 37.1406 8.78906 34.3086 7.22656 33.625C7.22656 33.625 4.98047 32.0625 7.32422 32.0625C7.32422 32.0625 9.76562 32.2578 11.1328 34.6016C13.2812 38.4102 16.7969 37.3359 18.2617 36.6523C18.457 35.0898 19.043 34.0156 19.8242 33.332C14.3555 32.7461 8.78906 31.9648 8.78906 22.5898C8.78906 19.8555 9.57031 18.5859 11.1328 16.8281C10.8398 16.1445 10.0586 13.6055 11.4258 10.1875C13.3789 9.60156 18.1641 12.8242 18.1641 12.8242C20.1172 12.2383 22.168 12.043 24.2188 12.043C26.3672 12.043 28.418 12.2383 30.3711 12.8242C30.3711 12.8242 35.0586 9.50391 37.1094 10.1875C38.4766 13.6055 37.5977 16.1445 37.4023 16.8281C38.9648 18.5859 39.9414 19.8555 39.9414 22.5898C39.9414 31.9648 34.1797 32.7461 28.7109 33.332C29.5898 34.1133 30.3711 35.5781 30.3711 37.9219C30.3711 41.1445 30.2734 45.2461 30.2734 46.0273C30.2734 46.7109 30.7617 47.4922 32.0312 47.1992C41.7969 43.9766 48.4375 34.6992 48.4375 23.8594C48.4375 10.3828 37.4023 0.03125 23.8281 0.03125ZM9.47266 33.7227C9.27734 33.8203 9.375 34.1133 9.47266 34.3086C9.66797 34.4062 9.86328 34.5039 10.0586 34.4062C10.1562 34.3086 10.1562 34.0156 9.96094 33.8203C9.76562 33.7227 9.57031 33.625 9.47266 33.7227ZM8.39844 32.9414C8.30078 33.1367 8.39844 33.2344 8.59375 33.332C8.78906 33.4297 8.98438 33.4297 9.08203 33.2344C9.08203 33.1367 8.98438 33.0391 8.78906 32.9414C8.59375 32.8438 8.49609 32.8438 8.39844 32.9414ZM11.5234 36.457C11.4258 36.5547 11.4258 36.8477 11.7188 37.043C11.9141 37.2383 12.207 37.3359 12.3047 37.1406C12.4023 37.043 12.4023 36.75 12.207 36.5547C12.0117 36.3594 11.7188 36.2617 11.5234 36.457ZM10.4492 34.9922C10.2539 35.0898 10.2539 35.3828 10.4492 35.5781C10.6445 35.7734 10.8398 35.8711 11.0352 35.7734C11.1328 35.6758 11.1328 35.3828 11.0352 35.1875C10.8398 34.9922 10.6445 34.8945 10.4492 34.9922Z" fill="white"/>
</svg>
