<svg width="44" height="45" viewBox="0 0 44 45" fill="none" xmlns="http://www.w3.org/2000/svg">
<path d="M40.625 0.375H3.02734C1.36719 0.375 0 1.83984 0 3.59766V41C0 42.7578 1.36719 44.125 3.02734 44.125H40.625C42.2852 44.125 43.75 42.7578 43.75 41V3.59766C43.75 1.83984 42.2852 0.375 40.625 0.375ZM13.1836 37.875H6.73828V17.0742H13.1836V37.875ZM9.96094 14.1445C7.8125 14.1445 6.15234 12.4844 6.15234 10.4336C6.15234 8.38281 7.8125 6.625 9.96094 6.625C12.0117 6.625 13.6719 8.38281 13.6719 10.4336C13.6719 12.4844 12.0117 14.1445 9.96094 14.1445ZM37.5 37.875H30.957V27.7188C30.957 25.375 30.957 22.25 27.6367 22.25C24.2188 22.25 23.7305 24.8867 23.7305 27.6211V37.875H17.2852V17.0742H23.4375V19.9062H23.5352C24.4141 18.2461 26.5625 16.4883 29.6875 16.4883C36.2305 16.4883 37.5 20.8828 37.5 26.4492V37.875Z" fill="white"/>
</svg>
