<svg width="50" height="41" viewBox="0 0 50 41" fill="none" xmlns="http://www.w3.org/2000/svg">
<path d="M44.8242 10.0938C46.7773 8.62891 48.5352 6.87109 49.9023 4.82031C48.1445 5.60156 46.0938 6.1875 44.043 6.38281C46.1914 5.11328 47.7539 3.16016 48.5352 0.71875C46.582 1.89062 44.3359 2.76953 42.0898 3.25781C40.1367 1.20703 37.5 0.0351562 34.5703 0.0351562C28.9062 0.0351562 24.3164 4.625 24.3164 10.2891C24.3164 11.0703 24.4141 11.8516 24.6094 12.6328C16.1133 12.1445 8.49609 8.04297 3.41797 1.89062C2.53906 3.35547 2.05078 5.11328 2.05078 7.06641C2.05078 10.582 3.80859 13.707 6.64062 15.5625C4.98047 15.4648 3.32031 15.0742 1.95312 14.293V14.3906C1.95312 19.3711 5.46875 23.4727 10.1562 24.4492C9.375 24.6445 8.39844 24.8398 7.51953 24.8398C6.83594 24.8398 6.25 24.7422 5.56641 24.6445C6.83594 28.7461 10.6445 31.6758 15.1367 31.7734C11.6211 34.5078 7.22656 36.168 2.44141 36.168C1.5625 36.168 0.78125 36.0703 0 35.9727C4.49219 38.9023 9.86328 40.5625 15.7227 40.5625C34.5703 40.5625 44.8242 25.0352 44.8242 11.4609C44.8242 10.9727 44.8242 10.582 44.8242 10.0938Z" fill="white"/>
</svg>
