<svg width="1170" height="403" viewBox="0 0 1170 403" fill="none" xmlns="http://www.w3.org/2000/svg">
          <path fill-rule="evenodd" clip-rule="evenodd" d="M1170 57.3509H0V56.5132H1170V57.3509Z" fill="white" fill-opacity="0.3"></path>
          <path fill-rule="evenodd" clip-rule="evenodd" d="M410.388 402.472L410.388 0.933594L411.226 0.933594L411.226 402.472L410.388 402.472Z" fill="white" fill-opacity="0.3"></path>
          <path fill-rule="evenodd" clip-rule="evenodd" d="M841.791 402.472L841.791 0.933594L842.628 0.933594L842.628 402.472L841.791 402.472Z" fill="white" fill-opacity="0.3"></path>
          <path fill-rule="evenodd" clip-rule="evenodd" d="M1014.35 402.472L1014.35 0.933594L1015.19 0.933594L1015.19 402.472L1014.35 402.472Z" fill="white" fill-opacity="0.3"></path>
          <path fill-rule="evenodd" clip-rule="evenodd" d="M928.071 402.472L928.071 0.933594L928.909 0.933594L928.909 402.472L928.071 402.472Z" fill="white" fill-opacity="0.3"></path>
          <path fill-rule="evenodd" clip-rule="evenodd" d="M1100.63 402.472L1100.63 0.933594L1101.47 0.933594L1101.47 402.472L1100.63 402.472Z" fill="white" fill-opacity="0.3"></path>
          <path fill-rule="evenodd" clip-rule="evenodd" d="M1170 143.631H0V142.793H1170V143.631Z" fill="white" fill-opacity="0.3"></path>
          <path fill-rule="evenodd" clip-rule="evenodd" d="M324.108 402.472L324.108 0.933594L324.946 0.933594L324.946 402.472L324.108 402.472Z" fill="white" fill-opacity="0.3"></path>
          <path fill-rule="evenodd" clip-rule="evenodd" d="M755.51 402.472L755.51 0.933594L756.348 0.933594L756.348 402.472L755.51 402.472Z" fill="white" fill-opacity="0.3"></path>
          <path fill-rule="evenodd" clip-rule="evenodd" d="M1170 229.911H0V229.074H1170V229.911Z" fill="white" fill-opacity="0.3"></path>
          <path fill-rule="evenodd" clip-rule="evenodd" d="M237.827 402.472L237.827 0.933594L238.665 0.933594L238.665 402.472L237.827 402.472Z" fill="white" fill-opacity="0.3"></path>
          <path fill-rule="evenodd" clip-rule="evenodd" d="M669.23 402.472L669.23 0.933594L670.067 0.933594L670.067 402.472L669.23 402.472Z" fill="white" fill-opacity="0.3"></path>
          <path fill-rule="evenodd" clip-rule="evenodd" d="M1170 316.192H0V315.354H1170V316.192Z" fill="white" fill-opacity="0.3"></path>
          <path fill-rule="evenodd" clip-rule="evenodd" d="M151.547 402.472L151.547 0.933594L152.385 0.933594L152.385 402.472L151.547 402.472Z" fill="white" fill-opacity="0.3"></path>
          <path fill-rule="evenodd" clip-rule="evenodd" d="M582.949 402.472L582.949 0.933594L583.787 0.933594L583.787 402.472L582.949 402.472Z" fill="white" fill-opacity="0.3"></path>
          <path fill-rule="evenodd" clip-rule="evenodd" d="M1170 402.472H0V401.635H1170V402.472Z" fill="white" fill-opacity="0.3"></path>
          <path fill-rule="evenodd" clip-rule="evenodd" d="M65.2666 402.472L65.2666 0.933594L66.1042 0.933594L66.1042 402.472L65.2666 402.472Z" fill="white" fill-opacity="0.3"></path>
          <path fill-rule="evenodd" clip-rule="evenodd" d="M496.669 402.472L496.669 0.933594L497.507 0.933594L497.507 402.472L496.669 402.472Z" fill="white" fill-opacity="0.3"></path>
          <rect x="152.382" y="57.3506" width="85.4536" height="85.4429" fill="white" fill-opacity="0.15"></rect>
          <rect x="238.665" y="143.631" width="85.575" height="84.9928" fill="white" fill-opacity="0.1"></rect>
          <rect x="842.615" y="57.3506" width="85.4597" height="85.4453" fill="white" fill-opacity="0.15"></rect>
        </svg>