<svg width="50" height="50" viewBox="0 0 50 50" fill="none" xmlns="http://www.w3.org/2000/svg">
<path d="M6.25 10.4167C6.25 8.11562 8.11562 6.25 10.4167 6.25H39.5833C41.8844 6.25 43.75 8.11562 43.75 10.4167V39.5833C43.75 41.8844 41.8844 43.75 39.5833 43.75H10.4167C8.11562 43.75 6.25 41.8844 6.25 39.5833V10.4167Z" fill="#B388FF"/>
<path d="M9.375 9.375V40.625H40.625V9.375H9.375Z" fill="#170B40"/>
<path d="M22.066 29.1299H17.3212L16.4191 32.0945H13.542L18.4316 17.708H20.9389L25.8545 32.0934H22.9774L22.066 29.1299ZM18.0524 26.7288H21.3357L19.6857 21.3434L18.0524 26.7288ZM31.4024 32.2913C30.6441 32.2913 29.966 32.1559 29.368 31.8861C28.7691 31.6163 28.2618 31.2465 27.843 30.7788C27.4243 30.3111 27.1066 29.7632 26.8868 29.134C26.668 28.5049 26.5576 27.832 26.5576 27.1132V26.7278C26.5576 25.9174 26.6649 25.1747 26.8784 24.4997C27.0909 23.8247 27.3951 23.2434 27.7899 22.7559C28.1826 22.2684 28.6618 21.8882 29.2232 21.6143C29.7857 21.3413 30.416 21.2038 31.1128 21.2038C31.816 21.2038 32.4357 21.3309 32.9712 21.584C33.5066 21.8372 33.9555 22.1934 34.3201 22.6518C34.6837 23.109 34.9576 23.6611 35.141 24.307C35.3243 24.9528 35.417 25.6715 35.417 26.4622V27.6778H29.2024C29.2441 28.0268 29.3305 28.3434 29.4597 28.6257C29.5889 28.909 29.7545 29.1507 29.9555 29.3518C30.1566 29.5528 30.393 29.709 30.6628 29.8215C30.9337 29.934 31.2378 29.9893 31.5743 29.9893C32.0493 29.9893 32.4889 29.8924 32.891 29.6976C33.2941 29.5038 33.6399 29.2018 33.9284 28.7934L35.2097 30.3643C35.0534 30.608 34.8576 30.8455 34.6232 31.0757C34.3889 31.3059 34.1118 31.5122 33.793 31.6934C33.4743 31.8747 33.1159 32.0195 32.7149 32.1278C32.3149 32.2372 31.8785 32.2913 31.4024 32.2913ZM31.1055 23.5174C30.8222 23.5174 30.5753 23.5715 30.3607 23.6809C30.1472 23.7893 29.9639 23.9413 29.8107 24.1351C29.6576 24.3288 29.5326 24.5611 29.4368 24.832C29.341 25.1018 29.2722 25.4018 29.2305 25.7309H32.8566V25.5038C32.8503 25.2205 32.8128 24.957 32.743 24.7132C32.6743 24.4695 32.5691 24.259 32.4274 24.0809C32.2857 23.9028 32.1055 23.7653 31.8868 23.6663C31.6649 23.5674 31.4055 23.5174 31.1055 23.5174Z" fill="#B388FF"/>
</svg>
