<svg width="256" height="256" viewBox="0 0 256 256" fill="none" xmlns="http://www.w3.org/2000/svg">
<path d="M0 222.991C0 241.223 14.7785 256 33.0088 256H222.991C241.223 256 256 241.221 256 222.991V33.0088C256 14.7765 241.221 0 222.991 0H33.0088C14.7765 0 0 14.7785 0 33.0088V222.991Z" fill="#563D7C"/>
<path d="M106.157 113.238V76.9846H138.069C141.108 76.9846 144.038 77.2379 146.861 77.7444C149.683 78.2509 152.179 79.1555 154.35 80.458C156.521 81.7605 158.258 83.5695 159.56 85.8852C160.863 88.2008 161.514 91.1676 161.514 94.7857C161.514 101.298 159.56 106.002 155.653 108.896C151.745 111.791 146.752 113.238 140.674 113.238H106.157ZM72.0742 50.5V205.5H147.186C154.133 205.5 160.899 204.632 167.484 202.895C174.069 201.158 179.93 198.481 185.068 194.863C190.206 191.245 194.294 186.577 197.333 180.861C200.373 175.144 201.892 168.378 201.892 160.563C201.892 150.866 199.54 142.581 194.837 135.707C190.133 128.832 183.006 124.02 173.454 121.27C180.401 117.942 185.647 113.672 189.193 108.462C192.738 103.252 194.511 96.7395 194.511 88.9244C194.511 81.6881 193.317 75.6097 190.929 70.6891C188.541 65.7684 185.176 61.8247 180.835 58.8578C176.493 55.891 171.283 53.7563 165.204 52.4538C159.126 51.1513 152.396 50.5 145.015 50.5H72.0742ZM106.157 179.015V136.466H143.279C150.66 136.466 156.593 138.167 161.08 141.568C165.566 144.969 167.81 150.649 167.81 158.609C167.81 162.662 167.122 165.99 165.747 168.595C164.372 171.2 162.527 173.263 160.211 174.782C157.896 176.302 155.218 177.387 152.179 178.039C149.14 178.69 145.956 179.015 142.627 179.015H106.157Z" fill="white"/>
</svg>
