<svg width="95" height="77" viewBox="0 0 95 77" fill="none" xmlns="http://www.w3.org/2000/svg">
<path d="M82.9825 26.9578C81.055 20.0753 77.185 14.0153 71.99 9.38281L60.495 20.8778C64.6875 24.2903 67.515 29.3128 68.03 34.9978V38.7678C68.095 38.7678 68.155 38.7478 68.22 38.7478C74.025 38.7478 78.75 43.4728 78.75 49.2778C78.75 55.0828 74.025 59.8103 68.22 59.8103C68.155 59.8103 68.095 59.7928 68.03 59.7903V59.8103H51.365H47.5V76.0603H68.03V76.0503C68.095 76.0503 68.155 76.0603 68.22 76.0603C82.9875 76.0603 95 64.0453 95 49.2803C95 39.9678 90.215 31.7578 82.9825 26.9578Z" fill="url(#paint0_linear)"/>
<path opacity="0.5" d="M36.3999 45.0337L48.1999 33.2337C48.1899 33.2212 48.1799 33.2112 48.1724 33.2012L36.3799 44.9937C36.3849 45.0062 36.3924 45.0187 36.3999 45.0337Z" fill="#FFE082"/>
<path opacity="0.5" d="M36.3999 45.0337L48.1999 33.2337C48.1899 33.2212 48.1799 33.2112 48.1724 33.2012L36.3799 44.9937C36.3849 45.0062 36.3924 45.0187 36.3999 45.0337Z" fill="#90CAF9"/>
<path d="M47.5 0C27.1675 0 10.625 16.5425 10.625 36.875C10.625 37.4575 10.685 38.025 10.7125 38.6H26.9625C26.915 38.03 26.875 37.4575 26.875 36.875C26.875 25.5025 36.1275 16.25 47.5 16.25C52.4225 16.25 56.945 17.99 60.495 20.8775L71.99 9.3825C65.47 3.5675 56.9025 0 47.5 0Z" fill="url(#paint1_linear)"/>
<path opacity="0.5" d="M26.7802 59.8095C26.7777 59.8095 26.7777 59.8095 26.7752 59.8095C25.2477 59.8095 23.8052 59.467 22.4952 58.877L10.7202 70.652C15.2027 74.0295 20.7527 76.0595 26.7752 76.0595C26.7777 76.0595 26.7777 76.0595 26.7802 76.0595H47.5002V59.8095H26.7802Z" fill="#90CAF9"/>
<path d="M26.7802 59.8095C26.7777 59.8095 26.7777 59.8095 26.7752 59.8095C25.2477 59.8095 23.8052 59.467 22.4952 58.877L10.7202 70.652C15.2027 74.0295 20.7527 76.0595 26.7752 76.0595C26.7777 76.0595 26.7777 76.0595 26.7802 76.0595H47.5002V59.8095H26.7802Z" fill="url(#paint2_linear)"/>
<path d="M16.25 49.2848C16.25 43.4848 20.975 38.7598 26.775 38.7598C31.0325 38.7598 34.72 41.3173 36.3775 44.9948L48.17 33.2023C43.2675 26.6973 35.5075 22.5098 26.7725 22.5098C12.025 22.5098 0 34.5098 0 49.2848C0 58.0123 4.2275 65.7598 10.72 70.6523L22.495 58.8773C18.825 57.2323 16.25 53.5573 16.25 49.2848Z" fill="url(#paint3_linear)"/>
<defs>
<linearGradient id="paint0_linear" x1="104.875" y1="40.4353" x2="48.625" y2="44.1853" gradientUnits="userSpaceOnUse">
<stop stop-color="#2AA4F4"/>
<stop offset="1" stop-color="#007AD9"/>
</linearGradient>
<linearGradient id="paint1_linear" x1="49.5875" y1="5.08" x2="33.57" y2="29.2825" gradientUnits="userSpaceOnUse">
<stop stop-color="#F7572F"/>
<stop offset="0.523" stop-color="#F7552D"/>
<stop offset="0.712" stop-color="#F75026"/>
<stop offset="0.846" stop-color="#F7461B"/>
<stop offset="0.954" stop-color="#F7390A"/>
<stop offset="1" stop-color="#F73100"/>
</linearGradient>
<linearGradient id="paint2_linear" x1="65.7627" y1="81.9269" x2="8.88772" y2="56.6144" gradientUnits="userSpaceOnUse">
<stop stop-color="#4CAF50"/>
<stop offset="0.486" stop-color="#4AAE50"/>
<stop offset="0.661" stop-color="#43A94E"/>
<stop offset="0.786" stop-color="#38A14C"/>
<stop offset="0.887" stop-color="#279648"/>
<stop offset="0.972" stop-color="#118844"/>
<stop offset="1" stop-color="#088242"/>
</linearGradient>
<linearGradient id="paint3_linear" x1="30.4" y1="52.7898" x2="5.7125" y2="28.7273" gradientUnits="userSpaceOnUse">
<stop stop-color="#FFD747"/>
<stop offset="0.482" stop-color="#FFD645"/>
<stop offset="0.655" stop-color="#FED43E"/>
<stop offset="0.779" stop-color="#FCCF33"/>
<stop offset="0.879" stop-color="#FAC922"/>
<stop offset="0.964" stop-color="#F7C10C"/>
<stop offset="1" stop-color="#F5BC00"/>
</linearGradient>
</defs>
</svg>
