<svg width="512" height="192" viewBox="0 0 512 192" fill="none" xmlns="http://www.w3.org/2000/svg">
<path d="M292.533 13.2951L293.657 14.0455C306.869 22.7705 316.342 34.7361 322.574 49.1946C324.07 51.4382 323.073 52.6846 320.081 53.4325L315.018 54.7278C303.571 57.6768 294.487 60.1567 283.191 63.1057L276.748 64.7844C274.428 65.3584 273.788 65.1171 271.32 62.3074L270.972 61.9081C267.453 57.9196 264.817 55.256 260.155 52.8781L259.256 52.4353C243.551 44.7075 228.345 46.9511 214.135 56.1746C197.184 67.1431 188.459 83.3466 188.708 103.539C188.958 123.481 202.668 139.934 222.362 142.676C239.313 144.92 253.522 138.937 264.74 126.224C266.984 123.481 268.978 120.49 271.471 117H223.359C218.124 117 216.878 113.759 218.623 109.521L219.487 107.487C222.691 100.033 227.66 89.3186 230.887 83.1926L231.591 81.8743C232.453 80.3801 234.203 78.3609 237.568 78.3609L317.792 78.3604C321.395 66.9456 327.241 56.1597 335.038 45.9539C353.236 22.0226 375.173 9.55839 404.838 4.32341C430.265 -0.163713 454.197 2.32913 475.884 17.0369C495.578 30.4983 507.793 48.6961 511.033 72.6274C515.271 106.281 505.549 133.702 482.366 157.135C465.913 173.837 445.721 184.307 422.537 189.043C415.807 190.29 409.076 190.539 402.595 191.287C379.91 190.788 359.219 184.307 341.769 169.35C329.496 158.741 321.042 145.702 316.841 130.522C313.926 136.41 310.44 142.049 306.371 147.413C288.422 171.095 264.99 185.803 235.325 189.791C210.895 193.032 188.21 188.295 168.267 173.338C149.82 159.378 139.35 140.931 136.608 117.997C133.367 90.8252 141.344 66.3953 157.797 44.9568C175.496 21.7733 198.929 7.06554 227.597 1.83056C250.596 -2.3288 272.634 0.235689 292.533 13.2951ZM411.12 49.0171L410.322 49.1946C387.139 54.4296 372.182 69.1374 366.698 92.5702C362.21 112.014 371.683 131.708 389.632 139.685C403.342 145.668 417.053 144.92 430.265 138.189C449.959 127.969 460.678 112.014 461.924 90.5759C461.675 87.3352 461.675 84.8423 461.176 82.3495C456.74 57.9476 434.512 44.0254 411.12 49.0171ZM116.416 94.5644C117.413 94.5644 117.912 95.3123 117.912 96.3094L117.413 102.292C117.413 103.289 116.416 104.037 115.668 104.037L61.324 103.788C60.3269 103.788 60.0776 103.04 60.5762 102.292L64.0661 96.0601C64.5647 95.3123 65.5618 94.5644 66.559 94.5644H116.416ZM121.9 71.6302C122.897 71.6302 123.396 72.3781 123.147 73.126L121.152 79.1088C120.903 80.1059 119.906 80.6045 118.909 80.6045L0.997138 80.8538C0 80.8538 -0.249285 80.3552 0.249285 79.6074L5.48426 72.8767C5.98283 72.1288 7.22925 71.6302 8.22639 71.6302H121.9ZM134.863 48.6961C135.86 48.6961 136.109 49.4439 135.611 50.1918L131.373 56.6732C130.874 57.421 129.628 58.1689 128.88 58.1689L38.6391 57.9196C37.642 57.9196 37.3927 57.421 37.8913 56.6732L43.1262 49.9425C43.6248 49.1946 44.8712 48.6961 45.8684 48.6961H134.863Z" fill="#00ACD7"/>
</svg>
