<svg width="256" height="269" viewBox="0 0 256 269" fill="none" xmlns="http://www.w3.org/2000/svg">
<path d="M234.153 0.00343857C234.808 -0.0379575 235.43 0.297029 235.755 0.866994C236.081 1.43696 236.054 2.14258 235.686 2.686L169.388 92.7435C168.902 93.2919 168.205 93.6059 167.472 93.6059C166.739 93.6059 166.042 93.2919 165.556 92.7435L142.179 66.6843C141.608 66.0916 140.799 65.7901 139.98 65.8646C139.16 65.9391 138.419 66.3816 137.964 67.0675L123.785 85.079C123.336 86.0933 123.483 87.2722 124.168 88.1448L166.322 131.832C166.808 132.381 167.506 132.695 168.238 132.695C168.971 132.695 169.669 132.381 170.155 131.832L252.931 38.709C253.42 38.1838 254.177 38.0054 254.849 38.2573C255.52 38.5092 255.974 39.1416 255.997 39.8587V266.344C256.028 266.861 255.837 267.367 255.47 267.733C255.104 268.1 254.598 268.292 254.08 268.26H1.91951C1.40225 268.292 0.896237 268.1 0.529794 267.733C0.16335 267.367 -0.0283193 266.861 0.00339438 266.344V1.91956C-0.0283193 1.4023 0.16335 0.896281 0.529794 0.529838C0.896237 0.163395 1.40225 -0.0282751 1.91951 0.00343857H234.153ZM169.005 152.91C157.596 152.709 146.6 157.179 138.568 165.284C130.536 173.389 126.164 184.424 126.467 195.831C126.467 222.273 145.628 239.135 170.538 239.135C182.069 239.422 193.376 235.922 202.729 229.171C203.596 228.384 203.758 227.082 203.112 226.105L196.214 215.758C195.438 214.869 194.119 214.704 193.148 215.375C187.152 219.47 180.096 221.733 172.837 221.89C159.424 221.89 150.993 213.459 149.461 203.495C149.488 203.084 149.816 202.756 150.227 202.729H208.094C209.327 202.645 210.31 201.663 210.393 200.429V198.13C210.393 171.304 193.531 152.91 169.005 152.91ZM111.905 138.347C100.265 128.833 85.5369 123.923 70.5165 124.551C44.4573 124.551 28.3619 139.88 28.3619 158.275C28.3619 200.046 91.977 186.633 91.977 206.178C91.977 212.309 85.8454 218.441 72.8158 218.441C60.441 218.543 48.5018 213.877 39.4754 205.411C38.9365 204.907 38.2065 204.66 37.4724 204.734C36.7383 204.807 36.0716 205.194 35.6432 205.794L25.6794 219.59C25.0328 220.567 25.1956 221.869 26.0626 222.656C36.4096 232.237 50.9721 238.752 71.2829 238.752C101.174 238.752 115.737 223.423 116.503 203.495C116.503 162.107 52.8882 173.987 52.8882 156.359C52.8882 149.844 58.6366 145.245 68.6004 145.245C79.584 145.095 90.2811 148.751 98.875 155.592C99.3803 156.006 100.031 156.199 100.68 156.127C101.329 156.054 101.922 155.724 102.324 155.209L112.288 141.796C112.702 141.291 112.894 140.64 112.822 139.991C112.75 139.342 112.419 138.749 111.905 138.347ZM169.388 169.771C179.811 169.188 188.81 176.998 189.699 187.4C189.671 187.811 189.344 188.138 188.933 188.166H149.844C149.433 188.138 149.105 187.811 149.077 187.4C150.359 177.202 159.112 169.605 169.388 169.771Z" fill="#2CB134"/>
</svg>
