<svg width="256" height="252" viewBox="0 0 256 252" fill="none" xmlns="http://www.w3.org/2000/svg">
<path d="M249.868 0H81.6133V84.362H164.403C167.352 84.362 169.745 86.7547 169.745 89.7042V171.351H255.211V5.35198C255.213 3.93344 254.652 2.57212 253.649 1.56815C252.647 0.564176 251.287 0 249.868 0Z" fill="#8E75FF"/>
<path opacity="0.405" d="M81.6032 0V84.362H2.67132C1.58669 84.3601 0.610498 83.7036 0.19957 82.6998C-0.211358 81.6961 0.0242672 80.5435 0.796179 79.7816L81.6032 0ZM174.296 251.221C173.527 251.975 172.381 252.196 171.388 251.78C170.394 251.364 169.747 250.393 169.745 249.316V171.351H255.21L174.296 251.211V251.221Z" fill="#8E75FF"/>
<path opacity="0.405" d="M81.6035 84.3623H167.079C168.544 84.3623 169.745 85.5538 169.745 87.0285V171.351H86.9555C84.0051 171.351 81.6133 168.96 81.6133 166.009V84.3623H81.6035Z" fill="#8E75FF"/>
</svg>
