<svg width="50" height="50" viewBox="0 0 50 50" fill="none" xmlns="http://www.w3.org/2000/svg">
<g clip-path="url(#clip0)">
<path d="M49.5074 20.6742C49.372 20.568 48.1064 19.6253 45.4366 19.6253C44.7314 19.6284 44.0283 19.6878 43.3335 19.8034C42.8168 16.3096 39.9804 14.668 39.8491 14.5919L39.1324 14.1836L38.6606 14.8544C38.0699 15.7565 37.5481 16.6878 37.2949 17.7326C36.8168 19.7273 37.1074 21.6003 38.1345 23.2013C36.8929 23.8836 34.7772 23.944 34.3751 23.9586H1.64807C0.78765 23.9596 0.0897329 24.6461 0.0845246 25.494C0.0459829 28.3409 0.452233 31.2784 1.44494 33.9513C2.57932 36.8867 4.26786 39.0492 6.46369 40.3721C8.92411 41.8586 12.922 42.7086 17.4543 42.7086C19.5012 42.7148 21.5449 42.5326 23.5574 42.1628C26.3554 41.6555 29.0481 40.6909 31.5231 39.3086C33.5626 38.143 35.3981 36.6607 36.9595 34.918C39.5689 32.0034 41.1231 28.7586 42.2793 25.8742C42.4345 25.8742 42.5897 25.8742 42.7397 25.8742C45.597 25.8742 47.3533 24.7461 48.322 23.8013C48.9658 23.1982 49.4689 22.4638 49.7949 21.6503L50.0001 21.0586L49.5074 20.6742Z" fill="#2395EC"/>
<path d="M8.33366 22.9163H5.20866C4.63366 22.9163 4.16699 22.4497 4.16699 21.8747V18.7497C4.16699 18.1747 4.63366 17.708 5.20866 17.708H8.33366C8.90866 17.708 9.37533 18.1747 9.37533 18.7497V21.8747C9.37533 22.4497 8.90866 22.9163 8.33366 22.9163Z" fill="#2395EC"/>
<path d="M14.5837 22.9163H11.4587C10.8837 22.9163 10.417 22.4497 10.417 21.8747V18.7497C10.417 18.1747 10.8837 17.708 11.4587 17.708H14.5837C15.1587 17.708 15.6253 18.1747 15.6253 18.7497V21.8747C15.6253 22.4497 15.1587 22.9163 14.5837 22.9163Z" fill="#2395EC"/>
<path d="M20.8337 22.9163H17.7087C17.1337 22.9163 16.667 22.4497 16.667 21.8747V18.7497C16.667 18.1747 17.1337 17.708 17.7087 17.708H20.8337C21.4087 17.708 21.8753 18.1747 21.8753 18.7497V21.8747C21.8753 22.4497 21.4087 22.9163 20.8337 22.9163Z" fill="#2395EC"/>
<path d="M27.0837 22.9163H23.9587C23.3837 22.9163 22.917 22.4497 22.917 21.8747V18.7497C22.917 18.1747 23.3837 17.708 23.9587 17.708H27.0837C27.6587 17.708 28.1253 18.1747 28.1253 18.7497V21.8747C28.1253 22.4497 27.6587 22.9163 27.0837 22.9163Z" fill="#2395EC"/>
<path d="M14.5837 16.6663H11.4587C10.8837 16.6663 10.417 16.1997 10.417 15.6247V12.4997C10.417 11.9247 10.8837 11.458 11.4587 11.458H14.5837C15.1587 11.458 15.6253 11.9247 15.6253 12.4997V15.6247C15.6253 16.1997 15.1587 16.6663 14.5837 16.6663Z" fill="#2395EC"/>
<path d="M20.8337 16.6663H17.7087C17.1337 16.6663 16.667 16.1997 16.667 15.6247V12.4997C16.667 11.9247 17.1337 11.458 17.7087 11.458H20.8337C21.4087 11.458 21.8753 11.9247 21.8753 12.4997V15.6247C21.8753 16.1997 21.4087 16.6663 20.8337 16.6663Z" fill="#2395EC"/>
<path d="M27.0837 16.6663H23.9587C23.3837 16.6663 22.917 16.1997 22.917 15.6247V12.4997C22.917 11.9247 23.3837 11.458 23.9587 11.458H27.0837C27.6587 11.458 28.1253 11.9247 28.1253 12.4997V15.6247C28.1253 16.1997 27.6587 16.6663 27.0837 16.6663Z" fill="#2395EC"/>
<path d="M27.0837 10.4163H23.9587C23.3837 10.4163 22.917 9.94967 22.917 9.37467V6.24967C22.917 5.67467 23.3837 5.20801 23.9587 5.20801H27.0837C27.6587 5.20801 28.1253 5.67467 28.1253 6.24967V9.37467C28.1253 9.94967 27.6587 10.4163 27.0837 10.4163Z" fill="#2395EC"/>
<path d="M33.3337 22.9163H30.2087C29.6337 22.9163 29.167 22.4497 29.167 21.8747V18.7497C29.167 18.1747 29.6337 17.708 30.2087 17.708H33.3337C33.9087 17.708 34.3753 18.1747 34.3753 18.7497V21.8747C34.3753 22.4497 33.9087 22.9163 33.3337 22.9163Z" fill="#2395EC"/>
</g>
<defs>
<clipPath id="clip0">
<rect width="50" height="50" fill="white"/>
</clipPath>
</defs>
</svg>
