<svg width="572" height="572" viewBox="0 0 572 572" fill="none" xmlns="http://www.w3.org/2000/svg">
<path d="M325.007 242.861L332.262 240.509L314.072 184.409L306.817 186.761L325.007 242.861Z" fill="#F78A69"/>
<path d="M325.006 242.861L332.261 240.508L331.789 251.415L325.006 242.861Z" fill="white"/>
<path d="M331.788 251.415L332.01 246.291L328.602 247.396L331.788 251.415Z" fill="black"/>
<path d="M358.431 342.908V335.321H367.714V330.126H265.844V348.103H367.714V342.908H358.431Z" fill="#8E371D"/>
<path d="M360.596 335.321H280.869V342.906H360.596V335.321Z" fill="white"/>
<path d="M346.179 325.244V318.119H350.827V313.238H286V330.126H350.827V325.244H346.179Z" fill="#F56438"/>
<path d="M346.18 318.119H291.109V325.244H346.18V318.119Z" fill="white"/>
<path d="M360.453 299.619L358.156 301.041L359.98 304.075L351.123 309.333L349.335 306.502L347.014 307.938L370.618 345.924L384.057 337.607L360.453 299.619Z" fill="#8E371D"/>
<path d="M359.98 304.075L359.983 304.078L351.123 309.333L370.168 339.981L378.924 334.561L359.98 304.075Z" fill="white"/>
<path d="M440.684 361.879L440.684 345.771L254.001 345.771L254.001 361.879L440.684 361.879Z" fill="#F78A69"/>
<path d="M448.735 266.271H432.631V506.084H448.735V266.271Z" fill="#818181"/>
<path d="M339.08 266.271H322.977V506.084H339.08V266.271Z" fill="#818181"/>
<path d="M482.58 274.325L482.58 258.217L186.851 258.217L186.851 274.325L482.58 274.325Z" fill="#F78A69"/>
<path d="M482.582 506.084L482.582 489.977L199.81 489.977L199.81 506.084L482.582 506.084Z" fill="#818181"/>
<path d="M214.756 506.083L214.756 489.976L193.813 489.976L193.813 506.083L214.756 506.083Z" fill="black"/>
<path d="M491.375 506.084L491.375 489.976L470.432 489.976L470.432 506.084L491.375 506.084Z" fill="black"/>
<path d="M381.466 421.164V472.853H363.355V439.233C363.355 429.254 371.464 421.164 381.466 421.164Z" fill="black"/>
<path d="M499.957 421.164V472.853H518.068V439.233C518.068 429.254 509.96 421.164 499.957 421.164Z" fill="black"/>
<path d="M462.893 329.398H455.221V310.796C455.221 302.846 448.738 296.377 440.768 296.377C432.799 296.377 426.317 302.846 426.317 310.796V329.398H418.645V310.796C418.641 298.625 428.567 288.724 440.767 288.724C452.967 288.724 462.893 298.625 462.893 310.796V329.398Z" fill="black"/>
<path d="M506.084 472.853H375.451V385.613C375.451 349.627 404.694 320.452 440.769 320.452C476.841 320.452 506.086 349.625 506.086 385.613V472.853H506.084Z" fill="#8E371D"/>
<path d="M444.587 373.741H436.948C416.747 373.741 400.369 390.078 400.369 410.232V454.344H481.164V410.232C481.165 390.078 464.788 373.741 444.587 373.741Z" fill="#F56438"/>
<path d="M440.769 393.079C449.843 393.079 457.198 385.742 457.198 376.69C457.198 367.638 449.843 360.3 440.769 360.3C431.695 360.3 424.34 367.638 424.34 376.69C424.34 385.742 431.695 393.079 440.769 393.079Z" fill="black"/>
<path d="M131.698 358.448H115.51V499.766H131.698V358.448Z" fill="#818181"/>
<path d="M25.1304 232.826V347.151C25.1304 357.564 33.5524 366.014 43.9603 366.044L125.269 366.274V382.469L38.7548 382.225C22.2743 382.18 8.93945 368.799 8.93945 352.312L8.94103 232.826H25.1304Z" fill="#818181"/>
<path d="M51.7688 366.218L51.6445 350.022L162.061 350.352V366.547L51.7688 366.218Z" fill="#F78A69"/>
<path d="M41.0921 318.206L24.9043 318.33L25.2332 210.277H41.421L41.0921 318.206Z" fill="#F78A69"/>
<path d="M62.7024 505.754L62.5781 489.56L181.319 489.887V506.083L62.7024 505.754Z" fill="#818181"/>
<path d="M186.311 505.919L186.311 489.723L165.259 489.723L165.259 505.919L186.311 505.919Z" fill="black"/>
<path d="M81.9492 505.919L81.9492 489.724L60.8974 489.724L60.8974 505.919L81.9492 505.919Z" fill="black"/>
<path d="M24.9046 232.826H8.7168V253.888H24.9046V232.826Z" fill="black"/>
<path d="M465.898 170.961L445.959 228.947L452.702 231.257L472.641 173.271L465.898 170.961Z" fill="black"/>
<path d="M447.557 147.663L442.715 152.887L465.214 173.667L470.056 168.443L447.557 147.663Z" fill="black"/>
<path d="M453.647 238.815H446.518V253.549H453.647V238.815Z" fill="black"/>
<path d="M443.909 146.252H422.443V153.368H443.909V146.252Z" fill="black"/>
<path d="M457.55 252.602H387.912V258.218H457.55V252.602Z" fill="#F56438"/>
<path d="M428.015 139.114C424.082 134.803 417.395 134.488 413.081 138.413L398.526 151.649L412.771 167.26L427.326 154.023C431.639 150.101 431.948 143.425 428.015 139.114Z" fill="#8E371D"/>
<path d="M415.384 164.865L401.158 149.276C389.991 143.435 375.916 144.791 366.065 153.75L365.734 154.051L407.329 199.633L407.66 199.331C417.512 190.373 420.172 176.509 415.384 164.865Z" fill="#F56438"/>
<path d="M457.55 226.957H442.215V241.848H457.55V226.957Z" fill="#8E371D"/>
<path d="M444.555 156.644C448.335 156.644 451.4 153.585 451.4 149.811C451.4 146.038 448.335 142.979 444.555 142.979C440.774 142.979 437.709 146.038 437.709 149.811C437.709 153.585 440.774 156.644 444.555 156.644Z" fill="#F56438"/>
<path d="M469.275 178.943C473.056 178.943 476.121 175.884 476.121 172.11C476.121 168.336 473.056 165.277 469.275 165.277C465.495 165.277 462.43 168.336 462.43 172.11C462.43 175.884 465.495 178.943 469.275 178.943Z" fill="#F56438"/>
<path d="M367.17 252.225H295.807V257.672H367.17V252.225Z" fill="#818181"/>
<path d="M441.256 307.246C444.265 307.246 446.704 304.807 446.704 301.798C446.704 298.79 444.265 296.351 441.256 296.351C438.248 296.351 435.809 298.79 435.809 301.798C435.809 304.807 438.248 307.246 441.256 307.246Z" fill="white"/>
<path d="M198.871 202.652C193.049 188.268 193.992 174.328 193.992 174.328C193.992 174.328 204.373 183.71 210.194 198.094C216.014 212.478 215.073 226.418 215.073 226.418C215.073 226.418 204.692 217.036 198.871 202.652Z" fill="black"/>
<path d="M240.872 204.26C232.909 217.584 221.209 225.267 221.209 225.267C221.209 225.267 222.42 211.347 230.384 198.024C238.348 184.701 250.047 177.018 250.047 177.018C250.047 177.018 248.835 190.937 240.872 204.26Z" fill="black"/>
<path d="M221.03 167.455C224.384 154.879 232.053 145.996 232.053 145.996C232.053 145.996 234.284 157.504 230.93 170.081C227.577 182.658 219.907 191.541 219.907 191.541C219.907 191.541 217.675 180.031 221.03 167.455Z" fill="black"/>
<path d="M209.125 169.763C206.587 161.715 207.696 154.197 207.696 154.197C207.696 154.197 212.922 159.727 215.46 167.775C217.998 175.823 216.889 183.341 216.889 183.341C216.889 183.341 211.664 177.811 209.125 169.763Z" fill="black"/>
<path d="M218.043 234.792C217.138 211.96 220.059 187.158 220.088 186.91L220.941 187.011C220.911 187.259 217.998 211.995 218.9 234.759L218.043 234.792Z" fill="black"/>
<path d="M217.994 233.245C216.122 227.353 213.56 224.611 213.535 224.584L214.157 223.994C214.266 224.109 216.875 226.887 218.812 232.986L217.994 233.245Z" fill="black"/>
<path d="M218.843 233.3L218.072 232.924C218.403 232.25 221.242 224.697 222.697 220.797L223.502 221.096C223.329 221.557 219.275 232.42 218.843 233.3Z" fill="black"/>
<path d="M219.095 197.074C219.086 191.953 215.913 181.79 215.881 181.688L216.7 181.432C216.832 181.854 219.944 191.822 219.953 197.073L219.095 197.074Z" fill="black"/>
<path d="M224.932 259.852H212.458C207.637 259.852 203.597 256.221 203.106 251.447L199.674 224.205H237.227L234.297 251.311C233.871 256.144 229.805 259.852 224.932 259.852Z" fill="#F56438"/>
<path d="M239.697 222.809H197.205V225.602H239.697V222.809Z" fill="black"/>
</svg>
