<svg width="256" height="165" viewBox="0 0 256 165" fill="none" xmlns="http://www.w3.org/2000/svg">
<path d="M247.942 23.3137L256 2.44397L255.65 1.15109L175.933 22.1542C184.432 9.85931 181.513 0 181.513 0C181.513 0 156.056 16.257 136.804 15.8316C117.553 15.4062 111.347 10.268 81.8272 19.6852C52.3077 29.0941 43.9665 57.9797 35.4084 64.1856C26.8503 70.3914 0 90.6022 0 90.6022L0.0583885 90.9609L24.2646 83.2536C24.2646 83.2536 17.625 89.5095 3.51999 108.519C3.51999 108.519 3.27809 108.294 2.86103 107.91L2.88606 108.044C2.88606 108.044 14.2218 125.368 25.3489 122.165C26.4667 121.84 27.7262 121.306 29.1025 120.606C33.5817 123.1 39.4289 125.552 45.885 126.227C45.885 126.227 41.5142 121.148 37.8691 115.367C38.8533 114.733 39.8626 114.074 40.8886 113.407L40.4132 113.741L49.6302 117.127L48.6126 108.461C48.6459 108.444 48.6709 108.419 48.7043 108.402L57.7629 111.73L56.6368 103.848C57.7879 103.247 58.9306 102.68 60.0734 102.155L69.5156 66.4377L108.561 39.8042L105.458 47.6116C97.5421 67.08 82.678 71.676 82.678 71.676L76.4722 74.0282C71.8595 79.4834 69.916 80.8263 68.3312 99.1353C72.0513 98.201 75.6047 97.9758 78.8244 98.8433C95.5068 103.339 101.287 123.442 96.7914 129.005C95.6653 130.398 92.9878 132.775 89.6096 135.57H82.8365L82.7448 141.058C82.5112 141.242 82.2777 141.417 82.0525 141.6H75.1626L75.0792 146.955C74.4703 147.423 73.8614 147.873 73.2775 148.315C66.8047 148.448 58.6053 142.801 58.6053 142.801C58.6053 147.94 62.8844 155.847 62.8844 155.847C62.8844 155.847 63.168 155.714 63.6434 155.48C63.2264 155.789 62.9928 155.956 62.9928 155.956C62.9928 155.956 80.3175 167.508 91.2278 163.229C100.929 159.426 126.044 139.623 147.723 130.248L213.326 112.965L221.976 90.5521L171.979 103.723V83.5956L230.643 68.1393L239.293 45.7265L171.996 63.4599V43.3242L247.942 23.3137Z" fill="black"/>
</svg>
