<svg width="512" height="330" viewBox="0 0 512 330" fill="none" xmlns="http://www.w3.org/2000/svg">
<path d="M353.098 121.259C336.696 121.241 323.414 107.933 323.426 91.5311C323.438 75.1294 336.741 61.8415 353.143 61.8477C369.544 61.8538 382.837 75.1517 382.837 91.5533C382.819 107.965 369.509 121.259 353.098 121.259Z" fill="#CA3C32"/>
<path d="M424.493 121.259C408.091 121.241 394.808 107.933 394.82 91.5311C394.833 75.1294 408.135 61.8415 424.537 61.8477C440.939 61.8538 454.232 75.1517 454.232 91.5533C454.213 107.965 440.904 121.259 424.493 121.259Z" fill="#9259A3"/>
<path d="M388.811 59.4113C372.405 59.4113 359.105 46.1116 359.105 29.7056C359.105 13.2997 372.405 0 388.811 0C405.217 0 418.517 13.2997 418.517 29.7056C418.526 37.5868 415.399 45.1477 409.826 50.7205C404.253 56.2933 396.692 59.4202 388.811 59.4113Z" fill="#399746"/>
<path d="M73.9986 121.259C57.5926 121.259 44.293 107.959 44.293 91.5533C44.293 75.1473 57.5926 61.8477 73.9986 61.8477C90.4046 61.8477 103.704 75.1473 103.704 91.5533C103.686 107.952 90.397 121.241 73.9986 121.259Z" fill="#4D64AE"/>
<path d="M97.2624 269.788C97.6146 280.168 96.1344 290.528 92.89 300.394C90.579 307.391 86.4012 313.623 80.8075 318.418C75.3758 322.87 68.8953 325.857 61.9828 327.096C53.9343 328.659 45.7491 329.408 37.5507 329.332C32.1584 329.388 26.7758 328.862 21.4963 327.764C17.3731 326.931 13.393 325.503 9.68079 323.525C6.83811 322.056 4.38882 319.927 2.53809 317.317C0.914165 315.224 0.022894 312.656 0.00142383 310.007C-0.0604499 305.63 1.89716 301.469 5.30839 298.726C9.42431 295.529 14.5574 293.929 19.7607 294.22C21.8903 294.174 24.0089 294.537 26.0022 295.288C27.706 295.945 29.3118 296.832 30.7751 297.925C32.1427 299.029 33.4361 300.222 34.6469 301.496C35.6816 302.831 36.6161 304.066 37.4172 305.234C38.8411 307.191 40.5384 308.933 42.4571 310.408C43.5934 311.189 44.9193 311.651 46.2955 311.743C47.4745 311.756 48.6327 311.432 49.6332 310.808C50.7532 309.971 51.5821 308.804 52.003 307.47C52.7361 305.416 53.1852 303.271 53.3381 301.095C53.7417 297.706 53.9202 294.295 53.8721 290.882V135.111L97.2624 123.162V269.788ZM160.679 126.633V226.965C160.664 229.702 161.197 232.414 162.248 234.942C163.409 237.263 164.981 239.355 166.887 241.117C168.855 242.899 171.113 244.332 173.563 245.356C176.098 246.424 178.822 246.968 181.573 246.958C183.435 246.874 185.262 246.42 186.947 245.623C189.099 244.635 191.118 243.379 192.955 241.884C195.135 240.228 197.158 238.373 198.996 236.344C201.024 234.187 202.825 231.827 204.37 229.301V126.633H247.76V270.155H204.37V256.804C198.929 261.586 192.824 265.555 186.246 268.586C180.4 271.318 174.04 272.775 167.588 272.858C160.875 272.954 154.202 271.823 147.895 269.521C142.064 267.285 136.682 264.017 132.008 259.875C127.571 255.859 123.975 251.004 121.427 245.589C118.864 240.058 117.554 234.029 117.588 227.933V126.633H160.679ZM334.24 135.511L377.63 123.562V270.155H334.24V135.511ZM310.876 270.155H267.486V70.5262L310.876 58.5771V270.155ZM511.139 270.155H467.749V258.74C465.379 260.776 463.009 262.645 460.706 264.314C458.294 266.053 455.724 267.562 453.029 268.82C450.008 270.139 446.852 271.124 443.617 271.757C439.454 272.506 435.229 272.852 431 272.792C424.956 272.882 418.941 271.945 413.21 270.021C408.311 268.323 403.78 265.706 399.859 262.311C396.258 259.027 393.401 255.009 391.482 250.529C389.529 245.916 388.541 240.952 388.578 235.943C388.484 230.861 389.522 225.822 391.615 221.191C393.763 216.769 396.64 212.741 400.126 209.275C403.915 205.59 408.141 202.384 412.71 199.729C417.712 196.828 422.896 194.252 428.23 192.019C433.804 189.716 439.578 187.613 445.486 185.644L463.009 179.936L467.782 178.902V164.683C467.859 160.793 467.364 156.914 466.313 153.168C465.627 150.343 464.315 147.708 462.475 145.458C460.935 143.466 458.864 141.951 456.5 141.085C453.999 140.172 451.353 139.72 448.69 139.75C445.752 139.676 442.824 140.128 440.046 141.085C437.925 141.872 436.017 143.14 434.472 144.79C433.056 146.296 432.016 148.114 431.434 150.097C430.778 152.26 430.463 154.512 430.5 156.773C430.516 159.416 430.202 162.051 429.565 164.616C429.077 167.045 428.038 169.328 426.528 171.292C424.923 173.191 422.87 174.66 420.553 175.564C417.491 176.839 414.188 177.431 410.874 177.3C408.026 177.334 405.193 176.882 402.496 175.965C400.155 175.083 397.995 173.783 396.121 172.126C394.366 170.452 392.93 168.473 391.882 166.285C390.91 163.983 390.411 161.508 390.414 159.009C390.442 153.998 392.225 149.156 395.454 145.324C399.188 140.783 403.796 137.037 409.005 134.31C415.24 131.052 421.887 128.649 428.764 127.167C436.556 125.364 444.531 124.468 452.529 124.497C461.366 124.348 470.189 125.29 478.796 127.301C485.331 128.759 491.543 131.407 497.12 135.111C501.65 138.202 505.306 142.41 507.734 147.327C510.053 152.355 511.195 157.846 511.072 163.381L511.139 270.155ZM467.749 196.158C463.441 198.002 459.24 200.086 455.165 202.399C451.081 204.586 447.214 207.157 443.617 210.076C440.363 212.619 437.496 215.62 435.106 218.988C433.004 221.834 431.838 225.263 431.768 228.801C431.76 231.441 432.12 234.069 432.836 236.611C433.478 238.87 434.457 241.019 435.74 242.986C436.854 244.625 438.243 246.059 439.845 247.225C441.324 248.256 443.082 248.815 444.885 248.827C448.659 248.687 452.325 247.535 455.499 245.489C459.67 242.957 463.703 240.205 467.582 237.245L467.749 196.158Z" fill="#1A1A1A"/>
</svg>
