<svg width="50" height="50" viewBox="0 0 50 50" fill="none" xmlns="http://www.w3.org/2000/svg">
<path d="M6.25 10.4167C6.25 8.11562 8.11562 6.25 10.4167 6.25H39.5833C41.8844 6.25 43.75 8.11562 43.75 10.4167V39.5833C43.75 41.8844 41.8844 43.75 39.5833 43.75H10.4167C8.11562 43.75 6.25 41.8844 6.25 39.5833V10.4167Z" fill="#03A9F4"/>
<path d="M20.8501 19.9727H18.7646V24.5914H20.8199C21.3896 24.5914 21.8303 24.4049 22.1428 24.032C22.4553 23.6591 22.6105 23.1164 22.6105 22.4039C22.6105 21.6643 22.4511 21.0768 22.1324 20.6393C21.8136 20.2018 21.3855 19.9799 20.8501 19.9727Z" fill="#020F16"/>
<path d="M9.375 9.375V40.625H40.625V9.375H9.375ZM24.3385 25.8219C23.4781 26.6635 22.2844 27.0833 20.7583 27.0833H18.7646V32.2917H15.774V17.4802H20.8198C22.2844 17.4802 23.4531 17.9354 24.324 18.8438C25.1948 19.7521 25.6313 20.9323 25.6313 22.3833C25.6313 23.8344 25.2 24.9802 24.3385 25.8219ZM34.0437 31.6C33.3052 32.1969 32.3344 32.4948 31.1344 32.4948C30.3271 32.4948 29.6146 32.3375 28.9979 32.0219C28.3812 31.7062 27.8969 31.2667 27.5479 30.7042C27.199 30.1417 27.024 29.5344 27.024 28.8833H29.7604C29.775 29.3844 29.8906 29.7615 30.1115 30.0125C30.3323 30.2635 30.6927 30.3885 31.1948 30.3885C31.9677 30.3885 32.3542 30.0396 32.3542 29.3406C32.3542 29.0969 32.2375 28.8708 32.0031 28.6646C31.7687 28.4583 31.25 28.1792 30.4427 27.826C29.2563 27.3448 28.4406 26.8469 27.9958 26.3302C27.551 25.8135 27.3292 25.174 27.3292 24.4073C27.3292 23.4437 27.6771 22.649 28.3719 22.0219C29.0667 21.3948 29.9885 21.0813 31.1333 21.0813C32.3396 21.0813 33.3062 21.3937 34.0323 22.0167C34.7583 22.6396 35.1208 23.4781 35.1208 24.5292H32.2417C32.2417 23.6344 31.8698 23.1865 31.1229 23.1865C30.8177 23.1865 30.5677 23.2812 30.3698 23.4708C30.1719 23.6604 30.075 23.926 30.075 24.2646C30.075 24.5083 30.1833 24.724 30.401 24.9104C30.6187 25.0969 31.1292 25.3635 31.9375 25.7094C33.1115 26.1437 33.9396 26.6271 34.425 27.1594C34.9104 27.6917 35.1521 28.3823 35.1521 29.2292C35.1521 30.2135 34.7823 31.0031 34.0437 31.6Z" fill="#020F16"/>
</svg>
