<svg width="256" height="264" viewBox="0 0 256 264" fill="none" xmlns="http://www.w3.org/2000/svg">
<path d="M255.007 158.085C253.473 153.437 249.452 150.199 244.251 149.422C241.799 149.056 238.991 149.212 235.669 149.897C229.877 151.092 225.58 151.547 222.444 151.635C234.28 131.65 243.905 108.86 249.446 87.4064C258.406 52.7181 253.618 36.9153 248.023 29.7668C233.217 10.8477 211.614 0.683335 185.551 0.37176C171.649 0.202079 159.443 2.94713 153.077 4.92064C147.149 3.87535 140.774 3.29122 134.086 3.18303C121.55 2.9832 110.473 5.71583 101.008 11.3325C95.7666 9.56116 87.3576 7.06323 77.6456 5.4687C54.803 1.71857 36.3935 4.64099 22.9278 14.1538C6.62182 25.672 -0.937575 45.6838 0.46067 73.6339C0.904088 82.5081 5.8686 109.508 13.6846 135.114C18.1767 149.831 22.9668 162.054 27.9218 171.444C34.9485 184.759 42.4671 192.6 50.908 195.415C55.6396 196.992 64.2354 198.095 73.277 190.567C74.4228 191.954 75.9511 193.333 77.9808 194.614C80.5573 196.239 83.7086 197.567 86.855 198.354C98.1965 201.189 108.82 200.48 117.882 196.506C117.938 198.118 117.981 199.658 118.018 200.988C118.078 203.145 118.137 205.26 118.217 207.237C118.753 220.612 119.663 231.011 122.359 238.287C122.507 238.688 122.706 239.297 122.917 239.943C124.261 244.062 126.511 250.956 132.232 256.355C138.158 261.948 145.325 263.663 151.889 263.663C155.18 263.663 158.322 263.231 161.076 262.641C170.897 260.536 182.05 257.33 190.118 245.842C197.745 234.982 201.453 218.625 202.124 192.851C202.211 192.123 202.292 191.427 202.369 190.764C202.421 190.316 202.474 189.858 202.528 189.402L204.325 189.56L204.788 189.591C214.791 190.047 227.021 187.926 234.532 184.437C240.467 181.682 259.485 171.642 255.007 158.085Z" fill="black"/>
<path d="M237.905 160.722C208.165 166.857 206.12 156.787 206.12 156.787C237.521 110.194 250.647 51.0512 239.319 36.5762C208.416 -2.90866 154.921 15.7652 154.028 16.25L153.741 16.3014C147.865 15.0817 141.29 14.3551 133.9 14.2345C120.443 14.0139 110.235 17.7623 102.49 23.6361C102.49 23.6361 7.05949 -15.6773 11.4978 73.0802C12.442 91.9627 38.5617 215.954 69.7162 178.503C81.1032 164.808 92.1053 153.229 92.1053 153.229C97.57 156.859 104.112 158.711 110.97 158.046L111.503 157.593C111.337 159.294 111.413 160.957 111.716 162.926C103.69 171.893 106.049 173.467 90.0047 176.77C73.7702 180.115 83.3073 186.072 89.5341 187.629C97.0828 189.516 114.547 192.191 126.347 175.672L125.877 177.557C129.021 180.075 131.23 193.94 130.859 206.508C130.489 219.077 130.242 227.706 132.72 234.446C135.198 241.186 137.667 256.351 158.759 251.831C176.382 248.055 185.515 238.268 186.786 221.942C187.687 210.336 189.728 212.052 189.856 201.675L191.493 196.762C193.38 181.029 191.793 175.954 202.651 178.315L205.289 178.546C213.281 178.91 223.74 177.261 229.879 174.408C243.097 168.273 250.937 158.031 237.903 160.722H237.905Z" fill="#336791"/>
<path d="M108.077 81.5247C105.397 81.1516 102.97 81.4969 101.742 82.4263C101.051 82.9496 100.837 83.5556 100.78 83.973C100.625 85.078 101.4 86.2994 101.875 86.9297C103.221 88.7134 105.187 89.9396 107.134 90.2098C107.416 90.2488 107.696 90.2677 107.975 90.2677C111.221 90.2677 114.171 87.7408 114.431 85.8755C114.756 83.5396 111.365 81.9823 108.077 81.5247Z" fill="white"/>
<path d="M196.86 81.5991H196.859C196.604 79.7681 193.345 79.2461 190.253 79.6759C187.165 80.1063 184.171 81.4998 184.421 83.335C184.622 84.7622 187.198 87.1986 190.249 87.198C190.506 87.198 190.766 87.1809 191.028 87.1442C193.064 86.8622 194.558 85.5692 195.267 84.8237C196.349 83.6885 196.974 82.4221 196.86 81.5991Z" fill="white"/>
<path d="M247.802 160.025C246.668 156.596 243.018 155.492 236.954 156.745C218.949 160.461 212.501 157.886 210.383 156.327C224.379 135.007 235.892 109.236 242.102 85.1902C245.045 73.8002 246.67 63.2226 246.803 54.6014C246.949 45.1371 245.338 38.1837 242.014 33.9358C228.611 16.8104 208.942 7.62453 185.132 7.37208C168.763 7.18821 154.933 11.3776 152.252 12.5553C146.606 11.1512 140.45 10.2892 133.75 10.1792C121.461 9.98056 110.84 12.9225 102.046 18.9187C98.2257 17.4974 88.3535 14.1085 76.2812 12.164C55.4087 8.80284 38.8231 11.3492 26.9868 19.7346C12.8636 29.7404 6.34359 47.6262 7.60704 72.8939C8.03213 81.3957 12.8754 107.547 20.52 132.593C30.582 165.556 41.5191 184.218 53.0278 188.056C54.3746 188.505 55.9284 188.82 57.6406 188.82C61.8388 188.82 66.9854 186.927 72.3407 180.49C81.2357 169.788 89.5406 160.821 92.602 157.563C97.126 159.992 102.095 161.348 107.179 161.483C107.188 161.617 107.202 161.75 107.214 161.882C106.194 163.092 105.357 164.152 104.644 165.057C101.122 169.528 100.389 170.458 89.0517 172.793C85.8272 173.458 77.2609 175.224 77.1362 181.227C76.9996 187.787 87.2603 190.542 88.4297 190.834C92.5039 191.854 96.4284 192.357 100.171 192.357C109.275 192.357 117.286 189.365 123.688 183.576C123.49 206.962 124.466 230.006 127.274 237.028C129.573 242.775 135.191 256.823 152.938 256.821C155.541 256.821 158.408 256.519 161.561 255.843C180.082 251.872 188.124 243.686 191.236 225.64C192.901 215.995 195.758 192.963 197.101 180.61C199.938 181.494 203.589 181.899 207.536 181.898C215.768 181.898 225.267 180.15 231.224 177.384C237.915 174.277 249.992 166.65 247.802 160.025ZM203.696 76.5441C203.634 80.1914 203.133 83.5022 202.6 86.9585C202.028 90.6755 201.436 94.5185 201.287 99.1839C201.139 103.724 201.706 108.444 202.255 113.008C203.363 122.228 204.5 131.72 200.098 141.086C199.414 139.871 198.754 138.546 198.148 137.078C197.602 135.752 196.414 133.621 194.77 130.673C188.37 119.197 173.385 92.3239 181.056 81.3579C183.341 78.0931 189.139 74.7379 203.696 76.5441ZM186.052 14.7576C207.386 15.2289 224.261 23.2098 236.21 38.4776C245.374 50.1885 235.283 103.476 206.07 149.446C205.781 149.08 205.487 148.709 205.183 148.33C205.062 148.178 204.939 148.024 204.814 147.868C212.363 135.4 210.886 123.066 209.573 112.129C209.033 107.641 208.523 103.402 208.653 99.4209C208.787 95.1996 209.345 91.5807 209.884 88.0807C210.548 83.7671 211.223 79.3045 211.037 74.0432C211.176 73.4916 211.232 72.8395 211.159 72.0656C210.684 67.0201 204.924 51.922 193.183 38.2547C186.762 30.7804 177.397 22.4152 164.61 16.7731C170.11 15.6333 177.631 14.5702 186.052 14.7576ZM66.6739 175.778C60.774 182.871 56.6993 181.512 55.3596 181.065C46.629 178.153 36.4996 159.702 27.5685 130.441C19.8406 105.123 15.3243 79.6646 14.9672 72.5256C13.8385 49.9479 19.3115 34.2125 31.2347 25.7568C50.6387 11.996 82.5411 20.2324 95.3601 24.41C95.1756 24.5915 94.984 24.7618 94.8013 24.9462C73.7662 46.1907 74.2652 82.4871 74.3166 84.7054C74.3148 85.5615 74.3864 86.7735 74.4851 88.4407C74.8469 94.5451 75.5203 105.907 73.7213 118.775C72.0487 130.732 75.7344 142.435 83.8318 150.883C84.6701 151.758 85.5451 152.579 86.4491 153.352C82.8444 157.212 75.0113 165.747 66.6739 175.778ZM89.1528 145.784C82.6263 138.975 79.6625 129.503 81.0199 119.795C82.9201 106.202 82.2183 94.3642 81.8417 88.0044C81.7891 87.1146 81.7424 86.3348 81.7146 85.7193C84.7878 82.995 99.0286 75.364 109.184 77.6911C113.819 78.7529 116.642 81.9083 117.817 87.3369C123.893 115.44 118.621 127.153 114.385 136.565C113.512 138.504 112.687 140.337 111.982 142.234L111.437 143.699C110.054 147.406 108.768 150.852 107.971 154.124C101.034 154.103 94.2846 151.139 89.1528 145.784ZM90.2176 183.685C88.192 183.178 86.3699 182.299 85.301 181.57C86.1937 181.15 87.7829 180.579 90.5386 180.011C103.876 177.265 105.935 175.328 110.433 169.616C111.465 168.307 112.634 166.823 114.253 165.015C114.253 165.014 114.254 165.013 114.254 165.012C116.666 162.313 117.769 162.771 119.769 163.6C121.39 164.271 122.968 166.303 123.609 168.539C123.911 169.594 124.252 171.599 123.139 173.158C113.742 186.314 100.051 186.145 90.2176 183.685ZM160.016 248.637C143.7 252.133 137.923 243.808 134.117 234.291C131.659 228.146 130.452 200.44 131.309 169.843C131.32 169.436 131.262 169.043 131.15 168.673C131.052 167.96 130.902 167.238 130.694 166.511C129.419 162.059 126.315 158.335 122.59 156.792C121.11 156.178 118.394 155.053 115.129 155.888C115.826 153.02 117.033 149.782 118.342 146.275L118.891 144.799C119.509 143.136 120.284 141.413 121.105 139.59C125.538 129.741 131.609 116.252 125.02 85.779C122.552 74.3654 114.31 68.792 101.816 70.0862C94.3248 70.8613 87.4725 73.8836 84.0547 75.6165C83.3198 75.989 82.6476 76.3484 82.0197 76.699C82.9733 65.1985 86.578 43.7069 100.06 30.1094C108.548 21.5484 119.854 17.3206 133.628 17.5482C160.768 17.9928 178.172 31.9209 187.994 43.5272C196.458 53.5289 201.041 63.6034 202.87 69.0367C189.115 67.6385 179.76 70.354 175.017 77.1336C164.701 91.8811 180.662 120.506 188.333 134.262C189.74 136.784 190.954 138.963 191.336 139.888C193.834 145.943 197.068 149.984 199.429 152.935C200.153 153.839 200.855 154.716 201.389 155.481C197.223 156.683 189.74 159.457 190.422 173.328C189.872 180.289 185.96 212.874 183.974 224.387C181.351 239.597 175.754 245.263 160.016 248.637ZM228.121 170.7C223.861 172.678 216.732 174.161 209.959 174.479C202.479 174.83 198.672 173.641 197.776 172.911C197.355 164.267 200.573 163.364 203.978 162.408C204.513 162.257 205.035 162.111 205.539 161.935C205.852 162.189 206.195 162.442 206.57 162.69C212.583 166.658 223.306 167.087 238.445 163.962C238.5 163.95 238.556 163.939 238.611 163.928C236.569 165.837 233.075 168.4 228.121 170.7Z" fill="white"/>
</svg>
