<svg width="256" height="308" viewBox="0 0 256 308" fill="none" xmlns="http://www.w3.org/2000/svg">
<path d="M239.682 40.7068C211.113 -0.181889 154.691 -12.3014 113.895 13.691L42.2469 59.3555C22.676 71.668 9.19582 91.6539 5.11197 114.412C1.69421 133.371 4.69822 152.929 13.6484 169.988C7.5155 179.291 3.33259 189.741 1.35249 200.707C-2.77084 223.902 2.62287 247.781 16.316 266.951C44.8903 307.844 101.313 319.958 142.103 293.967L213.751 248.303C233.323 235.992 246.804 216.005 250.886 193.246C254.303 174.287 251.301 154.73 242.355 137.669C248.487 128.366 252.668 117.916 254.646 106.951C258.772 83.756 253.378 59.8765 239.683 40.7068" fill="#FF3E00"/>
<path d="M106.888 270.841C83.7865 276.848 59.3908 267.805 45.7857 248.192C37.5471 236.661 34.3017 222.296 36.7824 208.343C37.1982 206.075 37.7705 203.839 38.4951 201.65L39.8448 197.534L43.5166 200.231C51.9964 206.462 61.4778 211.199 71.552 214.239L74.2157 215.047L73.9703 217.705C73.6449 221.487 74.6689 225.263 76.861 228.362C80.9553 234.269 88.3004 236.996 95.2578 235.19C96.8154 234.773 98.3 234.121 99.66 233.255L171.331 187.582C174.877 185.35 177.32 181.729 178.065 177.605C178.807 173.4 177.83 169.072 175.351 165.594C171.254 159.685 163.907 156.958 156.947 158.762C155.392 159.178 153.909 159.83 152.551 160.695L125.202 178.13C120.705 180.989 115.797 183.144 110.648 184.521C87.547 190.527 63.1517 181.484 49.5469 161.872C41.3079 150.34 38.0624 135.976 40.5435 122.023C42.9996 108.333 51.1093 96.3121 62.8828 88.9085L134.547 43.232C139.047 40.3678 143.958 38.2099 149.111 36.8332C172.212 30.8269 196.607 39.8696 210.212 59.4819C218.45 71.0135 221.696 85.3779 219.215 99.3314C218.797 101.599 218.225 103.835 217.502 106.024L216.153 110.14L212.483 107.447C204.004 101.213 194.521 96.4732 184.445 93.4333L181.782 92.6249L182.027 89.9664C182.35 86.1848 181.326 82.4108 179.137 79.3106C175.042 73.4028 167.697 70.6766 160.74 72.4824C159.182 72.8987 157.697 73.5512 156.338 74.4171L84.6665 120.092C81.1212 122.323 78.6789 125.943 77.9381 130.066C77.1906 134.272 78.1667 138.601 80.6463 142.079C84.7432 147.987 92.09 150.715 99.0503 148.911C100.607 148.493 102.092 147.841 103.452 146.976L130.798 129.548C135.293 126.685 140.201 124.528 145.349 123.152C168.451 117.146 192.846 126.188 206.451 145.801C214.69 157.332 217.935 171.697 215.454 185.65C212.997 199.34 204.887 211.362 193.115 218.769L121.45 264.442C116.951 267.306 112.04 269.464 106.887 270.841" fill="white"/>
</svg>
