<svg width="340" height="543" viewBox="0 0 340 543" fill="none" xmlns="http://www.w3.org/2000/svg">
<path d="M215.143 503.109C272.606 503.109 319.189 456.571 319.189 399.164C319.189 341.757 272.606 295.219 215.143 295.219C157.681 295.219 111.098 341.757 111.098 399.164C111.098 456.571 157.681 503.109 215.143 503.109Z" fill="#B6B6B6"/>
<path d="M285.78 382.363L254.239 429.186C251.573 433.144 247.513 435.941 242.876 437.016L242.227 437.167L294.855 289.16C297.577 293.065 298.731 297.858 298.084 302.579L287.926 376.734C287.651 378.752 286.916 380.677 285.78 382.363Z" fill="#B6B6B6"/>
<path d="M242.224 438.201C241.934 438.201 241.653 438.078 241.455 437.855C241.205 437.572 241.129 437.176 241.256 436.82L293.885 288.813C294.014 288.449 294.336 288.189 294.717 288.136C295.106 288.085 295.478 288.252 295.698 288.568C298.578 292.699 299.788 297.726 299.102 302.721L288.946 376.876C288.65 379.038 287.85 381.136 286.633 382.942L255.09 429.765C252.27 433.954 248.013 436.887 243.105 438.024L242.456 438.175C242.38 438.193 242.302 438.201 242.224 438.201ZM295.104 291.532L243.844 435.687C247.733 434.496 251.089 432.016 253.386 428.607L284.928 381.784C285.969 380.239 286.653 378.444 286.907 376.595L297.064 302.44C297.581 298.657 296.888 294.854 295.104 291.532Z" fill="#212121"/>
<path d="M147.116 445.131H232.076C236.915 445.131 241.217 443.781 241.867 437.842C236.109 437.842 137.012 437.842 137.012 437.842C137.012 437.842 138.513 445.131 147.116 445.131Z" fill="#B6B6B6"/>
<path d="M232.076 446.164H147.115C137.783 446.164 136.019 438.132 136.002 438.05C135.939 437.746 136.016 437.429 136.212 437.188C136.406 436.947 136.701 436.807 137.01 436.807H241.866C242.158 436.807 242.437 436.932 242.633 437.151C242.828 437.37 242.921 437.661 242.889 437.954C241.992 446.164 234.529 446.164 232.076 446.164ZM138.444 438.875C139.269 440.756 141.52 444.097 147.115 444.097H232.076C237.222 444.097 239.857 442.52 240.659 438.875H138.444Z" fill="#212121"/>
<path d="M137.008 437.842H241.863L258.668 344.975H171.018L137.008 437.842Z" fill="#EAEAEA"/>
<path d="M241.866 438.876H137.01C136.673 438.876 136.358 438.71 136.165 438.433C135.973 438.156 135.928 437.802 136.044 437.485L170.056 344.618C170.205 344.211 170.591 343.941 171.021 343.941H258.669C258.975 343.941 259.264 344.077 259.46 344.312C259.656 344.548 259.738 344.858 259.682 345.159L242.88 438.026C242.789 438.518 242.363 438.876 241.866 438.876ZM138.485 436.808H241.006L257.436 346.009H171.739L138.485 436.808Z" fill="#212121"/>
<path d="M282.869 377.37L241.867 437.841L258.672 344.974L295.103 288.822L282.869 377.37Z" fill="#212121"/>
<path d="M241.869 438.875C241.739 438.875 241.606 438.85 241.479 438.798C241.028 438.613 240.77 438.137 240.856 437.657L257.66 344.79C257.685 344.654 257.736 344.525 257.81 344.41L294.241 288.258C294.503 287.852 295.015 287.686 295.464 287.854C295.916 288.024 296.19 288.485 296.124 288.964L283.891 377.511C283.869 377.669 283.811 377.819 283.722 377.951L242.721 438.422C242.524 438.713 242.202 438.875 241.869 438.875ZM259.649 345.364L243.75 433.232L281.884 376.988L293.45 293.264L259.649 345.364ZM282.87 377.37H282.881H282.87Z" fill="#212121"/>
<path d="M218.705 415.683L225.61 415.675C226.721 415.674 227.459 416.428 227.258 417.362L225.995 423.234C225.79 424.187 224.71 424.962 223.584 424.962H216.583C215.458 424.962 214.727 424.188 214.948 423.236L216.308 417.372C216.524 416.438 217.596 415.684 218.705 415.683ZM198.117 417.387L196.595 423.24C196.348 424.19 197.054 424.963 198.174 424.963H205.148C206.269 424.963 207.366 424.19 207.598 423.238L209.023 417.378C209.249 416.446 208.536 415.694 207.43 415.695L200.553 415.702C199.449 415.702 198.358 416.456 198.117 417.387ZM179.998 417.403L178.316 423.243C178.044 424.191 178.725 424.962 179.84 424.962H186.785C187.902 424.962 189.017 424.19 189.274 423.241L190.859 417.393C191.112 416.463 190.422 415.713 189.32 415.714L182.471 415.721C181.374 415.722 180.266 416.473 179.998 417.403ZM161.956 417.417L160.115 423.246C159.816 424.193 160.473 424.962 161.583 424.962H168.499C169.611 424.962 170.743 424.192 171.027 423.244L172.772 417.408C173.05 416.48 172.385 415.73 171.288 415.731L164.467 415.738C163.372 415.741 162.248 416.491 161.956 417.417ZM219.333 404.324L218.028 409.953C217.816 410.867 218.536 411.609 219.638 411.607L226.5 411.597C227.603 411.595 228.658 410.851 228.855 409.935L230.066 404.298C230.259 403.402 229.532 402.679 228.444 402.681L221.675 402.698C220.59 402.702 219.541 403.427 219.333 404.324ZM201.501 404.365L200.04 409.984C199.804 410.896 200.5 411.636 201.597 411.635L208.431 411.625C209.53 411.623 210.602 410.88 210.823 409.967L212.191 404.341C212.408 403.446 211.705 402.726 210.621 402.728L203.88 402.744C202.798 402.746 201.734 403.471 201.501 404.365ZM183.74 404.406L182.126 410.014C181.864 410.925 182.537 411.663 183.629 411.662L190.436 411.652C191.531 411.65 192.62 410.907 192.867 409.997L194.389 404.382C194.631 403.489 193.952 402.77 192.872 402.772L186.157 402.789C185.078 402.791 183.997 403.514 183.74 404.406ZM166.05 404.447L164.283 410.044C163.996 410.953 164.645 411.69 165.733 411.689L172.513 411.679C173.603 411.676 174.708 410.936 174.98 410.027L176.656 404.423C176.923 403.532 176.266 402.813 175.19 402.816L168.502 402.832C167.429 402.835 166.331 403.557 166.05 404.447ZM222.24 391.79L220.985 397.2C220.781 398.078 221.492 398.789 222.571 398.786L229.299 398.766C230.381 398.763 231.412 398.045 231.601 397.167L232.765 391.751C232.951 390.89 232.235 390.196 231.168 390.201L224.53 390.226C223.464 390.231 222.44 390.929 222.24 391.79ZM204.753 391.855L203.35 397.255C203.122 398.131 203.809 398.84 204.885 398.837L211.586 398.818C212.664 398.814 213.711 398.099 213.924 397.222L215.238 391.816C215.447 390.956 214.754 390.265 213.691 390.269L207.079 390.295C206.017 390.299 204.976 390.996 204.753 391.855ZM187.335 391.92L185.784 397.31C185.531 398.184 186.195 398.892 187.267 398.889L193.941 398.869C195.015 398.866 196.077 398.152 196.315 397.276L197.778 391.881C198.01 391.023 197.34 390.333 196.281 390.337L189.695 390.363C188.638 390.367 187.581 391.063 187.335 391.92ZM169.985 391.985L168.286 397.363C168.01 398.237 168.652 398.943 169.719 398.94L176.367 398.92C177.435 398.917 178.515 398.204 178.777 397.33L180.387 391.945C180.643 391.088 179.994 390.399 178.939 390.403L172.379 390.429C171.327 390.434 170.254 391.13 169.985 391.985ZM225.034 379.742L223.827 384.943C223.632 385.787 224.331 386.468 225.39 386.464L231.988 386.435C233.049 386.431 234.057 385.741 234.238 384.895L235.358 379.688C235.536 378.86 234.831 378.194 233.784 378.2L227.274 378.234C226.228 378.241 225.225 378.915 225.034 379.742ZM207.879 379.83L206.53 385.021C206.31 385.864 206.988 386.545 208.043 386.54L214.615 386.511C215.673 386.506 216.696 385.817 216.901 384.974L218.165 379.776C218.365 378.949 217.683 378.284 216.639 378.29L210.153 378.325C209.111 378.331 208.093 379.003 207.879 379.83ZM190.79 379.916L189.299 385.099C189.057 385.94 189.712 386.619 190.763 386.615L197.309 386.587C198.363 386.583 199.401 385.895 199.63 385.053L201.037 379.865C201.26 379.039 200.599 378.376 199.56 378.381L193.098 378.416C192.061 378.42 191.028 379.092 190.79 379.916ZM173.768 380.002L172.134 385.175C171.869 386.015 172.503 386.693 173.549 386.688L180.07 386.66C181.119 386.656 182.174 385.969 182.425 385.129L183.973 379.949C184.219 379.126 183.58 378.463 182.544 378.469L176.107 378.503C175.075 378.51 174.027 379.179 173.768 380.002ZM227.721 368.151L226.56 373.156C226.372 373.968 227.062 374.622 228.1 374.617L234.573 374.581C235.614 374.575 236.6 373.91 236.775 373.097L237.853 368.087C238.024 367.29 237.33 366.65 236.302 366.657L229.913 366.699C228.887 366.705 227.907 367.354 227.721 368.151ZM210.887 368.258L209.588 373.255C209.377 374.065 210.045 374.719 211.08 374.713L217.529 374.677C218.565 374.671 219.567 374.007 219.763 373.196L220.979 368.194C221.173 367.399 220.499 366.761 219.475 366.767L213.109 366.808C212.089 366.815 211.094 367.464 210.887 368.258ZM194.115 368.365L192.679 373.353C192.447 374.162 193.093 374.815 194.125 374.809L200.549 374.773C201.581 374.767 202.597 374.104 202.818 373.294L204.171 368.301C204.386 367.506 203.734 366.869 202.715 366.876L196.373 366.917C195.354 366.924 194.344 367.572 194.115 368.365ZM177.407 368.472L175.836 373.451C175.58 374.258 176.206 374.911 177.234 374.904L183.633 374.868C184.663 374.862 185.693 374.201 185.935 373.392L187.425 368.408C187.662 367.616 187.031 366.979 186.015 366.986L179.697 367.027C178.682 367.034 177.658 367.68 177.407 368.472ZM230.309 356.991L229.191 361.811C229.01 362.592 229.69 363.222 230.71 363.215L237.063 363.17C238.084 363.163 239.05 362.521 239.217 361.739L240.255 356.914C240.42 356.146 239.736 355.532 238.728 355.539L232.454 355.588C231.447 355.598 230.487 356.224 230.309 356.991ZM213.783 357.117L212.532 361.929C212.329 362.709 212.988 363.338 214.004 363.33L220.334 363.287C221.352 363.28 222.331 362.639 222.521 361.858L223.692 357.042C223.879 356.275 223.215 355.662 222.21 355.669L215.961 355.718C214.956 355.726 213.981 356.353 213.783 357.117ZM197.318 357.244L195.935 362.047C195.711 362.826 196.349 363.453 197.361 363.446L203.667 363.403C204.681 363.395 205.675 362.757 205.886 361.976L207.19 357.168C207.398 356.403 206.754 355.79 205.752 355.798L199.526 355.846C198.525 355.854 197.537 356.479 197.318 357.244ZM180.913 357.369L179.398 362.164C179.152 362.943 179.771 363.569 180.779 363.562L187.061 363.518C188.071 363.511 189.08 362.873 189.312 362.094L190.747 357.294C190.976 356.53 190.352 355.918 189.354 355.927L183.151 355.975C182.156 355.982 181.153 356.606 180.913 357.369Z" fill="#B6B6B6"/>
<path d="M98.4315 160.6C127.663 160.6 151.359 136.927 151.359 107.724C151.359 78.5212 127.663 54.8477 98.4315 54.8477C69.2004 54.8477 45.5039 78.5212 45.5039 107.724C45.5039 136.927 69.2004 160.6 98.4315 160.6Z" fill="#B6B6B6"/>
<path d="M213.961 317.607C213.696 317.773 213.356 317.81 213.043 317.673C212.848 317.589 193.313 309.328 172.052 317.732C171.542 317.934 170.961 317.678 170.752 317.161C170.544 316.644 170.785 316.056 171.296 315.859C193.338 307.144 213.6 315.741 213.802 315.828C214.31 316.049 214.552 316.641 214.343 317.151C214.262 317.347 214.127 317.503 213.961 317.607Z" fill="#212121"/>
<path d="M202.621 325.034C202.447 325.143 202.237 325.198 202.016 325.178C201.888 325.168 189.185 324.176 178.661 333.117C178.248 333.47 177.615 333.411 177.255 332.984C176.896 332.557 176.944 331.923 177.362 331.568C188.526 322.081 201.604 323.126 202.155 323.175C202.703 323.224 203.117 323.711 203.078 324.264C203.056 324.596 202.877 324.874 202.621 325.034Z" fill="#212121"/>
<path d="M132.615 85.5206L60.0545 98.376C56.1872 99.0616 53.606 102.753 54.2908 106.621L56.6952 120.209C57.3802 124.077 61.0709 126.657 64.9384 125.972L68.8611 125.278L71.3407 139.286L78.3379 123.599L137.5 113.118C141.368 112.432 143.949 108.742 143.265 104.873L140.86 91.2848C140.174 87.4156 136.483 84.8348 132.615 85.5206Z" fill="#EAEAEA"/>
<path d="M71.5194 140.309C71.419 140.327 71.3139 140.33 71.2093 140.318C70.7554 140.262 70.3912 139.917 70.3117 139.467L68.0136 126.483L65.1163 126.997C60.6897 127.781 56.4514 124.817 55.6672 120.39L53.2621 106.803C52.4812 102.382 55.4364 98.1476 59.852 97.3551C59.8581 97.354 59.8632 97.3531 59.8704 97.3518L132.431 84.4965C136.857 83.7126 141.096 86.6759 141.88 91.1025L144.284 104.691C144.664 106.834 144.186 108.999 142.937 110.784C141.694 112.563 139.832 113.755 137.695 114.138C137.689 114.139 137.683 114.14 137.677 114.141L79.0584 124.526L72.2869 139.71C72.1425 140.03 71.8521 140.249 71.5194 140.309ZM60.219 99.4027C56.9297 99.9931 54.7284 103.146 55.3105 106.44L57.7157 120.027C58.2993 123.324 61.4563 125.532 64.7543 124.948L68.6758 124.253C68.9481 124.204 69.2276 124.266 69.4536 124.424C69.6805 124.582 69.8336 124.823 69.8825 125.095L71.7703 135.761L77.3842 123.174C77.5253 122.859 77.8116 122.634 78.1504 122.574C78.1515 122.573 78.1515 122.573 78.1525 122.573L137.315 112.092C138.899 111.842 140.303 110.921 141.234 109.591C142.164 108.261 142.52 106.65 142.236 105.052L139.832 91.4636C139.248 88.1667 136.092 85.9593 132.795 86.5426L60.2324 99.4004C60.2283 99.4011 60.2242 99.4018 60.219 99.4027Z" fill="#212121"/>
<path d="M86.7286 110.885C88.2253 110.617 89.221 109.186 88.9527 107.689C88.6843 106.192 87.2535 105.196 85.7568 105.465C84.2602 105.733 83.2644 107.165 83.5328 108.661C83.8011 110.158 85.232 111.154 86.7286 110.885Z" fill="#212121"/>
<path d="M99.299 108.66C100.796 108.392 101.792 106.961 101.523 105.464C101.255 103.967 99.824 102.972 98.3273 103.24C96.8305 103.509 95.8347 104.94 96.103 106.437C96.3714 107.933 97.8022 108.929 99.299 108.66Z" fill="#212121"/>
<path d="M111.865 106.434C113.362 106.165 114.358 104.734 114.09 103.237C113.821 101.741 112.39 100.745 110.894 101.014C109.397 101.282 108.401 102.713 108.669 104.21C108.938 105.707 110.369 106.702 111.865 106.434Z" fill="#212121"/>
<path d="M212.205 165.589C233.566 165.589 250.883 148.29 250.883 126.949C250.883 105.609 233.566 88.3086 212.205 88.3086C190.844 88.3086 173.527 105.609 173.527 126.949C173.527 148.29 190.844 165.589 212.205 165.589Z" fill="#B6B6B6"/>
<path d="M239.19 143.244L193.879 151.647C192.121 151.973 190.431 150.808 190.104 149.046L184.438 118.463C184.112 116.701 185.272 115.007 187.03 114.682L232.342 106.278C234.099 105.952 235.79 107.117 236.116 108.879L241.782 139.462C242.109 141.224 240.948 142.918 239.19 143.244Z" fill="#EAEAEA"/>
<path d="M239.395 144.283C239.39 144.284 239.387 144.284 239.384 144.285L194.072 152.687C191.744 153.119 189.498 151.57 189.066 149.237L183.399 118.653C182.968 116.323 184.505 114.076 186.827 113.64C186.83 113.64 186.833 113.639 186.836 113.639L232.148 105.236C233.275 105.027 234.416 105.271 235.363 105.922C236.309 106.574 236.945 107.555 237.154 108.685L242.822 139.268C243.03 140.398 242.788 141.543 242.14 142.49C241.492 143.436 240.518 144.072 239.395 144.283ZM187.217 115.723C186.038 115.944 185.258 117.085 185.477 118.268L191.144 148.853C191.25 149.426 191.573 149.925 192.053 150.255C192.534 150.586 193.113 150.71 193.686 150.604L238.998 142.202C239 142.201 239.002 142.201 239.003 142.201C239.574 142.094 240.068 141.771 240.398 141.291C240.728 140.81 240.85 140.229 240.743 139.655L235.077 109.071C234.97 108.497 234.647 107.998 234.166 107.668C233.686 107.337 233.107 107.214 232.535 107.32L187.223 115.722C187.22 115.722 187.218 115.722 187.217 115.723Z" fill="#212121"/>
<path d="M213.391 130.406C212.287 130.613 211.116 130.468 210.043 129.939L185.378 117.799C184.854 117.54 184.637 116.905 184.895 116.381C185.152 115.856 185.783 115.64 186.308 115.897L210.973 128.037C212.27 128.675 213.796 128.391 214.777 127.332L233.453 107.156C233.849 106.728 234.518 106.703 234.946 107.1C235.374 107.498 235.399 108.168 235.002 108.597L216.327 128.774C215.521 129.646 214.488 130.2 213.391 130.406Z" fill="#212121"/>
<path d="M192.104 150.615C191.785 150.674 191.445 150.587 191.189 150.35C190.76 149.952 190.736 149.282 191.132 148.853L205.529 133.298C205.925 132.869 206.593 132.846 207.021 133.242C207.45 133.64 207.474 134.31 207.078 134.739L192.682 150.295C192.522 150.467 192.319 150.574 192.104 150.615Z" fill="#212121"/>
<path d="M240.485 141.644C240.269 141.685 240.039 141.658 239.826 141.554L220.811 132.193C220.288 131.935 220.071 131.3 220.328 130.775C220.586 130.25 221.217 130.035 221.741 130.291L240.757 139.651C241.28 139.91 241.497 140.545 241.24 141.069C241.088 141.381 240.802 141.585 240.485 141.644Z" fill="#212121"/>
<path d="M234.372 272.371C261.23 272.371 283.002 250.62 283.002 223.788C283.002 196.956 261.23 175.205 234.372 175.205C207.515 175.205 185.742 196.956 185.742 223.788C185.742 250.62 207.515 272.371 234.372 272.371Z" fill="#B6B6B6"/>
<path d="M145.254 226.228C163.367 226.228 178.051 211.558 178.051 193.463C178.051 175.367 163.367 160.697 145.254 160.697C127.141 160.697 112.457 175.367 112.457 193.463C112.457 211.558 127.141 226.228 145.254 226.228Z" fill="#B6B6B6"/>
<path d="M176.919 82.3361C192.284 82.3361 204.74 69.8923 204.74 54.5421C204.74 39.1919 192.284 26.748 176.919 26.748C161.554 26.748 149.098 39.1919 149.098 54.5421C149.098 69.8923 161.554 82.3361 176.919 82.3361Z" fill="#B6B6B6"/>
<path d="M166.275 205.649L129.892 212.456C128.128 212.787 126.431 211.633 126.104 209.88L121.626 185.913C121.297 184.161 122.463 182.471 124.228 182.141L160.61 175.334C162.375 175.005 164.072 176.158 164.399 177.911L168.877 201.878C169.205 203.63 168.04 205.319 166.275 205.649Z" fill="#EAEAEA"/>
<path d="M166.477 206.685C166.474 206.686 166.471 206.686 166.468 206.687L130.086 213.494C128.954 213.706 127.809 213.467 126.858 212.822C125.909 212.176 125.27 211.202 125.06 210.077L120.583 186.111C120.373 184.986 120.617 183.847 121.267 182.902C121.917 181.959 122.895 181.323 124.023 181.109C124.028 181.109 124.031 181.108 124.034 181.108L160.417 174.3C162.753 173.863 165.008 175.396 165.443 177.717L169.921 201.684C170.354 204.002 168.81 206.243 166.477 206.685ZM124.416 183.18C123.233 183.405 122.449 184.543 122.669 185.72L127.146 209.687C127.253 210.258 127.577 210.753 128.06 211.08C128.542 211.408 129.123 211.529 129.698 211.421L166.081 204.614C166.083 204.613 166.085 204.613 166.086 204.613C167.271 204.388 168.055 203.249 167.834 202.073L163.357 178.106C163.136 176.927 161.991 176.148 160.804 176.371L124.422 183.18C124.419 183.18 124.417 183.18 124.416 183.18Z" fill="#212121"/>
<path d="M165.445 183.488C165.444 183.489 165.444 183.489 165.443 183.489L141.724 187.926C139.953 188.257 138.146 187.446 137.228 185.908L135.271 182.625C134.795 181.829 133.861 181.41 132.944 181.581C132.367 181.689 131.814 181.312 131.707 180.74C131.6 180.17 131.98 179.618 132.554 179.51C132.555 179.509 132.556 179.509 132.556 179.509C134.346 179.175 136.17 179.993 137.097 181.548L139.053 184.83C139.52 185.611 140.436 186.022 141.336 185.854L165.056 181.417C165.632 181.309 166.185 181.686 166.292 182.257C166.4 182.829 166.02 183.38 165.445 183.488Z" fill="#212121"/>
<path d="M238.115 186.886L207.412 192.445C205.033 192.876 203.455 195.164 203.888 197.555L214.98 258.874C215.413 261.265 217.692 262.854 220.071 262.423L263.15 254.623C265.529 254.192 267.107 251.904 266.674 249.513L257.832 200.633L238.115 186.886Z" fill="#EAEAEA"/>
<path d="M263.35 255.647C263.346 255.648 263.342 255.649 263.337 255.649L220.258 263.449C218.834 263.707 217.396 263.392 216.205 262.562C215.015 261.732 214.218 260.488 213.959 259.057L202.865 197.738C202.606 196.307 202.917 194.861 203.741 193.667C204.562 192.477 205.794 191.678 207.213 191.418C207.217 191.417 207.221 191.417 207.226 191.416L237.929 185.857C238.2 185.808 238.479 185.869 238.706 186.027L258.424 199.775C258.651 199.933 258.805 200.174 258.855 200.448L267.699 249.327C267.958 250.758 267.647 252.204 266.824 253.398C266.001 254.589 264.769 255.387 263.35 255.647ZM207.59 193.473C206.716 193.633 205.956 194.125 205.45 194.859C204.942 195.594 204.751 196.486 204.91 197.368L216.004 258.687C216.164 259.569 216.656 260.337 217.389 260.847C218.122 261.358 219.01 261.552 219.888 261.393L262.966 253.594C262.968 253.594 262.971 253.593 262.973 253.593C263.847 253.432 264.608 252.94 265.114 252.206C265.622 251.471 265.814 250.579 265.654 249.697L256.887 201.244L237.876 187.989L207.598 193.471C207.595 193.472 207.593 193.472 207.59 193.473Z" fill="#212121"/>
<path d="M250 214.31C250 214.31 249.998 214.31 249.997 214.311L218.877 219.943C218.313 220.046 217.771 219.668 217.668 219.101C217.566 218.535 217.939 217.992 218.503 217.889C218.503 217.889 218.504 217.889 218.505 217.888L249.625 212.256C250.189 212.153 250.731 212.531 250.834 213.098C250.936 213.664 250.564 214.207 250 214.31Z" fill="#212121"/>
<path d="M251.632 223.324C251.632 223.324 251.631 223.324 251.63 223.324L220.51 228.957C219.945 229.059 219.404 228.682 219.301 228.115C219.198 227.549 219.572 227.006 220.135 226.902C220.135 226.902 220.136 226.902 220.137 226.902L251.258 221.269C251.822 221.167 252.364 221.544 252.466 222.112C252.568 222.678 252.195 223.221 251.632 223.324Z" fill="#212121"/>
<path d="M253.261 232.338C253.261 232.338 253.26 232.338 253.259 232.338L222.139 237.971C221.574 238.073 221.033 237.696 220.93 237.128C220.827 236.562 221.201 236.019 221.764 235.916C221.764 235.916 221.765 235.916 221.766 235.916L252.887 230.283C253.451 230.181 253.992 230.558 254.095 231.125C254.198 231.691 253.825 232.234 253.261 232.338Z" fill="#212121"/>
<path d="M245.575 243.033C245.575 243.033 245.574 243.034 245.573 243.034L223.771 246.98C223.207 247.083 222.666 246.705 222.563 246.138C222.46 245.572 222.834 245.029 223.397 244.926C223.397 244.926 223.398 244.926 223.399 244.926L245.201 240.979C245.765 240.876 246.307 241.254 246.409 241.821C246.512 242.388 246.138 242.93 245.575 243.033Z" fill="#212121"/>
<path d="M238.086 186.868L240.343 199.345C240.776 201.737 243.055 203.325 245.435 202.894L257.85 200.646L238.086 186.868Z" fill="#EAEAEA"/>
<path d="M258.038 201.674C258.037 201.674 258.037 201.674 258.036 201.674L245.62 203.922C244.197 204.18 242.758 203.865 241.567 203.036C240.377 202.206 239.579 200.961 239.32 199.53L237.063 187.053C236.988 186.637 237.169 186.217 237.522 185.989C237.876 185.761 238.331 185.77 238.676 186.01L258.439 199.79C258.786 200.031 258.953 200.457 258.863 200.869C258.777 201.281 258.451 201.598 258.038 201.674ZM239.557 189.163L241.366 199.16C241.526 200.042 242.018 200.809 242.751 201.321C243.484 201.832 244.371 202.026 245.249 201.867L255.196 200.066L239.557 189.163Z" fill="#212121"/>
<path d="M199.48 64.5446C199.479 64.5447 199.477 64.5451 199.476 64.5452L162.654 70.677C162.389 70.7211 162.116 70.6595 161.899 70.505C161.681 70.3495 161.534 70.1156 161.49 69.852L157.235 44.2979C157.144 43.7528 157.515 43.235 158.066 43.1412C158.067 43.141 158.069 43.1407 158.07 43.1405C158.621 43.0486 159.143 43.4183 159.234 43.9654L163.324 68.5286L199.146 62.5631C199.698 62.4711 200.22 62.8409 200.311 63.3879C200.403 63.9338 200.031 64.4508 199.48 64.5446Z" fill="#212121"/>
<path d="M174.401 51.4651L166.211 52.8301L168.804 68.4133L176.994 67.0483L174.401 51.4651Z" fill="#EAEAEA"/>
<path d="M177.164 68.0378C177.163 68.038 177.161 68.0383 177.16 68.0385L168.97 69.4034C168.418 69.4955 167.896 69.1258 167.805 68.5788L165.212 52.9957C165.121 52.4497 165.493 51.9328 166.043 51.8389C166.044 51.8388 166.046 51.8384 166.047 51.8383L174.237 50.4733C174.502 50.4291 174.774 50.4908 174.993 50.6452C175.211 50.7995 175.358 51.0343 175.402 51.2969L177.995 66.881C178.038 67.1437 177.975 67.4133 177.818 67.6306C177.663 67.8467 177.427 67.9928 177.164 68.0378ZM169.64 67.255L175.83 66.2228L173.567 52.6207L167.376 53.6529L169.64 67.255Z" fill="#212121"/>
<path d="M182.042 44.926L173.852 46.291L177.297 66.9978L185.487 65.6328L182.042 44.926Z" fill="#EAEAEA"/>
<path d="M185.657 66.6218C185.656 66.622 185.654 66.6223 185.653 66.6225L177.463 67.9875C177.198 68.0316 176.925 67.9701 176.708 67.8156C176.489 67.6613 176.342 67.4265 176.299 67.1639L172.853 46.4571C172.762 45.9111 173.134 45.3942 173.685 45.3004C173.686 45.3002 173.687 45.3 173.689 45.2997L181.879 43.9347C182.144 43.8906 182.415 43.9523 182.634 44.1066C182.852 44.2609 182.999 44.4957 183.043 44.7583L186.488 65.4661C186.58 66.0109 186.208 66.528 185.657 66.6218ZM178.133 65.839L184.324 64.8069L181.209 46.082L175.019 47.1142L178.133 65.839Z" fill="#212121"/>
<path d="M191.936 53.8089L183.746 55.1738L185.486 65.6335L193.676 64.2685L191.936 53.8089Z" fill="#EAEAEA"/>
<path d="M193.846 65.2594C193.845 65.2596 193.843 65.2599 193.842 65.2601L185.652 66.625C185.1 66.7171 184.579 66.3474 184.488 65.8004L182.747 55.3409C182.656 54.7949 183.028 54.278 183.578 54.1841C183.579 54.184 183.581 54.1836 183.582 54.1835L191.772 52.8185C192.037 52.7744 192.308 52.8361 192.527 52.9904C192.745 53.1447 192.892 53.3795 192.936 53.6421L194.677 64.1027C194.721 64.3653 194.658 64.6349 194.5 64.8523C194.344 65.0675 194.11 65.2144 193.846 65.2594ZM186.321 64.4758L192.512 63.4437L191.1 54.9651L184.91 55.9972L186.321 64.4758Z" fill="#212121"/>
</svg>
