<svg width="1280" height="720" viewBox="0 0 1280 720" fill="none" xmlns="http://www.w3.org/2000/svg">
<g clip-path="url(#clip0)">
<path d="M1280 -4H-4V720H1280V-4Z" fill="#7FD6C2"/>
<path d="M977.352 85.3371C976.753 84.468 975.755 84 974.69 84H733.327C731.464 84 730 85.4708 730 87.3427C730 89.2145 731.464 90.6853 733.327 90.6853C751.761 90.6853 767.732 100.446 779.643 118.897C793.219 140.023 800.872 172.046 801.803 211.623C802.336 235.957 808.724 254.074 821.235 267.044C832.281 278.476 846.522 284.493 860.297 290.242C877.533 297.529 893.837 304.415 902.354 321.195C902.953 322.331 904.085 323 905.349 323C905.416 323 905.549 323 905.615 323C906.946 322.866 908.144 321.93 908.477 320.66L977.884 88.2786C978.15 87.2758 977.951 86.2062 977.352 85.3371Z" fill="#F3F6E6"/>
<path d="M731.677 165.643H298.323V523.746H731.677V165.643Z" fill="#F3F6E6"/>
<path d="M735 526.999H295V162.324H735V526.999ZM301.646 520.362H728.354V168.962H301.646V520.362Z" fill="#383A48"/>
<path d="M731.677 87.252H298.323V165.577H731.677V87.252Z" fill="#E0719E"/>
<path d="M731.677 168.963H298.323C296.462 168.963 295 167.502 295 165.644V87.3188C295 85.4603 296.462 84 298.323 84H731.677C733.538 84 735 85.4603 735 87.3188V165.644C735 167.436 733.538 168.963 731.677 168.963ZM301.646 162.325H728.354V90.6377H301.646V162.325Z" fill="#383A48"/>
<path d="M339.924 137.633C346.126 137.633 351.155 132.61 351.155 126.415C351.155 120.22 346.126 115.197 339.924 115.197C333.721 115.197 328.693 120.22 328.693 126.415C328.693 132.61 333.721 137.633 339.924 137.633Z" fill="#E0719E"/>
<path d="M339.924 141.018C331.883 141.018 325.37 134.513 325.37 126.482C325.37 118.45 331.883 111.945 339.924 111.945C347.965 111.945 354.478 118.45 354.478 126.482C354.478 134.513 347.965 141.018 339.924 141.018ZM339.924 118.517C335.538 118.517 332.016 122.035 332.016 126.415C332.016 130.796 335.538 134.314 339.924 134.314C344.31 134.314 347.832 130.796 347.832 126.415C347.832 122.035 344.31 118.517 339.924 118.517Z" fill="#383A48"/>
<path d="M374.348 137.633C380.55 137.633 385.579 132.61 385.579 126.415C385.579 120.22 380.55 115.197 374.348 115.197C368.145 115.197 363.117 120.22 363.117 126.415C363.117 132.61 368.145 137.633 374.348 137.633Z" fill="#F6E049"/>
<path d="M374.348 141.018C366.307 141.018 359.794 134.513 359.794 126.482C359.794 118.45 366.307 111.945 374.348 111.945C382.389 111.945 388.901 118.45 388.901 126.482C388.901 134.513 382.322 141.018 374.348 141.018ZM374.348 118.517C369.962 118.517 366.439 122.035 366.439 126.415C366.439 130.796 369.962 134.314 374.348 134.314C378.734 134.314 382.256 130.796 382.256 126.415C382.256 122.035 378.667 118.517 374.348 118.517Z" fill="#383A48"/>
<path d="M408.705 137.633C414.908 137.633 419.936 132.61 419.936 126.415C419.936 120.22 414.908 115.197 408.705 115.197C402.502 115.197 397.474 120.22 397.474 126.415C397.474 132.61 402.502 137.633 408.705 137.633Z" fill="#7FD6C2"/>
<path d="M408.705 141.018C400.664 141.018 394.151 134.513 394.151 126.482C394.151 118.45 400.664 111.945 408.705 111.945C416.746 111.945 423.259 118.45 423.259 126.482C423.259 134.513 416.746 141.018 408.705 141.018ZM408.705 118.517C404.319 118.517 400.797 122.035 400.797 126.415C400.797 130.796 404.319 134.314 408.705 134.314C413.091 134.314 416.613 130.796 416.613 126.415C416.613 122.035 413.091 118.517 408.705 118.517Z" fill="#383A48"/>
<path d="M677.677 217.631H244.323V575.681H677.677V217.631Z" fill="#F3F6E6"/>
<path d="M681 578.999H241V214.312H681V578.999ZM247.646 572.363H674.354V220.949H247.646V572.363Z" fill="#383A48"/>
<path d="M677.677 139.318H244.323V217.631H677.677V139.318Z" fill="#F6E049"/>
<path d="M681 220.95H241V136H681V220.95ZM247.646 214.313H674.354V142.637H247.646V214.313Z" fill="#383A48"/>
<path d="M286.721 189.692C292.924 189.692 297.952 184.67 297.952 178.476C297.952 172.281 292.924 167.26 286.721 167.26C280.518 167.26 275.49 172.281 275.49 178.476C275.49 184.67 280.518 189.692 286.721 189.692Z" fill="#E0719E"/>
<path d="M286.721 193.01C278.68 193.01 272.167 186.506 272.167 178.476C272.167 170.445 278.68 163.941 286.721 163.941C294.762 163.941 301.275 170.445 301.275 178.476C301.275 186.506 294.762 193.01 286.721 193.01ZM286.721 170.578C282.335 170.578 278.813 174.096 278.813 178.476C278.813 182.856 282.335 186.373 286.721 186.373C291.107 186.373 294.629 182.856 294.629 178.476C294.629 174.096 291.107 170.578 286.721 170.578Z" fill="#383A48"/>
<path d="M321.145 189.692C327.348 189.692 332.376 184.67 332.376 178.476C332.376 172.281 327.348 167.26 321.145 167.26C314.942 167.26 309.914 172.281 309.914 178.476C309.914 184.67 314.942 189.692 321.145 189.692Z" fill="#F6E049"/>
<path d="M321.145 193.01C313.104 193.01 306.591 186.506 306.591 178.476C306.591 170.445 313.104 163.941 321.145 163.941C329.186 163.941 335.699 170.445 335.699 178.476C335.699 186.506 329.12 193.01 321.145 193.01ZM321.145 170.578C316.759 170.578 313.237 174.096 313.237 178.476C313.237 182.856 316.759 186.373 321.145 186.373C325.531 186.373 329.053 182.856 329.053 178.476C329.053 174.096 325.465 170.578 321.145 170.578Z" fill="#383A48"/>
<path d="M355.502 189.692C361.705 189.692 366.733 184.67 366.733 178.476C366.733 172.281 361.705 167.26 355.502 167.26C349.3 167.26 344.271 172.281 344.271 178.476C344.271 184.67 349.3 189.692 355.502 189.692Z" fill="#7FD6C2"/>
<path d="M355.502 193.01C347.461 193.01 340.949 186.506 340.949 178.476C340.949 170.445 347.461 163.941 355.502 163.941C363.544 163.941 370.056 170.445 370.056 178.476C370.056 186.506 363.544 193.01 355.502 193.01ZM355.502 170.578C351.116 170.578 347.594 174.096 347.594 178.476C347.594 182.856 351.116 186.373 355.502 186.373C359.888 186.373 363.411 182.856 363.411 178.476C363.411 174.096 359.888 170.578 355.502 170.578Z" fill="#383A48"/>
<path d="M620.669 273.828H186.33V632.74H620.669V273.828Z" fill="#F3F6E6"/>
<path d="M624 636H183V270.502H624V636ZM189.661 629.348H617.339V277.155H189.661V629.348Z" fill="#383A48"/>
<path d="M620.669 195.26H186.33V273.761H620.669V195.26Z" fill="#AAC6FC"/>
<path d="M620.67 277.154H186.33C184.465 277.154 183 275.691 183 273.828V195.326C183 193.464 184.465 192 186.33 192H620.67C622.535 192 624 193.464 624 195.326V273.828C624 275.624 622.535 277.154 620.67 277.154ZM189.661 270.502H617.339V198.653H189.661V270.502Z" fill="#383A48"/>
<path d="M228.026 245.754C234.243 245.754 239.282 240.72 239.282 234.511C239.282 228.301 234.243 223.268 228.026 223.268C221.809 223.268 216.77 228.301 216.77 234.511C216.77 240.72 221.809 245.754 228.026 245.754Z" fill="#E0719E"/>
<path d="M228.026 249.147C219.966 249.147 213.439 242.627 213.439 234.577C213.439 226.527 219.966 220.008 228.026 220.008C236.085 220.008 242.613 226.527 242.613 234.577C242.613 242.627 236.085 249.147 228.026 249.147ZM228.026 226.594C223.63 226.594 220.1 230.12 220.1 234.511C220.1 238.901 223.63 242.427 228.026 242.427C232.422 242.427 235.952 238.901 235.952 234.511C235.952 230.12 232.422 226.594 228.026 226.594Z" fill="#383A48"/>
<path d="M262.528 245.754C268.745 245.754 273.784 240.72 273.784 234.511C273.784 228.301 268.745 223.268 262.528 223.268C256.311 223.268 251.271 228.301 251.271 234.511C251.271 240.72 256.311 245.754 262.528 245.754Z" fill="#F6E049"/>
<path d="M262.528 249.147C254.468 249.147 247.941 242.627 247.941 234.577C247.941 226.527 254.468 220.008 262.528 220.008C270.587 220.008 277.114 226.527 277.114 234.577C277.114 242.627 270.52 249.147 262.528 249.147ZM262.528 226.594C258.132 226.594 254.602 230.12 254.602 234.511C254.602 238.901 258.132 242.427 262.528 242.427C266.924 242.427 270.454 238.901 270.454 234.511C270.454 230.12 266.857 226.594 262.528 226.594Z" fill="#383A48"/>
<path d="M296.963 245.754C303.18 245.754 308.22 240.72 308.22 234.511C308.22 228.301 303.18 223.268 296.963 223.268C290.747 223.268 285.707 228.301 285.707 234.511C285.707 240.72 290.747 245.754 296.963 245.754Z" fill="#7FD6C2"/>
<path d="M296.963 249.147C288.904 249.147 282.376 242.627 282.376 234.577C282.376 226.527 288.904 220.008 296.963 220.008C305.023 220.008 311.55 226.527 311.55 234.577C311.55 242.627 305.023 249.147 296.963 249.147ZM296.963 226.594C292.567 226.594 289.037 230.12 289.037 234.511C289.037 238.901 292.567 242.427 296.963 242.427C301.359 242.427 304.889 238.901 304.889 234.511C304.889 230.12 301.359 226.594 296.963 226.594Z" fill="#383A48"/>
<path d="M867.286 634.592C887.522 634.592 903.927 618.171 903.927 597.915C903.927 577.659 887.522 561.238 867.286 561.238C847.05 561.238 830.645 577.659 830.645 597.915C830.645 618.171 847.05 634.592 867.286 634.592Z" fill="#383A48"/>
<path d="M867.286 637.933C845.262 637.933 827.308 619.962 827.308 597.916C827.308 575.87 845.262 557.898 867.286 557.898C889.311 557.898 907.265 575.87 907.265 597.916C907.265 619.962 889.311 637.933 867.286 637.933ZM867.286 564.579C848.932 564.579 833.982 579.544 833.982 597.916C833.982 616.288 848.932 631.252 867.286 631.252C885.64 631.252 900.59 616.288 900.59 597.916C900.59 579.544 885.64 564.579 867.286 564.579Z" fill="#383A48"/>
<path d="M634.091 634.659C654.327 634.659 670.732 618.238 670.732 597.982C670.732 577.726 654.327 561.305 634.091 561.305C613.855 561.305 597.45 577.726 597.45 597.982C597.45 618.238 613.855 634.659 634.091 634.659Z" fill="#383A48"/>
<path d="M634.091 638C612.066 638 594.113 620.028 594.113 597.982C594.113 575.936 612.066 557.965 634.091 557.965C656.116 557.965 674.069 575.936 674.069 597.982C674.069 620.028 656.182 638 634.091 638ZM634.091 564.646C615.737 564.646 600.787 579.61 600.787 597.982C600.787 616.354 615.737 631.319 634.091 631.319C652.445 631.319 667.395 616.354 667.395 597.982C667.395 579.61 652.512 564.646 634.091 564.646Z" fill="#383A48"/>
<path d="M566.348 542.799C567.616 539.592 569.352 536.519 571.554 533.847C572.288 532.912 573.089 531.976 573.89 531.175C576.493 528.569 579.43 526.431 582.633 524.828C585.904 523.225 589.374 522.089 592.978 521.555L648.774 513.337L733.736 397.895C738.475 391.415 742.413 387.473 749.154 387.406C749.154 387.406 749.22 387.406 749.287 387.406H871.624C878.699 387.406 885.507 390.212 890.379 395.356L1009.38 514.339V537.321C1009.38 539.592 1010.31 541.73 1011.92 543.334C1012.72 544.135 1013.25 545.004 1013.72 546.006C1014.12 547.075 1014.32 548.144 1014.32 549.279V583.284C1014.32 587.159 1012.72 590.9 1010.05 593.706C1008.71 595.109 1007.04 596.178 1005.24 596.913C1003.44 597.648 1001.57 598.049 999.635 598.049H575.358C573.089 598.049 570.887 597.447 569.018 596.178C567.416 595.109 566.148 593.639 565.214 592.036C564.346 590.433 563.879 588.562 563.879 586.625V555.493C563.879 550.95 564.747 546.741 566.348 542.799Z" fill="#7FD6C2"/>
<path d="M999.702 601.256H575.358C572.422 601.256 569.552 600.388 567.149 598.784C565.214 597.515 563.478 595.711 562.277 593.44C561.076 591.302 560.475 588.897 560.475 586.425V555.293C560.475 550.55 561.409 545.94 563.212 541.531C564.613 537.923 566.549 534.583 568.885 531.777C569.685 530.708 570.553 529.773 571.487 528.837C574.291 526.032 577.494 523.693 581.098 521.89C584.702 520.086 588.507 518.883 592.444 518.282L646.905 510.265L731 395.892C735.538 389.679 740.344 384.067 749.087 384H749.22H871.558C879.5 384 887.242 387.274 892.715 392.952L1011.65 511.935C1012.25 512.537 1012.65 513.405 1012.65 514.274V537.255C1012.65 538.591 1013.18 539.927 1014.25 540.996C1015.25 541.998 1016.12 543.268 1016.72 544.671C1017.32 546.14 1017.59 547.677 1017.59 549.214V583.218C1017.59 587.962 1015.72 592.504 1012.32 595.978C1010.71 597.649 1008.71 598.985 1006.44 599.92C1004.37 600.789 1002.1 601.256 999.702 601.256ZM749.22 390.681C744.014 390.748 741.011 393.687 736.473 399.833L651.511 515.276C650.977 516.011 650.176 516.478 649.308 516.612L593.512 524.829C590.309 525.297 587.172 526.299 584.168 527.769C581.232 529.238 578.562 531.176 576.293 533.514C575.559 534.249 574.825 535.051 574.224 535.852L574.157 535.919C572.222 538.257 570.687 540.93 569.485 543.936C569.485 543.936 569.485 543.936 569.485 544.003C568.017 547.61 567.283 551.418 567.283 555.293V586.425C567.283 587.761 567.616 589.097 568.217 590.233C568.885 591.502 569.819 592.504 570.887 593.173C572.222 594.041 573.757 594.509 575.425 594.509H999.702C1001.24 594.509 1002.7 594.241 1004.04 593.64C1005.44 593.039 1006.71 592.237 1007.71 591.235C1009.91 589.031 1011.05 586.158 1011.05 583.152V549.147C1011.05 548.479 1010.91 547.811 1010.65 547.143C1010.38 546.541 1010.05 546.007 1009.58 545.606C1007.31 543.268 1006.11 540.261 1006.11 537.188V515.61L888.11 397.562C883.771 393.086 877.965 390.614 871.691 390.614L749.22 390.681Z" fill="#383A48"/>
<path d="M766.774 514.942H661.856L739.743 409.387H841.191L766.774 514.942Z" fill="#AAC6FC"/>
<path d="M766.774 518.282H661.856C660.588 518.282 659.453 517.547 658.852 516.478C658.252 515.343 658.385 514.006 659.119 513.004L737.074 407.449C737.674 406.581 738.675 406.113 739.743 406.113H841.19C842.459 406.113 843.593 406.781 844.127 407.917C844.661 409.053 844.594 410.389 843.86 411.391L769.443 516.946C768.843 517.748 767.841 518.282 766.774 518.282ZM668.463 511.601H765.038L834.717 412.727H741.412L668.463 511.601Z" fill="#383A48"/>
<path d="M991.358 548.412H900.189V597.983H991.358V548.412Z" fill="#383A48"/>
<path d="M991.359 601.324H900.19C898.321 601.324 896.853 599.854 896.853 597.983V548.413C896.853 546.542 898.321 545.072 900.19 545.072H991.359C993.227 545.072 994.696 546.542 994.696 548.413V597.983C994.696 599.787 993.227 601.324 991.359 601.324ZM903.527 594.643H988.022V551.753H903.527V594.643Z" fill="#383A48"/>
<path d="M1024.66 549.146V583.218C1024.66 587.093 1023.06 590.834 1020.39 593.64C1017.59 596.446 1013.92 597.915 1009.98 597.915H991.426V597.515C991.426 575.535 973.606 557.631 951.581 557.631C929.623 557.631 911.736 575.468 911.736 597.515V597.915H758.497V596.112C758.497 574.733 741.145 557.497 719.787 557.631C698.563 557.764 681.611 575.401 681.611 596.579V597.915H661.922C659.653 597.915 657.451 597.247 655.582 596.045C652.512 593.907 650.576 590.299 650.576 586.425V555.226C650.576 546.207 654.113 537.522 660.521 531.108C665.66 525.964 672.401 522.557 679.609 521.488L735.405 513.271L813.693 403.975C815.294 401.703 817.163 399.632 819.165 397.829C826.44 391.148 836.051 387.34 846.129 387.34H959.123C968.8 387.674 976.876 394.822 978.945 404.242L989.557 437.779L1024.66 549.146Z" fill="#F3F6E6"/>
<path d="M1009.98 601.323H991.426C989.557 601.323 988.089 599.853 988.089 597.982V597.581C988.089 577.406 971.67 561.038 951.581 561.038C931.425 561.038 915.073 577.473 915.073 597.581V597.982C915.073 599.853 913.605 601.323 911.736 601.323H758.497C756.629 601.323 755.16 599.853 755.16 597.982V596.178C755.16 586.759 751.489 577.873 744.815 571.259C738.141 564.646 729.265 560.971 719.787 561.038C700.566 561.172 684.881 577.138 684.881 596.646V597.982C684.881 599.853 683.413 601.323 681.544 601.323H661.856C658.986 601.323 656.182 600.454 653.713 598.918C653.646 598.918 653.646 598.851 653.58 598.851C649.575 596.045 647.172 591.435 647.172 586.491V555.293C647.172 545.272 651.043 535.919 658.118 528.837C663.791 523.158 671.199 519.417 679.075 518.282L733.469 510.265L810.956 402.104C812.692 399.699 814.694 397.428 816.896 395.424C824.905 388.075 835.25 384.066 846.062 384.066H959.056C959.123 384.066 959.123 384.066 959.189 384.066C970.268 384.4 979.679 392.417 982.148 403.44L1027.87 548.211C1028 548.545 1028 548.879 1028 549.213V583.285C1028 588.028 1026.13 592.571 1022.73 596.045C1019.32 599.452 1014.79 601.323 1009.98 601.323ZM994.629 594.642H1009.98C1012.98 594.642 1015.85 593.439 1017.99 591.302C1020.12 589.097 1021.33 586.291 1021.33 583.285V549.681L975.741 405.244C975.741 405.177 975.675 405.044 975.675 404.977C973.939 396.827 967.065 391.014 959.056 390.68H846.129C836.985 390.68 828.176 394.087 821.435 400.3C819.566 401.971 817.897 403.908 816.429 405.912L738.074 515.208C737.54 515.943 736.74 516.411 735.872 516.545L680.076 524.762C673.602 525.697 667.529 528.77 662.857 533.447C657.05 539.259 653.847 546.942 653.847 555.226V586.425C653.847 589.097 655.181 591.702 657.384 593.239C658.785 594.107 660.32 594.575 661.856 594.575H678.274C679.342 572.328 697.496 554.424 719.72 554.29C730.933 554.224 741.478 558.499 749.487 566.449C757.096 573.999 761.434 583.953 761.768 594.575H908.466C910.001 572.128 928.755 554.29 951.581 554.29C974.406 554.29 993.094 572.195 994.629 594.642Z" fill="#383A48"/>
<path d="M985.085 514.942H766.773L841.19 409.387H953.116L985.085 514.942Z" fill="#AAC6FC"/>
<path d="M985.085 518.283H766.773C765.505 518.283 764.371 517.614 763.837 516.479C763.236 515.343 763.37 514.007 764.104 513.005L838.521 407.45C839.121 406.581 840.189 406.047 841.257 406.047H953.183C954.651 406.047 955.919 406.982 956.386 408.385L988.356 513.94C988.689 514.942 988.489 516.078 987.822 516.88C987.154 517.815 986.153 518.283 985.085 518.283ZM773.181 511.602H980.547L950.58 412.728H842.859L773.181 511.602Z" fill="#383A48"/>
<path d="M845.395 601.323C843.526 601.323 842.058 599.854 842.058 597.983V514.942C842.058 513.071 843.526 511.602 845.395 511.602C847.264 511.602 848.732 513.071 848.732 514.942V597.983C848.732 599.787 847.197 601.323 845.395 601.323Z" fill="#383A48"/>
<path d="M588.573 562.374H575.425C573.089 562.374 571.153 560.436 571.153 558.098C571.153 555.76 573.089 553.822 575.425 553.822H588.573C590.909 553.822 592.844 555.76 592.844 558.098C592.844 560.503 590.909 562.374 588.573 562.374Z" fill="#383A48"/>
<path d="M588.573 565.714H575.425C571.22 565.714 567.816 562.307 567.816 558.098C567.816 553.89 571.22 550.482 575.425 550.482H588.573C592.778 550.482 596.182 553.89 596.182 558.098C596.182 562.307 592.778 565.714 588.573 565.714ZM575.425 557.163C574.891 557.163 574.491 557.564 574.491 558.098C574.491 558.633 574.891 559.034 575.425 559.034H588.573C589.107 559.034 589.507 558.633 589.507 558.098C589.507 557.564 589.107 557.163 588.573 557.163H575.425Z" fill="#383A48"/>
<path d="M637.562 562.374H624.414C622.078 562.374 620.142 560.436 620.142 558.098C620.142 555.76 622.078 553.822 624.414 553.822H637.562C639.898 553.822 641.833 555.76 641.833 558.098C641.833 560.503 639.898 562.374 637.562 562.374Z" fill="#383A48"/>
<path d="M637.562 565.714H624.414C620.209 565.714 616.805 562.307 616.805 558.098C616.805 553.89 620.209 550.482 624.414 550.482H637.562C641.767 550.482 645.17 553.89 645.17 558.098C645.17 562.307 641.767 565.714 637.562 565.714ZM624.347 557.163C623.813 557.163 623.413 557.564 623.413 558.098C623.413 558.633 623.813 559.034 624.347 559.034H637.495C638.029 559.034 638.429 558.633 638.429 558.098C638.429 557.564 638.029 557.163 637.495 557.163H624.347Z" fill="#383A48"/>
<path d="M556.337 595.577C556.337 590.099 560.942 585.623 566.615 585.623H671.132C676.806 585.623 681.411 590.099 681.411 595.577C681.411 601.055 676.806 605.532 671.132 605.532H566.615C560.942 605.532 556.337 601.122 556.337 595.577Z" fill="#F3F6E6"/>
<path d="M671.199 608.872H566.615C559.073 608.872 553 602.927 553 595.578C553 588.229 559.14 582.283 566.615 582.283H671.133C678.674 582.283 684.748 588.229 684.748 595.578C684.748 602.927 678.674 608.872 671.199 608.872ZM566.615 589.031C562.811 589.031 559.674 591.97 559.674 595.645C559.674 599.319 562.811 602.258 566.615 602.258H671.133C674.937 602.258 678.074 599.319 678.074 595.645C678.074 591.97 674.937 589.031 671.133 589.031H566.615Z" fill="#383A48"/>
<path d="M952.849 634.592C973.085 634.592 989.49 618.171 989.49 597.915C989.49 577.659 973.085 561.238 952.849 561.238C932.612 561.238 916.208 577.659 916.208 597.915C916.208 618.171 932.612 634.592 952.849 634.592Z" fill="#383A48"/>
<path d="M952.849 637.933C930.824 637.933 912.871 619.962 912.871 597.916C912.871 575.87 930.824 557.898 952.849 557.898C974.874 557.898 992.827 575.87 992.827 597.916C992.827 619.962 974.874 637.933 952.849 637.933ZM952.849 564.579C934.495 564.579 919.545 579.544 919.545 597.916C919.545 616.288 934.495 631.252 952.849 631.252C971.203 631.252 986.153 616.288 986.153 597.916C986.153 579.544 971.203 564.579 952.849 564.579Z" fill="#383A48"/>
<path d="M952.849 625.372C967.998 625.372 980.28 613.079 980.28 597.915C980.28 582.75 967.998 570.457 952.849 570.457C937.699 570.457 925.418 582.75 925.418 597.915C925.418 613.079 937.699 625.372 952.849 625.372Z" fill="#F3F6E6"/>
<path d="M952.849 628.713C935.897 628.713 922.081 614.884 922.081 597.915C922.081 580.946 935.897 567.117 952.849 567.117C969.801 567.117 983.617 580.946 983.617 597.915C983.617 614.884 969.801 628.713 952.849 628.713ZM952.849 573.798C939.567 573.798 928.755 584.621 928.755 597.915C928.755 611.21 939.567 622.032 952.849 622.032C966.13 622.032 976.943 611.21 976.943 597.915C976.876 584.621 966.13 573.798 952.849 573.798Z" fill="#383A48"/>
<path d="M719.654 634.659C739.89 634.659 756.295 618.238 756.295 597.982C756.295 577.726 739.89 561.305 719.654 561.305C699.417 561.305 683.013 577.726 683.013 597.982C683.013 618.238 699.417 634.659 719.654 634.659Z" fill="#383A48"/>
<path d="M719.654 638C697.629 638 679.676 620.028 679.676 597.982C679.676 575.936 697.629 557.965 719.654 557.965C741.679 557.965 759.632 575.936 759.632 597.982C759.632 620.028 741.679 638 719.654 638ZM719.654 564.646C701.3 564.646 686.35 579.61 686.35 597.982C686.35 616.354 701.3 631.319 719.654 631.319C738.008 631.319 752.958 616.354 752.958 597.982C752.958 579.61 738.008 564.646 719.654 564.646Z" fill="#383A48"/>
<path d="M719.654 625.439C734.804 625.439 747.085 613.146 747.085 597.981C747.085 582.817 734.804 570.523 719.654 570.523C704.504 570.523 692.223 582.817 692.223 597.981C692.223 613.146 704.504 625.439 719.654 625.439Z" fill="#F3F6E6"/>
<path d="M719.654 628.78C702.702 628.78 688.886 614.951 688.886 597.982C688.886 581.013 702.702 567.184 719.654 567.184C736.606 567.184 750.422 581.013 750.422 597.982C750.422 614.951 736.606 628.78 719.654 628.78ZM719.654 573.864C706.373 573.864 695.56 584.687 695.56 597.982C695.56 611.276 706.373 622.099 719.654 622.099C732.936 622.099 743.748 611.276 743.748 597.982C743.748 584.687 732.936 573.864 719.654 573.864Z" fill="#383A48"/>
<path d="M992.828 437.667L982.358 404.333C979.906 393.267 970.563 385.333 959.563 385C959.496 385 959.496 385 959.43 385H868.313C866.458 385 865 386.467 865 388.333V438.667C865 440.533 866.458 442 868.313 442H989.648C990.708 442 991.702 441.467 992.298 440.667C993.027 439.8 993.16 438.667 992.828 437.667Z" fill="#383A48"/>
<path d="M1139.66 87.3359H906.336V396.665H1139.66V87.3359Z" fill="#F3F6E6"/>
<path d="M1139.66 400H906.336C904.468 400 903 398.532 903 396.665V87.3354C903 85.4676 904.468 84 906.336 84H1139.66C1141.53 84 1143 85.4676 1143 87.3354V396.665C1143 398.532 1141.53 400 1139.66 400ZM909.672 393.329H1136.33V90.6709H909.672V393.329Z" fill="#383A48"/>
<path d="M403.346 403.934C415.107 394.287 422.592 379.55 422.592 363.137C422.592 333.997 399.002 310.35 369.933 310.35C340.864 310.35 317.274 333.997 317.274 363.137C317.274 379.55 324.759 394.287 336.52 403.934C324.759 413.58 317.274 428.318 317.274 444.731C317.274 473.871 340.864 497.518 369.933 497.518C399.002 497.518 422.592 473.871 422.592 444.731C422.592 428.318 415.107 413.647 403.346 403.934Z" fill="#7FD6C2"/>
<path d="M370 500.868C339.126 500.868 314 475.68 314 444.73C314 429.189 320.348 414.518 331.575 403.934C320.348 393.349 314 378.679 314 363.137C314 332.188 339.126 307 370 307C400.874 307 426 332.188 426 363.137C426 378.679 419.652 393.349 408.425 403.934C419.652 414.518 426 429.189 426 444.73C425.933 475.68 400.807 500.868 370 500.868ZM370 313.766C342.802 313.766 320.683 335.939 320.683 363.204C320.683 378.076 327.232 392.01 338.726 401.388C339.527 401.991 339.928 402.996 339.928 404.001C339.928 405.006 339.461 405.943 338.726 406.613C327.232 416.059 320.683 429.993 320.683 444.797C320.683 472.062 342.802 494.236 370 494.236C397.198 494.236 419.251 471.995 419.251 444.73C419.251 429.859 412.702 415.925 401.208 406.546C400.406 405.944 400.005 404.939 400.005 403.934C400.005 402.929 400.473 401.991 401.208 401.321C412.702 391.876 419.251 377.942 419.251 363.137C419.251 335.872 397.131 313.766 370 313.766Z" fill="#383A48"/>
<path d="M370 638.999C368.129 638.999 366.659 637.526 366.659 635.65V354.83C366.659 352.954 368.129 351.48 370 351.48C371.871 351.48 373.341 352.954 373.341 354.83V635.65C373.341 637.459 371.804 638.999 370 638.999Z" fill="#383A48"/>
<path d="M370 462.951C369.131 462.951 368.263 462.616 367.594 461.879L348.883 442.184C347.613 440.844 347.68 438.701 349.017 437.428C350.353 436.155 352.492 436.222 353.761 437.562L372.473 457.257C373.742 458.597 373.676 460.74 372.339 462.013C371.604 462.683 370.802 462.951 370 462.951Z" fill="#383A48"/>
<path d="M370 462.951C369.198 462.951 368.329 462.616 367.728 462.013C366.391 460.74 366.324 458.597 367.594 457.257L386.305 437.562C387.575 436.222 389.713 436.155 391.05 437.428C392.386 438.701 392.453 440.844 391.184 442.184L372.472 461.879C371.737 462.616 370.869 462.951 370 462.951Z" fill="#383A48"/>
<path d="M370 393.215C369.131 393.215 368.263 392.88 367.594 392.143L348.883 372.448C347.613 371.108 347.68 368.964 349.017 367.692C350.353 366.419 352.492 366.486 353.761 367.826L372.473 387.52C373.742 388.86 373.676 391.004 372.339 392.277C371.604 392.88 370.802 393.215 370 393.215Z" fill="#383A48"/>
<path d="M370 393.215C369.198 393.215 368.329 392.88 367.728 392.277C366.391 391.004 366.324 388.86 367.594 387.52L386.305 367.826C387.575 366.486 389.713 366.419 391.05 367.692C392.386 368.964 392.453 371.108 391.184 372.448L372.472 392.143C371.737 392.88 370.869 393.215 370 393.215Z" fill="#383A48"/>
<path d="M498 563.286C475.505 563.286 457.298 544.94 457.298 522.274V456.336C457.298 433.67 475.505 415.324 498 415.324C520.495 415.324 538.702 433.67 538.702 456.336V522.274C538.702 544.94 520.495 563.286 498 563.286Z" fill="#F6E049"/>
<path d="M498 566.609C473.724 566.609 454 546.734 454 522.273V456.335C454 431.874 473.724 412 498 412C522.276 412 542 431.874 542 456.335V522.273C542 546.734 522.276 566.609 498 566.609ZM498 418.713C477.418 418.713 460.597 435.597 460.597 456.402V522.34C460.597 543.078 477.352 560.028 498 560.028C518.582 560.028 535.403 543.145 535.403 522.34V456.402C535.403 435.597 518.648 418.713 498 418.713Z" fill="#383A48"/>
<path d="M498 637C496.153 637 494.702 635.537 494.702 633.676V501.468C494.702 499.607 496.153 498.145 498 498.145C499.847 498.145 501.298 499.607 501.298 501.468V633.676C501.298 635.471 499.847 637 498 637Z" fill="#383A48"/>
<path d="M961.484 342.999C960.617 342.999 959.75 342.664 959.149 341.994L944.937 327.718C938.332 321.083 938.332 310.359 944.937 303.791C951.543 297.156 962.218 297.156 968.757 303.791L973.427 308.482C979.432 314.515 989.174 314.515 995.179 308.482L997.113 306.539C998.448 305.198 1000.52 305.198 1001.85 306.539C1003.19 307.879 1003.19 309.957 1001.85 311.297L999.916 313.241C991.309 321.887 977.297 321.887 968.69 313.241L964.02 308.55C960.016 304.528 953.611 304.528 949.608 308.55C945.605 312.571 945.605 319.005 949.608 323.026L963.82 337.302C965.154 338.643 965.154 340.72 963.82 342.061C963.219 342.664 962.352 342.999 961.484 342.999Z" fill="#383A48"/>
<path d="M1044.02 249.102L1033.94 238.981L1062.37 210.43C1065.17 207.615 1069.64 207.615 1072.44 210.43C1075.24 213.245 1075.24 217.735 1072.44 220.55L1044.02 249.102Z" fill="#F3F6E6"/>
<path d="M1044.02 252.452C1043.15 252.452 1042.28 252.117 1041.68 251.447L1031.61 241.326C1031.01 240.723 1030.61 239.852 1030.61 238.981C1030.61 238.109 1030.94 237.238 1031.61 236.635L1060.03 208.083C1062.03 206.072 1064.64 205 1067.44 205C1070.24 205 1072.84 206.072 1074.84 208.083C1078.91 212.171 1078.91 218.807 1074.84 222.895L1046.42 251.447C1045.69 252.117 1044.82 252.452 1044.02 252.452ZM1038.68 238.981L1044.02 244.342L1070.11 218.136C1071.57 216.662 1071.57 214.249 1070.11 212.775C1069.37 212.037 1068.44 211.635 1067.44 211.635C1066.44 211.635 1065.5 212.037 1064.77 212.775L1038.68 238.981Z" fill="#383A48"/>
<path d="M1059.1 264.249L1069.17 274.369L1097.6 245.818C1100.4 243.003 1100.4 238.512 1097.6 235.697C1094.79 232.882 1090.32 232.882 1087.52 235.697L1059.1 264.249Z" fill="#F3F6E6"/>
<path d="M1069.11 277.653C1068.24 277.653 1067.37 277.318 1066.77 276.648L1056.7 266.528C1056.1 265.924 1055.69 265.053 1055.69 264.182C1055.69 263.31 1056.03 262.439 1056.7 261.836L1085.12 233.284C1087.12 231.274 1089.72 230.201 1092.52 230.201C1095.33 230.201 1097.93 231.274 1099.93 233.284C1104 237.373 1104 244.008 1099.93 248.096L1071.51 276.648C1070.84 277.318 1069.97 277.653 1069.11 277.653ZM1063.77 264.249L1069.11 269.611L1095.19 243.405C1096.66 241.93 1096.66 239.517 1095.19 238.043C1093.73 236.568 1091.32 236.568 1089.86 238.043L1063.77 264.249Z" fill="#383A48"/>
<path d="M1002.12 306.272C985.504 289.583 985.504 262.439 1002.12 245.75L1020.8 226.984C1025.2 222.56 1032.34 222.56 1036.81 226.984L1081.12 271.487C1085.52 275.91 1085.52 283.082 1081.12 287.572L1062.43 306.339C1045.75 322.96 1018.8 322.96 1002.12 306.272Z" fill="#7FD6C2"/>
<path d="M1032.28 322.156C1020 322.156 1008.46 317.33 999.782 308.617C991.109 299.904 986.305 288.309 986.305 275.977C986.305 263.645 991.109 252.05 999.782 243.337L1018.46 224.571C1021.2 221.823 1024.94 220.281 1028.81 220.281C1032.68 220.281 1036.41 221.823 1039.15 224.571L1083.45 269.074C1086.19 271.822 1087.72 275.575 1087.72 279.462C1087.72 283.417 1086.19 287.103 1083.45 289.851L1064.77 308.617C1056.1 317.33 1044.55 322.156 1032.28 322.156ZM1028.87 226.984C1026.74 226.984 1024.74 227.788 1023.27 229.329L1004.59 248.096C989.24 263.511 989.24 288.51 1004.59 303.926C1019.93 319.341 1044.82 319.341 1060.17 303.926L1078.85 285.159C1080.38 283.618 1081.18 281.607 1081.18 279.529C1081.18 277.385 1080.38 275.374 1078.85 273.9L1034.54 229.396C1033.01 227.788 1031.01 226.984 1028.87 226.984Z" fill="#383A48"/>
<path d="M147.961 235H140.97V258H147.961V235Z" fill="#383A48"/>
<path d="M156 243.039H133V250.03H156V243.039Z" fill="#383A48"/>
<path d="M1087.96 497H1080.97V520H1087.96V497Z" fill="#383A48"/>
<path d="M1096 505.039H1073V512.03H1096V505.039Z" fill="#383A48"/>
<path d="M541.271 631.438C460.175 617.385 430.6 577.812 404.541 542.879C386.77 519.016 369.993 496.545 339.491 486.47C327.688 482.559 314.558 480.04 300.7 477.322C279.746 473.279 258.063 469.036 238.369 459.69C216.155 449.151 200.108 433.507 189.233 411.831C188.57 410.439 186.979 409.71 185.52 410.108C183.995 410.439 183 411.765 183 413.356V519.48C183 520.408 183.398 521.27 184.061 521.933C184.724 522.529 185.652 522.861 186.581 522.795C187.178 522.728 187.841 522.728 188.437 522.662C194.339 522.463 199.909 523.656 205.015 526.374C205.147 526.44 205.346 526.507 205.545 526.573C210.85 528.296 215.492 531.279 219.338 535.455L219.404 535.521C227.229 543.343 231.671 554.148 232.268 566.742C232.467 571.183 232.6 575.691 232.732 580.066C232.799 582.386 232.865 584.64 232.931 586.96C232.998 588.418 233.992 589.677 235.385 590.075C235.915 590.208 236.446 590.34 236.976 590.539C237.109 590.605 237.241 590.605 237.44 590.672C248.846 592.594 261.179 594.715 276.298 597.499C283.194 598.759 290.157 600.018 297.053 601.277C312.569 604.128 328.616 607.044 344.398 609.762C356.4 611.817 366.346 614.203 375.829 617.319L378.282 618.114C385.709 620.567 393.401 623.086 401.225 624.743C401.424 624.809 401.623 624.809 401.822 624.809C409.182 625.074 416.145 627.063 422.577 630.708C424.633 632.034 429.606 632.697 450.427 634.619C459.976 635.481 473.039 636.674 475.36 637.536C475.89 637.867 476.487 638 477.084 638H540.675C542.399 638 543.857 636.674 543.99 634.951C544.123 633.227 542.929 631.769 541.271 631.438Z" fill="#383A48"/>
<path d="M480.648 632.353C452.695 632.353 429.3 625.101 409.19 610.262C391.359 597.101 378.354 579.845 365.752 563.193C348.86 540.834 332.905 519.683 307.835 512.499C305.824 511.894 303.679 511.29 301.534 510.686C240.063 493.026 125.703 460.26 125.703 352.357C125.703 350.477 124.229 349 122.352 349C120.475 349 119 350.477 119 352.357V635.643C119 637.523 120.475 639 122.352 639H480.648C482.525 639 484 637.523 484 635.643C484 633.763 482.525 632.353 480.648 632.353Z" fill="#F3F6E6"/>
<path d="M1140.48 639H482.518C480.548 639 479 637.46 479 635.5C479 633.54 480.548 632 482.518 632H1140.48C1142.45 632 1144 633.54 1144 635.5C1144 637.46 1142.45 639 1140.48 639Z" fill="#383A48"/>
<path d="M712.39 328C711.383 328 710.377 327.528 709.706 326.719C708.566 325.235 708.834 323.144 710.31 321.997C762.97 281.189 781.753 257.784 787.187 244.564C783.967 244.564 781.015 243.889 778.399 242.608C773.166 240.044 770.349 235.458 770.752 230.399C771.154 225.677 774.307 221.63 778.6 220.349C780.881 219.674 786.717 218.865 792.419 226.082C794.7 228.982 795.84 232.355 795.84 236.2C804.226 233.367 814.691 226.689 826.564 216.572C842.731 202.812 855.946 187.298 856.081 187.163C857.288 185.747 859.435 185.612 860.843 186.826C862.252 188.04 862.386 190.198 861.179 191.615C860.642 192.289 847.427 207.668 830.858 221.765C816.703 233.839 804.628 241.124 794.633 243.687C788.998 262.506 762.702 290.025 714.402 327.461C713.798 327.798 713.128 328 712.39 328ZM781.552 226.554C781.216 226.554 780.881 226.622 780.546 226.689C778.936 227.161 777.594 228.915 777.46 230.804C777.259 233.097 778.667 235.053 781.418 236.402C783.564 237.481 786.113 237.886 789.065 237.616C789.333 234.581 788.73 232.153 787.12 230.129C785.308 227.836 783.296 226.554 781.552 226.554Z" fill="#4053FA"/>
</g>
<defs>
<clipPath id="clip0">
<rect width="1280" height="720" fill="white"/>
</clipPath>
</defs>
</svg>
