<svg width="238" height="135" viewBox="0 0 238 135" fill="none" xmlns="http://www.w3.org/2000/svg">
<g clip-path="url(#clip0)">
<path opacity="0.1" d="M235.477 124.514C234.554 126.855 233.416 129.101 232.081 131.222C231.455 132.234 230.768 133.204 230.024 134.128C230.017 134.137 230.01 134.146 230.001 134.153H0L0.0310434 134.128C0.238 133.962 1.45284 132.952 3.34235 131.222C4.69791 129.983 6.3991 128.372 8.3093 126.433C23.9325 110.652 53.9432 73.2957 28.9491 39.0751C5.71407 7.26259 30.731 1.48971 47.2337 0.815924C53.5741 0.56082 59.8995 1.62282 65.8308 3.9383C73.4551 6.91401 87.3895 11.4753 105.544 13.5668C106.14 13.6349 106.74 13.7029 107.348 13.7645C116.96 14.7696 126.636 14.9502 136.277 14.3044C136.56 14.2874 136.846 14.2661 137.134 14.2449C146.671 13.5571 156.135 12.0534 165.429 9.74943C166.031 9.59852 166.625 9.45611 167.217 9.3137C198.184 1.9552 226.731 27.0341 219.593 55.3756C216.955 65.8586 217.625 77.0324 226.423 86.0722C240.827 100.827 239.082 115.36 235.477 124.514Z" fill="#C51308"/>
<path d="M235.477 124.514C234.553 126.855 233.416 129.101 232.081 131.222C231.454 132.233 230.767 133.204 230.024 134.128H0.0307617C0.237718 133.962 1.45255 132.952 3.34207 131.222C4.69763 129.983 6.39881 128.372 8.30902 126.433L32.5498 121.29C32.8631 121.223 33.182 121.19 33.5018 121.19L59.3445 121.151H59.3714L72.1717 121.134H72.2006L83.0038 121.122H90.0755H97.319L127.001 121.079H127.048H129.348H133.387H138.431H139.772L144.869 121.02H146.554L161.38 120.998H166.115H168.392L185.518 120.975H190.617L206.838 120.952L220.531 120.935C220.912 120.935 221.292 120.981 221.663 121.073L235.477 124.514Z" fill="#454B69"/>
<path opacity="0.4" d="M3.34207 131.222H232.081C231.454 132.233 230.767 133.204 230.024 134.127H0.0307617C0.233579 133.951 1.44841 132.941 3.34207 131.222Z" fill="#212121"/>
<path d="M151.745 65.1183L151.286 65.2097L130.516 69.3077C124.483 70.498 118.363 71.6946 112.235 71.2376C107.796 70.9061 103.648 69.5542 99.3831 68.3682C96.972 67.6965 94.4161 67.4287 93.5987 64.6571C92.4707 60.8311 94.3064 55.1667 94.739 51.2897C95.1529 47.4851 95.3971 43.5848 94.6603 39.8247C94.4967 38.9798 94.281 38.1463 94.0146 37.3294C93.2758 35.0785 92.1148 32.7383 92.7419 30.4534C93.2365 28.6403 94.7452 27.3459 96.1566 26.1471C98.9216 23.809 101.744 21.1883 102.841 17.6833C103.379 15.9829 103.481 14.1529 104.06 12.4652C105.159 9.25569 107.92 6.85599 110.991 5.58494C114.063 4.31388 117.44 4.04395 120.753 4.04395C123.679 4.04411 126.602 4.24364 129.501 4.64121C132.664 5.06631 135.855 5.76561 138.634 7.37674C141.414 8.98788 143.757 11.6278 144.404 14.8458C145.321 19.3965 142.776 24.2426 144.142 28.6616C144.829 30.8955 146.418 32.7 147.521 34.7448C148.421 36.4552 148.976 38.334 149.154 40.2694C149.331 42.2047 149.128 44.157 148.556 46.01C147.236 50.2121 144.003 54.4631 145.659 58.5377C146.712 61.1287 149.402 62.5124 151.277 64.5657C151.444 64.7499 151.6 64.9341 151.745 65.1183Z" fill="#454B69"/>
<path opacity="0.1" d="M151.285 64.5833V65.2103L130.515 69.3083C124.482 70.4985 118.363 71.6952 112.235 71.2382C107.796 70.9066 103.648 69.5548 99.3828 68.3688C96.9718 67.6971 94.4159 67.4293 93.5984 64.6576C92.4705 60.8317 94.3062 55.1673 94.7387 51.2903C95.1526 47.4857 101.525 33.5955 100.788 29.8354L138.868 31.5359C139.125 33.6125 149.189 44.036 148.562 46.0276C147.241 50.2297 144.009 54.4807 145.664 58.5553C146.72 61.1463 149.41 62.53 151.285 64.5833Z" fill="#212121"/>
<path d="M112.377 54.0658C112.603 55.3815 112.723 56.829 112.069 57.9768C111.198 59.5156 109.298 60.0066 107.599 60.3552L101.7 61.5668C101.299 61.6496 100.872 61.7432 100.572 62.0259C100.219 62.3511 100.098 62.8654 100.047 63.3501C99.8087 65.5436 100.564 67.7052 101.253 69.7946C102.646 74.0265 103.815 78.3476 105.577 82.4307C107.338 86.5138 109.755 90.412 113.205 93.1412C116.655 95.8703 121.22 97.3242 125.444 96.2572C129.124 95.3283 132.142 92.6608 134.743 89.8318C136.889 87.4937 138.897 84.9431 139.938 81.91C140.656 79.827 140.89 77.608 141.115 75.4102C141.464 72.0406 141.813 68.6709 142.162 65.3013C142.326 63.7199 142.433 61.9408 141.434 60.7272C140.995 60.1937 140.399 59.8387 139.791 59.5093C137.527 58.2743 135.142 57.2541 133.036 55.7662C130.929 54.2784 129.06 52.2294 128.42 49.6873C128.038 48.1612 128.106 46.499 127.454 45.0771C126.725 43.4829 125.177 42.4032 123.522 41.9292C121.866 41.4552 120.119 41.519 118.414 41.7166C116.709 41.9143 110.136 42.4202 109.43 44.3948C109.051 45.4575 110.622 47.7382 110.995 48.7839C111.608 50.4987 112.071 52.2664 112.377 54.0658Z" fill="#EFE6B7"/>
<path opacity="0.1" d="M112.377 54.0658C112.603 55.3815 112.723 56.829 112.069 57.9768C111.198 59.5156 109.298 60.0066 107.599 60.3552L101.7 61.5668C101.299 61.6496 100.872 61.7432 100.572 62.0259C100.219 62.3511 100.098 62.8654 100.047 63.3501C99.8087 65.5436 100.564 67.7052 101.253 69.7946C102.646 74.0265 103.815 78.3476 105.577 82.4307C107.338 86.5138 109.755 90.412 113.205 93.1412C116.655 95.8703 121.22 97.3242 125.444 96.2572C129.124 95.3283 132.142 92.6608 134.743 89.8318C136.889 87.4937 138.897 84.9431 139.938 81.91C140.656 79.827 140.89 77.608 141.115 75.4102C141.464 72.0406 141.813 68.6709 142.162 65.3013C142.326 63.7199 142.433 61.9408 141.434 60.7272C140.995 60.1937 140.399 59.8387 139.791 59.5093C137.527 58.2743 135.142 57.2541 133.036 55.7662C130.929 54.2784 129.06 52.2294 128.42 49.6873C128.038 48.1612 128.106 46.499 127.454 45.0771C126.725 43.4829 125.177 42.4032 123.522 41.9292C121.866 41.4552 120.119 41.519 118.414 41.7166C116.709 41.9143 110.136 42.4202 109.43 44.3948C109.051 45.4575 110.622 47.7382 110.995 48.7839C111.608 50.4987 112.071 52.2664 112.377 54.0658Z" fill="#212121"/>
<path d="M126.573 77.1789L130.031 69.6589C131.651 66.1348 133.307 62.4322 133.135 58.5403C133.102 57.7667 133.094 56.7996 133.756 56.4488C134.044 56.3283 134.357 56.2872 134.665 56.3298C138.305 56.521 141.898 57.2674 145.325 58.5446C145.989 58.7912 146.67 59.076 147.136 59.6201C147.601 60.1642 147.79 60.8954 147.949 61.5968C148.492 63.9684 148.888 66.3729 149.135 68.7959C149.756 74.7941 149.447 80.8454 149.135 86.8627L148.216 105.234C148.221 105.494 148.169 105.753 148.065 105.99C147.837 106.415 147.324 106.558 146.863 106.638C145.085 106.951 143.268 106.887 141.467 106.817C128.801 106.324 116.07 105.567 103.487 107.144C103.543 105.233 103.513 103.32 103.398 101.405C102.899 93.1394 100.813 85.0752 98.7638 77.0663C97.5697 72.3902 96.4128 67.2889 98.3354 62.8828C98.6181 62.1869 99.0245 61.5512 99.5337 61.0081C100.351 60.1855 101.467 59.7519 102.572 59.4416C104.478 58.909 106.453 58.6796 108.427 58.7614L121.475 87.9382C122.071 89.2731 122.562 90.678 123.156 91.9958C123.69 89.7194 123.048 87.0519 123.69 84.5842C124.381 82.023 125.469 79.5722 126.573 77.1789Z" fill="white"/>
<path d="M125.209 97.2541C127.543 97.4051 129.812 96.1765 131.418 94.44C133.024 92.7034 134.083 90.5014 134.979 88.276C136.268 85.1038 137.292 81.8252 138.04 78.4753C138.661 75.6271 139.102 72.679 138.674 69.7926C138.082 65.8073 135.886 62.1854 135.511 58.1724C135.447 57.471 135.488 56.6506 136.037 56.2276C136.376 55.9662 136.823 55.93 137.246 55.9045C141.149 55.6665 145.437 55.7111 148.46 58.2553C149.381 59.029 150.129 59.9961 151.029 60.7932C153.173 62.7061 156.203 63.6796 157.579 66.2196C158.059 67.1038 158.289 68.1049 158.624 69.0572C159.415 71.3102 160.783 73.2912 162.142 75.2403C160.824 80.9536 159.309 86.6712 157.991 92.3846C157.219 95.7365 156.441 99.1012 155.228 102.311C154.433 104.415 153.434 106.562 153.678 108.815C153.775 109.701 154.063 110.549 154.313 111.404C155.191 114.403 155.602 117.525 155.532 120.656L96.4792 120.805C99.3083 116.639 100.138 111.529 99.8505 106.46C99.7119 104.03 99.1779 101.586 97.9879 99.4838C96.1129 96.1893 92.814 94.0425 89.5627 92.2039C87.2862 90.9286 84.8421 98.1043 82.3813 97.2818C82.7787 94.3953 82.9608 83.2534 82.7953 80.3479C82.7415 79.3956 82.6587 78.4179 82.9443 77.5082C83.1388 76.8854 83.4968 76.3285 83.739 75.7228C84.7096 73.2976 83.7845 70.1964 85.3532 68.1326C86.4377 66.6978 88.3396 66.2897 89.8856 65.4055C91.4729 64.4958 92.7002 63.0675 94.0827 61.8474C96.7953 59.4818 100.11 57.9618 103.636 57.4668C104.664 59.133 105.29 61.0279 105.459 62.9931C105.565 64.228 105.488 65.4799 105.656 66.7085C105.885 68.3727 106.556 69.935 107.22 71.4739C109.987 77.8908 112.765 84.3268 116.27 90.3526C117.262 92.053 118.34 93.7534 119.776 95.0776C121.213 96.4018 123.28 97.3477 125.209 97.2541Z" fill="#D34238"/>
<path opacity="0.1" d="M125.209 97.2541C127.543 97.4051 129.812 96.1765 131.418 94.44C133.024 92.7034 134.083 90.5014 134.979 88.276C136.268 85.1038 137.292 81.8252 138.04 78.4753C138.661 75.6271 139.102 72.679 138.674 69.7926C138.082 65.8073 135.886 62.1854 135.511 58.1724C135.447 57.471 135.488 56.6506 136.037 56.2276C136.376 55.9662 136.823 55.93 137.246 55.9045C141.149 55.6665 145.437 55.7111 148.46 58.2553C149.381 59.029 150.129 59.9961 151.029 60.7932C153.173 62.7061 156.203 63.6796 157.579 66.2196C158.059 67.1038 158.289 68.1049 158.624 69.0572C159.415 71.3102 160.783 73.2912 162.142 75.2403C160.824 80.9536 159.309 86.6712 157.991 92.3846C157.219 95.7365 156.441 99.1012 155.228 102.311C154.433 104.415 153.434 106.562 153.678 108.815C153.775 109.701 154.063 110.549 154.313 111.404C155.191 114.403 155.602 117.525 155.532 120.656L96.4792 120.805C99.3083 116.639 100.138 111.529 99.8505 106.46C99.7119 104.03 99.1779 101.586 97.9879 99.4838C96.1129 96.1893 92.814 94.0425 89.5627 92.2039C87.2862 90.9286 84.8421 98.1043 82.3813 97.2818C82.7787 94.3953 82.9608 83.2534 82.7953 80.3479C82.7415 79.3956 82.6587 78.4179 82.9443 77.5082C83.1388 76.8854 83.4968 76.3285 83.739 75.7228C84.7096 73.2976 83.7845 70.1964 85.3532 68.1326C86.4377 66.6978 88.3396 66.2897 89.8856 65.4055C91.4729 64.4958 92.7002 63.0675 94.0827 61.8474C96.7953 59.4818 100.11 57.9618 103.636 57.4668C104.664 59.133 105.29 61.0279 105.459 62.9931C105.565 64.228 105.488 65.4799 105.656 66.7085C105.885 68.3727 106.556 69.935 107.22 71.4739C109.987 77.8908 112.765 84.3268 116.27 90.3526C117.262 92.053 118.34 93.7534 119.776 95.0776C121.213 96.4018 123.28 97.3477 125.209 97.2541Z" fill="#212121"/>
<path d="M122.086 53.5833C131.884 53.5833 139.826 45.426 139.826 35.3634C139.826 25.3009 131.884 17.1436 122.086 17.1436C112.288 17.1436 104.346 25.3009 104.346 35.3634C104.346 45.426 112.288 53.5833 122.086 53.5833Z" fill="#EFE6B7"/>
<path d="M112.777 59.6431C113.263 54.9288 111.355 50.3164 109.195 46.127C108.16 44.1248 107.051 42.129 106.531 39.9291C106.012 37.7291 106.161 35.2381 107.489 33.4292C108.619 31.8904 110.411 31.0593 112.069 30.156C116.748 27.6054 121.026 23.856 123.083 18.8419C121.92 19.4923 122.223 21.4329 123.249 22.2895C124.276 23.146 125.675 23.3118 126.937 23.7199C131.54 25.2078 134.3 29.9222 136.515 34.3262C136.877 35.0446 137.245 35.8034 137.241 36.6133C137.237 37.4231 136.877 38.1415 136.5 38.8302C135.408 40.8281 134.071 42.7475 133.574 44.9814C133.005 47.532 133.605 50.2144 134.385 52.7161C135.213 55.3772 136.312 58.0596 138.299 59.9683C140.286 61.877 143.367 62.825 145.811 61.5922C143.371 57.2838 140.844 52.4696 141.796 47.5851C142.256 45.2471 143.491 43.1216 144.017 40.7963C145.019 36.3603 143.351 31.7969 141.714 27.5628L136.821 14.9267C136.074 12.9946 135.224 10.9329 133.51 9.83823C132.351 9.10068 130.948 8.90938 129.59 8.77548C125.219 8.37588 120.691 8.50766 116.622 10.1783C109.209 13.2199 104.561 20.7187 100.873 27.9922C99.7677 30.1708 98.677 32.4855 98.7226 34.9426C98.7474 36.2902 99.1137 37.6016 99.4117 38.9152C100.625 44.263 100.691 49.8042 100.753 55.2943C100.8 59.5071 100.587 63.4776 98.7929 67.3141C101.252 67.8157 104.817 69.1697 107.251 68.1792C110.424 66.8911 112.378 62.9228 112.777 59.6431Z" fill="#454B69"/>
<g opacity="0.1">
<path opacity="0.1" d="M100.742 55.2052C100.75 54.6058 100.75 54.0008 100.742 53.3901C100.68 47.8999 100.614 42.3587 99.401 37.0109C99.1301 35.9702 98.9186 34.9142 98.7677 33.8481C98.7252 34.2142 98.7065 34.5827 98.7118 34.9513C98.7367 36.2989 99.103 37.6103 99.401 38.9239C100.608 44.2398 100.682 49.7469 100.742 55.2052Z" fill="#212121"/>
<path opacity="0.1" d="M144.017 40.796C144.288 39.554 144.379 38.2776 144.286 37.0083C144.245 37.6396 144.155 38.2665 144.017 38.883C143.491 41.2211 142.255 43.3274 141.796 45.6719C141.598 46.7059 141.542 47.7634 141.63 48.8134C141.663 48.401 141.719 47.9909 141.796 47.5848C142.255 45.2404 143.491 43.1255 144.017 40.796Z" fill="#212121"/>
<path opacity="0.1" d="M137.079 35.6374C137.181 35.3355 137.235 35.0193 137.241 34.7001C137.241 33.8903 136.877 33.1315 136.514 32.4131C134.3 28.009 131.548 23.2989 126.937 21.8068C125.674 21.3987 124.277 21.2329 123.249 20.3763C122.984 20.1422 122.767 19.8562 122.612 19.535C122.456 19.2138 122.364 18.8639 122.342 18.5059C120.099 22.7356 116.245 25.9706 112.069 28.2428C110.413 29.1462 108.619 29.9772 107.489 31.5161C106.427 32.9614 106.119 34.8425 106.303 36.6619C106.407 35.4942 106.817 34.3772 107.489 33.429C108.619 31.8902 110.411 31.0591 112.069 30.1558C116.245 27.8836 120.099 24.6486 122.342 20.4188C122.364 20.7769 122.456 21.1267 122.612 21.4479C122.767 21.7691 122.984 22.0551 123.249 22.2893C124.283 23.1395 125.674 23.3116 126.937 23.7197C131.539 25.2076 134.3 29.922 136.514 34.326C136.739 34.7458 136.928 35.1845 137.079 35.6374Z" fill="#212121"/>
<path opacity="0.1" d="M138.299 58.0552C136.312 56.1422 135.217 53.4641 134.385 50.803C133.886 49.3081 133.553 47.7601 133.392 46.1885C133.199 48.3714 133.727 50.6053 134.385 52.7159C135.213 55.377 136.312 58.0594 138.299 59.9681C140.285 61.8768 143.367 62.8248 145.811 61.592C145.517 61.0755 145.225 60.5505 144.936 60.0213C142.665 60.6781 140.058 59.7428 138.299 58.0552Z" fill="#212121"/>
<path opacity="0.1" d="M112.777 57.7297C112.377 61.0094 110.423 64.9777 107.242 66.2743C105.034 67.1734 101.891 66.1404 99.492 65.5686C99.2855 66.1652 99.0493 66.7505 98.7842 67.3221C101.243 67.8238 104.809 69.1777 107.242 68.1872C110.423 66.8907 112.377 62.9223 112.777 59.6427C112.859 58.8222 112.874 57.996 112.822 57.1729C112.81 57.3578 112.791 57.5448 112.777 57.7297Z" fill="#212121"/>
</g>
<path d="M137.854 110.43C134.657 109.91 131.411 108.904 128.241 109.58C126.403 109.971 124.723 110.911 123.195 112.046C124.036 112.736 125.017 113.353 125.55 114.314C125.882 114.978 126.131 115.683 126.291 116.411C126.627 117.687 126.964 118.988 127.016 120.314C127.067 121.64 126.809 123.022 126.039 124.091C130.07 124.499 133.978 123.479 137.91 122.482C138.36 122.401 138.788 122.223 139.166 121.961C139.787 121.46 139.969 120.567 139.973 119.753C139.973 118.299 139.576 116.881 139.172 115.487C138.692 113.814 138.336 112.092 137.854 110.43Z" fill="white"/>
<path d="M159.443 74.5794C161.031 74.7919 162.262 76.1076 163.169 77.4594C165.712 81.2216 166.809 85.7829 168.03 90.1891C169.548 95.6686 171.332 101.062 173.384 106.368C173.826 107.594 174.363 108.781 174.99 109.918C175.501 110.796 176.122 111.64 176.348 112.637C176.894 115.047 174.959 117.313 172.941 118.656C171.866 119.401 170.691 119.982 169.454 120.382C168.249 120.752 166.993 120.892 165.745 121.032L154.257 122.308C148.969 122.898 143.634 123.489 138.344 122.92C138.011 121.729 138.665 120.888 138.617 119.649C138.584 118.762 138.203 117.938 137.864 117.121C137.238 115.668 136.825 114.127 136.637 112.549C136.577 111.969 136.556 111.374 136.341 110.834C136.126 110.294 135.664 109.81 135.099 109.771C138.203 109.455 140.561 108.853 143.665 108.534C144.818 108.415 146.016 108.281 146.999 107.652C148.218 106.872 148.901 105.465 149.443 104.101C150.786 100.721 151.652 96.9971 150.946 93.4177C150.366 90.4824 148.75 87.749 148.758 84.7542C148.758 82.9709 149.35 81.2428 150.05 79.6104C150.791 77.8845 151.757 76.1203 153.384 75.2446C155.01 74.3689 157.608 74.3243 159.443 74.5794Z" fill="#D34238"/>
<path opacity="0.08" d="M159.443 74.5794C161.031 74.7919 162.262 76.1076 163.169 77.4594C165.712 81.2216 166.809 85.7829 168.03 90.1891C169.548 95.6686 171.332 101.062 173.384 106.368C173.826 107.594 174.363 108.781 174.99 109.918C175.501 110.796 176.122 111.64 176.348 112.637C176.894 115.047 174.959 117.313 172.941 118.656C171.866 119.401 170.691 119.982 169.454 120.382C168.249 120.752 166.993 120.892 165.745 121.032L154.257 122.308C148.969 122.898 143.634 123.489 138.344 122.92C138.011 121.729 138.665 120.888 138.617 119.649C138.584 118.762 138.203 117.938 137.864 117.121C137.238 115.668 136.825 114.127 136.637 112.549C136.577 111.969 136.556 111.374 136.341 110.834C136.126 110.294 135.664 109.81 135.099 109.771C138.203 109.455 140.561 108.853 143.665 108.534C144.818 108.415 146.016 108.281 146.999 107.652C148.218 106.872 148.901 105.465 149.443 104.101C150.786 100.721 151.652 96.9971 150.946 93.4177C150.366 90.4824 148.75 87.749 148.758 84.7542C148.758 82.9709 149.35 81.2428 150.05 79.6104C150.791 77.8845 151.757 76.1203 153.384 75.2446C155.01 74.3689 157.608 74.3243 159.443 74.5794Z" fill="#212121"/>
<path d="M87.5034 71.818C88.2547 69.9859 89.0183 68.0942 89.039 66.1068C89.0618 63.9579 88.2112 61.9174 87.5614 59.8769C86.7578 57.3804 86.2227 54.8009 85.9657 52.1847C85.9124 51.9341 85.9492 51.6721 86.0692 51.4472C86.241 51.1985 86.5721 51.1475 86.8639 51.0816C88.2961 50.7458 89.3784 49.5576 90.2725 48.3609C91.6595 46.5128 92.8306 44.5039 93.7618 42.3755C94.4468 40.809 95.374 38.8982 97.0462 38.8833C96.373 42.1309 95.5385 45.3411 94.5461 48.5012C96.2949 48.0421 97.9568 47.3747 99.7056 46.9156C100.048 46.8046 100.406 46.7556 100.765 46.7711C101.812 46.8837 102.454 48.3397 101.845 49.2218C102.7 50.2505 104.122 50.5268 105.24 51.2325C106.357 51.9382 107.16 53.6853 106.167 54.5717C105.972 54.7438 105.726 54.865 105.585 55.086C105.105 55.847 106.281 56.7206 106.183 57.6218C106.105 58.3593 105.184 58.7037 104.486 58.5081C103.789 58.3126 103.245 57.7769 102.624 57.3837C102.003 56.9905 101.192 56.7461 100.589 57.1542C100.428 59.1543 100.254 61.1926 99.4117 63.0142C99.1033 63.6795 98.708 64.3022 98.4597 64.993C98.2222 65.7463 98.0748 66.5264 98.0209 67.3162L97.2697 74.3708C93.6852 75.1083 90.4712 74.0052 87.5034 71.818Z" fill="#EFE6B7"/>
<path d="M86.628 78.1414L85.9679 73.5524C85.9047 73.1788 85.8695 72.8008 85.8623 72.4216C85.8623 71.3589 86.3176 70.345 86.7584 69.3779C90.4112 71.1293 94.36 71.7521 98.3894 71.7542C98.9213 71.7542 99.5277 71.7032 99.8588 71.276C100.544 72.0858 100.565 73.3888 100.273 74.4175C99.9809 75.4462 99.42 76.373 99.0475 77.3762C98.8592 77.8842 98.706 78.439 98.3459 78.83C97.7872 79.4486 96.8807 79.5548 96.057 79.5506C95.1905 79.545 94.3261 79.4603 93.4742 79.2977C91.268 78.8768 88.8342 77.7354 86.628 78.1414Z" fill="white"/>
<path d="M100.252 77.9545C97.4166 77.6229 94.5999 77.1553 91.8018 76.5517C90.4297 76.2562 89.0452 75.9268 87.6461 75.9841C86.7355 76.0224 85.7566 76.2095 84.9557 75.7461C85.7359 78.4731 85.7835 81.3468 84.8502 84.0228C84.2976 85.617 83.4553 87.1027 83.0496 88.7436C82.2053 92.1763 83.3642 95.9193 82.3087 99.2903C82.1971 99.7309 81.9777 100.135 81.6713 100.464C81.3485 100.768 80.9076 100.925 80.6096 101.254C80.1709 101.739 80.144 102.468 80.1419 103.129L80.1233 108.985C80.1109 112.713 80.1585 116.666 82.0749 119.825C84.2603 123.438 88.861 125.311 92.8656 124.212C93.9304 123.932 94.9278 123.431 95.7961 122.739C97.1868 121.604 98.0726 119.963 98.9398 118.365C99.9745 116.452 101.009 114.496 101.343 112.343C101.578 110.819 101.446 109.263 101.276 107.731C100.341 99.2287 98.3106 90.7989 98.7473 82.265C98.8127 80.7049 99.3373 79.2019 100.252 77.9545Z" fill="#D34238"/>
<path d="M112.102 113.238C110.664 113.323 109.215 113.408 107.783 113.238C106.748 113.111 105.738 112.849 104.712 112.671C101.908 112.206 99.0403 112.369 96.3043 113.15C93.5682 113.931 91.0291 115.31 88.861 117.194C88.0663 117.891 87.2633 118.96 87.7021 119.936C88.1739 120.986 89.6164 120.956 90.7278 120.76C89.5282 121.349 88.4686 122.2 87.6234 123.254C87.313 123.643 87.0191 124.104 87.0791 124.608C87.2054 125.66 88.5961 125.851 89.6247 125.76C89.2894 126.129 89.515 126.784 89.9413 127.035C90.3677 127.286 90.8975 127.235 91.3797 127.143C92.4458 126.943 93.4758 126.577 94.4344 126.057C94.2398 126.578 94.5772 127.188 95.0552 127.447C95.5333 127.707 96.1149 127.687 96.6509 127.598C99.1799 127.173 101.291 125.366 103.758 124.656C107.702 123.524 111.829 125.33 115.929 125.458C117.212 125.498 118.528 125.364 119.698 124.82C121.132 124.151 122.289 122.894 123.804 122.448C125.486 121.955 127.417 122.522 128.957 121.67C130.076 121.052 129.066 116.284 128.781 115.366C128.257 113.687 127.732 112.573 125.987 112.403C121.573 111.959 116.55 112.975 112.102 113.238Z" fill="#EFE6B7"/>
<path d="M123.114 111.937C123.114 111.937 129.797 117.746 125.941 124.085L133.392 121.443V115.897C133.392 115.634 130.563 111.674 130.563 111.674L127.22 111.145L123.114 111.937Z" fill="white"/>
<path d="M53.1441 111.578H55.6504C57.0226 111.578 58.3386 112.138 59.3089 113.134C60.2792 114.131 60.8243 115.483 60.8243 116.892V124.78H47.9702V116.892C47.9702 116.194 48.104 115.503 48.3641 114.858C48.6241 114.214 49.0052 113.628 49.4856 113.134C49.9661 112.641 50.5364 112.25 51.1642 111.983C51.7919 111.716 52.4647 111.578 53.1441 111.578Z" fill="#3F3D56"/>
<path opacity="0.1" d="M53.1441 111.578H55.6504C57.0226 111.578 58.3386 112.138 59.3089 113.134C60.2792 114.131 60.8243 115.483 60.8243 116.892V124.78H47.9702V116.892C47.9702 116.194 48.104 115.503 48.3641 114.858C48.6241 114.214 49.0052 113.628 49.4856 113.134C49.9661 112.641 50.5364 112.25 51.1642 111.983C51.7919 111.716 52.4647 111.578 53.1441 111.578Z" fill="#212121"/>
<path d="M53.8835 114.481C54.4516 114.481 54.9121 114.008 54.9121 113.425C54.9121 112.842 54.4516 112.369 53.8835 112.369C53.3155 112.369 52.855 112.842 52.855 113.425C52.855 114.008 53.3155 114.481 53.8835 114.481Z" fill="#3F3D56"/>
<path d="M53.8835 113.162C54.4516 113.162 54.9121 112.689 54.9121 112.105C54.9121 111.522 54.4516 111.049 53.8835 111.049C53.3155 111.049 52.855 111.522 52.855 112.105C52.855 112.689 53.3155 113.162 53.8835 113.162Z" fill="#3F3D56"/>
<path d="M53.8835 111.842C54.4516 111.842 54.9121 111.369 54.9121 110.785C54.9121 110.202 54.4516 109.729 53.8835 109.729C53.3155 109.729 52.855 110.202 52.855 110.785C52.855 111.369 53.3155 111.842 53.8835 111.842Z" fill="#3F3D56"/>
<path d="M53.8835 110.521C54.4516 110.521 54.9121 110.048 54.9121 109.465C54.9121 108.882 54.4516 108.409 53.8835 108.409C53.3155 108.409 52.855 108.882 52.855 109.465C52.855 110.048 53.3155 110.521 53.8835 110.521Z" fill="#3F3D56"/>
<path d="M53.8835 109.202C54.4516 109.202 54.9121 108.729 54.9121 108.145C54.9121 107.562 54.4516 107.089 53.8835 107.089C53.3155 107.089 52.855 107.562 52.855 108.145C52.855 108.729 53.3155 109.202 53.8835 109.202Z" fill="#3F3D56"/>
<path d="M53.8835 107.882C54.4516 107.882 54.9121 107.409 54.9121 106.825C54.9121 106.242 54.4516 105.769 53.8835 105.769C53.3155 105.769 52.855 106.242 52.855 106.825C52.855 107.409 53.3155 107.882 53.8835 107.882Z" fill="#3F3D56"/>
<path d="M53.8835 106.56C54.4516 106.56 54.9121 106.087 54.9121 105.504C54.9121 104.92 54.4516 104.447 53.8835 104.447C53.3155 104.447 52.855 104.92 52.855 105.504C52.855 106.087 53.3155 106.56 53.8835 106.56Z" fill="#3F3D56"/>
<path d="M55.4275 107.089C55.9956 107.089 56.4561 106.616 56.4561 106.032C56.4561 105.449 55.9956 104.976 55.4275 104.976C54.8594 104.976 54.3989 105.449 54.3989 106.032C54.3989 106.616 54.8594 107.089 55.4275 107.089Z" fill="#3F3D56"/>
<path d="M56.4558 106.56C57.0239 106.56 57.4844 106.087 57.4844 105.504C57.4844 104.92 57.0239 104.447 56.4558 104.447C55.8878 104.447 55.4272 104.92 55.4272 105.504C55.4272 106.087 55.8878 106.56 56.4558 106.56Z" fill="#3F3D56"/>
<path d="M57.4841 106.033C58.0522 106.033 58.5127 105.56 58.5127 104.976C58.5127 104.393 58.0522 103.92 57.4841 103.92C56.9161 103.92 56.4556 104.393 56.4556 104.976C56.4556 105.56 56.9161 106.033 57.4841 106.033Z" fill="#3F3D56"/>
<path d="M53.8835 105.24C54.4516 105.24 54.9121 104.767 54.9121 104.183C54.9121 103.6 54.4516 103.127 53.8835 103.127C53.3155 103.127 52.855 103.6 52.855 104.183C52.855 104.767 53.3155 105.24 53.8835 105.24Z" fill="#3F3D56"/>
<path d="M53.8835 103.92C54.4516 103.92 54.9121 103.447 54.9121 102.864C54.9121 102.28 54.4516 101.807 53.8835 101.807C53.3155 101.807 52.855 102.28 52.855 102.864C52.855 103.447 53.3155 103.92 53.8835 103.92Z" fill="#3F3D56"/>
<path d="M53.8835 102.6C54.4516 102.6 54.9121 102.127 54.9121 101.544C54.9121 100.96 54.4516 100.487 53.8835 100.487C53.3155 100.487 52.855 100.96 52.855 101.544C52.855 102.127 53.3155 102.6 53.8835 102.6Z" fill="#3F3D56"/>
<path d="M53.8835 101.28C54.4516 101.28 54.9121 100.807 54.9121 100.224C54.9121 99.6404 54.4516 99.1675 53.8835 99.1675C53.3155 99.1675 52.855 99.6404 52.855 100.224C52.855 100.807 53.3155 101.28 53.8835 101.28Z" fill="#3F3D56"/>
<path d="M58.1546 96.8165C57.898 96.8547 57.6413 96.8824 57.3847 96.8994C57.6233 96.6856 57.8448 96.4524 58.047 96.2022C57.9045 95.7583 57.695 95.3402 57.4261 94.963C57.1712 95.1101 56.8893 95.2013 56.5983 95.2309C56.3437 95.2691 56.0871 95.2967 55.8305 95.3159C56.1678 95.0332 56.4824 94.6081 56.8135 94.2531C56.0716 93.5625 55.1211 93.1547 54.1214 93.0981C53.1216 93.0415 52.1332 93.3395 51.3219 93.9421C50.5106 94.5448 49.9255 95.4155 49.6648 96.4084C49.4041 97.4012 49.4835 98.456 49.8898 99.3959C50.2961 100.336 51.0045 101.104 51.8964 101.571C52.7884 102.038 53.8096 102.177 54.789 101.963C55.7684 101.749 56.6465 101.196 57.2762 100.396C57.9059 99.5969 58.2489 98.5994 58.2477 97.571C58.2478 97.3124 58.2256 97.0542 58.1815 96.7995L58.1546 96.8165Z" fill="#D34238"/>
<path d="M61.5841 102.064C61.3218 102.23 61.0258 102.331 60.7191 102.359C60.4645 102.398 60.2079 102.427 59.9512 102.444C60.224 102.193 60.4785 101.922 60.7128 101.632C60.0927 101.466 59.4345 101.544 58.8671 101.85C58.2996 102.155 57.8635 102.668 57.6442 103.286C57.4249 103.905 57.4381 104.585 57.6811 105.194C57.9242 105.803 58.3797 106.297 58.9586 106.579C59.5375 106.862 60.1981 106.912 60.8113 106.721C61.4245 106.53 61.9463 106.111 62.2745 105.545C62.6028 104.98 62.7139 104.309 62.5862 103.664C62.4586 103.019 62.1012 102.446 61.5841 102.058V102.064Z" fill="#D34238"/>
<path d="M52.3411 107.089C52.9091 107.089 53.3696 106.616 53.3696 106.032C53.3696 105.449 52.9091 104.976 52.3411 104.976C51.773 104.976 51.3125 105.449 51.3125 106.032C51.3125 106.616 51.773 107.089 52.3411 107.089Z" fill="#3F3D56"/>
<path d="M51.3128 106.56C51.8808 106.56 52.3413 106.087 52.3413 105.504C52.3413 104.92 51.8808 104.447 51.3128 104.447C50.7447 104.447 50.2842 104.92 50.2842 105.504C50.2842 106.087 50.7447 106.56 51.3128 106.56Z" fill="#3F3D56"/>
<path d="M50.2844 106.033C50.8525 106.033 51.313 105.56 51.313 104.976C51.313 104.393 50.8525 103.92 50.2844 103.92C49.7164 103.92 49.2559 104.393 49.2559 104.976C49.2559 105.56 49.7164 106.033 50.2844 106.033Z" fill="#3F3D56"/>
<path d="M46.1846 102.064C46.4469 102.23 46.743 102.331 47.0497 102.359C47.3042 102.398 47.5608 102.427 47.8175 102.444C47.5442 102.194 47.2896 101.922 47.0559 101.632C47.676 101.466 48.3342 101.544 48.9017 101.85C49.4692 102.155 49.9052 102.668 50.1245 103.286C50.3438 103.905 50.3307 104.585 50.0876 105.194C49.8445 105.803 49.389 106.297 48.8101 106.579C48.2313 106.862 47.5706 106.912 46.9574 106.721C46.3442 106.53 45.8224 106.111 45.4942 105.545C45.1659 104.98 45.0548 104.309 45.1825 103.664C45.3102 103.019 45.6675 102.446 46.1846 102.058V102.064Z" fill="#D34238"/>
<path d="M53.1445 112.36H55.6507C57.0229 112.36 58.3389 112.92 59.3092 113.917C60.2795 114.913 60.8246 116.265 60.8246 117.674V124.661C60.8246 124.9 60.7322 125.129 60.5676 125.298C60.403 125.467 60.1799 125.562 59.9471 125.562H48.8419C48.6091 125.562 48.3859 125.467 48.2214 125.298C48.0568 125.129 47.9644 124.9 47.9644 124.661V117.674C47.9644 116.976 48.0984 116.284 48.3588 115.639C48.6192 114.994 49.0009 114.408 49.482 113.914C49.9631 113.421 50.5342 113.03 51.1626 112.763C51.791 112.496 52.4645 112.36 53.1445 112.36Z" fill="#3F3D56"/>
<g opacity="0.1">
<path opacity="0.1" d="M58.2257 97.1055C58.1215 97.2197 58.011 97.3276 57.8945 97.4286C58.0125 97.4286 58.1284 97.4094 58.2464 97.3967C58.2422 97.2989 58.236 97.2011 58.2257 97.1055Z" fill="#212121"/>
<path opacity="0.1" d="M56.3506 95.8429C56.6093 95.8259 56.8638 95.7982 57.1205 95.76C57.3507 95.73 57.5757 95.667 57.7889 95.5729C57.6843 95.3604 57.5639 95.1565 57.4288 94.9629C57.3001 95.0434 57.1607 95.1042 57.0149 95.1436C56.812 95.3945 56.5898 95.6283 56.3506 95.8429Z" fill="#212121"/>
<path opacity="0.1" d="M50.028 98.1108C50.0264 97.305 50.2365 96.5136 50.6361 95.8201C51.0357 95.1266 51.61 94.5567 52.2986 94.1702C52.9871 93.7838 53.7644 93.5952 54.5485 93.6244C55.3326 93.6536 56.0945 93.8994 56.7541 94.3359L56.8203 94.2637C56.3899 93.8703 55.8879 93.5684 55.3433 93.3752C54.7988 93.182 54.2224 93.1014 53.6474 93.138C53.0723 93.1746 52.51 93.3277 51.9929 93.5885C51.4757 93.8493 51.0139 94.2126 50.6341 94.6576C50.2543 95.1025 49.9639 95.6202 49.7798 96.1809C49.5957 96.7415 49.5214 97.3341 49.5612 97.9244C49.6011 98.5147 49.7543 99.091 50.012 99.6202C50.2697 100.149 50.6268 100.621 51.0627 101.008C50.3934 100.199 50.0266 99.1721 50.028 98.1108Z" fill="#212121"/>
</g>
<g opacity="0.1">
<path opacity="0.1" d="M59.9512 102.972C60.2078 102.955 60.4644 102.927 60.719 102.889C61.0258 102.86 61.3219 102.758 61.5841 102.592C61.8746 102.811 62.1169 103.092 62.2952 103.414C62.4735 103.736 62.5838 104.093 62.6188 104.462C62.6289 104.37 62.6337 104.277 62.6333 104.184C62.6353 103.771 62.5426 103.363 62.3629 102.994C62.1831 102.625 61.9213 102.304 61.5985 102.058C61.3363 102.224 61.0402 102.325 60.7335 102.354L60.5265 102.381C60.3499 102.593 60.1575 102.791 59.9512 102.972Z" fill="#212121"/>
<path opacity="0.1" d="M60.0548 102.071C60.1406 102.072 60.2263 102.078 60.3114 102.09C60.4459 101.943 60.5784 101.786 60.7129 101.633C60.3324 101.528 59.9337 101.515 59.5475 101.595C59.1613 101.674 58.7981 101.843 58.486 102.09C58.1738 102.337 57.9211 102.654 57.7474 103.017C57.5737 103.38 57.4837 103.779 57.4844 104.183C57.4844 104.273 57.4844 104.36 57.4968 104.447C57.5604 103.796 57.8574 103.192 58.3301 102.753C58.8028 102.314 59.4174 102.07 60.0548 102.071Z" fill="#212121"/>
</g>
<g opacity="0.1">
<path opacity="0.1" d="M47.8174 102.972C47.5608 102.955 47.3042 102.927 47.0496 102.889C46.7428 102.86 46.4467 102.758 46.1846 102.592C45.894 102.811 45.6517 103.092 45.4734 103.414C45.2951 103.736 45.1849 104.093 45.1498 104.462C45.1397 104.37 45.1349 104.277 45.1353 104.184C45.1333 103.771 45.226 103.363 45.4057 102.994C45.5855 102.625 45.8473 102.304 46.1701 102.058C46.4324 102.224 46.7285 102.325 47.0351 102.354L47.2421 102.381C47.4176 102.594 47.61 102.792 47.8174 102.972Z" fill="#212121"/>
<path opacity="0.1" d="M47.7138 102.071C47.6273 102.072 47.5409 102.078 47.4551 102.09C47.3226 101.943 47.1902 101.786 47.0557 101.633C47.4361 101.528 47.8349 101.515 48.2211 101.595C48.6072 101.674 48.9705 101.843 49.2826 102.09C49.5947 102.337 49.8474 102.654 50.0211 103.017C50.1948 103.38 50.2848 103.779 50.2842 104.183C50.2842 104.273 50.2842 104.36 50.2718 104.447C50.2081 103.796 49.9112 103.192 49.4385 102.753C48.9658 102.314 48.3511 102.07 47.7138 102.071Z" fill="#212121"/>
</g>
<path d="M40.7392 128.117H20.5195C20.2917 128.117 20.0733 128.024 19.9122 127.858C19.7511 127.693 19.6606 127.469 19.6606 127.235V117.406C19.6606 117.257 19.6972 117.111 19.7672 116.981C19.8371 116.85 19.938 116.74 20.0605 116.66C20.183 116.581 20.3231 116.534 20.4678 116.526C20.6124 116.517 20.757 116.545 20.8879 116.609C26.6972 119.44 32.9555 120.412 40.3418 116.654C40.4727 116.588 40.6179 116.556 40.7638 116.564C40.9096 116.571 41.0512 116.616 41.1754 116.695C41.2996 116.774 41.4022 116.884 41.4736 117.014C41.545 117.145 41.5828 117.292 41.5836 117.442V127.22C41.5855 127.336 41.5652 127.451 41.5238 127.558C41.4824 127.666 41.4207 127.765 41.3423 127.848C41.2639 127.931 41.1702 127.998 41.0668 128.044C40.9633 128.09 40.852 128.115 40.7392 128.117Z" fill="#D34238"/>
<path opacity="0.1" d="M40.7392 128.117H20.5195C20.2917 128.117 20.0733 128.024 19.9122 127.858C19.7511 127.693 19.6606 127.469 19.6606 127.235V117.406C19.6606 117.257 19.6972 117.111 19.7672 116.981C19.8371 116.85 19.938 116.74 20.0605 116.66C20.183 116.581 20.3231 116.534 20.4678 116.526C20.6124 116.517 20.757 116.545 20.8879 116.609C26.6972 119.44 32.9555 120.412 40.3418 116.654C40.4727 116.588 40.6179 116.556 40.7638 116.564C40.9096 116.571 41.0512 116.616 41.1754 116.695C41.2996 116.774 41.4022 116.884 41.4736 117.014C41.545 117.145 41.5828 117.292 41.5836 117.442V127.22C41.5855 127.336 41.5652 127.451 41.5238 127.558C41.4824 127.666 41.4207 127.765 41.3423 127.848C41.2639 127.931 41.1702 127.998 41.0668 128.044C40.9633 128.09 40.852 128.115 40.7392 128.117Z" fill="#212121"/>
<path d="M30.4887 120.645C31.1493 120.645 31.6849 119.925 31.6849 119.036C31.6849 118.148 31.1493 117.427 30.4887 117.427C29.828 117.427 29.2925 118.148 29.2925 119.036C29.2925 119.925 29.828 120.645 30.4887 120.645Z" fill="#3F3D56"/>
<path d="M30.4887 118.679C31.1493 118.679 31.6849 117.959 31.6849 117.07C31.6849 116.182 31.1493 115.461 30.4887 115.461C29.828 115.461 29.2925 116.182 29.2925 117.07C29.2925 117.959 29.828 118.679 30.4887 118.679Z" fill="#3F3D56"/>
<path d="M30.4887 116.711C31.1493 116.711 31.6849 115.991 31.6849 115.102C31.6849 114.214 31.1493 113.493 30.4887 113.493C29.828 113.493 29.2925 114.214 29.2925 115.102C29.2925 115.991 29.828 116.711 30.4887 116.711Z" fill="#3F3D56"/>
<path d="M30.4887 114.745C31.1493 114.745 31.6849 114.025 31.6849 113.136C31.6849 112.247 31.1493 111.527 30.4887 111.527C29.828 111.527 29.2925 112.247 29.2925 113.136C29.2925 114.025 29.828 114.745 30.4887 114.745Z" fill="#3F3D56"/>
<path d="M30.4887 112.777C31.1493 112.777 31.6849 112.056 31.6849 111.168C31.6849 110.279 31.1493 109.559 30.4887 109.559C29.828 109.559 29.2925 110.279 29.2925 111.168C29.2925 112.056 29.828 112.777 30.4887 112.777Z" fill="#3F3D56"/>
<path d="M30.4887 110.809C31.1493 110.809 31.6849 110.088 31.6849 109.2C31.6849 108.311 31.1493 107.591 30.4887 107.591C29.828 107.591 29.2925 108.311 29.2925 109.2C29.2925 110.088 29.828 110.809 30.4887 110.809Z" fill="#3F3D56"/>
<path d="M30.4887 108.843C31.1493 108.843 31.6849 108.122 31.6849 107.234C31.6849 106.345 31.1493 105.625 30.4887 105.625C29.828 105.625 29.2925 106.345 29.2925 107.234C29.2925 108.122 29.828 108.843 30.4887 108.843Z" fill="#3F3D56"/>
<path d="M34.9758 93.7707C35.1382 93.5563 35.2869 93.3312 35.4208 93.0969L32.275 92.5656L35.6774 92.5911C36.0056 91.8607 36.1847 91.0689 36.2036 90.2647C36.2225 89.4604 36.0807 88.6608 35.7871 87.915L31.2237 90.3465L35.4332 87.1583C35.039 86.4582 34.5087 85.849 33.8753 85.3686C33.2419 84.8882 32.5189 84.5469 31.7515 84.366C30.984 84.1851 30.1885 84.1685 29.4145 84.3172C28.6405 84.4658 27.9047 84.7765 27.2527 85.23C26.6008 85.6835 26.0467 86.2701 25.6251 86.9531C25.2036 87.6361 24.9234 88.4009 24.8022 89.2C24.681 89.999 24.7213 90.8152 24.9207 91.5975C25.12 92.3799 25.4741 93.1117 25.9608 93.7473C25.7051 94.0794 25.4857 94.4393 25.3068 94.8207L29.388 97.0227L25.0419 95.5136C24.7373 96.4413 24.6623 97.4322 24.8238 98.397C24.9854 99.3618 25.3782 100.27 25.967 101.04C25.3017 101.909 24.8878 102.952 24.7726 104.051C24.6575 105.15 24.8458 106.26 25.316 107.254C25.7862 108.249 26.5194 109.087 27.4316 109.673C28.3438 110.26 29.3983 110.571 30.4745 110.571C31.5507 110.571 32.6052 110.26 33.5174 109.673C34.4297 109.087 35.1628 108.249 35.633 107.254C36.1032 106.26 36.2915 105.15 36.1764 104.051C36.0613 102.952 35.6474 101.909 34.982 101.04C35.7769 100.002 36.2091 98.7196 36.2091 97.399C36.2091 96.0783 35.7769 94.796 34.982 93.758L34.9758 93.7707Z" fill="#D34238"/>
<path opacity="0.1" d="M24.729 97.4115C24.7271 98.7325 25.1596 100.015 25.9563 101.052C25.2909 101.921 24.877 102.965 24.7619 104.064C24.6468 105.163 24.8351 106.273 25.3053 107.267C25.7755 108.261 26.5086 109.099 27.4208 109.686C28.3331 110.272 29.3876 110.583 30.4638 110.583C31.54 110.583 32.5945 110.272 33.5067 109.686C34.4189 109.099 35.152 108.261 35.6222 107.267C36.0924 106.273 36.2808 105.163 36.1656 104.064C36.0505 102.965 35.6366 101.921 34.9713 101.052C35.7391 100.051 24.729 96.7504 24.729 97.4115Z" fill="#212121"/>
<path d="M40.7392 128.637H20.5195C20.2917 128.637 20.0733 128.544 19.9122 128.379C19.7511 128.214 19.6606 127.989 19.6606 127.755V117.406C19.6606 117.257 19.6972 117.111 19.7672 116.981C19.8371 116.85 19.938 116.74 20.0605 116.66C20.183 116.581 20.3231 116.534 20.4678 116.526C20.6124 116.517 20.757 116.545 20.8879 116.609C26.6972 119.44 31.304 122.741 40.3418 116.654C40.8778 116.292 41.5835 116.786 41.5835 117.442V127.751C41.5847 127.983 41.4967 128.206 41.3386 128.372C41.1805 128.538 40.9652 128.634 40.7392 128.637Z" fill="#D34238"/>
<path d="M190.779 125.71L160.948 129.764L159.456 129.966L144.872 121.965V120.093L190.448 114.987L190.779 125.71Z" fill="#9C9CA1"/>
<path d="M153.324 122.815L185.64 118.902L185.309 125.03L160.137 126.926L153.324 122.815Z" fill="#939498"/>
<path opacity="0.4" d="M160.948 127.751V129.762L159.456 129.974L144.87 121.965V120.093L158.792 127.745C158.792 127.745 160.617 127.921 160.948 127.751Z" fill="#212121"/>
<path d="M166.674 95.8369L159.977 127.73C159.91 128.049 159.918 128.381 160.001 128.696C160.085 129.011 160.241 129.301 160.456 129.542C160.672 129.782 160.941 129.966 161.24 130.077C161.539 130.188 161.86 130.224 162.175 130.181L204.545 124.421C204.914 124.371 205.262 124.215 205.549 123.971C205.836 123.728 206.051 123.406 206.168 123.043L215.309 94.7316C215.41 94.4175 215.435 94.0828 215.382 93.7565C215.329 93.4302 215.2 93.122 215.005 92.8584C214.811 92.5949 214.557 92.3839 214.265 92.2437C213.973 92.1034 213.652 92.0381 213.331 92.0535L168.52 94.2385C168.085 94.2597 167.668 94.4277 167.334 94.7166C167 95.0055 166.768 95.3992 166.674 95.8369Z" fill="#3F3D56"/>
<path d="M189.956 107.602C190.06 106.587 189.629 105.708 188.994 105.639C188.358 105.57 187.759 106.338 187.655 107.354C187.551 108.369 187.982 109.248 188.617 109.317C189.253 109.386 189.852 108.618 189.956 107.602Z" fill="white"/>
</g>
<defs>
<clipPath id="clip0">
<rect width="238" height="133.373" fill="white" transform="translate(0 0.770996)"/>
</clipPath>
</defs>
</svg>
