<svg width="256" height="256" viewBox="0 0 256 256" fill="none" xmlns="http://www.w3.org/2000/svg">
<path d="M213.333 0H42.6667C19.1004 0 0 19.1004 0 42.6667V213.333C0 236.9 19.1004 256 42.6667 256H213.333C236.9 256 256 236.9 256 213.333V42.6667C256 19.1004 236.9 0 213.333 0Z" fill="#37C6D0"/>
<path d="M213.332 241.777H42.6651C26.9567 241.777 14.2207 229.041 14.2207 213.333V42.6661C14.2207 26.9577 26.9567 14.2217 42.6651 14.2217H213.332C229.04 14.2217 241.776 26.9577 241.776 42.6661V213.333C241.776 229.041 229.04 241.777 213.332 241.777Z" fill="#036C70"/>
<path d="M128.817 184.884H113.677C112.042 184.884 110.612 183.767 110.221 182.174L104.994 160.791C104.603 159.198 103.181 158.082 101.538 158.082H74.4024C72.7598 158.082 71.3304 159.205 70.9464 160.798L65.7767 182.167C65.3927 183.76 63.9633 184.884 62.3207 184.884H47.3376C44.9838 184.884 43.2842 182.644 43.91 180.375L75.4478 66.9884C75.8744 65.4524 77.2753 64.3857 78.8753 64.3857H98.0327C99.6398 64.3857 101.041 65.4595 101.467 67.0097L132.258 180.396C132.863 182.658 131.163 184.884 128.817 184.884ZM95.0602 137.246C97.3642 137.246 99.0638 135.084 98.5162 132.844L89.7055 96.7413C88.9802 93.7191 88.4682 90.0995 88.1695 85.904H87.6575C87.4442 89.4382 86.9109 92.9368 86.0504 96.4071L77.1189 132.844C76.5713 135.084 78.2638 137.246 80.5749 137.246H95.0602V137.246Z" fill="white"/>
<path d="M149.41 96.7393H162.508C164.471 96.7393 166.064 98.3321 166.064 100.295V144.554C166.064 157.888 169.705 164.551 176.972 164.551C180.478 164.551 183.365 162.787 185.641 159.26C187.902 155.726 189.04 151.246 189.04 145.813V100.295C189.04 98.3321 190.633 96.7393 192.596 96.7393H205.765C207.728 96.7393 209.321 98.3321 209.321 100.295V179.228C209.321 181.191 207.728 182.784 205.765 182.784H192.596C190.633 182.784 189.04 181.191 189.04 179.228V169.166H188.784C183.948 179.641 176.916 184.881 167.671 184.881C153.129 184.881 145.861 173.063 145.861 149.418V100.288C145.854 98.3322 147.447 96.7393 149.41 96.7393Z" fill="white"/>
</svg>
