<svg width="256" height="153" viewBox="0 0 256 153" fill="none" xmlns="http://www.w3.org/2000/svg">
<path d="M72.3919 55.4386C72.3919 58.575 72.731 61.1181 73.3244 62.983C74.0025 64.8479 74.8502 66.8823 76.0369 69.0863C76.4608 69.7644 76.6303 70.4426 76.6303 71.0359C76.6303 71.8836 76.1217 72.7313 75.0197 73.579L69.6793 77.1393C68.9164 77.6479 68.1535 77.9022 67.4753 77.9022C66.6277 77.9022 65.78 77.4783 64.9323 76.7154C63.7455 75.4439 62.7283 74.0876 61.8806 72.7313C61.033 71.2903 60.1853 69.6797 59.2528 67.73C52.6409 75.5287 44.3336 79.428 34.331 79.428C27.2105 79.428 21.531 77.3936 17.3773 73.3247C13.2237 69.2558 11.1045 63.8307 11.1045 57.0492C11.1045 49.8439 13.6475 43.9949 18.8184 39.5869C23.9893 35.179 30.8555 32.975 39.5866 32.975C42.4687 32.975 45.4356 33.2293 48.572 33.6532C51.7085 34.077 54.9297 34.7552 58.3204 35.5181V29.33C58.3204 22.8876 56.9641 18.3949 54.3363 15.7671C51.6237 13.1393 47.0462 11.8677 40.5191 11.8677C37.5522 11.8677 34.5005 12.2068 31.3641 12.9697C28.2277 13.7326 25.176 14.6651 22.2091 15.8518C20.8528 16.4452 19.8356 16.7843 19.2422 16.9538C18.6489 17.1234 18.225 17.2081 17.8859 17.2081C16.6992 17.2081 16.1058 16.3605 16.1058 14.5803V10.4267C16.1058 9.07039 16.2754 8.05317 16.6992 7.4598C17.123 6.86642 17.8859 6.27304 19.0727 5.67966C22.0396 4.15383 25.5999 2.88231 29.7535 1.86509C33.9071 0.763107 38.3151 0.254497 42.9773 0.254497C53.0648 0.254497 60.4396 2.54324 65.1866 7.12072C69.8489 11.6982 72.2224 18.6492 72.2224 27.9737V55.4386H72.3919ZM37.976 68.3234C40.7734 68.3234 43.6555 67.8148 46.7071 66.7975C49.7588 65.7803 52.4714 63.9154 54.7601 61.3724C56.1164 59.7618 57.1336 57.9817 57.6422 55.9472C58.1508 53.9128 58.4899 51.4545 58.4899 48.5724V45.0121C56.0316 44.4187 53.4038 43.9101 50.6912 43.5711C47.9787 43.232 45.3508 43.0624 42.723 43.0624C37.0436 43.0624 32.8899 44.1644 30.0926 46.4532C27.2952 48.7419 25.9389 51.9631 25.9389 56.2015C25.9389 60.1856 26.9561 63.1525 29.0754 65.1869C31.1098 67.3061 34.0767 68.3234 37.976 68.3234ZM106.045 77.4783C104.519 77.4783 103.502 77.224 102.824 76.6307C102.146 76.122 101.552 74.9353 101.044 73.3247L81.123 7.79887C80.6144 6.1035 80.3601 5.00152 80.3601 4.40814C80.3601 3.05185 81.0383 2.28893 82.3946 2.28893H90.7018C92.3124 2.28893 93.4144 2.54324 94.0078 3.13662C94.686 3.64523 95.1946 4.83198 95.7032 6.44258L109.944 62.5591L123.168 6.44258C123.592 4.74721 124.101 3.64523 124.779 3.13662C125.457 2.62801 126.644 2.28893 128.169 2.28893H134.951C136.561 2.28893 137.663 2.54324 138.342 3.13662C139.02 3.64523 139.613 4.83198 139.952 6.44258L153.346 63.2373L168.01 6.44258C168.519 4.74721 169.112 3.64523 169.706 3.13662C170.384 2.62801 171.486 2.28893 173.012 2.28893H180.895C182.252 2.28893 183.014 2.96708 183.014 4.40814C183.014 4.83198 182.93 5.25582 182.845 5.76443C182.76 6.27304 182.591 6.95119 182.252 7.88364L161.822 73.4095C161.314 75.1048 160.72 76.2068 160.042 76.7154C159.364 77.224 158.262 77.5631 156.821 77.5631H149.531C147.92 77.5631 146.818 77.3088 146.14 76.7154C145.462 76.122 144.869 75.0201 144.53 73.3247L131.391 18.6492L118.336 73.2399C117.912 74.9353 117.404 76.0373 116.726 76.6307C116.048 77.224 114.861 77.4783 113.335 77.4783H106.045ZM214.972 79.7671C210.564 79.7671 206.156 79.2585 201.918 78.2412C197.679 77.224 194.373 76.122 192.169 74.8505C190.813 74.0876 189.881 73.2399 189.542 72.477C189.203 71.7141 189.033 70.8664 189.033 70.1035V65.7803C189.033 64.0002 189.711 63.1525 190.983 63.1525C191.491 63.1525 192 63.2373 192.508 63.4068C193.017 63.5764 193.78 63.9154 194.628 64.2545C197.51 65.526 200.646 66.5432 203.952 67.2214C207.343 67.8995 210.649 68.2386 214.04 68.2386C219.38 68.2386 223.534 67.3062 226.416 65.4413C229.298 63.5764 230.824 60.8638 230.824 57.3883C230.824 55.0148 230.061 53.0651 228.535 51.4545C227.009 49.8439 224.127 48.4028 219.973 47.0466L207.682 43.232C201.494 41.2823 196.916 38.4002 194.119 34.5856C191.322 30.8558 189.881 26.7022 189.881 22.2942C189.881 18.734 190.644 15.5975 192.169 12.885C193.695 10.1724 195.73 7.79887 198.273 5.93397C200.816 3.9843 203.698 2.54324 207.089 1.52602C210.479 0.508802 214.04 0.0849609 217.769 0.0849609C219.634 0.0849609 221.584 0.169729 223.449 0.424034C225.399 0.678338 227.179 1.01741 228.959 1.35648C230.654 1.78033 232.265 2.20417 233.791 2.71278C235.316 3.22138 236.503 3.72999 237.351 4.2386C238.538 4.91675 239.385 5.59489 239.894 6.35781C240.403 7.03595 240.657 7.9684 240.657 9.15516V13.1393C240.657 14.9194 239.979 15.8518 238.707 15.8518C238.029 15.8518 236.927 15.5128 235.486 14.8346C230.654 12.6307 225.229 11.5287 219.21 11.5287C214.379 11.5287 210.564 12.2916 207.936 13.9022C205.308 15.5128 203.952 17.9711 203.952 21.4466C203.952 23.8201 204.8 25.8545 206.495 27.4651C208.191 29.0757 211.327 30.6863 215.82 32.1273L227.857 35.9419C233.96 37.8916 238.368 40.6042 240.996 44.0797C243.624 47.5552 244.895 51.5393 244.895 55.9472C244.895 59.5923 244.132 62.8982 242.691 65.7803C241.165 68.6624 239.131 71.2055 236.503 73.2399C233.875 75.3591 230.739 76.885 227.094 77.9869C223.279 79.1737 219.295 79.7671 214.972 79.7671Z" fill="#252F3E"/>
<path d="M230.994 120.964C203.105 141.563 162.586 152.498 127.746 152.498C78.9194 152.498 34.9247 134.443 1.69553 104.435C-0.932281 102.061 1.44123 98.8399 4.57765 100.705C40.5194 121.558 84.8531 134.188 130.713 134.188C161.653 134.188 195.645 127.746 226.925 114.522C231.587 112.403 235.571 117.574 230.994 120.964ZM242.607 107.741C239.047 103.163 219.041 105.537 209.971 106.639C207.258 106.978 206.835 104.604 209.293 102.824C225.229 91.6346 251.423 94.8558 254.474 98.5856C257.526 102.4 253.627 128.594 238.707 141.139C236.419 143.089 234.215 142.072 235.232 139.529C238.623 131.137 246.167 112.233 242.607 107.741Z" fill="#FF9900"/>
</svg>
