<svg enable-background="new 0 0 304 172" height="172" viewBox="0 0 304 172" width="304" xmlns="http://www.w3.org/2000/svg"><path d="m50.6 125.9c0 10.1-5.3 14.4-16.2 14.4h-16.2c-10.9 0-16.2-4.2-16.2-14.4v-38.6c0-10.1 5.3-14.4 16.2-14.4h16.3c10.8 0 16.2 4.3 16.2 14.4v2.8c0 .7-.5 1.4-1.2 1.6l-6.7 1.8c-1 .3-2.1-.5-2.1-1.6v-2.8c0-4.9-1.6-7-7.5-7h-13.7c-5.9 0-7.6 2.1-7.6 7v35c0 4.9 1.7 7 7.6 7h13.6c5.9 0 7.5-2.1 7.5-7v-3.3c0-1.1 1.1-1.9 2.1-1.6l6.7 2c.7.2 1.2.8 1.2 1.6z" fill="#251b3f"/><path d="m64.8 131h17.1v-49h-15.9c-.9 0-1.6-.7-1.6-1.6v-5.9c0-.9.7-1.6 1.6-1.6h41.8c.9 0 1.6.7 1.6 1.6v5.9c0 .9-.7 1.6-1.6 1.6h-16v49h17.1c.9 0 1.6.7 1.6 1.6v6c0 .9-.7 1.6-1.6 1.6h-44.1c-.9 0-1.6-.7-1.6-1.6v-6c-.1-.8.7-1.6 1.6-1.6z" fill="#251b3f"/><path d="m240.8 125.9c0 10.1-5.3 14.4-16.2 14.4h-16.3c-10.8 0-16.2-4.2-16.2-14.4v-38.6c0-10.1 5.3-14.4 16.2-14.4h16.3c10.8 0 16.2 4.3 16.2 14.4v2.8c0 .7-.5 1.4-1.2 1.6l-6.7 1.8c-1 .3-2.1-.5-2.1-1.6v-2.8c0-4.9-1.6-7-7.5-7h-13.6c-5.9 0-7.6 2.1-7.6 7v35c0 4.9 1.7 7 7.6 7h13.6c5.9 0 7.5-2.1 7.5-7v-3.3c0-1.1 1.1-1.9 2.1-1.6l6.7 2c.7.2 1.2.8 1.2 1.6z" fill="#251b3f"/><path d="m302 125.9c0 10.1-5 14.4-15.9 14.4h-31.3c-.9 0-1.6-.7-1.6-1.6v-64.1c0-.9.7-1.6 1.6-1.6h31.3c10.8 0 15.9 4.2 15.9 14.4zm-10-36.8c0-4.9-1.6-7-7.5-7h-21.4v49h21.4c5.9 0 7.5-2.1 7.5-7z" fill="#251b3f"/><path d="m165 34.2c-.6-.2-1.2 0-1.5.5l-31.9 58.2c-1.1 2.1-.8 4.6.8 6.3l15.3 16.2 18-79.9c.2-.5-.2-1.1-.7-1.3z" fill="#d72d20"/><path d="m168.9 105.6-15.3-16.2-18 79.9c-.1.6.2 1.2.7 1.4.1.1.3.1.4.1.4 0 .8-.2 1-.6l31.9-58.2c1.3-2.1 1-4.7-.7-6.4z" fill="#f8911e"/><g fill="#251b3f"><path d="m97.6 18.5c.7 0 1.2-.1 1.7-.2s1-.3 1.4-.4v-3.1h-2c-.3 0-.5-.1-.7-.2-.2-.2-.3-.4-.3-.6v-2.6h7.3v8.6c-.5.4-1.1.7-1.6 1-.6.3-1.2.5-1.8.7s-1.3.3-2 .4-1.5.1-2.3.1c-1.5 0-2.9-.3-4.2-.8s-2.4-1.3-3.3-2.2-1.7-2-2.2-3.3-.8-2.7-.8-4.2.3-2.9.8-4.2 1.2-2.4 2.2-3.3c.9-.9 2.1-1.6 3.4-2.2 1.3-.5 2.8-.8 4.5-.8.9 0 1.6.1 2.4.2.7.1 1.4.3 2.1.6.6.2 1.2.5 1.7.9.5.3 1 .7 1.4 1.1l-1.4 2.1c-.1.2-.3.4-.5.5s-.4.2-.6.2c-.3 0-.6-.1-.9-.3-.4-.2-.7-.4-1.1-.6-.3-.2-.7-.3-1-.4s-.7-.2-1.1-.2-.8-.1-1.3-.1c-.9 0-1.7.2-2.4.5s-1.3.7-1.8 1.3-.9 1.3-1.2 2.1-.4 1.7-.4 2.7c0 1.1.1 2 .4 2.9.3.8.7 1.6 1.2 2.1.5.6 1.2 1 1.9 1.3.8.3 1.6.4 2.5.4z"/><path d="m118.5 21.9h-4.8v-20.4h4.8z"/><path d="m142 1.5v3.8h-5.7v16.7h-4.7v-16.7h-5.8v-3.8z"/><path d="m153.8 18.2h7.6v3.8h-12.3v-20.5h4.7z"/><path d="m188.5 21.9h-3.7c-.4 0-.8-.1-1-.3s-.5-.4-.6-.7l-1.2-3.6h-7.8l-1.2 3.6c-.1.3-.3.5-.5.7-.3.2-.6.3-1 .3h-3.7l7.9-20.4h4.9zm-13.1-7.8h5.6l-1.9-5.6c-.1-.4-.3-.8-.4-1.3-.2-.5-.3-1-.5-1.6-.1.6-.3 1.1-.5 1.6s-.3.9-.4 1.3z"/><path d="m195.4 21.9v-20.4h7.5c1.4 0 2.6.1 3.6.4s1.8.6 2.4 1.1 1.1 1.1 1.4 1.7.4 1.4.4 2.3c0 .5-.1.9-.2 1.3s-.3.8-.6 1.2-.6.7-1.1 1-1 .6-1.6.8c1.3.3 2.3.9 3 1.6.6.7 1 1.7 1 2.8 0 .9-.2 1.7-.5 2.4s-.8 1.4-1.5 2c-.6.6-1.5 1-2.4 1.3s-2 .5-3.3.5zm4.7-11.8h2.5c.5 0 1 0 1.4-.1s.8-.2 1.1-.4.5-.4.7-.8.2-.7.2-1.2-.1-.9-.2-1.2-.3-.6-.6-.8-.6-.3-1-.4-.8-.1-1.4-.1h-2.8v5zm0 3.2v5.1h3.3c.6 0 1.1-.1 1.5-.2.4-.2.7-.4.9-.6.2-.3.4-.5.5-.9.1-.3.1-.6.1-1s0-.7-.1-1-.3-.6-.5-.8-.6-.4-.9-.5c-.4-.1-.9-.2-1.5-.2h-3.3z"/></g></svg>