<?xml version="1.0" encoding="UTF-8"?>
<!DOCTYPE svg PUBLIC "-//W3C//DTD SVG 1.1//EN" "http://www.w3.org/Graphics/SVG/1.1/DTD/svg11.dtd">
<svg xmlns="http://www.w3.org/2000/svg" version="1.1" width="225px" height="225px" style="shape-rendering:geometricPrecision; text-rendering:geometricPrecision; image-rendering:optimizeQuality; fill-rule:evenodd; clip-rule:evenodd" xmlns:xlink="http://www.w3.org/1999/xlink">
<g><path style="opacity:1" fill="#010101" d="M -0.5,-0.5 C 74.5,-0.5 149.5,-0.5 224.5,-0.5C 224.5,74.5 224.5,149.5 224.5,224.5C 149.5,224.5 74.5,224.5 -0.5,224.5C -0.5,149.5 -0.5,74.5 -0.5,-0.5 Z"/></g>
<g><path style="opacity:1" fill="#fbfbfb" d="M 199.5,46.5 C 199.41,49.1522 200.076,51.4855 201.5,53.5C 202.467,88.8131 202.8,124.146 202.5,159.5C 201.668,130.336 201.168,101.003 201,71.5C 200.667,69.8333 200.333,68.1667 200,66.5C 199.517,67.448 199.351,68.448 199.5,69.5C 188.833,70.1667 188.833,70.8333 199.5,71.5C 199.5,76.8333 199.5,82.1667 199.5,87.5C 186.194,87.9424 173.528,87.9424 161.5,87.5C 159.665,84.5721 157.332,82.0721 154.5,80C 153.552,79.5172 152.552,79.3505 151.5,79.5C 148.878,77.2181 146.212,74.8848 143.5,72.5C 141.027,70.8568 139.027,68.6902 137.5,66C 135.922,64.9055 134.255,64.0722 132.5,63.5C 131.421,61.457 129.754,60.1237 127.5,59.5C 124.882,56.2148 121.882,53.2148 118.5,50.5C 114.5,46.5 110.5,46.5 106.5,50.5C 99.9414,55.6059 93.608,60.9392 87.5,66.5C 85.66,68.168 83.66,69.668 81.5,71C 80.1772,71.8159 79.5106,72.9826 79.5,74.5C 76.5999,75.4432 74.2666,77.1099 72.5,79.5C 70.4451,81.5547 68.1117,83.2213 65.5,84.5C 59.3466,85.4098 57.0133,89.0764 58.5,95.5C 57.448,95.3505 56.448,95.5172 55.5,96C 55.8916,98.3543 55.8916,100.854 55.5,103.5C 47.5,103.5 39.5,103.5 31.5,103.5C 31.5,100.833 31.5,98.1667 31.5,95.5C 36.8333,95.5 42.1667,95.5 47.5,95.5C 47.5,92.8333 47.5,90.1667 47.5,87.5C 41.1667,87.5 34.8333,87.5 28.5,87.5C 28.5,84.8333 28.5,82.1667 28.5,79.5C 27.5,79.5 26.5,79.5 25.5,79.5C 25.5,76.8333 25.5,74.1667 25.5,71.5C 26.552,71.6495 27.552,71.4828 28.5,71C 27.2978,68.3077 25.4645,67.4744 23,68.5C 22.8324,99.0028 22.3324,129.336 21.5,159.5C 21.3333,125.832 21.5,92.165 22,58.5C 23.6129,40.8795 32.7796,29.0462 49.5,23C 52.8333,22.6667 56.1667,22.3333 59.5,22C 93.8333,21.3333 128.167,21.3333 162.5,22C 180.047,22.3932 192.38,30.5599 199.5,46.5 Z"/></g>
<g><path style="opacity:1" fill="#979797" d="M 199.5,46.5 C 200.924,48.5145 201.59,50.8478 201.5,53.5C 200.076,51.4855 199.41,49.1522 199.5,46.5 Z"/></g>
<g><path style="opacity:1" fill="#f18492" d="M 118.5,50.5 C 117.564,52.4415 116.23,54.1081 114.5,55.5C 111.968,63.2903 110.968,71.2903 111.5,79.5C 110.5,81.1667 109.167,82.5 107.5,83.5C 105.716,78.397 104.716,73.0636 104.5,67.5C 104.649,65.6803 105.316,64.1803 106.5,63C 103.956,61.4374 103.956,59.9374 106.5,58.5C 105.833,57.8333 105.167,57.1667 104.5,56.5C 105.833,54.8333 107.167,53.1667 108.5,51.5C 108.043,50.7025 107.376,50.3691 106.5,50.5C 110.5,46.5 114.5,46.5 118.5,50.5 Z"/></g>
<g><path style="opacity:1" fill="#f38b86" d="M 118.5,50.5 C 121.882,53.2148 124.882,56.2148 127.5,59.5C 127.44,60.0431 127.107,60.3764 126.5,60.5C 124.585,59.2913 122.752,57.958 121,56.5C 119.726,57.5353 118.56,58.702 117.5,60C 121.278,61.6399 121.278,62.8066 117.5,63.5C 116.342,69.2553 116.342,74.922 117.5,80.5C 118.833,81.8333 120.167,83.1667 121.5,84.5C 121.043,85.2975 120.376,85.6309 119.5,85.5C 116.833,83.5 114.167,81.5 111.5,79.5C 110.968,71.2903 111.968,63.2903 114.5,55.5C 116.23,54.1081 117.564,52.4415 118.5,50.5 Z"/></g>
<g><path style="opacity:1" fill="#f29778" d="M 127.5,59.5 C 129.754,60.1237 131.421,61.457 132.5,63.5C 130.833,63.5 129.167,63.5 127.5,63.5C 127.5,64.5 127.5,65.5 127.5,66.5C 128.5,66.5 129.5,66.5 130.5,66.5C 129.229,69.6864 128.229,73.0197 127.5,76.5C 128.833,76.5 130.167,76.5 131.5,76.5C 131.664,79.1873 131.497,81.854 131,84.5C 130.51,83.2068 130.343,81.8734 130.5,80.5C 128.5,81.1667 126.5,81.8333 124.5,82.5C 124.714,84.1439 124.38,85.6439 123.5,87C 126.876,87.3071 128.21,89.1405 127.5,92.5C 124.931,90.0136 122.264,87.6803 119.5,85.5C 120.376,85.6309 121.043,85.2975 121.5,84.5C 120.167,83.1667 118.833,81.8333 117.5,80.5C 116.342,74.922 116.342,69.2553 117.5,63.5C 121.278,62.8066 121.278,61.6399 117.5,60C 118.56,58.702 119.726,57.5353 121,56.5C 122.752,57.958 124.585,59.2913 126.5,60.5C 127.107,60.3764 127.44,60.0431 127.5,59.5 Z"/></g>
<g><path style="opacity:1" fill="#f6f6f6" d="M 202.5,159.5 C 201.752,164.485 201.085,169.485 200.5,174.5C 199.221,175.968 197.554,176.635 195.5,176.5C 195.799,178.604 195.466,180.604 194.5,182.5C 193.585,181.672 192.919,180.672 192.5,179.5C 193.167,179.167 193.833,178.833 194.5,178.5C 194.167,177.833 193.833,177.167 193.5,176.5C 178.511,175.667 163.511,175.167 148.5,175C 147.167,174.333 147.167,173.667 148.5,173C 150.134,172.506 151.801,172.34 153.5,172.5C 153.731,169.1 155.564,167.1 159,166.5C 159.781,165.056 159.614,163.723 158.5,162.5C 153.948,166.063 148.948,168.729 143.5,170.5C 143.5,170.167 143.5,169.833 143.5,169.5C 146.057,168.812 148.391,167.646 150.5,166C 153.754,162.917 156.754,159.751 159.5,156.5C 162.666,154.166 165.333,151.333 167.5,148C 165.544,145.19 162.877,143.69 159.5,143.5C 159.141,141.629 158.141,140.129 156.5,139C 153.567,137.729 150.901,136.062 148.5,134C 146.072,133.253 144.406,134.086 143.5,136.5C 141.167,138.833 138.833,141.167 136.5,143.5C 133.795,145.512 131.128,147.512 128.5,149.5C 125.557,149.98 122.89,150.98 120.5,152.5C 115.761,153.378 111.095,153.378 106.5,152.5C 103.779,152.037 101.112,151.371 98.5,150.5C 91.6042,146.605 85.2708,141.939 79.5,136.5C 79.2882,134.616 78.2882,133.283 76.5,132.5C 69.6904,137.475 63.0238,142.642 56.5,148C 61.3647,154.03 66.698,159.53 72.5,164.5C 59.138,164.293 45.4713,164.293 31.5,164.5C 31.5,165.5 31.5,166.5 31.5,167.5C 42.1667,167.5 52.8333,167.5 63.5,167.5C 62.8429,170.841 64.1763,172.841 67.5,173.5C 66.9747,174.192 66.3081,174.692 65.5,175C 54.1667,175.667 42.8333,175.667 31.5,175C 30.1259,171.59 29.4592,171.757 29.5,175.5C 26.902,174.24 24.5686,172.573 22.5,170.5C 22.577,166.785 22.2436,163.119 21.5,159.5C 22.3324,129.336 22.8324,99.0028 23,68.5C 25.4645,67.4744 27.2978,68.3077 28.5,71C 27.552,71.4828 26.552,71.6495 25.5,71.5C 25.5,74.1667 25.5,76.8333 25.5,79.5C 26.5,79.5 27.5,79.5 28.5,79.5C 28.5,82.1667 28.5,84.8333 28.5,87.5C 34.8333,87.5 41.1667,87.5 47.5,87.5C 47.5,90.1667 47.5,92.8333 47.5,95.5C 42.1667,95.5 36.8333,95.5 31.5,95.5C 31.5,98.1667 31.5,100.833 31.5,103.5C 39.5,103.5 47.5,103.5 55.5,103.5C 55.8916,100.854 55.8916,98.3543 55.5,96C 56.448,95.5172 57.448,95.3505 58.5,95.5C 57.0133,89.0764 59.3466,85.4098 65.5,84.5C 64.8333,85.5 64.1667,86.5 63.5,87.5C 61.5222,88.1444 60.1889,89.4777 59.5,91.5C 60.5096,94.1412 62.1763,96.1412 64.5,97.5C 66.4719,101.105 69.1385,104.105 72.5,106.5C 74.1767,109.777 76.5101,110.277 79.5,108C 83.3954,103.935 87.3954,100.102 91.5,96.5C 93.632,96.4456 94.9653,95.4456 95.5,93.5C 99.817,90.5136 103.817,87.1803 107.5,83.5C 109.167,82.5 110.5,81.1667 111.5,79.5C 114.167,81.5 116.833,83.5 119.5,85.5C 122.264,87.6803 124.931,90.0136 127.5,92.5C 130.474,95.1379 133.474,97.8046 136.5,100.5C 140.01,103.847 143.843,106.847 148,109.5C 150.779,108.231 152.612,106.231 153.5,103.5C 154.791,103.737 155.791,103.404 156.5,102.5C 158.294,100.572 159.294,98.2384 159.5,95.5C 164.985,93.891 165.652,91.2243 161.5,87.5C 173.528,87.9424 186.194,87.9424 199.5,87.5C 199.5,82.1667 199.5,76.8333 199.5,71.5C 188.833,70.8333 188.833,70.1667 199.5,69.5C 199.351,68.448 199.517,67.448 200,66.5C 200.333,68.1667 200.667,69.8333 201,71.5C 201.168,101.003 201.668,130.336 202.5,159.5 Z"/></g>
<g><path style="opacity:1" fill="#f276a3" d="M 106.5,50.5 C 107.376,50.3691 108.043,50.7025 108.5,51.5C 107.167,53.1667 105.833,54.8333 104.5,56.5C 105.167,57.1667 105.833,57.8333 106.5,58.5C 103.956,59.9374 103.956,61.4374 106.5,63C 105.316,64.1803 104.649,65.6803 104.5,67.5C 104.716,73.0636 105.716,78.397 107.5,83.5C 103.817,87.1803 99.817,90.5136 95.5,93.5C 95.6665,84.1607 95.4998,74.8274 95,65.5C 94.6322,66.91 93.7989,67.91 92.5,68.5C 91.1502,67.0499 89.4835,66.3832 87.5,66.5C 93.608,60.9392 99.9414,55.6059 106.5,50.5 Z"/></g>
<g><path style="opacity:1" fill="#ef6fb6" d="M 95.5,93.5 C 94.9653,95.4456 93.632,96.4456 91.5,96.5C 91.1387,93.1747 90.8053,89.508 90.5,85.5C 90.2914,82.5457 90.9581,79.879 92.5,77.5C 91.6086,76.4104 90.6086,76.4104 89.5,77.5C 88.5207,74.223 87.1873,73.8897 85.5,76.5C 85.9767,77.4776 86.6433,78.3109 87.5,79C 87,79.1667 86.5,79.3333 86,79.5C 83.9097,77.5566 81.7431,75.8899 79.5,74.5C 79.5106,72.9826 80.1772,71.8159 81.5,71C 83.66,69.668 85.66,68.168 87.5,66.5C 89.4835,66.3832 91.1502,67.0499 92.5,68.5C 93.7989,67.91 94.6322,66.91 95,65.5C 95.4998,74.8274 95.6665,84.1607 95.5,93.5 Z"/></g>
<g><path style="opacity:1" fill="#f5b25d" d="M 143.5,72.5 C 146.212,74.8848 148.878,77.2181 151.5,79.5C 151.519,82.8564 152.853,85.5231 155.5,87.5C 153.64,88.9387 151.973,90.6053 150.5,92.5C 149.264,93.2458 147.93,93.5792 146.5,93.5C 146.178,95.7224 146.845,97.5557 148.5,99C 150.935,100.715 153.602,101.882 156.5,102.5C 155.791,103.404 154.791,103.737 153.5,103.5C 152.612,106.231 150.779,108.231 148,109.5C 143.843,106.847 140.01,103.847 136.5,100.5C 136.916,98.2475 138.249,96.7475 140.5,96C 139.552,95.5172 138.552,95.3505 137.5,95.5C 137.5,90.1667 137.5,84.8333 137.5,79.5C 132.312,79.032 132.312,78.032 137.5,76.5C 138.159,73.1763 140.159,71.8429 143.5,72.5 Z"/></g>
<g><path style="opacity:1" fill="#f4a46a" d="M 132.5,63.5 C 134.255,64.0722 135.922,64.9055 137.5,66C 139.027,68.6902 141.027,70.8568 143.5,72.5C 140.159,71.8429 138.159,73.1763 137.5,76.5C 132.312,78.032 132.312,79.032 137.5,79.5C 137.5,84.8333 137.5,90.1667 137.5,95.5C 138.552,95.3505 139.552,95.5172 140.5,96C 138.249,96.7475 136.916,98.2475 136.5,100.5C 133.474,97.8046 130.474,95.1379 127.5,92.5C 128.21,89.1405 126.876,87.3071 123.5,87C 124.38,85.6439 124.714,84.1439 124.5,82.5C 126.5,81.8333 128.5,81.1667 130.5,80.5C 130.343,81.8734 130.51,83.2068 131,84.5C 131.497,81.854 131.664,79.1873 131.5,76.5C 130.167,76.5 128.833,76.5 127.5,76.5C 128.229,73.0197 129.229,69.6864 130.5,66.5C 129.5,66.5 128.5,66.5 127.5,66.5C 127.5,65.5 127.5,64.5 127.5,63.5C 129.167,63.5 130.833,63.5 132.5,63.5 Z"/></g>
<g><path style="opacity:1" fill="#ef62ce" d="M 72.5,106.5 C 69.1385,104.105 66.4719,101.105 64.5,97.5C 66.7288,98.0553 68.3954,99.3886 69.5,101.5C 70.6888,102.429 72.0222,102.762 73.5,102.5C 73.5198,100.857 72.8532,99.5237 71.5,98.5C 71.9767,97.5224 72.6433,96.6891 73.5,96C 72.376,95.7508 71.376,95.2508 70.5,94.5C 71.5414,92.4148 73.0414,90.7481 75,89.5C 75.4828,88.552 75.6495,87.552 75.5,86.5C 71.4809,86.6458 67.4809,86.9791 63.5,87.5C 64.1667,86.5 64.8333,85.5 65.5,84.5C 68.1117,83.2213 70.4451,81.5547 72.5,79.5C 74.8273,79.7529 76.8273,79.0863 78.5,77.5C 78.8333,77.8333 79.1667,78.1667 79.5,78.5C 77.1364,80.3673 77.1364,82.3673 79.5,84.5C 78.8333,85.8333 78.1667,87.1667 77.5,88.5C 79.0007,92.0028 79.834,95.6695 80,99.5C 81.0674,100.191 82.2341,100.691 83.5,101C 82.0692,101.465 80.9025,102.299 80,103.5C 79.6667,103.167 79.3333,102.833 79,102.5C 77.418,103.96 76.0847,105.627 75,107.5C 74.3292,106.748 73.4959,106.414 72.5,106.5 Z"/></g>
<g><path style="opacity:1" fill="#f35fe0" d="M 64.5,97.5 C 62.1763,96.1412 60.5096,94.1412 59.5,91.5C 60.1889,89.4777 61.5222,88.1444 63.5,87.5C 67.4809,86.9791 71.4809,86.6458 75.5,86.5C 75.6495,87.552 75.4828,88.552 75,89.5C 73.0414,90.7481 71.5414,92.4148 70.5,94.5C 71.376,95.2508 72.376,95.7508 73.5,96C 72.6433,96.6891 71.9767,97.5224 71.5,98.5C 72.8532,99.5237 73.5198,100.857 73.5,102.5C 72.0222,102.762 70.6888,102.429 69.5,101.5C 68.3954,99.3886 66.7288,98.0553 64.5,97.5 Z"/></g>
<g><path style="opacity:1" fill="#f167bd" d="M 79.5,74.5 C 81.7431,75.8899 83.9097,77.5566 86,79.5C 86.5,79.3333 87,79.1667 87.5,79C 86.6433,78.3109 85.9767,77.4776 85.5,76.5C 87.1873,73.8897 88.5207,74.223 89.5,77.5C 90.6086,76.4104 91.6086,76.4104 92.5,77.5C 90.9581,79.879 90.2914,82.5457 90.5,85.5C 90.8053,89.508 91.1387,93.1747 91.5,96.5C 87.3954,100.102 83.3954,103.935 79.5,108C 76.5101,110.277 74.1767,109.777 72.5,106.5C 73.4959,106.414 74.3292,106.748 75,107.5C 76.0847,105.627 77.418,103.96 79,102.5C 79.3333,102.833 79.6667,103.167 80,103.5C 80.9025,102.299 82.0692,101.465 83.5,101C 82.2341,100.691 81.0674,100.191 80,99.5C 79.834,95.6695 79.0007,92.0028 77.5,88.5C 78.1667,87.1667 78.8333,85.8333 79.5,84.5C 77.1364,82.3673 77.1364,80.3673 79.5,78.5C 79.1667,78.1667 78.8333,77.8333 78.5,77.5C 76.8273,79.0863 74.8273,79.7529 72.5,79.5C 74.2666,77.1099 76.5999,75.4432 79.5,74.5 Z"/></g>
<g><path style="opacity:1" fill="#f7c359" d="M 151.5,79.5 C 152.552,79.3505 153.552,79.5172 154.5,80C 157.332,82.0721 159.665,84.5721 161.5,87.5C 165.652,91.2243 164.985,93.891 159.5,95.5C 159.294,98.2384 158.294,100.572 156.5,102.5C 153.602,101.882 150.935,100.715 148.5,99C 146.845,97.5557 146.178,95.7224 146.5,93.5C 147.93,93.5792 149.264,93.2458 150.5,92.5C 151.973,90.6053 153.64,88.9387 155.5,87.5C 152.853,85.5231 151.519,82.8564 151.5,79.5 Z"/></g>
<g><path style="opacity:1" fill="#896cf5" d="M 79.5,136.5 C 80.8333,138.833 82.1667,141.167 83.5,143.5C 86.1094,143.83 87.7761,145.33 88.5,148C 88,148.5 87.5,149 87,149.5C 84.9656,147.968 82.7989,146.635 80.5,145.5C 79.0453,148.293 79.5453,150.626 82,152.5C 82.4396,156.434 80.6062,158.934 76.5,160C 76.8333,160.333 77.1667,160.667 77.5,161C 72.6213,161.111 72.288,162.278 76.5,164.5C 81.8333,160.5 82.5,161.167 78.5,166.5C 79.5575,166.906 80.8908,166.906 82.5,166.5C 82.5653,163.002 83.8986,162.502 86.5,165C 85.5842,165.278 84.9175,165.778 84.5,166.5C 83.596,167.209 83.2627,168.209 83.5,169.5C 82.5,169.5 81.5,169.5 80.5,169.5C 77.4968,168.334 74.8302,166.667 72.5,164.5C 66.698,159.53 61.3647,154.03 56.5,148C 63.0238,142.642 69.6904,137.475 76.5,132.5C 78.2882,133.283 79.2882,134.616 79.5,136.5 Z"/></g>
<g><path style="opacity:1" fill="#7dbaf3" d="M 143.5,169.5 C 143.5,169.833 143.5,170.167 143.5,170.5C 139.519,172.987 135.185,174.654 130.5,175.5C 131.248,173.668 132.248,172.001 133.5,170.5C 136.032,170.171 137.032,169.005 136.5,167C 140.949,163.45 141.115,159.95 137,156.5C 136.333,155.167 136.333,153.833 137,152.5C 139.041,151.577 141.208,151.244 143.5,151.5C 143.021,147.566 143.688,143.899 145.5,140.5C 143.257,139.617 141.59,140.451 140.5,143C 139.207,143.49 137.873,143.657 136.5,143.5C 138.833,141.167 141.167,138.833 143.5,136.5C 145.435,135.85 147.435,135.517 149.5,135.5C 149.297,137.638 148.297,139.305 146.5,140.5C 148.398,141.734 150.065,141.401 151.5,139.5C 153.981,140.86 153.648,141.86 150.5,142.5C 149.248,148.099 148.582,153.766 148.5,159.5C 149.873,159.343 151.207,159.51 152.5,160C 149.914,163.748 146.914,166.914 143.5,169.5 Z"/></g>
<g><path style="opacity:1" fill="#867cf2" d="M 79.5,136.5 C 85.2708,141.939 91.6042,146.605 98.5,150.5C 94.8495,154.035 90.8495,154.368 86.5,151.5C 85.246,153.259 85.5794,154.759 87.5,156C 90.998,156.208 94.3313,157.041 97.5,158.5C 98.8333,157.833 100.167,157.167 101.5,156.5C 102.167,156.833 102.833,157.167 103.5,157.5C 98.3742,158.878 93.7076,161.211 89.5,164.5C 90.9394,166.553 92.9394,167.553 95.5,167.5C 95.5,168.5 95.5,169.5 95.5,170.5C 91.8644,169.01 88.1977,167.677 84.5,166.5C 84.9175,165.778 85.5842,165.278 86.5,165C 83.8986,162.502 82.5653,163.002 82.5,166.5C 80.8908,166.906 79.5575,166.906 78.5,166.5C 82.5,161.167 81.8333,160.5 76.5,164.5C 72.288,162.278 72.6213,161.111 77.5,161C 77.1667,160.667 76.8333,160.333 76.5,160C 80.6062,158.934 82.4396,156.434 82,152.5C 79.5453,150.626 79.0453,148.293 80.5,145.5C 82.7989,146.635 84.9656,147.968 87,149.5C 87.5,149 88,148.5 88.5,148C 87.7761,145.33 86.1094,143.83 83.5,143.5C 82.1667,141.167 80.8333,138.833 79.5,136.5 Z"/></g>
<g><path style="opacity:1" fill="#7dd1e6" d="M 159.5,143.5 C 162.877,143.69 165.544,145.19 167.5,148C 165.333,151.333 162.666,154.166 159.5,156.5C 159.284,153.568 159.951,150.902 161.5,148.5C 160.453,146.944 159.786,145.277 159.5,143.5 Z"/></g>
<g><path style="opacity:1" fill="#7ec2f2" d="M 159.5,143.5 C 159.786,145.277 160.453,146.944 161.5,148.5C 159.951,150.902 159.284,153.568 159.5,156.5C 156.754,159.751 153.754,162.917 150.5,166C 148.391,167.646 146.057,168.812 143.5,169.5C 146.914,166.914 149.914,163.748 152.5,160C 151.207,159.51 149.873,159.343 148.5,159.5C 148.582,153.766 149.248,148.099 150.5,142.5C 153.648,141.86 153.981,140.86 151.5,139.5C 150.065,141.401 148.398,141.734 146.5,140.5C 148.297,139.305 149.297,137.638 149.5,135.5C 147.435,135.517 145.435,135.85 143.5,136.5C 144.406,134.086 146.072,133.253 148.5,134C 150.901,136.062 153.567,137.729 156.5,139C 158.141,140.129 159.141,141.629 159.5,143.5 Z"/></g>
<g><path style="opacity:1" fill="#7fb1f7" d="M 133.5,170.5 C 133.5,169.5 133.5,168.5 133.5,167.5C 131.5,167.5 129.5,167.5 127.5,167.5C 127.5,165.833 127.5,164.167 127.5,162.5C 130.167,162.5 132.833,162.5 135.5,162.5C 134.248,159.645 133.248,156.645 132.5,153.5C 132.709,152.006 133.376,150.839 134.5,150C 132.527,149.505 130.527,149.338 128.5,149.5C 131.128,147.512 133.795,145.512 136.5,143.5C 137.873,143.657 139.207,143.49 140.5,143C 141.59,140.451 143.257,139.617 145.5,140.5C 143.688,143.899 143.021,147.566 143.5,151.5C 141.208,151.244 139.041,151.577 137,152.5C 136.333,153.833 136.333,155.167 137,156.5C 141.115,159.95 140.949,163.45 136.5,167C 137.032,169.005 136.032,170.171 133.5,170.5 Z"/></g>
<g><path style="opacity:1" fill="#7f89f4" d="M 98.5,150.5 C 101.112,151.371 103.779,152.037 106.5,152.5C 109.355,154.25 112.689,155.083 116.5,155C 118.001,156.252 119.668,157.252 121.5,158C 118.344,158.603 115.344,158.103 112.5,156.5C 109.507,156.935 107.507,157.935 106.5,159.5C 106.5,164.833 106.5,170.167 106.5,175.5C 103.518,175.963 100.518,176.296 97.5,176.5C 91.2188,175.522 85.5522,173.189 80.5,169.5C 81.5,169.5 82.5,169.5 83.5,169.5C 83.2627,168.209 83.596,167.209 84.5,166.5C 88.1977,167.677 91.8644,169.01 95.5,170.5C 95.5,169.5 95.5,168.5 95.5,167.5C 92.9394,167.553 90.9394,166.553 89.5,164.5C 93.7076,161.211 98.3742,158.878 103.5,157.5C 102.833,157.167 102.167,156.833 101.5,156.5C 100.167,157.167 98.8333,157.833 97.5,158.5C 94.3313,157.041 90.998,156.208 87.5,156C 85.5794,154.759 85.246,153.259 86.5,151.5C 90.8495,154.368 94.8495,154.035 98.5,150.5 Z"/></g>
<g><path style="opacity:1" fill="#7f93f5" d="M 116.5,178.5 C 109.918,178.844 103.584,178.177 97.5,176.5C 100.518,176.296 103.518,175.963 106.5,175.5C 106.5,170.167 106.5,164.833 106.5,159.5C 109.583,158.934 112.583,158.934 115.5,159.5C 116.495,164.792 116.828,170.125 116.5,175.5C 110.196,175.831 110.53,176.331 117.5,177C 116.944,177.383 116.611,177.883 116.5,178.5 Z"/></g>
<g><path style="opacity:1" fill="#7d9df2" d="M 106.5,152.5 C 111.095,153.378 115.761,153.378 120.5,152.5C 121.552,152.351 122.552,152.517 123.5,153C 121.956,153.29 120.623,153.956 119.5,155C 122.167,156.333 124.833,157.667 127.5,159C 125.866,159.494 124.199,159.66 122.5,159.5C 122.5,164.833 122.5,170.167 122.5,175.5C 124.167,175.5 125.833,175.5 127.5,175.5C 124.308,177.389 120.642,178.389 116.5,178.5C 116.611,177.883 116.944,177.383 117.5,177C 110.53,176.331 110.196,175.831 116.5,175.5C 116.828,170.125 116.495,164.792 115.5,159.5C 112.583,158.934 109.583,158.934 106.5,159.5C 107.507,157.935 109.507,156.935 112.5,156.5C 115.344,158.103 118.344,158.603 121.5,158C 119.668,157.252 118.001,156.252 116.5,155C 112.689,155.083 109.355,154.25 106.5,152.5 Z"/></g>
<g><path style="opacity:1" fill="#7ba7f6" d="M 128.5,149.5 C 130.527,149.338 132.527,149.505 134.5,150C 133.376,150.839 132.709,152.006 132.5,153.5C 133.248,156.645 134.248,159.645 135.5,162.5C 132.833,162.5 130.167,162.5 127.5,162.5C 127.5,164.167 127.5,165.833 127.5,167.5C 129.5,167.5 131.5,167.5 133.5,167.5C 133.5,168.5 133.5,169.5 133.5,170.5C 132.248,172.001 131.248,173.668 130.5,175.5C 129.5,175.5 128.5,175.5 127.5,175.5C 125.833,175.5 124.167,175.5 122.5,175.5C 122.5,170.167 122.5,164.833 122.5,159.5C 124.199,159.66 125.866,159.494 127.5,159C 124.833,157.667 122.167,156.333 119.5,155C 120.623,153.956 121.956,153.29 123.5,153C 122.552,152.517 121.552,152.351 120.5,152.5C 122.89,150.98 125.557,149.98 128.5,149.5 Z"/></g>
<g><path style="opacity:1" fill="#f0f0f0" d="M 200.5,174.5 C 194.053,192.227 181.386,201.393 162.5,202C 127.5,202.667 92.5,202.667 57.5,202C 38.7234,199.39 27.0568,188.89 22.5,170.5C 24.5686,172.573 26.902,174.24 29.5,175.5C 29.4592,171.757 30.1259,171.59 31.5,175C 42.8333,175.667 54.1667,175.667 65.5,175C 66.3081,174.692 66.9747,174.192 67.5,173.5C 64.1763,172.841 62.8429,170.841 63.5,167.5C 52.8333,167.5 42.1667,167.5 31.5,167.5C 31.5,166.5 31.5,165.5 31.5,164.5C 45.4713,164.293 59.138,164.293 72.5,164.5C 74.8302,166.667 77.4968,168.334 80.5,169.5C 85.5522,173.189 91.2188,175.522 97.5,176.5C 103.584,178.177 109.918,178.844 116.5,178.5C 120.642,178.389 124.308,177.389 127.5,175.5C 128.5,175.5 129.5,175.5 130.5,175.5C 135.185,174.654 139.519,172.987 143.5,170.5C 148.948,168.729 153.948,166.063 158.5,162.5C 159.614,163.723 159.781,165.056 159,166.5C 155.564,167.1 153.731,169.1 153.5,172.5C 151.801,172.34 150.134,172.506 148.5,173C 147.167,173.667 147.167,174.333 148.5,175C 163.511,175.167 178.511,175.667 193.5,176.5C 193.833,177.167 194.167,177.833 194.5,178.5C 193.833,178.833 193.167,179.167 192.5,179.5C 192.919,180.672 193.585,181.672 194.5,182.5C 195.466,180.604 195.799,178.604 195.5,176.5C 197.554,176.635 199.221,175.968 200.5,174.5 Z"/></g>
</svg>
