<svg width="256" height="206" viewBox="0 0 256 206" fill="none" xmlns="http://www.w3.org/2000/svg">
<path d="M101.614 9.07118C101.847 10.4683 101.148 11.6326 98.8197 12.7969C95.7925 11.1669 89.2725 10.2355 83.9167 10.7012C78.0952 11.1669 73.2051 13.0298 73.9037 16.9884C74.8352 20.947 80.4238 23.2756 90.4368 22.3442C114.887 20.2484 114.654 3.71541 150.515 0.455374C178.458 -2.10608 194.059 6.50973 196.155 16.9884C197.785 25.1385 191.032 33.0557 170.773 34.6857C152.843 36.3158 142.364 31.4257 141.433 26.5357C140.967 23.9742 142.364 20.2484 150.98 19.317C151.912 23.2756 156.802 27.4671 168.445 26.3028C176.828 25.6042 183.813 22.577 182.882 17.9199C181.951 13.0298 173.102 10.2355 159.13 11.3998C130.721 13.9612 123.736 29.5628 99.5183 31.6586C82.2867 33.2886 68.3151 27.0014 66.4522 17.687C65.7536 14.1941 65.7536 6.04401 83.9167 4.41399C93.2311 3.71541 100.683 5.34543 101.614 9.07118ZM10.7987 106.407C2.88151 116.42 -0.611391 128.062 0.0871881 139.473C0.785767 150.883 6.3744 160.197 15.2231 167.416C24.5375 174.634 34.5504 176.73 45.9605 174.634C50.3849 173.936 55.2749 171.607 59.6993 170.21C50.3849 170.21 42.4677 167.183 34.5504 160.896C25.9346 154.608 20.1131 145.76 18.716 135.048C16.6202 125.035 18.716 115.721 24.3046 107.571C30.5918 99.6536 38.7419 95.2293 49.4534 93.8321C60.165 93.1335 69.4794 95.9278 78.7938 102.448C76.698 99.4207 73.6709 97.325 70.8765 94.5307C61.5621 88.2435 51.5492 85.2163 39.2076 88.2435C28.0304 90.5721 18.716 96.3936 10.7987 106.407ZM135.612 52.6159C105.573 52.6159 78.7938 49.5888 59.4664 45.3973C38.7419 40.2744 27.7975 34.6858 27.7975 27.4671C27.7975 24.4399 29.1946 21.8785 33.3861 18.8513C20.346 23.9742 13.3602 28.1657 13.3602 34.6857C14.0588 41.9044 25.7018 49.1231 49.4534 54.7117C71.808 60.3003 100.45 63.3275 134.913 63.3275C170.075 63.3275 198.018 60.3003 220.372 54.7117C244.124 49.1231 255.534 41.6715 255.534 34.6857C255.534 29.5628 250.411 24.6728 241.097 20.947C243.193 22.3442 244.823 24.6728 244.823 27.2342C244.823 34.4529 234.111 40.2744 212.455 45.1644C192.429 49.5888 166.815 52.6159 135.612 52.6159ZM221.304 72.6419C198.949 77.7648 170.308 81.2577 135.844 81.2577C100.683 81.2577 72.0408 77.5319 49.6863 72.6419C29.6604 67.519 18.9488 61.9303 15.2231 56.1088C18.9488 81.2577 27.5646 105.009 38.9748 125.967C47.5906 139.007 56.2064 150.417 64.8222 162.759C68.5479 169.977 71.1094 177.196 72.7394 184.415C78.328 192.332 86.4781 197.455 96.4911 200.249C108.833 204.673 121.64 206.536 134.68 205.838H136.077C149.117 206.536 162.856 204.44 175.431 200.249C184.745 197.222 192.662 192.332 198.484 184.415H199.182C200.579 177.196 202.908 169.977 206.401 162.759C215.017 150.417 223.632 139.007 232.248 125.967C243.658 105.242 251.576 81.4906 256 56.1088C251.343 62.6289 240.631 68.2176 221.304 72.6419Z" fill="#28334C"/>
</svg>
