<svg width="256" height="288" viewBox="0 0 256 288" fill="none" xmlns="http://www.w3.org/2000/svg">
<path d="M255.569 84.4524C255.567 79.6224 254.534 75.3544 252.445 71.6914C250.393 68.0894 247.32 65.0704 243.198 62.6834C209.173 43.0644 175.115 23.5054 141.101 3.86638C131.931 -1.42762 123.04 -1.23462 113.938 4.13538C100.395 12.1224 32.59 50.9694 12.385 62.6724C4.064 67.4894 0.015 74.8614 0.013 84.4434C0 123.898 0.013 163.352 0 202.808C0 207.532 0.991 211.717 2.988 215.325C5.041 219.036 8.157 222.138 12.374 224.579C32.58 236.282 100.394 275.126 113.934 283.115C123.04 288.488 131.931 288.68 141.104 283.384C175.119 263.744 209.179 244.186 243.209 224.567C247.426 222.127 250.542 219.023 252.595 215.315C254.589 211.707 255.582 207.522 255.582 202.797C255.582 202.797 255.582 123.908 255.569 84.4524Z" fill="#A179DC"/>
<path d="M128.182 143.241L2.98828 215.325C5.04128 219.036 8.15728 222.138 12.3743 224.579C32.5803 236.282 100.394 275.126 113.934 283.115C123.04 288.488 131.931 288.68 141.104 283.384C175.119 263.744 209.179 244.186 243.209 224.567C247.426 222.127 250.542 219.023 252.595 215.315L128.182 143.241Z" fill="#280068"/>
<path d="M255.569 84.4524C255.567 79.6224 254.534 75.3544 252.445 71.6914L128.182 143.241L252.595 215.315C254.589 211.707 255.58 207.522 255.582 202.797C255.582 202.797 255.582 123.908 255.569 84.4524Z" fill="#390091"/>
<path d="M201.892 116.294V129.768H215.366V116.294H222.103V129.768H235.576V136.504H222.103V149.978H235.576V156.715H222.103V170.189H215.366V156.715H201.892V170.189H195.155V156.715H181.682V149.978H195.155V136.504H181.682V129.768H195.155V116.294H201.892ZM215.366 136.504H201.892V149.978H215.366V136.504Z" fill="white"/>
<path d="M128.458 48.626C163.601 48.626 194.285 67.7123 210.719 96.082L210.559 95.809L169.21 119.617C161.064 105.824 146.129 96.5152 128.997 96.3235L128.458 96.3204C102.332 96.3204 81.1515 117.5 81.1515 143.625C81.1515 152.169 83.4293 160.178 87.3905 167.095C95.5446 181.33 110.873 190.931 128.458 190.931C146.15 190.931 161.566 181.208 169.679 166.821L169.482 167.166L210.769 191.084C194.514 219.214 164.251 238.241 129.516 238.62L128.458 238.626C93.203 238.626 62.4323 219.422 46.0391 190.902C38.0361 176.979 33.457 160.838 33.457 143.625C33.457 91.1594 75.9893 48.626 128.458 48.626Z" fill="white"/>
</svg>
