<svg width="256" height="256" viewBox="0 0 256 256" fill="none" xmlns="http://www.w3.org/2000/svg">
<path d="M117.926 0.065801C118.524 0.00283866 123.718 -0.0286425 129.417 0.0343198C136.878 0.0972822 140.908 0.254688 143.678 0.632462C169.305 4.06391 191.469 13.7601 210.956 30.0674C214.608 33.0896 222.92 41.4006 225.942 45.0524C242.313 64.6022 251.884 86.5446 255.41 112.517C256.197 118.278 256.197 137.733 255.41 143.494C251.884 169.466 242.313 191.408 225.942 210.958C222.92 214.61 214.608 222.921 210.956 225.943C191.406 242.314 169.462 251.884 143.489 255.41C137.728 256.197 118.272 256.197 112.511 255.41C86.5375 251.884 64.5942 242.314 45.0436 225.943C41.3916 222.921 33.0802 214.61 30.0579 210.958C13.687 191.408 4.11634 169.466 0.590297 143.494C-0.196766 137.733 -0.196766 118.278 0.590297 112.517C4.11634 86.5446 13.687 64.6022 30.0579 45.0524C33.0802 41.4006 41.3916 33.0896 45.0436 30.0674C64.8146 13.5083 89.0561 3.088 113.675 0.506538C115.407 0.349132 117.327 0.128763 117.926 0.065801ZM125.009 92.589C118.524 91.6131 109.961 91.739 103.916 92.8723C84.9319 96.4612 66.4202 106.693 57.4477 118.498C55.4328 121.142 53.229 125.676 52.442 128.792C51.7179 131.626 51.5605 136.663 52.1272 139.181C53.1661 143.84 56.6606 147.776 62.359 150.735C67.3017 153.285 73.2204 155.52 76.5261 156.118C82.6022 157.22 91.3544 157.566 96.9897 156.968C105.144 156.118 119.279 152.309 126.331 149.066C127.811 148.405 129.417 147.839 129.952 147.839C133.037 147.839 135.461 151.176 134.108 153.505C133.352 154.733 128.409 157.22 122.711 159.203C119.594 160.274 118.87 160.62 119.027 161.029C119.783 162.918 121.137 171.481 121.829 178.533C123.057 190.81 123.246 212.942 122.302 230.477C122.113 234.097 121.924 238.725 121.924 240.708L121.861 244.328L129.417 244.297C139.806 244.265 146.606 243.447 157.121 240.865C165.716 238.756 172.233 236.49 179.002 233.215C183.881 230.854 183.472 231.61 183.126 226.069C182.937 223.456 182.717 219.206 182.622 216.625C182.276 207.716 180.67 185.962 179.442 173.968C176.735 147.209 174.594 137.229 169.085 125.959C165.307 118.215 161.277 112.737 154.729 106.472C150.321 102.254 148.432 100.837 144.465 98.7908C138.326 95.6427 132.124 93.6594 125.009 92.589ZM79.5799 222.827C78.3521 222.701 78.3836 222.449 79.0447 228.934C79.4225 232.523 79.6743 233.719 80.0521 234.003C81.3429 234.978 81.4374 234.632 81.217 229.91C81.0911 227.454 80.9022 224.873 80.8077 224.18C80.6188 223.047 80.4929 222.921 79.5799 222.827ZM64.972 202.616C64.2794 202.616 64.2479 203.245 64.8461 208.755C65.098 210.99 65.3813 214.327 65.5072 216.153C65.6332 217.979 65.9165 220.938 66.1369 222.764C66.3887 224.558 66.5147 226.132 66.4517 226.258C66.2943 226.447 67.0184 227.171 67.8369 227.643C68.3721 227.958 68.2777 226.321 67.0814 214.264C66.6721 209.856 66.2943 205.606 66.2943 204.788C66.2943 204.001 66.1369 203.214 65.9165 202.994C65.6961 202.773 65.2868 202.616 64.972 202.616ZM192.854 184.734C192.571 184.703 192.256 184.766 192.13 184.892C191.878 185.112 192.193 224.999 192.413 225.251C192.508 225.345 192.791 225.125 193.106 224.779C193.61 224.212 193.641 222.795 193.484 204.505C193.358 187.064 193.263 184.829 192.854 184.734ZM89.6339 190.339L88.5524 190.338L88.7728 192.92C89.6228 203.686 90.3154 210.675 90.5358 210.895C90.6618 211.053 91.1025 211.084 91.4803 210.958C92.1729 210.738 92.1729 210.643 91.984 207.684C91.6692 203.277 90.8821 193.927 90.6618 191.975C90.5043 190.401 90.4414 190.338 89.5284 190.338L89.6339 190.339ZM40.9194 170.473C40.6046 169.938 39.849 170.19 39.849 170.851C39.849 171.229 40.3212 175.227 40.9194 179.76C41.9583 187.757 43.3121 200.821 43.3121 202.805C43.3121 203.529 43.5324 203.938 44.1306 204.347L44.9177 204.851L44.7603 203.497C44.6658 202.742 44.225 198.744 43.7843 194.588C42.3046 180.831 41.1083 170.757 40.9194 170.473ZM222.605 170.505C222.479 170.505 221.849 171.04 221.22 171.67L220.055 172.866L219.992 186.371C219.897 201.105 219.803 200.601 221.597 197.957L222.385 196.792L222.605 183.633C222.699 176.423 222.699 170.505 222.605 170.505ZM100.106 164.429C99.9491 163.957 99.0361 163.674 98.6898 164.051C98.5953 164.114 98.7842 166.979 99.0676 170.411C99.3824 173.842 99.8546 179.697 100.106 183.412C100.799 192.384 100.862 192.857 101.46 192.857C101.995 192.857 101.964 191.251 101.082 178.533C100.831 175.07 100.547 170.599 100.453 168.616C100.327 166.633 100.169 164.744 100.106 164.429ZM27.0986 137.67C26.8782 135.907 26.5948 135.592 25.7448 136.159C25.3355 136.411 25.3041 136.19 30.2153 170.127C30.9709 175.385 31.695 179.76 31.7895 179.855C32.545 180.642 32.4191 178.785 30.7191 165.783C29.5857 157.377 27.3819 140.252 27.0986 137.67ZM234.411 110.376C234.199 110.376 234.104 113.689 234.096 120.315L234.096 121.142C234.065 127.092 234.002 133.924 233.939 136.348C233.876 138.772 233.718 149.192 233.655 159.487C233.466 180.075 233.372 179.131 235.324 174.44C236.52 171.575 236.552 170.599 236.804 137.387L237.024 111.32L235.891 110.848C235.261 110.596 234.6 110.376 234.411 110.376ZM73.9445 163.579C73.0945 163.579 73.0945 163.516 73.5353 169.151C73.9515 174.384 73.9466 174.591 75.0586 174.597L75.3335 174.598C76.5553 174.612 76.4863 174.962 76.0224 168.931C75.739 165.531 75.5187 164.272 75.1724 163.957C74.889 163.768 74.3538 163.579 73.9445 163.579ZM47.3733 148.94L47.5622 150.514C47.6501 151.306 47.9564 154.171 48.2777 157.078L48.3493 157.724C48.6641 160.809 49.0734 163.485 49.2308 163.642C49.7345 164.146 50.8679 163.327 50.8679 162.446C50.8679 161.407 49.9549 152.875 49.766 152.088C49.6715 151.742 49.1048 150.892 48.4752 150.2L47.3733 148.94ZM29.3338 66.0504C29.1449 65.8615 27.2875 68.8207 27.0671 69.6707C26.9726 70.08 27.3189 73.8892 27.8856 78.1706C28.4208 82.4836 29.2709 89.1576 29.7746 93.0612C30.2783 96.9649 31.1913 104.048 31.8209 108.802C32.4191 113.555 33.2691 120.135 33.7099 123.441C35.8192 139.842 36.7637 147.146 37.3304 151.459C37.6767 154.04 37.96 156.433 37.96 156.716C37.96 157.377 38.2749 157.44 39.0304 156.874C39.5342 156.496 39.5342 156.244 39.0934 152.561C38.8415 150.388 38.4008 146.579 38.1489 144.061C37.8656 141.542 36.3859 128.1 34.8118 114.154C33.2377 100.207 31.4117 83.7113 30.7191 77.5095C30.0264 71.2762 29.3968 66.1448 29.3338 66.0504ZM205.384 40.0784L205.573 44.6117C205.667 47.0987 205.825 67.6244 205.951 90.2279C206.108 127.533 206.171 131.342 206.643 131.689C206.927 131.909 207.399 132.098 207.745 132.098C208.312 132.098 208.312 130.965 208.217 87.3002C208.123 49.2709 208.06 42.3765 207.682 41.9358C207.43 41.6525 206.832 41.1173 206.297 40.7395L205.384 40.0784ZM46.177 115.917C46.0825 115.854 45.5158 116.105 44.9806 116.483C43.7843 117.239 43.7843 117.459 44.3825 122.496L44.7603 125.644L45.7677 123.504C46.6807 121.489 46.7437 121.237 46.5548 118.687C46.4603 117.239 46.2714 115.98 46.177 115.917ZM19.9835 84.2465C19.8891 84.2465 19.4798 85.1909 19.102 86.3557L18.3779 88.4965L20.6132 103.922C21.8725 112.391 23.0373 120.481 23.2262 121.867C23.4151 123.252 23.667 124.511 23.7929 124.637C23.9188 124.763 24.2966 124.637 24.6744 124.322L25.3355 123.755L24.7374 119.348C24.3911 116.924 23.6355 111.1 23.0373 106.441C22.4392 101.75 21.5576 94.8557 21.0854 91.0779C20.5817 87.3317 20.1095 84.2465 19.9835 84.2465ZM220.559 93.0612C220.37 93.0612 220.244 98.6649 220.244 108.613L220.244 109.947C220.248 122.607 220.321 124.201 220.747 124.354C221.44 124.605 223.077 124.574 223.109 124.291C223.266 123.472 223.455 103.828 223.392 95.2334C223.392 94.1631 223.266 94.0372 222.133 93.5649C221.44 93.2816 220.716 93.0612 220.559 93.0612ZM192.445 86.4502H191.437L191.532 102.726C191.654 120.071 191.628 120.147 193.379 120.136L194.428 120.135L194.428 103.33C194.427 89.3042 194.36 87.3898 193.924 86.9539C193.673 86.6705 192.98 86.4502 192.445 86.4502ZM90.9136 110.691C93.81 108.928 97.7768 111.257 97.7768 114.72C97.7768 118.309 93.9044 120.67 90.9136 118.876C87.8913 117.018 87.8913 112.548 90.9136 110.691ZM69.5685 107.669C73.4093 106 76.9983 110.156 74.7946 113.744C73.6297 115.696 71.363 116.231 69.1277 115.098C66.0424 113.524 66.2943 109.085 69.5685 107.669ZM53.1031 62.0837C52.8827 61.5171 52.7568 61.5486 51.6549 62.5874L50.4271 63.7208L51.3086 72.7873C51.7808 77.7929 52.7253 87.2057 53.3865 93.6909C54.0476 100.176 54.6772 106.598 54.8032 107.983L55.0236 110.47L56.2199 109.243L57.4477 108.015L56.3773 96.3668C55.7791 89.9446 54.8661 79.7447 54.2995 73.7003C53.7643 67.6244 53.229 62.3986 53.1031 62.0837ZM177.428 47.7283V101.278L178.561 101.75C179.191 102.002 179.757 102.159 179.82 102.096C179.978 101.97 179.946 59.3134 179.789 52.3561C179.757 50.3098 179.6 48.5153 179.442 48.3894C179.285 48.232 178.781 48.0431 178.309 47.9172L177.428 47.7283ZM119.5 11.2101L118.65 11.2416C118.146 11.2731 117.359 11.3675 116.887 11.4305L116.005 11.5564L116.194 18.5453C116.383 24.9045 118.24 68.38 118.807 79.5873C118.933 82.1373 119.153 84.3095 119.248 84.4354C119.374 84.5298 120.098 84.7187 120.885 84.7817L122.302 84.9391L122.144 82.641C121.987 80.3428 120.948 54.5597 120.602 44.7376C120.507 41.9673 120.287 36.6469 120.098 32.9322C119.752 25.3452 119.5 17.349 119.5 13.6657V11.2101ZM39.7545 51.9468C39.4397 51.6005 37.0156 54.7801 37.0156 55.5357C37.0156 56.7949 40.1638 84.6558 40.3212 84.8132C40.5731 85.065 42.9972 83.8687 42.9972 83.491C42.9972 83.3021 42.5565 78.8947 42.0213 73.7003C41.5176 68.5059 40.8249 61.5171 40.4786 58.1801C40.1638 54.8116 39.849 52.0098 39.7545 51.9468ZM76.8094 23.4563C76.5891 23.0471 76.0224 23.1415 75.0149 23.6767C74.1964 24.1174 74.1649 24.2434 74.3223 25.6285C74.4168 26.447 75.0464 33.971 75.739 42.3765C76.9354 56.669 78.6354 76.4392 79.0762 80.5317C79.1706 81.5391 79.3595 82.3576 79.454 82.3576C79.5799 82.3576 80.1466 82.0743 80.7133 81.728C81.7207 81.0984 81.7522 81.0354 81.5948 79.4299C81.5003 78.5484 80.9022 71.4966 80.304 63.7837C78.478 41.0858 76.9983 23.7397 76.8094 23.4563ZM162.316 60.9504H161.592L161.781 67.9392C161.907 71.8114 162.001 76.1873 162.001 77.6984V80.4058L162.977 80.7521C164.677 81.3502 165.023 80.878 164.96 78.0447C164.96 76.691 164.897 72.5355 164.866 68.8207L164.835 62.0208L163.922 61.4856C163.418 61.2023 162.694 60.9504 162.316 60.9504ZM92.0155 48.7042C91.2599 48.7672 89.6228 49.3339 89.4654 49.5542C89.308 49.8061 90.4099 65.2948 90.7247 67.1522C90.8506 68.0966 90.9766 68.1911 91.9211 68.1911C93.7156 68.1911 93.7785 67.8448 93.4007 62.3041C93.2118 59.5652 92.9914 56.0394 92.897 54.4968C92.8026 52.9227 92.6451 51.0024 92.5507 50.1524C92.4563 49.3339 92.2044 48.6728 92.0155 48.7042ZM131.778 39.134V41.4636C131.778 43.7302 132.722 67.0578 132.817 67.1207C132.848 67.1522 133.541 67.2467 134.391 67.3411L135.871 67.5615L135.839 62.9023C135.808 55.1579 135.367 39.8895 135.178 39.7006C135.084 39.6062 134.297 39.4488 133.384 39.3228L131.778 39.134ZM105.332 30.9362C105.326 29.7842 105.252 29.7866 104.325 29.8155C103.758 29.8155 102.877 29.9729 102.373 30.1618C101.523 30.4766 101.492 30.5396 101.681 32.1137C101.77 32.9462 102.056 36.6709 102.299 40.5829L102.342 41.2747C102.594 45.4302 102.971 50.8764 103.129 53.3949C103.318 55.9134 103.475 58.6523 103.538 59.5338C103.601 61.1078 103.601 61.1078 104.64 61.0763C106.749 60.9504 106.686 61.1393 106.466 55.6616C106.34 52.9542 106.057 46.6894 105.805 41.7469C105.553 36.8043 105.333 32.1137 105.333 31.2637L105.332 30.9362ZM147.928 12.5324C146.606 12.312 146.26 12.3435 146.134 12.6898C145.945 13.162 146.165 32.0822 146.417 37.6543C146.48 39.4802 146.638 45.0839 146.764 50.1524L146.984 59.3134L148.432 59.4393C149.219 59.5338 150.006 59.5338 150.132 59.4393C150.29 59.3764 150.321 58.369 150.227 57.2042C150.132 56.0708 149.975 45.6506 149.849 34.034C149.754 22.4489 149.66 12.9416 149.628 12.9101C149.597 12.8786 148.841 12.7212 147.928 12.5324ZM192.665 35.5766C191.374 35.0414 191.374 35.0414 191.248 35.5136C191.185 35.734 191.154 40.6136 191.217 46.3746L191.311 56.8264L192.634 57.456L193.956 58.1171L194.05 51.2542C194.113 47.5079 194.05 42.5339 193.956 40.2358L193.735 36.0173L192.665 35.5766ZM163.481 29.784C161.327 29.0561 161.365 28.4743 161.371 37.5817L161.372 38.9987C161.376 43.9269 161.468 48.2089 161.56 48.5783C161.718 49.1765 163.607 50.2468 164.52 50.2468C164.866 50.2468 164.96 35.1988 164.646 32.0507C164.457 30.2563 164.362 30.0989 163.481 29.784Z" fill="#222222"/>
</svg>
