<?xml version="1.0" encoding="UTF-8"?>
<!DOCTYPE svg PUBLIC "-//W3C//DTD SVG 1.1//EN" "http://www.w3.org/Graphics/SVG/1.1/DTD/svg11.dtd">
<svg xmlns="http://www.w3.org/2000/svg" version="1.1" width="264px" height="241px" style="shape-rendering:geometricPrecision; text-rendering:geometricPrecision; image-rendering:optimizeQuality; fill-rule:evenodd; clip-rule:evenodd" xmlns:xlink="http://www.w3.org/1999/xlink">
<g><path style="opacity:1" fill="#f6f6f6" d="M -0.5,-0.5 C 38.5,-0.5 77.5,-0.5 116.5,-0.5C 116.5,3.83333 116.5,8.16667 116.5,12.5C 119.833,12.5 123.167,12.5 126.5,12.5C 126.5,16.1667 126.5,19.8333 126.5,23.5C 123.167,23.5 119.833,23.5 116.5,23.5C 116.663,25.8568 116.497,28.1902 116,30.5C 112.751,28.7112 109.418,28.3779 106,29.5C 105.505,27.5273 105.338,25.5273 105.5,23.5C 102.167,23.5 98.8333,23.5 95.5,23.5C 95.2161,26.7766 95.5495,29.9433 96.5,33C 92.5138,33.4988 88.5138,33.6655 84.5,33.5C 84.5,37.1667 84.5,40.8333 84.5,44.5C 81.1667,44.5 77.8333,44.5 74.5,44.5C 74.5,47.8333 74.5,51.1667 74.5,54.5C 77.8333,54.5 81.1667,54.5 84.5,54.5C 84.6633,56.8568 84.4966,59.1902 84,61.5C 80.8688,63.9762 77.7021,65.6429 74.5,66.5C 74.7093,67.086 75.0426,67.586 75.5,68C 73.7905,69.9157 72.4572,72.0824 71.5,74.5C 68.9135,75.48 66.2469,75.8134 63.5,75.5C 63.5,79.1667 63.5,82.8333 63.5,86.5C 60.1667,86.5 56.8333,86.5 53.5,86.5C 53.5,89.8333 53.5,93.1667 53.5,96.5C 56.8333,96.5 60.1667,96.5 63.5,96.5C 63.5,100.167 63.5,103.833 63.5,107.5C 67.1667,107.5 70.8333,107.5 74.5,107.5C 74.5,110.833 74.5,114.167 74.5,117.5C 77.8333,117.5 81.1667,117.5 84.5,117.5C 84.5,121.167 84.5,124.833 84.5,128.5C 81.1667,128.5 77.8333,128.5 74.5,128.5C 74.5,131.833 74.5,135.167 74.5,138.5C 77.8333,138.5 81.1667,138.5 84.5,138.5C 84.5,142.167 84.5,145.833 84.5,149.5C 88.0297,150.011 91.1963,149.344 94,147.5C 94.956,148.579 95.7894,149.745 96.5,151C 95.5562,153.719 95.2229,156.552 95.5,159.5C 98.1873,159.664 100.854,159.497 103.5,159C 102.66,157.334 103.16,157.167 105,158.5C 105.499,162.486 105.666,166.486 105.5,170.5C 109.167,170.5 112.833,170.5 116.5,170.5C 116.5,173.833 116.5,177.167 116.5,180.5C 119.833,180.5 123.167,180.5 126.5,180.5C 126.5,184.167 126.5,187.833 126.5,191.5C 126.672,192.492 126.338,193.158 125.5,193.5C 123.958,192.699 122.292,192.366 120.5,192.5C 115.36,191.512 110.026,191.179 104.5,191.5C 104.5,193.167 104.5,194.833 104.5,196.5C 109.5,196.5 114.5,196.5 119.5,196.5C 121.017,196.511 122.184,197.177 123,198.5C 123.497,200.81 123.663,203.143 123.5,205.5C 117.338,205.638 111.338,206.638 105.5,208.5C 105.5,206.167 105.5,203.833 105.5,201.5C 102.833,201.5 100.167,201.5 97.5,201.5C 97.8235,194.978 97.4902,188.645 96.5,182.5C 94.8333,182.5 93.1667,182.5 91.5,182.5C 90.5233,185.287 90.19,188.287 90.5,191.5C 88.5,191.5 86.5,191.5 84.5,191.5C 84.5,187.833 84.5,184.167 84.5,180.5C 81.1667,180.5 77.8333,180.5 74.5,180.5C 74.5,184.167 74.5,187.833 74.5,191.5C 62.4734,191.025 56.4734,196.859 56.5,209C 56.6458,214.083 57.8125,218.916 60,223.5C 61.5793,225.041 63.4127,226.208 65.5,227C 71.5219,227.575 77.5219,227.409 83.5,226.5C 83.5,225.167 83.5,223.833 83.5,222.5C 80.5,222.5 77.5,222.5 74.5,222.5C 74.5,219.167 74.5,215.833 74.5,212.5C 77.8333,212.5 81.1667,212.5 84.5,212.5C 84.5,215.833 84.5,219.167 84.5,222.5C 86.5,222.5 88.5,222.5 90.5,222.5C 89.4251,226.938 91.0917,228.938 95.5,228.5C 95.5,230.167 95.5,231.833 95.5,233.5C 98.8333,233.5 102.167,233.5 105.5,233.5C 105.5,235.833 105.5,238.167 105.5,240.5C 70.1667,240.5 34.8333,240.5 -0.5,240.5C -0.5,160.167 -0.5,79.8333 -0.5,-0.5 Z"/></g>
<g><path style="opacity:1" fill="#f7f7f7" d="M 179.5,-0.5 C 207.5,-0.5 235.5,-0.5 263.5,-0.5C 263.5,31.8333 263.5,64.1667 263.5,96.5C 259.833,96.5 256.167,96.5 252.5,96.5C 252.5,93.1667 252.5,89.8333 252.5,86.5C 249.167,86.5 245.833,86.5 242.5,86.5C 242.5,82.8333 242.5,79.1667 242.5,75.5C 238.833,75.5 235.167,75.5 231.5,75.5C 231.5,72.1667 231.5,68.8333 231.5,65.5C 228.167,65.5 224.833,65.5 221.5,65.5C 221.5,61.8333 221.5,58.1667 221.5,54.5C 217.833,54.5 214.167,54.5 210.5,54.5C 210.5,51.1667 210.5,47.8333 210.5,44.5C 207.167,44.5 203.833,44.5 200.5,44.5C 200.5,40.8333 200.5,37.1667 200.5,33.5C 195.774,34.3829 191.774,33.2162 188.5,30C 189.423,27.9592 189.756,25.7925 189.5,23.5C 187.473,23.3379 185.473,23.5045 183.5,24C 184.696,24.6543 184.696,25.1543 183.5,25.5C 181.972,24.1387 180.305,22.972 178.5,22C 179.481,14.5871 179.814,7.08713 179.5,-0.5 Z"/></g>
<g><path style="opacity:1" fill="#f8f9f9" d="M 116.5,-0.5 C 137.5,-0.5 158.5,-0.5 179.5,-0.5C 179.814,7.08713 179.481,14.5871 178.5,22C 180.305,22.972 181.972,24.1387 183.5,25.5C 184.696,25.1543 184.696,24.6543 183.5,24C 185.473,23.5045 187.473,23.3379 189.5,23.5C 189.756,25.7925 189.423,27.9592 188.5,30C 191.774,33.2162 195.774,34.3829 200.5,33.5C 200.5,37.1667 200.5,40.8333 200.5,44.5C 203.833,44.5 207.167,44.5 210.5,44.5C 210.5,47.8333 210.5,51.1667 210.5,54.5C 214.167,54.5 217.833,54.5 221.5,54.5C 221.5,58.1667 221.5,61.8333 221.5,65.5C 224.833,65.5 228.167,65.5 231.5,65.5C 231.5,68.8333 231.5,72.1667 231.5,75.5C 235.167,75.5 238.833,75.5 242.5,75.5C 242.5,79.1667 242.5,82.8333 242.5,86.5C 245.833,86.5 249.167,86.5 252.5,86.5C 252.5,89.8333 252.5,93.1667 252.5,96.5C 256.167,96.5 259.833,96.5 263.5,96.5C 263.5,135.167 263.5,173.833 263.5,212.5C 259.833,212.5 256.167,212.5 252.5,212.5C 252.5,208.833 252.5,205.167 252.5,201.5C 249.167,201.5 245.833,201.5 242.5,201.5C 242.5,198.167 242.5,194.833 242.5,191.5C 238.833,191.5 235.167,191.5 231.5,191.5C 231.5,187.833 231.5,184.167 231.5,180.5C 228.167,180.5 224.833,180.5 221.5,180.5C 221.5,184.167 221.5,187.833 221.5,191.5C 213.887,191.127 208.887,194.46 206.5,201.5C 204.5,201.5 202.5,201.5 200.5,201.5C 200.5,198.167 200.5,194.833 200.5,191.5C 203.833,191.5 207.167,191.5 210.5,191.5C 210.5,187.833 210.5,184.167 210.5,180.5C 207.167,180.5 203.833,180.5 200.5,180.5C 200.5,177.167 200.5,173.833 200.5,170.5C 196.833,170.5 193.167,170.5 189.5,170.5C 189.5,173.833 189.5,177.167 189.5,180.5C 186.167,180.5 182.833,180.5 179.5,180.5C 179.5,184.167 179.5,187.833 179.5,191.5C 178.5,191.5 177.5,191.5 176.5,191.5C 176.81,188.287 176.477,185.287 175.5,182.5C 174.081,181.549 172.415,181.216 170.5,181.5C 169.679,184.641 169.179,187.975 169,191.5C 168.501,187.848 168.335,184.182 168.5,180.5C 165.167,180.5 161.833,180.5 158.5,180.5C 158.5,184.167 158.5,187.833 158.5,191.5C 156.833,191.5 155.167,191.5 153.5,191.5C 151.5,191.5 149.5,191.5 147.5,191.5C 147.5,187.833 147.5,184.167 147.5,180.5C 144.167,180.5 140.833,180.5 137.5,180.5C 137.5,184.167 137.5,187.833 137.5,191.5C 133.833,191.5 130.167,191.5 126.5,191.5C 126.5,187.833 126.5,184.167 126.5,180.5C 123.167,180.5 119.833,180.5 116.5,180.5C 116.5,177.167 116.5,173.833 116.5,170.5C 112.833,170.5 109.167,170.5 105.5,170.5C 105.666,166.486 105.499,162.486 105,158.5C 103.16,157.167 102.66,157.334 103.5,159C 100.854,159.497 98.1873,159.664 95.5,159.5C 95.2229,156.552 95.5562,153.719 96.5,151C 95.7894,149.745 94.956,148.579 94,147.5C 91.1963,149.344 88.0297,150.011 84.5,149.5C 84.5,145.833 84.5,142.167 84.5,138.5C 81.1667,138.5 77.8333,138.5 74.5,138.5C 74.5,135.167 74.5,131.833 74.5,128.5C 77.8333,128.5 81.1667,128.5 84.5,128.5C 84.5,124.833 84.5,121.167 84.5,117.5C 81.1667,117.5 77.8333,117.5 74.5,117.5C 74.5,114.167 74.5,110.833 74.5,107.5C 70.8333,107.5 67.1667,107.5 63.5,107.5C 63.5,103.833 63.5,100.167 63.5,96.5C 60.1667,96.5 56.8333,96.5 53.5,96.5C 53.5,93.1667 53.5,89.8333 53.5,86.5C 56.8333,86.5 60.1667,86.5 63.5,86.5C 63.5,82.8333 63.5,79.1667 63.5,75.5C 66.2469,75.8134 68.9135,75.48 71.5,74.5C 72.4572,72.0824 73.7905,69.9157 75.5,68C 75.0426,67.586 74.7093,67.086 74.5,66.5C 77.7021,65.6429 80.8688,63.9762 84,61.5C 84.4966,59.1902 84.6633,56.8568 84.5,54.5C 81.1667,54.5 77.8333,54.5 74.5,54.5C 74.5,51.1667 74.5,47.8333 74.5,44.5C 77.8333,44.5 81.1667,44.5 84.5,44.5C 84.5,40.8333 84.5,37.1667 84.5,33.5C 88.5138,33.6655 92.5138,33.4988 96.5,33C 95.5495,29.9433 95.2161,26.7766 95.5,23.5C 98.8333,23.5 102.167,23.5 105.5,23.5C 105.338,25.5273 105.505,27.5273 106,29.5C 109.418,28.3779 112.751,28.7112 116,30.5C 116.497,28.1902 116.663,25.8568 116.5,23.5C 119.833,23.5 123.167,23.5 126.5,23.5C 126.5,19.8333 126.5,16.1667 126.5,12.5C 123.167,12.5 119.833,12.5 116.5,12.5C 116.5,8.16667 116.5,3.83333 116.5,-0.5 Z"/></g>
<g><path style="opacity:1" fill="#ffda09" d="M 151.5,21.5 C 173.264,20.7942 187.43,30.7942 194,51.5C 194.667,56.5 194.667,61.5 194,66.5C 182.913,76.762 171.413,86.4287 159.5,95.5C 148.594,91.1448 137.928,86.3115 127.5,81C 124.747,76.3291 122.414,71.4958 120.5,66.5C 122.348,56.4075 124.514,46.4075 127,36.5C 133.47,28.5243 141.637,23.5243 151.5,21.5 Z"/></g>
<g><path style="opacity:1" fill="#ff129b" d="M 104.5,34.5 C 107.85,34.335 111.183,34.5017 114.5,35C 117.042,35.5456 119.042,36.8789 120.5,39C 118.593,47.1274 116.926,55.2941 115.5,63.5C 107.823,62.5317 100.323,60.865 93,58.5C 89.8874,47.1265 93.7208,39.1265 104.5,34.5 Z"/></g>
<g><path style="opacity:1" fill="#0da7df" d="M 87.5,64.5 C 96.9208,65.4455 106.254,67.2788 115.5,70C 117.764,73.8606 119.764,77.8606 121.5,82C 110.975,92.1928 100.141,102.026 89,111.5C 73.8381,102.833 69.8381,90.4993 77,74.5C 79.8209,70.3601 83.3209,67.0268 87.5,64.5 Z"/></g>
<g><path style="opacity:1" fill="#087aa3" d="M 196.5,71.5 C 212.518,79.0418 217.018,91.0418 210,107.5C 205.579,115.124 199.079,118.624 190.5,118C 183.775,116.355 177.108,114.522 170.5,112.5C 168.068,108.316 166.235,103.983 165,99.5C 175.694,90.3013 186.194,80.9679 196.5,71.5 Z"/></g>
<g><path style="opacity:1" fill="#07c6b0" d="M 124.5,86.5 C 135.583,91.0679 146.583,95.9012 157.5,101C 161.003,105.668 164.003,110.668 166.5,116C 164.464,125.843 162.298,135.676 160,145.5C 146.834,161.428 130.667,165.261 111.5,157C 96.4535,147.215 90.2868,133.382 93,115.5C 103.996,106.335 114.496,96.6688 124.5,86.5 Z"/></g>
<g><path style="opacity:1" fill="#69d840" d="M 170.5,119.5 C 178.436,120.776 186.269,122.443 194,124.5C 196.518,138.493 190.685,146.493 176.5,148.5C 172.053,148.448 168.72,146.615 166.5,143C 168.287,135.233 169.62,127.4 170.5,119.5 Z"/></g>
<g><path style="opacity:1" fill="#302a2c" d="M 74.5,191.5 C 83.0577,195.28 86.391,201.947 84.5,211.5C 76.8333,211.5 69.1667,211.5 61.5,211.5C 61.215,220.533 65.5483,224.2 74.5,222.5C 77.5,222.5 80.5,222.5 83.5,222.5C 83.5,223.833 83.5,225.167 83.5,226.5C 77.5219,227.409 71.5219,227.575 65.5,227C 63.4127,226.208 61.5793,225.041 60,223.5C 57.8125,218.916 56.6458,214.083 56.5,209C 56.4734,196.859 62.4734,191.025 74.5,191.5 Z"/></g>
<g><path style="opacity:1" fill="#ededed" d="M 65.5,196.5 C 75.0006,194.352 79.6673,198.019 79.5,207.5C 73.5,207.5 67.5,207.5 61.5,207.5C 61.2663,203.196 62.5996,199.529 65.5,196.5 Z"/></g>
<g><path style="opacity:1" fill="#f2f2f2" d="M 206.5,201.5 C 205.665,209.206 206.831,216.539 210,223.5C 211.579,225.041 213.413,226.208 215.5,227C 220.194,227.564 224.86,227.397 229.5,226.5C 229.5,225.167 229.5,223.833 229.5,222.5C 217.199,225.883 211.199,221.383 211.5,209C 211.091,204.918 212.091,201.251 214.5,198C 219.372,196.612 224.372,196.112 229.5,196.5C 229.5,195.167 229.5,193.833 229.5,192.5C 226.763,192.599 224.096,192.265 221.5,191.5C 221.5,187.833 221.5,184.167 221.5,180.5C 224.833,180.5 228.167,180.5 231.5,180.5C 231.5,184.167 231.5,187.833 231.5,191.5C 235.167,191.5 238.833,191.5 242.5,191.5C 242.5,194.833 242.5,198.167 242.5,201.5C 245.833,201.5 249.167,201.5 252.5,201.5C 252.5,205.167 252.5,208.833 252.5,212.5C 256.167,212.5 259.833,212.5 263.5,212.5C 263.5,221.833 263.5,231.167 263.5,240.5C 210.833,240.5 158.167,240.5 105.5,240.5C 105.5,238.167 105.5,235.833 105.5,233.5C 102.167,233.5 98.8333,233.5 95.5,233.5C 95.5,231.833 95.5,230.167 95.5,228.5C 91.0917,228.938 89.4251,226.938 90.5,222.5C 88.5,222.5 86.5,222.5 84.5,222.5C 84.5,219.167 84.5,215.833 84.5,212.5C 81.1667,212.5 77.8333,212.5 74.5,212.5C 74.5,215.833 74.5,219.167 74.5,222.5C 65.5483,224.2 61.215,220.533 61.5,211.5C 69.1667,211.5 76.8333,211.5 84.5,211.5C 86.391,201.947 83.0577,195.28 74.5,191.5C 74.5,187.833 74.5,184.167 74.5,180.5C 77.8333,180.5 81.1667,180.5 84.5,180.5C 84.5,184.167 84.5,187.833 84.5,191.5C 86.5,191.5 88.5,191.5 90.5,191.5C 90.19,188.287 90.5233,185.287 91.5,182.5C 91.5,197.167 91.5,211.833 91.5,226.5C 93.1667,226.5 94.8333,226.5 96.5,226.5C 96.5,211.833 96.5,197.167 96.5,182.5C 97.4902,188.645 97.8235,194.978 97.5,201.5C 100.167,201.5 102.833,201.5 105.5,201.5C 105.5,203.833 105.5,206.167 105.5,208.5C 100.826,215.611 101.826,221.778 108.5,227C 113.959,227.986 119.126,227.153 124,224.5C 126.77,225.348 129.603,225.681 132.5,225.5C 132.5,224.167 132.5,222.833 132.5,221.5C 131.178,221.67 130.011,221.337 129,220.5C 128.667,212.5 128.333,204.5 128,196.5C 126.955,195.627 126.122,194.627 125.5,193.5C 126.338,193.158 126.672,192.492 126.5,191.5C 130.167,191.5 133.833,191.5 137.5,191.5C 137.5,187.833 137.5,184.167 137.5,180.5C 140.833,180.5 144.167,180.5 147.5,180.5C 147.5,184.167 147.5,187.833 147.5,191.5C 137.925,192.242 134.425,197.242 137,206.5C 139.03,208.737 141.53,210.237 144.5,211C 148.762,210.98 152.595,212.147 156,214.5C 157.271,218.166 156.104,220.666 152.5,222C 147.139,222.609 141.805,222.442 136.5,221.5C 136.5,223.167 136.5,224.833 136.5,226.5C 142.145,227.387 147.812,227.554 153.5,227C 160.739,224.342 163.239,219.175 161,211.5C 160.097,210.299 158.931,209.465 157.5,209C 152.469,207.794 147.469,206.46 142.5,205C 140.987,202.084 141.32,199.418 143.5,197C 149.157,196.501 154.824,196.334 160.5,196.5C 160.5,195.167 160.5,193.833 160.5,192.5C 157.941,192.802 155.607,192.468 153.5,191.5C 155.167,191.5 156.833,191.5 158.5,191.5C 158.5,187.833 158.5,184.167 158.5,180.5C 161.833,180.5 165.167,180.5 168.5,180.5C 168.335,184.182 168.501,187.848 169,191.5C 169.179,187.975 169.679,184.641 170.5,181.5C 170.5,185.167 170.5,188.833 170.5,192.5C 168.833,192.5 167.167,192.5 165.5,192.5C 165.5,193.833 165.5,195.167 165.5,196.5C 167.167,196.5 168.833,196.5 170.5,196.5C 170.086,205.582 170.586,214.582 172,223.5C 175.71,227.57 180.21,228.57 185.5,226.5C 186.429,225.311 186.762,223.978 186.5,222.5C 183.482,222.665 180.482,222.498 177.5,222C 176.663,220.989 176.33,219.822 176.5,218.5C 176.5,211.5 176.5,204.5 176.5,197.5C 180.042,197.813 183.375,197.479 186.5,196.5C 186.5,195.167 186.5,193.833 186.5,192.5C 182.833,192.5 179.167,192.5 175.5,192.5C 175.5,189.167 175.5,185.833 175.5,182.5C 176.477,185.287 176.81,188.287 176.5,191.5C 177.5,191.5 178.5,191.5 179.5,191.5C 179.5,187.833 179.5,184.167 179.5,180.5C 182.833,180.5 186.167,180.5 189.5,180.5C 189.5,177.167 189.5,173.833 189.5,170.5C 193.167,170.5 196.833,170.5 200.5,170.5C 200.5,173.833 200.5,177.167 200.5,180.5C 203.833,180.5 207.167,180.5 210.5,180.5C 210.5,184.167 210.5,187.833 210.5,191.5C 207.167,191.5 203.833,191.5 200.5,191.5C 200.5,194.833 200.5,198.167 200.5,201.5C 202.5,201.5 204.5,201.5 206.5,201.5 Z"/></g>
<g><path style="opacity:1" fill="#c8cdca" d="M 193.5,192.5 C 193.5,203.833 193.5,215.167 193.5,226.5C 195.167,226.5 196.833,226.5 198.5,226.5C 198.5,215.167 198.5,203.833 198.5,192.5C 199.495,203.988 199.828,215.655 199.5,227.5C 197.167,227.5 194.833,227.5 192.5,227.5C 192.172,215.655 192.505,203.988 193.5,192.5 Z"/></g>
<g><path style="opacity:1" fill="#b5bbb7" d="M 186.5,196.5 C 183.375,197.479 180.042,197.813 176.5,197.5C 176.5,204.5 176.5,211.5 176.5,218.5C 175.508,211.352 175.175,204.019 175.5,196.5C 179.167,196.5 182.833,196.5 186.5,196.5 Z"/></g>
<g><path style="opacity:1" fill="#262022" d="M 193.5,192.5 C 195.167,192.5 196.833,192.5 198.5,192.5C 198.5,203.833 198.5,215.167 198.5,226.5C 196.833,226.5 195.167,226.5 193.5,226.5C 193.5,215.167 193.5,203.833 193.5,192.5 Z"/></g>
<g><path style="opacity:1" fill="#2e292b" d="M 221.5,191.5 C 224.096,192.265 226.763,192.599 229.5,192.5C 229.5,193.833 229.5,195.167 229.5,196.5C 224.372,196.112 219.372,196.612 214.5,198C 212.091,201.251 211.091,204.918 211.5,209C 211.199,221.383 217.199,225.883 229.5,222.5C 229.5,223.833 229.5,225.167 229.5,226.5C 224.86,227.397 220.194,227.564 215.5,227C 213.413,226.208 211.579,225.041 210,223.5C 206.831,216.539 205.665,209.206 206.5,201.5C 208.887,194.46 213.887,191.127 221.5,191.5 Z"/></g>
<g><path style="opacity:1" fill="#312b2d" d="M 147.5,191.5 C 149.5,191.5 151.5,191.5 153.5,191.5C 155.607,192.468 157.941,192.802 160.5,192.5C 160.5,193.833 160.5,195.167 160.5,196.5C 154.824,196.334 149.157,196.501 143.5,197C 141.32,199.418 140.987,202.084 142.5,205C 147.469,206.46 152.469,207.794 157.5,209C 158.931,209.465 160.097,210.299 161,211.5C 163.239,219.175 160.739,224.342 153.5,227C 147.812,227.554 142.145,227.387 136.5,226.5C 136.5,224.833 136.5,223.167 136.5,221.5C 141.805,222.442 147.139,222.609 152.5,222C 156.104,220.666 157.271,218.166 156,214.5C 152.595,212.147 148.762,210.98 144.5,211C 141.53,210.237 139.03,208.737 137,206.5C 134.425,197.242 137.925,192.242 147.5,191.5 Z"/></g>
<g><path style="opacity:1" fill="#2d2829" d="M 120.5,192.5 C 122.292,192.366 123.958,192.699 125.5,193.5C 126.122,194.627 126.955,195.627 128,196.5C 128.333,204.5 128.667,212.5 129,220.5C 130.011,221.337 131.178,221.67 132.5,221.5C 132.5,222.833 132.5,224.167 132.5,225.5C 129.603,225.681 126.77,225.348 124,224.5C 119.126,227.153 113.959,227.986 108.5,227C 101.826,221.778 100.826,215.611 105.5,208.5C 111.338,206.638 117.338,205.638 123.5,205.5C 123.663,203.143 123.497,200.81 123,198.5C 122.184,197.177 121.017,196.511 119.5,196.5C 115.03,195.514 110.363,195.181 105.5,195.5C 105.5,194.5 105.5,193.5 105.5,192.5C 110.5,192.5 115.5,192.5 120.5,192.5 Z"/></g>
<g><path style="opacity:1" fill="#efefef" d="M 117.5,209.5 C 119.5,209.5 121.5,209.5 123.5,209.5C 123.5,213.5 123.5,217.5 123.5,221.5C 118.605,222.514 113.771,222.514 109,221.5C 106.155,213.509 108.988,209.509 117.5,209.5 Z"/></g>
<g><path style="opacity:1" fill="#545452" d="M 120.5,192.5 C 115.5,192.5 110.5,192.5 105.5,192.5C 105.5,193.5 105.5,194.5 105.5,195.5C 110.363,195.181 115.03,195.514 119.5,196.5C 114.5,196.5 109.5,196.5 104.5,196.5C 104.5,194.833 104.5,193.167 104.5,191.5C 110.026,191.179 115.36,191.512 120.5,192.5 Z"/></g>
<g><path style="opacity:1" fill="#302b2d" d="M 193.5,182.5 C 195.167,182.5 196.833,182.5 198.5,182.5C 198.5,184.5 198.5,186.5 198.5,188.5C 196.833,188.5 195.167,188.5 193.5,188.5C 193.5,186.5 193.5,184.5 193.5,182.5 Z"/></g>
<g><path style="opacity:1" fill="#2e292a" d="M 170.5,181.5 C 172.415,181.216 174.081,181.549 175.5,182.5C 175.5,185.833 175.5,189.167 175.5,192.5C 179.167,192.5 182.833,192.5 186.5,192.5C 186.5,193.833 186.5,195.167 186.5,196.5C 182.833,196.5 179.167,196.5 175.5,196.5C 175.175,204.019 175.508,211.352 176.5,218.5C 176.33,219.822 176.663,220.989 177.5,222C 180.482,222.498 183.482,222.665 186.5,222.5C 186.762,223.978 186.429,225.311 185.5,226.5C 180.21,228.57 175.71,227.57 172,223.5C 170.586,214.582 170.086,205.582 170.5,196.5C 168.833,196.5 167.167,196.5 165.5,196.5C 165.5,195.167 165.5,193.833 165.5,192.5C 167.167,192.5 168.833,192.5 170.5,192.5C 170.5,188.833 170.5,185.167 170.5,181.5 Z"/></g>
<g><path style="opacity:1" fill="#292425" d="M 91.5,182.5 C 93.1667,182.5 94.8333,182.5 96.5,182.5C 96.5,197.167 96.5,211.833 96.5,226.5C 94.8333,226.5 93.1667,226.5 91.5,226.5C 91.5,211.833 91.5,197.167 91.5,182.5 Z"/></g>
</svg>
