<?xml version="1.0" encoding="UTF-8"?>
<!DOCTYPE svg PUBLIC "-//W3C//DTD SVG 1.1//EN" "http://www.w3.org/Graphics/SVG/1.1/DTD/svg11.dtd">
<svg xmlns="http://www.w3.org/2000/svg" version="1.1" width="360px" height="360px" style="shape-rendering:geometricPrecision; text-rendering:geometricPrecision; image-rendering:optimizeQuality; fill-rule:evenodd; clip-rule:evenodd" xmlns:xlink="http://www.w3.org/1999/xlink">
<g><path style="opacity:1" fill="#fefffe" d="M -0.5,-0.5 C 4.5,-0.5 9.5,-0.5 14.5,-0.5C 14.5,4.5 14.5,9.5 14.5,14.5C 9.5,14.5 4.5,14.5 -0.5,14.5C -0.5,9.5 -0.5,4.5 -0.5,-0.5 Z"/></g>
<g><path style="opacity:1" fill="#edeeed" d="M 14.5,-0.5 C 19.5,-0.5 24.5,-0.5 29.5,-0.5C 29.5,4.5 29.5,9.5 29.5,14.5C 24.5,14.5 19.5,14.5 14.5,14.5C 14.5,9.5 14.5,4.5 14.5,-0.5 Z"/></g>
<g><path style="opacity:1" fill="#fefffe" d="M 29.5,-0.5 C 34.5,-0.5 39.5,-0.5 44.5,-0.5C 44.5,4.5 44.5,9.5 44.5,14.5C 39.5,14.5 34.5,14.5 29.5,14.5C 29.5,9.5 29.5,4.5 29.5,-0.5 Z"/></g>
<g><path style="opacity:1" fill="#edeeed" d="M 44.5,-0.5 C 49.5,-0.5 54.5,-0.5 59.5,-0.5C 59.5,4.5 59.5,9.5 59.5,14.5C 54.5,14.5 49.5,14.5 44.5,14.5C 44.5,9.5 44.5,4.5 44.5,-0.5 Z"/></g>
<g><path style="opacity:1" fill="#fefffe" d="M 59.5,-0.5 C 64.5,-0.5 69.5,-0.5 74.5,-0.5C 74.5,4.5 74.5,9.5 74.5,14.5C 69.5,14.5 64.5,14.5 59.5,14.5C 59.5,9.5 59.5,4.5 59.5,-0.5 Z"/></g>
<g><path style="opacity:1" fill="#edeeed" d="M 74.5,-0.5 C 79.5,-0.5 84.5,-0.5 89.5,-0.5C 89.5,4.5 89.5,9.5 89.5,14.5C 84.5,14.5 79.5,14.5 74.5,14.5C 74.5,9.5 74.5,4.5 74.5,-0.5 Z"/></g>
<g><path style="opacity:1" fill="#fefffe" d="M 89.5,-0.5 C 94.5,-0.5 99.5,-0.5 104.5,-0.5C 104.5,4.5 104.5,9.5 104.5,14.5C 99.5,14.5 94.5,14.5 89.5,14.5C 89.5,9.5 89.5,4.5 89.5,-0.5 Z"/></g>
<g><path style="opacity:1" fill="#edeeed" d="M 104.5,-0.5 C 109.5,-0.5 114.5,-0.5 119.5,-0.5C 119.5,4.5 119.5,9.5 119.5,14.5C 114.5,14.5 109.5,14.5 104.5,14.5C 104.5,9.5 104.5,4.5 104.5,-0.5 Z"/></g>
<g><path style="opacity:1" fill="#fefffe" d="M 119.5,-0.5 C 124.5,-0.5 129.5,-0.5 134.5,-0.5C 134.5,4.5 134.5,9.5 134.5,14.5C 129.5,14.5 124.5,14.5 119.5,14.5C 119.5,9.5 119.5,4.5 119.5,-0.5 Z"/></g>
<g><path style="opacity:1" fill="#edeeed" d="M 134.5,-0.5 C 139.5,-0.5 144.5,-0.5 149.5,-0.5C 149.5,4.5 149.5,9.5 149.5,14.5C 144.5,14.5 139.5,14.5 134.5,14.5C 134.5,9.5 134.5,4.5 134.5,-0.5 Z"/></g>
<g><path style="opacity:1" fill="#fefffe" d="M 149.5,-0.5 C 154.5,-0.5 159.5,-0.5 164.5,-0.5C 164.5,4.5 164.5,9.5 164.5,14.5C 159.5,14.5 154.5,14.5 149.5,14.5C 149.5,9.5 149.5,4.5 149.5,-0.5 Z"/></g>
<g><path style="opacity:1" fill="#edeeed" d="M 164.5,-0.5 C 169.5,-0.5 174.5,-0.5 179.5,-0.5C 179.5,4.5 179.5,9.5 179.5,14.5C 174.5,14.5 169.5,14.5 164.5,14.5C 164.5,9.5 164.5,4.5 164.5,-0.5 Z"/></g>
<g><path style="opacity:1" fill="#fefffe" d="M 179.5,-0.5 C 184.5,-0.5 189.5,-0.5 194.5,-0.5C 194.5,4.5 194.5,9.5 194.5,14.5C 189.5,14.5 184.5,14.5 179.5,14.5C 179.5,9.5 179.5,4.5 179.5,-0.5 Z"/></g>
<g><path style="opacity:1" fill="#edeeed" d="M 194.5,-0.5 C 199.5,-0.5 204.5,-0.5 209.5,-0.5C 209.5,4.5 209.5,9.5 209.5,14.5C 204.5,14.5 199.5,14.5 194.5,14.5C 194.5,9.5 194.5,4.5 194.5,-0.5 Z"/></g>
<g><path style="opacity:1" fill="#fefffe" d="M 209.5,-0.5 C 214.5,-0.5 219.5,-0.5 224.5,-0.5C 224.5,4.5 224.5,9.5 224.5,14.5C 219.5,14.5 214.5,14.5 209.5,14.5C 209.5,9.5 209.5,4.5 209.5,-0.5 Z"/></g>
<g><path style="opacity:1" fill="#edeeed" d="M 224.5,-0.5 C 229.5,-0.5 234.5,-0.5 239.5,-0.5C 239.5,4.5 239.5,9.5 239.5,14.5C 234.5,14.5 229.5,14.5 224.5,14.5C 224.5,9.5 224.5,4.5 224.5,-0.5 Z"/></g>
<g><path style="opacity:1" fill="#fefffe" d="M 239.5,-0.5 C 244.5,-0.5 249.5,-0.5 254.5,-0.5C 254.5,4.5 254.5,9.5 254.5,14.5C 249.5,14.5 244.5,14.5 239.5,14.5C 239.5,9.5 239.5,4.5 239.5,-0.5 Z"/></g>
<g><path style="opacity:1" fill="#edeeed" d="M 254.5,-0.5 C 259.5,-0.5 264.5,-0.5 269.5,-0.5C 269.5,4.5 269.5,9.5 269.5,14.5C 264.5,14.5 259.5,14.5 254.5,14.5C 254.5,9.5 254.5,4.5 254.5,-0.5 Z"/></g>
<g><path style="opacity:1" fill="#fefffe" d="M 269.5,-0.5 C 274.5,-0.5 279.5,-0.5 284.5,-0.5C 284.5,4.5 284.5,9.5 284.5,14.5C 279.5,14.5 274.5,14.5 269.5,14.5C 269.5,9.5 269.5,4.5 269.5,-0.5 Z"/></g>
<g><path style="opacity:1" fill="#edeeed" d="M 284.5,-0.5 C 289.5,-0.5 294.5,-0.5 299.5,-0.5C 299.5,4.5 299.5,9.5 299.5,14.5C 294.5,14.5 289.5,14.5 284.5,14.5C 284.5,9.5 284.5,4.5 284.5,-0.5 Z"/></g>
<g><path style="opacity:1" fill="#fefffe" d="M 299.5,-0.5 C 304.5,-0.5 309.5,-0.5 314.5,-0.5C 314.5,4.5 314.5,9.5 314.5,14.5C 309.5,14.5 304.5,14.5 299.5,14.5C 299.5,9.5 299.5,4.5 299.5,-0.5 Z"/></g>
<g><path style="opacity:1" fill="#edeeed" d="M 314.5,-0.5 C 319.5,-0.5 324.5,-0.5 329.5,-0.5C 329.5,4.5 329.5,9.5 329.5,14.5C 324.5,14.5 319.5,14.5 314.5,14.5C 314.5,9.5 314.5,4.5 314.5,-0.5 Z"/></g>
<g><path style="opacity:1" fill="#fefffe" d="M 329.5,-0.5 C 334.5,-0.5 339.5,-0.5 344.5,-0.5C 344.5,4.5 344.5,9.5 344.5,14.5C 339.5,14.5 334.5,14.5 329.5,14.5C 329.5,9.5 329.5,4.5 329.5,-0.5 Z"/></g>
<g><path style="opacity:1" fill="#edeeed" d="M 344.5,-0.5 C 349.5,-0.5 354.5,-0.5 359.5,-0.5C 359.5,4.5 359.5,9.5 359.5,14.5C 354.5,14.5 349.5,14.5 344.5,14.5C 344.5,9.5 344.5,4.5 344.5,-0.5 Z"/></g>
<g><path style="opacity:1" fill="#edeeed" d="M -0.5,14.5 C 4.5,14.5 9.5,14.5 14.5,14.5C 14.5,19.5 14.5,24.5 14.5,29.5C 9.5,29.5 4.5,29.5 -0.5,29.5C -0.5,24.5 -0.5,19.5 -0.5,14.5 Z"/></g>
<g><path style="opacity:1" fill="#fefffe" d="M 14.5,14.5 C 19.5,14.5 24.5,14.5 29.5,14.5C 29.5,19.5 29.5,24.5 29.5,29.5C 24.5,29.5 19.5,29.5 14.5,29.5C 14.5,24.5 14.5,19.5 14.5,14.5 Z"/></g>
<g><path style="opacity:1" fill="#edeeed" d="M 29.5,14.5 C 34.5,14.5 39.5,14.5 44.5,14.5C 44.5,19.5 44.5,24.5 44.5,29.5C 39.5,29.5 34.5,29.5 29.5,29.5C 29.5,24.5 29.5,19.5 29.5,14.5 Z"/></g>
<g><path style="opacity:1" fill="#fefffe" d="M 44.5,14.5 C 49.5,14.5 54.5,14.5 59.5,14.5C 59.5,19.5 59.5,24.5 59.5,29.5C 54.5,29.5 49.5,29.5 44.5,29.5C 44.5,24.5 44.5,19.5 44.5,14.5 Z"/></g>
<g><path style="opacity:1" fill="#edeeed" d="M 59.5,14.5 C 64.5,14.5 69.5,14.5 74.5,14.5C 74.5,19.5 74.5,24.5 74.5,29.5C 69.5,29.5 64.5,29.5 59.5,29.5C 59.5,24.5 59.5,19.5 59.5,14.5 Z"/></g>
<g><path style="opacity:1" fill="#fefffe" d="M 74.5,14.5 C 79.5,14.5 84.5,14.5 89.5,14.5C 89.5,19.5 89.5,24.5 89.5,29.5C 84.5,29.5 79.5,29.5 74.5,29.5C 74.5,24.5 74.5,19.5 74.5,14.5 Z"/></g>
<g><path style="opacity:1" fill="#edeeed" d="M 89.5,14.5 C 94.5,14.5 99.5,14.5 104.5,14.5C 104.5,19.5 104.5,24.5 104.5,29.5C 99.5,29.5 94.5,29.5 89.5,29.5C 89.5,24.5 89.5,19.5 89.5,14.5 Z"/></g>
<g><path style="opacity:1" fill="#fefffe" d="M 104.5,14.5 C 109.5,14.5 114.5,14.5 119.5,14.5C 119.5,19.5 119.5,24.5 119.5,29.5C 114.5,29.5 109.5,29.5 104.5,29.5C 104.5,24.5 104.5,19.5 104.5,14.5 Z"/></g>
<g><path style="opacity:1" fill="#edeeed" d="M 119.5,14.5 C 124.5,14.5 129.5,14.5 134.5,14.5C 134.5,19.5 134.5,24.5 134.5,29.5C 129.5,29.5 124.5,29.5 119.5,29.5C 119.5,24.5 119.5,19.5 119.5,14.5 Z"/></g>
<g><path style="opacity:1" fill="#fefffe" d="M 134.5,14.5 C 139.5,14.5 144.5,14.5 149.5,14.5C 149.5,19.5 149.5,24.5 149.5,29.5C 144.5,29.5 139.5,29.5 134.5,29.5C 134.5,24.5 134.5,19.5 134.5,14.5 Z"/></g>
<g><path style="opacity:1" fill="#edeeed" d="M 149.5,14.5 C 154.5,14.5 159.5,14.5 164.5,14.5C 164.5,19.5 164.5,24.5 164.5,29.5C 159.5,29.5 154.5,29.5 149.5,29.5C 149.5,24.5 149.5,19.5 149.5,14.5 Z"/></g>
<g><path style="opacity:1" fill="#fefffe" d="M 164.5,14.5 C 169.5,14.5 174.5,14.5 179.5,14.5C 179.5,19.5 179.5,24.5 179.5,29.5C 174.5,29.5 169.5,29.5 164.5,29.5C 164.5,24.5 164.5,19.5 164.5,14.5 Z"/></g>
<g><path style="opacity:1" fill="#edeeed" d="M 179.5,14.5 C 184.5,14.5 189.5,14.5 194.5,14.5C 194.5,19.5 194.5,24.5 194.5,29.5C 189.5,29.5 184.5,29.5 179.5,29.5C 179.5,24.5 179.5,19.5 179.5,14.5 Z"/></g>
<g><path style="opacity:1" fill="#fefffe" d="M 194.5,14.5 C 199.5,14.5 204.5,14.5 209.5,14.5C 209.5,19.5 209.5,24.5 209.5,29.5C 204.5,29.5 199.5,29.5 194.5,29.5C 194.5,24.5 194.5,19.5 194.5,14.5 Z"/></g>
<g><path style="opacity:1" fill="#edeeed" d="M 209.5,14.5 C 214.5,14.5 219.5,14.5 224.5,14.5C 224.5,19.5 224.5,24.5 224.5,29.5C 219.5,29.5 214.5,29.5 209.5,29.5C 209.5,24.5 209.5,19.5 209.5,14.5 Z"/></g>
<g><path style="opacity:1" fill="#fefffe" d="M 224.5,14.5 C 229.5,14.5 234.5,14.5 239.5,14.5C 239.5,19.5 239.5,24.5 239.5,29.5C 234.5,29.5 229.5,29.5 224.5,29.5C 224.5,24.5 224.5,19.5 224.5,14.5 Z"/></g>
<g><path style="opacity:1" fill="#edeeed" d="M 239.5,14.5 C 244.5,14.5 249.5,14.5 254.5,14.5C 254.5,19.5 254.5,24.5 254.5,29.5C 249.5,29.5 244.5,29.5 239.5,29.5C 239.5,24.5 239.5,19.5 239.5,14.5 Z"/></g>
<g><path style="opacity:1" fill="#fefffe" d="M 254.5,14.5 C 259.5,14.5 264.5,14.5 269.5,14.5C 269.5,19.5 269.5,24.5 269.5,29.5C 264.5,29.5 259.5,29.5 254.5,29.5C 254.5,24.5 254.5,19.5 254.5,14.5 Z"/></g>
<g><path style="opacity:1" fill="#edeeed" d="M 269.5,14.5 C 274.5,14.5 279.5,14.5 284.5,14.5C 284.5,19.5 284.5,24.5 284.5,29.5C 279.5,29.5 274.5,29.5 269.5,29.5C 269.5,24.5 269.5,19.5 269.5,14.5 Z"/></g>
<g><path style="opacity:1" fill="#fefffe" d="M 284.5,14.5 C 289.5,14.5 294.5,14.5 299.5,14.5C 299.5,19.5 299.5,24.5 299.5,29.5C 294.5,29.5 289.5,29.5 284.5,29.5C 284.5,24.5 284.5,19.5 284.5,14.5 Z"/></g>
<g><path style="opacity:1" fill="#edeeed" d="M 299.5,14.5 C 304.5,14.5 309.5,14.5 314.5,14.5C 314.5,19.5 314.5,24.5 314.5,29.5C 309.5,29.5 304.5,29.5 299.5,29.5C 299.5,24.5 299.5,19.5 299.5,14.5 Z"/></g>
<g><path style="opacity:1" fill="#fefffe" d="M 314.5,14.5 C 319.5,14.5 324.5,14.5 329.5,14.5C 329.5,19.5 329.5,24.5 329.5,29.5C 324.5,29.5 319.5,29.5 314.5,29.5C 314.5,24.5 314.5,19.5 314.5,14.5 Z"/></g>
<g><path style="opacity:1" fill="#edeeed" d="M 329.5,14.5 C 334.5,14.5 339.5,14.5 344.5,14.5C 344.5,19.5 344.5,24.5 344.5,29.5C 339.5,29.5 334.5,29.5 329.5,29.5C 329.5,24.5 329.5,19.5 329.5,14.5 Z"/></g>
<g><path style="opacity:1" fill="#fefffe" d="M 344.5,14.5 C 349.5,14.5 354.5,14.5 359.5,14.5C 359.5,19.5 359.5,24.5 359.5,29.5C 354.5,29.5 349.5,29.5 344.5,29.5C 344.5,24.5 344.5,19.5 344.5,14.5 Z"/></g>
<g><path style="opacity:1" fill="#fefffe" d="M -0.5,29.5 C 4.5,29.5 9.5,29.5 14.5,29.5C 14.5,34.5 14.5,39.5 14.5,44.5C 9.5,44.5 4.5,44.5 -0.5,44.5C -0.5,39.5 -0.5,34.5 -0.5,29.5 Z"/></g>
<g><path style="opacity:1" fill="#edeeed" d="M 14.5,29.5 C 19.5,29.5 24.5,29.5 29.5,29.5C 29.5,34.5 29.5,39.5 29.5,44.5C 24.5,44.5 19.5,44.5 14.5,44.5C 14.5,39.5 14.5,34.5 14.5,29.5 Z"/></g>
<g><path style="opacity:1" fill="#fefffe" d="M 29.5,29.5 C 34.5,29.5 39.5,29.5 44.5,29.5C 44.5,34.5 44.5,39.5 44.5,44.5C 39.5,44.5 34.5,44.5 29.5,44.5C 29.5,39.5 29.5,34.5 29.5,29.5 Z"/></g>
<g><path style="opacity:1" fill="#edeeed" d="M 44.5,29.5 C 49.5,29.5 54.5,29.5 59.5,29.5C 59.5,34.5 59.5,39.5 59.5,44.5C 54.5,44.5 49.5,44.5 44.5,44.5C 44.5,39.5 44.5,34.5 44.5,29.5 Z"/></g>
<g><path style="opacity:1" fill="#fefffe" d="M 59.5,29.5 C 64.5,29.5 69.5,29.5 74.5,29.5C 74.5,34.5 74.5,39.5 74.5,44.5C 69.5,44.5 64.5,44.5 59.5,44.5C 59.5,39.5 59.5,34.5 59.5,29.5 Z"/></g>
<g><path style="opacity:1" fill="#edeeed" d="M 74.5,29.5 C 79.5,29.5 84.5,29.5 89.5,29.5C 89.5,34.5 89.5,39.5 89.5,44.5C 84.5,44.5 79.5,44.5 74.5,44.5C 74.5,39.5 74.5,34.5 74.5,29.5 Z"/></g>
<g><path style="opacity:1" fill="#fefffe" d="M 89.5,29.5 C 94.5,29.5 99.5,29.5 104.5,29.5C 104.5,34.5 104.5,39.5 104.5,44.5C 99.5,44.5 94.5,44.5 89.5,44.5C 89.5,39.5 89.5,34.5 89.5,29.5 Z"/></g>
<g><path style="opacity:1" fill="#edeeed" d="M 104.5,29.5 C 109.5,29.5 114.5,29.5 119.5,29.5C 119.5,34.5 119.5,39.5 119.5,44.5C 114.5,44.5 109.5,44.5 104.5,44.5C 104.5,39.5 104.5,34.5 104.5,29.5 Z"/></g>
<g><path style="opacity:1" fill="#fefffe" d="M 119.5,29.5 C 124.5,29.5 129.5,29.5 134.5,29.5C 134.5,34.5 134.5,39.5 134.5,44.5C 129.5,44.5 124.5,44.5 119.5,44.5C 119.5,39.5 119.5,34.5 119.5,29.5 Z"/></g>
<g><path style="opacity:1" fill="#edeeed" d="M 134.5,29.5 C 139.5,29.5 144.5,29.5 149.5,29.5C 149.5,34.5 149.5,39.5 149.5,44.5C 144.5,44.5 139.5,44.5 134.5,44.5C 134.5,39.5 134.5,34.5 134.5,29.5 Z"/></g>
<g><path style="opacity:1" fill="#fefffe" d="M 149.5,29.5 C 154.5,29.5 159.5,29.5 164.5,29.5C 164.5,34.5 164.5,39.5 164.5,44.5C 159.5,44.5 154.5,44.5 149.5,44.5C 149.5,39.5 149.5,34.5 149.5,29.5 Z"/></g>
<g><path style="opacity:1" fill="#edeeed" d="M 164.5,29.5 C 169.5,29.5 174.5,29.5 179.5,29.5C 179.5,34.5 179.5,39.5 179.5,44.5C 174.5,44.5 169.5,44.5 164.5,44.5C 164.5,39.5 164.5,34.5 164.5,29.5 Z"/></g>
<g><path style="opacity:1" fill="#fefffe" d="M 179.5,29.5 C 184.5,29.5 189.5,29.5 194.5,29.5C 194.5,34.5 194.5,39.5 194.5,44.5C 189.5,44.5 184.5,44.5 179.5,44.5C 179.5,39.5 179.5,34.5 179.5,29.5 Z"/></g>
<g><path style="opacity:1" fill="#edeeed" d="M 194.5,29.5 C 199.5,29.5 204.5,29.5 209.5,29.5C 209.5,34.5 209.5,39.5 209.5,44.5C 204.5,44.5 199.5,44.5 194.5,44.5C 194.5,39.5 194.5,34.5 194.5,29.5 Z"/></g>
<g><path style="opacity:1" fill="#fefffe" d="M 209.5,29.5 C 214.5,29.5 219.5,29.5 224.5,29.5C 224.5,34.5 224.5,39.5 224.5,44.5C 219.5,44.5 214.5,44.5 209.5,44.5C 209.5,39.5 209.5,34.5 209.5,29.5 Z"/></g>
<g><path style="opacity:1" fill="#edeeed" d="M 224.5,29.5 C 229.5,29.5 234.5,29.5 239.5,29.5C 239.5,34.5 239.5,39.5 239.5,44.5C 234.5,44.5 229.5,44.5 224.5,44.5C 224.5,39.5 224.5,34.5 224.5,29.5 Z"/></g>
<g><path style="opacity:1" fill="#fefffe" d="M 239.5,29.5 C 244.5,29.5 249.5,29.5 254.5,29.5C 254.5,34.5 254.5,39.5 254.5,44.5C 249.5,44.5 244.5,44.5 239.5,44.5C 239.5,39.5 239.5,34.5 239.5,29.5 Z"/></g>
<g><path style="opacity:1" fill="#edeeed" d="M 254.5,29.5 C 259.5,29.5 264.5,29.5 269.5,29.5C 269.5,34.5 269.5,39.5 269.5,44.5C 264.5,44.5 259.5,44.5 254.5,44.5C 254.5,39.5 254.5,34.5 254.5,29.5 Z"/></g>
<g><path style="opacity:1" fill="#fefffe" d="M 269.5,29.5 C 274.5,29.5 279.5,29.5 284.5,29.5C 284.5,34.5 284.5,39.5 284.5,44.5C 279.5,44.5 274.5,44.5 269.5,44.5C 269.5,39.5 269.5,34.5 269.5,29.5 Z"/></g>
<g><path style="opacity:1" fill="#edeeed" d="M 284.5,29.5 C 289.5,29.5 294.5,29.5 299.5,29.5C 299.5,34.5 299.5,39.5 299.5,44.5C 294.5,44.5 289.5,44.5 284.5,44.5C 284.5,39.5 284.5,34.5 284.5,29.5 Z"/></g>
<g><path style="opacity:1" fill="#fefffe" d="M 299.5,29.5 C 304.5,29.5 309.5,29.5 314.5,29.5C 314.5,34.5 314.5,39.5 314.5,44.5C 309.5,44.5 304.5,44.5 299.5,44.5C 299.5,39.5 299.5,34.5 299.5,29.5 Z"/></g>
<g><path style="opacity:1" fill="#edeeed" d="M 314.5,29.5 C 319.5,29.5 324.5,29.5 329.5,29.5C 329.5,34.5 329.5,39.5 329.5,44.5C 324.5,44.5 319.5,44.5 314.5,44.5C 314.5,39.5 314.5,34.5 314.5,29.5 Z"/></g>
<g><path style="opacity:1" fill="#fefffe" d="M 329.5,29.5 C 334.5,29.5 339.5,29.5 344.5,29.5C 344.5,34.5 344.5,39.5 344.5,44.5C 339.5,44.5 334.5,44.5 329.5,44.5C 329.5,39.5 329.5,34.5 329.5,29.5 Z"/></g>
<g><path style="opacity:1" fill="#edeeed" d="M 344.5,29.5 C 349.5,29.5 354.5,29.5 359.5,29.5C 359.5,34.5 359.5,39.5 359.5,44.5C 354.5,44.5 349.5,44.5 344.5,44.5C 344.5,39.5 344.5,34.5 344.5,29.5 Z"/></g>
<g><path style="opacity:1" fill="#edeeed" d="M -0.5,44.5 C 4.5,44.5 9.5,44.5 14.5,44.5C 14.5,49.5 14.5,54.5 14.5,59.5C 9.5,59.5 4.5,59.5 -0.5,59.5C -0.5,54.5 -0.5,49.5 -0.5,44.5 Z"/></g>
<g><path style="opacity:1" fill="#fefffe" d="M 14.5,44.5 C 19.5,44.5 24.5,44.5 29.5,44.5C 29.5,49.5 29.5,54.5 29.5,59.5C 24.5,59.5 19.5,59.5 14.5,59.5C 14.5,54.5 14.5,49.5 14.5,44.5 Z"/></g>
<g><path style="opacity:1" fill="#edeeed" d="M 29.5,44.5 C 34.5,44.5 39.5,44.5 44.5,44.5C 44.5,49.5 44.5,54.5 44.5,59.5C 39.5,59.5 34.5,59.5 29.5,59.5C 29.5,54.5 29.5,49.5 29.5,44.5 Z"/></g>
<g><path style="opacity:1" fill="#fefffe" d="M 44.5,44.5 C 49.5,44.5 54.5,44.5 59.5,44.5C 59.5,49.5 59.5,54.5 59.5,59.5C 54.5,59.5 49.5,59.5 44.5,59.5C 44.5,54.5 44.5,49.5 44.5,44.5 Z"/></g>
<g><path style="opacity:1" fill="#edeeed" d="M 59.5,44.5 C 64.5,44.5 69.5,44.5 74.5,44.5C 74.5,49.5 74.5,54.5 74.5,59.5C 69.5,59.5 64.5,59.5 59.5,59.5C 59.5,54.5 59.5,49.5 59.5,44.5 Z"/></g>
<g><path style="opacity:1" fill="#fefffe" d="M 74.5,44.5 C 79.5,44.5 84.5,44.5 89.5,44.5C 89.5,49.5 89.5,54.5 89.5,59.5C 84.5,59.5 79.5,59.5 74.5,59.5C 74.5,54.5 74.5,49.5 74.5,44.5 Z"/></g>
<g><path style="opacity:1" fill="#edeeed" d="M 89.5,44.5 C 94.5,44.5 99.5,44.5 104.5,44.5C 104.5,49.5 104.5,54.5 104.5,59.5C 99.5,59.5 94.5,59.5 89.5,59.5C 89.5,54.5 89.5,49.5 89.5,44.5 Z"/></g>
<g><path style="opacity:1" fill="#fefffe" d="M 104.5,44.5 C 109.5,44.5 114.5,44.5 119.5,44.5C 119.5,49.5 119.5,54.5 119.5,59.5C 114.5,59.5 109.5,59.5 104.5,59.5C 104.5,54.5 104.5,49.5 104.5,44.5 Z"/></g>
<g><path style="opacity:1" fill="#edeeed" d="M 119.5,44.5 C 124.5,44.5 129.5,44.5 134.5,44.5C 134.5,49.5 134.5,54.5 134.5,59.5C 129.5,59.5 124.5,59.5 119.5,59.5C 119.5,54.5 119.5,49.5 119.5,44.5 Z"/></g>
<g><path style="opacity:1" fill="#fefffe" d="M 134.5,44.5 C 139.5,44.5 144.5,44.5 149.5,44.5C 149.5,49.5 149.5,54.5 149.5,59.5C 144.5,59.5 139.5,59.5 134.5,59.5C 134.5,54.5 134.5,49.5 134.5,44.5 Z"/></g>
<g><path style="opacity:1" fill="#fefffe" d="M -0.5,59.5 C 4.5,59.5 9.5,59.5 14.5,59.5C 14.5,64.5 14.5,69.5 14.5,74.5C 9.5,74.5 4.5,74.5 -0.5,74.5C -0.5,69.5 -0.5,64.5 -0.5,59.5 Z"/></g>
<g><path style="opacity:1" fill="#edeeed" d="M 14.5,59.5 C 19.5,59.5 24.5,59.5 29.5,59.5C 29.5,64.5 29.5,69.5 29.5,74.5C 24.5,74.5 19.5,74.5 14.5,74.5C 14.5,69.5 14.5,64.5 14.5,59.5 Z"/></g>
<g><path style="opacity:1" fill="#fefffe" d="M 29.5,59.5 C 34.5,59.5 39.5,59.5 44.5,59.5C 44.5,64.5 44.5,69.5 44.5,74.5C 39.5,74.5 34.5,74.5 29.5,74.5C 29.5,69.5 29.5,64.5 29.5,59.5 Z"/></g>
<g><path style="opacity:1" fill="#edeeed" d="M 44.5,59.5 C 49.5,59.5 54.5,59.5 59.5,59.5C 59.5,64.5 59.5,69.5 59.5,74.5C 54.5,74.5 49.5,74.5 44.5,74.5C 44.5,69.5 44.5,64.5 44.5,59.5 Z"/></g>
<g><path style="opacity:1" fill="#fefffe" d="M 59.5,59.5 C 64.5,59.5 69.5,59.5 74.5,59.5C 74.5,64.5 74.5,69.5 74.5,74.5C 69.5,74.5 64.5,74.5 59.5,74.5C 59.5,69.5 59.5,64.5 59.5,59.5 Z"/></g>
<g><path style="opacity:1" fill="#edeeed" d="M 74.5,59.5 C 79.5,59.5 84.5,59.5 89.5,59.5C 89.5,64.5 89.5,69.5 89.5,74.5C 84.5,74.5 79.5,74.5 74.5,74.5C 74.5,69.5 74.5,64.5 74.5,59.5 Z"/></g>
<g><path style="opacity:1" fill="#fefffe" d="M 89.5,59.5 C 94.5,59.5 99.5,59.5 104.5,59.5C 104.5,64.5 104.5,69.5 104.5,74.5C 99.5,74.5 94.5,74.5 89.5,74.5C 89.5,69.5 89.5,64.5 89.5,59.5 Z"/></g>
<g><path style="opacity:1" fill="#f5f5f5" d="M 149.5,44.5 C 154.5,44.5 159.5,44.5 164.5,44.5C 169.5,44.5 174.5,44.5 179.5,44.5C 184.5,44.5 189.5,44.5 194.5,44.5C 199.5,44.5 204.5,44.5 209.5,44.5C 214.5,44.5 219.5,44.5 224.5,44.5C 229.5,44.5 234.5,44.5 239.5,44.5C 244.5,44.5 249.5,44.5 254.5,44.5C 259.5,44.5 264.5,44.5 269.5,44.5C 274.5,44.5 279.5,44.5 284.5,44.5C 289.5,44.5 294.5,44.5 299.5,44.5C 304.5,44.5 309.5,44.5 314.5,44.5C 319.5,44.5 324.5,44.5 329.5,44.5C 334.5,44.5 339.5,44.5 344.5,44.5C 349.5,44.5 354.5,44.5 359.5,44.5C 359.5,94.5 359.5,144.5 359.5,194.5C 354.5,194.5 349.5,194.5 344.5,194.5C 344.5,189.5 344.5,184.5 344.5,179.5C 339.5,179.5 334.5,179.5 329.5,179.5C 329.5,174.5 329.5,169.5 329.5,164.5C 324.5,164.5 319.5,164.5 314.5,164.5C 314.5,159.5 314.5,154.5 314.5,149.5C 309.5,149.5 304.5,149.5 299.5,149.5C 299.5,144.5 299.5,139.5 299.5,134.5C 294.5,134.5 289.5,134.5 284.5,134.5C 284.5,129.5 284.5,124.5 284.5,119.5C 280.19,119.383 276.19,119.383 272.5,119.5C 237.809,73.1051 192.809,58.9384 137.5,77C 119.388,85.2842 104.055,97.1176 91.5,112.5C 91.19,111.262 90.69,111.262 90,112.5C 89.5026,109.854 89.3359,107.187 89.5,104.5C 84.5,104.5 79.5,104.5 74.5,104.5C 74.5,99.5 74.5,94.5 74.5,89.5C 79.5,89.5 84.5,89.5 89.5,89.5C 89.5,84.5 89.5,79.5 89.5,74.5C 94.5,74.5 99.5,74.5 104.5,74.5C 104.5,69.5 104.5,64.5 104.5,59.5C 109.5,59.5 114.5,59.5 119.5,59.5C 124.5,59.5 129.5,59.5 134.5,59.5C 139.5,59.5 144.5,59.5 149.5,59.5C 149.5,54.5 149.5,49.5 149.5,44.5 Z"/></g>
<g><path style="opacity:1" fill="#020202" d="M 272.5,119.5 C 297.624,163.584 296.457,206.917 269,249.5C 254.222,270.114 234.722,283.614 210.5,290C 208.574,289.578 207.574,288.411 207.5,286.5C 207.667,273.163 207.5,259.829 207,246.5C 205.763,241.527 203.596,237.027 200.5,233C 239.369,226.471 255.536,203.638 249,164.5C 247.303,158.104 244.303,152.438 240,147.5C 240.429,139.857 240.429,132.191 240,124.5C 239.668,121.494 238.834,118.66 237.5,116C 226.065,116.294 215.898,120.128 207,127.5C 188.652,122.341 170.318,122.341 152,127.5C 142.792,120.211 132.459,116.544 121,116.5C 120.178,118.788 119.511,121.122 119,123.5C 118.512,131.531 118.512,139.531 119,147.5C 110.613,157.668 107.279,169.335 109,182.5C 109.501,206.979 121.335,222.812 144.5,230C 149.193,230.908 153.86,231.908 158.5,233C 155.084,237.498 152.751,242.498 151.5,248C 135.555,253.778 124.055,248.945 117,233.5C 111.485,227.33 104.985,225.663 97.5,228.5C 101.387,232.042 105.22,235.709 109,239.5C 112.194,244.554 114.861,249.888 117,255.5C 126.343,265.881 137.843,269.214 151.5,265.5C 151.5,272.5 151.5,279.5 151.5,286.5C 150.892,288.99 149.225,290.324 146.5,290.5C 141.544,288.626 136.544,286.959 131.5,285.5C 110.551,274.218 94.2178,258.218 82.5,237.5C 61.3158,194.04 64.3158,152.373 91.5,112.5C 104.055,97.1176 119.388,85.2842 137.5,77C 192.809,58.9384 237.809,73.1051 272.5,119.5 Z"/></g>
<g><path style="opacity:1" fill="#edeeed" d="M -0.5,74.5 C 4.5,74.5 9.5,74.5 14.5,74.5C 14.5,79.5 14.5,84.5 14.5,89.5C 9.5,89.5 4.5,89.5 -0.5,89.5C -0.5,84.5 -0.5,79.5 -0.5,74.5 Z"/></g>
<g><path style="opacity:1" fill="#fefffe" d="M 14.5,74.5 C 19.5,74.5 24.5,74.5 29.5,74.5C 29.5,79.5 29.5,84.5 29.5,89.5C 24.5,89.5 19.5,89.5 14.5,89.5C 14.5,84.5 14.5,79.5 14.5,74.5 Z"/></g>
<g><path style="opacity:1" fill="#edeeed" d="M 29.5,74.5 C 34.5,74.5 39.5,74.5 44.5,74.5C 44.5,79.5 44.5,84.5 44.5,89.5C 39.5,89.5 34.5,89.5 29.5,89.5C 29.5,84.5 29.5,79.5 29.5,74.5 Z"/></g>
<g><path style="opacity:1" fill="#fefffe" d="M 44.5,74.5 C 49.5,74.5 54.5,74.5 59.5,74.5C 59.5,79.5 59.5,84.5 59.5,89.5C 54.5,89.5 49.5,89.5 44.5,89.5C 44.5,84.5 44.5,79.5 44.5,74.5 Z"/></g>
<g><path style="opacity:1" fill="#edeeed" d="M 59.5,74.5 C 64.5,74.5 69.5,74.5 74.5,74.5C 74.5,79.5 74.5,84.5 74.5,89.5C 69.5,89.5 64.5,89.5 59.5,89.5C 59.5,84.5 59.5,79.5 59.5,74.5 Z"/></g>
<g><path style="opacity:1" fill="#fefffe" d="M 74.5,74.5 C 79.5,74.5 84.5,74.5 89.5,74.5C 89.5,79.5 89.5,84.5 89.5,89.5C 84.5,89.5 79.5,89.5 74.5,89.5C 74.5,84.5 74.5,79.5 74.5,74.5 Z"/></g>
<g><path style="opacity:1" fill="#fefffe" d="M -0.5,89.5 C 4.5,89.5 9.5,89.5 14.5,89.5C 14.5,94.5 14.5,99.5 14.5,104.5C 9.5,104.5 4.5,104.5 -0.5,104.5C -0.5,99.5 -0.5,94.5 -0.5,89.5 Z"/></g>
<g><path style="opacity:1" fill="#edeeed" d="M 14.5,89.5 C 19.5,89.5 24.5,89.5 29.5,89.5C 29.5,94.5 29.5,99.5 29.5,104.5C 24.5,104.5 19.5,104.5 14.5,104.5C 14.5,99.5 14.5,94.5 14.5,89.5 Z"/></g>
<g><path style="opacity:1" fill="#fefffe" d="M 29.5,89.5 C 34.5,89.5 39.5,89.5 44.5,89.5C 44.5,94.5 44.5,99.5 44.5,104.5C 39.5,104.5 34.5,104.5 29.5,104.5C 29.5,99.5 29.5,94.5 29.5,89.5 Z"/></g>
<g><path style="opacity:1" fill="#edeeed" d="M 44.5,89.5 C 49.5,89.5 54.5,89.5 59.5,89.5C 59.5,94.5 59.5,99.5 59.5,104.5C 54.5,104.5 49.5,104.5 44.5,104.5C 44.5,99.5 44.5,94.5 44.5,89.5 Z"/></g>
<g><path style="opacity:1" fill="#fefffe" d="M 59.5,89.5 C 64.5,89.5 69.5,89.5 74.5,89.5C 74.5,94.5 74.5,99.5 74.5,104.5C 69.5,104.5 64.5,104.5 59.5,104.5C 59.5,99.5 59.5,94.5 59.5,89.5 Z"/></g>
<g><path style="opacity:1" fill="#edeeed" d="M -0.5,104.5 C 4.5,104.5 9.5,104.5 14.5,104.5C 14.5,109.5 14.5,114.5 14.5,119.5C 9.5,119.5 4.5,119.5 -0.5,119.5C -0.5,114.5 -0.5,109.5 -0.5,104.5 Z"/></g>
<g><path style="opacity:1" fill="#fefffe" d="M 14.5,104.5 C 19.5,104.5 24.5,104.5 29.5,104.5C 29.5,109.5 29.5,114.5 29.5,119.5C 24.5,119.5 19.5,119.5 14.5,119.5C 14.5,114.5 14.5,109.5 14.5,104.5 Z"/></g>
<g><path style="opacity:1" fill="#edeeed" d="M 29.5,104.5 C 34.5,104.5 39.5,104.5 44.5,104.5C 44.5,109.5 44.5,114.5 44.5,119.5C 39.5,119.5 34.5,119.5 29.5,119.5C 29.5,114.5 29.5,109.5 29.5,104.5 Z"/></g>
<g><path style="opacity:1" fill="#fefffe" d="M 44.5,104.5 C 49.5,104.5 54.5,104.5 59.5,104.5C 59.5,109.5 59.5,114.5 59.5,119.5C 54.5,119.5 49.5,119.5 44.5,119.5C 44.5,114.5 44.5,109.5 44.5,104.5 Z"/></g>
<g><path style="opacity:1" fill="#fefffe" d="M -0.5,119.5 C 4.5,119.5 9.5,119.5 14.5,119.5C 14.5,124.5 14.5,129.5 14.5,134.5C 9.5,134.5 4.5,134.5 -0.5,134.5C -0.5,129.5 -0.5,124.5 -0.5,119.5 Z"/></g>
<g><path style="opacity:1" fill="#edeeed" d="M 14.5,119.5 C 19.5,119.5 24.5,119.5 29.5,119.5C 29.5,124.5 29.5,129.5 29.5,134.5C 24.5,134.5 19.5,134.5 14.5,134.5C 14.5,129.5 14.5,124.5 14.5,119.5 Z"/></g>
<g><path style="opacity:1" fill="#fefffe" d="M 29.5,119.5 C 34.5,119.5 39.5,119.5 44.5,119.5C 44.5,124.5 44.5,129.5 44.5,134.5C 39.5,134.5 34.5,134.5 29.5,134.5C 29.5,129.5 29.5,124.5 29.5,119.5 Z"/></g>
<g><path style="opacity:1" fill="#edeeed" d="M 44.5,119.5 C 49.5,119.5 54.5,119.5 59.5,119.5C 59.5,124.5 59.5,129.5 59.5,134.5C 54.5,134.5 49.5,134.5 44.5,134.5C 44.5,129.5 44.5,124.5 44.5,119.5 Z"/></g>
<g><path style="opacity:1" fill="#edeeed" d="M -0.5,134.5 C 4.5,134.5 9.5,134.5 14.5,134.5C 14.5,139.5 14.5,144.5 14.5,149.5C 9.5,149.5 4.5,149.5 -0.5,149.5C -0.5,144.5 -0.5,139.5 -0.5,134.5 Z"/></g>
<g><path style="opacity:1" fill="#fefffe" d="M 14.5,134.5 C 19.5,134.5 24.5,134.5 29.5,134.5C 29.5,139.5 29.5,144.5 29.5,149.5C 24.5,149.5 19.5,149.5 14.5,149.5C 14.5,144.5 14.5,139.5 14.5,134.5 Z"/></g>
<g><path style="opacity:1" fill="#edeeed" d="M 29.5,134.5 C 34.5,134.5 39.5,134.5 44.5,134.5C 44.5,139.5 44.5,144.5 44.5,149.5C 39.5,149.5 34.5,149.5 29.5,149.5C 29.5,144.5 29.5,139.5 29.5,134.5 Z"/></g>
<g><path style="opacity:1" fill="#f6f6f6" d="M 59.5,104.5 C 64.5,104.5 69.5,104.5 74.5,104.5C 79.5,104.5 84.5,104.5 89.5,104.5C 89.3359,107.187 89.5026,109.854 90,112.5C 90.69,111.262 91.19,111.262 91.5,112.5C 64.3158,152.373 61.3158,194.04 82.5,237.5C 80.3647,239.369 77.6981,240.036 74.5,239.5C 74.5,244.5 74.5,249.5 74.5,254.5C 79.5,254.5 84.5,254.5 89.5,254.5C 89.5,259.5 89.5,264.5 89.5,269.5C 94.5,269.5 99.5,269.5 104.5,269.5C 104.5,274.5 104.5,279.5 104.5,284.5C 109.5,284.5 114.5,284.5 119.5,284.5C 119.5,289.5 119.5,294.5 119.5,299.5C 124.5,299.5 129.5,299.5 134.5,299.5C 139.5,299.5 144.5,299.5 149.5,299.5C 149.5,304.5 149.5,309.5 149.5,314.5C 154.5,314.5 159.5,314.5 164.5,314.5C 164.5,319.5 164.5,324.5 164.5,329.5C 169.5,329.5 174.5,329.5 179.5,329.5C 179.5,334.5 179.5,339.5 179.5,344.5C 184.5,344.5 189.5,344.5 194.5,344.5C 194.5,349.5 194.5,354.5 194.5,359.5C 129.5,359.5 64.5,359.5 -0.5,359.5C -0.5,339.5 -0.5,319.5 -0.5,299.5C 4.5,299.5 9.5,299.5 14.5,299.5C 19.5,299.5 24.5,299.5 29.5,299.5C 34.5,299.5 39.5,299.5 44.5,299.5C 44.5,294.5 44.5,289.5 44.5,284.5C 44.5,279.5 44.5,274.5 44.5,269.5C 44.5,264.5 44.5,259.5 44.5,254.5C 44.5,249.5 44.5,244.5 44.5,239.5C 44.5,234.5 44.5,229.5 44.5,224.5C 44.5,219.5 44.5,214.5 44.5,209.5C 44.5,204.5 44.5,199.5 44.5,194.5C 44.5,189.5 44.5,184.5 44.5,179.5C 44.5,174.5 44.5,169.5 44.5,164.5C 44.5,159.5 44.5,154.5 44.5,149.5C 44.5,144.5 44.5,139.5 44.5,134.5C 49.5,134.5 54.5,134.5 59.5,134.5C 59.5,129.5 59.5,124.5 59.5,119.5C 59.5,114.5 59.5,109.5 59.5,104.5 Z"/></g>
<g><path style="opacity:1" fill="#fefffe" d="M -0.5,149.5 C 4.5,149.5 9.5,149.5 14.5,149.5C 14.5,154.5 14.5,159.5 14.5,164.5C 9.5,164.5 4.5,164.5 -0.5,164.5C -0.5,159.5 -0.5,154.5 -0.5,149.5 Z"/></g>
<g><path style="opacity:1" fill="#edeeed" d="M 14.5,149.5 C 19.5,149.5 24.5,149.5 29.5,149.5C 29.5,154.5 29.5,159.5 29.5,164.5C 24.5,164.5 19.5,164.5 14.5,164.5C 14.5,159.5 14.5,154.5 14.5,149.5 Z"/></g>
<g><path style="opacity:1" fill="#fefffe" d="M 29.5,149.5 C 34.5,149.5 39.5,149.5 44.5,149.5C 44.5,154.5 44.5,159.5 44.5,164.5C 39.5,164.5 34.5,164.5 29.5,164.5C 29.5,159.5 29.5,154.5 29.5,149.5 Z"/></g>
<g><path style="opacity:1" fill="#edeeed" d="M -0.5,164.5 C 4.5,164.5 9.5,164.5 14.5,164.5C 14.5,169.5 14.5,174.5 14.5,179.5C 9.5,179.5 4.5,179.5 -0.5,179.5C -0.5,174.5 -0.5,169.5 -0.5,164.5 Z"/></g>
<g><path style="opacity:1" fill="#fefffe" d="M 14.5,164.5 C 19.5,164.5 24.5,164.5 29.5,164.5C 29.5,169.5 29.5,174.5 29.5,179.5C 24.5,179.5 19.5,179.5 14.5,179.5C 14.5,174.5 14.5,169.5 14.5,164.5 Z"/></g>
<g><path style="opacity:1" fill="#edeeed" d="M 29.5,164.5 C 34.5,164.5 39.5,164.5 44.5,164.5C 44.5,169.5 44.5,174.5 44.5,179.5C 39.5,179.5 34.5,179.5 29.5,179.5C 29.5,174.5 29.5,169.5 29.5,164.5 Z"/></g>
<g><path style="opacity:1" fill="#fefffe" d="M -0.5,179.5 C 4.5,179.5 9.5,179.5 14.5,179.5C 14.5,184.5 14.5,189.5 14.5,194.5C 9.5,194.5 4.5,194.5 -0.5,194.5C -0.5,189.5 -0.5,184.5 -0.5,179.5 Z"/></g>
<g><path style="opacity:1" fill="#edeeed" d="M 14.5,179.5 C 19.5,179.5 24.5,179.5 29.5,179.5C 29.5,184.5 29.5,189.5 29.5,194.5C 24.5,194.5 19.5,194.5 14.5,194.5C 14.5,189.5 14.5,184.5 14.5,179.5 Z"/></g>
<g><path style="opacity:1" fill="#fefffe" d="M 29.5,179.5 C 34.5,179.5 39.5,179.5 44.5,179.5C 44.5,184.5 44.5,189.5 44.5,194.5C 39.5,194.5 34.5,194.5 29.5,194.5C 29.5,189.5 29.5,184.5 29.5,179.5 Z"/></g>
<g><path style="opacity:1" fill="#f4f4f4" d="M 207.5,286.5 C 207.026,271.304 206.359,260.637 205.5,254.5C 201.833,254.5 198.167,254.5 194.5,254.5C 194.5,259.5 194.5,264.5 194.5,269.5C 189.5,269.5 184.5,269.5 179.5,269.5C 179.5,274.5 179.5,279.5 179.5,284.5C 174.5,284.5 169.5,284.5 164.5,284.5C 164.5,279.5 164.5,274.5 164.5,269.5C 160.833,269.5 157.167,269.5 153.5,269.5C 153.66,267.801 153.494,266.134 153,264.5C 152.829,272.011 152.329,279.345 151.5,286.5C 151.5,279.5 151.5,272.5 151.5,265.5C 137.843,269.214 126.343,265.881 117,255.5C 114.861,249.888 112.194,244.554 109,239.5C 105.22,235.709 101.387,232.042 97.5,228.5C 104.985,225.663 111.485,227.33 117,233.5C 124.055,248.945 135.555,253.778 151.5,248C 152.751,242.498 155.084,237.498 158.5,233C 153.86,231.908 149.193,230.908 144.5,230C 121.335,222.812 109.501,206.979 109,182.5C 107.279,169.335 110.613,157.668 119,147.5C 118.512,139.531 118.512,131.531 119,123.5C 119.511,121.122 120.178,118.788 121,116.5C 132.459,116.544 142.792,120.211 152,127.5C 170.318,122.341 188.652,122.341 207,127.5C 215.898,120.128 226.065,116.294 237.5,116C 238.834,118.66 239.668,121.494 240,124.5C 240.429,132.191 240.429,139.857 240,147.5C 244.303,152.438 247.303,158.104 249,164.5C 255.536,203.638 239.369,226.471 200.5,233C 203.596,237.027 205.763,241.527 207,246.5C 207.5,259.829 207.667,273.163 207.5,286.5 Z"/></g>
<g><path style="opacity:1" fill="#edeeed" d="M -0.5,194.5 C 4.5,194.5 9.5,194.5 14.5,194.5C 14.5,199.5 14.5,204.5 14.5,209.5C 9.5,209.5 4.5,209.5 -0.5,209.5C -0.5,204.5 -0.5,199.5 -0.5,194.5 Z"/></g>
<g><path style="opacity:1" fill="#fefffe" d="M 14.5,194.5 C 19.5,194.5 24.5,194.5 29.5,194.5C 29.5,199.5 29.5,204.5 29.5,209.5C 24.5,209.5 19.5,209.5 14.5,209.5C 14.5,204.5 14.5,199.5 14.5,194.5 Z"/></g>
<g><path style="opacity:1" fill="#edeeed" d="M 29.5,194.5 C 34.5,194.5 39.5,194.5 44.5,194.5C 44.5,199.5 44.5,204.5 44.5,209.5C 39.5,209.5 34.5,209.5 29.5,209.5C 29.5,204.5 29.5,199.5 29.5,194.5 Z"/></g>
<g><path style="opacity:1" fill="#fefffe" d="M -0.5,209.5 C 4.5,209.5 9.5,209.5 14.5,209.5C 14.5,214.5 14.5,219.5 14.5,224.5C 9.5,224.5 4.5,224.5 -0.5,224.5C -0.5,219.5 -0.5,214.5 -0.5,209.5 Z"/></g>
<g><path style="opacity:1" fill="#edeeed" d="M 14.5,209.5 C 19.5,209.5 24.5,209.5 29.5,209.5C 29.5,214.5 29.5,219.5 29.5,224.5C 24.5,224.5 19.5,224.5 14.5,224.5C 14.5,219.5 14.5,214.5 14.5,209.5 Z"/></g>
<g><path style="opacity:1" fill="#fefffe" d="M 29.5,209.5 C 34.5,209.5 39.5,209.5 44.5,209.5C 44.5,214.5 44.5,219.5 44.5,224.5C 39.5,224.5 34.5,224.5 29.5,224.5C 29.5,219.5 29.5,214.5 29.5,209.5 Z"/></g>
<g><path style="opacity:1" fill="#edeeed" d="M -0.5,224.5 C 4.5,224.5 9.5,224.5 14.5,224.5C 14.5,229.5 14.5,234.5 14.5,239.5C 9.5,239.5 4.5,239.5 -0.5,239.5C -0.5,234.5 -0.5,229.5 -0.5,224.5 Z"/></g>
<g><path style="opacity:1" fill="#fefffe" d="M 14.5,224.5 C 19.5,224.5 24.5,224.5 29.5,224.5C 29.5,229.5 29.5,234.5 29.5,239.5C 24.5,239.5 19.5,239.5 14.5,239.5C 14.5,234.5 14.5,229.5 14.5,224.5 Z"/></g>
<g><path style="opacity:1" fill="#edeeed" d="M 29.5,224.5 C 34.5,224.5 39.5,224.5 44.5,224.5C 44.5,229.5 44.5,234.5 44.5,239.5C 39.5,239.5 34.5,239.5 29.5,239.5C 29.5,234.5 29.5,229.5 29.5,224.5 Z"/></g>
<g><path style="opacity:1" fill="#fefffe" d="M -0.5,239.5 C 4.5,239.5 9.5,239.5 14.5,239.5C 14.5,244.5 14.5,249.5 14.5,254.5C 9.5,254.5 4.5,254.5 -0.5,254.5C -0.5,249.5 -0.5,244.5 -0.5,239.5 Z"/></g>
<g><path style="opacity:1" fill="#edeeed" d="M 14.5,239.5 C 19.5,239.5 24.5,239.5 29.5,239.5C 29.5,244.5 29.5,249.5 29.5,254.5C 24.5,254.5 19.5,254.5 14.5,254.5C 14.5,249.5 14.5,244.5 14.5,239.5 Z"/></g>
<g><path style="opacity:1" fill="#fefffe" d="M 29.5,239.5 C 34.5,239.5 39.5,239.5 44.5,239.5C 44.5,244.5 44.5,249.5 44.5,254.5C 39.5,254.5 34.5,254.5 29.5,254.5C 29.5,249.5 29.5,244.5 29.5,239.5 Z"/></g>
<g><path style="opacity:1" fill="#f6f6f6" d="M 359.5,194.5 C 359.5,249.5 359.5,304.5 359.5,359.5C 304.5,359.5 249.5,359.5 194.5,359.5C 194.5,354.5 194.5,349.5 194.5,344.5C 189.5,344.5 184.5,344.5 179.5,344.5C 179.5,339.5 179.5,334.5 179.5,329.5C 174.5,329.5 169.5,329.5 164.5,329.5C 164.5,324.5 164.5,319.5 164.5,314.5C 159.5,314.5 154.5,314.5 149.5,314.5C 149.5,309.5 149.5,304.5 149.5,299.5C 144.5,299.5 139.5,299.5 134.5,299.5C 134.824,295.445 134.491,291.445 133.5,287.5C 132.5,287 131.5,286.5 130.5,286C 130.728,285.601 131.062,285.435 131.5,285.5C 136.544,286.959 141.544,288.626 146.5,290.5C 149.225,290.324 150.892,288.99 151.5,286.5C 152.329,279.345 152.829,272.011 153,264.5C 153.494,266.134 153.66,267.801 153.5,269.5C 157.167,269.5 160.833,269.5 164.5,269.5C 164.5,274.5 164.5,279.5 164.5,284.5C 169.5,284.5 174.5,284.5 179.5,284.5C 179.5,279.5 179.5,274.5 179.5,269.5C 184.5,269.5 189.5,269.5 194.5,269.5C 194.5,264.5 194.5,259.5 194.5,254.5C 198.167,254.5 201.833,254.5 205.5,254.5C 206.359,260.637 207.026,271.304 207.5,286.5C 207.574,288.411 208.574,289.578 210.5,290C 234.722,283.614 254.222,270.114 269,249.5C 296.457,206.917 297.624,163.584 272.5,119.5C 276.19,119.383 280.19,119.383 284.5,119.5C 284.5,124.5 284.5,129.5 284.5,134.5C 289.5,134.5 294.5,134.5 299.5,134.5C 299.5,139.5 299.5,144.5 299.5,149.5C 304.5,149.5 309.5,149.5 314.5,149.5C 314.5,154.5 314.5,159.5 314.5,164.5C 319.5,164.5 324.5,164.5 329.5,164.5C 329.5,169.5 329.5,174.5 329.5,179.5C 334.5,179.5 339.5,179.5 344.5,179.5C 344.5,184.5 344.5,189.5 344.5,194.5C 349.5,194.5 354.5,194.5 359.5,194.5 Z"/></g>
<g><path style="opacity:1" fill="#edeeed" d="M -0.5,254.5 C 4.5,254.5 9.5,254.5 14.5,254.5C 14.5,259.5 14.5,264.5 14.5,269.5C 9.5,269.5 4.5,269.5 -0.5,269.5C -0.5,264.5 -0.5,259.5 -0.5,254.5 Z"/></g>
<g><path style="opacity:1" fill="#fefffe" d="M 14.5,254.5 C 19.5,254.5 24.5,254.5 29.5,254.5C 29.5,259.5 29.5,264.5 29.5,269.5C 24.5,269.5 19.5,269.5 14.5,269.5C 14.5,264.5 14.5,259.5 14.5,254.5 Z"/></g>
<g><path style="opacity:1" fill="#edeeed" d="M 29.5,254.5 C 34.5,254.5 39.5,254.5 44.5,254.5C 44.5,259.5 44.5,264.5 44.5,269.5C 39.5,269.5 34.5,269.5 29.5,269.5C 29.5,264.5 29.5,259.5 29.5,254.5 Z"/></g>
<g><path style="opacity:1" fill="#eeeeee" d="M 82.5,237.5 C 94.2178,258.218 110.551,274.218 131.5,285.5C 131.062,285.435 130.728,285.601 130.5,286C 131.5,286.5 132.5,287 133.5,287.5C 134.491,291.445 134.824,295.445 134.5,299.5C 129.5,299.5 124.5,299.5 119.5,299.5C 119.5,294.5 119.5,289.5 119.5,284.5C 114.5,284.5 109.5,284.5 104.5,284.5C 104.5,279.5 104.5,274.5 104.5,269.5C 99.5,269.5 94.5,269.5 89.5,269.5C 89.5,264.5 89.5,259.5 89.5,254.5C 84.5,254.5 79.5,254.5 74.5,254.5C 74.5,249.5 74.5,244.5 74.5,239.5C 77.6981,240.036 80.3647,239.369 82.5,237.5 Z"/></g>
<g><path style="opacity:1" fill="#fefffe" d="M -0.5,269.5 C 4.5,269.5 9.5,269.5 14.5,269.5C 14.5,274.5 14.5,279.5 14.5,284.5C 9.5,284.5 4.5,284.5 -0.5,284.5C -0.5,279.5 -0.5,274.5 -0.5,269.5 Z"/></g>
<g><path style="opacity:1" fill="#edeeed" d="M 14.5,269.5 C 19.5,269.5 24.5,269.5 29.5,269.5C 29.5,274.5 29.5,279.5 29.5,284.5C 24.5,284.5 19.5,284.5 14.5,284.5C 14.5,279.5 14.5,274.5 14.5,269.5 Z"/></g>
<g><path style="opacity:1" fill="#fefffe" d="M 29.5,269.5 C 34.5,269.5 39.5,269.5 44.5,269.5C 44.5,274.5 44.5,279.5 44.5,284.5C 39.5,284.5 34.5,284.5 29.5,284.5C 29.5,279.5 29.5,274.5 29.5,269.5 Z"/></g>
<g><path style="opacity:1" fill="#edeeed" d="M -0.5,284.5 C 4.5,284.5 9.5,284.5 14.5,284.5C 14.5,289.5 14.5,294.5 14.5,299.5C 9.5,299.5 4.5,299.5 -0.5,299.5C -0.5,294.5 -0.5,289.5 -0.5,284.5 Z"/></g>
<g><path style="opacity:1" fill="#fefffe" d="M 14.5,284.5 C 19.5,284.5 24.5,284.5 29.5,284.5C 29.5,289.5 29.5,294.5 29.5,299.5C 24.5,299.5 19.5,299.5 14.5,299.5C 14.5,294.5 14.5,289.5 14.5,284.5 Z"/></g>
<g><path style="opacity:1" fill="#edeeed" d="M 29.5,284.5 C 34.5,284.5 39.5,284.5 44.5,284.5C 44.5,289.5 44.5,294.5 44.5,299.5C 39.5,299.5 34.5,299.5 29.5,299.5C 29.5,294.5 29.5,289.5 29.5,284.5 Z"/></g>
</svg>
