<svg width="256" height="288" viewBox="0 0 256 288" fill="none" xmlns="http://www.w3.org/2000/svg">
<path fill-rule="evenodd" clip-rule="evenodd" d="M152.576 32.9634L211.722 67.1124C213.388 65.3483 215.333 63.7907 217.54 62.5089C229.806 55.4573 245.452 59.6442 252.577 71.9109C259.629 84.1776 255.442 99.8232 243.175 106.948C240.985 108.207 238.685 109.108 236.344 109.668V177.993C238.66 178.555 240.934 179.45 243.102 180.695C255.442 187.82 259.629 203.466 252.504 215.733C245.452 227.999 229.733 232.186 217.466 225.135C215.024 223.731 212.902 221.983 211.125 219.988L152.34 253.929C153.181 256.468 153.635 259.184 153.635 262.008C153.635 276.111 142.177 287.644 128 287.644C113.823 287.644 102.365 276.185 102.365 262.008C102.365 259.488 102.727 257.054 103.402 254.755L44.2715 220.615C42.6238 222.345 40.7054 223.873 38.5337 225.135C26.1935 232.186 10.548 227.999 3.49643 215.733C-3.5551 203.466 0.631748 187.82 12.8985 180.695C15.0673 179.449 17.3418 178.553 19.6562 177.992V109.668C17.3151 109.108 15.015 108.207 12.825 106.948C0.558294 99.8967 -3.62855 84.1776 3.42298 71.9109C10.4745 59.6442 26.1935 55.4573 38.4603 62.5089C40.6551 63.7837 42.5913 65.3314 44.2507 67.0837L103.413 32.9255C102.731 30.6155 102.365 28.1688 102.365 25.6352C102.365 11.4587 113.823 0 128 0C142.177 0 153.635 11.4587 153.635 25.6352C153.635 28.1826 153.265 30.6423 152.576 32.9634ZM146.414 43.4849L205.701 77.7152C203.868 84.1517 204.541 91.2886 208.138 97.5462C211.747 103.824 217.626 107.986 224.151 109.608V178.018C223.818 178.099 223.487 178.188 223.158 178.282L145.725 44.1686C145.959 43.945 146.189 43.7171 146.414 43.4849ZM110.291 44.1841L32.8593 178.296C32.5246 178.198 32.1879 178.108 31.8495 178.024V109.608C38.3742 107.986 44.2534 103.824 47.8623 97.5462C51.4666 91.2762 52.1348 84.1235 50.2885 77.677L109.559 43.4563C109.798 43.7038 110.042 43.9464 110.291 44.1841ZM135.163 50.2598L212.577 184.341C210.844 185.993 209.317 187.918 208.064 190.097C206.818 192.265 205.923 194.539 205.362 196.855H50.6396C50.078 194.541 49.1825 192.266 47.9358 190.097C46.6777 187.932 45.1539 186.017 43.43 184.373L120.859 50.266C123.125 50.9201 125.521 51.2705 128 51.2705C130.487 51.2705 132.89 50.9179 135.163 50.2598ZM146.958 244.738L205.86 210.73C205.683 210.175 205.525 209.614 205.387 209.048H50.6068C50.5247 209.381 50.436 209.711 50.3408 210.04L109.532 244.215C114.192 239.379 120.74 236.373 128 236.373C135.518 236.373 142.272 239.596 146.958 244.738Z" fill="#E535AB"/>
</svg>
