<svg width="256" height="256" viewBox="0 0 256 256" fill="none" xmlns="http://www.w3.org/2000/svg">
<path d="M127.946 31.9908L55.0724 23.9204L0 0.00424957H63.9707L127.946 31.9951" fill="#FBC707"/>
<path d="M127.945 31.9908L202.488 25.5891L255.891 0.00424957H191.916L127.945 31.9951" fill="#FBC707"/>
<path d="M127.945 223.905L197.481 226.408L255.891 255.892H191.916L127.945 223.9" fill="#F68712"/>
<path d="M127.946 223.905H57.8538L0 255.892H63.9707L127.946 223.9" fill="#F25C19"/>
<path d="M31.9853 127.949V195.256L0 255.892V191.921L31.9853 127.947" fill="#FFF200"/>
<path d="M31.9853 127.949L26.7016 61.1916L0 0.00435638V63.9746L31.9853 127.948" fill="#FFF200"/>
<path d="M223.9 127.949L230.858 57.8539L255.891 0.00435638V63.9746L223.9 127.948" fill="#F1471D"/>
<path d="M223.9 127.949L229.746 203.044L255.891 255.892V191.921L223.9 127.947" fill="#F1471D"/>
<path d="M0 0.00435638L127.946 31.9909L107.363 113.483L31.9853 127.949L0 0.0111084" fill="#FAB20B"/>
<path d="M255.891 0.00435638L223.901 127.949L137.959 112.366L127.945 31.987L255.891 0.0111084" fill="#F47216"/>
<path d="M255.891 255.892L127.945 223.905L142.409 139.078L223.9 127.955L255.891 255.884" fill="#F25C19"/>
<path d="M0 255.892L31.9853 127.949L109.032 145.191L127.946 223.905L0 255.884" fill="#F89C0E"/>
<path d="M127.945 31.9907L31.9844 127.949L127.945 223.905L223.9 127.949L127.945 31.995" fill="#F68712"/>
</svg>
