<?xml version="1.0" encoding="UTF-8"?>
<!DOCTYPE svg PUBLIC "-//W3C//DTD SVG 1.1//EN" "http://www.w3.org/Graphics/SVG/1.1/DTD/svg11.dtd">
<svg xmlns="http://www.w3.org/2000/svg" version="1.1" width="360px" height="360px" style="shape-rendering:geometricPrecision; text-rendering:geometricPrecision; image-rendering:optimizeQuality; fill-rule:evenodd; clip-rule:evenodd" xmlns:xlink="http://www.w3.org/1999/xlink">
<g><path style="opacity:1" fill="#f6f6f7" d="M -0.5,-0.5 C 119.5,-0.5 239.5,-0.5 359.5,-0.5C 359.5,49.5 359.5,99.5 359.5,149.5C 354.5,149.5 349.5,149.5 344.5,149.5C 344.5,144.5 344.5,139.5 344.5,134.5C 339.5,134.5 334.5,134.5 329.5,134.5C 329.5,129.5 329.5,124.5 329.5,119.5C 324.5,119.5 319.5,119.5 314.5,119.5C 314.5,114.5 314.5,109.5 314.5,104.5C 309.5,104.5 304.5,104.5 299.5,104.5C 299.552,106.903 299.219,109.236 298.5,111.5C 278.73,134.219 253.73,143.052 223.5,138C 218.319,136.676 213.319,135.176 208.5,133.5C 209.441,128.93 209.774,124.263 209.5,119.5C 214.5,119.5 219.5,119.5 224.5,119.5C 224.5,114.5 224.5,109.5 224.5,104.5C 219.5,104.5 214.5,104.5 209.5,104.5C 209.5,99.5 209.5,94.5 209.5,89.5C 204.5,89.5 199.5,89.5 194.5,89.5C 194.5,84.5 194.5,79.5 194.5,74.5C 189.5,74.5 184.5,74.5 179.5,74.5C 179.5,69.5 179.5,64.5 179.5,59.5C 184.167,59.5 188.833,59.5 193.5,59.5C 210.103,88.7612 234.769,99.2612 267.5,91C 277.954,86.5934 285.454,79.4267 290,69.5C 282.331,77.2581 272.998,81.2581 262,81.5C 233.393,80.7014 213.06,67.3681 201,41.5C 196.363,29.3534 196.363,17.3534 201,5.5C 190.718,16.8503 186.551,30.1836 188.5,45.5C 187.89,47.8503 187.556,47.517 187.5,44.5C 184.833,44.5 182.167,44.5 179.5,44.5C 179.5,39.5 179.5,34.5 179.5,29.5C 174.5,29.5 169.5,29.5 164.5,29.5C 164.5,24.5 164.5,19.5 164.5,14.5C 159.455,14.6095 154.622,14.6095 150,14.5C 149.51,15.7932 149.343,17.1266 149.5,18.5C 142.403,27.6842 136.57,37.6842 132,48.5C 125.742,74.7915 130.575,98.7915 146.5,120.5C 142.566,119.64 138.566,119.307 134.5,119.5C 134.5,114.5 134.5,109.5 134.5,104.5C 129.5,104.5 124.5,104.5 119.5,104.5C 119.5,99.5 119.5,94.5 119.5,89.5C 114.5,89.5 109.5,89.5 104.5,89.5C 104.5,84.5 104.5,79.5 104.5,74.5C 99.5,74.5 94.5,74.5 89.5,74.5C 89.5,69.5 89.5,64.5 89.5,59.5C 87.2341,59.1412 85.4007,59.8078 84,61.5C 83.5357,60.9056 83.369,60.2389 83.5,59.5C 84.7922,51.8012 86.9588,44.4678 90,37.5C 84.7159,45.1189 79.0492,52.4522 73,59.5C 62.0257,78.3686 57.6923,98.702 60,120.5C 70.8462,176.351 103.346,213.185 157.5,231C 169.706,233.301 182.039,234.468 194.5,234.5C 193.929,235.973 193.929,237.64 194.5,239.5C 199.5,239.5 204.5,239.5 209.5,239.5C 209.5,244.5 209.5,249.5 209.5,254.5C 204.5,254.5 199.5,254.5 194.5,254.5C 194.5,259.5 194.5,264.5 194.5,269.5C 191.615,269.194 188.948,269.527 186.5,270.5C 181.901,270.2 177.401,270.533 173,271.5C 170.045,284.85 167.212,298.183 164.5,311.5C 159.238,311.805 154.072,311.471 149,310.5C 147.517,307.298 147.183,303.964 148,300.5C 149.721,290.729 151.887,281.062 154.5,271.5C 149.544,270.506 144.544,270.173 139.5,270.5C 137.037,282.148 134.704,293.815 132.5,305.5C 132.893,309.592 133.56,313.592 134.5,317.5C 134.427,326.252 134.427,335.252 134.5,344.5C 139.5,344.5 144.5,344.5 149.5,344.5C 149.5,349.5 149.5,354.5 149.5,359.5C 99.5,359.5 49.5,359.5 -0.5,359.5C -0.5,239.5 -0.5,119.5 -0.5,-0.5 Z"/></g>
<g><path style="opacity:1" fill="#1067ab" d="M 193.5,59.5 C 191.8,54.7822 190.133,50.1155 188.5,45.5C 186.551,30.1836 190.718,16.8503 201,5.5C 196.363,17.3534 196.363,29.3534 201,41.5C 213.06,67.3681 233.393,80.7014 262,81.5C 272.998,81.2581 282.331,77.2581 290,69.5C 285.454,79.4267 277.954,86.5934 267.5,91C 234.769,99.2612 210.103,88.7612 193.5,59.5 Z"/></g>
<g><path style="opacity:1" fill="#0d67ab" d="M 149.5,18.5 C 136.914,64.2358 150.914,100.069 191.5,126C 196.953,129.062 202.62,131.562 208.5,133.5C 213.319,135.176 218.319,136.676 223.5,138C 253.73,143.052 278.73,134.219 298.5,111.5C 287.939,136.545 269.273,152.045 242.5,158C 235.194,158.942 227.86,159.442 220.5,159.5C 200.075,159.116 181.742,152.783 165.5,140.5C 158.492,134.491 152.158,127.825 146.5,120.5C 130.575,98.7915 125.742,74.7915 132,48.5C 136.57,37.6842 142.403,27.6842 149.5,18.5 Z"/></g>
<g><path style="opacity:1" fill="#0b67ab" d="M 83.5,59.5 C 79.4263,74.8971 79.7596,90.2304 84.5,105.5C 91.2415,132.476 105.242,154.976 126.5,173C 162.155,202.281 202.488,211.448 247.5,200.5C 265.579,195.717 280.412,186.05 292,171.5C 291.441,174.637 290.274,177.637 288.5,180.5C 276.242,200.426 259.576,215.426 238.5,225.5C 224.431,230.956 209.764,233.956 194.5,234.5C 182.039,234.468 169.706,233.301 157.5,231C 103.346,213.185 70.8462,176.351 60,120.5C 57.6923,98.702 62.0257,78.3686 73,59.5C 79.0492,52.4522 84.7159,45.1189 90,37.5C 86.9588,44.4678 84.7922,51.8012 83.5,59.5 Z"/></g>
<g><path style="opacity:1" fill="#f4f4f5" d="M 188.5,45.5 C 190.133,50.1155 191.8,54.7822 193.5,59.5C 188.833,59.5 184.167,59.5 179.5,59.5C 179.5,64.5 179.5,69.5 179.5,74.5C 184.5,74.5 189.5,74.5 194.5,74.5C 194.5,79.5 194.5,84.5 194.5,89.5C 199.5,89.5 204.5,89.5 209.5,89.5C 209.5,94.5 209.5,99.5 209.5,104.5C 214.5,104.5 219.5,104.5 224.5,104.5C 224.5,109.5 224.5,114.5 224.5,119.5C 219.5,119.5 214.5,119.5 209.5,119.5C 209.774,124.263 209.441,128.93 208.5,133.5C 202.62,131.562 196.953,129.062 191.5,126C 150.914,100.069 136.914,64.2358 149.5,18.5C 149.343,17.1266 149.51,15.7932 150,14.5C 154.622,14.6095 159.455,14.6095 164.5,14.5C 164.5,19.5 164.5,24.5 164.5,29.5C 169.5,29.5 174.5,29.5 179.5,29.5C 179.5,34.5 179.5,39.5 179.5,44.5C 182.167,44.5 184.833,44.5 187.5,44.5C 187.556,47.517 187.89,47.8503 188.5,45.5 Z"/></g>
<g><path style="opacity:1" fill="#f3f3f4" d="M 83.5,59.5 C 83.369,60.2389 83.5357,60.9056 84,61.5C 85.4007,59.8078 87.2341,59.1412 89.5,59.5C 89.5,64.5 89.5,69.5 89.5,74.5C 94.5,74.5 99.5,74.5 104.5,74.5C 104.5,79.5 104.5,84.5 104.5,89.5C 109.5,89.5 114.5,89.5 119.5,89.5C 119.5,94.5 119.5,99.5 119.5,104.5C 124.5,104.5 129.5,104.5 134.5,104.5C 134.5,109.5 134.5,114.5 134.5,119.5C 138.566,119.307 142.566,119.64 146.5,120.5C 152.158,127.825 158.492,134.491 165.5,140.5C 164.523,143.287 164.19,146.287 164.5,149.5C 169.179,149.334 173.845,149.501 178.5,150C 179.469,154.737 179.803,159.57 179.5,164.5C 184.5,164.5 189.5,164.5 194.5,164.5C 194.5,169.5 194.5,174.5 194.5,179.5C 189.5,179.5 184.5,179.5 179.5,179.5C 179.5,184.5 179.5,189.5 179.5,194.5C 174.5,194.5 169.5,194.5 164.5,194.5C 164.5,189.5 164.5,184.5 164.5,179.5C 159.5,179.5 154.5,179.5 149.5,179.5C 149.5,174.5 149.5,169.5 149.5,164.5C 144.5,164.5 139.5,164.5 134.5,164.5C 134.5,159.5 134.5,154.5 134.5,149.5C 129.5,149.5 124.5,149.5 119.5,149.5C 119.5,144.5 119.5,139.5 119.5,134.5C 114.5,134.5 109.5,134.5 104.5,134.5C 104.5,129.5 104.5,124.5 104.5,119.5C 99.5,119.5 94.5,119.5 89.5,119.5C 89.5,114.5 89.5,109.5 89.5,104.5C 87.8561,104.714 86.3561,104.38 85,103.5C 84.5357,104.094 84.369,104.761 84.5,105.5C 79.7596,90.2304 79.4263,74.8971 83.5,59.5 Z"/></g>
<g><path style="opacity:1" fill="#f5f5f6" d="M 359.5,149.5 C 359.5,179.5 359.5,209.5 359.5,239.5C 354.5,239.5 349.5,239.5 344.5,239.5C 344.5,234.5 344.5,229.5 344.5,224.5C 339.5,224.5 334.5,224.5 329.5,224.5C 329.5,219.5 329.5,214.5 329.5,209.5C 324.5,209.5 319.5,209.5 314.5,209.5C 314.5,204.5 314.5,199.5 314.5,194.5C 309.5,194.5 304.5,194.5 299.5,194.5C 299.5,189.5 299.5,184.5 299.5,179.5C 296.482,179.335 293.482,179.502 290.5,180C 289.744,181.38 289.078,181.547 288.5,180.5C 290.274,177.637 291.441,174.637 292,171.5C 280.412,186.05 265.579,195.717 247.5,200.5C 245.058,199.712 242.558,200.045 240,201.5C 239.503,199.19 239.337,196.857 239.5,194.5C 244.5,194.5 249.5,194.5 254.5,194.5C 254.5,189.5 254.5,184.5 254.5,179.5C 249.5,179.5 244.5,179.5 239.5,179.5C 239.5,174.5 239.5,169.5 239.5,164.5C 234.5,164.5 229.5,164.5 224.5,164.5C 224.33,163.178 224.663,162.011 225.5,161C 223.618,160.802 221.952,160.302 220.5,159.5C 227.86,159.442 235.194,158.942 242.5,158C 269.273,152.045 287.939,136.545 298.5,111.5C 299.219,109.236 299.552,106.903 299.5,104.5C 304.5,104.5 309.5,104.5 314.5,104.5C 314.5,109.5 314.5,114.5 314.5,119.5C 319.5,119.5 324.5,119.5 329.5,119.5C 329.5,124.5 329.5,129.5 329.5,134.5C 334.5,134.5 339.5,134.5 344.5,134.5C 344.5,139.5 344.5,144.5 344.5,149.5C 349.5,149.5 354.5,149.5 359.5,149.5 Z"/></g>
<g><path style="opacity:1" fill="#f7f8f9" d="M 165.5,140.5 C 181.742,152.783 200.075,159.116 220.5,159.5C 221.952,160.302 223.618,160.802 225.5,161C 224.663,162.011 224.33,163.178 224.5,164.5C 229.5,164.5 234.5,164.5 239.5,164.5C 239.5,169.5 239.5,174.5 239.5,179.5C 244.5,179.5 249.5,179.5 254.5,179.5C 254.5,184.5 254.5,189.5 254.5,194.5C 249.5,194.5 244.5,194.5 239.5,194.5C 239.337,196.857 239.503,199.19 240,201.5C 242.558,200.045 245.058,199.712 247.5,200.5C 202.488,211.448 162.155,202.281 126.5,173C 105.242,154.976 91.2415,132.476 84.5,105.5C 84.369,104.761 84.5357,104.094 85,103.5C 86.3561,104.38 87.8561,104.714 89.5,104.5C 89.5,109.5 89.5,114.5 89.5,119.5C 94.5,119.5 99.5,119.5 104.5,119.5C 104.5,124.5 104.5,129.5 104.5,134.5C 109.5,134.5 114.5,134.5 119.5,134.5C 119.5,139.5 119.5,144.5 119.5,149.5C 124.5,149.5 129.5,149.5 134.5,149.5C 134.5,154.5 134.5,159.5 134.5,164.5C 139.5,164.5 144.5,164.5 149.5,164.5C 149.5,169.5 149.5,174.5 149.5,179.5C 154.5,179.5 159.5,179.5 164.5,179.5C 164.5,184.5 164.5,189.5 164.5,194.5C 169.5,194.5 174.5,194.5 179.5,194.5C 179.5,189.5 179.5,184.5 179.5,179.5C 184.5,179.5 189.5,179.5 194.5,179.5C 194.5,174.5 194.5,169.5 194.5,164.5C 189.5,164.5 184.5,164.5 179.5,164.5C 179.803,159.57 179.469,154.737 178.5,150C 173.845,149.501 169.179,149.334 164.5,149.5C 164.19,146.287 164.523,143.287 165.5,140.5 Z"/></g>
<g><path style="opacity:1" fill="#f4f4f5" d="M 359.5,239.5 C 359.5,279.5 359.5,319.5 359.5,359.5C 349.5,359.5 339.5,359.5 329.5,359.5C 329.5,354.5 329.5,349.5 329.5,344.5C 324.5,344.5 319.5,344.5 314.5,344.5C 314.5,339.5 314.5,334.5 314.5,329.5C 309.5,329.5 304.5,329.5 299.5,329.5C 299.36,327.876 300.027,326.71 301.5,326C 295.984,325.827 290.651,325.327 285.5,324.5C 291.167,324.5 296.833,324.5 302.5,324.5C 302.853,320.087 303.686,315.754 305,311.5C 316.975,295.358 329.141,279.358 341.5,263.5C 335.528,262.336 329.528,262.17 323.5,263C 315.995,273.995 308.329,284.829 300.5,295.5C 299.451,292.92 298.784,290.254 298.5,287.5C 293.167,287.5 287.833,287.5 282.5,287.5C 283.04,290.865 283.706,294.198 284.5,297.5C 279.807,299.36 274.807,300.026 269.5,299.5C 269.5,304.5 269.5,309.5 269.5,314.5C 266.167,314.5 262.833,314.5 259.5,314.5C 259.768,312.901 259.434,311.568 258.5,310.5C 259.717,301.472 261.717,292.639 264.5,284C 275.515,283.832 286.515,283.332 297.5,282.5C 297.193,277.207 294.86,273.207 290.5,270.5C 293.287,269.523 296.287,269.19 299.5,269.5C 299.5,264.5 299.5,259.5 299.5,254.5C 294.5,254.5 289.5,254.5 284.5,254.5C 284.5,259.5 284.5,264.5 284.5,269.5C 279.5,269.5 274.5,269.5 269.5,269.5C 269.5,264.5 269.5,259.5 269.5,254.5C 264.5,254.5 259.5,254.5 254.5,254.5C 254.5,249.5 254.5,244.5 254.5,239.5C 249.5,239.5 244.5,239.5 239.5,239.5C 239.819,234.637 239.486,229.97 238.5,225.5C 259.576,215.426 276.242,200.426 288.5,180.5C 289.078,181.547 289.744,181.38 290.5,180C 293.482,179.502 296.482,179.335 299.5,179.5C 299.5,184.5 299.5,189.5 299.5,194.5C 304.5,194.5 309.5,194.5 314.5,194.5C 314.5,199.5 314.5,204.5 314.5,209.5C 319.5,209.5 324.5,209.5 329.5,209.5C 329.5,214.5 329.5,219.5 329.5,224.5C 334.5,224.5 339.5,224.5 344.5,224.5C 344.5,229.5 344.5,234.5 344.5,239.5C 349.5,239.5 354.5,239.5 359.5,239.5 Z"/></g>
<g><path style="opacity:1" fill="#1268ac" d="M 92.5,255.5 C 117.567,253.401 129.067,264.735 127,289.5C 125.064,296.705 122.564,303.705 119.5,310.5C 121.743,311.474 124.076,311.808 126.5,311.5C 126.206,316.175 125.206,320.675 123.5,325C 109.167,325.667 94.8333,325.667 80.5,325C 67.1293,321.626 60.796,312.959 61.5,299C 62.292,284.417 67.9587,272.083 78.5,262C 83.1373,259.511 87.804,257.344 92.5,255.5 Z"/></g>
<g><path style="opacity:1" fill="#0c66ab" d="M 285.5,324.5 C 286.624,320.215 287.624,315.882 288.5,311.5C 287.452,306.626 286.119,301.959 284.5,297.5C 283.706,294.198 283.04,290.865 282.5,287.5C 287.833,287.5 293.167,287.5 298.5,287.5C 298.784,290.254 299.451,292.92 300.5,295.5C 308.329,284.829 315.995,273.995 323.5,263C 329.528,262.17 335.528,262.336 341.5,263.5C 329.141,279.358 316.975,295.358 305,311.5C 303.686,315.754 302.853,320.087 302.5,324.5C 296.833,324.5 291.167,324.5 285.5,324.5 Z"/></g>
<g><path style="opacity:1" fill="#0d67ab" d="M 220.5,269.5 C 226.803,269.453 232.303,271.453 237,275.5C 238.975,279.054 239.808,282.887 239.5,287C 239.397,291.545 238.897,296.045 238,300.5C 226.414,302.303 214.581,303.136 202.5,303C 200.949,306.572 201.949,309.239 205.5,311C 215.161,311.5 224.828,311.666 234.5,311.5C 233.99,315.884 233.157,320.218 232,324.5C 229.619,325.435 227.119,325.768 224.5,325.5C 216.16,325.666 207.827,325.5 199.5,325C 190.633,322.8 186.3,317.133 186.5,308C 186.785,297.685 189.618,288.185 195,279.5C 201.932,272.352 210.432,269.019 220.5,269.5 Z"/></g>
<g><path style="opacity:1" fill="#0c66ab" d="M 290.5,270.5 C 294.86,273.207 297.193,277.207 297.5,282.5C 286.515,283.332 275.515,283.832 264.5,284C 261.717,292.639 259.717,301.472 258.5,310.5C 257.499,315.169 256.499,319.835 255.5,324.5C 250.833,324.5 246.167,324.5 241.5,324.5C 244.932,306.84 248.432,289.174 252,271.5C 264.754,270.511 277.587,270.178 290.5,270.5 Z"/></g>
<g><path style="opacity:1" fill="#0965aa" d="M 44.5,270.5 C 49.5,270.5 54.5,270.5 59.5,270.5C 58.9423,274.792 57.9423,278.959 56.5,283C 51.8452,283.499 47.1785,283.666 42.5,283.5C 42.4231,279.037 43.0898,274.704 44.5,270.5 Z"/></g>
<g><path style="opacity:1" fill="#0c66ab" d="M 186.5,270.5 C 183.227,288.423 179.561,306.256 175.5,324C 164.167,324.667 152.833,324.667 141.5,324C 138.669,322.334 136.336,320.168 134.5,317.5C 133.56,313.592 132.893,309.592 132.5,305.5C 134.704,293.815 137.037,282.148 139.5,270.5C 144.544,270.173 149.544,270.506 154.5,271.5C 151.887,281.062 149.721,290.729 148,300.5C 147.183,303.964 147.517,307.298 149,310.5C 154.072,311.471 159.238,311.805 164.5,311.5C 167.212,298.183 170.045,284.85 173,271.5C 177.401,270.533 181.901,270.2 186.5,270.5 Z"/></g>
<g><path style="opacity:1" fill="#f8f9f9" d="M 91.5,270.5 C 97.4337,269.889 103.1,270.722 108.5,273C 111.165,277.143 111.998,281.643 111,286.5C 108.988,294.217 106.821,301.884 104.5,309.5C 97.8582,310.664 91.1915,310.831 84.5,310C 82.714,309.215 81.214,308.049 80,306.5C 77.1365,296.263 78.4698,286.596 84,277.5C 86.0147,274.588 88.5147,272.255 91.5,270.5 Z"/></g>
<g><path style="opacity:1" fill="#edeff2" d="M 211.5,282.5 C 214.85,282.335 218.183,282.502 221.5,283C 224.125,285.196 225.125,288.03 224.5,291.5C 217.833,291.5 211.167,291.5 204.5,291.5C 205.336,287.331 207.669,284.331 211.5,282.5 Z"/></g>
<g><path style="opacity:1" fill="#0f67ab" d="M 40.5,287.5 C 45.5,287.5 50.5,287.5 55.5,287.5C 52.9904,301.902 50.1571,316.235 47,330.5C 42.8141,345.456 32.9808,351.123 17.5,347.5C 17.7203,343.055 18.5536,338.722 20,334.5C 26.1207,335.05 30.1207,332.383 32,326.5C 34.6723,313.476 37.5057,300.476 40.5,287.5 Z"/></g>
<g><path style="opacity:1" fill="#f4f5f6" d="M 209.5,254.5 C 214.5,254.5 219.5,254.5 224.5,254.5C 224.5,259.167 224.5,263.833 224.5,268.5C 222.901,268.232 221.568,268.566 220.5,269.5C 210.432,269.019 201.932,272.352 195,279.5C 189.618,288.185 186.785,297.685 186.5,308C 186.3,317.133 190.633,322.8 199.5,325C 207.827,325.5 216.16,325.666 224.5,325.5C 224.5,326.833 224.5,328.167 224.5,329.5C 229.5,329.5 234.5,329.5 239.5,329.5C 239.5,334.5 239.5,339.5 239.5,344.5C 244.5,344.5 249.5,344.5 254.5,344.5C 254.5,349.5 254.5,354.5 254.5,359.5C 219.5,359.5 184.5,359.5 149.5,359.5C 149.5,354.5 149.5,349.5 149.5,344.5C 144.5,344.5 139.5,344.5 134.5,344.5C 134.427,335.252 134.427,326.252 134.5,317.5C 136.336,320.168 138.669,322.334 141.5,324C 152.833,324.667 164.167,324.667 175.5,324C 179.561,306.256 183.227,288.423 186.5,270.5C 188.948,269.527 191.615,269.194 194.5,269.5C 194.5,264.5 194.5,259.5 194.5,254.5C 199.5,254.5 204.5,254.5 209.5,254.5 Z"/></g>
<g><path style="opacity:1" fill="#a9c8de" d="M 233.5,298.5 C 235.337,298.639 235.67,299.306 234.5,300.5C 233.702,300.043 233.369,299.376 233.5,298.5 Z"/></g>
<g><path style="opacity:1" fill="#f7f7f8" d="M 238.5,225.5 C 239.486,229.97 239.819,234.637 239.5,239.5C 244.5,239.5 249.5,239.5 254.5,239.5C 254.5,244.5 254.5,249.5 254.5,254.5C 259.5,254.5 264.5,254.5 269.5,254.5C 269.5,259.5 269.5,264.5 269.5,269.5C 274.5,269.5 279.5,269.5 284.5,269.5C 284.5,264.5 284.5,259.5 284.5,254.5C 289.5,254.5 294.5,254.5 299.5,254.5C 299.5,259.5 299.5,264.5 299.5,269.5C 296.287,269.19 293.287,269.523 290.5,270.5C 277.587,270.178 264.754,270.511 252,271.5C 248.432,289.174 244.932,306.84 241.5,324.5C 246.167,324.5 250.833,324.5 255.5,324.5C 256.499,319.835 257.499,315.169 258.5,310.5C 259.434,311.568 259.768,312.901 259.5,314.5C 262.833,314.5 266.167,314.5 269.5,314.5C 269.5,309.5 269.5,304.5 269.5,299.5C 274.807,300.026 279.807,299.36 284.5,297.5C 286.119,301.959 287.452,306.626 288.5,311.5C 287.624,315.882 286.624,320.215 285.5,324.5C 290.651,325.327 295.984,325.827 301.5,326C 300.027,326.71 299.36,327.876 299.5,329.5C 304.5,329.5 309.5,329.5 314.5,329.5C 314.5,334.5 314.5,339.5 314.5,344.5C 319.5,344.5 324.5,344.5 329.5,344.5C 329.5,349.5 329.5,354.5 329.5,359.5C 304.5,359.5 279.5,359.5 254.5,359.5C 254.5,354.5 254.5,349.5 254.5,344.5C 249.5,344.5 244.5,344.5 239.5,344.5C 239.5,339.5 239.5,334.5 239.5,329.5C 234.5,329.5 229.5,329.5 224.5,329.5C 224.5,328.167 224.5,326.833 224.5,325.5C 227.119,325.768 229.619,325.435 232,324.5C 233.157,320.218 233.99,315.884 234.5,311.5C 224.828,311.666 215.161,311.5 205.5,311C 201.949,309.239 200.949,306.572 202.5,303C 214.581,303.136 226.414,302.303 238,300.5C 238.897,296.045 239.397,291.545 239.5,287C 239.808,282.887 238.975,279.054 237,275.5C 232.303,271.453 226.803,269.453 220.5,269.5C 221.568,268.566 222.901,268.232 224.5,268.5C 224.5,263.833 224.5,259.167 224.5,254.5C 219.5,254.5 214.5,254.5 209.5,254.5C 209.5,249.5 209.5,244.5 209.5,239.5C 204.5,239.5 199.5,239.5 194.5,239.5C 193.929,237.64 193.929,235.973 194.5,234.5C 209.764,233.956 224.431,230.956 238.5,225.5 Z"/></g>
</svg>
