<?xml version="1.0" encoding="UTF-8"?>
<!DOCTYPE svg PUBLIC "-//W3C//DTD SVG 1.1//EN" "http://www.w3.org/Graphics/SVG/1.1/DTD/svg11.dtd">
<svg xmlns="http://www.w3.org/2000/svg" version="1.1" width="360px" height="436px" style="shape-rendering:geometricPrecision; text-rendering:geometricPrecision; image-rendering:optimizeQuality; fill-rule:evenodd; clip-rule:evenodd" xmlns:xlink="http://www.w3.org/1999/xlink">
<g><path style="opacity:1" fill="#f6f6f6" d="M -0.5,-0.5 C 59.8333,-0.5 120.167,-0.5 180.5,-0.5C 147.746,1.74596 128.246,19.0793 122,51.5C 120.214,71.1726 120.381,90.8392 122.5,110.5C 122.025,129.07 117.191,146.404 108,162.5C 89.2488,184.938 73.2488,209.272 60,235.5C 50.58,255.169 46.58,275.836 48,297.5C 42.8755,304.293 37.3755,310.793 31.5,317C 23.7955,319.566 16.4622,322.899 9.5,327C 4.67916,331.642 2.01249,337.309 1.5,344C 2.25455,351.37 3.25455,358.703 4.5,366C 3.21097,372.039 1.5443,377.873 -0.5,383.5C -0.5,255.5 -0.5,127.5 -0.5,-0.5 Z"/></g>
<g><path style="opacity:1" fill="#040403" d="M 180.5,-0.5 C 185.833,-0.5 191.167,-0.5 196.5,-0.5C 219.687,1.86131 235.854,13.8613 245,35.5C 249.953,48.6994 252.619,62.366 253,76.5C 253.333,92.1667 253.667,107.833 254,123.5C 256.695,135.602 261.695,146.602 269,156.5C 280.817,170.805 292.151,185.472 303,200.5C 315.47,219.11 323.803,239.443 328,261.5C 329.453,275.26 328.286,288.76 324.5,302C 328.235,304.727 331.735,307.894 335,311.5C 336.528,314.417 337.861,317.417 339,320.5C 339.983,333.144 344.983,343.81 354,352.5C 355.622,356.088 357.455,359.421 359.5,362.5C 359.5,365.5 359.5,368.5 359.5,371.5C 357.798,375.043 355.465,378.21 352.5,381C 342.15,387.176 331.484,392.843 320.5,398C 317.167,400.333 313.833,402.667 310.5,405C 299.07,420.695 284.07,430.862 265.5,435.5C 262.167,435.5 258.833,435.5 255.5,435.5C 241.197,432.87 231.863,424.536 227.5,410.5C 212.612,409.778 197.779,408.445 183,406.5C 167.987,407.454 153.153,409.621 138.5,413C 132.78,423.034 124.113,428.701 112.5,430C 102.618,431.111 92.9511,430.111 83.5,427C 72.7252,421.296 61.3919,416.963 49.5,414C 36.6914,412.787 24.0247,410.787 11.5,408C 5.89468,405.231 1.89468,401.064 -0.5,395.5C -0.5,391.5 -0.5,387.5 -0.5,383.5C 1.5443,377.873 3.21097,372.039 4.5,366C 3.25455,358.703 2.25455,351.37 1.5,344C 2.01249,337.309 4.67916,331.642 9.5,327C 16.4622,322.899 23.7955,319.566 31.5,317C 37.3755,310.793 42.8755,304.293 48,297.5C 46.58,275.836 50.58,255.169 60,235.5C 73.2488,209.272 89.2488,184.938 108,162.5C 117.191,146.404 122.025,129.07 122.5,110.5C 120.381,90.8392 120.214,71.1726 122,51.5C 128.246,19.0793 147.746,1.74596 180.5,-0.5 Z"/></g>
<g><path style="opacity:1" fill="#f6f6f6" d="M 196.5,-0.5 C 250.833,-0.5 305.167,-0.5 359.5,-0.5C 359.5,120.5 359.5,241.5 359.5,362.5C 357.455,359.421 355.622,356.088 354,352.5C 344.983,343.81 339.983,333.144 339,320.5C 337.861,317.417 336.528,314.417 335,311.5C 331.735,307.894 328.235,304.727 324.5,302C 328.286,288.76 329.453,275.26 328,261.5C 323.803,239.443 315.47,219.11 303,200.5C 292.151,185.472 280.817,170.805 269,156.5C 261.695,146.602 256.695,135.602 254,123.5C 253.667,107.833 253.333,92.1667 253,76.5C 252.619,62.366 249.953,48.6994 245,35.5C 235.854,13.8613 219.687,1.86131 196.5,-0.5 Z"/></g>
<g><path style="opacity:1" fill="#f0f0f0" d="M 139.5,64.5 C 149.773,63.2173 156.273,67.5507 159,77.5C 162.701,86.2294 160.534,92.5628 152.5,96.5C 151.863,92.4285 151.029,88.4285 150,84.5C 144.977,78.7037 140.977,79.3704 138,86.5C 136.747,93.2318 138.247,99.2318 142.5,104.5C 140.833,105.833 139.167,107.167 137.5,108.5C 129.156,97.9537 127.323,86.2871 132,73.5C 134.335,70.3347 136.835,67.3347 139.5,64.5 Z"/></g>
<g><path style="opacity:1" fill="#f1f1f1" d="M 194.5,59.5 C 207.557,60.0477 215.724,66.7144 219,79.5C 220.899,89.4938 219.066,98.6605 213.5,107C 209.692,106.565 206.026,105.399 202.5,103.5C 206.228,95.8835 206.395,88.2168 203,80.5C 197.933,74.9117 193.267,75.245 189,81.5C 187.116,85.9503 185.95,90.617 185.5,95.5C 182.833,94.5 180.167,93.5 177.5,92.5C 174.667,76.9362 180.334,65.9362 194.5,59.5 Z"/></g>
<g><path style="opacity:1" fill="#fc9d00" d="M 165.5,93.5 C 171.707,93.5747 177.707,94.7414 183.5,97C 193.876,102.572 204.543,107.572 215.5,112C 221.641,117.981 222.141,124.481 217,131.5C 214.106,134.361 210.939,136.861 207.5,139C 197.919,143.124 188.586,147.791 179.5,153C 170.374,155.709 161.708,154.709 153.5,150C 146,143.833 138.5,137.667 131,131.5C 127.051,124.919 127.884,119.086 133.5,114C 140.015,109.241 146.348,104.241 152.5,99C 156.717,96.5488 161.05,94.7155 165.5,93.5 Z"/></g>
<g><path style="opacity:1" fill="#181611" d="M 208.5,120.5 C 209.773,121.077 209.773,121.743 208.5,122.5C 199.5,127.333 190.5,132.167 181.5,137C 170.153,142.08 159.153,141.413 148.5,135C 143.461,131.474 138.794,127.474 134.5,123C 135.167,122.333 135.833,122.333 136.5,123C 148.993,138.056 164.326,142.056 182.5,135C 191.39,130.392 200.057,125.559 208.5,120.5 Z"/></g>
<g><path style="opacity:1" fill="#f5f5f5" d="M 88.5,285.5 C 88.56,286.043 88.8933,286.376 89.5,286.5C 90.48,283.914 90.8134,281.247 90.5,278.5C 91.6508,263.596 95.1508,249.263 101,235.5C 112.928,211.975 122.928,187.641 131,162.5C 133.138,154.615 134.638,146.615 135.5,138.5C 142.31,143.475 148.976,148.642 155.5,154C 166.437,158.804 177.103,158.137 187.5,152C 194.442,146.695 202.109,142.695 210.5,140C 213.646,137.688 216.646,135.188 219.5,132.5C 225.301,150.735 231.801,168.735 239,186.5C 246.759,203.682 254.759,220.682 263,237.5C 266.929,247.549 269.762,257.883 271.5,268.5C 274.833,268.5 278.167,268.5 281.5,268.5C 287.477,239.259 279.643,214.259 258,193.5C 257.833,193.167 257.667,192.833 257.5,192.5C 258.002,191.479 258.668,191.312 259.5,192C 282.553,213.938 292.886,240.772 290.5,272.5C 298.435,276.047 305.601,280.713 312,286.5C 315.122,290.974 316.289,295.974 315.5,301.5C 314.127,301.657 312.793,301.49 311.5,301C 312.591,298.936 312.758,296.769 312,294.5C 309.833,289.667 306.333,286.167 301.5,284C 294.02,279.618 286.02,276.618 277.5,275C 271.837,273.888 267.004,275.388 263,279.5C 261.347,283.118 259.847,286.785 258.5,290.5C 249.914,294.589 244.414,301.256 242,310.5C 239.195,324.356 237.528,338.356 237,352.5C 235.489,358.877 233.823,365.21 232,371.5C 205.89,391.256 177.39,395.756 146.5,385C 142.283,382.639 138.116,380.139 134,377.5C 130.532,372.066 126.699,366.899 122.5,362C 137.91,358.663 141.41,350.163 133,336.5C 121.291,321.457 107.124,309.29 90.5,300C 75.1569,284.713 70.6569,266.546 77,245.5C 82.2817,228.604 89.9484,212.938 100,198.5C 100.667,199.5 100.667,200.5 100,201.5C 91.1746,216.152 84.8412,231.819 81,248.5C 79.4217,261.706 81.9217,274.039 88.5,285.5 Z"/></g>
<g><path style="opacity:1" fill="#69665f" d="M 90.5,278.5 C 90.8134,281.247 90.48,283.914 89.5,286.5C 88.8933,286.376 88.56,286.043 88.5,285.5C 89.1667,283.167 89.8333,280.833 90.5,278.5 Z"/></g>
<g><path style="opacity:1" fill="#febb00" d="M 58.5,297.5 C 64.2749,296.775 69.6083,297.941 74.5,301C 77.6667,304.167 80.8333,307.333 84,310.5C 91.1739,322.178 97.8406,334.178 104,346.5C 112.423,358.345 121.09,370.012 130,381.5C 137.291,392.899 137.291,404.232 130,415.5C 125.894,420.207 120.727,423.041 114.5,424C 106.778,424.812 99.1113,424.478 91.5,423C 80.9421,419.592 70.6087,415.592 60.5,411C 44.4585,408.162 28.4585,405.162 12.5,402C 7.17642,399.52 4.84309,395.354 5.5,389.5C 7.04361,381.536 8.37695,373.536 9.5,365.5C 8.28797,357.192 7.78797,348.859 8,340.5C 8.72457,338.051 9.72457,335.717 11,333.5C 19.1775,328.437 27.6775,323.937 36.5,320C 41.3543,314.647 46.0209,309.147 50.5,303.5C 52.9264,301.059 55.593,299.059 58.5,297.5 Z"/></g>
<g><path style="opacity:1" fill="#febb00" d="M 257.5,296.5 C 258.496,296.414 259.329,296.748 260,297.5C 262.491,316.399 272.658,323.566 290.5,319C 296.705,316.121 302.372,312.454 307.5,308C 316.321,305.446 323.821,307.613 330,314.5C 333.461,322.216 336.127,330.216 338,338.5C 341.835,345.508 346.169,352.174 351,358.5C 355.973,365.408 355.14,371.575 348.5,377C 336.5,383.667 324.5,390.333 312.5,397C 302.758,406.746 292.425,415.746 281.5,424C 270.087,430.31 258.421,431.31 246.5,427C 232.766,417.93 228.266,405.43 233,389.5C 240.254,364.645 244.92,339.312 247,313.5C 248.51,306.456 252.01,300.789 257.5,296.5 Z"/></g>
<g><path style="opacity:1" fill="#f3f3f3" d="M 359.5,371.5 C 359.5,392.833 359.5,414.167 359.5,435.5C 328.167,435.5 296.833,435.5 265.5,435.5C 284.07,430.862 299.07,420.695 310.5,405C 313.833,402.667 317.167,400.333 320.5,398C 331.484,392.843 342.15,387.176 352.5,381C 355.465,378.21 357.798,375.043 359.5,371.5 Z"/></g>
<g><path style="opacity:1" fill="#f6f6f6" d="M -0.5,395.5 C 1.89468,401.064 5.89468,405.231 11.5,408C 24.0247,410.787 36.6914,412.787 49.5,414C 61.3919,416.963 72.7252,421.296 83.5,427C 92.9511,430.111 102.618,431.111 112.5,430C 124.113,428.701 132.78,423.034 138.5,413C 153.153,409.621 167.987,407.454 183,406.5C 197.779,408.445 212.612,409.778 227.5,410.5C 231.863,424.536 241.197,432.87 255.5,435.5C 170.167,435.5 84.8333,435.5 -0.5,435.5C -0.5,422.167 -0.5,408.833 -0.5,395.5 Z"/></g>
</svg>
