<?xml version="1.0" encoding="UTF-8"?>
<!DOCTYPE svg PUBLIC "-//W3C//DTD SVG 1.1//EN" "http://www.w3.org/Graphics/SVG/1.1/DTD/svg11.dtd">
<svg xmlns="http://www.w3.org/2000/svg" version="1.1" width="452px" height="332px" style="shape-rendering:geometricPrecision; text-rendering:geometricPrecision; image-rendering:optimizeQuality; fill-rule:evenodd; clip-rule:evenodd" xmlns:xlink="http://www.w3.org/1999/xlink">
<g><path style="opacity:1" fill="#f5f5f5" d="M -0.5,-0.5 C 150.167,-0.5 300.833,-0.5 451.5,-0.5C 451.5,97.8333 451.5,196.167 451.5,294.5C 437.865,278.691 424.365,262.691 411,246.5C 410.667,171.5 410.333,96.5 410,21.5C 407.309,15.4709 402.809,11.6376 396.5,10C 280.833,9.33333 165.167,9.33333 49.5,10C 44.5275,12.969 41.0275,17.1357 39,22.5C 38.6667,97.1667 38.3333,171.833 38,246.5C 25.3022,262.024 12.4689,277.357 -0.5,292.5C -0.5,194.833 -0.5,97.1667 -0.5,-0.5 Z"/></g>
<g><path style="opacity:1" fill="#030103" d="M 451.5,294.5 C 451.5,297.833 451.5,301.167 451.5,304.5C 449.472,308.703 446.805,312.536 443.5,316C 440.205,318.434 436.538,320.101 432.5,321C 293.5,321.667 154.5,321.667 15.5,321C 8.74573,318.479 3.41239,314.312 -0.5,308.5C -0.5,303.167 -0.5,297.833 -0.5,292.5C 12.4689,277.357 25.3022,262.024 38,246.5C 38.3333,171.833 38.6667,97.1667 39,22.5C 41.0275,17.1357 44.5275,12.969 49.5,10C 165.167,9.33333 280.833,9.33333 396.5,10C 402.809,11.6376 407.309,15.4709 410,21.5C 410.333,96.5 410.667,171.5 411,246.5C 424.365,262.691 437.865,278.691 451.5,294.5 Z"/></g>
<g><path style="opacity:1" fill="#f6f6f6" d="M 72.5,24.5 C 173.501,24.3333 274.501,24.5 375.5,25C 381,26.5 384.5,30 386,35.5C 386.667,96.8333 386.667,158.167 386,219.5C 384.5,225 381,228.5 375.5,230C 274.5,230.667 173.5,230.667 72.5,230C 67.5723,228.073 64.4056,224.573 63,219.5C 62.3333,157.833 62.3333,96.1667 63,34.5C 65.0223,29.98 68.189,26.6467 72.5,24.5 Z"/></g>
<g><path style="opacity:1" fill="#080608" d="M 253.5,42.5 C 254.5,42.5 255.5,42.5 256.5,42.5C 256.588,64.3334 246.088,78.0001 225,83.5C 223.893,83.4148 222.893,83.0814 222,82.5C 221.733,67.534 227.899,56.034 240.5,48C 244.741,45.6512 249.075,43.8179 253.5,42.5 Z"/></g>
<g><path style="opacity:1" fill="#020002" d="M 186.5,82.5 C 191.511,82.3341 196.511,82.5007 201.5,83C 209.872,85.7179 218.372,87.8845 227,89.5C 234.785,88.3499 242.285,86.1833 249.5,83C 266.033,80.2879 279.866,85.1213 291,97.5C 291.749,98.635 291.583,99.635 290.5,100.5C 276.752,109.886 271.252,122.886 274,139.5C 276.072,146.813 279.572,153.313 284.5,159C 288.841,161.692 292.841,164.692 296.5,168C 290.466,183.074 281.466,196.074 269.5,207C 259.057,212.945 248.724,212.612 238.5,206C 232.224,204.576 225.891,204.242 219.5,205C 214.167,207 208.833,209 203.5,211C 194.962,212.367 187.629,210.034 181.5,204C 156.275,176.994 147.775,145.494 156,109.5C 162.616,96.3776 172.783,87.3776 186.5,82.5 Z"/></g>
<g><path style="opacity:1" fill="#f0f0f0" d="M 167.5,280.5 C 205.501,280.333 243.501,280.5 281.5,281C 285.5,286 289.5,291 293.5,296C 247.5,296.667 201.5,296.667 155.5,296C 159.63,290.894 163.63,285.727 167.5,280.5 Z"/></g>
<g><path style="opacity:1" fill="#e9e9ea" d="M 188.5,304.5 C 212.169,304.333 235.836,304.5 259.5,305C 263.065,307.178 263.399,309.844 260.5,313C 236.5,313.667 212.5,313.667 188.5,313C 186.047,310.251 186.047,307.417 188.5,304.5 Z"/></g>
<g><path style="opacity:1" fill="#f1f1f1" d="M 451.5,304.5 C 451.5,313.5 451.5,322.5 451.5,331.5C 300.833,331.5 150.167,331.5 -0.5,331.5C -0.5,323.833 -0.5,316.167 -0.5,308.5C 3.41239,314.312 8.74573,318.479 15.5,321C 154.5,321.667 293.5,321.667 432.5,321C 436.538,320.101 440.205,318.434 443.5,316C 446.805,312.536 449.472,308.703 451.5,304.5 Z"/></g>
</svg>
