<svg width="112" height="249" viewBox="0 0 112 249" fill="none" xmlns="http://www.w3.org/2000/svg">
<path fill-rule="evenodd" clip-rule="evenodd" d="M61.2247 248.567L54.6167 246.309C54.6167 246.309 55.4234 212.624 43.3353 210.206C35.2765 200.858 44.6246 -186.289 73.6356 208.917C73.6356 208.917 63.6436 213.913 61.8702 222.456C59.9354 230.837 61.2247 248.567 61.2247 248.567Z" fill="white"/>
<path fill-rule="evenodd" clip-rule="evenodd" d="M61.2247 248.567L54.6167 246.309C54.6167 246.309 55.4234 212.624 43.3353 210.206C35.2765 200.858 44.6246 -186.289 73.6356 208.917C73.6356 208.917 63.6436 213.913 61.8702 222.456C59.9354 230.837 61.2247 248.567 61.2247 248.567Z" fill="#A6A385"/>
<path fill-rule="evenodd" clip-rule="evenodd" d="M64.7701 216.01C64.7701 216.01 122.632 177.972 109.093 98.8333C96.0386 41.2939 65.2527 22.4363 61.8687 15.1828C58.1621 10.0254 54.6152 1 54.6152 1L57.0341 161.048C57.0341 161.209 52.0365 210.046 64.7701 216.01Z" fill="white"/>
<path fill-rule="evenodd" clip-rule="evenodd" d="M64.7701 216.01C64.7701 216.01 122.632 177.972 109.093 98.8333C96.0386 41.2939 65.2527 22.4363 61.8687 15.1828C58.1621 10.0254 54.6152 1 54.6152 1L57.0341 161.048C57.0341 161.209 52.0365 210.046 64.7701 216.01Z" fill="#499D4A"/>
<path fill-rule="evenodd" clip-rule="evenodd" d="M51.2308 218.105C51.2308 218.105 -3.08606 181.034 0.138055 115.759C3.1993 50.4815 41.5599 18.4078 48.9733 12.605C53.8094 7.44761 53.9708 5.51284 54.2935 0.355469C57.6775 7.60897 57.0336 108.828 57.5161 120.755C58.9668 166.69 54.9374 209.403 51.2308 218.105Z" fill="white"/>
<path fill-rule="evenodd" clip-rule="evenodd" d="M51.2308 218.105C51.2308 218.105 -3.08606 181.034 0.138055 115.759C3.1993 50.4815 41.5599 18.4078 48.9733 12.605C53.8094 7.44761 53.9708 5.51284 54.2935 0.355469C57.6775 7.60897 57.0336 108.828 57.5161 120.755C58.9668 166.69 54.9374 209.403 51.2308 218.105Z" fill="#58AA50"/>
</svg>
