<svg width="78" height="77" viewBox="0 0 78 77" fill="none" xmlns="http://www.w3.org/2000/svg">
<path d="M45.9273 0C45.3633 0 44.8395 0.119785 44.3561 0.279491C45.3834 0.958254 45.9474 1.85662 46.2295 2.87477C46.2497 3.01451 46.2899 3.11434 46.3101 3.25407C46.3303 3.37386 46.3503 3.49364 46.3503 3.61343C46.4309 5.37022 45.887 5.58982 45.5043 6.62793C44.9201 7.9655 45.0813 9.40289 45.7863 10.5608C45.8467 10.7005 45.9273 10.8602 46.028 11C45.2626 5.94917 49.5129 5.19055 50.2985 3.61343C50.3589 2.23593 49.2107 1.3176 48.3042 0.678763C47.4381 0.15971 46.6525 0 45.9273 0ZM52.333 1.13793C52.2524 1.59709 52.3128 1.47731 52.2927 1.71688C52.2725 1.87658 52.2725 2.07622 52.2525 2.23593C52.2122 2.39564 52.1718 2.55535 52.1114 2.71506C52.0712 2.87477 52.0107 3.03448 51.9503 3.19418C51.8697 3.3539 51.8093 3.49364 51.7287 3.65335C51.6683 3.73324 51.628 3.81306 51.5676 3.89292C51.5273 3.95281 51.487 4.0127 51.4467 4.07259C51.346 4.21234 51.2453 4.35208 51.1446 4.47186C51.0237 4.59164 50.923 4.73138 50.782 4.83121V4.8512C50.6611 4.95102 50.5402 5.0708 50.3992 5.17062C49.9762 5.49003 49.4928 5.7296 49.0496 6.02905C48.9086 6.12887 48.7676 6.20873 48.6467 6.32851C48.5057 6.42833 48.3849 6.52814 48.264 6.64793C48.123 6.76771 48.0223 6.88749 47.9014 7.02724C47.8007 7.14702 47.6799 7.28676 47.5993 7.42651C47.4986 7.56625 47.3978 7.706 47.3173 7.84574C47.2367 8.00545 47.1763 8.1452 47.0957 8.30491C47.0353 8.46461 46.9748 8.60436 46.9345 8.76407C46.8741 8.94375 46.8338 9.10346 46.7935 9.26317C46.7734 9.34306 46.7734 9.44284 46.7533 9.52269C46.7331 9.60258 46.7331 9.6824 46.713 9.76226C46.713 9.92197 46.6929 10.1016 46.6929 10.2613C46.6929 10.3811 46.6929 10.5009 46.713 10.6207C46.713 10.7804 46.7332 10.9401 46.7735 11.1198C46.7936 11.2795 46.8339 11.4392 46.8742 11.5989C46.9346 11.7586 46.9749 11.9183 47.0353 12.078C47.0756 12.1779 47.136 12.2777 47.1763 12.3575L42.5433 10.5808C41.7577 10.3612 40.9922 10.1615 40.2066 9.98186C39.7836 9.88204 39.3606 9.78222 38.9376 9.6824C37.729 9.44284 36.5002 9.26317 35.2715 9.14339C35.2312 9.14339 35.211 9.1234 35.1707 9.1234C33.9621 9.00362 32.7736 8.94373 31.565 8.94373C30.6787 8.94373 29.7924 8.98362 28.9262 9.04354C27.6974 9.12343 26.4687 9.28311 25.2399 9.48274C24.9378 9.52264 24.6356 9.58257 24.3335 9.64246C23.709 9.76223 23.1047 9.90198 22.5205 10.0417C22.2184 10.1216 21.9162 10.2014 21.6141 10.2813C21.3119 10.4011 21.0299 10.5408 20.7479 10.6606C20.5263 10.7604 20.3047 10.8602 20.0832 10.9601C20.0429 10.98 20.0026 10.98 19.9824 11C19.781 11.0998 19.5997 11.1796 19.4184 11.2794C19.358 11.2994 19.3177 11.3193 19.2774 11.3393C19.0558 11.4392 18.8343 11.5589 18.653 11.6588C18.512 11.7186 18.371 11.7985 18.2501 11.8584C18.1897 11.8983 18.1091 11.9383 18.0688 11.9582C17.8875 12.058 17.7062 12.1578 17.5451 12.2577C17.3638 12.3575 17.2026 12.4573 17.0616 12.5571C16.9206 12.6569 16.7796 12.7368 16.6587 12.8366C16.6386 12.8566 16.6185 12.8566 16.5983 12.8765C16.4774 12.9564 16.3364 13.0562 16.2156 13.156C16.2156 13.156 16.1954 13.176 16.1753 13.1959C16.0746 13.2758 15.9739 13.3556 15.8732 13.4354C15.8329 13.4554 15.7926 13.4953 15.7523 13.5153C15.6516 13.5952 15.5509 13.695 15.4502 13.7749C15.43 13.8148 15.3897 13.8348 15.3696 13.8548C15.2487 13.9745 15.1278 14.0744 15.007 14.1941C14.9868 14.1941 14.9868 14.2141 14.9667 14.234C14.8458 14.3339 14.725 14.4536 14.6041 14.5734C14.5839 14.5934 14.5839 14.6133 14.5639 14.6133C14.4632 14.7131 14.3624 14.813 14.2617 14.9327C14.2215 14.9726 14.161 15.0126 14.1207 15.0525C14.02 15.1723 13.8991 15.2921 13.7783 15.4119C13.7581 15.4518 13.7178 15.4717 13.6977 15.5117C13.5365 15.6714 13.3955 15.8311 13.2344 15.9908C13.2142 16.0108 13.1941 16.0307 13.1739 16.0507C12.8516 16.3901 12.5092 16.7295 12.1466 17.0289C11.784 17.3483 11.4013 17.6478 11.0186 17.9073C10.6157 18.1868 10.233 18.4264 9.80994 18.6659C9.40707 18.8855 8.98405 19.0852 8.54089 19.2648C8.11787 19.4445 7.67472 19.6042 7.23156 19.744C6.38552 19.9236 5.51935 20.263 4.77403 20.3229C4.61289 20.3229 4.43159 20.3628 4.27045 20.3828C4.08915 20.4227 3.92801 20.4627 3.76686 20.5026C3.60571 20.5625 3.44456 20.6224 3.28341 20.6823C3.12226 20.7422 2.96111 20.822 2.79997 20.9019C2.65896 21.0017 2.49781 21.0815 2.3568 21.1814C2.2158 21.2812 2.07479 21.4009 1.95393 21.5207C1.81293 21.6206 1.67192 21.7603 1.55106 21.8801C1.43019 22.0198 1.30933 22.1396 1.20862 22.2793C1.1079 22.4391 0.987037 22.5788 0.906459 22.7385C0.805743 22.8783 0.705028 23.038 0.624449 23.1977C0.543843 23.3774 0.463302 23.5371 0.402871 23.7167C0.34244 23.8764 0.282008 24.0561 0.221577 24.2358C0.181321 24.3955 0.140971 24.5552 0.120862 24.7149C0.120862 24.7349 0.100687 24.7548 0.100687 24.7748C0.0604309 24.9545 0.0604309 25.1941 0.0402555 25.3138C0.0200809 25.4536 0 25.5734 0 25.7131C0 25.793 0 25.8928 0.0201746 25.9726C0.0403492 26.1124 0.06043 26.2322 0.100781 26.352C0.141037 26.4717 0.181388 26.5915 0.241781 26.7113V26.7313C0.302212 26.8511 0.382791 26.9708 0.46336 27.0906C0.543966 27.2104 0.624516 27.3302 0.725232 27.45C0.825947 27.5498 0.94681 27.6696 1.06767 27.7694C1.18854 27.8892 1.3094 27.989 1.4504 28.0888C1.93385 28.5081 2.05471 28.6478 2.67916 28.9672C2.77988 29.0271 2.8806 29.067 3.00147 29.1269C3.02164 29.1269 3.04172 29.1469 3.0619 29.1469C3.0619 29.1868 3.0619 29.2068 3.08207 29.2467C3.10225 29.4065 3.14251 29.5662 3.18279 29.7259C3.22305 29.9055 3.28352 30.0653 3.34395 30.205C3.40438 30.3248 3.44466 30.4446 3.50509 30.5643C3.52527 30.6042 3.54535 30.6442 3.56552 30.6642C3.64613 30.8239 3.72667 30.9636 3.80724 31.1034C3.90797 31.2431 4.00868 31.3828 4.1094 31.5226C4.21011 31.6424 4.33098 31.7821 4.45184 31.9019C4.5727 32.0217 4.69356 32.1215 4.83457 32.2413C4.83457 32.2413 4.85475 32.2613 4.87483 32.2613C4.99569 32.3611 5.11655 32.4609 5.23742 32.5408C5.37842 32.6406 5.51943 32.7205 5.68057 32.8003C5.82158 32.8802 5.98273 32.96 6.14388 33.0199C6.26474 33.0798 6.40574 33.1197 6.54675 33.1597C6.56693 33.1797 6.587 33.1797 6.62736 33.1996C6.70796 33.2196 6.80864 33.2395 6.88922 33.2595C6.82879 34.3375 6.80861 35.3556 6.96982 35.715C7.15111 36.1143 8.03743 34.8965 8.92375 33.499C8.80289 34.8765 8.72231 36.4936 8.92375 36.9727C9.14533 37.4718 10.3539 35.9146 11.4014 34.1977C25.6832 30.9237 38.7162 40.7059 40.0859 54.5208C39.8241 52.3647 37.145 51.1669 35.9162 51.4663C35.3119 52.9436 34.2846 54.8402 32.6328 56.018C32.7738 54.7004 32.7134 53.3429 32.4314 52.0253C31.9882 53.862 31.122 55.5788 29.9335 57.0561C28.0199 57.1959 26.1063 56.2775 25.0991 54.9001C25.0185 54.8402 24.9984 54.7204 24.9379 54.6405C24.8775 54.5008 24.8171 54.361 24.7768 54.2213C24.7163 54.0816 24.6761 53.9418 24.6559 53.8021C24.6357 53.6623 24.6357 53.5226 24.6357 53.3629C24.6357 53.263 24.6357 53.1632 24.6357 53.0634C24.6559 52.9237 24.6962 52.7839 24.7365 52.6442C24.7767 52.5044 24.8171 52.3647 24.8775 52.2249C24.9581 52.0852 25.0185 51.9454 25.1192 51.8057C25.4616 50.8474 25.4616 50.0689 24.8372 49.6097C24.7163 49.5298 24.5955 49.4699 24.4544 49.4101C24.3738 49.3901 24.2731 49.3502 24.1926 49.3302C24.1321 49.3102 24.0919 49.2903 24.0314 49.2703C23.8904 49.2304 23.7494 49.1904 23.6084 49.1705C23.4674 49.1306 23.3264 49.1106 23.1854 49.1106C23.0444 49.0905 22.8832 49.0707 22.7422 49.0707C22.6415 49.0707 22.5408 49.0907 22.4401 49.0907C22.2789 49.0907 22.1379 49.1107 21.9969 49.1505C21.8559 49.1706 21.7149 49.1904 21.5739 49.2304C21.4329 49.2703 21.2919 49.3103 21.1509 49.3702C21.0099 49.4301 20.889 49.49 20.748 49.5499C20.6272 49.6098 20.5063 49.6896 20.3653 49.7495C15.6718 52.784 18.4718 59.891 21.6746 61.9473C20.466 62.1669 19.2373 62.4264 18.8948 62.6859C18.8746 62.7059 18.8546 62.7258 18.8546 62.7258C19.7207 63.2449 20.6272 63.6841 21.5739 64.0634C22.8631 64.4826 24.2329 64.8619 24.8372 65.0217V65.0416C26.5091 65.381 28.2012 65.5008 29.9134 65.401C38.837 64.7821 46.1492 58.0544 47.4786 49.1905C47.5189 49.3702 47.5592 49.5299 47.5995 49.7096C47.6599 50.0689 47.7405 50.4482 47.7808 50.8275V50.8475C47.821 51.0272 47.8412 51.2069 47.8614 51.3666V51.4465C47.8816 51.6262 47.9017 51.8058 47.9017 51.9655C47.9218 52.1851 47.9419 52.4047 47.9419 52.6243V52.9438C47.9419 53.0436 47.9621 53.1634 47.9621 53.2632C47.9621 53.383 47.9419 53.5027 47.9419 53.6225V53.902C47.9419 54.0418 47.9217 54.1615 47.9217 54.3013C47.9217 54.3812 47.9217 54.461 47.9015 54.5608C47.9015 54.7006 47.8814 54.8403 47.8814 55C47.8612 55.0599 47.8612 55.1198 47.8612 55.1797C47.841 55.3394 47.8209 55.4791 47.8007 55.6389C47.8007 55.6988 47.8007 55.7586 47.7806 55.8185C47.7604 56.0182 47.7201 56.1978 47.7 56.3975V56.4175V56.4375C47.6597 56.6172 47.6194 56.8168 47.5791 56.9965V57.0563C47.5388 57.236 47.4985 57.4157 47.4582 57.5954C47.4582 57.6154 47.4381 57.6553 47.4381 57.6752C47.3978 57.8549 47.3575 58.0346 47.2971 58.2143V58.2742C47.2366 58.4738 47.1762 58.6535 47.1359 58.8331C47.1158 58.8531 47.1157 58.873 47.1157 58.873C47.0553 59.0727 46.9949 59.2723 46.9345 59.4719C46.8539 59.6716 46.7935 59.8513 46.7129 60.0509C46.6323 60.2505 46.5719 60.4502 46.4913 60.6298C46.4107 60.8295 46.3302 61.0092 46.2496 61.2088H46.2294C46.1488 61.3885 46.0682 61.5881 45.9675 61.7678C45.9473 61.8277 45.9272 61.8676 45.9071 61.9075C45.8869 61.9275 45.8869 61.9474 45.8668 61.9674C44.5575 64.5826 42.6237 66.8785 40.2065 68.6752C40.0453 68.775 39.8842 68.8948 39.723 69.0146C39.6828 69.0545 39.6223 69.0745 39.582 69.1144C39.441 69.2142 39.3 69.314 39.1389 69.4139L39.1993 69.5336H39.2195C39.5015 69.4937 39.7835 69.4537 40.0655 69.4139H40.0857C40.6094 69.334 41.1331 69.2342 41.6569 69.1344C41.7979 69.1143 41.959 69.0745 42.1 69.0345C42.2007 69.0145 42.2813 68.9946 42.382 68.9746C42.523 68.9546 42.664 68.9148 42.8051 68.8948C42.9259 68.8549 43.0468 68.8349 43.1676 68.7949C45.182 68.3158 47.1359 67.657 49.0093 66.8784C45.8064 71.2105 41.5159 74.7042 36.5001 77C38.8166 76.8403 41.1331 76.461 43.3691 75.8222C51.487 73.4465 58.3156 68.0363 62.4048 60.7496C61.5789 65.3612 59.7257 69.7532 56.9862 73.5862C58.9401 72.3085 60.7329 70.8312 62.3645 69.1543C66.8767 64.4828 69.8378 58.5536 70.845 52.1852C71.5299 55.3394 71.7313 58.5935 71.4291 61.8077C85.9728 41.7043 72.6377 20.8622 67.058 15.3722C67.0378 15.3323 67.0177 15.3123 67.0177 15.2724C66.9975 15.2924 66.9975 15.2924 66.9975 15.3123C66.9975 15.2923 66.9975 15.2923 66.9773 15.2724C66.9773 15.5119 66.9572 15.7515 66.9371 15.9911C66.8767 16.4502 66.8162 16.8894 66.7356 17.3286C66.6349 17.7678 66.5141 18.207 66.3932 18.6462C66.2522 19.0655 66.0911 19.5047 65.9098 19.9239C65.7285 20.3232 65.527 20.7424 65.3055 21.1417C65.0839 21.521 64.8421 21.9203 64.5803 22.2796C64.3184 22.6589 64.0364 23.0183 63.7544 23.3576C63.4522 23.717 63.1299 24.0364 62.8076 24.3558C62.6062 24.5355 62.4249 24.6952 62.2235 24.8549C62.0623 24.9947 61.9213 25.1145 61.7602 25.2542C61.3976 25.5337 61.035 25.7932 60.6321 26.0328C60.2494 26.2723 59.8465 26.5119 59.4437 26.7115C59.0206 26.9112 58.5976 27.0909 58.1746 27.2705C57.7516 27.4302 57.3084 27.57 56.8653 27.6898C56.4221 27.8095 55.9588 27.9094 55.5157 27.9892C55.0524 28.0691 54.589 28.109 54.1459 28.1489C53.8236 28.1689 53.5013 28.1888 53.179 28.1888C52.7157 28.1888 52.2524 28.1489 51.8092 28.1089C51.3459 28.0691 50.8826 28.0091 50.4395 27.9093C49.9762 27.8294 49.533 27.7097 49.0898 27.5699H49.0697C49.5128 27.53 49.956 27.49 50.3992 27.4102C50.8624 27.3303 51.3056 27.2305 51.7488 27.1108C52.1919 26.991 52.6351 26.8512 53.0581 26.6915C53.5013 26.5318 53.9243 26.3322 54.3272 26.1325C54.7502 25.9329 55.1329 25.7133 55.5358 25.4737C55.9185 25.2142 56.3012 24.9547 56.6638 24.6752C57.0264 24.3957 57.3688 24.0962 57.6911 23.7768C58.0336 23.4774 58.3357 23.138 58.6379 22.7986C58.94 22.4393 59.2221 22.0799 59.4839 21.7206C59.5242 21.6607 59.5645 21.5808 59.6048 21.5209C59.8062 21.2015 60.0076 20.8821 60.1889 20.5627C60.4105 20.1634 60.612 19.7641 60.7933 19.3449C60.9745 18.9257 61.1357 18.5064 61.2767 18.0672C61.4177 17.648 61.5184 17.2088 61.6191 16.7696C61.6998 16.3104 61.7803 15.8712 61.8206 15.432C61.8608 14.9729 61.9012 14.5137 61.9012 14.0745C61.9012 13.7551 61.881 13.4357 61.8609 13.1162C61.8207 12.6571 61.7602 12.2179 61.6998 11.7787C61.6192 11.3195 61.5185 10.8803 61.3976 10.4411C61.2566 10.0219 61.1156 9.58266 60.9545 9.16343C60.7933 8.74419 60.5919 8.32495 60.3904 7.92568C60.1689 7.52641 59.9473 7.12713 59.7056 6.74783C59.4437 6.36852 59.1818 6.00918 58.8998 5.64982C58.5977 5.31044 58.2955 4.97106 57.9732 4.63168C57.8121 4.47197 57.6308 4.2923 57.4495 4.13259C56.543 3.43386 55.5963 2.77506 54.6495 2.17615C54.5085 2.09627 54.3877 2.0364 54.2466 1.97651C53.5819 1.55728 52.9574 1.33756 52.333 1.13793Z" fill="#E0234E"/>
</svg>
