<?xml version="1.0" encoding="UTF-8"?>
<!DOCTYPE svg PUBLIC "-//W3C//DTD SVG 1.1//EN" "http://www.w3.org/Graphics/SVG/1.1/DTD/svg11.dtd">
<svg xmlns="http://www.w3.org/2000/svg" version="1.1" width="512px" height="209px" style="shape-rendering:geometricPrecision; text-rendering:geometricPrecision; image-rendering:optimizeQuality; fill-rule:evenodd; clip-rule:evenodd" xmlns:xlink="http://www.w3.org/1999/xlink">
<g><path style="opacity:0.931" fill="#05bdba" d="M 116.5,-0.5 C 121.167,-0.5 125.833,-0.5 130.5,-0.5C 130.5,17.8333 130.5,36.1667 130.5,54.5C 125.833,54.5 121.167,54.5 116.5,54.5C 116.5,36.1667 116.5,17.8333 116.5,-0.5 Z"/></g>
<g><path style="opacity:0.955" fill="#05bebb" d="M 67.5,37.5 C 74.1086,42.9351 80.6086,48.6018 87,54.5C 87.4988,58.4862 87.6655,62.4862 87.5,66.5C 84.1501,66.665 80.8168,66.4983 77.5,66C 71.6667,60.1667 65.8333,54.3333 60,48.5C 59.3333,47.5 59.3333,46.5 60,45.5C 62.705,42.9638 65.205,40.2971 67.5,37.5 Z"/></g>
<g><path style="opacity:0.895" fill="#004847" d="M 268.5,54.5 C 273.762,54.1953 278.928,54.5286 284,55.5C 284.827,80.739 284.661,105.906 283.5,131C 278.249,131.804 273.082,131.637 268,130.5C 267.177,105.094 267.344,79.7611 268.5,54.5 Z"/></g>
<g><path style="opacity:0.894" fill="#004847" d="M 297.5,54.5 C 302.833,54.5 308.167,54.5 313.5,54.5C 313.666,58.8461 313.499,63.1794 313,67.5C 308,68.8333 303,68.8333 298,67.5C 297.501,63.1794 297.334,58.8461 297.5,54.5 Z"/></g>
<g><path style="opacity:0.955" fill="#014746" d="M 345.5,54.5 C 351.5,54.5 357.5,54.5 363.5,54.5C 363.5,59.1667 363.5,63.8333 363.5,68.5C 359.116,68.1744 354.783,68.5078 350.5,69.5C 349.22,71.7016 349.22,73.8683 350.5,76C 354.486,76.4988 358.486,76.6655 362.5,76.5C 362.666,80.8461 362.499,85.1794 362,89.5C 357.934,90.4637 353.767,90.797 349.5,90.5C 349.5,104.167 349.5,117.833 349.5,131.5C 344.167,131.5 338.833,131.5 333.5,131.5C 333.5,117.833 333.5,104.167 333.5,90.5C 330.223,90.7839 327.057,90.4505 324,89.5C 323.501,85.1794 323.334,80.8461 323.5,76.5C 326.518,76.6646 329.518,76.498 332.5,76C 331.413,65.3124 335.747,58.1457 345.5,54.5 Z"/></g>
<g><path style="opacity:0.959" fill="#014846" d="M 226.5,64.5 C 231.833,64.5 237.167,64.5 242.5,64.5C 242.207,68.4367 242.54,72.27 243.5,76C 247.821,76.499 252.154,76.6657 256.5,76.5C 256.666,80.8461 256.499,85.1794 256,89.5C 251.599,90.4667 247.099,90.8 242.5,90.5C 242.334,99.1731 242.5,107.84 243,116.5C 247.401,117.467 251.901,117.8 256.5,117.5C 256.5,122.167 256.5,126.833 256.5,131.5C 250.824,131.666 245.157,131.499 239.5,131C 233.194,129.945 229.027,126.445 227,120.5C 226.5,110.506 226.334,100.506 226.5,90.5C 223.223,90.7839 220.057,90.4505 217,89.5C 216.501,85.1794 216.334,80.8461 216.5,76.5C 219.777,76.7839 222.943,76.4505 226,75.5C 226.499,71.8484 226.665,68.1817 226.5,64.5 Z"/></g>
<g><path style="opacity:0.951" fill="#014846" d="M 97.5,75.5 C 110.171,75.3334 122.838,75.5001 135.5,76C 143.077,77.9123 147.577,82.7456 149,90.5C 149.5,104.163 149.667,117.829 149.5,131.5C 144.167,131.5 138.833,131.5 133.5,131.5C 133.943,118.426 133.443,105.426 132,92.5C 131.167,91.6667 130.333,90.8333 129.5,90C 124.177,89.5006 118.844,89.334 113.5,89.5C 113.5,103.5 113.5,117.5 113.5,131.5C 108.167,131.5 102.833,131.5 97.5,131.5C 97.5,112.833 97.5,94.1667 97.5,75.5 Z"/></g>
<g><path style="opacity:0.951" fill="#014847" d="M 184.5,74.5 C 198.115,74.9599 206.948,81.6265 211,94.5C 211.834,99.1609 212.168,103.828 212,108.5C 200.247,109.488 188.414,109.821 176.5,109.5C 178.039,117.115 182.706,119.949 190.5,118C 192.116,117.385 193.449,116.385 194.5,115C 199.489,114.501 204.489,114.334 209.5,114.5C 208.872,124.565 203.539,130.398 193.5,132C 171.734,134.794 160.067,125.294 158.5,103.5C 158.895,86.1172 167.561,76.4505 184.5,74.5 Z M 181.5,89.5 C 188.695,87.9162 193.029,90.5829 194.5,97.5C 188.5,97.5 182.5,97.5 176.5,97.5C 176.667,93.8206 178.334,91.154 181.5,89.5 Z"/></g>
<g><path style="opacity:0.95" fill="#014847" d="M 297.5,76.5 C 302.833,76.5 308.167,76.5 313.5,76.5C 313.5,94.8333 313.5,113.167 313.5,131.5C 308.167,131.5 302.833,131.5 297.5,131.5C 297.5,113.167 297.5,94.8333 297.5,76.5 Z"/></g>
<g><path style="opacity:0.945" fill="#014746" d="M 369.5,76.5 C 373.884,76.1744 378.217,76.5078 382.5,77.5C 386.715,89.6497 391.215,101.65 396,113.5C 400.136,101.424 404.47,89.4237 409,77.5C 413.066,76.5363 417.233,76.203 421.5,76.5C 421.666,81.5111 421.499,86.5111 421,91.5C 414.667,107.167 408.333,122.833 402,138.5C 395.104,149.061 385.437,152.728 373,149.5C 372.333,145.5 372.333,141.5 373,137.5C 377.161,136.812 381.327,135.979 385.5,135C 386.081,134.107 386.415,133.107 386.5,132C 381.7,117.898 376.2,104.064 370,90.5C 369.501,85.8452 369.334,81.1785 369.5,76.5 Z"/></g>
<g><path style="opacity:0.928" fill="#04bcba" d="M -0.5,96.5 C 24.8355,96.3334 50.1689,96.5 75.5,97C 76.8333,101.333 76.8333,105.667 75.5,110C 50.1689,110.5 24.8355,110.667 -0.5,110.5C -0.5,105.833 -0.5,101.167 -0.5,96.5 Z"/></g>
<g><path style="opacity:0.931" fill="#04bcba" d="M 511.5,96.5 C 511.5,101.167 511.5,105.833 511.5,110.5C 486.164,110.667 460.831,110.5 435.5,110C 435.043,109.586 434.709,109.086 434.5,108.5C 436.073,104.608 437.74,100.775 439.5,97C 463.498,96.5 487.498,96.3334 511.5,96.5 Z"/></g>
<g><path style="opacity:0.958" fill="#04bdba" d="M 77.5,140.5 C 80.7766,140.216 83.9433,140.549 87,141.5C 87.6667,145.167 87.6667,148.833 87,152.5C 81.2902,158.545 75.2902,164.212 69,169.5C 65.1667,167 62,163.833 59.5,160C 65.3251,153.341 71.3251,146.841 77.5,140.5 Z"/></g>
<g><path style="opacity:0.928" fill="#05bcb9" d="M 129.5,208.5 C 125.5,208.5 121.5,208.5 117.5,208.5C 116.348,190.24 116.181,171.907 117,153.5C 121.333,152.167 125.667,152.167 130,153.5C 130.819,171.907 130.652,190.24 129.5,208.5 Z"/></g>
</svg>
