<svg width="256" height="238" viewBox="0 0 256 238" fill="none" xmlns="http://www.w3.org/2000/svg">
<g clip-path="url(#clip0)">
<path d="M195.048 237.714C161.439 237.714 134.096 210.37 134.096 176.761C134.096 155.05 145.774 134.826 164.572 123.977L182.858 155.647C175.342 159.987 170.667 168.076 170.667 176.761C170.667 189.976 181.834 201.142 195.048 201.142C208.263 201.142 219.429 189.976 219.429 176.761C219.429 168.076 214.754 159.987 207.239 155.647L225.524 123.977C244.322 134.826 256 155.056 256 176.761C256 210.37 228.657 237.714 195.048 237.714Z" fill="#4191FD"/>
<path d="M158.475 113.547L140.19 81.8761C147.705 77.5363 152.38 69.4418 152.38 60.7622C152.38 47.5477 141.214 36.3812 127.999 36.3812C114.785 36.3812 103.618 47.5477 103.618 60.7622C103.618 69.4479 108.293 77.5363 115.809 81.8761L97.5231 113.547C78.7253 102.691 67.0469 82.4612 67.0469 60.7561C67.0469 27.1469 94.3901 -0.196289 127.999 -0.196289C161.608 -0.196289 188.952 27.1469 188.952 60.7561C188.952 82.4673 177.273 102.697 158.475 113.547Z" fill="#F52537"/>
<path d="M60.9529 237.884C39.8695 237.884 19.3407 226.955 8.05842 207.426C-8.74615 178.315 1.26223 140.97 30.367 124.159C49.1708 113.304 72.5278 113.304 91.3194 124.159L73.0337 155.83C65.5121 151.484 56.1742 151.484 48.6527 155.83C37.2059 162.437 33.122 177.688 39.7232 189.135C46.3304 200.575 61.5807 204.671 73.0337 198.058C80.5491 193.718 85.2241 185.624 85.2241 176.944H121.796C121.796 198.649 110.117 218.873 91.3194 229.729C81.7499 235.263 71.2782 237.884 60.9529 237.884Z" fill="#6DD669"/>
</g>
<defs>
<clipPath id="clip0">
<rect width="256" height="237.714" fill="white"/>
</clipPath>
</defs>
</svg>
