<svg width="512" height="258" viewBox="0 0 512 258" fill="none" xmlns="http://www.w3.org/2000/svg">
<path d="M116.448 54.1157C138.735 54.3028 154.884 60.7284 164.897 73.382C174.91 86.0355 178.213 103.319 174.813 125.231C173.493 135.244 170.563 145.064 166.03 154.697C161.684 164.33 155.643 173.017 147.897 180.763C138.451 190.584 128.348 196.817 117.581 199.463C106.815 202.109 95.6687 203.43 84.1484 203.43H50.1491L39.3826 257.262H0L40.5159 54.1157H116.448ZM452.341 54.1157C474.628 54.3028 490.778 60.7284 500.79 73.382C510.803 86.0355 514.107 103.319 510.707 125.231C509.386 135.244 506.457 145.064 501.924 154.697C497.577 164.33 491.537 173.017 483.791 180.763C474.345 190.584 464.241 196.817 453.475 199.463C442.708 202.109 431.562 203.43 420.042 203.43H386.042L375.276 257.262H335.893L376.409 54.1157H452.341ZM258.775 0L247.725 54.1157H282.858C302.124 54.4952 316.477 58.4618 325.923 66.0154C335.557 73.5691 338.39 87.9279 334.423 109.081L315.44 203.43H275.774L293.907 113.331C295.794 103.885 295.228 97.1815 292.207 93.2149C289.187 89.2483 282.671 87.265 272.658 87.265L241.208 86.9817L217.975 203.43H178.876L219.675 0H258.775ZM85.8484 86.4151C83.5818 86.6022 81.4114 86.6984 79.3318 86.6984L73.608 86.698L56.6656 171.413C57.7989 171.601 58.9322 171.697 60.0655 171.697H64.0321C82.1651 171.884 97.2777 170.093 109.365 166.314C121.452 162.347 129.577 148.56 133.731 124.948C137.131 105.115 133.731 93.6854 123.531 90.665C113.518 87.6446 100.961 86.228 85.8484 86.4151ZM421.742 86.4151C419.475 86.6022 417.305 86.6984 415.225 86.6984L409.501 86.698L392.559 171.413C393.692 171.601 394.826 171.697 395.959 171.697H399.926C418.059 171.884 433.171 170.093 445.258 166.314C457.345 162.347 465.471 148.56 469.624 124.948C473.024 105.115 469.624 93.6854 459.424 90.665C449.412 87.6446 436.854 86.228 421.742 86.4151Z" fill="black"/>
</svg>
