<svg width="256" height="256" viewBox="0 0 256 256" fill="none" xmlns="http://www.w3.org/2000/svg">
<path d="M205.192 1.68457H50.8064C23.6766 1.68457 1.68359 23.6776 1.68359 50.8074V205.193C1.68359 232.323 23.6766 254.316 50.8064 254.316H205.192C232.322 254.316 254.315 232.323 254.315 205.193V50.8074C254.315 23.6776 232.322 1.68457 205.192 1.68457Z" fill="url(#paint0_linear)"/>
<path d="M135.021 142.034C115.674 142.034 99.9336 126.293 99.9336 106.946C99.9336 87.5987 115.674 71.8584 135.021 71.8584C154.369 71.8584 170.109 87.5987 170.109 106.946C170.109 126.293 154.369 142.034 135.021 142.034ZM135.021 85.8935C123.414 85.8935 113.969 95.3391 113.969 106.946C113.969 118.553 123.414 127.999 135.021 127.999C146.628 127.999 156.074 118.553 156.074 106.946C156.074 95.3391 146.628 85.8935 135.021 85.8935Z" fill="white"/>
<path d="M135.013 170.105C100.185 170.105 71.8555 141.768 71.8555 106.947C71.8555 72.1259 100.185 43.7891 135.013 43.7891C169.841 43.7891 198.171 72.1259 198.171 106.947C198.171 141.768 169.841 170.105 135.013 170.105ZM135.013 57.8242C107.933 57.8242 85.8906 79.8592 85.8906 106.947C85.8906 134.035 107.933 156.07 135.013 156.07C162.094 156.07 184.136 134.035 184.136 106.947C184.136 79.8592 162.094 57.8242 135.013 57.8242Z" fill="white"/>
<path d="M92.9081 212.21C81.3011 212.21 71.8555 202.765 71.8555 191.158V106.947H85.8906V191.158C85.8906 195.024 89.0344 198.175 92.9081 198.175C96.7818 198.175 99.9256 195.024 99.9256 191.158V156.07H113.961V191.158C113.961 202.765 104.515 212.21 92.9081 212.21Z" fill="white"/>
<defs>
<linearGradient id="paint0_linear" x1="16.0696" y1="239.93" x2="239.929" y2="16.0705" gradientUnits="userSpaceOnUse">
<stop stop-color="#D523D3"/>
<stop offset="0.132" stop-color="#BC43DA"/>
<stop offset="0.44" stop-color="#8588EA"/>
<stop offset="0.698" stop-color="#5DBBF5"/>
<stop offset="0.892" stop-color="#44DAFC"/>
<stop offset="1" stop-color="#3BE6FF"/>
</linearGradient>
</defs>
</svg>
