<?xml version="1.0" encoding="UTF-8"?>
<!DOCTYPE svg PUBLIC "-//W3C//DTD SVG 1.1//EN" "http://www.w3.org/Graphics/SVG/1.1/DTD/svg11.dtd">
<svg xmlns="http://www.w3.org/2000/svg" version="1.1" width="300px" height="300px" style="shape-rendering:geometricPrecision; text-rendering:geometricPrecision; image-rendering:optimizeQuality; fill-rule:evenodd; clip-rule:evenodd" xmlns:xlink="http://www.w3.org/1999/xlink">
<g><path style="opacity:0.996" fill="#ff6c37" d="M 131.5,-0.5 C 143.5,-0.5 155.5,-0.5 167.5,-0.5C 230.817,9.97078 272.983,45.6374 294,106.5C 296.278,114.877 298.111,123.21 299.5,131.5C 299.5,143.5 299.5,155.5 299.5,167.5C 288.424,232.419 251.424,274.919 188.5,295C 181.069,296.719 173.735,298.219 166.5,299.5C 155.167,299.5 143.833,299.5 132.5,299.5C 70.375,289.216 28.2083,254.55 6,195.5C 3.2353,185.827 1.06863,176.161 -0.5,166.5C -0.5,155.167 -0.5,143.833 -0.5,132.5C 9.6513,68.7535 45.318,26.2535 106.5,5C 114.877,2.72213 123.21,0.888795 131.5,-0.5 Z"/></g>
<g><path style="opacity:1" fill="#fffbf9" d="M 211.5,55.5 C 217.072,54.9896 222.405,55.8229 227.5,58C 228.357,58.6891 229.023,59.5224 229.5,60.5C 222.97,67.1948 216.637,74.0282 210.5,81C 214.62,86.1225 219.12,90.9558 224,95.5C 224.271,97.807 223.105,98.9736 220.5,99C 201.716,98.8706 193.549,89.3706 196,70.5C 199.106,63.2253 204.272,58.2253 211.5,55.5 Z"/></g>
<g><path style="opacity:1" fill="#fff8f5" d="M 232.5,63.5 C 233.496,63.4142 234.329,63.7476 235,64.5C 240.931,76.1099 239.264,86.4432 230,95.5C 225.167,90.6667 220.333,85.8333 215.5,81C 221.37,75.2981 227.036,69.4647 232.5,63.5 Z"/></g>
<g><path style="opacity:1" fill="#ff6e39" d="M 231.5,73.5 C 232.496,73.4142 233.329,73.7476 234,74.5C 234.667,77.1667 234.667,79.8333 234,82.5C 233.311,83.3567 232.478,84.0233 231.5,84.5C 231.492,80.814 231.492,77.1473 231.5,73.5 Z"/></g>
<g><path style="opacity:1" fill="#fffaf8" d="M 181.5,90.5 C 186.157,89.9939 190.49,90.8272 194.5,93C 192.754,93.4709 191.087,94.1376 189.5,95C 171.167,113.333 152.833,131.667 134.5,150C 133.5,150.667 132.5,150.667 131.5,150C 128.667,147.167 125.833,144.333 123,141.5C 122.333,140.833 122.333,140.167 123,139.5C 134.833,128.333 146.667,117.167 158.5,106C 165.798,100.187 173.465,95.0204 181.5,90.5 Z"/></g>
<g><path style="opacity:1" fill="#fffbfa" d="M 192.5,97.5 C 201.054,96.8717 204.221,100.538 202,108.5C 182.87,124.627 164.037,141.127 145.5,158C 140.823,159.99 137.989,158.49 137,153.5C 155.702,134.965 174.202,116.299 192.5,97.5 Z"/></g>
<g><path style="opacity:1" fill="#fffaf8" d="M 202.5,113.5 C 203.043,113.56 203.376,113.893 203.5,114.5C 199.72,123.762 194.553,132.095 188,139.5C 177.863,150.637 167.363,161.471 156.5,172C 152.886,170.422 149.719,167.922 147,164.5C 146.333,163.833 146.333,163.167 147,162.5C 165.991,146.673 184.491,130.34 202.5,113.5 Z"/></g>
<g><path style="opacity:1" fill="#fff8f6" d="M 118.5,143.5 C 121.631,146.129 124.631,148.962 127.5,152C 120.29,154.531 112.957,156.197 105.5,157C 110.037,152.631 114.37,148.131 118.5,143.5 Z"/></g>
<g><path style="opacity:1" fill="#fff5f1" d="M 132.5,157.5 C 134.63,159.127 136.63,160.96 138.5,163C 134.527,163.998 130.527,164.331 126.5,164C 128.706,161.963 130.706,159.797 132.5,157.5 Z"/></g>
<g><path style="opacity:1" fill="#fffcfb" d="M 136.5,167.5 C 138.527,167.338 140.527,167.505 142.5,168C 145.167,170.667 147.833,173.333 150.5,176C 131.377,192.405 110.377,206.072 87.5,217C 86.9932,221.696 87.6598,226.363 89.5,231C 89.1667,231.5 88.8333,232 88.5,232.5C 83.6818,227.181 78.6818,222.015 73.5,217C 88.8625,201.971 103.862,186.638 118.5,171C 124.736,170.353 130.736,169.187 136.5,167.5 Z"/></g>
<g><path style="opacity:1" fill="#fff7f4" d="M 81.5,231.5 C 80.0813,232.451 78.4147,232.784 76.5,232.5C 70.7945,232.829 65.1278,232.495 59.5,231.5C 62.8176,227.682 66.3176,224.015 70,220.5C 73.8121,224.298 77.6454,227.965 81.5,231.5 Z"/></g>
<g><path style="opacity:1" fill="#ffc2ac" d="M 81.5,231.5 C 82.2891,231.783 82.9558,232.283 83.5,233C 80.9615,233.796 78.6282,233.629 76.5,232.5C 78.4147,232.784 80.0813,232.451 81.5,231.5 Z"/></g>
</svg>
