<svg width="256" height="310" viewBox="0 0 256 310" fill="none" xmlns="http://www.w3.org/2000/svg">
<path d="M218.281 90.1064C268.573 140.398 268.573 221.075 218.281 271.716C169.037 322.008 88.0109 322.008 37.719 271.716C-12.573 221.424 -12.573 140.398 37.719 90.1064L127.825 0V45.0532L119.443 53.4352L59.7217 113.157C22.0027 150.177 22.0027 210.947 59.7217 248.666C96.7422 286.385 157.512 286.385 195.231 248.666C232.95 211.645 232.95 150.876 195.231 113.157L218.281 90.1064ZM173.228 84.5184C163.969 84.5184 156.464 77.0129 156.464 67.7544C156.464 58.4959 163.969 50.9905 173.228 50.9905C182.486 50.9905 189.992 58.4959 189.992 67.7544C189.992 77.0129 182.486 84.5184 173.228 84.5184Z" fill="#EE4C2C"/>
</svg>
