<svg width="256" height="232" viewBox="0 0 256 232" fill="none" xmlns="http://www.w3.org/2000/svg">
<g clip-path="url(#clip0)">
<path d="M128 0L55.855 7.628L0 82.607L128 231.662L256 82.607L200.146 7.628L128 0Z" fill="#FDB300"/>
<path d="M0 82.6074L128 231.661L51.846 82.6074H0Z" fill="#EB6C00"/>
<path d="M204.153 82.6074L128 231.661L255.999 82.6074H204.153Z" fill="#EB6C00"/>
<path d="M51.8457 82.6074L128 231.661L204.154 82.6074H51.8457Z" fill="#FDAD00"/>
<path d="M55.8547 7.628L51.8457 82.607L128 0L55.8547 7.628Z" fill="#FDD231"/>
<path d="M204.153 82.607L200.145 7.627L128 0L204.153 82.607Z" fill="#FDD231"/>
<path d="M204.154 82.6069H255.999L200.145 7.62695L204.154 82.6069Z" fill="#FDAD00"/>
<path d="M0 82.6069H51.846L55.855 7.62695L0 82.6069Z" fill="#FDAD00"/>
<path d="M128 0L51.8457 82.607H204.154L128 0Z" fill="#FEEEB7"/>
</g>
<defs>
<clipPath id="clip0">
<rect width="256" height="232" fill="white"/>
</clipPath>
</defs>
</svg>
