<svg xmlns="http://www.w3.org/2000/svg" x="0px" y="0px" width="100" height="100" viewBox="0 0 48 48">
<path fill="#8bc34a" d="M43.982,23.635c0.069-4.261-0.891-9.328-2.891-15.273l-1.568-4.662l-2.13,4.433 c-0.114,0.237-0.244,0.469-0.38,0.698C33.514,5.827,28.974,4,24,4C12.954,4,4,12.954,4,24c0,11.046,8.954,20,20,20s20-8.954,20-20 C44,23.877,43.984,23.758,43.982,23.635z"></path>
<path fill="#fff" d="M39.385 32.558c-3.123 4.302-8.651 4.533-13.854 4.442H18.75h-1.938c4.428-1.593 7.063-1.972 9.754-3.4 5.068-2.665 10.078-8.496 11.121-14.562-1.93 5.836-7.779 10.85-13.109 12.889-3.652 1.393-10.248 2.745-10.248 2.745l-.267-.145C9.573 32.268 9.437 22.214 17.6 18.968c3.574-1.423 6.993-.641 10.854-1.593 4.122-1.012 8.89-4.208 10.83-8.375C41.456 15.667 44.07 26.106 39.385 32.558L39.385 32.558zM15.668 38.445C15.386 38.795 14.955 39 14.505 39c-.823 0-1.495-.677-1.495-1.5s.677-1.5 1.495-1.5c.341 0 .677.118.941.336C16.086 36.855 16.186 37.805 15.668 38.445L15.668 38.445z"></path>
</svg>