<svg width="256" height="154" viewBox="0 0 256 154" fill="none" xmlns="http://www.w3.org/2000/svg">
<path d="M128 0C93.8667 0 72.5333 17.0667 64 51.2C76.8 34.1333 91.7333 27.7333 108.8 32C118.537 34.4344 125.497 41.4986 133.201 49.3184C145.751 62.0568 160.275 76.8 192 76.8C226.133 76.8 247.467 59.7333 256 25.6C243.2 42.6667 228.267 49.0667 211.2 44.8C201.463 42.3656 194.503 35.3015 186.799 27.4816C174.249 14.7432 159.725 0 128 0ZM64 76.8C29.8667 76.8 8.53333 93.8667 0 128C12.8 110.933 27.7333 104.533 44.8 108.8C54.5375 111.234 61.4974 118.299 69.2011 126.118C81.7508 138.857 96.2754 153.6 128 153.6C162.133 153.6 183.467 136.533 192 102.4C179.2 119.467 164.267 125.867 147.2 121.6C137.463 119.166 130.503 112.101 122.799 104.282C110.249 91.5432 95.7246 76.8 64 76.8Z" fill="url(#paint0_linear)"/>
<defs>
<linearGradient id="paint0_linear" x1="-7.11111" y1="49.152" x2="213.987" y2="176.632" gradientUnits="userSpaceOnUse">
<stop stop-color="#2298BD"/>
<stop offset="1" stop-color="#0ED7B5"/>
</linearGradient>
</defs>
</svg>
