<?xml version="1.0" encoding="UTF-8"?>
<!DOCTYPE svg PUBLIC "-//W3C//DTD SVG 1.1//EN" "http://www.w3.org/Graphics/SVG/1.1/DTD/svg11.dtd">
<svg xmlns="http://www.w3.org/2000/svg" version="1.1" width="360px" height="360px" style="shape-rendering:geometricPrecision; text-rendering:geometricPrecision; image-rendering:optimizeQuality; fill-rule:evenodd; clip-rule:evenodd" xmlns:xlink="http://www.w3.org/1999/xlink">
<g><path style="opacity:1" fill="#fefffe" d="M -0.5,-0.5 C 4.5,-0.5 9.5,-0.5 14.5,-0.5C 14.5,4.5 14.5,9.5 14.5,14.5C 9.5,14.5 4.5,14.5 -0.5,14.5C -0.5,9.5 -0.5,4.5 -0.5,-0.5 Z"/></g>
<g><path style="opacity:1" fill="#edeeed" d="M 14.5,-0.5 C 19.5,-0.5 24.5,-0.5 29.5,-0.5C 29.5,4.5 29.5,9.5 29.5,14.5C 24.5,14.5 19.5,14.5 14.5,14.5C 14.5,9.5 14.5,4.5 14.5,-0.5 Z"/></g>
<g><path style="opacity:1" fill="#fefffe" d="M 29.5,-0.5 C 34.5,-0.5 39.5,-0.5 44.5,-0.5C 44.5,4.5 44.5,9.5 44.5,14.5C 39.5,14.5 34.5,14.5 29.5,14.5C 29.5,9.5 29.5,4.5 29.5,-0.5 Z"/></g>
<g><path style="opacity:1" fill="#edeeed" d="M 44.5,-0.5 C 49.5,-0.5 54.5,-0.5 59.5,-0.5C 59.5,4.5 59.5,9.5 59.5,14.5C 54.5,14.5 49.5,14.5 44.5,14.5C 44.5,9.5 44.5,4.5 44.5,-0.5 Z"/></g>
<g><path style="opacity:1" fill="#fefffe" d="M 59.5,-0.5 C 64.5,-0.5 69.5,-0.5 74.5,-0.5C 74.5,4.5 74.5,9.5 74.5,14.5C 69.5,14.5 64.5,14.5 59.5,14.5C 59.5,9.5 59.5,4.5 59.5,-0.5 Z"/></g>
<g><path style="opacity:1" fill="#edeeed" d="M 74.5,-0.5 C 79.5,-0.5 84.5,-0.5 89.5,-0.5C 89.5,4.5 89.5,9.5 89.5,14.5C 84.5,14.5 79.5,14.5 74.5,14.5C 74.5,9.5 74.5,4.5 74.5,-0.5 Z"/></g>
<g><path style="opacity:1" fill="#fefffe" d="M 89.5,-0.5 C 94.5,-0.5 99.5,-0.5 104.5,-0.5C 104.5,4.5 104.5,9.5 104.5,14.5C 99.5,14.5 94.5,14.5 89.5,14.5C 89.5,9.5 89.5,4.5 89.5,-0.5 Z"/></g>
<g><path style="opacity:1" fill="#edeeed" d="M 104.5,-0.5 C 109.5,-0.5 114.5,-0.5 119.5,-0.5C 119.5,4.5 119.5,9.5 119.5,14.5C 114.5,14.5 109.5,14.5 104.5,14.5C 104.5,9.5 104.5,4.5 104.5,-0.5 Z"/></g>
<g><path style="opacity:1" fill="#fefffe" d="M 119.5,-0.5 C 124.5,-0.5 129.5,-0.5 134.5,-0.5C 134.5,4.5 134.5,9.5 134.5,14.5C 129.5,14.5 124.5,14.5 119.5,14.5C 119.5,9.5 119.5,4.5 119.5,-0.5 Z"/></g>
<g><path style="opacity:1" fill="#edeeed" d="M 134.5,-0.5 C 139.5,-0.5 144.5,-0.5 149.5,-0.5C 149.5,4.5 149.5,9.5 149.5,14.5C 144.5,14.5 139.5,14.5 134.5,14.5C 134.5,9.5 134.5,4.5 134.5,-0.5 Z"/></g>
<g><path style="opacity:1" fill="#fefffe" d="M 149.5,-0.5 C 154.5,-0.5 159.5,-0.5 164.5,-0.5C 164.5,4.5 164.5,9.5 164.5,14.5C 159.5,14.5 154.5,14.5 149.5,14.5C 149.5,9.5 149.5,4.5 149.5,-0.5 Z"/></g>
<g><path style="opacity:1" fill="#edeeed" d="M 164.5,-0.5 C 169.5,-0.5 174.5,-0.5 179.5,-0.5C 179.5,4.5 179.5,9.5 179.5,14.5C 174.5,14.5 169.5,14.5 164.5,14.5C 164.5,9.5 164.5,4.5 164.5,-0.5 Z"/></g>
<g><path style="opacity:1" fill="#fefffe" d="M 179.5,-0.5 C 184.5,-0.5 189.5,-0.5 194.5,-0.5C 194.5,4.5 194.5,9.5 194.5,14.5C 189.5,14.5 184.5,14.5 179.5,14.5C 179.5,9.5 179.5,4.5 179.5,-0.5 Z"/></g>
<g><path style="opacity:1" fill="#edeeed" d="M 194.5,-0.5 C 199.5,-0.5 204.5,-0.5 209.5,-0.5C 209.5,4.5 209.5,9.5 209.5,14.5C 204.5,14.5 199.5,14.5 194.5,14.5C 194.5,9.5 194.5,4.5 194.5,-0.5 Z"/></g>
<g><path style="opacity:1" fill="#fefffe" d="M 209.5,-0.5 C 214.5,-0.5 219.5,-0.5 224.5,-0.5C 224.5,4.5 224.5,9.5 224.5,14.5C 219.5,14.5 214.5,14.5 209.5,14.5C 209.5,9.5 209.5,4.5 209.5,-0.5 Z"/></g>
<g><path style="opacity:1" fill="#edeeed" d="M 224.5,-0.5 C 229.5,-0.5 234.5,-0.5 239.5,-0.5C 239.5,4.5 239.5,9.5 239.5,14.5C 234.5,14.5 229.5,14.5 224.5,14.5C 224.5,9.5 224.5,4.5 224.5,-0.5 Z"/></g>
<g><path style="opacity:1" fill="#fefffe" d="M 239.5,-0.5 C 244.5,-0.5 249.5,-0.5 254.5,-0.5C 254.5,4.5 254.5,9.5 254.5,14.5C 249.5,14.5 244.5,14.5 239.5,14.5C 239.5,9.5 239.5,4.5 239.5,-0.5 Z"/></g>
<g><path style="opacity:1" fill="#edeeed" d="M 254.5,-0.5 C 259.5,-0.5 264.5,-0.5 269.5,-0.5C 269.5,4.5 269.5,9.5 269.5,14.5C 264.5,14.5 259.5,14.5 254.5,14.5C 254.5,9.5 254.5,4.5 254.5,-0.5 Z"/></g>
<g><path style="opacity:1" fill="#fefffe" d="M 269.5,-0.5 C 274.5,-0.5 279.5,-0.5 284.5,-0.5C 284.5,4.5 284.5,9.5 284.5,14.5C 279.5,14.5 274.5,14.5 269.5,14.5C 269.5,9.5 269.5,4.5 269.5,-0.5 Z"/></g>
<g><path style="opacity:1" fill="#edeeed" d="M 284.5,-0.5 C 289.5,-0.5 294.5,-0.5 299.5,-0.5C 299.5,4.5 299.5,9.5 299.5,14.5C 294.5,14.5 289.5,14.5 284.5,14.5C 284.5,9.5 284.5,4.5 284.5,-0.5 Z"/></g>
<g><path style="opacity:1" fill="#fefffe" d="M 299.5,-0.5 C 304.5,-0.5 309.5,-0.5 314.5,-0.5C 314.5,4.5 314.5,9.5 314.5,14.5C 309.5,14.5 304.5,14.5 299.5,14.5C 299.5,9.5 299.5,4.5 299.5,-0.5 Z"/></g>
<g><path style="opacity:1" fill="#edeeed" d="M 314.5,-0.5 C 319.5,-0.5 324.5,-0.5 329.5,-0.5C 329.5,4.5 329.5,9.5 329.5,14.5C 324.5,14.5 319.5,14.5 314.5,14.5C 314.5,9.5 314.5,4.5 314.5,-0.5 Z"/></g>
<g><path style="opacity:1" fill="#fefffe" d="M 329.5,-0.5 C 334.5,-0.5 339.5,-0.5 344.5,-0.5C 344.5,4.5 344.5,9.5 344.5,14.5C 339.5,14.5 334.5,14.5 329.5,14.5C 329.5,9.5 329.5,4.5 329.5,-0.5 Z"/></g>
<g><path style="opacity:1" fill="#edeeed" d="M 344.5,-0.5 C 349.5,-0.5 354.5,-0.5 359.5,-0.5C 359.5,4.5 359.5,9.5 359.5,14.5C 354.5,14.5 349.5,14.5 344.5,14.5C 344.5,9.5 344.5,4.5 344.5,-0.5 Z"/></g>
<g><path style="opacity:1" fill="#edeeed" d="M -0.5,14.5 C 4.5,14.5 9.5,14.5 14.5,14.5C 14.5,19.5 14.5,24.5 14.5,29.5C 9.5,29.5 4.5,29.5 -0.5,29.5C -0.5,24.5 -0.5,19.5 -0.5,14.5 Z"/></g>
<g><path style="opacity:1" fill="#fefffe" d="M 14.5,14.5 C 19.5,14.5 24.5,14.5 29.5,14.5C 29.5,19.5 29.5,24.5 29.5,29.5C 24.5,29.5 19.5,29.5 14.5,29.5C 14.5,24.5 14.5,19.5 14.5,14.5 Z"/></g>
<g><path style="opacity:1" fill="#edeeed" d="M 29.5,14.5 C 34.5,14.5 39.5,14.5 44.5,14.5C 44.5,19.5 44.5,24.5 44.5,29.5C 39.5,29.5 34.5,29.5 29.5,29.5C 29.5,24.5 29.5,19.5 29.5,14.5 Z"/></g>
<g><path style="opacity:1" fill="#fefffe" d="M 44.5,14.5 C 49.5,14.5 54.5,14.5 59.5,14.5C 59.5,19.5 59.5,24.5 59.5,29.5C 54.5,29.5 49.5,29.5 44.5,29.5C 44.5,24.5 44.5,19.5 44.5,14.5 Z"/></g>
<g><path style="opacity:1" fill="#edeeed" d="M 59.5,14.5 C 64.5,14.5 69.5,14.5 74.5,14.5C 74.5,19.5 74.5,24.5 74.5,29.5C 69.5,29.5 64.5,29.5 59.5,29.5C 59.5,24.5 59.5,19.5 59.5,14.5 Z"/></g>
<g><path style="opacity:1" fill="#fefffe" d="M 74.5,14.5 C 79.5,14.5 84.5,14.5 89.5,14.5C 89.5,19.5 89.5,24.5 89.5,29.5C 84.5,29.5 79.5,29.5 74.5,29.5C 74.5,24.5 74.5,19.5 74.5,14.5 Z"/></g>
<g><path style="opacity:1" fill="#edeeed" d="M 89.5,14.5 C 94.5,14.5 99.5,14.5 104.5,14.5C 104.5,19.5 104.5,24.5 104.5,29.5C 99.5,29.5 94.5,29.5 89.5,29.5C 89.5,24.5 89.5,19.5 89.5,14.5 Z"/></g>
<g><path style="opacity:1" fill="#fefffe" d="M 104.5,14.5 C 109.5,14.5 114.5,14.5 119.5,14.5C 119.5,19.5 119.5,24.5 119.5,29.5C 114.5,29.5 109.5,29.5 104.5,29.5C 104.5,24.5 104.5,19.5 104.5,14.5 Z"/></g>
<g><path style="opacity:1" fill="#edeeed" d="M 119.5,14.5 C 124.5,14.5 129.5,14.5 134.5,14.5C 134.5,19.5 134.5,24.5 134.5,29.5C 129.5,29.5 124.5,29.5 119.5,29.5C 119.5,24.5 119.5,19.5 119.5,14.5 Z"/></g>
<g><path style="opacity:1" fill="#fefffe" d="M 134.5,14.5 C 139.5,14.5 144.5,14.5 149.5,14.5C 149.5,19.5 149.5,24.5 149.5,29.5C 144.5,29.5 139.5,29.5 134.5,29.5C 134.5,24.5 134.5,19.5 134.5,14.5 Z"/></g>
<g><path style="opacity:1" fill="#edeeed" d="M 149.5,14.5 C 154.5,14.5 159.5,14.5 164.5,14.5C 164.5,19.5 164.5,24.5 164.5,29.5C 159.5,29.5 154.5,29.5 149.5,29.5C 149.5,24.5 149.5,19.5 149.5,14.5 Z"/></g>
<g><path style="opacity:1" fill="#fefffe" d="M 164.5,14.5 C 169.5,14.5 174.5,14.5 179.5,14.5C 179.5,19.5 179.5,24.5 179.5,29.5C 174.5,29.5 169.5,29.5 164.5,29.5C 164.5,24.5 164.5,19.5 164.5,14.5 Z"/></g>
<g><path style="opacity:1" fill="#edeeed" d="M 179.5,14.5 C 184.5,14.5 189.5,14.5 194.5,14.5C 194.5,19.5 194.5,24.5 194.5,29.5C 189.5,29.5 184.5,29.5 179.5,29.5C 179.5,24.5 179.5,19.5 179.5,14.5 Z"/></g>
<g><path style="opacity:1" fill="#fefffe" d="M 194.5,14.5 C 199.5,14.5 204.5,14.5 209.5,14.5C 209.5,19.5 209.5,24.5 209.5,29.5C 204.5,29.5 199.5,29.5 194.5,29.5C 194.5,24.5 194.5,19.5 194.5,14.5 Z"/></g>
<g><path style="opacity:1" fill="#edeeed" d="M 209.5,14.5 C 214.5,14.5 219.5,14.5 224.5,14.5C 224.5,19.5 224.5,24.5 224.5,29.5C 219.5,29.5 214.5,29.5 209.5,29.5C 209.5,24.5 209.5,19.5 209.5,14.5 Z"/></g>
<g><path style="opacity:1" fill="#fefffe" d="M 224.5,14.5 C 229.5,14.5 234.5,14.5 239.5,14.5C 239.5,19.5 239.5,24.5 239.5,29.5C 234.5,29.5 229.5,29.5 224.5,29.5C 224.5,24.5 224.5,19.5 224.5,14.5 Z"/></g>
<g><path style="opacity:1" fill="#edeeed" d="M 239.5,14.5 C 244.5,14.5 249.5,14.5 254.5,14.5C 254.5,19.5 254.5,24.5 254.5,29.5C 249.5,29.5 244.5,29.5 239.5,29.5C 239.5,24.5 239.5,19.5 239.5,14.5 Z"/></g>
<g><path style="opacity:1" fill="#fefffe" d="M 254.5,14.5 C 259.5,14.5 264.5,14.5 269.5,14.5C 269.5,19.5 269.5,24.5 269.5,29.5C 264.5,29.5 259.5,29.5 254.5,29.5C 254.5,24.5 254.5,19.5 254.5,14.5 Z"/></g>
<g><path style="opacity:1" fill="#edeeed" d="M 269.5,14.5 C 274.5,14.5 279.5,14.5 284.5,14.5C 284.5,19.5 284.5,24.5 284.5,29.5C 279.5,29.5 274.5,29.5 269.5,29.5C 269.5,24.5 269.5,19.5 269.5,14.5 Z"/></g>
<g><path style="opacity:1" fill="#fefffe" d="M 284.5,14.5 C 289.5,14.5 294.5,14.5 299.5,14.5C 299.5,19.5 299.5,24.5 299.5,29.5C 294.5,29.5 289.5,29.5 284.5,29.5C 284.5,24.5 284.5,19.5 284.5,14.5 Z"/></g>
<g><path style="opacity:1" fill="#edeeed" d="M 299.5,14.5 C 304.5,14.5 309.5,14.5 314.5,14.5C 314.5,19.5 314.5,24.5 314.5,29.5C 309.5,29.5 304.5,29.5 299.5,29.5C 299.5,24.5 299.5,19.5 299.5,14.5 Z"/></g>
<g><path style="opacity:1" fill="#fefffe" d="M 314.5,14.5 C 319.5,14.5 324.5,14.5 329.5,14.5C 329.5,19.5 329.5,24.5 329.5,29.5C 324.5,29.5 319.5,29.5 314.5,29.5C 314.5,24.5 314.5,19.5 314.5,14.5 Z"/></g>
<g><path style="opacity:1" fill="#edeeed" d="M 329.5,14.5 C 334.5,14.5 339.5,14.5 344.5,14.5C 344.5,19.5 344.5,24.5 344.5,29.5C 339.5,29.5 334.5,29.5 329.5,29.5C 329.5,24.5 329.5,19.5 329.5,14.5 Z"/></g>
<g><path style="opacity:1" fill="#fefffe" d="M 344.5,14.5 C 349.5,14.5 354.5,14.5 359.5,14.5C 359.5,19.5 359.5,24.5 359.5,29.5C 354.5,29.5 349.5,29.5 344.5,29.5C 344.5,24.5 344.5,19.5 344.5,14.5 Z"/></g>
<g><path style="opacity:1" fill="#fefffe" d="M -0.5,29.5 C 4.5,29.5 9.5,29.5 14.5,29.5C 14.5,34.5 14.5,39.5 14.5,44.5C 9.5,44.5 4.5,44.5 -0.5,44.5C -0.5,39.5 -0.5,34.5 -0.5,29.5 Z"/></g>
<g><path style="opacity:1" fill="#edeeed" d="M 14.5,29.5 C 19.5,29.5 24.5,29.5 29.5,29.5C 29.5,34.5 29.5,39.5 29.5,44.5C 24.5,44.5 19.5,44.5 14.5,44.5C 14.5,39.5 14.5,34.5 14.5,29.5 Z"/></g>
<g><path style="opacity:1" fill="#fefffe" d="M 29.5,29.5 C 34.5,29.5 39.5,29.5 44.5,29.5C 44.5,34.5 44.5,39.5 44.5,44.5C 39.5,44.5 34.5,44.5 29.5,44.5C 29.5,39.5 29.5,34.5 29.5,29.5 Z"/></g>
<g><path style="opacity:1" fill="#edeeed" d="M 44.5,29.5 C 49.5,29.5 54.5,29.5 59.5,29.5C 59.5,34.5 59.5,39.5 59.5,44.5C 54.5,44.5 49.5,44.5 44.5,44.5C 44.5,39.5 44.5,34.5 44.5,29.5 Z"/></g>
<g><path style="opacity:1" fill="#fefffe" d="M 59.5,29.5 C 64.5,29.5 69.5,29.5 74.5,29.5C 74.5,34.5 74.5,39.5 74.5,44.5C 69.5,44.5 64.5,44.5 59.5,44.5C 59.5,39.5 59.5,34.5 59.5,29.5 Z"/></g>
<g><path style="opacity:1" fill="#edeeed" d="M 74.5,29.5 C 79.5,29.5 84.5,29.5 89.5,29.5C 89.5,34.5 89.5,39.5 89.5,44.5C 84.5,44.5 79.5,44.5 74.5,44.5C 74.5,39.5 74.5,34.5 74.5,29.5 Z"/></g>
<g><path style="opacity:1" fill="#fefffe" d="M 89.5,29.5 C 94.5,29.5 99.5,29.5 104.5,29.5C 104.5,34.5 104.5,39.5 104.5,44.5C 99.5,44.5 94.5,44.5 89.5,44.5C 89.5,39.5 89.5,34.5 89.5,29.5 Z"/></g>
<g><path style="opacity:1" fill="#edeeed" d="M 104.5,29.5 C 109.5,29.5 114.5,29.5 119.5,29.5C 119.5,34.5 119.5,39.5 119.5,44.5C 114.5,44.5 109.5,44.5 104.5,44.5C 104.5,39.5 104.5,34.5 104.5,29.5 Z"/></g>
<g><path style="opacity:1" fill="#fefffe" d="M 119.5,29.5 C 124.5,29.5 129.5,29.5 134.5,29.5C 134.5,34.5 134.5,39.5 134.5,44.5C 129.5,44.5 124.5,44.5 119.5,44.5C 119.5,39.5 119.5,34.5 119.5,29.5 Z"/></g>
<g><path style="opacity:1" fill="#edeeed" d="M 134.5,29.5 C 139.5,29.5 144.5,29.5 149.5,29.5C 149.5,34.5 149.5,39.5 149.5,44.5C 144.5,44.5 139.5,44.5 134.5,44.5C 134.5,39.5 134.5,34.5 134.5,29.5 Z"/></g>
<g><path style="opacity:1" fill="#fefffe" d="M 149.5,29.5 C 154.5,29.5 159.5,29.5 164.5,29.5C 164.5,34.5 164.5,39.5 164.5,44.5C 159.5,44.5 154.5,44.5 149.5,44.5C 149.5,39.5 149.5,34.5 149.5,29.5 Z"/></g>
<g><path style="opacity:1" fill="#edeeed" d="M 164.5,29.5 C 169.5,29.5 174.5,29.5 179.5,29.5C 179.5,34.5 179.5,39.5 179.5,44.5C 174.5,44.5 169.5,44.5 164.5,44.5C 164.5,39.5 164.5,34.5 164.5,29.5 Z"/></g>
<g><path style="opacity:1" fill="#fefffe" d="M 179.5,29.5 C 184.5,29.5 189.5,29.5 194.5,29.5C 194.5,34.5 194.5,39.5 194.5,44.5C 189.5,44.5 184.5,44.5 179.5,44.5C 179.5,39.5 179.5,34.5 179.5,29.5 Z"/></g>
<g><path style="opacity:1" fill="#edeeed" d="M 194.5,29.5 C 199.5,29.5 204.5,29.5 209.5,29.5C 209.5,34.5 209.5,39.5 209.5,44.5C 204.5,44.5 199.5,44.5 194.5,44.5C 194.5,39.5 194.5,34.5 194.5,29.5 Z"/></g>
<g><path style="opacity:1" fill="#fefffe" d="M 209.5,29.5 C 214.5,29.5 219.5,29.5 224.5,29.5C 224.5,34.5 224.5,39.5 224.5,44.5C 219.5,44.5 214.5,44.5 209.5,44.5C 209.5,39.5 209.5,34.5 209.5,29.5 Z"/></g>
<g><path style="opacity:1" fill="#edeeed" d="M 224.5,29.5 C 229.5,29.5 234.5,29.5 239.5,29.5C 239.5,34.5 239.5,39.5 239.5,44.5C 234.5,44.5 229.5,44.5 224.5,44.5C 224.5,39.5 224.5,34.5 224.5,29.5 Z"/></g>
<g><path style="opacity:1" fill="#fefffe" d="M 239.5,29.5 C 244.5,29.5 249.5,29.5 254.5,29.5C 254.5,34.5 254.5,39.5 254.5,44.5C 249.5,44.5 244.5,44.5 239.5,44.5C 239.5,39.5 239.5,34.5 239.5,29.5 Z"/></g>
<g><path style="opacity:1" fill="#edeeed" d="M 254.5,29.5 C 259.5,29.5 264.5,29.5 269.5,29.5C 269.5,34.5 269.5,39.5 269.5,44.5C 264.5,44.5 259.5,44.5 254.5,44.5C 254.5,39.5 254.5,34.5 254.5,29.5 Z"/></g>
<g><path style="opacity:1" fill="#fefffe" d="M 269.5,29.5 C 274.5,29.5 279.5,29.5 284.5,29.5C 284.5,34.5 284.5,39.5 284.5,44.5C 279.5,44.5 274.5,44.5 269.5,44.5C 269.5,39.5 269.5,34.5 269.5,29.5 Z"/></g>
<g><path style="opacity:1" fill="#edeeed" d="M 284.5,29.5 C 289.5,29.5 294.5,29.5 299.5,29.5C 299.5,34.5 299.5,39.5 299.5,44.5C 294.5,44.5 289.5,44.5 284.5,44.5C 284.5,39.5 284.5,34.5 284.5,29.5 Z"/></g>
<g><path style="opacity:1" fill="#fefffe" d="M 299.5,29.5 C 304.5,29.5 309.5,29.5 314.5,29.5C 314.5,34.5 314.5,39.5 314.5,44.5C 309.5,44.5 304.5,44.5 299.5,44.5C 299.5,39.5 299.5,34.5 299.5,29.5 Z"/></g>
<g><path style="opacity:1" fill="#edeeed" d="M 314.5,29.5 C 319.5,29.5 324.5,29.5 329.5,29.5C 329.5,34.5 329.5,39.5 329.5,44.5C 324.5,44.5 319.5,44.5 314.5,44.5C 314.5,39.5 314.5,34.5 314.5,29.5 Z"/></g>
<g><path style="opacity:1" fill="#fefffe" d="M 329.5,29.5 C 334.5,29.5 339.5,29.5 344.5,29.5C 344.5,34.5 344.5,39.5 344.5,44.5C 339.5,44.5 334.5,44.5 329.5,44.5C 329.5,39.5 329.5,34.5 329.5,29.5 Z"/></g>
<g><path style="opacity:1" fill="#edeeed" d="M 344.5,29.5 C 349.5,29.5 354.5,29.5 359.5,29.5C 359.5,34.5 359.5,39.5 359.5,44.5C 354.5,44.5 349.5,44.5 344.5,44.5C 344.5,39.5 344.5,34.5 344.5,29.5 Z"/></g>
<g><path style="opacity:1" fill="#edeeed" d="M -0.5,44.5 C 4.5,44.5 9.5,44.5 14.5,44.5C 14.5,49.5 14.5,54.5 14.5,59.5C 9.5,59.5 4.5,59.5 -0.5,59.5C -0.5,54.5 -0.5,49.5 -0.5,44.5 Z"/></g>
<g><path style="opacity:1" fill="#fefffe" d="M 14.5,44.5 C 19.5,44.5 24.5,44.5 29.5,44.5C 29.5,49.5 29.5,54.5 29.5,59.5C 24.5,59.5 19.5,59.5 14.5,59.5C 14.5,54.5 14.5,49.5 14.5,44.5 Z"/></g>
<g><path style="opacity:1" fill="#edeeed" d="M 29.5,44.5 C 34.5,44.5 39.5,44.5 44.5,44.5C 44.5,49.5 44.5,54.5 44.5,59.5C 39.5,59.5 34.5,59.5 29.5,59.5C 29.5,54.5 29.5,49.5 29.5,44.5 Z"/></g>
<g><path style="opacity:1" fill="#fefffe" d="M 44.5,44.5 C 49.5,44.5 54.5,44.5 59.5,44.5C 59.5,49.5 59.5,54.5 59.5,59.5C 54.5,59.5 49.5,59.5 44.5,59.5C 44.5,54.5 44.5,49.5 44.5,44.5 Z"/></g>
<g><path style="opacity:1" fill="#edeeed" d="M 59.5,44.5 C 64.5,44.5 69.5,44.5 74.5,44.5C 74.5,49.5 74.5,54.5 74.5,59.5C 69.5,59.5 64.5,59.5 59.5,59.5C 59.5,54.5 59.5,49.5 59.5,44.5 Z"/></g>
<g><path style="opacity:1" fill="#fefffe" d="M 74.5,44.5 C 79.5,44.5 84.5,44.5 89.5,44.5C 89.5,49.5 89.5,54.5 89.5,59.5C 84.5,59.5 79.5,59.5 74.5,59.5C 74.5,54.5 74.5,49.5 74.5,44.5 Z"/></g>
<g><path style="opacity:1" fill="#edeeed" d="M 89.5,44.5 C 94.5,44.5 99.5,44.5 104.5,44.5C 104.5,49.5 104.5,54.5 104.5,59.5C 99.5,59.5 94.5,59.5 89.5,59.5C 89.5,54.5 89.5,49.5 89.5,44.5 Z"/></g>
<g><path style="opacity:1" fill="#fefffe" d="M 104.5,44.5 C 109.5,44.5 114.5,44.5 119.5,44.5C 119.5,49.5 119.5,54.5 119.5,59.5C 114.5,59.5 109.5,59.5 104.5,59.5C 104.5,54.5 104.5,49.5 104.5,44.5 Z"/></g>
<g><path style="opacity:1" fill="#edeeed" d="M 119.5,44.5 C 124.5,44.5 129.5,44.5 134.5,44.5C 134.5,49.5 134.5,54.5 134.5,59.5C 129.5,59.5 124.5,59.5 119.5,59.5C 119.5,54.5 119.5,49.5 119.5,44.5 Z"/></g>
<g><path style="opacity:1" fill="#fefffe" d="M 134.5,44.5 C 139.5,44.5 144.5,44.5 149.5,44.5C 149.5,49.5 149.5,54.5 149.5,59.5C 144.5,59.5 139.5,59.5 134.5,59.5C 134.5,54.5 134.5,49.5 134.5,44.5 Z"/></g>
<g><path style="opacity:1" fill="#edeeed" d="M 149.5,44.5 C 154.5,44.5 159.5,44.5 164.5,44.5C 164.5,49.5 164.5,54.5 164.5,59.5C 159.5,59.5 154.5,59.5 149.5,59.5C 149.5,54.5 149.5,49.5 149.5,44.5 Z"/></g>
<g><path style="opacity:1" fill="#fefffe" d="M 164.5,44.5 C 169.5,44.5 174.5,44.5 179.5,44.5C 179.5,49.5 179.5,54.5 179.5,59.5C 174.5,59.5 169.5,59.5 164.5,59.5C 164.5,54.5 164.5,49.5 164.5,44.5 Z"/></g>
<g><path style="opacity:1" fill="#edeeed" d="M 179.5,44.5 C 184.5,44.5 189.5,44.5 194.5,44.5C 194.5,49.5 194.5,54.5 194.5,59.5C 189.5,59.5 184.5,59.5 179.5,59.5C 179.5,54.5 179.5,49.5 179.5,44.5 Z"/></g>
<g><path style="opacity:1" fill="#fefffe" d="M 194.5,44.5 C 199.5,44.5 204.5,44.5 209.5,44.5C 209.5,49.5 209.5,54.5 209.5,59.5C 204.5,59.5 199.5,59.5 194.5,59.5C 194.5,54.5 194.5,49.5 194.5,44.5 Z"/></g>
<g><path style="opacity:1" fill="#edeeed" d="M 209.5,44.5 C 214.5,44.5 219.5,44.5 224.5,44.5C 224.5,49.5 224.5,54.5 224.5,59.5C 219.5,59.5 214.5,59.5 209.5,59.5C 209.5,54.5 209.5,49.5 209.5,44.5 Z"/></g>
<g><path style="opacity:1" fill="#fefffe" d="M 224.5,44.5 C 229.5,44.5 234.5,44.5 239.5,44.5C 239.5,49.5 239.5,54.5 239.5,59.5C 234.5,59.5 229.5,59.5 224.5,59.5C 224.5,54.5 224.5,49.5 224.5,44.5 Z"/></g>
<g><path style="opacity:1" fill="#edeeed" d="M 239.5,44.5 C 244.5,44.5 249.5,44.5 254.5,44.5C 254.5,49.5 254.5,54.5 254.5,59.5C 249.5,59.5 244.5,59.5 239.5,59.5C 239.5,54.5 239.5,49.5 239.5,44.5 Z"/></g>
<g><path style="opacity:1" fill="#edeeed" d="M 269.5,44.5 C 274.5,44.5 279.5,44.5 284.5,44.5C 284.5,49.5 284.5,54.5 284.5,59.5C 279.5,59.5 274.5,59.5 269.5,59.5C 269.5,54.5 269.5,49.5 269.5,44.5 Z"/></g>
<g><path style="opacity:1" fill="#fefffe" d="M 284.5,44.5 C 289.5,44.5 294.5,44.5 299.5,44.5C 299.5,49.5 299.5,54.5 299.5,59.5C 294.5,59.5 289.5,59.5 284.5,59.5C 284.5,54.5 284.5,49.5 284.5,44.5 Z"/></g>
<g><path style="opacity:1" fill="#edeeed" d="M 299.5,44.5 C 304.5,44.5 309.5,44.5 314.5,44.5C 314.5,49.5 314.5,54.5 314.5,59.5C 309.5,59.5 304.5,59.5 299.5,59.5C 299.5,54.5 299.5,49.5 299.5,44.5 Z"/></g>
<g><path style="opacity:1" fill="#fefffe" d="M 314.5,44.5 C 319.5,44.5 324.5,44.5 329.5,44.5C 329.5,49.5 329.5,54.5 329.5,59.5C 324.5,59.5 319.5,59.5 314.5,59.5C 314.5,54.5 314.5,49.5 314.5,44.5 Z"/></g>
<g><path style="opacity:1" fill="#edeeed" d="M 329.5,44.5 C 334.5,44.5 339.5,44.5 344.5,44.5C 344.5,49.5 344.5,54.5 344.5,59.5C 339.5,59.5 334.5,59.5 329.5,59.5C 329.5,54.5 329.5,49.5 329.5,44.5 Z"/></g>
<g><path style="opacity:1" fill="#fefffe" d="M 344.5,44.5 C 349.5,44.5 354.5,44.5 359.5,44.5C 359.5,49.5 359.5,54.5 359.5,59.5C 354.5,59.5 349.5,59.5 344.5,59.5C 344.5,54.5 344.5,49.5 344.5,44.5 Z"/></g>
<g><path style="opacity:1" fill="#fefffe" d="M -0.5,59.5 C 4.5,59.5 9.5,59.5 14.5,59.5C 14.5,64.5 14.5,69.5 14.5,74.5C 9.5,74.5 4.5,74.5 -0.5,74.5C -0.5,69.5 -0.5,64.5 -0.5,59.5 Z"/></g>
<g><path style="opacity:1" fill="#edeeed" d="M 14.5,59.5 C 19.5,59.5 24.5,59.5 29.5,59.5C 29.5,64.5 29.5,69.5 29.5,74.5C 24.5,74.5 19.5,74.5 14.5,74.5C 14.5,69.5 14.5,64.5 14.5,59.5 Z"/></g>
<g><path style="opacity:1" fill="#fefffe" d="M 29.5,59.5 C 34.5,59.5 39.5,59.5 44.5,59.5C 44.5,64.5 44.5,69.5 44.5,74.5C 39.5,74.5 34.5,74.5 29.5,74.5C 29.5,69.5 29.5,64.5 29.5,59.5 Z"/></g>
<g><path style="opacity:1" fill="#edeeed" d="M 44.5,59.5 C 49.5,59.5 54.5,59.5 59.5,59.5C 59.5,64.5 59.5,69.5 59.5,74.5C 54.5,74.5 49.5,74.5 44.5,74.5C 44.5,69.5 44.5,64.5 44.5,59.5 Z"/></g>
<g><path style="opacity:1" fill="#fefffe" d="M 59.5,59.5 C 64.5,59.5 69.5,59.5 74.5,59.5C 74.5,64.5 74.5,69.5 74.5,74.5C 69.5,74.5 64.5,74.5 59.5,74.5C 59.5,69.5 59.5,64.5 59.5,59.5 Z"/></g>
<g><path style="opacity:1" fill="#fefffe" d="M 89.5,59.5 C 94.5,59.5 99.5,59.5 104.5,59.5C 104.5,62.8333 104.5,66.1667 104.5,69.5C 100.167,69.5 95.8333,69.5 91.5,69.5C 90.448,69.6495 89.448,69.4828 88.5,69C 89.4505,65.9433 89.7839,62.7766 89.5,59.5 Z"/></g>
<g><path style="opacity:1" fill="#edeeed" d="M 104.5,59.5 C 109.5,59.5 114.5,59.5 119.5,59.5C 119.5,62.8333 119.5,66.1667 119.5,69.5C 114.5,69.5 109.5,69.5 104.5,69.5C 104.5,66.1667 104.5,62.8333 104.5,59.5 Z"/></g>
<g><path style="opacity:1" fill="#fefffe" d="M 119.5,59.5 C 124.5,59.5 129.5,59.5 134.5,59.5C 134.5,62.8333 134.5,66.1667 134.5,69.5C 129.5,69.5 124.5,69.5 119.5,69.5C 119.5,66.1667 119.5,62.8333 119.5,59.5 Z"/></g>
<g><path style="opacity:1" fill="#edeeed" d="M 134.5,59.5 C 139.5,59.5 144.5,59.5 149.5,59.5C 149.5,62.8333 149.5,66.1667 149.5,69.5C 144.5,69.5 139.5,69.5 134.5,69.5C 134.5,66.1667 134.5,62.8333 134.5,59.5 Z"/></g>
<g><path style="opacity:1" fill="#fefffe" d="M 149.5,59.5 C 154.5,59.5 159.5,59.5 164.5,59.5C 164.5,62.8333 164.5,66.1667 164.5,69.5C 159.5,69.5 154.5,69.5 149.5,69.5C 149.5,66.1667 149.5,62.8333 149.5,59.5 Z"/></g>
<g><path style="opacity:1" fill="#edeeed" d="M 164.5,59.5 C 169.5,59.5 174.5,59.5 179.5,59.5C 179.5,62.8333 179.5,66.1667 179.5,69.5C 174.5,69.5 169.5,69.5 164.5,69.5C 164.5,66.1667 164.5,62.8333 164.5,59.5 Z"/></g>
<g><path style="opacity:1" fill="#fefffe" d="M 179.5,59.5 C 184.5,59.5 189.5,59.5 194.5,59.5C 194.5,62.8333 194.5,66.1667 194.5,69.5C 189.5,69.5 184.5,69.5 179.5,69.5C 179.5,66.1667 179.5,62.8333 179.5,59.5 Z"/></g>
<g><path style="opacity:1" fill="#edeeed" d="M 194.5,59.5 C 199.5,59.5 204.5,59.5 209.5,59.5C 209.5,62.8333 209.5,66.1667 209.5,69.5C 204.5,69.5 199.5,69.5 194.5,69.5C 194.5,66.1667 194.5,62.8333 194.5,59.5 Z"/></g>
<g><path style="opacity:1" fill="#fefffe" d="M 209.5,59.5 C 214.5,59.5 219.5,59.5 224.5,59.5C 224.5,62.8333 224.5,66.1667 224.5,69.5C 219.5,69.5 214.5,69.5 209.5,69.5C 209.5,66.1667 209.5,62.8333 209.5,59.5 Z"/></g>
<g><path style="opacity:1" fill="#edeeed" d="M 224.5,59.5 C 229.5,59.5 234.5,59.5 239.5,59.5C 239.5,62.8333 239.5,66.1667 239.5,69.5C 234.5,69.5 229.5,69.5 224.5,69.5C 224.5,66.1667 224.5,62.8333 224.5,59.5 Z"/></g>
<g><path style="opacity:1" fill="#fefffe" d="M 239.5,59.5 C 244.5,59.5 249.5,59.5 254.5,59.5C 254.5,62.8333 254.5,66.1667 254.5,69.5C 249.5,69.5 244.5,69.5 239.5,69.5C 239.5,66.1667 239.5,62.8333 239.5,59.5 Z"/></g>
<g><path style="opacity:1" fill="#068bdd" d="M 91.5,69.5 C 95.8333,69.5 100.167,69.5 104.5,69.5C 109.5,69.5 114.5,69.5 119.5,69.5C 124.5,69.5 129.5,69.5 134.5,69.5C 139.5,69.5 144.5,69.5 149.5,69.5C 154.5,69.5 159.5,69.5 164.5,69.5C 169.5,69.5 174.5,69.5 179.5,69.5C 184.5,69.5 189.5,69.5 194.5,69.5C 199.5,69.5 204.5,69.5 209.5,69.5C 214.5,69.5 219.5,69.5 224.5,69.5C 229.5,69.5 234.5,69.5 239.5,69.5C 244.5,69.5 249.5,69.5 254.5,69.5C 272.59,67.1131 284.424,74.4465 290,91.5C 290.5,115.831 290.667,140.164 290.5,164.5C 289.698,163.048 289.198,161.382 289,159.5C 289.069,164.079 287.569,165.079 284.5,162.5C 283.416,163.665 282.583,164.998 282,166.5C 281.085,165.672 280.419,164.672 280,163.5C 279.145,166.115 277.812,168.448 276,170.5C 275.333,167.833 274.667,167.833 274,170.5C 273.126,167.997 273.793,165.997 276,164.5C 276.333,165.5 276.667,166.5 277,167.5C 279.044,164.901 278.711,162.901 276,161.5C 275.586,161.957 275.086,162.291 274.5,162.5C 273.5,161.167 272.5,159.833 271.5,158.5C 268.684,160.225 266.35,162.392 264.5,165C 266.25,169.08 268.417,172.913 271,176.5C 273.178,170.249 274.511,170.249 275,176.5C 275.333,174.833 275.667,173.167 276,171.5C 277.633,174.7 279.8,177.534 282.5,180C 281.809,181.067 281.309,182.234 281,183.5C 280.779,180.057 279.779,179.724 278,182.5C 276.221,179.724 275.221,180.057 275,183.5C 274.779,180.057 273.779,179.724 272,182.5C 270.267,180.042 269.1,180.375 268.5,183.5C 268.082,180.561 266.582,178.228 264,176.5C 263.667,168.5 263.333,160.5 263,152.5C 262.83,163.341 262.33,174.008 261.5,184.5C 261.667,158.831 261.5,133.165 261,107.5C 259.402,102.901 256.235,100.068 251.5,99C 235.5,98.3333 219.5,98.3333 203.5,99C 198.333,100.167 195.167,103.333 194,108.5C 193.5,120.829 193.333,133.162 193.5,145.5C 192.733,146.172 192.066,147.005 191.5,148C 192.267,154.015 192.267,160.182 191.5,166.5C 190.73,164.701 189.397,163.368 187.5,162.5C 186.396,163.631 186.729,164.465 188.5,165C 186.536,165.624 184.869,165.124 183.5,163.5C 183.167,163.833 182.833,164.167 182.5,164.5C 184.686,166.559 184.852,168.892 183,171.5C 182.333,166.167 181.667,166.167 181,171.5C 179.555,169.388 179.722,167.222 181.5,165C 180.687,163.115 179.353,162.449 177.5,163C 176.166,165.66 175.332,168.494 175,171.5C 174.887,169.026 173.887,167.026 172,165.5C 169.791,168.789 168.958,172.456 169.5,176.5C 168.681,173.695 168.181,170.695 168,167.5C 167.667,171.833 167.333,176.167 167,180.5C 166.667,166.5 166.333,152.5 166,138.5C 165.617,139.056 165.117,139.389 164.5,139.5C 164.667,128.828 164.5,118.161 164,107.5C 162.402,102.901 159.235,100.068 154.5,99C 137.433,98.0431 120.433,98.3764 103.5,100C 100.131,102.365 97.9643,105.532 97,109.5C 96.5004,116.158 96.3337,122.825 96.5,129.5C 95.823,140.235 95.1564,151.069 94.5,162C 94.595,167.108 94.9284,171.608 95.5,175.5C 94.8169,178.461 93.9836,178.795 93,176.5C 92.6667,177.167 92.3333,177.833 92,178.5C 91.0266,176.608 90.3599,174.608 90,172.5C 89.6401,174.608 88.9734,176.608 88,178.5C 87.3333,175.833 86.6667,175.833 86,178.5C 85.0266,176.608 84.3599,174.608 84,172.5C 83.3333,177.833 82.6667,177.833 82,172.5C 81.6401,174.608 80.9734,176.608 80,178.5C 79.3333,175.833 78.6667,175.833 78,178.5C 77.3333,175.833 76.6667,175.833 76,178.5C 75.3333,175.833 74.6667,175.833 74,178.5C 73.3333,175.833 72.6667,175.833 72,178.5C 71.5814,177.328 70.9147,176.328 70,175.5C 69.6667,163.833 69.3333,152.167 69,140.5C 68.5,183.499 68.3333,226.499 68.5,269.5C 67.8333,269.5 67.5,269.167 67.5,268.5C 67.1782,208.804 67.5115,149.137 68.5,89.5C 72.4814,78.514 80.1481,71.8473 91.5,69.5 Z"/></g>
<g><path style="opacity:1" fill="#edeeed" d="M -0.5,74.5 C 4.5,74.5 9.5,74.5 14.5,74.5C 14.5,79.5 14.5,84.5 14.5,89.5C 9.5,89.5 4.5,89.5 -0.5,89.5C -0.5,84.5 -0.5,79.5 -0.5,74.5 Z"/></g>
<g><path style="opacity:1" fill="#fefffe" d="M 14.5,74.5 C 19.5,74.5 24.5,74.5 29.5,74.5C 29.5,79.5 29.5,84.5 29.5,89.5C 24.5,89.5 19.5,89.5 14.5,89.5C 14.5,84.5 14.5,79.5 14.5,74.5 Z"/></g>
<g><path style="opacity:1" fill="#edeeed" d="M 29.5,74.5 C 34.5,74.5 39.5,74.5 44.5,74.5C 44.5,79.5 44.5,84.5 44.5,89.5C 39.5,89.5 34.5,89.5 29.5,89.5C 29.5,84.5 29.5,79.5 29.5,74.5 Z"/></g>
<g><path style="opacity:1" fill="#fefffe" d="M 44.5,74.5 C 49.5,74.5 54.5,74.5 59.5,74.5C 59.5,79.5 59.5,84.5 59.5,89.5C 54.5,89.5 49.5,89.5 44.5,89.5C 44.5,84.5 44.5,79.5 44.5,74.5 Z"/></g>
<g><path style="opacity:1" fill="#edeeef" d="M 74.5,59.5 C 79.5,59.5 84.5,59.5 89.5,59.5C 89.7839,62.7766 89.4505,65.9433 88.5,69C 89.448,69.4828 90.448,69.6495 91.5,69.5C 80.1481,71.8473 72.4814,78.514 68.5,89.5C 65.5,89.5 62.5,89.5 59.5,89.5C 59.5,84.5 59.5,79.5 59.5,74.5C 64.5,74.5 69.5,74.5 74.5,74.5C 74.5,69.5 74.5,64.5 74.5,59.5 Z"/></g>
<g><path style="opacity:1" fill="#f6f6f6" d="M 254.5,44.5 C 259.5,44.5 264.5,44.5 269.5,44.5C 269.5,49.5 269.5,54.5 269.5,59.5C 274.5,59.5 279.5,59.5 284.5,59.5C 289.5,59.5 294.5,59.5 299.5,59.5C 304.5,59.5 309.5,59.5 314.5,59.5C 319.5,59.5 324.5,59.5 329.5,59.5C 334.5,59.5 339.5,59.5 344.5,59.5C 349.5,59.5 354.5,59.5 359.5,59.5C 359.5,159.5 359.5,259.5 359.5,359.5C 339.5,359.5 319.5,359.5 299.5,359.5C 299.5,334.5 299.5,309.5 299.5,284.5C 299.5,279.5 299.5,274.5 299.5,269.5C 296.289,269.012 293.456,269.679 291,271.5C 290.601,271.272 290.435,270.938 290.5,270.5C 290.5,236.5 290.5,202.5 290.5,168.5C 290.5,167.167 290.5,165.833 290.5,164.5C 290.667,140.164 290.5,115.831 290,91.5C 284.424,74.4465 272.59,67.1131 254.5,69.5C 254.5,66.1667 254.5,62.8333 254.5,59.5C 254.5,54.5 254.5,49.5 254.5,44.5 Z"/></g>
<g><path style="opacity:1" fill="#fefffe" d="M -0.5,89.5 C 4.5,89.5 9.5,89.5 14.5,89.5C 14.5,94.5 14.5,99.5 14.5,104.5C 9.5,104.5 4.5,104.5 -0.5,104.5C -0.5,99.5 -0.5,94.5 -0.5,89.5 Z"/></g>
<g><path style="opacity:1" fill="#edeeed" d="M 14.5,89.5 C 19.5,89.5 24.5,89.5 29.5,89.5C 29.5,94.5 29.5,99.5 29.5,104.5C 24.5,104.5 19.5,104.5 14.5,104.5C 14.5,99.5 14.5,94.5 14.5,89.5 Z"/></g>
<g><path style="opacity:1" fill="#fefffe" d="M 29.5,89.5 C 34.5,89.5 39.5,89.5 44.5,89.5C 44.5,94.5 44.5,99.5 44.5,104.5C 39.5,104.5 34.5,104.5 29.5,104.5C 29.5,99.5 29.5,94.5 29.5,89.5 Z"/></g>
<g><path style="opacity:1" fill="#edeeed" d="M 44.5,89.5 C 49.5,89.5 54.5,89.5 59.5,89.5C 59.5,94.5 59.5,99.5 59.5,104.5C 54.5,104.5 49.5,104.5 44.5,104.5C 44.5,99.5 44.5,94.5 44.5,89.5 Z"/></g>
<g><path style="opacity:1" fill="#fefefe" d="M 59.5,89.5 C 62.5,89.5 65.5,89.5 68.5,89.5C 67.5115,149.137 67.1782,208.804 67.5,268.5C 66.5139,264.03 66.1805,259.363 66.5,254.5C 64.1667,254.5 61.8333,254.5 59.5,254.5C 59.5,249.5 59.5,244.5 59.5,239.5C 61.8333,239.5 64.1667,239.5 66.5,239.5C 66.5,234.5 66.5,229.5 66.5,224.5C 64.1667,224.5 61.8333,224.5 59.5,224.5C 59.5,219.5 59.5,214.5 59.5,209.5C 61.8333,209.5 64.1667,209.5 66.5,209.5C 66.5,204.5 66.5,199.5 66.5,194.5C 64.1667,194.5 61.8333,194.5 59.5,194.5C 59.5,189.5 59.5,184.5 59.5,179.5C 61.8333,179.5 64.1667,179.5 66.5,179.5C 66.5,174.5 66.5,169.5 66.5,164.5C 64.1667,164.5 61.8333,164.5 59.5,164.5C 59.5,159.5 59.5,154.5 59.5,149.5C 61.8333,149.5 64.1667,149.5 66.5,149.5C 66.5,144.5 66.5,139.5 66.5,134.5C 64.1667,134.5 61.8333,134.5 59.5,134.5C 59.5,129.5 59.5,124.5 59.5,119.5C 61.8333,119.5 64.1667,119.5 66.5,119.5C 66.5,114.5 66.5,109.5 66.5,104.5C 64.1667,104.5 61.8333,104.5 59.5,104.5C 59.5,99.5 59.5,94.5 59.5,89.5 Z"/></g>
<g><path style="opacity:1" fill="#fdfefe" d="M 164.5,139.5 C 164.98,174.895 164.48,210.228 163,245.5C 161.039,248.135 158.539,249.969 155.5,251C 138.833,251.667 122.167,251.667 105.5,251C 100.948,249.412 98.1148,246.245 97,241.5C 96.5,204.168 96.3333,166.835 96.5,129.5C 96.3337,122.825 96.5004,116.158 97,109.5C 97.9643,105.532 100.131,102.365 103.5,100C 120.433,98.3764 137.433,98.0431 154.5,99C 159.235,100.068 162.402,102.901 164,107.5C 164.5,118.161 164.667,128.828 164.5,139.5 Z"/></g>
<g><path style="opacity:1" fill="#fefefe" d="M 261.5,184.5 C 260.502,189.668 257.502,193.168 252.5,195C 234.742,195.972 217.076,195.639 199.5,194C 196.865,192.039 195.031,189.539 194,186.5C 193.5,172.837 193.333,159.171 193.5,145.5C 193.333,133.162 193.5,120.829 194,108.5C 195.167,103.333 198.333,100.167 203.5,99C 219.5,98.3333 235.5,98.3333 251.5,99C 256.235,100.068 259.402,102.901 261,107.5C 261.5,133.165 261.667,158.831 261.5,184.5 Z"/></g>
<g><path style="opacity:1" fill="#edeeed" d="M -0.5,104.5 C 4.5,104.5 9.5,104.5 14.5,104.5C 14.5,109.5 14.5,114.5 14.5,119.5C 9.5,119.5 4.5,119.5 -0.5,119.5C -0.5,114.5 -0.5,109.5 -0.5,104.5 Z"/></g>
<g><path style="opacity:1" fill="#fefffe" d="M 14.5,104.5 C 19.5,104.5 24.5,104.5 29.5,104.5C 29.5,109.5 29.5,114.5 29.5,119.5C 24.5,119.5 19.5,119.5 14.5,119.5C 14.5,114.5 14.5,109.5 14.5,104.5 Z"/></g>
<g><path style="opacity:1" fill="#edeeed" d="M 29.5,104.5 C 34.5,104.5 39.5,104.5 44.5,104.5C 44.5,109.5 44.5,114.5 44.5,119.5C 39.5,119.5 34.5,119.5 29.5,119.5C 29.5,114.5 29.5,109.5 29.5,104.5 Z"/></g>
<g><path style="opacity:1" fill="#fefffe" d="M 44.5,104.5 C 49.5,104.5 54.5,104.5 59.5,104.5C 59.5,109.5 59.5,114.5 59.5,119.5C 54.5,119.5 49.5,119.5 44.5,119.5C 44.5,114.5 44.5,109.5 44.5,104.5 Z"/></g>
<g><path style="opacity:1" fill="#edeeed" d="M 59.5,104.5 C 61.8333,104.5 64.1667,104.5 66.5,104.5C 66.5,109.5 66.5,114.5 66.5,119.5C 64.1667,119.5 61.8333,119.5 59.5,119.5C 59.5,114.5 59.5,109.5 59.5,104.5 Z"/></g>
<g><path style="opacity:1" fill="#fefffe" d="M -0.5,119.5 C 4.5,119.5 9.5,119.5 14.5,119.5C 14.5,124.5 14.5,129.5 14.5,134.5C 9.5,134.5 4.5,134.5 -0.5,134.5C -0.5,129.5 -0.5,124.5 -0.5,119.5 Z"/></g>
<g><path style="opacity:1" fill="#edeeed" d="M 14.5,119.5 C 19.5,119.5 24.5,119.5 29.5,119.5C 29.5,124.5 29.5,129.5 29.5,134.5C 24.5,134.5 19.5,134.5 14.5,134.5C 14.5,129.5 14.5,124.5 14.5,119.5 Z"/></g>
<g><path style="opacity:1" fill="#fefffe" d="M 29.5,119.5 C 34.5,119.5 39.5,119.5 44.5,119.5C 44.5,124.5 44.5,129.5 44.5,134.5C 39.5,134.5 34.5,134.5 29.5,134.5C 29.5,129.5 29.5,124.5 29.5,119.5 Z"/></g>
<g><path style="opacity:1" fill="#edeeed" d="M 44.5,119.5 C 49.5,119.5 54.5,119.5 59.5,119.5C 59.5,124.5 59.5,129.5 59.5,134.5C 54.5,134.5 49.5,134.5 44.5,134.5C 44.5,129.5 44.5,124.5 44.5,119.5 Z"/></g>
<g><path style="opacity:1" fill="#027fc9" d="M 96.5,129.5 C 96.3333,166.835 96.5,204.168 97,241.5C 98.1148,246.245 100.948,249.412 105.5,251C 122.167,251.667 138.833,251.667 155.5,251C 158.539,249.969 161.039,248.135 163,245.5C 164.48,210.228 164.98,174.895 164.5,139.5C 165.117,139.389 165.617,139.056 166,138.5C 166.333,152.5 166.667,166.5 167,180.5C 167.333,176.167 167.667,171.833 168,167.5C 168.181,170.695 168.681,173.695 169.5,176.5C 169.024,179.177 168.857,182.177 169,185.5C 169.903,186.701 171.069,187.535 172.5,188C 172.335,189.837 171.668,191.837 170.5,194C 172,195.5 173.5,197 175,198.5C 176.529,197.271 177.696,195.771 178.5,194C 177.206,191.91 176.206,189.91 175.5,188C 175.982,186.992 176.148,185.825 176,184.5C 176.915,185.328 177.581,186.328 178,187.5C 179.978,185.254 180.978,182.921 181,180.5C 181.667,188.5 182.333,188.5 183,180.5C 183.5,181 184,181.5 184.5,182C 184.056,183.533 183.723,185.033 183.5,186.5C 184.145,187.646 184.978,188.646 186,189.5C 187.077,186.901 188.077,183.901 189,180.5C 190.085,182.657 191.251,182.824 192.5,181C 192.49,176.168 192.157,171.335 191.5,166.5C 192.267,160.182 192.267,154.015 191.5,148C 192.066,147.005 192.733,146.172 193.5,145.5C 193.333,159.171 193.5,172.837 194,186.5C 195.031,189.539 196.865,192.039 199.5,194C 217.076,195.639 234.742,195.972 252.5,195C 257.502,193.168 260.502,189.668 261.5,184.5C 262.33,174.008 262.83,163.341 263,152.5C 263.333,160.5 263.667,168.5 264,176.5C 266.582,178.228 268.082,180.561 268.5,183.5C 266.91,183.628 265.577,184.295 264.5,185.5C 265.667,187.167 266.833,188.833 268,190.5C 269.309,188.109 270.309,188.109 271,190.5C 271.98,188.741 272.647,187.074 273,185.5C 274.367,187.977 276.2,189.977 278.5,191.5C 278.833,191.167 279.167,190.833 279.5,190.5C 278.5,188.833 277.5,187.167 276.5,185.5C 276.667,184.833 276.833,184.167 277,183.5C 278.53,184.636 279.863,185.636 281,186.5C 281.84,183.536 282.84,183.203 284,185.5C 284.333,184.833 284.667,184.167 285,183.5C 288.889,187.269 289.723,186.769 287.5,182C 287.759,180.739 288.426,179.739 289.5,179C 289.167,176 288.833,173 288.5,170C 289.044,169.283 289.711,168.783 290.5,168.5C 290.5,202.5 290.5,236.5 290.5,270.5C 286.868,281.465 279.535,288.799 268.5,292.5C 209.166,292.667 149.832,292.5 90.5,292C 78.2476,289.248 70.9143,281.748 68.5,269.5C 68.3333,226.499 68.5,183.499 69,140.5C 69.3333,152.167 69.6667,163.833 70,175.5C 70.9147,176.328 71.5814,177.328 72,178.5C 72.6667,175.833 73.3333,175.833 74,178.5C 74.6667,175.833 75.3333,175.833 76,178.5C 76.6667,175.833 77.3333,175.833 78,178.5C 78.6667,175.833 79.3333,175.833 80,178.5C 80.9734,176.608 81.6401,174.608 82,172.5C 82.6667,177.833 83.3333,177.833 84,172.5C 84.3599,174.608 85.0266,176.608 86,178.5C 86.6667,175.833 87.3333,175.833 88,178.5C 88.9734,176.608 89.6401,174.608 90,172.5C 90.3599,174.608 91.0266,176.608 92,178.5C 92.3333,177.833 92.6667,177.167 93,176.5C 93.9836,178.795 94.8169,178.461 95.5,175.5C 94.9284,171.608 94.595,167.108 94.5,162C 95.1564,151.069 95.823,140.235 96.5,129.5 Z"/></g>
<g><path style="opacity:1" fill="#edeeed" d="M -0.5,134.5 C 4.5,134.5 9.5,134.5 14.5,134.5C 14.5,139.5 14.5,144.5 14.5,149.5C 9.5,149.5 4.5,149.5 -0.5,149.5C -0.5,144.5 -0.5,139.5 -0.5,134.5 Z"/></g>
<g><path style="opacity:1" fill="#fefffe" d="M 14.5,134.5 C 19.5,134.5 24.5,134.5 29.5,134.5C 29.5,139.5 29.5,144.5 29.5,149.5C 24.5,149.5 19.5,149.5 14.5,149.5C 14.5,144.5 14.5,139.5 14.5,134.5 Z"/></g>
<g><path style="opacity:1" fill="#edeeed" d="M 29.5,134.5 C 34.5,134.5 39.5,134.5 44.5,134.5C 44.5,139.5 44.5,144.5 44.5,149.5C 39.5,149.5 34.5,149.5 29.5,149.5C 29.5,144.5 29.5,139.5 29.5,134.5 Z"/></g>
<g><path style="opacity:1" fill="#fefffe" d="M 44.5,134.5 C 49.5,134.5 54.5,134.5 59.5,134.5C 59.5,139.5 59.5,144.5 59.5,149.5C 54.5,149.5 49.5,149.5 44.5,149.5C 44.5,144.5 44.5,139.5 44.5,134.5 Z"/></g>
<g><path style="opacity:1" fill="#edeeed" d="M 59.5,134.5 C 61.8333,134.5 64.1667,134.5 66.5,134.5C 66.5,139.5 66.5,144.5 66.5,149.5C 64.1667,149.5 61.8333,149.5 59.5,149.5C 59.5,144.5 59.5,139.5 59.5,134.5 Z"/></g>
<g><path style="opacity:1" fill="#fefffe" d="M -0.5,149.5 C 4.5,149.5 9.5,149.5 14.5,149.5C 14.5,154.5 14.5,159.5 14.5,164.5C 9.5,164.5 4.5,164.5 -0.5,164.5C -0.5,159.5 -0.5,154.5 -0.5,149.5 Z"/></g>
<g><path style="opacity:1" fill="#edeeed" d="M 14.5,149.5 C 19.5,149.5 24.5,149.5 29.5,149.5C 29.5,154.5 29.5,159.5 29.5,164.5C 24.5,164.5 19.5,164.5 14.5,164.5C 14.5,159.5 14.5,154.5 14.5,149.5 Z"/></g>
<g><path style="opacity:1" fill="#fefffe" d="M 29.5,149.5 C 34.5,149.5 39.5,149.5 44.5,149.5C 44.5,154.5 44.5,159.5 44.5,164.5C 39.5,164.5 34.5,164.5 29.5,164.5C 29.5,159.5 29.5,154.5 29.5,149.5 Z"/></g>
<g><path style="opacity:1" fill="#edeeed" d="M 44.5,149.5 C 49.5,149.5 54.5,149.5 59.5,149.5C 59.5,154.5 59.5,159.5 59.5,164.5C 54.5,164.5 49.5,164.5 44.5,164.5C 44.5,159.5 44.5,154.5 44.5,149.5 Z"/></g>
<g><path style="opacity:1" fill="#edeeed" d="M -0.5,164.5 C 4.5,164.5 9.5,164.5 14.5,164.5C 14.5,169.5 14.5,174.5 14.5,179.5C 9.5,179.5 4.5,179.5 -0.5,179.5C -0.5,174.5 -0.5,169.5 -0.5,164.5 Z"/></g>
<g><path style="opacity:1" fill="#fefffe" d="M 14.5,164.5 C 19.5,164.5 24.5,164.5 29.5,164.5C 29.5,169.5 29.5,174.5 29.5,179.5C 24.5,179.5 19.5,179.5 14.5,179.5C 14.5,174.5 14.5,169.5 14.5,164.5 Z"/></g>
<g><path style="opacity:1" fill="#edeeed" d="M 29.5,164.5 C 34.5,164.5 39.5,164.5 44.5,164.5C 44.5,169.5 44.5,174.5 44.5,179.5C 39.5,179.5 34.5,179.5 29.5,179.5C 29.5,174.5 29.5,169.5 29.5,164.5 Z"/></g>
<g><path style="opacity:1" fill="#fefffe" d="M 44.5,164.5 C 49.5,164.5 54.5,164.5 59.5,164.5C 59.5,169.5 59.5,174.5 59.5,179.5C 54.5,179.5 49.5,179.5 44.5,179.5C 44.5,174.5 44.5,169.5 44.5,164.5 Z"/></g>
<g><path style="opacity:1" fill="#edeeed" d="M 59.5,164.5 C 61.8333,164.5 64.1667,164.5 66.5,164.5C 66.5,169.5 66.5,174.5 66.5,179.5C 64.1667,179.5 61.8333,179.5 59.5,179.5C 59.5,174.5 59.5,169.5 59.5,164.5 Z"/></g>
<g><path style="opacity:1" fill="#0084d3" d="M 290.5,164.5 C 290.5,165.833 290.5,167.167 290.5,168.5C 289.711,168.783 289.044,169.283 288.5,170C 288.833,173 289.167,176 289.5,179C 288.426,179.739 287.759,180.739 287.5,182C 289.723,186.769 288.889,187.269 285,183.5C 284.667,184.167 284.333,184.833 284,185.5C 282.84,183.203 281.84,183.536 281,186.5C 279.863,185.636 278.53,184.636 277,183.5C 276.833,184.167 276.667,184.833 276.5,185.5C 277.5,187.167 278.5,188.833 279.5,190.5C 279.167,190.833 278.833,191.167 278.5,191.5C 276.2,189.977 274.367,187.977 273,185.5C 272.647,187.074 271.98,188.741 271,190.5C 270.309,188.109 269.309,188.109 268,190.5C 266.833,188.833 265.667,187.167 264.5,185.5C 265.577,184.295 266.91,183.628 268.5,183.5C 269.1,180.375 270.267,180.042 272,182.5C 273.779,179.724 274.779,180.057 275,183.5C 275.221,180.057 276.221,179.724 278,182.5C 279.779,179.724 280.779,180.057 281,183.5C 281.309,182.234 281.809,181.067 282.5,180C 279.8,177.534 277.633,174.7 276,171.5C 275.667,173.167 275.333,174.833 275,176.5C 274.511,170.249 273.178,170.249 271,176.5C 268.417,172.913 266.25,169.08 264.5,165C 266.35,162.392 268.684,160.225 271.5,158.5C 272.5,159.833 273.5,161.167 274.5,162.5C 275.086,162.291 275.586,161.957 276,161.5C 278.711,162.901 279.044,164.901 277,167.5C 276.667,166.5 276.333,165.5 276,164.5C 273.793,165.997 273.126,167.997 274,170.5C 274.667,167.833 275.333,167.833 276,170.5C 277.812,168.448 279.145,166.115 280,163.5C 280.419,164.672 281.085,165.672 282,166.5C 282.583,164.998 283.416,163.665 284.5,162.5C 287.569,165.079 289.069,164.079 289,159.5C 289.198,161.382 289.698,163.048 290.5,164.5 Z"/></g>
<g><path style="opacity:1" fill="#0085d3" d="M 191.5,166.5 C 192.157,171.335 192.49,176.168 192.5,181C 191.251,182.824 190.085,182.657 189,180.5C 188.077,183.901 187.077,186.901 186,189.5C 184.978,188.646 184.145,187.646 183.5,186.5C 183.723,185.033 184.056,183.533 184.5,182C 184,181.5 183.5,181 183,180.5C 182.333,188.5 181.667,188.5 181,180.5C 180.978,182.921 179.978,185.254 178,187.5C 177.581,186.328 176.915,185.328 176,184.5C 176.148,185.825 175.982,186.992 175.5,188C 176.206,189.91 177.206,191.91 178.5,194C 177.696,195.771 176.529,197.271 175,198.5C 173.5,197 172,195.5 170.5,194C 171.668,191.837 172.335,189.837 172.5,188C 171.069,187.535 169.903,186.701 169,185.5C 168.857,182.177 169.024,179.177 169.5,176.5C 168.958,172.456 169.791,168.789 172,165.5C 173.887,167.026 174.887,169.026 175,171.5C 175.332,168.494 176.166,165.66 177.5,163C 179.353,162.449 180.687,163.115 181.5,165C 179.722,167.222 179.555,169.388 181,171.5C 181.667,166.167 182.333,166.167 183,171.5C 184.852,168.892 184.686,166.559 182.5,164.5C 182.833,164.167 183.167,163.833 183.5,163.5C 184.869,165.124 186.536,165.624 188.5,165C 186.729,164.465 186.396,163.631 187.5,162.5C 189.397,163.368 190.73,164.701 191.5,166.5 Z"/></g>
<g><path style="opacity:1" fill="#fefffe" d="M -0.5,179.5 C 4.5,179.5 9.5,179.5 14.5,179.5C 14.5,184.5 14.5,189.5 14.5,194.5C 9.5,194.5 4.5,194.5 -0.5,194.5C -0.5,189.5 -0.5,184.5 -0.5,179.5 Z"/></g>
<g><path style="opacity:1" fill="#edeeed" d="M 14.5,179.5 C 19.5,179.5 24.5,179.5 29.5,179.5C 29.5,184.5 29.5,189.5 29.5,194.5C 24.5,194.5 19.5,194.5 14.5,194.5C 14.5,189.5 14.5,184.5 14.5,179.5 Z"/></g>
<g><path style="opacity:1" fill="#fefffe" d="M 29.5,179.5 C 34.5,179.5 39.5,179.5 44.5,179.5C 44.5,184.5 44.5,189.5 44.5,194.5C 39.5,194.5 34.5,194.5 29.5,194.5C 29.5,189.5 29.5,184.5 29.5,179.5 Z"/></g>
<g><path style="opacity:1" fill="#edeeed" d="M 44.5,179.5 C 49.5,179.5 54.5,179.5 59.5,179.5C 59.5,184.5 59.5,189.5 59.5,194.5C 54.5,194.5 49.5,194.5 44.5,194.5C 44.5,189.5 44.5,184.5 44.5,179.5 Z"/></g>
<g><path style="opacity:1" fill="#edeeed" d="M -0.5,194.5 C 4.5,194.5 9.5,194.5 14.5,194.5C 14.5,199.5 14.5,204.5 14.5,209.5C 9.5,209.5 4.5,209.5 -0.5,209.5C -0.5,204.5 -0.5,199.5 -0.5,194.5 Z"/></g>
<g><path style="opacity:1" fill="#fefffe" d="M 14.5,194.5 C 19.5,194.5 24.5,194.5 29.5,194.5C 29.5,199.5 29.5,204.5 29.5,209.5C 24.5,209.5 19.5,209.5 14.5,209.5C 14.5,204.5 14.5,199.5 14.5,194.5 Z"/></g>
<g><path style="opacity:1" fill="#edeeed" d="M 29.5,194.5 C 34.5,194.5 39.5,194.5 44.5,194.5C 44.5,199.5 44.5,204.5 44.5,209.5C 39.5,209.5 34.5,209.5 29.5,209.5C 29.5,204.5 29.5,199.5 29.5,194.5 Z"/></g>
<g><path style="opacity:1" fill="#fefffe" d="M 44.5,194.5 C 49.5,194.5 54.5,194.5 59.5,194.5C 59.5,199.5 59.5,204.5 59.5,209.5C 54.5,209.5 49.5,209.5 44.5,209.5C 44.5,204.5 44.5,199.5 44.5,194.5 Z"/></g>
<g><path style="opacity:1" fill="#edeeed" d="M 59.5,194.5 C 61.8333,194.5 64.1667,194.5 66.5,194.5C 66.5,199.5 66.5,204.5 66.5,209.5C 64.1667,209.5 61.8333,209.5 59.5,209.5C 59.5,204.5 59.5,199.5 59.5,194.5 Z"/></g>
<g><path style="opacity:1" fill="#fefffe" d="M -0.5,209.5 C 4.5,209.5 9.5,209.5 14.5,209.5C 14.5,214.5 14.5,219.5 14.5,224.5C 9.5,224.5 4.5,224.5 -0.5,224.5C -0.5,219.5 -0.5,214.5 -0.5,209.5 Z"/></g>
<g><path style="opacity:1" fill="#edeeed" d="M 14.5,209.5 C 19.5,209.5 24.5,209.5 29.5,209.5C 29.5,214.5 29.5,219.5 29.5,224.5C 24.5,224.5 19.5,224.5 14.5,224.5C 14.5,219.5 14.5,214.5 14.5,209.5 Z"/></g>
<g><path style="opacity:1" fill="#fefffe" d="M 29.5,209.5 C 34.5,209.5 39.5,209.5 44.5,209.5C 44.5,214.5 44.5,219.5 44.5,224.5C 39.5,224.5 34.5,224.5 29.5,224.5C 29.5,219.5 29.5,214.5 29.5,209.5 Z"/></g>
<g><path style="opacity:1" fill="#edeeed" d="M 44.5,209.5 C 49.5,209.5 54.5,209.5 59.5,209.5C 59.5,214.5 59.5,219.5 59.5,224.5C 54.5,224.5 49.5,224.5 44.5,224.5C 44.5,219.5 44.5,214.5 44.5,209.5 Z"/></g>
<g><path style="opacity:1" fill="#edeeed" d="M -0.5,224.5 C 4.5,224.5 9.5,224.5 14.5,224.5C 14.5,229.5 14.5,234.5 14.5,239.5C 9.5,239.5 4.5,239.5 -0.5,239.5C -0.5,234.5 -0.5,229.5 -0.5,224.5 Z"/></g>
<g><path style="opacity:1" fill="#fefffe" d="M 14.5,224.5 C 19.5,224.5 24.5,224.5 29.5,224.5C 29.5,229.5 29.5,234.5 29.5,239.5C 24.5,239.5 19.5,239.5 14.5,239.5C 14.5,234.5 14.5,229.5 14.5,224.5 Z"/></g>
<g><path style="opacity:1" fill="#edeeed" d="M 29.5,224.5 C 34.5,224.5 39.5,224.5 44.5,224.5C 44.5,229.5 44.5,234.5 44.5,239.5C 39.5,239.5 34.5,239.5 29.5,239.5C 29.5,234.5 29.5,229.5 29.5,224.5 Z"/></g>
<g><path style="opacity:1" fill="#fefffe" d="M 44.5,224.5 C 49.5,224.5 54.5,224.5 59.5,224.5C 59.5,229.5 59.5,234.5 59.5,239.5C 54.5,239.5 49.5,239.5 44.5,239.5C 44.5,234.5 44.5,229.5 44.5,224.5 Z"/></g>
<g><path style="opacity:1" fill="#edeeed" d="M 59.5,224.5 C 61.8333,224.5 64.1667,224.5 66.5,224.5C 66.5,229.5 66.5,234.5 66.5,239.5C 64.1667,239.5 61.8333,239.5 59.5,239.5C 59.5,234.5 59.5,229.5 59.5,224.5 Z"/></g>
<g><path style="opacity:1" fill="#fefffe" d="M -0.5,239.5 C 4.5,239.5 9.5,239.5 14.5,239.5C 14.5,244.5 14.5,249.5 14.5,254.5C 9.5,254.5 4.5,254.5 -0.5,254.5C -0.5,249.5 -0.5,244.5 -0.5,239.5 Z"/></g>
<g><path style="opacity:1" fill="#edeeed" d="M 14.5,239.5 C 19.5,239.5 24.5,239.5 29.5,239.5C 29.5,244.5 29.5,249.5 29.5,254.5C 24.5,254.5 19.5,254.5 14.5,254.5C 14.5,249.5 14.5,244.5 14.5,239.5 Z"/></g>
<g><path style="opacity:1" fill="#fefffe" d="M 29.5,239.5 C 34.5,239.5 39.5,239.5 44.5,239.5C 44.5,244.5 44.5,249.5 44.5,254.5C 39.5,254.5 34.5,254.5 29.5,254.5C 29.5,249.5 29.5,244.5 29.5,239.5 Z"/></g>
<g><path style="opacity:1" fill="#edeeed" d="M 44.5,239.5 C 49.5,239.5 54.5,239.5 59.5,239.5C 59.5,244.5 59.5,249.5 59.5,254.5C 54.5,254.5 49.5,254.5 44.5,254.5C 44.5,249.5 44.5,244.5 44.5,239.5 Z"/></g>
<g><path style="opacity:1" fill="#edeeed" d="M -0.5,254.5 C 4.5,254.5 9.5,254.5 14.5,254.5C 14.5,259.5 14.5,264.5 14.5,269.5C 9.5,269.5 4.5,269.5 -0.5,269.5C -0.5,264.5 -0.5,259.5 -0.5,254.5 Z"/></g>
<g><path style="opacity:1" fill="#fefffe" d="M 14.5,254.5 C 19.5,254.5 24.5,254.5 29.5,254.5C 29.5,259.5 29.5,264.5 29.5,269.5C 24.5,269.5 19.5,269.5 14.5,269.5C 14.5,264.5 14.5,259.5 14.5,254.5 Z"/></g>
<g><path style="opacity:1" fill="#edeeed" d="M 29.5,254.5 C 34.5,254.5 39.5,254.5 44.5,254.5C 44.5,259.5 44.5,264.5 44.5,269.5C 39.5,269.5 34.5,269.5 29.5,269.5C 29.5,264.5 29.5,259.5 29.5,254.5 Z"/></g>
<g><path style="opacity:1" fill="#fefffe" d="M -0.5,269.5 C 4.5,269.5 9.5,269.5 14.5,269.5C 14.5,274.5 14.5,279.5 14.5,284.5C 9.5,284.5 4.5,284.5 -0.5,284.5C -0.5,279.5 -0.5,274.5 -0.5,269.5 Z"/></g>
<g><path style="opacity:1" fill="#edeeed" d="M 14.5,269.5 C 19.5,269.5 24.5,269.5 29.5,269.5C 29.5,274.5 29.5,279.5 29.5,284.5C 24.5,284.5 19.5,284.5 14.5,284.5C 14.5,279.5 14.5,274.5 14.5,269.5 Z"/></g>
<g><path style="opacity:1" fill="#fefffe" d="M 29.5,269.5 C 34.5,269.5 39.5,269.5 44.5,269.5C 44.5,274.5 44.5,279.5 44.5,284.5C 39.5,284.5 34.5,284.5 29.5,284.5C 29.5,279.5 29.5,274.5 29.5,269.5 Z"/></g>
<g><path style="opacity:1" fill="#f6f6f6" d="M 44.5,254.5 C 49.5,254.5 54.5,254.5 59.5,254.5C 61.8333,254.5 64.1667,254.5 66.5,254.5C 66.1805,259.363 66.5139,264.03 67.5,268.5C 67.5,269.167 67.8333,269.5 68.5,269.5C 70.9143,281.748 78.2476,289.248 90.5,292C 149.832,292.5 209.166,292.667 268.5,292.5C 269.468,294.607 269.802,296.941 269.5,299.5C 274.5,299.5 279.5,299.5 284.5,299.5C 284.5,294.5 284.5,289.5 284.5,284.5C 289.5,284.5 294.5,284.5 299.5,284.5C 299.5,309.5 299.5,334.5 299.5,359.5C 199.5,359.5 99.5,359.5 -0.5,359.5C -0.5,339.5 -0.5,319.5 -0.5,299.5C 4.5,299.5 9.5,299.5 14.5,299.5C 19.5,299.5 24.5,299.5 29.5,299.5C 34.5,299.5 39.5,299.5 44.5,299.5C 44.5,294.5 44.5,289.5 44.5,284.5C 44.5,279.5 44.5,274.5 44.5,269.5C 44.5,264.5 44.5,259.5 44.5,254.5 Z"/></g>
<g><path style="opacity:1" fill="#edeeed" d="M -0.5,284.5 C 4.5,284.5 9.5,284.5 14.5,284.5C 14.5,289.5 14.5,294.5 14.5,299.5C 9.5,299.5 4.5,299.5 -0.5,299.5C -0.5,294.5 -0.5,289.5 -0.5,284.5 Z"/></g>
<g><path style="opacity:1" fill="#fefffe" d="M 14.5,284.5 C 19.5,284.5 24.5,284.5 29.5,284.5C 29.5,289.5 29.5,294.5 29.5,299.5C 24.5,299.5 19.5,299.5 14.5,299.5C 14.5,294.5 14.5,289.5 14.5,284.5 Z"/></g>
<g><path style="opacity:1" fill="#edeeed" d="M 29.5,284.5 C 34.5,284.5 39.5,284.5 44.5,284.5C 44.5,289.5 44.5,294.5 44.5,299.5C 39.5,299.5 34.5,299.5 29.5,299.5C 29.5,294.5 29.5,289.5 29.5,284.5 Z"/></g>
<g><path style="opacity:1" fill="#edeeef" d="M 299.5,284.5 C 294.5,284.5 289.5,284.5 284.5,284.5C 284.5,289.5 284.5,294.5 284.5,299.5C 279.5,299.5 274.5,299.5 269.5,299.5C 269.802,296.941 269.468,294.607 268.5,292.5C 279.535,288.799 286.868,281.465 290.5,270.5C 290.435,270.938 290.601,271.272 291,271.5C 293.456,269.679 296.289,269.012 299.5,269.5C 299.5,274.5 299.5,279.5 299.5,284.5 Z"/></g>
</svg>
