<svg xmlns="http://www.w3.org/2000/svg" width="754" height="218" viewBox="0 0 754 218" fill="none">
<path fill-rule="evenodd" clip-rule="evenodd" d="M239 41V62H223V83H239V135C238.958 150.063 241.733 160.392 248 167C253.296 172.557 261.853 176 272 176C281.28 176 288.912 174.623 293 173V152C289.375 152.587 286.599 152.817 282 153C270.642 152.817 266.941 145.931 267 132V83H294V62H267V33L239 41ZM393 63H382V131C382.032 135.538 381.111 139.872 380 143C375.127 154.242 363.389 165.42 347 165C325.413 165.42 318.048 148.312 318 125V63H307V127C307 167.929 330.706 175 345 175C364.31 175 376.968 163.138 382 153H383L384 172H394C393.31 164.051 393.079 155.383 393 146V63ZM421 173H432V10H421V173ZM542 116C542 114.401 542 112.794 542 110C542 93.9721 535.077 60 499 60C470.231 60 449 82.9541 449 120C449 152.046 468.846 175 501 175C520.077 175 531.385 170.18 536 168L533 159C526.538 162.375 518.231 165.589 502 166C479.231 165.589 459.846 151.587 460 116H542ZM461 107C463.079 90.2619 473.474 69 498 69C524.757 69 531.225 91.8452 531 107H461ZM629 103C629.371 83.8247 623.086 60 591 60C580.724 60 568.155 62.749 558 69L561 77C569.552 71.6833 579.793 69.1633 590 69C616.103 68.9343 618.198 90.6972 618 101V104C572.578 103.984 550 119.333 550 145C550 159.422 560.241 175 583 175C600.741 175 613.078 165.149 619 157L621 172H631C629.603 164.004 629.371 155.07 629 146V103ZM618 138C618 139.354 617.77 141.859 617 144C613.16 154.84 602.56 166 584 166C572.601 166 562 158.94 562 143C562 117.034 593.802 113.39 618 114V138ZM654 218H665V155H666C673.2 168.009 687.363 175.118 703 175C730.317 175.118 754 154.938 754 116C754 83.3904 734.729 60 706 60C686.667 60 672.968 68.9434 665 83H664V63H653C653.697 73.0711 653.929 83.8491 654 98V218ZM665 108C665 104.628 665.931 101.18 667 98C671.519 80.0332 687.352 69 704 69C729.03 69 743 91.2962 743 116C743 145.543 728.331 166 703 166C685.49 166 670.588 154.967 666 138C665.233 135.199 665 132.211 665 129V108Z" fill="white"/>
<path fill-rule="evenodd" clip-rule="evenodd" d="M100.593 85.5644C96.4648 89.3345 82.7936 101.308 82.7988 101.303C77.0852 106.39 73.3362 110.019 70.7116 113.161C70.5583 113.085 48.47 101.21 46.6825 100.074C48.2489 96.3696 50.3515 91.4706 51.8553 88.2482C54.5527 82.468 59.6428 73.6013 59.6428 73.6013C59.6428 73.6013 55.0368 66.665 49.2566 58.9581C43.4764 51.2511 35.3841 44.3149 27.6772 44.3149C19.9702 44.3149 13.3206 62.0446 13.3206 62.0446C13.3206 62.0446 12.5499 73.9903 22.5689 86.7068C31.9325 98.5914 42.9791 104.418 44.3842 105.129C46.1603 106.172 66.4831 117.078 67.4563 117.566C58.0972 131.78 55.6784 150.5 59.6428 166.357C60.3824 169.316 61.6371 172.559 63.3399 176.052C64.9202 179.293 66.8595 182.695 69.0791 186.195C71.2586 189.632 73.5897 192.979 75.9208 196.108C76.6111 197.035 77.2603 197.886 77.8567 198.653C65.2088 197.486 53.8609 191.165 46.4604 186.512C-4.40538 154.528 -11.2429 96.3367 14.9607 49.7098C32.0207 19.3531 61.8743 70.1369 61.8743 70.1369C61.8743 70.1369 74.2054 50.0988 100.024 25.4366C102.222 28.7813 103.877 32.7582 106.292 37.6289C117.078 6.5509 121.219 0.207686 128.154 0.00372921C147.309 -0.559663 178.249 62.8153 162.835 120.617C152.497 159.387 110.419 195.889 84.9258 198.673C82.7988 196.108 81.036 193.944 80.247 192.885C77.9917 189.858 75.7362 186.619 73.6349 183.306C71.5161 179.965 69.6738 176.733 68.1892 173.688C66.6389 170.508 65.515 167.603 64.8765 165.049C60.9828 149.474 63.862 130.76 74.0254 117.646C76.4126 114.565 80.1824 110.856 86.386 105.333C86.3437 105.371 100.054 93.3631 104.231 89.5478C122.616 72.7553 133.414 59.319 137.302 45.4313C142.651 28.8796 142.609 15.7992 140.969 13.4871C140.969 13.4871 133.549 3.47185 128.539 3.8572C123.53 4.24255 119.004 14.2578 118.234 16.1846C117.463 18.1113 113.995 26.9743 108.6 41.2321C109.449 43.1418 112.225 50.1363 115.052 57.0351C116.365 60.2399 117.664 63.9054 118.762 67.0436C113.935 72.7968 107.893 78.8969 100.593 85.5644Z" fill="#FF8F00"/>
<script xmlns="" id="bw-fido2-page-script"/>
</svg>