<?xml version="1.0" encoding="UTF-8"?>
<!DOCTYPE svg PUBLIC "-//W3C//DTD SVG 1.1//EN" "http://www.w3.org/Graphics/SVG/1.1/DTD/svg11.dtd">
<svg xmlns="http://www.w3.org/2000/svg" version="1.1" width="360px" height="360px" style="shape-rendering:geometricPrecision; text-rendering:geometricPrecision; image-rendering:optimizeQuality; fill-rule:evenodd; clip-rule:evenodd" xmlns:xlink="http://www.w3.org/1999/xlink">
<g><path style="opacity:1" fill="#f6f6f6" d="M -0.5,-0.5 C 119.5,-0.5 239.5,-0.5 359.5,-0.5C 359.5,44.5 359.5,89.5 359.5,134.5C 354.5,134.5 349.5,134.5 344.5,134.5C 344.5,139.5 344.5,144.5 344.5,149.5C 339.5,149.5 334.5,149.5 329.5,149.5C 329.823,153.226 329.489,156.893 328.5,160.5C 327.313,159.347 326.313,159.347 325.5,160.5C 319.87,159.479 314.204,159.313 308.5,160C 304.689,161.07 301.356,162.903 298.5,165.5C 294.101,164.809 289.601,164.142 285,163.5C 284.501,158.845 284.334,154.179 284.5,149.5C 279.5,149.5 274.5,149.5 269.5,149.5C 269.5,152.167 269.5,154.833 269.5,157.5C 266.813,157.336 264.146,157.503 261.5,158C 264.695,158.181 267.695,158.681 270.5,159.5C 262.495,158.283 255.495,160.283 249.5,165.5C 246.609,164.597 243.609,164.264 240.5,164.5C 240.387,169.518 240.053,174.518 239.5,179.5C 234.167,179.5 228.833,179.5 223.5,179.5C 226.833,173.056 232.167,170.722 239.5,172.5C 239.5,168.5 239.5,164.5 239.5,160.5C 236.012,160.54 232.679,161.207 229.5,162.5C 228.006,161.601 226.506,161.935 225,163.5C 224.501,158.845 224.334,154.179 224.5,149.5C 219.5,149.5 214.5,149.5 209.5,149.5C 209.5,154.5 209.5,159.5 209.5,164.5C 204.584,164.347 199.917,164.347 195.5,164.5C 186.684,159.154 177.351,158.154 167.5,161.5C 166.811,160.226 165.977,160.226 165,161.5C 164.501,157.514 164.334,153.514 164.5,149.5C 169.5,149.5 174.5,149.5 179.5,149.5C 179.5,144.5 179.5,139.5 179.5,134.5C 174.5,134.5 169.5,134.5 164.5,134.5C 164.5,137.5 164.5,140.5 164.5,143.5C 159.57,143.197 154.737,143.531 150,144.5C 149.502,141.183 149.335,137.85 149.5,134.5C 144.5,134.5 139.5,134.5 134.5,134.5C 134.5,139.5 134.5,144.5 134.5,149.5C 129.5,149.5 124.5,149.5 119.5,149.5C 119.5,144.5 119.5,139.5 119.5,134.5C 109.5,134.5 99.5,134.5 89.5,134.5C 89.5,139.5 89.5,144.5 89.5,149.5C 79.5,149.5 69.5,149.5 59.5,149.5C 59.5,144.5 59.5,139.5 59.5,134.5C 54.5,134.5 49.5,134.5 44.5,134.5C 44.5,136.833 44.5,139.167 44.5,141.5C 44.2503,143.674 43.2503,145.341 41.5,146.5C 41.5654,146.062 41.3988,145.728 41,145.5C 40.5348,146.931 39.7014,148.097 38.5,149C 35.5184,149.498 32.5184,149.665 29.5,149.5C 29.5,154.5 29.5,159.5 29.5,164.5C 24.5,164.5 19.5,164.5 14.5,164.5C 14.5,169.5 14.5,174.5 14.5,179.5C 9.5,179.5 4.5,179.5 -0.5,179.5C -0.5,119.5 -0.5,59.5 -0.5,-0.5 Z"/></g>
<g><path style="opacity:1" fill="#040404" d="M 79.5,195.5 C 84.2813,203.558 88.9479,211.725 93.5,220C 62.5018,220.5 31.5018,220.667 0.5,220.5C 0.491364,218.692 0.991364,217.025 2,215.5C 15.6961,192.771 28.8627,169.771 41.5,146.5C 43.2503,145.341 44.2503,143.674 44.5,141.5C 45.1515,140.909 45.8182,140.243 46.5,139.5C 57.5627,158.206 68.5627,176.873 79.5,195.5 Z"/></g>
<g><path style="opacity:1" fill="#070707" d="M 151.5,167.5 C 144.25,180.336 136.75,193.003 129,205.5C 123.876,197.57 119.043,189.57 114.5,181.5C 107.861,169.85 101.194,158.184 94.5,146.5C 98.8333,145.167 103.167,145.167 107.5,146.5C 114.415,158.665 121.582,170.665 129,182.5C 136,170.5 143,158.5 150,146.5C 154.45,145.2 158.95,145.2 163.5,146.5C 159.235,153.365 155.235,160.365 151.5,167.5 Z"/></g>
<g><path style="opacity:1" fill="#7a7a7a" d="M 359.5,144.5 C 359.5,144.833 359.5,145.167 359.5,145.5C 355.833,145.5 352.167,145.5 348.5,145.5C 348.5,164.833 348.5,184.167 348.5,203.5C 347.503,184.007 347.17,164.34 347.5,144.5C 351.5,144.5 355.5,144.5 359.5,144.5 Z"/></g>
<g><path style="opacity:1" fill="#000000" d="M 359.5,145.5 C 359.5,164.833 359.5,184.167 359.5,203.5C 355.833,203.5 352.167,203.5 348.5,203.5C 348.5,184.167 348.5,164.833 348.5,145.5C 352.167,145.5 355.833,145.5 359.5,145.5 Z"/></g>
<g><path style="opacity:1" fill="#f6f6f6" d="M 167.5,161.5 C 165.228,162.441 163.228,163.774 161.5,165.5C 157.589,163.815 154.255,164.482 151.5,167.5C 155.235,160.365 159.235,153.365 163.5,146.5C 158.95,145.2 154.45,145.2 150,146.5C 143,158.5 136,170.5 129,182.5C 121.582,170.665 114.415,158.665 107.5,146.5C 103.167,145.167 98.8333,145.167 94.5,146.5C 101.194,158.184 107.861,169.85 114.5,181.5C 114.631,182.239 114.464,182.906 114,183.5C 113.535,182.069 112.701,180.903 111.5,180C 109.19,179.503 106.857,179.337 104.5,179.5C 104.5,184.5 104.5,189.5 104.5,194.5C 109.5,194.5 114.5,194.5 119.5,194.5C 119.5,199.5 119.5,204.5 119.5,209.5C 124.5,209.5 129.5,209.5 134.5,209.5C 134.5,214.5 134.5,219.5 134.5,224.5C 139.5,224.5 144.5,224.5 149.5,224.5C 149.5,229.5 149.5,234.5 149.5,239.5C 154.5,239.5 159.5,239.5 164.5,239.5C 164.5,244.5 164.5,249.5 164.5,254.5C 169.5,254.5 174.5,254.5 179.5,254.5C 179.5,259.5 179.5,264.5 179.5,269.5C 184.5,269.5 189.5,269.5 194.5,269.5C 194.5,274.5 194.5,279.5 194.5,284.5C 199.5,284.5 204.5,284.5 209.5,284.5C 209.5,289.5 209.5,294.5 209.5,299.5C 214.5,299.5 219.5,299.5 224.5,299.5C 224.5,304.5 224.5,309.5 224.5,314.5C 229.5,314.5 234.5,314.5 239.5,314.5C 239.5,319.5 239.5,324.5 239.5,329.5C 244.5,329.5 249.5,329.5 254.5,329.5C 254.5,334.5 254.5,339.5 254.5,344.5C 259.5,344.5 264.5,344.5 269.5,344.5C 269.5,349.5 269.5,354.5 269.5,359.5C 259.5,359.5 249.5,359.5 239.5,359.5C 239.5,354.5 239.5,349.5 239.5,344.5C 234.5,344.5 229.5,344.5 224.5,344.5C 224.5,339.5 224.5,334.5 224.5,329.5C 219.5,329.5 214.5,329.5 209.5,329.5C 209.5,324.5 209.5,319.5 209.5,314.5C 204.5,314.5 199.5,314.5 194.5,314.5C 194.5,309.5 194.5,304.5 194.5,299.5C 189.5,299.5 184.5,299.5 179.5,299.5C 179.5,294.5 179.5,289.5 179.5,284.5C 174.5,284.5 169.5,284.5 164.5,284.5C 164.5,279.5 164.5,274.5 164.5,269.5C 159.5,269.5 154.5,269.5 149.5,269.5C 149.5,264.5 149.5,259.5 149.5,254.5C 144.5,254.5 139.5,254.5 134.5,254.5C 134.5,249.5 134.5,244.5 134.5,239.5C 129.5,239.5 124.5,239.5 119.5,239.5C 119.5,234.5 119.5,229.5 119.5,224.5C 114.5,224.5 109.5,224.5 104.5,224.5C 104.5,219.5 104.5,214.5 104.5,209.5C 99.5,209.5 94.5,209.5 89.5,209.5C 89.5,204.5 89.5,199.5 89.5,194.5C 86.2234,194.784 83.0567,194.451 80,193.5C 79.5357,194.094 79.369,194.761 79.5,195.5C 68.5627,176.873 57.5627,158.206 46.5,139.5C 45.8182,140.243 45.1515,140.909 44.5,141.5C 44.5,139.167 44.5,136.833 44.5,134.5C 49.5,134.5 54.5,134.5 59.5,134.5C 59.5,139.5 59.5,144.5 59.5,149.5C 69.5,149.5 79.5,149.5 89.5,149.5C 89.5,144.5 89.5,139.5 89.5,134.5C 99.5,134.5 109.5,134.5 119.5,134.5C 119.5,139.5 119.5,144.5 119.5,149.5C 124.5,149.5 129.5,149.5 134.5,149.5C 134.5,144.5 134.5,139.5 134.5,134.5C 139.5,134.5 144.5,134.5 149.5,134.5C 149.335,137.85 149.502,141.183 150,144.5C 154.737,143.531 159.57,143.197 164.5,143.5C 164.5,140.5 164.5,137.5 164.5,134.5C 169.5,134.5 174.5,134.5 179.5,134.5C 179.5,139.5 179.5,144.5 179.5,149.5C 174.5,149.5 169.5,149.5 164.5,149.5C 164.334,153.514 164.501,157.514 165,161.5C 165.977,160.226 166.811,160.226 167.5,161.5 Z"/></g>
<g><path style="opacity:1" fill="#050505" d="M 195.5,164.5 C 201.814,170.372 204.48,177.705 203.5,186.5C 191.482,186.168 179.482,186.501 167.5,187.5C 171.865,193.902 177.865,196.068 185.5,194C 187.664,193.086 189.664,191.919 191.5,190.5C 194.492,191.887 197.325,193.554 200,195.5C 200.667,196.167 200.667,196.833 200,197.5C 188.412,205.806 176.245,206.639 163.5,200C 158.872,196.243 156.205,191.41 155.5,185.5C 154.128,177.708 156.128,171.041 161.5,165.5C 163.228,163.774 165.228,162.441 167.5,161.5C 177.351,158.154 186.684,159.154 195.5,164.5 Z"/></g>
<g><path style="opacity:1" fill="#050505" d="M 270.5,159.5 C 276.472,160.07 281.639,162.403 286,166.5C 286.982,167.759 287.315,169.092 287,170.5C 284.084,172.041 281.251,173.707 278.5,175.5C 272.853,168.998 266.187,167.831 258.5,172C 253.167,178.667 253.167,185.333 258.5,192C 266.302,196.136 273.135,194.969 279,188.5C 281.959,190.389 284.792,192.389 287.5,194.5C 286.167,197.493 284.167,199.827 281.5,201.5C 271.757,205.661 262.09,205.495 252.5,201C 250.294,198.963 248.294,196.797 246.5,194.5C 241.689,184.15 242.689,174.484 249.5,165.5C 255.495,160.283 262.495,158.283 270.5,159.5 Z"/></g>
<g><path style="opacity:1" fill="#0e0e0e" d="M 229.5,162.5 C 232.679,161.207 236.012,160.54 239.5,160.5C 239.5,164.5 239.5,168.5 239.5,172.5C 232.167,170.722 226.833,173.056 223.5,179.5C 222.533,187.414 222.199,195.414 222.5,203.5C 218.5,203.5 214.5,203.5 210.5,203.5C 210.5,189.167 210.5,174.833 210.5,160.5C 214.5,160.5 218.5,160.5 222.5,160.5C 222.336,163.187 222.503,165.854 223,168.5C 224.385,165.614 226.551,163.614 229.5,162.5 Z"/></g>
<g><path style="opacity:1" fill="#f6f6f6" d="M 174.5,169.5 C 178.605,169.234 182.605,169.734 186.5,171C 188.414,172.413 189.747,174.247 190.5,176.5C 182.833,177.833 175.167,177.833 167.5,176.5C 168.883,173.116 171.217,170.783 174.5,169.5 Z"/></g>
<g><path style="opacity:1" fill="#f3f3f3" d="M 161.5,165.5 C 156.128,171.041 154.128,177.708 155.5,185.5C 154.681,182.695 154.181,179.695 154,176.5C 153.517,177.448 153.351,178.448 153.5,179.5C 152.167,179.5 150.833,179.5 149.5,179.5C 149.5,184.5 149.5,189.5 149.5,194.5C 152.247,194.187 154.914,194.52 157.5,195.5C 159.167,197.833 161.167,199.833 163.5,201.5C 164.48,204.086 164.813,206.753 164.5,209.5C 169.5,209.5 174.5,209.5 179.5,209.5C 179.5,214.5 179.5,219.5 179.5,224.5C 184.5,224.5 189.5,224.5 194.5,224.5C 194.5,229.5 194.5,234.5 194.5,239.5C 199.5,239.5 204.5,239.5 209.5,239.5C 209.5,244.5 209.5,249.5 209.5,254.5C 214.5,254.5 219.5,254.5 224.5,254.5C 224.5,259.5 224.5,264.5 224.5,269.5C 229.5,269.5 234.5,269.5 239.5,269.5C 239.5,274.5 239.5,279.5 239.5,284.5C 244.5,284.5 249.5,284.5 254.5,284.5C 254.5,289.5 254.5,294.5 254.5,299.5C 259.5,299.5 264.5,299.5 269.5,299.5C 269.5,304.5 269.5,309.5 269.5,314.5C 274.5,314.5 279.5,314.5 284.5,314.5C 284.5,319.5 284.5,324.5 284.5,329.5C 289.5,329.5 294.5,329.5 299.5,329.5C 299.5,334.5 299.5,339.5 299.5,344.5C 304.5,344.5 309.5,344.5 314.5,344.5C 314.5,349.5 314.5,354.5 314.5,359.5C 299.5,359.5 284.5,359.5 269.5,359.5C 269.5,354.5 269.5,349.5 269.5,344.5C 264.5,344.5 259.5,344.5 254.5,344.5C 254.5,339.5 254.5,334.5 254.5,329.5C 249.5,329.5 244.5,329.5 239.5,329.5C 239.5,324.5 239.5,319.5 239.5,314.5C 234.5,314.5 229.5,314.5 224.5,314.5C 224.5,309.5 224.5,304.5 224.5,299.5C 219.5,299.5 214.5,299.5 209.5,299.5C 209.5,294.5 209.5,289.5 209.5,284.5C 204.5,284.5 199.5,284.5 194.5,284.5C 194.5,279.5 194.5,274.5 194.5,269.5C 189.5,269.5 184.5,269.5 179.5,269.5C 179.5,264.5 179.5,259.5 179.5,254.5C 174.5,254.5 169.5,254.5 164.5,254.5C 164.5,249.5 164.5,244.5 164.5,239.5C 159.5,239.5 154.5,239.5 149.5,239.5C 149.5,234.5 149.5,229.5 149.5,224.5C 144.5,224.5 139.5,224.5 134.5,224.5C 134.5,219.5 134.5,214.5 134.5,209.5C 129.5,209.5 124.5,209.5 119.5,209.5C 119.5,204.5 119.5,199.5 119.5,194.5C 114.5,194.5 109.5,194.5 104.5,194.5C 104.5,189.5 104.5,184.5 104.5,179.5C 106.857,179.337 109.19,179.503 111.5,180C 112.701,180.903 113.535,182.069 114,183.5C 114.464,182.906 114.631,182.239 114.5,181.5C 119.043,189.57 123.876,197.57 129,205.5C 136.75,193.003 144.25,180.336 151.5,167.5C 154.255,164.482 157.589,163.815 161.5,165.5 Z"/></g>
<g><path style="opacity:1" fill="#f5f5f5" d="M 249.5,165.5 C 242.689,174.484 241.689,184.15 246.5,194.5C 244.167,194.5 241.833,194.5 239.5,194.5C 239.5,199.5 239.5,204.5 239.5,209.5C 244.5,209.5 249.5,209.5 254.5,209.5C 254.5,214.5 254.5,219.5 254.5,224.5C 259.5,224.5 264.5,224.5 269.5,224.5C 269.5,229.5 269.5,234.5 269.5,239.5C 274.5,239.5 279.5,239.5 284.5,239.5C 284.5,244.5 284.5,249.5 284.5,254.5C 289.5,254.5 294.5,254.5 299.5,254.5C 299.5,259.5 299.5,264.5 299.5,269.5C 304.5,269.5 309.5,269.5 314.5,269.5C 314.5,274.5 314.5,279.5 314.5,284.5C 319.5,284.5 324.5,284.5 329.5,284.5C 329.5,289.5 329.5,294.5 329.5,299.5C 334.5,299.5 339.5,299.5 344.5,299.5C 344.5,304.5 344.5,309.5 344.5,314.5C 349.5,314.5 354.5,314.5 359.5,314.5C 359.5,324.5 359.5,334.5 359.5,344.5C 354.5,344.5 349.5,344.5 344.5,344.5C 344.5,339.5 344.5,334.5 344.5,329.5C 339.5,329.5 334.5,329.5 329.5,329.5C 329.5,324.5 329.5,319.5 329.5,314.5C 324.5,314.5 319.5,314.5 314.5,314.5C 314.5,309.5 314.5,304.5 314.5,299.5C 309.5,299.5 304.5,299.5 299.5,299.5C 299.5,294.5 299.5,289.5 299.5,284.5C 294.5,284.5 289.5,284.5 284.5,284.5C 284.5,279.5 284.5,274.5 284.5,269.5C 279.5,269.5 274.5,269.5 269.5,269.5C 269.5,264.5 269.5,259.5 269.5,254.5C 264.5,254.5 259.5,254.5 254.5,254.5C 254.5,249.5 254.5,244.5 254.5,239.5C 249.5,239.5 244.5,239.5 239.5,239.5C 239.5,234.5 239.5,229.5 239.5,224.5C 234.5,224.5 229.5,224.5 224.5,224.5C 224.5,219.5 224.5,214.5 224.5,209.5C 219.5,209.5 214.5,209.5 209.5,209.5C 209.325,207.379 209.659,205.379 210.5,203.5C 214.5,203.5 218.5,203.5 222.5,203.5C 222.199,195.414 222.533,187.414 223.5,179.5C 228.833,179.5 234.167,179.5 239.5,179.5C 240.053,174.518 240.387,169.518 240.5,164.5C 243.609,164.264 246.609,164.597 249.5,165.5 Z"/></g>
<g><path style="opacity:1" fill="#f6f6f6" d="M 41.5,146.5 C 28.8627,169.771 15.6961,192.771 2,215.5C 0.991364,217.025 0.491364,218.692 0.5,220.5C 31.5018,220.667 62.5018,220.5 93.5,220C 88.9479,211.725 84.2813,203.558 79.5,195.5C 79.369,194.761 79.5357,194.094 80,193.5C 83.0567,194.451 86.2234,194.784 89.5,194.5C 89.5,199.5 89.5,204.5 89.5,209.5C 94.5,209.5 99.5,209.5 104.5,209.5C 104.5,214.5 104.5,219.5 104.5,224.5C 109.5,224.5 114.5,224.5 119.5,224.5C 119.5,229.5 119.5,234.5 119.5,239.5C 124.5,239.5 129.5,239.5 134.5,239.5C 134.5,244.5 134.5,249.5 134.5,254.5C 139.5,254.5 144.5,254.5 149.5,254.5C 149.5,259.5 149.5,264.5 149.5,269.5C 154.5,269.5 159.5,269.5 164.5,269.5C 164.5,274.5 164.5,279.5 164.5,284.5C 169.5,284.5 174.5,284.5 179.5,284.5C 179.5,289.5 179.5,294.5 179.5,299.5C 184.5,299.5 189.5,299.5 194.5,299.5C 194.5,304.5 194.5,309.5 194.5,314.5C 199.5,314.5 204.5,314.5 209.5,314.5C 209.5,319.5 209.5,324.5 209.5,329.5C 214.5,329.5 219.5,329.5 224.5,329.5C 224.5,334.5 224.5,339.5 224.5,344.5C 229.5,344.5 234.5,344.5 239.5,344.5C 239.5,349.5 239.5,354.5 239.5,359.5C 159.5,359.5 79.5,359.5 -0.5,359.5C -0.5,299.5 -0.5,239.5 -0.5,179.5C 4.5,179.5 9.5,179.5 14.5,179.5C 14.5,174.5 14.5,169.5 14.5,164.5C 19.5,164.5 24.5,164.5 29.5,164.5C 29.5,159.5 29.5,154.5 29.5,149.5C 32.5184,149.665 35.5184,149.498 38.5,149C 39.7014,148.097 40.5348,146.931 41,145.5C 41.3988,145.728 41.5654,146.062 41.5,146.5 Z"/></g>
<g><path style="opacity:1" fill="#f9f9f9" d="M 229.5,162.5 C 226.551,163.614 224.385,165.614 223,168.5C 222.503,165.854 222.336,163.187 222.5,160.5C 218.5,160.5 214.5,160.5 210.5,160.5C 210.5,174.833 210.5,189.167 210.5,203.5C 209.659,205.379 209.325,207.379 209.5,209.5C 214.5,209.5 219.5,209.5 224.5,209.5C 224.5,214.5 224.5,219.5 224.5,224.5C 229.5,224.5 234.5,224.5 239.5,224.5C 239.5,229.5 239.5,234.5 239.5,239.5C 244.5,239.5 249.5,239.5 254.5,239.5C 254.5,244.5 254.5,249.5 254.5,254.5C 259.5,254.5 264.5,254.5 269.5,254.5C 269.5,259.5 269.5,264.5 269.5,269.5C 274.5,269.5 279.5,269.5 284.5,269.5C 284.5,274.5 284.5,279.5 284.5,284.5C 289.5,284.5 294.5,284.5 299.5,284.5C 299.5,289.5 299.5,294.5 299.5,299.5C 304.5,299.5 309.5,299.5 314.5,299.5C 314.5,304.5 314.5,309.5 314.5,314.5C 319.5,314.5 324.5,314.5 329.5,314.5C 329.5,319.5 329.5,324.5 329.5,329.5C 334.5,329.5 339.5,329.5 344.5,329.5C 344.5,334.5 344.5,339.5 344.5,344.5C 349.5,344.5 354.5,344.5 359.5,344.5C 359.5,349.5 359.5,354.5 359.5,359.5C 344.5,359.5 329.5,359.5 314.5,359.5C 314.5,354.5 314.5,349.5 314.5,344.5C 309.5,344.5 304.5,344.5 299.5,344.5C 299.5,339.5 299.5,334.5 299.5,329.5C 294.5,329.5 289.5,329.5 284.5,329.5C 284.5,324.5 284.5,319.5 284.5,314.5C 279.5,314.5 274.5,314.5 269.5,314.5C 269.5,309.5 269.5,304.5 269.5,299.5C 264.5,299.5 259.5,299.5 254.5,299.5C 254.5,294.5 254.5,289.5 254.5,284.5C 249.5,284.5 244.5,284.5 239.5,284.5C 239.5,279.5 239.5,274.5 239.5,269.5C 234.5,269.5 229.5,269.5 224.5,269.5C 224.5,264.5 224.5,259.5 224.5,254.5C 219.5,254.5 214.5,254.5 209.5,254.5C 209.5,249.5 209.5,244.5 209.5,239.5C 204.5,239.5 199.5,239.5 194.5,239.5C 194.5,234.5 194.5,229.5 194.5,224.5C 189.5,224.5 184.5,224.5 179.5,224.5C 179.5,219.5 179.5,214.5 179.5,209.5C 174.5,209.5 169.5,209.5 164.5,209.5C 164.813,206.753 164.48,204.086 163.5,201.5C 161.167,199.833 159.167,197.833 157.5,195.5C 154.914,194.52 152.247,194.187 149.5,194.5C 149.5,189.5 149.5,184.5 149.5,179.5C 150.833,179.5 152.167,179.5 153.5,179.5C 153.351,178.448 153.517,177.448 154,176.5C 154.181,179.695 154.681,182.695 155.5,185.5C 156.205,191.41 158.872,196.243 163.5,200C 176.245,206.639 188.412,205.806 200,197.5C 200.667,196.833 200.667,196.167 200,195.5C 197.325,193.554 194.492,191.887 191.5,190.5C 189.664,191.919 187.664,193.086 185.5,194C 177.865,196.068 171.865,193.902 167.5,187.5C 179.482,186.501 191.482,186.168 203.5,186.5C 204.48,177.705 201.814,170.372 195.5,164.5C 199.917,164.347 204.584,164.347 209.5,164.5C 209.5,159.5 209.5,154.5 209.5,149.5C 214.5,149.5 219.5,149.5 224.5,149.5C 224.334,154.179 224.501,158.845 225,163.5C 226.506,161.935 228.006,161.601 229.5,162.5 Z"/></g>
<g><path style="opacity:1" fill="#f3f3f3" d="M 246.5,194.5 C 248.294,196.797 250.294,198.963 252.5,201C 262.09,205.495 271.757,205.661 281.5,201.5C 282.5,201.5 283.5,201.5 284.5,201.5C 284.5,204.167 284.5,206.833 284.5,209.5C 289.5,209.5 294.5,209.5 299.5,209.5C 299.5,214.5 299.5,219.5 299.5,224.5C 304.5,224.5 309.5,224.5 314.5,224.5C 314.5,229.5 314.5,234.5 314.5,239.5C 319.5,239.5 324.5,239.5 329.5,239.5C 329.5,244.5 329.5,249.5 329.5,254.5C 334.5,254.5 339.5,254.5 344.5,254.5C 344.5,259.5 344.5,264.5 344.5,269.5C 349.5,269.5 354.5,269.5 359.5,269.5C 359.5,284.5 359.5,299.5 359.5,314.5C 354.5,314.5 349.5,314.5 344.5,314.5C 344.5,309.5 344.5,304.5 344.5,299.5C 339.5,299.5 334.5,299.5 329.5,299.5C 329.5,294.5 329.5,289.5 329.5,284.5C 324.5,284.5 319.5,284.5 314.5,284.5C 314.5,279.5 314.5,274.5 314.5,269.5C 309.5,269.5 304.5,269.5 299.5,269.5C 299.5,264.5 299.5,259.5 299.5,254.5C 294.5,254.5 289.5,254.5 284.5,254.5C 284.5,249.5 284.5,244.5 284.5,239.5C 279.5,239.5 274.5,239.5 269.5,239.5C 269.5,234.5 269.5,229.5 269.5,224.5C 264.5,224.5 259.5,224.5 254.5,224.5C 254.5,219.5 254.5,214.5 254.5,209.5C 249.5,209.5 244.5,209.5 239.5,209.5C 239.5,204.5 239.5,199.5 239.5,194.5C 241.833,194.5 244.167,194.5 246.5,194.5 Z"/></g>
<g><path style="opacity:1" fill="#f7f7f7" d="M 359.5,134.5 C 359.5,137.833 359.5,141.167 359.5,144.5C 355.5,144.5 351.5,144.5 347.5,144.5C 347.17,164.34 347.503,184.007 348.5,203.5C 352.167,203.5 355.833,203.5 359.5,203.5C 359.5,225.5 359.5,247.5 359.5,269.5C 354.5,269.5 349.5,269.5 344.5,269.5C 344.5,264.5 344.5,259.5 344.5,254.5C 339.5,254.5 334.5,254.5 329.5,254.5C 329.5,249.5 329.5,244.5 329.5,239.5C 324.5,239.5 319.5,239.5 314.5,239.5C 314.5,234.5 314.5,229.5 314.5,224.5C 309.5,224.5 304.5,224.5 299.5,224.5C 299.5,219.5 299.5,214.5 299.5,209.5C 294.5,209.5 289.5,209.5 284.5,209.5C 284.5,206.833 284.5,204.167 284.5,201.5C 283.5,201.5 282.5,201.5 281.5,201.5C 284.167,199.827 286.167,197.493 287.5,194.5C 284.792,192.389 281.959,190.389 279,188.5C 273.135,194.969 266.302,196.136 258.5,192C 253.167,185.333 253.167,178.667 258.5,172C 266.187,167.831 272.853,168.998 278.5,175.5C 281.251,173.707 284.084,172.041 287,170.5C 287.315,169.092 286.982,167.759 286,166.5C 281.639,162.403 276.472,160.07 270.5,159.5C 267.695,158.681 264.695,158.181 261.5,158C 264.146,157.503 266.813,157.336 269.5,157.5C 269.5,154.833 269.5,152.167 269.5,149.5C 274.5,149.5 279.5,149.5 284.5,149.5C 284.334,154.179 284.501,158.845 285,163.5C 289.601,164.142 294.101,164.809 298.5,165.5C 291.078,175.429 290.578,185.763 297,196.5C 304.781,203.739 313.948,206.239 324.5,204C 329.786,203.027 334.12,200.527 337.5,196.5C 335.054,193.769 332.054,191.769 328.5,190.5C 322.67,194.751 316.336,195.585 309.5,193C 307.649,191.316 305.982,189.483 304.5,187.5C 316.482,186.501 328.482,186.168 340.5,186.5C 341.647,174.11 336.647,165.443 325.5,160.5C 326.313,159.347 327.313,159.347 328.5,160.5C 329.489,156.893 329.823,153.226 329.5,149.5C 334.5,149.5 339.5,149.5 344.5,149.5C 344.5,144.5 344.5,139.5 344.5,134.5C 349.5,134.5 354.5,134.5 359.5,134.5 Z"/></g>
<g><path style="opacity:1" fill="#050505" d="M 325.5,160.5 C 336.647,165.443 341.647,174.11 340.5,186.5C 328.482,186.168 316.482,186.501 304.5,187.5C 305.982,189.483 307.649,191.316 309.5,193C 316.336,195.585 322.67,194.751 328.5,190.5C 332.054,191.769 335.054,193.769 337.5,196.5C 334.12,200.527 329.786,203.027 324.5,204C 313.948,206.239 304.781,203.739 297,196.5C 290.578,185.763 291.078,175.429 298.5,165.5C 301.356,162.903 304.689,161.07 308.5,160C 314.204,159.313 319.87,159.479 325.5,160.5 Z"/></g>
<g><path style="opacity:1" fill="#f8f8f8" d="M 311.5,169.5 C 318.922,168.214 324.589,170.714 328.5,177C 320.479,177.832 312.479,177.665 304.5,176.5C 306.243,173.484 308.577,171.151 311.5,169.5 Z"/></g>
</svg>
