<?xml version="1.0" encoding="UTF-8"?>
<!DOCTYPE svg PUBLIC "-//W3C//DTD SVG 1.1//EN" "http://www.w3.org/Graphics/SVG/1.1/DTD/svg11.dtd">
<svg xmlns="http://www.w3.org/2000/svg" version="1.1" width="360px" height="354px" style="shape-rendering:geometricPrecision; text-rendering:geometricPrecision; image-rendering:optimizeQuality; fill-rule:evenodd; clip-rule:evenodd" xmlns:xlink="http://www.w3.org/1999/xlink">
<g><path style="opacity:1" fill="#fefffe" d="M -0.5,-0.5 C 4.5,-0.5 9.5,-0.5 14.5,-0.5C 14.5,4.5 14.5,9.5 14.5,14.5C 9.5,14.5 4.5,14.5 -0.5,14.5C -0.5,9.5 -0.5,4.5 -0.5,-0.5 Z"/></g>
<g><path style="opacity:1" fill="#edeeed" d="M 14.5,-0.5 C 19.5,-0.5 24.5,-0.5 29.5,-0.5C 29.5,4.5 29.5,9.5 29.5,14.5C 24.5,14.5 19.5,14.5 14.5,14.5C 14.5,9.5 14.5,4.5 14.5,-0.5 Z"/></g>
<g><path style="opacity:1" fill="#fefffe" d="M 29.5,-0.5 C 34.5,-0.5 39.5,-0.5 44.5,-0.5C 44.5,4.5 44.5,9.5 44.5,14.5C 39.5,14.5 34.5,14.5 29.5,14.5C 29.5,9.5 29.5,4.5 29.5,-0.5 Z"/></g>
<g><path style="opacity:1" fill="#edeeed" d="M 44.5,-0.5 C 49.5,-0.5 54.5,-0.5 59.5,-0.5C 59.5,4.5 59.5,9.5 59.5,14.5C 54.5,14.5 49.5,14.5 44.5,14.5C 44.5,9.5 44.5,4.5 44.5,-0.5 Z"/></g>
<g><path style="opacity:1" fill="#fefffe" d="M 59.5,-0.5 C 64.5,-0.5 69.5,-0.5 74.5,-0.5C 74.5,4.5 74.5,9.5 74.5,14.5C 69.5,14.5 64.5,14.5 59.5,14.5C 59.5,9.5 59.5,4.5 59.5,-0.5 Z"/></g>
<g><path style="opacity:1" fill="#edeeed" d="M 74.5,-0.5 C 79.5,-0.5 84.5,-0.5 89.5,-0.5C 89.5,4.5 89.5,9.5 89.5,14.5C 84.5,14.5 79.5,14.5 74.5,14.5C 74.5,9.5 74.5,4.5 74.5,-0.5 Z"/></g>
<g><path style="opacity:1" fill="#fefffe" d="M 89.5,-0.5 C 94.5,-0.5 99.5,-0.5 104.5,-0.5C 104.5,4.5 104.5,9.5 104.5,14.5C 99.5,14.5 94.5,14.5 89.5,14.5C 89.5,9.5 89.5,4.5 89.5,-0.5 Z"/></g>
<g><path style="opacity:1" fill="#edeeed" d="M 104.5,-0.5 C 109.5,-0.5 114.5,-0.5 119.5,-0.5C 119.5,4.5 119.5,9.5 119.5,14.5C 114.5,14.5 109.5,14.5 104.5,14.5C 104.5,9.5 104.5,4.5 104.5,-0.5 Z"/></g>
<g><path style="opacity:1" fill="#fefffe" d="M 119.5,-0.5 C 124.5,-0.5 129.5,-0.5 134.5,-0.5C 134.5,4.5 134.5,9.5 134.5,14.5C 129.5,14.5 124.5,14.5 119.5,14.5C 119.5,9.5 119.5,4.5 119.5,-0.5 Z"/></g>
<g><path style="opacity:1" fill="#edeeed" d="M 134.5,-0.5 C 139.5,-0.5 144.5,-0.5 149.5,-0.5C 149.5,4.5 149.5,9.5 149.5,14.5C 144.5,14.5 139.5,14.5 134.5,14.5C 134.5,9.5 134.5,4.5 134.5,-0.5 Z"/></g>
<g><path style="opacity:1" fill="#fefffe" d="M 149.5,-0.5 C 154.5,-0.5 159.5,-0.5 164.5,-0.5C 164.5,4.5 164.5,9.5 164.5,14.5C 159.5,14.5 154.5,14.5 149.5,14.5C 149.5,9.5 149.5,4.5 149.5,-0.5 Z"/></g>
<g><path style="opacity:1" fill="#edeeed" d="M 164.5,-0.5 C 169.5,-0.5 174.5,-0.5 179.5,-0.5C 179.5,4.5 179.5,9.5 179.5,14.5C 174.5,14.5 169.5,14.5 164.5,14.5C 164.5,9.5 164.5,4.5 164.5,-0.5 Z"/></g>
<g><path style="opacity:1" fill="#fefffe" d="M 179.5,-0.5 C 184.5,-0.5 189.5,-0.5 194.5,-0.5C 194.5,4.5 194.5,9.5 194.5,14.5C 189.5,14.5 184.5,14.5 179.5,14.5C 179.5,9.5 179.5,4.5 179.5,-0.5 Z"/></g>
<g><path style="opacity:1" fill="#edeeed" d="M 194.5,-0.5 C 199.5,-0.5 204.5,-0.5 209.5,-0.5C 209.5,4.5 209.5,9.5 209.5,14.5C 204.5,14.5 199.5,14.5 194.5,14.5C 194.5,9.5 194.5,4.5 194.5,-0.5 Z"/></g>
<g><path style="opacity:1" fill="#fefffe" d="M 209.5,-0.5 C 214.5,-0.5 219.5,-0.5 224.5,-0.5C 224.5,4.5 224.5,9.5 224.5,14.5C 219.5,14.5 214.5,14.5 209.5,14.5C 209.5,9.5 209.5,4.5 209.5,-0.5 Z"/></g>
<g><path style="opacity:1" fill="#edeeed" d="M 224.5,-0.5 C 229.5,-0.5 234.5,-0.5 239.5,-0.5C 239.5,4.5 239.5,9.5 239.5,14.5C 234.5,14.5 229.5,14.5 224.5,14.5C 224.5,9.5 224.5,4.5 224.5,-0.5 Z"/></g>
<g><path style="opacity:1" fill="#efefef" d="M 284.5,-0.5 C 289.5,-0.5 294.5,-0.5 299.5,-0.5C 299.5,4.5 299.5,9.5 299.5,14.5C 304.5,14.5 309.5,14.5 314.5,14.5C 314.817,18.7016 314.483,22.7016 313.5,26.5C 303.17,22.3326 293.17,17.6659 283.5,12.5C 284.485,8.36559 284.818,4.03225 284.5,-0.5 Z"/></g>
<g><path style="opacity:1" fill="#fefffe" d="M 299.5,-0.5 C 304.5,-0.5 309.5,-0.5 314.5,-0.5C 314.5,4.5 314.5,9.5 314.5,14.5C 309.5,14.5 304.5,14.5 299.5,14.5C 299.5,9.5 299.5,4.5 299.5,-0.5 Z"/></g>
<g><path style="opacity:1" fill="#edeeed" d="M 314.5,-0.5 C 319.5,-0.5 324.5,-0.5 329.5,-0.5C 329.5,4.5 329.5,9.5 329.5,14.5C 324.5,14.5 319.5,14.5 314.5,14.5C 314.5,9.5 314.5,4.5 314.5,-0.5 Z"/></g>
<g><path style="opacity:1" fill="#fefffe" d="M 329.5,-0.5 C 334.5,-0.5 339.5,-0.5 344.5,-0.5C 344.5,4.5 344.5,9.5 344.5,14.5C 339.5,14.5 334.5,14.5 329.5,14.5C 329.5,9.5 329.5,4.5 329.5,-0.5 Z"/></g>
<g><path style="opacity:1" fill="#edeeed" d="M 344.5,-0.5 C 349.5,-0.5 354.5,-0.5 359.5,-0.5C 359.5,4.5 359.5,9.5 359.5,14.5C 354.5,14.5 349.5,14.5 344.5,14.5C 344.5,9.5 344.5,4.5 344.5,-0.5 Z"/></g>
<g><path style="opacity:1" fill="#3c99d3" d="M 283.5,12.5 C 293.17,17.6659 303.17,22.3326 313.5,26.5C 324.796,32.8146 336.463,38.648 348.5,44C 352.313,46.1241 354.813,49.2908 356,53.5C 356.667,135.833 356.667,218.167 356,300.5C 354.616,304.758 352.116,308.258 348.5,311C 332.075,319.213 315.741,327.379 299.5,335.5C 288.768,340.365 278.102,345.531 267.5,351C 263.269,351.919 259.269,351.419 255.5,349.5C 255.541,347.255 256.375,346.588 258,347.5C 264.333,346.5 268,342.833 269,336.5C 269.824,309.428 269.657,282.428 268.5,255.5C 269.833,203.5 269.833,151.5 268.5,99.5C 268.505,73.6644 268.838,47.4978 269.5,21C 268.077,11.7919 262.744,7.62524 253.5,8.5C 256.228,6.36892 259.395,5.03559 263,4.5C 270.078,6.45213 276.911,9.1188 283.5,12.5 Z"/></g>
<g><path style="opacity:1" fill="#0d75b8" d="M 253.5,8.5 C 262.744,7.62524 268.077,11.7919 269.5,21C 268.838,47.4978 268.505,73.6644 268.5,99.5C 267.167,100.833 265.833,102.167 264.5,103.5C 249.858,114.148 235.524,125.148 221.5,136.5C 207.132,146.684 193.132,157.351 179.5,168.5C 175.021,171.243 170.688,174.243 166.5,177.5C 147.884,164.539 129.884,150.872 112.5,136.5C 135.167,115.5 157.833,94.5 180.5,73.5C 202.263,54.5752 223.596,35.0752 244.5,15C 247.397,12.59 250.397,10.4233 253.5,8.5 Z"/></g>
<g><path style="opacity:1" fill="#edeeed" d="M -0.5,14.5 C 4.5,14.5 9.5,14.5 14.5,14.5C 14.5,19.5 14.5,24.5 14.5,29.5C 9.5,29.5 4.5,29.5 -0.5,29.5C -0.5,24.5 -0.5,19.5 -0.5,14.5 Z"/></g>
<g><path style="opacity:1" fill="#fefffe" d="M 14.5,14.5 C 19.5,14.5 24.5,14.5 29.5,14.5C 29.5,19.5 29.5,24.5 29.5,29.5C 24.5,29.5 19.5,29.5 14.5,29.5C 14.5,24.5 14.5,19.5 14.5,14.5 Z"/></g>
<g><path style="opacity:1" fill="#edeeed" d="M 29.5,14.5 C 34.5,14.5 39.5,14.5 44.5,14.5C 44.5,19.5 44.5,24.5 44.5,29.5C 39.5,29.5 34.5,29.5 29.5,29.5C 29.5,24.5 29.5,19.5 29.5,14.5 Z"/></g>
<g><path style="opacity:1" fill="#fefffe" d="M 44.5,14.5 C 49.5,14.5 54.5,14.5 59.5,14.5C 59.5,19.5 59.5,24.5 59.5,29.5C 54.5,29.5 49.5,29.5 44.5,29.5C 44.5,24.5 44.5,19.5 44.5,14.5 Z"/></g>
<g><path style="opacity:1" fill="#edeeed" d="M 59.5,14.5 C 64.5,14.5 69.5,14.5 74.5,14.5C 74.5,19.5 74.5,24.5 74.5,29.5C 69.5,29.5 64.5,29.5 59.5,29.5C 59.5,24.5 59.5,19.5 59.5,14.5 Z"/></g>
<g><path style="opacity:1" fill="#fefffe" d="M 74.5,14.5 C 79.5,14.5 84.5,14.5 89.5,14.5C 89.5,19.5 89.5,24.5 89.5,29.5C 84.5,29.5 79.5,29.5 74.5,29.5C 74.5,24.5 74.5,19.5 74.5,14.5 Z"/></g>
<g><path style="opacity:1" fill="#edeeed" d="M 89.5,14.5 C 94.5,14.5 99.5,14.5 104.5,14.5C 104.5,19.5 104.5,24.5 104.5,29.5C 99.5,29.5 94.5,29.5 89.5,29.5C 89.5,24.5 89.5,19.5 89.5,14.5 Z"/></g>
<g><path style="opacity:1" fill="#fefffe" d="M 104.5,14.5 C 109.5,14.5 114.5,14.5 119.5,14.5C 119.5,19.5 119.5,24.5 119.5,29.5C 114.5,29.5 109.5,29.5 104.5,29.5C 104.5,24.5 104.5,19.5 104.5,14.5 Z"/></g>
<g><path style="opacity:1" fill="#edeeed" d="M 119.5,14.5 C 124.5,14.5 129.5,14.5 134.5,14.5C 134.5,19.5 134.5,24.5 134.5,29.5C 129.5,29.5 124.5,29.5 119.5,29.5C 119.5,24.5 119.5,19.5 119.5,14.5 Z"/></g>
<g><path style="opacity:1" fill="#fefffe" d="M 134.5,14.5 C 139.5,14.5 144.5,14.5 149.5,14.5C 149.5,19.5 149.5,24.5 149.5,29.5C 144.5,29.5 139.5,29.5 134.5,29.5C 134.5,24.5 134.5,19.5 134.5,14.5 Z"/></g>
<g><path style="opacity:1" fill="#edeeed" d="M 149.5,14.5 C 154.5,14.5 159.5,14.5 164.5,14.5C 164.5,19.5 164.5,24.5 164.5,29.5C 159.5,29.5 154.5,29.5 149.5,29.5C 149.5,24.5 149.5,19.5 149.5,14.5 Z"/></g>
<g><path style="opacity:1" fill="#fefffe" d="M 164.5,14.5 C 169.5,14.5 174.5,14.5 179.5,14.5C 179.5,19.5 179.5,24.5 179.5,29.5C 174.5,29.5 169.5,29.5 164.5,29.5C 164.5,24.5 164.5,19.5 164.5,14.5 Z"/></g>
<g><path style="opacity:1" fill="#edeeed" d="M 179.5,14.5 C 184.5,14.5 189.5,14.5 194.5,14.5C 194.5,19.5 194.5,24.5 194.5,29.5C 189.5,29.5 184.5,29.5 179.5,29.5C 179.5,24.5 179.5,19.5 179.5,14.5 Z"/></g>
<g><path style="opacity:1" fill="#fefffe" d="M 194.5,14.5 C 199.5,14.5 204.5,14.5 209.5,14.5C 209.5,19.5 209.5,24.5 209.5,29.5C 204.5,29.5 199.5,29.5 194.5,29.5C 194.5,24.5 194.5,19.5 194.5,14.5 Z"/></g>
<g><path style="opacity:1" fill="#edeeed" d="M 209.5,14.5 C 214.5,14.5 219.5,14.5 224.5,14.5C 224.5,19.5 224.5,24.5 224.5,29.5C 219.5,29.5 214.5,29.5 209.5,29.5C 209.5,24.5 209.5,19.5 209.5,14.5 Z"/></g>
<g><path style="opacity:1" fill="#fdfdfd" d="M 239.5,-0.5 C 254.5,-0.5 269.5,-0.5 284.5,-0.5C 284.818,4.03225 284.485,8.36559 283.5,12.5C 276.911,9.1188 270.078,6.45213 263,4.5C 259.395,5.03559 256.228,6.36892 253.5,8.5C 250.397,10.4233 247.397,12.59 244.5,15C 223.596,35.0752 202.263,54.5752 180.5,73.5C 179.514,69.03 179.181,64.3633 179.5,59.5C 184.5,59.5 189.5,59.5 194.5,59.5C 194.5,54.5 194.5,49.5 194.5,44.5C 199.5,44.5 204.5,44.5 209.5,44.5C 209.5,39.5 209.5,34.5 209.5,29.5C 214.5,29.5 219.5,29.5 224.5,29.5C 224.5,24.5 224.5,19.5 224.5,14.5C 229.5,14.5 234.5,14.5 239.5,14.5C 239.5,9.5 239.5,4.5 239.5,-0.5 Z"/></g>
<g><path style="opacity:1" fill="#fefffe" d="M -0.5,29.5 C 4.5,29.5 9.5,29.5 14.5,29.5C 14.5,34.5 14.5,39.5 14.5,44.5C 9.5,44.5 4.5,44.5 -0.5,44.5C -0.5,39.5 -0.5,34.5 -0.5,29.5 Z"/></g>
<g><path style="opacity:1" fill="#edeeed" d="M 14.5,29.5 C 19.5,29.5 24.5,29.5 29.5,29.5C 29.5,34.5 29.5,39.5 29.5,44.5C 24.5,44.5 19.5,44.5 14.5,44.5C 14.5,39.5 14.5,34.5 14.5,29.5 Z"/></g>
<g><path style="opacity:1" fill="#fefffe" d="M 29.5,29.5 C 34.5,29.5 39.5,29.5 44.5,29.5C 44.5,34.5 44.5,39.5 44.5,44.5C 39.5,44.5 34.5,44.5 29.5,44.5C 29.5,39.5 29.5,34.5 29.5,29.5 Z"/></g>
<g><path style="opacity:1" fill="#edeeed" d="M 44.5,29.5 C 49.5,29.5 54.5,29.5 59.5,29.5C 59.5,34.5 59.5,39.5 59.5,44.5C 54.5,44.5 49.5,44.5 44.5,44.5C 44.5,39.5 44.5,34.5 44.5,29.5 Z"/></g>
<g><path style="opacity:1" fill="#fefffe" d="M 59.5,29.5 C 64.5,29.5 69.5,29.5 74.5,29.5C 74.5,34.5 74.5,39.5 74.5,44.5C 69.5,44.5 64.5,44.5 59.5,44.5C 59.5,39.5 59.5,34.5 59.5,29.5 Z"/></g>
<g><path style="opacity:1" fill="#edeeed" d="M 74.5,29.5 C 79.5,29.5 84.5,29.5 89.5,29.5C 89.5,34.5 89.5,39.5 89.5,44.5C 84.5,44.5 79.5,44.5 74.5,44.5C 74.5,39.5 74.5,34.5 74.5,29.5 Z"/></g>
<g><path style="opacity:1" fill="#fefffe" d="M 89.5,29.5 C 94.5,29.5 99.5,29.5 104.5,29.5C 104.5,34.5 104.5,39.5 104.5,44.5C 99.5,44.5 94.5,44.5 89.5,44.5C 89.5,39.5 89.5,34.5 89.5,29.5 Z"/></g>
<g><path style="opacity:1" fill="#edeeed" d="M 104.5,29.5 C 109.5,29.5 114.5,29.5 119.5,29.5C 119.5,34.5 119.5,39.5 119.5,44.5C 114.5,44.5 109.5,44.5 104.5,44.5C 104.5,39.5 104.5,34.5 104.5,29.5 Z"/></g>
<g><path style="opacity:1" fill="#fefffe" d="M 119.5,29.5 C 124.5,29.5 129.5,29.5 134.5,29.5C 134.5,34.5 134.5,39.5 134.5,44.5C 129.5,44.5 124.5,44.5 119.5,44.5C 119.5,39.5 119.5,34.5 119.5,29.5 Z"/></g>
<g><path style="opacity:1" fill="#edeeed" d="M 134.5,29.5 C 139.5,29.5 144.5,29.5 149.5,29.5C 149.5,34.5 149.5,39.5 149.5,44.5C 144.5,44.5 139.5,44.5 134.5,44.5C 134.5,39.5 134.5,34.5 134.5,29.5 Z"/></g>
<g><path style="opacity:1" fill="#fefffe" d="M 149.5,29.5 C 154.5,29.5 159.5,29.5 164.5,29.5C 164.5,34.5 164.5,39.5 164.5,44.5C 159.5,44.5 154.5,44.5 149.5,44.5C 149.5,39.5 149.5,34.5 149.5,29.5 Z"/></g>
<g><path style="opacity:1" fill="#edeeed" d="M 164.5,29.5 C 169.5,29.5 174.5,29.5 179.5,29.5C 179.5,34.5 179.5,39.5 179.5,44.5C 174.5,44.5 169.5,44.5 164.5,44.5C 164.5,39.5 164.5,34.5 164.5,29.5 Z"/></g>
<g><path style="opacity:1" fill="#fefffe" d="M 179.5,29.5 C 184.5,29.5 189.5,29.5 194.5,29.5C 194.5,34.5 194.5,39.5 194.5,44.5C 189.5,44.5 184.5,44.5 179.5,44.5C 179.5,39.5 179.5,34.5 179.5,29.5 Z"/></g>
<g><path style="opacity:1" fill="#edeeed" d="M 194.5,29.5 C 199.5,29.5 204.5,29.5 209.5,29.5C 209.5,34.5 209.5,39.5 209.5,44.5C 204.5,44.5 199.5,44.5 194.5,44.5C 194.5,39.5 194.5,34.5 194.5,29.5 Z"/></g>
<g><path style="opacity:1" fill="#edeeed" d="M -0.5,44.5 C 4.5,44.5 9.5,44.5 14.5,44.5C 14.5,49.5 14.5,54.5 14.5,59.5C 9.5,59.5 4.5,59.5 -0.5,59.5C -0.5,54.5 -0.5,49.5 -0.5,44.5 Z"/></g>
<g><path style="opacity:1" fill="#fefffe" d="M 14.5,44.5 C 19.5,44.5 24.5,44.5 29.5,44.5C 29.5,49.5 29.5,54.5 29.5,59.5C 24.5,59.5 19.5,59.5 14.5,59.5C 14.5,54.5 14.5,49.5 14.5,44.5 Z"/></g>
<g><path style="opacity:1" fill="#edeeed" d="M 29.5,44.5 C 34.5,44.5 39.5,44.5 44.5,44.5C 44.5,49.5 44.5,54.5 44.5,59.5C 39.5,59.5 34.5,59.5 29.5,59.5C 29.5,54.5 29.5,49.5 29.5,44.5 Z"/></g>
<g><path style="opacity:1" fill="#fefffe" d="M 44.5,44.5 C 49.5,44.5 54.5,44.5 59.5,44.5C 59.5,49.5 59.5,54.5 59.5,59.5C 54.5,59.5 49.5,59.5 44.5,59.5C 44.5,54.5 44.5,49.5 44.5,44.5 Z"/></g>
<g><path style="opacity:1" fill="#edeeed" d="M 59.5,44.5 C 64.5,44.5 69.5,44.5 74.5,44.5C 74.5,49.5 74.5,54.5 74.5,59.5C 69.5,59.5 64.5,59.5 59.5,59.5C 59.5,54.5 59.5,49.5 59.5,44.5 Z"/></g>
<g><path style="opacity:1" fill="#fefffe" d="M 74.5,44.5 C 79.5,44.5 84.5,44.5 89.5,44.5C 89.5,49.5 89.5,54.5 89.5,59.5C 84.5,59.5 79.5,59.5 74.5,59.5C 74.5,54.5 74.5,49.5 74.5,44.5 Z"/></g>
<g><path style="opacity:1" fill="#edeeed" d="M 89.5,44.5 C 94.5,44.5 99.5,44.5 104.5,44.5C 104.5,49.5 104.5,54.5 104.5,59.5C 99.5,59.5 94.5,59.5 89.5,59.5C 89.5,54.5 89.5,49.5 89.5,44.5 Z"/></g>
<g><path style="opacity:1" fill="#fefffe" d="M 104.5,44.5 C 109.5,44.5 114.5,44.5 119.5,44.5C 119.5,49.5 119.5,54.5 119.5,59.5C 114.5,59.5 109.5,59.5 104.5,59.5C 104.5,54.5 104.5,49.5 104.5,44.5 Z"/></g>
<g><path style="opacity:1" fill="#edeeed" d="M 119.5,44.5 C 124.5,44.5 129.5,44.5 134.5,44.5C 134.5,49.5 134.5,54.5 134.5,59.5C 129.5,59.5 124.5,59.5 119.5,59.5C 119.5,54.5 119.5,49.5 119.5,44.5 Z"/></g>
<g><path style="opacity:1" fill="#fefffe" d="M 134.5,44.5 C 139.5,44.5 144.5,44.5 149.5,44.5C 149.5,49.5 149.5,54.5 149.5,59.5C 144.5,59.5 139.5,59.5 134.5,59.5C 134.5,54.5 134.5,49.5 134.5,44.5 Z"/></g>
<g><path style="opacity:1" fill="#edeeed" d="M 149.5,44.5 C 154.5,44.5 159.5,44.5 164.5,44.5C 164.5,49.5 164.5,54.5 164.5,59.5C 159.5,59.5 154.5,59.5 149.5,59.5C 149.5,54.5 149.5,49.5 149.5,44.5 Z"/></g>
<g><path style="opacity:1" fill="#fefffe" d="M 164.5,44.5 C 169.5,44.5 174.5,44.5 179.5,44.5C 179.5,49.5 179.5,54.5 179.5,59.5C 174.5,59.5 169.5,59.5 164.5,59.5C 164.5,54.5 164.5,49.5 164.5,44.5 Z"/></g>
<g><path style="opacity:1" fill="#edeeed" d="M 179.5,44.5 C 184.5,44.5 189.5,44.5 194.5,44.5C 194.5,49.5 194.5,54.5 194.5,59.5C 189.5,59.5 184.5,59.5 179.5,59.5C 179.5,54.5 179.5,49.5 179.5,44.5 Z"/></g>
<g><path style="opacity:1" fill="#f9f9f9" d="M 314.5,14.5 C 319.5,14.5 324.5,14.5 329.5,14.5C 334.5,14.5 339.5,14.5 344.5,14.5C 349.5,14.5 354.5,14.5 359.5,14.5C 359.5,119.5 359.5,224.5 359.5,329.5C 354.5,329.5 349.5,329.5 344.5,329.5C 344.5,334.5 344.5,339.5 344.5,344.5C 339.5,344.5 334.5,344.5 329.5,344.5C 329.5,339.5 329.5,334.5 329.5,329.5C 324.5,329.5 319.5,329.5 314.5,329.5C 314.5,334.5 314.5,339.5 314.5,344.5C 309.5,344.5 304.5,344.5 299.5,344.5C 299.5,341.5 299.5,338.5 299.5,335.5C 315.741,327.379 332.075,319.213 348.5,311C 352.116,308.258 354.616,304.758 356,300.5C 356.667,218.167 356.667,135.833 356,53.5C 354.813,49.2908 352.313,46.1241 348.5,44C 336.463,38.648 324.796,32.8146 313.5,26.5C 314.483,22.7016 314.817,18.7016 314.5,14.5 Z"/></g>
<g><path style="opacity:1" fill="#fefffe" d="M -0.5,59.5 C 4.5,59.5 9.5,59.5 14.5,59.5C 14.5,64.5 14.5,69.5 14.5,74.5C 9.5,74.5 4.5,74.5 -0.5,74.5C -0.5,69.5 -0.5,64.5 -0.5,59.5 Z"/></g>
<g><path style="opacity:1" fill="#edeeed" d="M 14.5,59.5 C 19.5,59.5 24.5,59.5 29.5,59.5C 29.5,64.5 29.5,69.5 29.5,74.5C 24.5,74.5 19.5,74.5 14.5,74.5C 14.5,69.5 14.5,64.5 14.5,59.5 Z"/></g>
<g><path style="opacity:1" fill="#fefffe" d="M 29.5,59.5 C 34.5,59.5 39.5,59.5 44.5,59.5C 44.5,64.5 44.5,69.5 44.5,74.5C 39.5,74.5 34.5,74.5 29.5,74.5C 29.5,69.5 29.5,64.5 29.5,59.5 Z"/></g>
<g><path style="opacity:1" fill="#edeeed" d="M 44.5,59.5 C 49.5,59.5 54.5,59.5 59.5,59.5C 59.5,64.5 59.5,69.5 59.5,74.5C 54.5,74.5 49.5,74.5 44.5,74.5C 44.5,69.5 44.5,64.5 44.5,59.5 Z"/></g>
<g><path style="opacity:1" fill="#fefffe" d="M 59.5,59.5 C 64.5,59.5 69.5,59.5 74.5,59.5C 74.5,64.5 74.5,69.5 74.5,74.5C 69.5,74.5 64.5,74.5 59.5,74.5C 59.5,69.5 59.5,64.5 59.5,59.5 Z"/></g>
<g><path style="opacity:1" fill="#edeeed" d="M 74.5,59.5 C 79.5,59.5 84.5,59.5 89.5,59.5C 89.5,64.5 89.5,69.5 89.5,74.5C 84.5,74.5 79.5,74.5 74.5,74.5C 74.5,69.5 74.5,64.5 74.5,59.5 Z"/></g>
<g><path style="opacity:1" fill="#fefffe" d="M 89.5,59.5 C 94.5,59.5 99.5,59.5 104.5,59.5C 104.5,64.5 104.5,69.5 104.5,74.5C 99.5,74.5 94.5,74.5 89.5,74.5C 89.5,69.5 89.5,64.5 89.5,59.5 Z"/></g>
<g><path style="opacity:1" fill="#edeeed" d="M 104.5,59.5 C 109.5,59.5 114.5,59.5 119.5,59.5C 119.5,64.5 119.5,69.5 119.5,74.5C 114.5,74.5 109.5,74.5 104.5,74.5C 104.5,69.5 104.5,64.5 104.5,59.5 Z"/></g>
<g><path style="opacity:1" fill="#fefffe" d="M 119.5,59.5 C 124.5,59.5 129.5,59.5 134.5,59.5C 134.5,64.5 134.5,69.5 134.5,74.5C 129.5,74.5 124.5,74.5 119.5,74.5C 119.5,69.5 119.5,64.5 119.5,59.5 Z"/></g>
<g><path style="opacity:1" fill="#edeeed" d="M 134.5,59.5 C 139.5,59.5 144.5,59.5 149.5,59.5C 149.5,64.5 149.5,69.5 149.5,74.5C 144.5,74.5 139.5,74.5 134.5,74.5C 134.5,69.5 134.5,64.5 134.5,59.5 Z"/></g>
<g><path style="opacity:1" fill="#edeeed" d="M -0.5,74.5 C 4.5,74.5 9.5,74.5 14.5,74.5C 14.5,79.5 14.5,84.5 14.5,89.5C 9.5,89.5 4.5,89.5 -0.5,89.5C -0.5,84.5 -0.5,79.5 -0.5,74.5 Z"/></g>
<g><path style="opacity:1" fill="#fefffe" d="M 14.5,74.5 C 19.5,74.5 24.5,74.5 29.5,74.5C 29.5,79.5 29.5,84.5 29.5,89.5C 24.5,89.5 19.5,89.5 14.5,89.5C 14.5,84.5 14.5,79.5 14.5,74.5 Z"/></g>
<g><path style="opacity:1" fill="#edeeed" d="M 59.5,74.5 C 64.5,74.5 69.5,74.5 74.5,74.5C 74.5,79.5 74.5,84.5 74.5,89.5C 69.5,89.5 64.5,89.5 59.5,89.5C 59.5,84.5 59.5,79.5 59.5,74.5 Z"/></g>
<g><path style="opacity:1" fill="#fefffe" d="M 74.5,74.5 C 79.5,74.5 84.5,74.5 89.5,74.5C 89.5,79.5 89.5,84.5 89.5,89.5C 84.5,89.5 79.5,89.5 74.5,89.5C 74.5,84.5 74.5,79.5 74.5,74.5 Z"/></g>
<g><path style="opacity:1" fill="#edeeed" d="M 89.5,74.5 C 94.5,74.5 99.5,74.5 104.5,74.5C 104.5,79.5 104.5,84.5 104.5,89.5C 99.5,89.5 94.5,89.5 89.5,89.5C 89.5,84.5 89.5,79.5 89.5,74.5 Z"/></g>
<g><path style="opacity:1" fill="#fefffe" d="M 104.5,74.5 C 109.5,74.5 114.5,74.5 119.5,74.5C 119.5,79.5 119.5,84.5 119.5,89.5C 114.5,89.5 109.5,89.5 104.5,89.5C 104.5,84.5 104.5,79.5 104.5,74.5 Z"/></g>
<g><path style="opacity:1" fill="#edeeed" d="M 119.5,74.5 C 124.5,74.5 129.5,74.5 134.5,74.5C 134.5,79.5 134.5,84.5 134.5,89.5C 129.5,89.5 124.5,89.5 119.5,89.5C 119.5,84.5 119.5,79.5 119.5,74.5 Z"/></g>
<g><path style="opacity:1" fill="#f5f5f5" d="M 149.5,59.5 C 154.5,59.5 159.5,59.5 164.5,59.5C 169.5,59.5 174.5,59.5 179.5,59.5C 179.181,64.3633 179.514,69.03 180.5,73.5C 157.833,94.5 135.167,115.5 112.5,136.5C 109.545,134.878 106.878,132.878 104.5,130.5C 104.5,126.833 104.5,123.167 104.5,119.5C 109.5,119.5 114.5,119.5 119.5,119.5C 119.5,114.5 119.5,109.5 119.5,104.5C 124.5,104.5 129.5,104.5 134.5,104.5C 134.5,99.5 134.5,94.5 134.5,89.5C 134.5,84.5 134.5,79.5 134.5,74.5C 139.5,74.5 144.5,74.5 149.5,74.5C 149.5,69.5 149.5,64.5 149.5,59.5 Z"/></g>
<g><path style="opacity:1" fill="#2589c9" d="M 40.5,86.5 C 43.7935,86.259 46.7935,87.0924 49.5,89C 67.5047,103.328 85.838,117.162 104.5,130.5C 106.878,132.878 109.545,134.878 112.5,136.5C 129.884,150.872 147.884,164.539 166.5,177.5C 196.133,200.65 226.133,223.317 256.5,245.5C 260.183,249.18 264.183,252.514 268.5,255.5C 269.657,282.428 269.824,309.428 269,336.5C 268,342.833 264.333,346.5 258,347.5C 256.375,346.588 255.541,347.255 255.5,349.5C 221.465,318.13 187.132,287.13 152.5,256.5C 140.063,245.233 127.729,233.733 115.5,222C 113.922,220.906 112.255,220.072 110.5,219.5C 110.611,218.883 110.944,218.383 111.5,218C 96.0422,205.21 81.2089,191.71 67,177.5C 66.6174,178.056 66.1174,178.389 65.5,178.5C 64.2427,175.573 62.2427,173.239 59.5,171.5C 42.2295,156.068 25.0629,140.401 8,124.5C 6.99136,122.975 6.49136,121.308 6.5,119.5C 7.24209,116.191 8.90875,113.357 11.5,111C 21.0644,102.593 30.7311,94.4265 40.5,86.5 Z"/></g>
<g><path style="opacity:1" fill="#fefffe" d="M -0.5,89.5 C 4.5,89.5 9.5,89.5 14.5,89.5C 14.5,94.5 14.5,99.5 14.5,104.5C 9.5,104.5 4.5,104.5 -0.5,104.5C -0.5,99.5 -0.5,94.5 -0.5,89.5 Z"/></g>
<g><path style="opacity:1" fill="#efefef" d="M 29.5,74.5 C 34.5,74.5 39.5,74.5 44.5,74.5C 44.5,78.1667 44.5,81.8333 44.5,85.5C 42.901,85.2322 41.5676,85.5655 40.5,86.5C 30.7311,94.4265 21.0644,102.593 11.5,111C 8.90875,113.357 7.24209,116.191 6.5,119.5C 4.16667,119.5 1.83333,119.5 -0.5,119.5C -0.5,114.5 -0.5,109.5 -0.5,104.5C 4.5,104.5 9.5,104.5 14.5,104.5C 14.5,99.5 14.5,94.5 14.5,89.5C 19.5,89.5 24.5,89.5 29.5,89.5C 29.5,84.5 29.5,79.5 29.5,74.5 Z"/></g>
<g><path style="opacity:1" fill="#edeeed" d="M 74.5,89.5 C 79.5,89.5 84.5,89.5 89.5,89.5C 89.5,94.5 89.5,99.5 89.5,104.5C 84.5,104.5 79.5,104.5 74.5,104.5C 74.5,99.5 74.5,94.5 74.5,89.5 Z"/></g>
<g><path style="opacity:1" fill="#fefffe" d="M 89.5,89.5 C 94.5,89.5 99.5,89.5 104.5,89.5C 104.5,94.5 104.5,99.5 104.5,104.5C 99.5,104.5 94.5,104.5 89.5,104.5C 89.5,99.5 89.5,94.5 89.5,89.5 Z"/></g>
<g><path style="opacity:1" fill="#edeeed" d="M 104.5,89.5 C 109.5,89.5 114.5,89.5 119.5,89.5C 119.5,94.5 119.5,99.5 119.5,104.5C 114.5,104.5 109.5,104.5 104.5,104.5C 104.5,99.5 104.5,94.5 104.5,89.5 Z"/></g>
<g><path style="opacity:1" fill="#fefffe" d="M 119.5,89.5 C 124.5,89.5 129.5,89.5 134.5,89.5C 134.5,94.5 134.5,99.5 134.5,104.5C 129.5,104.5 124.5,104.5 119.5,104.5C 119.5,99.5 119.5,94.5 119.5,89.5 Z"/></g>
<g><path style="opacity:1" fill="#eeeeee" d="M 268.5,99.5 C 269.833,151.5 269.833,203.5 268.5,255.5C 264.183,252.514 260.183,249.18 256.5,245.5C 254.919,243.858 254.253,241.858 254.5,239.5C 259.167,239.5 263.833,239.5 268.5,239.5C 268.5,234.5 268.5,229.5 268.5,224.5C 263.833,224.5 259.167,224.5 254.5,224.5C 254.5,219.5 254.5,214.5 254.5,209.5C 259.167,209.5 263.833,209.5 268.5,209.5C 268.5,204.5 268.5,199.5 268.5,194.5C 263.833,194.5 259.167,194.5 254.5,194.5C 254.5,189.5 254.5,184.5 254.5,179.5C 259.167,179.5 263.833,179.5 268.5,179.5C 268.5,174.5 268.5,169.5 268.5,164.5C 263.833,164.5 259.167,164.5 254.5,164.5C 254.5,159.5 254.5,154.5 254.5,149.5C 259.167,149.5 263.833,149.5 268.5,149.5C 268.5,144.5 268.5,139.5 268.5,134.5C 263.833,134.5 259.167,134.5 254.5,134.5C 254.5,129.5 254.5,124.5 254.5,119.5C 259.167,119.5 263.833,119.5 268.5,119.5C 268.5,114.5 268.5,109.5 268.5,104.5C 266.901,104.768 265.568,104.434 264.5,103.5C 265.833,102.167 267.167,100.833 268.5,99.5 Z"/></g>
<g><path style="opacity:1" fill="#fdfdfd" d="M 44.5,74.5 C 49.5,74.5 54.5,74.5 59.5,74.5C 59.5,79.5 59.5,84.5 59.5,89.5C 64.5,89.5 69.5,89.5 74.5,89.5C 74.5,94.5 74.5,99.5 74.5,104.5C 79.5,104.5 84.5,104.5 89.5,104.5C 89.3342,109.179 89.5008,113.845 90,118.5C 94.7367,119.469 99.57,119.803 104.5,119.5C 104.5,123.167 104.5,126.833 104.5,130.5C 85.838,117.162 67.5047,103.328 49.5,89C 46.7935,87.0924 43.7935,86.259 40.5,86.5C 41.5676,85.5655 42.901,85.2322 44.5,85.5C 44.5,81.8333 44.5,78.1667 44.5,74.5 Z"/></g>
<g><path style="opacity:1" fill="#edeeed" d="M 89.5,104.5 C 94.5,104.5 99.5,104.5 104.5,104.5C 104.5,109.5 104.5,114.5 104.5,119.5C 99.57,119.803 94.7367,119.469 90,118.5C 89.5008,113.845 89.3342,109.179 89.5,104.5 Z"/></g>
<g><path style="opacity:1" fill="#fefffe" d="M 104.5,104.5 C 109.5,104.5 114.5,104.5 119.5,104.5C 119.5,109.5 119.5,114.5 119.5,119.5C 114.5,119.5 109.5,119.5 104.5,119.5C 104.5,114.5 104.5,109.5 104.5,104.5 Z"/></g>
<g><path style="opacity:1" fill="#fcfcfc" d="M 264.5,103.5 C 265.568,104.434 266.901,104.768 268.5,104.5C 268.5,109.5 268.5,114.5 268.5,119.5C 263.833,119.5 259.167,119.5 254.5,119.5C 254.5,124.5 254.5,129.5 254.5,134.5C 249.5,134.5 244.5,134.5 239.5,134.5C 239.5,139.5 239.5,144.5 239.5,149.5C 234.5,149.5 229.5,149.5 224.5,149.5C 224.666,144.821 224.499,140.155 224,135.5C 223.329,136.252 222.496,136.586 221.5,136.5C 235.524,125.148 249.858,114.148 264.5,103.5 Z"/></g>
<g><path style="opacity:1" fill="#fdfdfd" d="M -0.5,119.5 C 1.83333,119.5 4.16667,119.5 6.5,119.5C 6.49136,121.308 6.99136,122.975 8,124.5C 25.0629,140.401 42.2295,156.068 59.5,171.5C 59.5,174.167 59.5,176.833 59.5,179.5C 54.5,179.5 49.5,179.5 44.5,179.5C 44.5,174.5 44.5,169.5 44.5,164.5C 39.5,164.5 34.5,164.5 29.5,164.5C 29.5,159.5 29.5,154.5 29.5,149.5C 24.5,149.5 19.5,149.5 14.5,149.5C 14.5,144.5 14.5,139.5 14.5,134.5C 9.5,134.5 4.5,134.5 -0.5,134.5C -0.5,129.5 -0.5,124.5 -0.5,119.5 Z"/></g>
<g><path style="opacity:1" fill="#edeeed" d="M -0.5,134.5 C 4.5,134.5 9.5,134.5 14.5,134.5C 14.5,139.5 14.5,144.5 14.5,149.5C 9.5,149.5 4.5,149.5 -0.5,149.5C -0.5,144.5 -0.5,139.5 -0.5,134.5 Z"/></g>
<g><path style="opacity:1" fill="#edeeed" d="M 254.5,134.5 C 254.5,139.5 254.5,144.5 254.5,149.5C 249.5,149.5 244.5,149.5 239.5,149.5C 239.5,144.5 239.5,139.5 239.5,134.5C 244.5,134.5 249.5,134.5 254.5,134.5 Z"/></g>
<g><path style="opacity:1" fill="#fefffe" d="M 254.5,134.5 C 259.167,134.5 263.833,134.5 268.5,134.5C 268.5,139.5 268.5,144.5 268.5,149.5C 263.833,149.5 259.167,149.5 254.5,149.5C 254.5,144.5 254.5,139.5 254.5,134.5 Z"/></g>
<g><path style="opacity:1" fill="#fefffe" d="M -0.5,149.5 C 4.5,149.5 9.5,149.5 14.5,149.5C 14.5,154.5 14.5,159.5 14.5,164.5C 9.5,164.5 4.5,164.5 -0.5,164.5C -0.5,159.5 -0.5,154.5 -0.5,149.5 Z"/></g>
<g><path style="opacity:1" fill="#edeeed" d="M 14.5,149.5 C 19.5,149.5 24.5,149.5 29.5,149.5C 29.5,154.5 29.5,159.5 29.5,164.5C 24.5,164.5 19.5,164.5 14.5,164.5C 14.5,159.5 14.5,154.5 14.5,149.5 Z"/></g>
<g><path style="opacity:1" fill="#f0f0f0" d="M 224.5,149.5 C 219.5,149.5 214.5,149.5 209.5,149.5C 209.5,154.5 209.5,159.5 209.5,164.5C 204.5,164.5 199.5,164.5 194.5,164.5C 194.5,169.5 194.5,174.5 194.5,179.5C 189.5,179.5 184.5,179.5 179.5,179.5C 179.5,175.833 179.5,172.167 179.5,168.5C 193.132,157.351 207.132,146.684 221.5,136.5C 222.496,136.586 223.329,136.252 224,135.5C 224.499,140.155 224.666,144.821 224.5,149.5 Z"/></g>
<g><path style="opacity:1" fill="#fefffe" d="M 224.5,149.5 C 224.5,154.5 224.5,159.5 224.5,164.5C 219.5,164.5 214.5,164.5 209.5,164.5C 209.5,159.5 209.5,154.5 209.5,149.5C 214.5,149.5 219.5,149.5 224.5,149.5 Z"/></g>
<g><path style="opacity:1" fill="#edeeed" d="M 224.5,149.5 C 229.5,149.5 234.5,149.5 239.5,149.5C 239.5,154.5 239.5,159.5 239.5,164.5C 234.5,164.5 229.5,164.5 224.5,164.5C 224.5,159.5 224.5,154.5 224.5,149.5 Z"/></g>
<g><path style="opacity:1" fill="#fefffe" d="M 239.5,149.5 C 244.5,149.5 249.5,149.5 254.5,149.5C 254.5,154.5 254.5,159.5 254.5,164.5C 249.5,164.5 244.5,164.5 239.5,164.5C 239.5,159.5 239.5,154.5 239.5,149.5 Z"/></g>
<g><path style="opacity:1" fill="#edeeed" d="M -0.5,164.5 C 4.5,164.5 9.5,164.5 14.5,164.5C 14.5,169.5 14.5,174.5 14.5,179.5C 9.5,179.5 4.5,179.5 -0.5,179.5C -0.5,174.5 -0.5,169.5 -0.5,164.5 Z"/></g>
<g><path style="opacity:1" fill="#fefffe" d="M 14.5,164.5 C 19.5,164.5 24.5,164.5 29.5,164.5C 29.5,169.5 29.5,174.5 29.5,179.5C 24.5,179.5 19.5,179.5 14.5,179.5C 14.5,174.5 14.5,169.5 14.5,164.5 Z"/></g>
<g><path style="opacity:1" fill="#edeeed" d="M 29.5,164.5 C 34.5,164.5 39.5,164.5 44.5,164.5C 44.5,169.5 44.5,174.5 44.5,179.5C 39.5,179.5 34.5,179.5 29.5,179.5C 29.5,174.5 29.5,169.5 29.5,164.5 Z"/></g>
<g><path style="opacity:1" fill="#fefffe" d="M 209.5,164.5 C 209.5,169.5 209.5,174.5 209.5,179.5C 204.5,179.5 199.5,179.5 194.5,179.5C 194.5,174.5 194.5,169.5 194.5,164.5C 199.5,164.5 204.5,164.5 209.5,164.5 Z"/></g>
<g><path style="opacity:1" fill="#edeeed" d="M 209.5,164.5 C 214.5,164.5 219.5,164.5 224.5,164.5C 224.5,169.5 224.5,174.5 224.5,179.5C 219.5,179.5 214.5,179.5 209.5,179.5C 209.5,174.5 209.5,169.5 209.5,164.5 Z"/></g>
<g><path style="opacity:1" fill="#fefffe" d="M 224.5,164.5 C 229.5,164.5 234.5,164.5 239.5,164.5C 239.5,169.5 239.5,174.5 239.5,179.5C 234.5,179.5 229.5,179.5 224.5,179.5C 224.5,174.5 224.5,169.5 224.5,164.5 Z"/></g>
<g><path style="opacity:1" fill="#edeeed" d="M 239.5,164.5 C 244.5,164.5 249.5,164.5 254.5,164.5C 254.5,169.5 254.5,174.5 254.5,179.5C 249.5,179.5 244.5,179.5 239.5,179.5C 239.5,174.5 239.5,169.5 239.5,164.5 Z"/></g>
<g><path style="opacity:1" fill="#fefffe" d="M 254.5,164.5 C 259.167,164.5 263.833,164.5 268.5,164.5C 268.5,169.5 268.5,174.5 268.5,179.5C 263.833,179.5 259.167,179.5 254.5,179.5C 254.5,174.5 254.5,169.5 254.5,164.5 Z"/></g>
<g><path style="opacity:1" fill="#0f76b8" d="M 110.5,219.5 C 108.5,221.167 106.5,222.833 104.5,224.5C 89.5237,235.482 74.857,246.815 60.5,258.5C 56.0669,261.084 51.7336,263.918 47.5,267C 44.5,269 41.5,269 38.5,267C 28.3684,258.537 18.5351,249.704 9,240.5C 5.7935,234.817 6.96016,229.984 12.5,226C 30.3356,210.33 48.0023,194.496 65.5,178.5C 66.1174,178.389 66.6174,178.056 67,177.5C 81.2089,191.71 96.0422,205.21 111.5,218C 110.944,218.383 110.611,218.883 110.5,219.5 Z"/></g>
<g><path style="opacity:1" fill="#fefffe" d="M -0.5,179.5 C 4.5,179.5 9.5,179.5 14.5,179.5C 14.5,184.5 14.5,189.5 14.5,194.5C 9.5,194.5 4.5,194.5 -0.5,194.5C -0.5,189.5 -0.5,184.5 -0.5,179.5 Z"/></g>
<g><path style="opacity:1" fill="#edeeed" d="M 14.5,179.5 C 19.5,179.5 24.5,179.5 29.5,179.5C 29.5,184.5 29.5,189.5 29.5,194.5C 24.5,194.5 19.5,194.5 14.5,194.5C 14.5,189.5 14.5,184.5 14.5,179.5 Z"/></g>
<g><path style="opacity:1" fill="#fefffe" d="M 29.5,179.5 C 34.5,179.5 39.5,179.5 44.5,179.5C 44.5,184.5 44.5,189.5 44.5,194.5C 39.5,194.5 34.5,194.5 29.5,194.5C 29.5,189.5 29.5,184.5 29.5,179.5 Z"/></g>
<g><path style="opacity:1" fill="#edeeed" d="M 194.5,179.5 C 199.5,179.5 204.5,179.5 209.5,179.5C 209.5,184.5 209.5,189.5 209.5,194.5C 204.5,194.5 199.5,194.5 194.5,194.5C 194.5,189.5 194.5,184.5 194.5,179.5 Z"/></g>
<g><path style="opacity:1" fill="#fefffe" d="M 209.5,179.5 C 214.5,179.5 219.5,179.5 224.5,179.5C 224.5,184.5 224.5,189.5 224.5,194.5C 219.5,194.5 214.5,194.5 209.5,194.5C 209.5,189.5 209.5,184.5 209.5,179.5 Z"/></g>
<g><path style="opacity:1" fill="#edeeed" d="M 224.5,179.5 C 229.5,179.5 234.5,179.5 239.5,179.5C 239.5,184.5 239.5,189.5 239.5,194.5C 234.5,194.5 229.5,194.5 224.5,194.5C 224.5,189.5 224.5,184.5 224.5,179.5 Z"/></g>
<g><path style="opacity:1" fill="#fefffe" d="M 239.5,179.5 C 244.5,179.5 249.5,179.5 254.5,179.5C 254.5,184.5 254.5,189.5 254.5,194.5C 249.5,194.5 244.5,194.5 239.5,194.5C 239.5,189.5 239.5,184.5 239.5,179.5 Z"/></g>
<g><path style="opacity:1" fill="#fefffe" d="M 254.5,194.5 C 259.167,194.5 263.833,194.5 268.5,194.5C 268.5,199.5 268.5,204.5 268.5,209.5C 263.833,209.5 259.167,209.5 254.5,209.5C 254.5,204.5 254.5,199.5 254.5,194.5 Z"/></g>
<g><path style="opacity:1" fill="#f7f7f7" d="M 59.5,171.5 C 62.2427,173.239 64.2427,175.573 65.5,178.5C 48.0023,194.496 30.3356,210.33 12.5,226C 6.96016,229.984 5.7935,234.817 9,240.5C 18.5351,249.704 28.3684,258.537 38.5,267C 41.5,269 44.5,269 47.5,267C 51.7336,263.918 56.0669,261.084 60.5,258.5C 59.5773,262.064 59.244,265.731 59.5,269.5C 54.5,269.5 49.5,269.5 44.5,269.5C 44.5,274.5 44.5,279.5 44.5,284.5C 39.5,284.5 34.5,284.5 29.5,284.5C 29.5,279.5 29.5,274.5 29.5,269.5C 24.5,269.5 19.5,269.5 14.5,269.5C 14.5,264.5 14.5,259.5 14.5,254.5C 9.5,254.5 4.5,254.5 -0.5,254.5C -0.5,234.5 -0.5,214.5 -0.5,194.5C 4.5,194.5 9.5,194.5 14.5,194.5C 19.5,194.5 24.5,194.5 29.5,194.5C 34.5,194.5 39.5,194.5 44.5,194.5C 44.5,189.5 44.5,184.5 44.5,179.5C 49.5,179.5 54.5,179.5 59.5,179.5C 59.5,176.833 59.5,174.167 59.5,171.5 Z"/></g>
<g><path style="opacity:1" fill="#f8f8f8" d="M 179.5,168.5 C 179.5,172.167 179.5,175.833 179.5,179.5C 184.5,179.5 189.5,179.5 194.5,179.5C 194.5,184.5 194.5,189.5 194.5,194.5C 199.5,194.5 204.5,194.5 209.5,194.5C 209.5,199.5 209.5,204.5 209.5,209.5C 214.5,209.5 219.5,209.5 224.5,209.5C 224.5,204.5 224.5,199.5 224.5,194.5C 229.5,194.5 234.5,194.5 239.5,194.5C 244.5,194.5 249.5,194.5 254.5,194.5C 254.5,199.5 254.5,204.5 254.5,209.5C 254.5,214.5 254.5,219.5 254.5,224.5C 259.167,224.5 263.833,224.5 268.5,224.5C 268.5,229.5 268.5,234.5 268.5,239.5C 263.833,239.5 259.167,239.5 254.5,239.5C 254.253,241.858 254.919,243.858 256.5,245.5C 226.133,223.317 196.133,200.65 166.5,177.5C 170.688,174.243 175.021,171.243 179.5,168.5 Z"/></g>
<g><path style="opacity:1" fill="#edeeed" d="M 209.5,194.5 C 214.5,194.5 219.5,194.5 224.5,194.5C 224.5,199.5 224.5,204.5 224.5,209.5C 219.5,209.5 214.5,209.5 209.5,209.5C 209.5,204.5 209.5,199.5 209.5,194.5 Z"/></g>
<g><path style="opacity:1" fill="#fcfcfc" d="M 110.5,219.5 C 112.255,220.072 113.922,220.906 115.5,222C 127.729,233.733 140.063,245.233 152.5,256.5C 151.671,257.332 150.838,256.999 150,255.5C 149.501,260.155 149.334,264.821 149.5,269.5C 144.5,269.5 139.5,269.5 134.5,269.5C 134.5,264.5 134.5,259.5 134.5,254.5C 129.5,254.5 124.5,254.5 119.5,254.5C 119.5,249.5 119.5,244.5 119.5,239.5C 114.5,239.5 109.5,239.5 104.5,239.5C 104.5,234.5 104.5,229.5 104.5,224.5C 106.5,222.833 108.5,221.167 110.5,219.5 Z"/></g>
<g><path style="opacity:1" fill="#f0f0f0" d="M 104.5,224.5 C 104.5,229.5 104.5,234.5 104.5,239.5C 99.5,239.5 94.5,239.5 89.5,239.5C 89.5,244.5 89.5,249.5 89.5,254.5C 84.5,254.5 79.5,254.5 74.5,254.5C 74.5,259.5 74.5,264.5 74.5,269.5C 69.5,269.5 64.5,269.5 59.5,269.5C 59.244,265.731 59.5773,262.064 60.5,258.5C 74.857,246.815 89.5237,235.482 104.5,224.5 Z"/></g>
<g><path style="opacity:1" fill="#fefffe" d="M 104.5,239.5 C 104.5,244.5 104.5,249.5 104.5,254.5C 99.5,254.5 94.5,254.5 89.5,254.5C 89.5,249.5 89.5,244.5 89.5,239.5C 94.5,239.5 99.5,239.5 104.5,239.5 Z"/></g>
<g><path style="opacity:1" fill="#edeeed" d="M 104.5,239.5 C 109.5,239.5 114.5,239.5 119.5,239.5C 119.5,244.5 119.5,249.5 119.5,254.5C 114.5,254.5 109.5,254.5 104.5,254.5C 104.5,249.5 104.5,244.5 104.5,239.5 Z"/></g>
<g><path style="opacity:1" fill="#edeeed" d="M -0.5,254.5 C 4.5,254.5 9.5,254.5 14.5,254.5C 14.5,259.5 14.5,264.5 14.5,269.5C 9.5,269.5 4.5,269.5 -0.5,269.5C -0.5,264.5 -0.5,259.5 -0.5,254.5 Z"/></g>
<g><path style="opacity:1" fill="#fefffe" d="M 89.5,254.5 C 89.5,259.5 89.5,264.5 89.5,269.5C 84.5,269.5 79.5,269.5 74.5,269.5C 74.5,264.5 74.5,259.5 74.5,254.5C 79.5,254.5 84.5,254.5 89.5,254.5 Z"/></g>
<g><path style="opacity:1" fill="#edeeed" d="M 89.5,254.5 C 94.5,254.5 99.5,254.5 104.5,254.5C 104.5,259.5 104.5,264.5 104.5,269.5C 99.5,269.5 94.5,269.5 89.5,269.5C 89.5,264.5 89.5,259.5 89.5,254.5 Z"/></g>
<g><path style="opacity:1" fill="#fefffe" d="M 104.5,254.5 C 109.5,254.5 114.5,254.5 119.5,254.5C 119.5,259.5 119.5,264.5 119.5,269.5C 114.5,269.5 109.5,269.5 104.5,269.5C 104.5,264.5 104.5,259.5 104.5,254.5 Z"/></g>
<g><path style="opacity:1" fill="#edeeed" d="M 119.5,254.5 C 124.5,254.5 129.5,254.5 134.5,254.5C 134.5,259.5 134.5,264.5 134.5,269.5C 129.5,269.5 124.5,269.5 119.5,269.5C 119.5,264.5 119.5,259.5 119.5,254.5 Z"/></g>
<g><path style="opacity:1" fill="#fefffe" d="M -0.5,269.5 C 4.5,269.5 9.5,269.5 14.5,269.5C 14.5,274.5 14.5,279.5 14.5,284.5C 9.5,284.5 4.5,284.5 -0.5,284.5C -0.5,279.5 -0.5,274.5 -0.5,269.5 Z"/></g>
<g><path style="opacity:1" fill="#edeeed" d="M 14.5,269.5 C 19.5,269.5 24.5,269.5 29.5,269.5C 29.5,274.5 29.5,279.5 29.5,284.5C 24.5,284.5 19.5,284.5 14.5,284.5C 14.5,279.5 14.5,274.5 14.5,269.5 Z"/></g>
<g><path style="opacity:1" fill="#edeeed" d="M 59.5,269.5 C 59.5,274.5 59.5,279.5 59.5,284.5C 54.5,284.5 49.5,284.5 44.5,284.5C 44.5,279.5 44.5,274.5 44.5,269.5C 49.5,269.5 54.5,269.5 59.5,269.5 Z"/></g>
<g><path style="opacity:1" fill="#fefffe" d="M 59.5,269.5 C 64.5,269.5 69.5,269.5 74.5,269.5C 74.5,274.5 74.5,279.5 74.5,284.5C 69.5,284.5 64.5,284.5 59.5,284.5C 59.5,279.5 59.5,274.5 59.5,269.5 Z"/></g>
<g><path style="opacity:1" fill="#edeeed" d="M 74.5,269.5 C 79.5,269.5 84.5,269.5 89.5,269.5C 89.5,274.5 89.5,279.5 89.5,284.5C 84.5,284.5 79.5,284.5 74.5,284.5C 74.5,279.5 74.5,274.5 74.5,269.5 Z"/></g>
<g><path style="opacity:1" fill="#fefffe" d="M 89.5,269.5 C 94.5,269.5 99.5,269.5 104.5,269.5C 104.5,274.5 104.5,279.5 104.5,284.5C 99.5,284.5 94.5,284.5 89.5,284.5C 89.5,279.5 89.5,274.5 89.5,269.5 Z"/></g>
<g><path style="opacity:1" fill="#edeeed" d="M 104.5,269.5 C 109.5,269.5 114.5,269.5 119.5,269.5C 119.5,274.5 119.5,279.5 119.5,284.5C 114.5,284.5 109.5,284.5 104.5,284.5C 104.5,279.5 104.5,274.5 104.5,269.5 Z"/></g>
<g><path style="opacity:1" fill="#fefffe" d="M 119.5,269.5 C 124.5,269.5 129.5,269.5 134.5,269.5C 134.5,274.5 134.5,279.5 134.5,284.5C 129.5,284.5 124.5,284.5 119.5,284.5C 119.5,279.5 119.5,274.5 119.5,269.5 Z"/></g>
<g><path style="opacity:1" fill="#edeeed" d="M 134.5,269.5 C 139.5,269.5 144.5,269.5 149.5,269.5C 149.5,274.5 149.5,279.5 149.5,284.5C 144.5,284.5 139.5,284.5 134.5,284.5C 134.5,279.5 134.5,274.5 134.5,269.5 Z"/></g>
<g><path style="opacity:1" fill="#fefffe" d="M 149.5,269.5 C 154.5,269.5 159.5,269.5 164.5,269.5C 164.5,274.5 164.5,279.5 164.5,284.5C 159.5,284.5 154.5,284.5 149.5,284.5C 149.5,279.5 149.5,274.5 149.5,269.5 Z"/></g>
<g><path style="opacity:1" fill="#edeeed" d="M -0.5,284.5 C 4.5,284.5 9.5,284.5 14.5,284.5C 14.5,289.5 14.5,294.5 14.5,299.5C 9.5,299.5 4.5,299.5 -0.5,299.5C -0.5,294.5 -0.5,289.5 -0.5,284.5 Z"/></g>
<g><path style="opacity:1" fill="#fefffe" d="M 14.5,284.5 C 19.5,284.5 24.5,284.5 29.5,284.5C 29.5,289.5 29.5,294.5 29.5,299.5C 24.5,299.5 19.5,299.5 14.5,299.5C 14.5,294.5 14.5,289.5 14.5,284.5 Z"/></g>
<g><path style="opacity:1" fill="#edeeed" d="M 29.5,284.5 C 34.5,284.5 39.5,284.5 44.5,284.5C 44.5,289.5 44.5,294.5 44.5,299.5C 39.5,299.5 34.5,299.5 29.5,299.5C 29.5,294.5 29.5,289.5 29.5,284.5 Z"/></g>
<g><path style="opacity:1" fill="#fefffe" d="M 44.5,284.5 C 49.5,284.5 54.5,284.5 59.5,284.5C 59.5,289.5 59.5,294.5 59.5,299.5C 54.5,299.5 49.5,299.5 44.5,299.5C 44.5,294.5 44.5,289.5 44.5,284.5 Z"/></g>
<g><path style="opacity:1" fill="#edeeed" d="M 59.5,284.5 C 64.5,284.5 69.5,284.5 74.5,284.5C 74.5,289.5 74.5,294.5 74.5,299.5C 69.5,299.5 64.5,299.5 59.5,299.5C 59.5,294.5 59.5,289.5 59.5,284.5 Z"/></g>
<g><path style="opacity:1" fill="#fefffe" d="M 74.5,284.5 C 79.5,284.5 84.5,284.5 89.5,284.5C 89.5,289.5 89.5,294.5 89.5,299.5C 84.5,299.5 79.5,299.5 74.5,299.5C 74.5,294.5 74.5,289.5 74.5,284.5 Z"/></g>
<g><path style="opacity:1" fill="#edeeed" d="M 89.5,284.5 C 94.5,284.5 99.5,284.5 104.5,284.5C 104.5,289.5 104.5,294.5 104.5,299.5C 99.5,299.5 94.5,299.5 89.5,299.5C 89.5,294.5 89.5,289.5 89.5,284.5 Z"/></g>
<g><path style="opacity:1" fill="#fefffe" d="M 104.5,284.5 C 109.5,284.5 114.5,284.5 119.5,284.5C 119.5,289.5 119.5,294.5 119.5,299.5C 114.5,299.5 109.5,299.5 104.5,299.5C 104.5,294.5 104.5,289.5 104.5,284.5 Z"/></g>
<g><path style="opacity:1" fill="#edeeed" d="M 119.5,284.5 C 124.5,284.5 129.5,284.5 134.5,284.5C 134.5,289.5 134.5,294.5 134.5,299.5C 129.5,299.5 124.5,299.5 119.5,299.5C 119.5,294.5 119.5,289.5 119.5,284.5 Z"/></g>
<g><path style="opacity:1" fill="#fefffe" d="M 134.5,284.5 C 139.5,284.5 144.5,284.5 149.5,284.5C 149.5,289.5 149.5,294.5 149.5,299.5C 144.5,299.5 139.5,299.5 134.5,299.5C 134.5,294.5 134.5,289.5 134.5,284.5 Z"/></g>
<g><path style="opacity:1" fill="#edeeed" d="M 149.5,284.5 C 154.5,284.5 159.5,284.5 164.5,284.5C 164.5,289.5 164.5,294.5 164.5,299.5C 159.5,299.5 154.5,299.5 149.5,299.5C 149.5,294.5 149.5,289.5 149.5,284.5 Z"/></g>
<g><path style="opacity:1" fill="#fefffe" d="M 164.5,284.5 C 169.5,284.5 174.5,284.5 179.5,284.5C 179.5,289.5 179.5,294.5 179.5,299.5C 174.5,299.5 169.5,299.5 164.5,299.5C 164.5,294.5 164.5,289.5 164.5,284.5 Z"/></g>
<g><path style="opacity:1" fill="#fefffe" d="M -0.5,299.5 C 4.5,299.5 9.5,299.5 14.5,299.5C 14.5,304.5 14.5,309.5 14.5,314.5C 9.5,314.5 4.5,314.5 -0.5,314.5C -0.5,309.5 -0.5,304.5 -0.5,299.5 Z"/></g>
<g><path style="opacity:1" fill="#edeeed" d="M 14.5,299.5 C 19.5,299.5 24.5,299.5 29.5,299.5C 29.5,304.5 29.5,309.5 29.5,314.5C 24.5,314.5 19.5,314.5 14.5,314.5C 14.5,309.5 14.5,304.5 14.5,299.5 Z"/></g>
<g><path style="opacity:1" fill="#fefffe" d="M 29.5,299.5 C 34.5,299.5 39.5,299.5 44.5,299.5C 44.5,304.5 44.5,309.5 44.5,314.5C 39.5,314.5 34.5,314.5 29.5,314.5C 29.5,309.5 29.5,304.5 29.5,299.5 Z"/></g>
<g><path style="opacity:1" fill="#edeeed" d="M 44.5,299.5 C 49.5,299.5 54.5,299.5 59.5,299.5C 59.5,304.5 59.5,309.5 59.5,314.5C 54.5,314.5 49.5,314.5 44.5,314.5C 44.5,309.5 44.5,304.5 44.5,299.5 Z"/></g>
<g><path style="opacity:1" fill="#fefffe" d="M 59.5,299.5 C 64.5,299.5 69.5,299.5 74.5,299.5C 74.5,304.5 74.5,309.5 74.5,314.5C 69.5,314.5 64.5,314.5 59.5,314.5C 59.5,309.5 59.5,304.5 59.5,299.5 Z"/></g>
<g><path style="opacity:1" fill="#edeeed" d="M 74.5,299.5 C 79.5,299.5 84.5,299.5 89.5,299.5C 89.5,304.5 89.5,309.5 89.5,314.5C 84.5,314.5 79.5,314.5 74.5,314.5C 74.5,309.5 74.5,304.5 74.5,299.5 Z"/></g>
<g><path style="opacity:1" fill="#fefffe" d="M 89.5,299.5 C 94.5,299.5 99.5,299.5 104.5,299.5C 104.5,304.5 104.5,309.5 104.5,314.5C 99.5,314.5 94.5,314.5 89.5,314.5C 89.5,309.5 89.5,304.5 89.5,299.5 Z"/></g>
<g><path style="opacity:1" fill="#edeeed" d="M 104.5,299.5 C 109.5,299.5 114.5,299.5 119.5,299.5C 119.5,304.5 119.5,309.5 119.5,314.5C 114.5,314.5 109.5,314.5 104.5,314.5C 104.5,309.5 104.5,304.5 104.5,299.5 Z"/></g>
<g><path style="opacity:1" fill="#fefffe" d="M 119.5,299.5 C 124.5,299.5 129.5,299.5 134.5,299.5C 134.5,304.5 134.5,309.5 134.5,314.5C 129.5,314.5 124.5,314.5 119.5,314.5C 119.5,309.5 119.5,304.5 119.5,299.5 Z"/></g>
<g><path style="opacity:1" fill="#edeeed" d="M 134.5,299.5 C 139.5,299.5 144.5,299.5 149.5,299.5C 149.5,304.5 149.5,309.5 149.5,314.5C 144.5,314.5 139.5,314.5 134.5,314.5C 134.5,309.5 134.5,304.5 134.5,299.5 Z"/></g>
<g><path style="opacity:1" fill="#fefffe" d="M 149.5,299.5 C 154.5,299.5 159.5,299.5 164.5,299.5C 164.5,304.5 164.5,309.5 164.5,314.5C 159.5,314.5 154.5,314.5 149.5,314.5C 149.5,309.5 149.5,304.5 149.5,299.5 Z"/></g>
<g><path style="opacity:1" fill="#edeeed" d="M 164.5,299.5 C 169.5,299.5 174.5,299.5 179.5,299.5C 179.5,304.5 179.5,309.5 179.5,314.5C 174.5,314.5 169.5,314.5 164.5,314.5C 164.5,309.5 164.5,304.5 164.5,299.5 Z"/></g>
<g><path style="opacity:1" fill="#fefffe" d="M 179.5,299.5 C 184.5,299.5 189.5,299.5 194.5,299.5C 194.5,304.5 194.5,309.5 194.5,314.5C 189.5,314.5 184.5,314.5 179.5,314.5C 179.5,309.5 179.5,304.5 179.5,299.5 Z"/></g>
<g><path style="opacity:1" fill="#edeeed" d="M -0.5,314.5 C 4.5,314.5 9.5,314.5 14.5,314.5C 14.5,319.5 14.5,324.5 14.5,329.5C 9.5,329.5 4.5,329.5 -0.5,329.5C -0.5,324.5 -0.5,319.5 -0.5,314.5 Z"/></g>
<g><path style="opacity:1" fill="#fefffe" d="M 14.5,314.5 C 19.5,314.5 24.5,314.5 29.5,314.5C 29.5,319.5 29.5,324.5 29.5,329.5C 24.5,329.5 19.5,329.5 14.5,329.5C 14.5,324.5 14.5,319.5 14.5,314.5 Z"/></g>
<g><path style="opacity:1" fill="#edeeed" d="M 29.5,314.5 C 34.5,314.5 39.5,314.5 44.5,314.5C 44.5,319.5 44.5,324.5 44.5,329.5C 39.5,329.5 34.5,329.5 29.5,329.5C 29.5,324.5 29.5,319.5 29.5,314.5 Z"/></g>
<g><path style="opacity:1" fill="#fefffe" d="M 44.5,314.5 C 49.5,314.5 54.5,314.5 59.5,314.5C 59.5,319.5 59.5,324.5 59.5,329.5C 54.5,329.5 49.5,329.5 44.5,329.5C 44.5,324.5 44.5,319.5 44.5,314.5 Z"/></g>
<g><path style="opacity:1" fill="#edeeed" d="M 59.5,314.5 C 64.5,314.5 69.5,314.5 74.5,314.5C 74.5,319.5 74.5,324.5 74.5,329.5C 69.5,329.5 64.5,329.5 59.5,329.5C 59.5,324.5 59.5,319.5 59.5,314.5 Z"/></g>
<g><path style="opacity:1" fill="#fefffe" d="M 74.5,314.5 C 79.5,314.5 84.5,314.5 89.5,314.5C 89.5,319.5 89.5,324.5 89.5,329.5C 84.5,329.5 79.5,329.5 74.5,329.5C 74.5,324.5 74.5,319.5 74.5,314.5 Z"/></g>
<g><path style="opacity:1" fill="#edeeed" d="M 89.5,314.5 C 94.5,314.5 99.5,314.5 104.5,314.5C 104.5,319.5 104.5,324.5 104.5,329.5C 99.5,329.5 94.5,329.5 89.5,329.5C 89.5,324.5 89.5,319.5 89.5,314.5 Z"/></g>
<g><path style="opacity:1" fill="#fefffe" d="M 104.5,314.5 C 109.5,314.5 114.5,314.5 119.5,314.5C 119.5,319.5 119.5,324.5 119.5,329.5C 114.5,329.5 109.5,329.5 104.5,329.5C 104.5,324.5 104.5,319.5 104.5,314.5 Z"/></g>
<g><path style="opacity:1" fill="#edeeed" d="M 119.5,314.5 C 124.5,314.5 129.5,314.5 134.5,314.5C 134.5,319.5 134.5,324.5 134.5,329.5C 129.5,329.5 124.5,329.5 119.5,329.5C 119.5,324.5 119.5,319.5 119.5,314.5 Z"/></g>
<g><path style="opacity:1" fill="#fefffe" d="M 134.5,314.5 C 139.5,314.5 144.5,314.5 149.5,314.5C 149.5,319.5 149.5,324.5 149.5,329.5C 144.5,329.5 139.5,329.5 134.5,329.5C 134.5,324.5 134.5,319.5 134.5,314.5 Z"/></g>
<g><path style="opacity:1" fill="#edeeed" d="M 149.5,314.5 C 154.5,314.5 159.5,314.5 164.5,314.5C 164.5,319.5 164.5,324.5 164.5,329.5C 159.5,329.5 154.5,329.5 149.5,329.5C 149.5,324.5 149.5,319.5 149.5,314.5 Z"/></g>
<g><path style="opacity:1" fill="#fefffe" d="M 164.5,314.5 C 169.5,314.5 174.5,314.5 179.5,314.5C 179.5,319.5 179.5,324.5 179.5,329.5C 174.5,329.5 169.5,329.5 164.5,329.5C 164.5,324.5 164.5,319.5 164.5,314.5 Z"/></g>
<g><path style="opacity:1" fill="#edeeed" d="M 179.5,314.5 C 184.5,314.5 189.5,314.5 194.5,314.5C 194.5,319.5 194.5,324.5 194.5,329.5C 189.5,329.5 184.5,329.5 179.5,329.5C 179.5,324.5 179.5,319.5 179.5,314.5 Z"/></g>
<g><path style="opacity:1" fill="#fefffe" d="M 194.5,314.5 C 199.5,314.5 204.5,314.5 209.5,314.5C 209.5,319.5 209.5,324.5 209.5,329.5C 204.5,329.5 199.5,329.5 194.5,329.5C 194.5,324.5 194.5,319.5 194.5,314.5 Z"/></g>
<g><path style="opacity:1" fill="#fefffe" d="M -0.5,329.5 C 4.5,329.5 9.5,329.5 14.5,329.5C 14.5,334.5 14.5,339.5 14.5,344.5C 9.5,344.5 4.5,344.5 -0.5,344.5C -0.5,339.5 -0.5,334.5 -0.5,329.5 Z"/></g>
<g><path style="opacity:1" fill="#edeeed" d="M 14.5,329.5 C 19.5,329.5 24.5,329.5 29.5,329.5C 29.5,334.5 29.5,339.5 29.5,344.5C 24.5,344.5 19.5,344.5 14.5,344.5C 14.5,339.5 14.5,334.5 14.5,329.5 Z"/></g>
<g><path style="opacity:1" fill="#fefffe" d="M 29.5,329.5 C 34.5,329.5 39.5,329.5 44.5,329.5C 44.5,334.5 44.5,339.5 44.5,344.5C 39.5,344.5 34.5,344.5 29.5,344.5C 29.5,339.5 29.5,334.5 29.5,329.5 Z"/></g>
<g><path style="opacity:1" fill="#edeeed" d="M 44.5,329.5 C 49.5,329.5 54.5,329.5 59.5,329.5C 59.5,334.5 59.5,339.5 59.5,344.5C 54.5,344.5 49.5,344.5 44.5,344.5C 44.5,339.5 44.5,334.5 44.5,329.5 Z"/></g>
<g><path style="opacity:1" fill="#fefffe" d="M 59.5,329.5 C 64.5,329.5 69.5,329.5 74.5,329.5C 74.5,334.5 74.5,339.5 74.5,344.5C 69.5,344.5 64.5,344.5 59.5,344.5C 59.5,339.5 59.5,334.5 59.5,329.5 Z"/></g>
<g><path style="opacity:1" fill="#edeeed" d="M 74.5,329.5 C 79.5,329.5 84.5,329.5 89.5,329.5C 89.5,334.5 89.5,339.5 89.5,344.5C 84.5,344.5 79.5,344.5 74.5,344.5C 74.5,339.5 74.5,334.5 74.5,329.5 Z"/></g>
<g><path style="opacity:1" fill="#fefffe" d="M 89.5,329.5 C 94.5,329.5 99.5,329.5 104.5,329.5C 104.5,334.5 104.5,339.5 104.5,344.5C 99.5,344.5 94.5,344.5 89.5,344.5C 89.5,339.5 89.5,334.5 89.5,329.5 Z"/></g>
<g><path style="opacity:1" fill="#edeeed" d="M 104.5,329.5 C 109.5,329.5 114.5,329.5 119.5,329.5C 119.5,334.5 119.5,339.5 119.5,344.5C 114.5,344.5 109.5,344.5 104.5,344.5C 104.5,339.5 104.5,334.5 104.5,329.5 Z"/></g>
<g><path style="opacity:1" fill="#fefffe" d="M 119.5,329.5 C 124.5,329.5 129.5,329.5 134.5,329.5C 134.5,334.5 134.5,339.5 134.5,344.5C 129.5,344.5 124.5,344.5 119.5,344.5C 119.5,339.5 119.5,334.5 119.5,329.5 Z"/></g>
<g><path style="opacity:1" fill="#edeeed" d="M 134.5,329.5 C 139.5,329.5 144.5,329.5 149.5,329.5C 149.5,334.5 149.5,339.5 149.5,344.5C 144.5,344.5 139.5,344.5 134.5,344.5C 134.5,339.5 134.5,334.5 134.5,329.5 Z"/></g>
<g><path style="opacity:1" fill="#fefffe" d="M 149.5,329.5 C 154.5,329.5 159.5,329.5 164.5,329.5C 164.5,334.5 164.5,339.5 164.5,344.5C 159.5,344.5 154.5,344.5 149.5,344.5C 149.5,339.5 149.5,334.5 149.5,329.5 Z"/></g>
<g><path style="opacity:1" fill="#edeeed" d="M 164.5,329.5 C 169.5,329.5 174.5,329.5 179.5,329.5C 179.5,334.5 179.5,339.5 179.5,344.5C 174.5,344.5 169.5,344.5 164.5,344.5C 164.5,339.5 164.5,334.5 164.5,329.5 Z"/></g>
<g><path style="opacity:1" fill="#fefffe" d="M 179.5,329.5 C 184.5,329.5 189.5,329.5 194.5,329.5C 194.5,334.5 194.5,339.5 194.5,344.5C 189.5,344.5 184.5,344.5 179.5,344.5C 179.5,339.5 179.5,334.5 179.5,329.5 Z"/></g>
<g><path style="opacity:1" fill="#edeeed" d="M 194.5,329.5 C 199.5,329.5 204.5,329.5 209.5,329.5C 209.5,334.5 209.5,339.5 209.5,344.5C 204.5,344.5 199.5,344.5 194.5,344.5C 194.5,339.5 194.5,334.5 194.5,329.5 Z"/></g>
<g><path style="opacity:1" fill="#edeeed" d="M -0.5,344.5 C 4.5,344.5 9.5,344.5 14.5,344.5C 14.5,347.5 14.5,350.5 14.5,353.5C 9.5,353.5 4.5,353.5 -0.5,353.5C -0.5,350.5 -0.5,347.5 -0.5,344.5 Z"/></g>
<g><path style="opacity:1" fill="#fefffe" d="M 14.5,344.5 C 19.5,344.5 24.5,344.5 29.5,344.5C 29.5,347.5 29.5,350.5 29.5,353.5C 24.5,353.5 19.5,353.5 14.5,353.5C 14.5,350.5 14.5,347.5 14.5,344.5 Z"/></g>
<g><path style="opacity:1" fill="#edeeed" d="M 29.5,344.5 C 34.5,344.5 39.5,344.5 44.5,344.5C 44.5,347.5 44.5,350.5 44.5,353.5C 39.5,353.5 34.5,353.5 29.5,353.5C 29.5,350.5 29.5,347.5 29.5,344.5 Z"/></g>
<g><path style="opacity:1" fill="#fefffe" d="M 44.5,344.5 C 49.5,344.5 54.5,344.5 59.5,344.5C 59.5,347.5 59.5,350.5 59.5,353.5C 54.5,353.5 49.5,353.5 44.5,353.5C 44.5,350.5 44.5,347.5 44.5,344.5 Z"/></g>
<g><path style="opacity:1" fill="#edeeed" d="M 59.5,344.5 C 64.5,344.5 69.5,344.5 74.5,344.5C 74.5,347.5 74.5,350.5 74.5,353.5C 69.5,353.5 64.5,353.5 59.5,353.5C 59.5,350.5 59.5,347.5 59.5,344.5 Z"/></g>
<g><path style="opacity:1" fill="#fefffe" d="M 74.5,344.5 C 79.5,344.5 84.5,344.5 89.5,344.5C 89.5,347.5 89.5,350.5 89.5,353.5C 84.5,353.5 79.5,353.5 74.5,353.5C 74.5,350.5 74.5,347.5 74.5,344.5 Z"/></g>
<g><path style="opacity:1" fill="#edeeed" d="M 89.5,344.5 C 94.5,344.5 99.5,344.5 104.5,344.5C 104.5,347.5 104.5,350.5 104.5,353.5C 99.5,353.5 94.5,353.5 89.5,353.5C 89.5,350.5 89.5,347.5 89.5,344.5 Z"/></g>
<g><path style="opacity:1" fill="#fefffe" d="M 104.5,344.5 C 109.5,344.5 114.5,344.5 119.5,344.5C 119.5,347.5 119.5,350.5 119.5,353.5C 114.5,353.5 109.5,353.5 104.5,353.5C 104.5,350.5 104.5,347.5 104.5,344.5 Z"/></g>
<g><path style="opacity:1" fill="#edeeed" d="M 119.5,344.5 C 124.5,344.5 129.5,344.5 134.5,344.5C 134.5,347.5 134.5,350.5 134.5,353.5C 129.5,353.5 124.5,353.5 119.5,353.5C 119.5,350.5 119.5,347.5 119.5,344.5 Z"/></g>
<g><path style="opacity:1" fill="#fefffe" d="M 134.5,344.5 C 139.5,344.5 144.5,344.5 149.5,344.5C 149.5,347.5 149.5,350.5 149.5,353.5C 144.5,353.5 139.5,353.5 134.5,353.5C 134.5,350.5 134.5,347.5 134.5,344.5 Z"/></g>
<g><path style="opacity:1" fill="#edeeed" d="M 149.5,344.5 C 154.5,344.5 159.5,344.5 164.5,344.5C 164.5,347.5 164.5,350.5 164.5,353.5C 159.5,353.5 154.5,353.5 149.5,353.5C 149.5,350.5 149.5,347.5 149.5,344.5 Z"/></g>
<g><path style="opacity:1" fill="#fefffe" d="M 164.5,344.5 C 169.5,344.5 174.5,344.5 179.5,344.5C 179.5,347.5 179.5,350.5 179.5,353.5C 174.5,353.5 169.5,353.5 164.5,353.5C 164.5,350.5 164.5,347.5 164.5,344.5 Z"/></g>
<g><path style="opacity:1" fill="#edeeed" d="M 179.5,344.5 C 184.5,344.5 189.5,344.5 194.5,344.5C 194.5,347.5 194.5,350.5 194.5,353.5C 189.5,353.5 184.5,353.5 179.5,353.5C 179.5,350.5 179.5,347.5 179.5,344.5 Z"/></g>
<g><path style="opacity:1" fill="#fefffe" d="M 194.5,344.5 C 199.5,344.5 204.5,344.5 209.5,344.5C 209.5,347.5 209.5,350.5 209.5,353.5C 204.5,353.5 199.5,353.5 194.5,353.5C 194.5,350.5 194.5,347.5 194.5,344.5 Z"/></g>
<g><path style="opacity:1" fill="#edeeed" d="M 209.5,344.5 C 214.5,344.5 219.5,344.5 224.5,344.5C 224.5,347.5 224.5,350.5 224.5,353.5C 219.5,353.5 214.5,353.5 209.5,353.5C 209.5,350.5 209.5,347.5 209.5,344.5 Z"/></g>
<g><path style="opacity:1" fill="#f3f3f3" d="M 152.5,256.5 C 187.132,287.13 221.465,318.13 255.5,349.5C 259.269,351.419 263.269,351.919 267.5,351C 278.102,345.531 288.768,340.365 299.5,335.5C 299.5,338.5 299.5,341.5 299.5,344.5C 304.5,344.5 309.5,344.5 314.5,344.5C 314.5,339.5 314.5,334.5 314.5,329.5C 319.5,329.5 324.5,329.5 329.5,329.5C 329.5,334.5 329.5,339.5 329.5,344.5C 334.5,344.5 339.5,344.5 344.5,344.5C 344.5,339.5 344.5,334.5 344.5,329.5C 349.5,329.5 354.5,329.5 359.5,329.5C 359.5,337.5 359.5,345.5 359.5,353.5C 314.5,353.5 269.5,353.5 224.5,353.5C 224.5,350.5 224.5,347.5 224.5,344.5C 219.5,344.5 214.5,344.5 209.5,344.5C 209.5,339.5 209.5,334.5 209.5,329.5C 209.5,324.5 209.5,319.5 209.5,314.5C 204.5,314.5 199.5,314.5 194.5,314.5C 194.5,309.5 194.5,304.5 194.5,299.5C 189.5,299.5 184.5,299.5 179.5,299.5C 179.5,294.5 179.5,289.5 179.5,284.5C 174.5,284.5 169.5,284.5 164.5,284.5C 164.5,279.5 164.5,274.5 164.5,269.5C 159.5,269.5 154.5,269.5 149.5,269.5C 149.334,264.821 149.501,260.155 150,255.5C 150.838,256.999 151.671,257.332 152.5,256.5 Z"/></g>
</svg>
