<?xml version="1.0" encoding="UTF-8"?>
<!DOCTYPE svg PUBLIC "-//W3C//DTD SVG 1.1//EN" "http://www.w3.org/Graphics/SVG/1.1/DTD/svg11.dtd">
<svg xmlns="http://www.w3.org/2000/svg" version="1.1" width="284px" height="244px" style="shape-rendering:geometricPrecision; text-rendering:geometricPrecision; image-rendering:optimizeQuality; fill-rule:evenodd; clip-rule:evenodd" xmlns:xlink="http://www.w3.org/1999/xlink">
<g><path style="opacity:1" fill="#f8f9f9" d="M -0.5,-0.5 C 4.5,-0.5 9.5,-0.5 14.5,-0.5C 14.5,1.83333 14.5,4.16667 14.5,6.5C 6.14583,5.61944 3.47917,9.28611 6.5,17.5C 9.42116,18.4066 12.4212,18.7399 15.5,18.5C 15.5,21.5 15.5,24.5 15.5,27.5C 18.8333,27.5 22.1667,27.5 25.5,27.5C 25.5,30.8333 25.5,34.1667 25.5,37.5C 28.8333,37.5 32.1667,37.5 35.5,37.5C 35.5,34.1667 35.5,30.8333 35.5,27.5C 38.8333,27.5 42.1667,27.5 45.5,27.5C 45.5,30.8333 45.5,34.1667 45.5,37.5C 48.8333,37.5 52.1667,37.5 55.5,37.5C 55.5,34.1667 55.5,30.8333 55.5,27.5C 58.8333,27.5 62.1667,27.5 65.5,27.5C 65.5,30.8333 65.5,34.1667 65.5,37.5C 68.8333,37.5 72.1667,37.5 75.5,37.5C 75.3354,34.4816 75.502,31.4816 76,28.5C 79.0567,27.5495 82.2234,27.2161 85.5,27.5C 85.5,24.1667 85.5,20.8333 85.5,17.5C 82.1667,17.5 78.8333,17.5 75.5,17.5C 75.5,14.1667 75.5,10.8333 75.5,7.5C 79.1667,7.5 82.8333,7.5 86.5,7.5C 86.1796,10.8984 86.513,14.2317 87.5,17.5C 90.4212,18.4066 93.4212,18.7399 96.5,18.5C 96.5,21.5 96.5,24.5 96.5,27.5C 99.8333,27.5 103.167,27.5 106.5,27.5C 106.5,24.1667 106.5,20.8333 106.5,17.5C 103.167,17.5 99.8333,17.5 96.5,17.5C 96.5,14.5 96.5,11.5 96.5,8.5C 93.7531,8.81335 91.0865,8.48002 88.5,7.5C 90.7427,6.52577 93.076,6.19244 95.5,6.5C 95.5,4.16667 95.5,1.83333 95.5,-0.5C 109.167,-0.5 122.833,-0.5 136.5,-0.5C 136.5,1.83333 136.5,4.16667 136.5,6.5C 133.421,6.26006 130.421,6.59339 127.5,7.5C 126.513,10.7683 126.18,14.1016 126.5,17.5C 123.167,17.5 119.833,17.5 116.5,17.5C 116.5,20.8333 116.5,24.1667 116.5,27.5C 119.833,27.5 123.167,27.5 126.5,27.5C 126.5,30.8333 126.5,34.1667 126.5,37.5C 129.909,37.7507 133.242,37.4173 136.5,36.5C 136.876,33.6267 136.876,30.6267 136.5,27.5C 139.833,27.5 143.167,27.5 146.5,27.5C 146.5,24.1667 146.5,20.8333 146.5,17.5C 149.833,17.5 153.167,17.5 156.5,17.5C 156.5,14.1667 156.5,10.8333 156.5,7.5C 153.5,7.5 150.5,7.5 147.5,7.5C 147.5,4.83333 147.5,2.16667 147.5,-0.5C 157.5,-0.5 167.5,-0.5 177.5,-0.5C 179.452,7.88454 176.452,10.5512 168.5,7.5C 167.513,10.7683 167.18,14.1016 167.5,17.5C 164.167,17.5 160.833,17.5 157.5,17.5C 157.5,20.8333 157.5,24.1667 157.5,27.5C 160.833,27.5 164.167,27.5 167.5,27.5C 167.5,29.8333 167.5,32.1667 167.5,34.5C 166.209,34.2627 165.209,34.596 164.5,35.5C 158.931,35.376 153.598,36.0427 148.5,37.5C 140.933,37.7549 133.6,38.7549 126.5,40.5C 123.287,40.19 120.287,40.5233 117.5,41.5C 117.167,41.5 116.833,41.5 116.5,41.5C 116.5,40.5 116.5,39.5 116.5,38.5C 113.167,38.5 109.833,38.5 106.5,38.5C 106.5,39.8333 106.5,41.1667 106.5,42.5C 100.903,42.7703 95.5695,43.7703 90.5,45.5C 88.1667,45.5 85.8333,45.5 83.5,45.5C 80.8127,45.3359 78.146,45.5026 75.5,46C 74.5842,46.2784 73.9175,46.7784 73.5,47.5C 69.0725,47.7988 64.7391,48.4654 60.5,49.5C 52.7438,49.9278 45.0771,50.9278 37.5,52.5C 36.8333,52.5 36.1667,52.5 35.5,52.5C 33.2075,52.2436 31.0408,52.5769 29,53.5C 28.1705,75.6705 28.3371,97.6705 29.5,119.5C 56.997,120.332 84.6636,120.832 112.5,121C 84.6636,121.168 56.997,121.668 29.5,122.5C 29.1667,122.5 28.8333,122.5 28.5,122.5C 27.8234,145.069 27.1568,167.735 26.5,190.5C 25.5206,193.625 25.1872,196.958 25.5,200.5C 22.1501,200.335 18.8168,200.502 15.5,201C 14.5562,203.719 14.2229,206.552 14.5,209.5C 11.7508,209.274 9.08415,209.607 6.5,210.5C 5.51298,213.768 5.17964,217.102 5.5,220.5C 14.6556,218.151 17.6556,221.318 14.5,230C 11.5184,230.498 8.51838,230.665 5.5,230.5C 5.5,233.833 5.5,237.167 5.5,240.5C 8.51838,240.335 11.5184,240.502 14.5,241C 15.2524,241.671 15.5858,242.504 15.5,243.5C 10.1667,243.5 4.83333,243.5 -0.5,243.5C -0.5,162.167 -0.5,80.8333 -0.5,-0.5 Z"/></g>
<g><path style="opacity:1" fill="#f4f4f4" d="M 14.5,-0.5 C 41.5,-0.5 68.5,-0.5 95.5,-0.5C 95.5,1.83333 95.5,4.16667 95.5,6.5C 93.076,6.19244 90.7427,6.52577 88.5,7.5C 91.0865,8.48002 93.7531,8.81335 96.5,8.5C 96.5,11.5 96.5,14.5 96.5,17.5C 99.8333,17.5 103.167,17.5 106.5,17.5C 106.5,20.8333 106.5,24.1667 106.5,27.5C 103.167,27.5 99.8333,27.5 96.5,27.5C 96.5,24.5 96.5,21.5 96.5,18.5C 93.4212,18.7399 90.4212,18.4066 87.5,17.5C 86.513,14.2317 86.1796,10.8984 86.5,7.5C 82.8333,7.5 79.1667,7.5 75.5,7.5C 75.5,10.8333 75.5,14.1667 75.5,17.5C 78.8333,17.5 82.1667,17.5 85.5,17.5C 85.5,20.8333 85.5,24.1667 85.5,27.5C 82.2234,27.2161 79.0567,27.5495 76,28.5C 75.502,31.4816 75.3354,34.4816 75.5,37.5C 72.1667,37.5 68.8333,37.5 65.5,37.5C 65.5,34.1667 65.5,30.8333 65.5,27.5C 62.1667,27.5 58.8333,27.5 55.5,27.5C 55.5,30.8333 55.5,34.1667 55.5,37.5C 52.1667,37.5 48.8333,37.5 45.5,37.5C 45.5,34.1667 45.5,30.8333 45.5,27.5C 42.1667,27.5 38.8333,27.5 35.5,27.5C 35.5,30.8333 35.5,34.1667 35.5,37.5C 32.1667,37.5 28.8333,37.5 25.5,37.5C 25.5,34.1667 25.5,30.8333 25.5,27.5C 22.1667,27.5 18.8333,27.5 15.5,27.5C 15.5,24.5 15.5,21.5 15.5,18.5C 12.4212,18.7399 9.42116,18.4066 6.5,17.5C 3.47917,9.28611 6.14583,5.61944 14.5,6.5C 14.5,4.16667 14.5,1.83333 14.5,-0.5 Z"/></g>
<g><path style="opacity:1" fill="#f3f3f3" d="M 136.5,-0.5 C 140.167,-0.5 143.833,-0.5 147.5,-0.5C 147.5,2.16667 147.5,4.83333 147.5,7.5C 150.5,7.5 153.5,7.5 156.5,7.5C 156.5,10.8333 156.5,14.1667 156.5,17.5C 153.167,17.5 149.833,17.5 146.5,17.5C 146.5,20.8333 146.5,24.1667 146.5,27.5C 143.167,27.5 139.833,27.5 136.5,27.5C 136.876,30.6267 136.876,33.6267 136.5,36.5C 133.242,37.4173 129.909,37.7507 126.5,37.5C 126.5,34.1667 126.5,30.8333 126.5,27.5C 123.167,27.5 119.833,27.5 116.5,27.5C 116.5,24.1667 116.5,20.8333 116.5,17.5C 119.833,17.5 123.167,17.5 126.5,17.5C 126.18,14.1016 126.513,10.7683 127.5,7.5C 130.421,6.59339 133.421,6.26006 136.5,6.5C 136.5,4.16667 136.5,1.83333 136.5,-0.5 Z"/></g>
<g><path style="opacity:1" fill="#f5f5f5" d="M 177.5,-0.5 C 207.833,-0.5 238.167,-0.5 268.5,-0.5C 269.265,2.09609 269.599,4.76275 269.5,7.5C 272.5,7.5 275.5,7.5 278.5,7.5C 278.5,10.8333 278.5,14.1667 278.5,17.5C 275.167,17.5 271.833,17.5 268.5,17.5C 268.5,20.8333 268.5,24.1667 268.5,27.5C 265.167,27.5 261.833,27.5 258.5,27.5C 258.5,30.8333 258.5,34.1667 258.5,37.5C 255.167,37.5 251.833,37.5 248.5,37.5C 248.5,34.1667 248.5,30.8333 248.5,27.5C 245.167,27.5 241.833,27.5 238.5,27.5C 237.129,26.2132 235.295,25.5465 233,25.5C 229.549,25.4205 226.382,26.0872 223.5,27.5C 220.236,28.3242 216.902,28.6576 213.5,28.5C 209.64,28.8084 205.974,29.4751 202.5,30.5C 201.167,30.5 199.833,30.5 198.5,30.5C 194.295,30.7167 190.295,31.3833 186.5,32.5C 185.5,32.5 184.5,32.5 183.5,32.5C 178.18,33.26 172.847,33.9267 167.5,34.5C 167.5,32.1667 167.5,29.8333 167.5,27.5C 164.167,27.5 160.833,27.5 157.5,27.5C 157.5,24.1667 157.5,20.8333 157.5,17.5C 160.833,17.5 164.167,17.5 167.5,17.5C 167.18,14.1016 167.513,10.7683 168.5,7.5C 176.452,10.5512 179.452,7.88454 177.5,-0.5 Z"/></g>
<g><path style="opacity:1" fill="#00c0f5" d="M 235.5,26.5 C 235.5,57.1667 235.5,87.8333 235.5,118.5C 196.494,118.833 157.494,118.5 118.5,117.5C 117.509,92.2114 117.176,66.8781 117.5,41.5C 120.287,40.5233 123.287,40.19 126.5,40.5C 134.139,40.7786 141.473,39.7786 148.5,37.5C 152.846,37.6657 157.179,37.499 161.5,37C 162.737,36.7679 163.737,36.2679 164.5,35.5C 169.511,35.6659 174.511,35.4993 179.5,35C 181.066,34.3918 182.4,33.5585 183.5,32.5C 184.5,32.5 185.5,32.5 186.5,32.5C 190.817,32.9166 194.817,32.2499 198.5,30.5C 199.833,30.5 201.167,30.5 202.5,30.5C 206.649,31.0803 210.316,30.4136 213.5,28.5C 216.902,28.6576 220.236,28.3242 223.5,27.5C 227.481,26.9791 231.481,26.6458 235.5,26.5 Z"/></g>
<g><path style="opacity:1" fill="#5cd5ec" d="M 213.5,28.5 C 210.316,30.4136 206.649,31.0803 202.5,30.5C 205.974,29.4751 209.64,28.8084 213.5,28.5 Z"/></g>
<g><path style="opacity:1" fill="#6edbee" d="M 198.5,30.5 C 194.817,32.2499 190.817,32.9166 186.5,32.5C 190.295,31.3833 194.295,30.7167 198.5,30.5 Z"/></g>
<g><path style="opacity:1" fill="#49cdef" d="M 183.5,32.5 C 182.4,33.5585 181.066,34.3918 179.5,35C 174.511,35.4993 169.511,35.6659 164.5,35.5C 165.209,34.596 166.209,34.2627 167.5,34.5C 172.847,33.9267 178.18,33.26 183.5,32.5 Z"/></g>
<g><path style="opacity:1" fill="#58d2ec" d="M 164.5,35.5 C 163.737,36.2679 162.737,36.7679 161.5,37C 157.179,37.499 152.846,37.6657 148.5,37.5C 153.598,36.0427 158.931,35.376 164.5,35.5 Z"/></g>
<g><path style="opacity:1" fill="#e1f8f8" d="M 116.5,41.5 C 116.5,67.5 116.5,93.5 116.5,119.5C 136.833,119.5 157.167,119.5 177.5,119.5C 193.975,121.162 210.642,122.162 227.5,122.5C 190.833,122.5 154.167,122.5 117.5,122.5C 117.5,148.5 117.5,174.5 117.5,200.5C 116.126,200.208 114.793,199.875 113.5,199.5C 113.831,173.661 113.498,147.995 112.5,122.5C 84.8333,122.5 57.1667,122.5 29.5,122.5C 56.997,121.668 84.6636,121.168 112.5,121C 84.6636,120.832 56.997,120.332 29.5,119.5C 57.1667,119.5 84.8333,119.5 112.5,119.5C 113.498,94.0054 113.831,68.3388 113.5,42.5C 111.167,42.5 108.833,42.5 106.5,42.5C 106.5,41.1667 106.5,39.8333 106.5,38.5C 109.833,38.5 113.167,38.5 116.5,38.5C 116.5,39.5 116.5,40.5 116.5,41.5 Z"/></g>
<g><path style="opacity:1" fill="#5bd4ef" d="M 148.5,37.5 C 141.473,39.7786 134.139,40.7786 126.5,40.5C 133.6,38.7549 140.933,37.7549 148.5,37.5 Z"/></g>
<g><path style="opacity:1" fill="#00c0f5" d="M 112.5,118.5 C 84.8333,118.5 57.1667,118.5 29.5,118.5C 29.3334,97.1641 29.5,75.8307 30,54.5C 31.9483,53.8906 33.7816,53.224 35.5,52.5C 36.1667,52.5 36.8333,52.5 37.5,52.5C 45.3225,53.6561 53.3225,53.8228 61.5,53C 60.6634,51.9887 60.33,50.8221 60.5,49.5C 64.7391,48.4654 69.0725,47.7988 73.5,47.5C 77.0399,47.2474 80.3733,46.5808 83.5,45.5C 85.8333,45.5 88.1667,45.5 90.5,45.5C 97.8173,44.6687 105.151,44.002 112.5,43.5C 112.5,68.5 112.5,93.5 112.5,118.5 Z"/></g>
<g><path style="opacity:1" fill="#bef1fc" d="M 83.5,45.5 C 80.3733,46.5808 77.0399,47.2474 73.5,47.5C 73.9175,46.7784 74.5842,46.2784 75.5,46C 78.146,45.5026 80.8127,45.3359 83.5,45.5 Z"/></g>
<g><path style="opacity:1" fill="#6addf9" d="M 106.5,42.5 C 108.833,42.5 111.167,42.5 113.5,42.5C 113.831,68.3388 113.498,94.0054 112.5,119.5C 112.5,119.167 112.5,118.833 112.5,118.5C 112.5,93.5 112.5,68.5 112.5,43.5C 105.151,44.002 97.8173,44.6687 90.5,45.5C 95.5695,43.7703 100.903,42.7703 106.5,42.5 Z"/></g>
<g><path style="opacity:1" fill="#f2f2f2" d="M 283.5,38.5 C 283.5,55.1667 283.5,71.8333 283.5,88.5C 281.833,88.5 280.167,88.5 278.5,88.5C 278.5,85.1667 278.5,81.8333 278.5,78.5C 275.167,78.5 271.833,78.5 268.5,78.5C 268.5,75.1667 268.5,71.8333 268.5,68.5C 271.833,68.5 275.167,68.5 278.5,68.5C 278.5,65.1667 278.5,61.8333 278.5,58.5C 275.167,58.5 271.833,58.5 268.5,58.5C 268.5,55.1667 268.5,51.8333 268.5,48.5C 265.167,48.5 261.833,48.5 258.5,48.5C 258.5,51.8333 258.5,55.1667 258.5,58.5C 255.167,58.5 251.833,58.5 248.5,58.5C 248.5,55.1667 248.5,51.8333 248.5,48.5C 245.14,48.3841 241.807,48.0508 238.5,47.5C 238.5,44.5 238.5,41.5 238.5,38.5C 241.833,38.5 245.167,38.5 248.5,38.5C 248.335,41.5184 248.502,44.5184 249,47.5C 251.621,47.7036 254.455,47.7036 257.5,47.5C 257.274,44.7508 257.607,42.0841 258.5,39.5C 261.768,38.513 265.102,38.1796 268.5,38.5C 269.207,41.7861 269.54,45.1194 269.5,48.5C 272.448,48.7771 275.281,48.4438 278,47.5C 278.498,44.5184 278.665,41.5184 278.5,38.5C 280.167,38.5 281.833,38.5 283.5,38.5 Z"/></g>
<g><path style="opacity:1" fill="#fefefe" d="M 268.5,58.5 C 265.167,58.5 261.833,58.5 258.5,58.5C 258.5,55.1667 258.5,51.8333 258.5,48.5C 261.833,48.5 265.167,48.5 268.5,48.5C 268.5,51.8333 268.5,55.1667 268.5,58.5 Z"/></g>
<g><path style="opacity:1" fill="#1fc5ef" d="M 60.5,49.5 C 60.33,50.8221 60.6634,51.9887 61.5,53C 53.3225,53.8228 45.3225,53.6561 37.5,52.5C 45.0771,50.9278 52.7438,49.9278 60.5,49.5 Z"/></g>
<g><path style="opacity:1" fill="#efefef" d="M 15.5,78.5 C 12.1667,78.5 8.83333,78.5 5.5,78.5C 5.5,75.1667 5.5,71.8333 5.5,68.5C 8.51838,68.6646 11.5184,68.498 14.5,68C 15.4505,64.9433 15.7839,61.7766 15.5,58.5C 18.5,58.5 21.5,58.5 24.5,58.5C 24.6646,61.5184 24.498,64.5184 24,67.5C 21.2809,68.4438 18.4475,68.7771 15.5,68.5C 15.5,71.8333 15.5,75.1667 15.5,78.5 Z"/></g>
<g><path style="opacity:1" fill="#efeeee" d="M 248.5,58.5 C 248.5,61.8333 248.5,65.1667 248.5,68.5C 245.167,68.5 241.833,68.5 238.5,68.5C 238.5,65.1667 238.5,61.8333 238.5,58.5C 241.833,58.5 245.167,58.5 248.5,58.5 Z"/></g>
<g><path style="opacity:1" fill="#fefefe" d="M 248.5,58.5 C 251.833,58.5 255.167,58.5 258.5,58.5C 258.5,61.8333 258.5,65.1667 258.5,68.5C 255.167,68.5 251.833,68.5 248.5,68.5C 248.5,65.1667 248.5,61.8333 248.5,58.5 Z"/></g>
<g><path style="opacity:1" fill="#efefef" d="M 258.5,58.5 C 261.833,58.5 265.167,58.5 268.5,58.5C 268.5,61.8333 268.5,65.1667 268.5,68.5C 265.167,68.5 261.833,68.5 258.5,68.5C 258.5,65.1667 258.5,61.8333 258.5,58.5 Z"/></g>
<g><path style="opacity:1" fill="#fefffe" d="M 268.5,58.5 C 271.833,58.5 275.167,58.5 278.5,58.5C 278.5,61.8333 278.5,65.1667 278.5,68.5C 275.167,68.5 271.833,68.5 268.5,68.5C 268.5,65.1667 268.5,61.8333 268.5,58.5 Z"/></g>
<g><path style="opacity:1" fill="#d0fdfe" d="M 238.5,27.5 C 237.502,56.9953 237.169,86.662 237.5,116.5C 237.672,117.492 237.338,118.158 236.5,118.5C 236.831,87.6621 236.498,56.9955 235.5,26.5C 231.481,26.6458 227.481,26.9791 223.5,27.5C 226.382,26.0872 229.549,25.4205 233,25.5C 235.295,25.5465 237.129,26.2132 238.5,27.5 Z"/></g>
<g><path style="opacity:1" fill="#fbfbfb" d="M 268.5,-0.5 C 273.5,-0.5 278.5,-0.5 283.5,-0.5C 283.5,12.5 283.5,25.5 283.5,38.5C 281.833,38.5 280.167,38.5 278.5,38.5C 278.665,41.5184 278.498,44.5184 278,47.5C 275.281,48.4438 272.448,48.7771 269.5,48.5C 269.54,45.1194 269.207,41.7861 268.5,38.5C 265.102,38.1796 261.768,38.513 258.5,39.5C 257.607,42.0841 257.274,44.7508 257.5,47.5C 254.455,47.7036 251.621,47.7036 249,47.5C 248.502,44.5184 248.335,41.5184 248.5,38.5C 245.167,38.5 241.833,38.5 238.5,38.5C 238.5,41.5 238.5,44.5 238.5,47.5C 241.807,48.0508 245.14,48.3841 248.5,48.5C 248.5,51.8333 248.5,55.1667 248.5,58.5C 245.167,58.5 241.833,58.5 238.5,58.5C 238.5,61.8333 238.5,65.1667 238.5,68.5C 241.833,68.5 245.167,68.5 248.5,68.5C 248.5,71.8333 248.5,75.1667 248.5,78.5C 245.167,78.5 241.833,78.5 238.5,78.5C 238.163,82.3076 238.663,85.9743 240,89.5C 242.719,88.5562 245.552,88.2229 248.5,88.5C 248.5,91.8333 248.5,95.1667 248.5,98.5C 245.167,98.5 241.833,98.5 238.5,98.5C 238.5,101.833 238.5,105.167 238.5,108.5C 241.518,108.335 244.518,108.502 247.5,109C 248.451,112.057 248.784,115.223 248.5,118.5C 244.498,118.964 240.831,118.298 237.5,116.5C 237.169,86.662 237.502,56.9953 238.5,27.5C 241.833,27.5 245.167,27.5 248.5,27.5C 248.5,30.8333 248.5,34.1667 248.5,37.5C 251.833,37.5 255.167,37.5 258.5,37.5C 258.5,34.1667 258.5,30.8333 258.5,27.5C 261.833,27.5 265.167,27.5 268.5,27.5C 268.5,24.1667 268.5,20.8333 268.5,17.5C 271.833,17.5 275.167,17.5 278.5,17.5C 278.5,14.1667 278.5,10.8333 278.5,7.5C 275.5,7.5 272.5,7.5 269.5,7.5C 269.599,4.76275 269.265,2.09609 268.5,-0.5 Z"/></g>
<g><path style="opacity:1" fill="#51c9e5" d="M 35.5,52.5 C 33.7816,53.224 31.9483,53.8906 30,54.5C 29.5,75.8307 29.3334,97.1641 29.5,118.5C 57.1667,118.5 84.8333,118.5 112.5,118.5C 112.5,118.833 112.5,119.167 112.5,119.5C 84.8333,119.5 57.1667,119.5 29.5,119.5C 28.3371,97.6705 28.1705,75.6705 29,53.5C 31.0408,52.5769 33.2075,52.2436 35.5,52.5 Z"/></g>
<g><path style="opacity:1" fill="#f0f0f0" d="M 15.5,78.5 C 24.1594,76.6756 26.8261,79.8422 23.5,88C 20.854,88.4974 18.1873,88.6641 15.5,88.5C 15.5,91.8333 15.5,95.1667 15.5,98.5C 18.4475,98.2229 21.2809,98.5562 24,99.5C 24.498,102.482 24.6646,105.482 24.5,108.5C 21.5,108.5 18.5,108.5 15.5,108.5C 15.5,105.5 15.5,102.5 15.5,99.5C 12.4212,99.7399 9.42116,99.4066 6.5,98.5C 5.51298,95.2317 5.17964,91.8984 5.5,88.5C 8.1873,88.6641 10.854,88.4974 13.5,88C 14.3038,84.8826 14.9705,81.716 15.5,78.5 Z"/></g>
<g><path style="opacity:1" fill="#55d3ed" d="M 235.5,26.5 C 236.498,56.9955 236.831,87.6621 236.5,118.5C 217.007,119.497 197.34,119.83 177.5,119.5C 157.167,119.5 136.833,119.5 116.5,119.5C 116.5,93.5 116.5,67.5 116.5,41.5C 116.833,41.5 117.167,41.5 117.5,41.5C 117.176,66.8781 117.509,92.2114 118.5,117.5C 157.494,118.5 196.494,118.833 235.5,118.5C 235.5,87.8333 235.5,57.1667 235.5,26.5 Z"/></g>
<g><path style="opacity:1" fill="#06c0f5" d="M 28.5,122.5 C 28.8333,122.5 29.1667,122.5 29.5,122.5C 57.1667,122.5 84.8333,122.5 112.5,122.5C 112.5,147.833 112.5,173.167 112.5,198.5C 110.5,198.5 108.5,198.5 106.5,198.5C 102.865,197.886 99.1981,197.552 95.5,197.5C 94.7375,196.732 93.7375,196.232 92.5,196C 92.9574,195.586 93.2907,195.086 93.5,194.5C 90.3783,193.541 87.2116,193.541 84,194.5C 76.5633,193.089 69.0633,192.422 61.5,192.5C 60.8333,192.5 60.1667,192.5 59.5,192.5C 57.2186,191.661 54.8852,190.661 52.5,189.5C 51.6143,188.675 51.281,187.675 51.5,186.5C 48.6662,187.503 45.8329,188.503 43,189.5C 40.6212,189.518 38.4545,188.851 36.5,187.5C 35.5832,188.127 34.5832,188.461 33.5,188.5C 31.8333,188.5 30.1667,188.5 28.5,188.5C 28.5,166.5 28.5,144.5 28.5,122.5 Z"/></g>
<g><path style="opacity:1" fill="#02c0f5" d="M 227.5,122.5 C 231.012,121.945 234.012,122.612 236.5,124.5C 235.502,154.329 235.169,184.329 235.5,214.5C 234.167,214.5 232.833,214.5 231.5,214.5C 229.833,214.5 228.167,214.5 226.5,214.5C 225.737,213.732 224.737,213.232 223.5,213C 220.183,212.502 216.85,212.335 213.5,212.5C 209.796,210.909 205.796,210.076 201.5,210C 200.215,207.577 198.382,205.744 196,204.5C 194.235,205.232 193.068,206.565 192.5,208.5C 191.5,206.833 190.167,205.5 188.5,204.5C 184.001,205.097 179.668,206.097 175.5,207.5C 174.833,207.5 174.167,207.5 173.5,207.5C 161.557,203.92 149.224,202.253 136.5,202.5C 130.176,201.751 123.843,201.085 117.5,200.5C 117.5,174.5 117.5,148.5 117.5,122.5C 154.167,122.5 190.833,122.5 227.5,122.5 Z"/></g>
<g><path style="opacity:1" fill="#e6f9fe" d="M 28.5,122.5 C 28.5,144.5 28.5,166.5 28.5,188.5C 30.1667,188.5 31.8333,188.5 33.5,188.5C 33.5,188.833 33.5,189.167 33.5,189.5C 31.0971,189.448 28.7638,189.781 26.5,190.5C 27.1568,167.735 27.8234,145.069 28.5,122.5 Z"/></g>
<g><path style="opacity:1" fill="#6adcfb" d="M 112.5,122.5 C 113.498,147.995 113.831,173.661 113.5,199.5C 110.941,199.802 108.607,199.468 106.5,198.5C 108.5,198.5 110.5,198.5 112.5,198.5C 112.5,173.167 112.5,147.833 112.5,122.5 Z"/></g>
<g><path style="opacity:1" fill="#01c3e4" d="M 236.5,124.5 C 236.5,154.833 236.5,185.167 236.5,215.5C 234.585,215.784 232.919,215.451 231.5,214.5C 232.833,214.5 234.167,214.5 235.5,214.5C 235.169,184.329 235.502,154.329 236.5,124.5 Z"/></g>
<g><path style="opacity:1" fill="#f0f0f0" d="M 15.5,159.5 C 12.1667,159.5 8.83333,159.5 5.5,159.5C 5.5,156.167 5.5,152.833 5.5,149.5C 14.6556,151.849 17.6556,148.682 14.5,140C 11.5184,139.502 8.51838,139.335 5.5,139.5C 5.33499,136.15 5.50166,132.817 6,129.5C 8.71914,128.556 11.5525,128.223 14.5,128.5C 14.2229,125.552 14.5562,122.719 15.5,120C 18.4816,119.502 21.4816,119.335 24.5,119.5C 24.6646,122.518 24.498,125.518 24,128.5C 21.2809,129.444 18.4475,129.777 15.5,129.5C 15.5,132.833 15.5,136.167 15.5,139.5C 24.1594,137.676 26.8261,140.842 23.5,149C 20.854,149.497 18.1873,149.664 15.5,149.5C 15.5,152.833 15.5,156.167 15.5,159.5 Z"/></g>
<g><path style="opacity:1" fill="#00c5ee" d="M 30.5,124.5 C 36.5981,124.174 37.2648,124.841 32.5,126.5C 31.667,146.158 31.167,165.825 31,185.5C 30.5,165.169 30.3334,144.836 30.5,124.5 Z"/></g>
<g><path style="opacity:1" fill="#f0f0f0" d="M 15.5,159.5 C 24.1594,157.676 26.8261,160.842 23.5,169C 20.854,169.497 18.1873,169.664 15.5,169.5C 15.5,172.833 15.5,176.167 15.5,179.5C 18.4475,179.223 21.2809,179.556 24,180.5C 24.498,183.482 24.6646,186.482 24.5,189.5C 21.5,189.5 18.5,189.5 15.5,189.5C 15.5,186.5 15.5,183.5 15.5,180.5C 12.4212,180.74 9.42116,180.407 6.5,179.5C 5.51298,176.232 5.17964,172.898 5.5,169.5C 8.1873,169.664 10.854,169.497 13.5,169C 14.3038,165.883 14.9705,162.716 15.5,159.5 Z"/></g>
<g><path style="opacity:1" fill="#46ccf0" d="M 59.5,192.5 C 52.1667,191.833 44.8333,191.167 37.5,190.5C 36.4324,189.566 35.099,189.232 33.5,189.5C 33.5,189.167 33.5,188.833 33.5,188.5C 34.5832,188.461 35.5832,188.127 36.5,187.5C 38.4545,188.851 40.6212,189.518 43,189.5C 45.8329,188.503 48.6662,187.503 51.5,186.5C 51.281,187.675 51.6143,188.675 52.5,189.5C 54.8852,190.661 57.2186,191.661 59.5,192.5 Z"/></g>
<g><path style="opacity:1" fill="#eeefef" d="M 33.5,189.5 C 35.099,189.232 36.4324,189.566 37.5,190.5C 35.5977,193.337 34.931,196.671 35.5,200.5C 32.1667,200.5 28.8333,200.5 25.5,200.5C 25.1872,196.958 25.5206,193.625 26.5,190.5C 28.7638,189.781 31.0971,189.448 33.5,189.5 Z"/></g>
<g><path style="opacity:1" fill="#fdfdfd" d="M 283.5,189.5 C 283.5,193.167 283.5,196.833 283.5,200.5C 281.833,200.5 280.167,200.5 278.5,200.5C 278.5,197.167 278.5,193.833 278.5,190.5C 275.167,190.5 271.833,190.5 268.5,190.5C 268.5,193.833 268.5,197.167 268.5,200.5C 265.167,200.5 261.833,200.5 258.5,200.5C 258.5,197.167 258.5,193.833 258.5,190.5C 255.167,190.5 251.833,190.5 248.5,190.5C 248.5,193.833 248.5,197.167 248.5,200.5C 245.167,200.5 241.833,200.5 238.5,200.5C 238.5,196.833 238.5,193.167 238.5,189.5C 241.833,189.5 245.167,189.5 248.5,189.5C 248.5,186.167 248.5,182.833 248.5,179.5C 251.833,179.5 255.167,179.5 258.5,179.5C 258.5,182.833 258.5,186.167 258.5,189.5C 261.833,189.5 265.167,189.5 268.5,189.5C 268.5,186.167 268.5,182.833 268.5,179.5C 271.833,179.5 275.167,179.5 278.5,179.5C 278.5,182.833 278.5,186.167 278.5,189.5C 280.167,189.5 281.833,189.5 283.5,189.5 Z"/></g>
<g><path style="opacity:1" fill="#3cc8ed" d="M 61.5,192.5 C 69.0633,192.422 76.5633,193.089 84,194.5C 87.2116,193.541 90.3783,193.541 93.5,194.5C 93.2907,195.086 92.9574,195.586 92.5,196C 93.7375,196.232 94.7375,196.732 95.5,197.5C 90.1839,196.704 84.8506,196.037 79.5,195.5C 74.7105,194.275 69.7105,193.608 64.5,193.5C 63.209,193.737 62.209,193.404 61.5,192.5 Z"/></g>
<g><path style="opacity:1" fill="#d2f4f9" d="M 64.5,193.5 C 69.7105,193.608 74.7105,194.275 79.5,195.5C 75.4862,195.666 71.4862,195.499 67.5,195C 66.2625,194.768 65.2625,194.268 64.5,193.5 Z"/></g>
<g><path style="opacity:1" fill="#f5f5f5" d="M 37.5,190.5 C 44.8333,191.167 52.1667,191.833 59.5,192.5C 60.1667,192.5 60.8333,192.5 61.5,192.5C 62.209,193.404 63.209,193.737 64.5,193.5C 65.2625,194.268 66.2625,194.768 67.5,195C 71.4862,195.499 75.4862,195.666 79.5,195.5C 84.8506,196.037 90.1839,196.704 95.5,197.5C 99.1981,197.552 102.865,197.886 106.5,198.5C 108.607,199.468 110.941,199.802 113.5,199.5C 114.793,199.875 116.126,200.208 117.5,200.5C 123.843,201.085 130.176,201.751 136.5,202.5C 140.167,203.167 143.833,203.833 147.5,204.5C 147.5,206.5 147.5,208.5 147.5,210.5C 150.5,210.5 153.5,210.5 156.5,210.5C 156.5,213.833 156.5,217.167 156.5,220.5C 153.167,220.5 149.833,220.5 146.5,220.5C 146.5,223.833 146.5,227.167 146.5,230.5C 143.167,230.5 139.833,230.5 136.5,230.5C 136.5,233.833 136.5,237.167 136.5,240.5C 133.167,240.5 129.833,240.5 126.5,240.5C 126.5,237.167 126.5,233.833 126.5,230.5C 123.167,230.5 119.833,230.5 116.5,230.5C 116.5,227.167 116.5,223.833 116.5,220.5C 113.167,220.5 109.833,220.5 106.5,220.5C 106.5,223.833 106.5,227.167 106.5,230.5C 103.167,230.5 99.8333,230.5 96.5,230.5C 96.6646,227.482 96.498,224.482 96,221.5C 92.9433,220.549 89.7766,220.216 86.5,220.5C 86.5,223.833 86.5,227.167 86.5,230.5C 89.5184,230.335 92.5184,230.502 95.5,231C 96.4505,234.057 96.7839,237.223 96.5,240.5C 98.8333,240.5 101.167,240.5 103.5,240.5C 103.5,241.5 103.5,242.5 103.5,243.5C 94.1667,243.5 84.8333,243.5 75.5,243.5C 75.5,242.5 75.5,241.5 75.5,240.5C 72.1667,240.5 68.8333,240.5 65.5,240.5C 65.5,237.167 65.5,233.833 65.5,230.5C 62.1667,230.5 58.8333,230.5 55.5,230.5C 55.5,233.833 55.5,237.167 55.5,240.5C 52.319,240.258 49.319,240.258 46.5,240.5C 45.513,237.232 45.1796,233.898 45.5,230.5C 42.1667,230.5 38.8333,230.5 35.5,230.5C 35.5,227.167 35.5,223.833 35.5,220.5C 35.5,217.167 35.5,213.833 35.5,210.5C 35.5,207.167 35.5,203.833 35.5,200.5C 34.931,196.671 35.5977,193.337 37.5,190.5 Z"/></g>
<g><path style="opacity:1" fill="#fefefe" d="M 25.5,200.5 C 28.8333,200.5 32.1667,200.5 35.5,200.5C 35.5,203.833 35.5,207.167 35.5,210.5C 32.1667,210.5 28.8333,210.5 25.5,210.5C 25.5,207.167 25.5,203.833 25.5,200.5 Z"/></g>
<g><path style="opacity:1" fill="#3ccaed" d="M 136.5,202.5 C 149.224,202.253 161.557,203.92 173.5,207.5C 167.794,207.03 162.127,206.363 156.5,205.5C 153.545,204.841 150.545,204.508 147.5,204.5C 143.833,203.833 140.167,203.167 136.5,202.5 Z"/></g>
<g><path style="opacity:1" fill="#1fc5f0" d="M 213.5,212.5 C 200.672,211.024 188.005,209.357 175.5,207.5C 179.668,206.097 184.001,205.097 188.5,204.5C 190.167,205.5 191.5,206.833 192.5,208.5C 193.068,206.565 194.235,205.232 196,204.5C 198.382,205.744 200.215,207.577 201.5,210C 205.796,210.076 209.796,210.909 213.5,212.5 Z"/></g>
<g><path style="opacity:1" fill="#fefefe" d="M 25.5,210.5 C 25.5,213.833 25.5,217.167 25.5,220.5C 22.1667,220.5 18.8333,220.5 15.5,220.5C 15.5,217.167 15.5,213.833 15.5,210.5C 18.8333,210.5 22.1667,210.5 25.5,210.5 Z"/></g>
<g><path style="opacity:1" fill="#efefef" d="M 25.5,210.5 C 28.8333,210.5 32.1667,210.5 35.5,210.5C 35.5,213.833 35.5,217.167 35.5,220.5C 32.1667,220.5 28.8333,220.5 25.5,220.5C 25.5,217.167 25.5,213.833 25.5,210.5 Z"/></g>
<g><path style="opacity:1" fill="#fefefe" d="M 55.5,210.5 C 58.8333,210.5 62.1667,210.5 65.5,210.5C 65.5,213.833 65.5,217.167 65.5,220.5C 62.1667,220.5 58.8333,220.5 55.5,220.5C 55.5,217.167 55.5,213.833 55.5,210.5 Z"/></g>
<g><path style="opacity:1" fill="#f4f5f5" d="M 248.5,68.5 C 251.833,68.5 255.167,68.5 258.5,68.5C 261.833,68.5 265.167,68.5 268.5,68.5C 268.5,71.8333 268.5,75.1667 268.5,78.5C 271.833,78.5 275.167,78.5 278.5,78.5C 278.5,81.8333 278.5,85.1667 278.5,88.5C 280.167,88.5 281.833,88.5 283.5,88.5C 283.5,122.167 283.5,155.833 283.5,189.5C 281.833,189.5 280.167,189.5 278.5,189.5C 278.5,186.167 278.5,182.833 278.5,179.5C 275.167,179.5 271.833,179.5 268.5,179.5C 268.5,182.833 268.5,186.167 268.5,189.5C 265.167,189.5 261.833,189.5 258.5,189.5C 258.5,186.167 258.5,182.833 258.5,179.5C 255.167,179.5 251.833,179.5 248.5,179.5C 248.5,182.833 248.5,186.167 248.5,189.5C 245.167,189.5 241.833,189.5 238.5,189.5C 238.5,193.167 238.5,196.833 238.5,200.5C 241.833,200.5 245.167,200.5 248.5,200.5C 248.5,197.167 248.5,193.833 248.5,190.5C 251.833,190.5 255.167,190.5 258.5,190.5C 258.5,193.833 258.5,197.167 258.5,200.5C 261.833,200.5 265.167,200.5 268.5,200.5C 268.5,197.167 268.5,193.833 268.5,190.5C 271.833,190.5 275.167,190.5 278.5,190.5C 278.5,193.833 278.5,197.167 278.5,200.5C 280.167,200.5 281.833,200.5 283.5,200.5C 283.5,214.833 283.5,229.167 283.5,243.5C 268.167,243.5 252.833,243.5 237.5,243.5C 237.5,242.5 237.5,241.5 237.5,240.5C 234.167,240.5 230.833,240.5 227.5,240.5C 227.5,237.167 227.5,233.833 227.5,230.5C 224.167,230.5 220.833,230.5 217.5,230.5C 217.5,233.833 217.5,237.167 217.5,240.5C 214.167,240.5 210.833,240.5 207.5,240.5C 207.5,237.167 207.5,233.833 207.5,230.5C 204.167,230.5 200.833,230.5 197.5,230.5C 197.5,227.167 197.5,223.833 197.5,220.5C 194.167,220.5 190.833,220.5 187.5,220.5C 187.5,217.167 187.5,213.833 187.5,210.5C 184.167,210.5 180.833,210.5 177.5,210.5C 177.5,213.833 177.5,217.167 177.5,220.5C 174.167,220.5 170.833,220.5 167.5,220.5C 167.5,217.167 167.5,213.833 167.5,210.5C 164.167,210.5 160.833,210.5 157.5,210.5C 157.634,208.708 157.301,207.042 156.5,205.5C 162.127,206.363 167.794,207.03 173.5,207.5C 174.167,207.5 174.833,207.5 175.5,207.5C 188.005,209.357 200.672,211.024 213.5,212.5C 217.657,213.449 221.99,214.116 226.5,214.5C 228.167,214.5 229.833,214.5 231.5,214.5C 232.919,215.451 234.585,215.784 236.5,215.5C 236.5,185.167 236.5,154.833 236.5,124.5C 234.012,122.612 231.012,121.945 227.5,122.5C 210.642,122.162 193.975,121.162 177.5,119.5C 197.34,119.83 217.007,119.497 236.5,118.5C 237.338,118.158 237.672,117.492 237.5,116.5C 240.831,118.298 244.498,118.964 248.5,118.5C 248.784,115.223 248.451,112.057 247.5,109C 244.518,108.502 241.518,108.335 238.5,108.5C 238.5,105.167 238.5,101.833 238.5,98.5C 241.833,98.5 245.167,98.5 248.5,98.5C 248.5,95.1667 248.5,91.8333 248.5,88.5C 245.552,88.2229 242.719,88.5562 240,89.5C 238.663,85.9743 238.163,82.3076 238.5,78.5C 241.833,78.5 245.167,78.5 248.5,78.5C 248.5,75.1667 248.5,71.8333 248.5,68.5 Z"/></g>
<g><path style="opacity:1" fill="#42ceed" d="M 213.5,212.5 C 216.85,212.335 220.183,212.502 223.5,213C 224.737,213.232 225.737,213.732 226.5,214.5C 221.99,214.116 217.657,213.449 213.5,212.5 Z"/></g>
<g><path style="opacity:1" fill="#fefefe" d="M 187.5,220.5 C 184.167,220.5 180.833,220.5 177.5,220.5C 177.5,217.167 177.5,213.833 177.5,210.5C 180.833,210.5 184.167,210.5 187.5,210.5C 187.5,213.833 187.5,217.167 187.5,220.5 Z"/></g>
<g><path style="opacity:1" fill="#fefefe" d="M 258.5,129.5 C 261.833,129.5 265.167,129.5 268.5,129.5C 268.5,132.833 268.5,136.167 268.5,139.5C 265.167,139.5 261.833,139.5 258.5,139.5C 258.5,136.167 258.5,132.833 258.5,129.5 Z"/></g>
<g><path style="opacity:1" fill="#fefefe" d="M 248.5,98.5 C 251.833,98.5 255.167,98.5 258.5,98.5C 258.5,101.833 258.5,105.167 258.5,108.5C 255.167,108.5 251.833,108.5 248.5,108.5C 248.5,105.167 248.5,101.833 248.5,98.5 Z"/></g>
<g><path style="opacity:1" fill="#f0f0f0" d="M 25.5,200.5 C 25.5,203.833 25.5,207.167 25.5,210.5C 22.1667,210.5 18.8333,210.5 15.5,210.5C 15.5,213.833 15.5,217.167 15.5,220.5C 18.8333,220.5 22.1667,220.5 25.5,220.5C 25.5,223.833 25.5,227.167 25.5,230.5C 22.1667,230.5 18.8333,230.5 15.5,230.5C 15.5,233.833 15.5,237.167 15.5,240.5C 16.8333,240.5 18.1667,240.5 19.5,240.5C 19.5,241.5 19.5,242.5 19.5,243.5C 18.1667,243.5 16.8333,243.5 15.5,243.5C 15.5858,242.504 15.2524,241.671 14.5,241C 11.5184,240.502 8.51838,240.335 5.5,240.5C 5.5,237.167 5.5,233.833 5.5,230.5C 8.51838,230.665 11.5184,230.498 14.5,230C 17.6556,221.318 14.6556,218.151 5.5,220.5C 5.17964,217.102 5.51298,213.768 6.5,210.5C 9.08415,209.607 11.7508,209.274 14.5,209.5C 14.2229,206.552 14.5562,203.719 15.5,201C 18.8168,200.502 22.1501,200.335 25.5,200.5 Z"/></g>
<g><path style="opacity:1" fill="#fbfbfb" d="M 25.5,220.5 C 28.8333,220.5 32.1667,220.5 35.5,220.5C 35.5,223.833 35.5,227.167 35.5,230.5C 38.8333,230.5 42.1667,230.5 45.5,230.5C 45.1796,233.898 45.513,237.232 46.5,240.5C 49.319,240.258 52.319,240.258 55.5,240.5C 55.5,237.167 55.5,233.833 55.5,230.5C 58.8333,230.5 62.1667,230.5 65.5,230.5C 65.5,233.833 65.5,237.167 65.5,240.5C 68.8333,240.5 72.1667,240.5 75.5,240.5C 75.5,241.5 75.5,242.5 75.5,243.5C 56.8333,243.5 38.1667,243.5 19.5,243.5C 19.5,242.5 19.5,241.5 19.5,240.5C 18.1667,240.5 16.8333,240.5 15.5,240.5C 15.5,237.167 15.5,233.833 15.5,230.5C 18.8333,230.5 22.1667,230.5 25.5,230.5C 25.5,227.167 25.5,223.833 25.5,220.5 Z"/></g>
<g><path style="opacity:1" fill="#f9f9f9" d="M 147.5,204.5 C 150.545,204.508 153.545,204.841 156.5,205.5C 157.301,207.042 157.634,208.708 157.5,210.5C 160.833,210.5 164.167,210.5 167.5,210.5C 167.5,213.833 167.5,217.167 167.5,220.5C 170.833,220.5 174.167,220.5 177.5,220.5C 180.833,220.5 184.167,220.5 187.5,220.5C 190.833,220.5 194.167,220.5 197.5,220.5C 197.5,223.833 197.5,227.167 197.5,230.5C 200.833,230.5 204.167,230.5 207.5,230.5C 207.5,233.833 207.5,237.167 207.5,240.5C 210.833,240.5 214.167,240.5 217.5,240.5C 217.5,237.167 217.5,233.833 217.5,230.5C 220.833,230.5 224.167,230.5 227.5,230.5C 227.5,233.833 227.5,237.167 227.5,240.5C 230.833,240.5 234.167,240.5 237.5,240.5C 237.5,241.5 237.5,242.5 237.5,243.5C 192.833,243.5 148.167,243.5 103.5,243.5C 103.5,242.5 103.5,241.5 103.5,240.5C 101.167,240.5 98.8333,240.5 96.5,240.5C 96.7839,237.223 96.4505,234.057 95.5,231C 92.5184,230.502 89.5184,230.335 86.5,230.5C 86.5,227.167 86.5,223.833 86.5,220.5C 89.7766,220.216 92.9433,220.549 96,221.5C 96.498,224.482 96.6646,227.482 96.5,230.5C 99.8333,230.5 103.167,230.5 106.5,230.5C 106.5,227.167 106.5,223.833 106.5,220.5C 109.833,220.5 113.167,220.5 116.5,220.5C 116.5,223.833 116.5,227.167 116.5,230.5C 119.833,230.5 123.167,230.5 126.5,230.5C 126.5,233.833 126.5,237.167 126.5,240.5C 129.833,240.5 133.167,240.5 136.5,240.5C 136.5,237.167 136.5,233.833 136.5,230.5C 139.833,230.5 143.167,230.5 146.5,230.5C 146.5,227.167 146.5,223.833 146.5,220.5C 149.833,220.5 153.167,220.5 156.5,220.5C 156.5,217.167 156.5,213.833 156.5,210.5C 153.5,210.5 150.5,210.5 147.5,210.5C 147.5,208.5 147.5,206.5 147.5,204.5 Z"/></g>
<g><path style="opacity:1" fill="#fdfdfd" d="M 238.5,230.5 C 241.833,230.5 245.167,230.5 248.5,230.5C 248.5,233.833 248.5,237.167 248.5,240.5C 245.167,240.5 241.833,240.5 238.5,240.5C 238.5,237.167 238.5,233.833 238.5,230.5 Z"/></g>
</svg>
